0
SECTION
2
HEADER
9
$INSUNITS
70
4
9
$ACADVER
1
AC1014
9
$HANDSEED
5
FFFF
0
ENDSEC
0
SECTION
2
TABLES
0
TABLE
2
VPORT
5
8
100
AcDbSymbolTable
0
ENDTAB
0
TABLE
2
LTYPE
5
5
100
AcDbSymbolTable
0
LTYPE
5
14
100
AcDbSymbolTableRecord
100
AcDbLinetypeTableRecord
2
BYBLOCK
70
0
0
LTYPE
5
15
100
AcDbSymbolTableRecord
100
AcDbLinetypeTableRecord
2
BYLAYER
70
0
0
ENDTAB
0
TABLE
2
LAYER
5
2
100
AcDbSymbolTable
70
2
0
LAYER
5
50
100
AcDbSymbolTableRecord
100
AcDbLayerTableRecord
2
0
70
0
6
CONTINUOUS
0
ENDTAB
0
TABLE
2
STYLE
5
3
100
AcDbSymbolTable
70
1
0
STYLE
5
11
100
AcDbSymbolTableRecord
100
AcDbTextStyleTableRecord
2
STANDARD
70
0
0
ENDTAB
0
TABLE
2
VIEW
5
6
100
AcDbSymbolTable
70
0
0
ENDTAB
0
TABLE
2
UCS
5
7
100
AcDbSymbolTable
70
0
0
ENDTAB
0
TABLE
2
APPID
5
9
100
AcDbSymbolTable
70
2
0
APPID
5
12
100
AcDbSymbolTableRecord
100
AcDbRegAppTableRecord
2
ACAD
70
0
0
ENDTAB
0
TABLE
2
DIMSTYLE
5
A
100
AcDbSymbolTable
70
1
0
ENDTAB
0
TABLE
2
BLOCK_RECORD
5
1
100
AcDbSymbolTable
70
1
0
BLOCK_RECORD
5
1F
100
AcDbSymbolTableRecord
100
AcDbBlockTableRecord
2
*MODEL_SPACE
0
BLOCK_RECORD
5
1B
100
AcDbSymbolTableRecord
100
AcDbBlockTableRecord
2
*PAPER_SPACE
0
ENDTAB
0
ENDSEC
0
SECTION
2
BLOCKS
0
BLOCK
5
20
100
AcDbEntity
100
AcDbBlockBegin
2
*MODEL_SPACE
0
ENDBLK
5
21
100
AcDbEntity
100
AcDbBlockEnd
0
BLOCK
5
1C
100
AcDbEntity
100
AcDbBlockBegin
2
*PAPER_SPACE
0
ENDBLK
5
1D
100
AcDbEntity
100
AcDbBlockEnd
0
ENDSEC
0
SECTION
2
ENTITIES
0
CIRCLE
5
100
100
AcDbEntity
8
0
100
AcDbCircle
10
-14.500000000003297
20
-429.3099920178521
30
0
40
4.2165000000000115
210
-5.4182815524179944e-48
220
-3.7093536882986742e-32
230
1
0
CIRCLE
5
101
100
AcDbEntity
8
0
100
AcDbCircle
10
-358.50000000000182
20
-429.30999201785204
30
0
40
4.2165000000000061
210
4.9303806576313249e-32
220
-3.7093536882986747e-32
230
1
0
CIRCLE
5
102
100
AcDbEntity
8
0
100
AcDbCircle
10
-702.50000000000023
20
-429.30999201785198
30
0
40
4.2165000000000026
210
-5.4182815524179896e-48
220
-3.7093536882986725e-32
230
1
0
CIRCLE
5
103
100
AcDbEntity
8
0
100
AcDbCircle
10
-530.50000000000102
20
-429.30999201785198
30
0
40
4.2165000000000044
210
-5.4182815524179896e-48
220
-3.7093536882986725e-32
230
1
0
CIRCLE
5
104
100
AcDbEntity
8
0
100
AcDbCircle
10
-186.50000000000256
20
-429.3099920178521
30
0
40
4.2165000000000097
210
-5.4182815524179926e-48
220
-3.7093536882986736e-32
230
1
0
CIRCLE
5
105
100
AcDbEntity
8
0
100
AcDbCircle
10
-663.00000005869515
20
-407.73763470045196
30
0
40
8.0000000000000071
210
-2.6271010885706497e-48
220
-2.5828896576236485e-32
230
1
0
CIRCLE
5
106
100
AcDbEntity
8
0
100
AcDbCircle
10
-20.000000058698078
20
-407.73763470045196
30
0
40
7.9999999999999716
210
-2.6271010885706497e-48
220
-2.5828896576236485e-32
230
1
0
CIRCLE
5
107
100
AcDbEntity
8
0
100
AcDbCircle
10
-697.00000005869515
20
-407.73763470045196
30
0
40
8.0000000000000071
210
-2.6271010885706497e-48
220
-2.5828896576236485e-32
230
1
0
CIRCLE
5
108
100
AcDbEntity
8
0
100
AcDbCircle
10
-560.00000005869515
20
-407.73763470045196
30
0
40
8.0000000000000071
210
-2.6271010885706497e-48
220
-2.5828896576236485e-32
230
1
0
CIRCLE
5
109
100
AcDbEntity
8
0
100
AcDbCircle
10
-697.00000000000023
20
-364.3299960088134
30
0
40
6.0000000000000142
210
0
220
-0
230
1
0
CIRCLE
5
110
100
AcDbEntity
8
0
100
AcDbCircle
10
-56.499999999999062
20
-264.80055875728965
30
0
40
6.0000000000000142
210
0
220
-0
230
1
0
CIRCLE
5
111
100
AcDbEntity
8
0
100
AcDbCircle
10
-56.49999999999217
20
-293.0505587572905
30
0
40
4.1250000000000142
210
0
220
-0
230
1
0
CIRCLE
5
112
100
AcDbEntity
8
0
100
AcDbCircle
10
-146.50000000000148
20
-317.82999600881334
30
0
40
1.25
210
0
220
-0
230
1
0
LWPOLYLINE
5
113
100
AcDbEntity
8
0
100
AcDbPolyline
90
8
70
1
43
0.0
10
-183.00000005869563
20
-247.31527738305181
10
-534.00000005869572
20
-247.31527738305178
42
0.41421356237308909
10
-541.00000005869572
20
-254.31527738305181
10
-541.00000005869572
20
-382.31527738305192
42
0.41421356237309803
10
-534.00000005869572
20
-389.31527738305181
10
-183.00000005869563
20
-389.31527738305181
42
0.41421356237309803
10
-176.00000005869575
20
-382.31527738305192
10
-176.00000005869572
20
-254.31527738305175
42
0.41421356237309803
0
CIRCLE
5
114
100
AcDbEntity
8
0
100
AcDbCircle
10
-113.50000000000314
20
-350.82999600881305
30
0
40
1.25
210
0
220
-0
230
1
0
CIRCLE
5
115
100
AcDbEntity
8
0
100
AcDbCircle
10
-82.499999999992184
20
-293.0505587572905
30
0
40
4.1250000000000142
210
0
220
-0
230
1
0
CIRCLE
5
116
100
AcDbEntity
8
0
100
AcDbCircle
10
-30.499999999999048
20
-264.80055875728965
30
0
40
6.0000000000000142
210
0
220
-0
230
1
0
LWPOLYLINE
5
117
100
AcDbEntity
8
0
100
AcDbPolyline
90
8
70
1
43
0.0
10
-660.00000000000011
20
-387.32999600881334
10
-660.00000000000011
20
-317.32999600881334
42
0.41421356237309503
10
-662.00000000000023
20
-315.32999600881334
10
-664.00000000000023
20
-315.32999600881334
42
0.41421356237309503
10
-666.00000000000023
20
-317.32999600881334
10
-666.00000000000023
20
-387.32999600881334
42
0.41421356237309503
10
-664.00000000000023
20
-389.32999600881328
10
-662.00000000000023
20
-389.3299960088134
42
0.41421356237309503
0
LWPOLYLINE
5
118
100
AcDbEntity
8
0
100
AcDbPolyline
90
8
70
1
43
0.0
10
-43.500000000001791
20
-387.32999600881351
10
-43.500000000001791
20
-377.82999600881351
42
0.41421356237309503
10
-44.500000000001805
20
-376.82999600881351
10
-55.500000000001677
20
-376.82999600881345
42
0.41421356237309503
10
-56.500000000001762
20
-377.82999600881345
10
-56.500000000001762
20
-387.32999600881351
42
0.41421356237309503
10
-55.500000000001748
20
-388.32999600881351
10
-44.500000000001876
20
-388.32999600881351
42
0.41421356237309503
0
CIRCLE
5
119
100
AcDbEntity
8
0
100
AcDbCircle
10
-82.499999999999076
20
-264.80055875728965
30
0
40
6.0000000000000142
210
0
220
-0
230
1
0
CIRCLE
5
120
100
AcDbEntity
8
0
100
AcDbCircle
10
-30.499999999992156
20
-293.0505587572905
30
0
40
4.1250000000000142
210
0
220
-0
230
1
0
CIRCLE
5
121
100
AcDbEntity
8
0
100
AcDbCircle
10
-113.50000000000293
20
-317.82999600881442
30
0
40
1.25
210
0
220
-0
230
1
0
CIRCLE
5
122
100
AcDbEntity
8
0
100
AcDbCircle
10
-130.00000000000205
20
-334.32999600881345
30
0
40
20.499999999999972
210
0
220
-0
230
1
0
CIRCLE
5
123
100
AcDbEntity
8
0
100
AcDbCircle
10
-146.5000000000019
20
-350.8299960088134
30
0
40
1.25
210
0
220
-0
230
1
0
LWPOLYLINE
5
124
100
AcDbEntity
8
0
100
AcDbPolyline
90
8
70
1
43
0.0
10
-107.00000000000266
20
-279.05055884112903
10
-107.00000000000188
20
-254.050558841129
42
0.41421356237310542
10
-108.00000000000182
20
-253.050558841129
10
-152.00000000000193
20
-253.05055884112898
42
0.41421356237309503
10
-153.00000000000196
20
-254.05055884112898
10
-153.00000000000202
20
-279.05055884112898
42
0.41421356237309503
10
-152.00000000000202
20
-280.05055884112898
10
-108.00000000000267
20
-280.05055884112898
42
0.4142135623730846
0
CIRCLE
5
125
100
AcDbEntity
8
0
100
AcDbCircle
10
-20.000000000001563
20
-364.32999600881715
30
0
40
6.0000000000000142
210
0
220
-0
230
1
0
LWPOLYLINE
5
126
100
AcDbEntity
8
0
100
AcDbPolyline
90
8
70
1
43
0.0
10
-557.00000000000011
20
-387.32999600881334
10
-557.00000000000023
20
-317.32999600881334
42
0.41421356237309503
10
-559.00000000000023
20
-315.32999600881334
10
-561.00000000000034
20
-315.32999600881334
42
0.41421356237309503
10
-563.00000000000023
20
-317.32999600881334
10
-563.00000000000034
20
-387.3299960088134
42
0.41421356237309503
10
-561.00000000000034
20
-389.3299960088134
10
-559
20
-389.32999600881345
42
0.41421356237310542
0
LWPOLYLINE
5
127
100
AcDbEntity
8
0
100
AcDbPolyline
90
8
70
1
43
0.0
10
-63.50000000000172
20
-387.32999600881317
10
-63.50000000000172
20
-377.82999600881317
42
0.41421356237309503
10
-64.500000000001734
20
-376.82999600881317
10
-75.500000000001677
20
-376.82999600881317
42
0.41421356237307422
10
-76.500000000001691
20
-377.82999600881311
10
-76.500000000001691
20
-387.32999600881317
42
0.41421356237309503
10
-75.500000000001677
20
-388.32999600881317
10
-64.500000000001734
20
-388.32999600881317
42
0.41421356237309503
0
CIRCLE
5
128
100
AcDbEntity
8
0
100
AcDbCircle
10
-14.500000000001521
20
-8.9399999999984914
30
0
40
4.2164999999984296
210
4.9303806576313249e-32
220
-9.5296718189277018e-33
230
1
0
CIRCLE
5
129
100
AcDbEntity
8
0
100
AcDbCircle
10
-358.49999999999994
20
-8.939999999999948
30
0
40
4.2164999999984136
210
4.9303806576313249e-32
220
-9.5296718189277018e-33
230
1
0
CIRCLE
5
130
100
AcDbEntity
8
0
100
AcDbCircle
10
-702.49999999999841
20
-8.9399999999999125
30
0
40
4.2164999999984261
210
-3.5761931526188149e-49
220
-9.5296718189276977e-33
230
1
0
CIRCLE
5
131
100
AcDbEntity
8
0
100
AcDbCircle
10
-530.4999999999992
20
-8.939999999999948
30
0
40
4.2164999999984056
210
-3.5761931526188134e-49
220
-9.529671818927695e-33
230
1
0
CIRCLE
5
132
100
AcDbEntity
8
0
100
AcDbCircle
10
-186.50000000000063
20
-8.9399999999992374
30
0
40
4.2164999999984074
210
-3.576193152618821e-49
220
-9.5296718189277046e-33
230
1
0
CIRCLE
5
133
100
AcDbEntity
8
0
100
AcDbCircle
10
-107.00000000000017
20
-234.90763869141375
30
0
40
3.1499999999999995
210
-2.4938884188209568e-48
220
-2.5165523568146292e-32
230
1
0
CIRCLE
5
134
100
AcDbEntity
8
0
100
AcDbCircle
10
-14.499999999999957
20
-128.90763869153284
30
0
40
3.1499999999999995
210
-2.4938884188209568e-48
220
-2.5165523568146292e-32
230
1
0
CIRCLE
5
135
100
AcDbEntity
8
0
100
AcDbCircle
10
-245.00000000000011
20
-22.907638691640315
30
0
40
3.1499999999999995
210
-2.4938884188209568e-48
220
-2.5165523568146292e-32
230
1
0
CIRCLE
5
136
100
AcDbEntity
8
0
100
AcDbCircle
10
-337.99999999997453
20
-128.90763869161754
30
0
40
3.1499999999999995
210
-2.4938884188209568e-48
220
-2.5165523568146292e-32
230
1
0
CIRCLE
5
137
100
AcDbEntity
8
0
100
AcDbCircle
10
-462.00000004801484
20
-22.907638691638468
30
0
40
3.1499999999999995
210
-2.4938884188209568e-48
220
-2.5165523568146292e-32
230
1
0
CIRCLE
5
138
100
AcDbEntity
8
0
100
AcDbCircle
10
-546.99999999997453
20
-128.90763869156703
30
0
40
3.1499999999999995
210
-2.4938884188209568e-48
220
-2.5165523568146292e-32
230
1
0
CIRCLE
5
139
100
AcDbEntity
8
0
100
AcDbCircle
10
-702.50000000000011
20
-234.90763869141361
30
0
40
3.1499999999999995
210
-2.4938884188209568e-48
220
-2.5165523568146292e-32
230
1
0
CIRCLE
5
140
100
AcDbEntity
8
0
100
AcDbCircle
10
-702.5
20
-22.907638691636407
30
1.2621774483536189e-28
40
3.1499999999999995
210
-2.4938884188209568e-48
220
-2.5165523568146292e-32
230
1
0
CIRCLE
5
141
100
AcDbEntity
8
0
100
AcDbCircle
10
-702.50000000000011
20
-128.90763869152943
30
0
40
3.1499999999999995
210
-2.4938884188209568e-48
220
-2.5165523568146292e-32
230
1
0
CIRCLE
5
142
100
AcDbEntity
8
0
100
AcDbCircle
10
-547.00000000000023
20
-234.90763869141364
30
0
40
3.1499999999999995
210
-2.4938884188209568e-48
220
-2.5165523568146292e-32
230
1
0
CIRCLE
5
143
100
AcDbEntity
8
0
100
AcDbCircle
10
-462.00000004801564
20
-128.90763869163854
30
0
40
3.1499999999999995
210
-2.4938884188209568e-48
220
-2.5165523568146292e-32
230
1
0
CIRCLE
5
144
100
AcDbEntity
8
0
100
AcDbCircle
10
-338.00000000000017
20
-234.90763869141364
30
0
40
3.1499999999999995
210
-2.4938884188209568e-48
220
-2.5165523568146292e-32
230
1
0
CIRCLE
5
145
100
AcDbEntity
8
0
100
AcDbCircle
10
-245.00000002934831
20
-128.90763869164005
30
-1.2621774483536189e-28
40
3.1499999999999995
210
-2.4938884188209568e-48
220
-2.5165523568146292e-32
230
1
0
CIRCLE
5
146
100
AcDbEntity
8
0
100
AcDbCircle
10
-107.00000000004948
20
-128.90763869157584
30
-1.2621774483536189e-28
40
3.1499999999999995
210
-2.4938884188209568e-48
220
-2.5165523568146292e-32
230
1
0
CIRCLE
5
147
100
AcDbEntity
8
0
100
AcDbCircle
10
-14.499999999999957
20
-22.907638691642269
30
0
40
3.1499999999999995
210
-2.4938884188209568e-48
220
-2.5165523568146292e-32
230
1
0
CIRCLE
5
148
100
AcDbEntity
8
0
100
AcDbCircle
10
-14.500000000000028
20
-234.90763869141364
30
0
40
3.1499999999999995
210
-2.4938884188209568e-48
220
-2.5165523568146292e-32
230
1
0
LWPOLYLINE
5
149
100
AcDbEntity
8
0
100
AcDbPolyline
90
8
70
1
43
0.0
10
-10.000000000000071
20
-226.40763869141367
10
-10.000000000000071
20
-137.40763869134648
42
0.41421356237309503
10
-14.500000000000099
20
-132.90763869134648
10
-98.500000000000085
20
-132.90763869134648
42
0.41421356237309503
10
-103.00000000000011
20
-137.40763869134645
10
-103.00000000000014
20
-226.40763869141367
42
0.41421356237309503
10
-98.500000000000156
20
-230.90763869141367
10
-14.500000000000099
20
-230.90763869141367
42
0.41421356237309503
0
LWPOLYLINE
5
150
100
AcDbEntity
8
0
100
AcDbPolyline
90
8
70
1
43
0.0
10
-10.000000000000071
20
-120.40763869163861
10
-10.000000000000142
20
-31.407638691642319
42
0.41421356237309503
10
-14.500000000000099
20
-26.907638691642326
10
-236.50000000000011
20
-26.907638691642319
42
0.41421356237309503
10
-241.00000000000011
20
-31.407638691642319
10
-241.00000000000011
20
-120.4076386916386
42
0.41421356237309503
10
-236.50000000000011
20
-124.90763869163858
10
-14.500000000000099
20
-124.9076386916386
42
0.41421356237309503
0
LWPOLYLINE
5
151
100
AcDbEntity
8
0
100
AcDbPolyline
90
8
70
1
43
0.0
10
-346.50000000000023
20
-132.9076386916378
10
-538.50000000000011
20
-132.9076386916378
42
0.41421356237309503
10
-543.00000000000023
20
-137.40763869163777
10
-543.00000000000023
20
-226.40763869141367
42
0.41421356237309503
10
-538.50000000000011
20
-230.90763869141367
10
-346.50000000000023
20
-230.90763869141367
42
0.41421356237309503
10
-342.00000000000017
20
-226.40763869141367
10
-342.00000000000017
20
-137.4076386916378
42
0.41421356237309503
0
LWPOLYLINE
5
152
100
AcDbEntity
8
0
100
AcDbPolyline
90
8
70
1
43
0.0
10
-702.49999999999375
20
-230.90763869163126
10
-555.49999999999375
20
-230.90763869142012
42
0.4142135623726742
10
-551.00000000000011
20
-226.40763869142012
10
-551.00000000000011
20
-137.40763869163774
42
0.41421356237309503
10
-555.50000000000023
20
-132.90763869163774
10
-702.50000000000023
20
-132.90763869163771
42
0.41421356237309503
10
-707.00000000000023
20
-137.40763869163771
10
-707.00000000000034
20
-226.40763869163126
42
0.41421356237352047
0
LWPOLYLINE
5
153
100
AcDbEntity
8
0
100
AcDbPolyline
90
8
70
1
43
0.0
10
-111.00000000000016
20
-226.40763869141375
10
-111.00000000000016
20
-137.40763869164149
42
0.41421356237309503
10
-115.50000000000018
20
-132.90763869164149
10
-329.50000000000017
20
-132.90763869164149
42
0.41421356237309503
10
-334.00000000000023
20
-137.40763869164147
10
-334.00000000000023
20
-226.40763869141367
42
0.41421356237309503
10
-329.50000000000017
20
-230.90763869141367
10
-115.50000000000018
20
-230.90763869141372
42
0.41421356237309503
0
LWPOLYLINE
5
154
100
AcDbEntity
8
0
100
AcDbPolyline
90
8
70
1
43
0.0
10
-466.00000004801575
20
-120.40763869163852
10
-466.00000004801575
20
-31.407638691638553
42
0.41421356237309503
10
-470.50000004801569
20
-26.90763869163856
10
-692.50000004801575
20
-26.907638691638482
42
0.41421356237309503
10
-697.00000004801564
20
-31.407638691638482
10
-697.00000004801564
20
-120.40763869163851
42
0.41421356237309503
10
-692.50000004801564
20
-124.9076386916385
10
-470.50000004801569
20
-124.90763869163851
42
0.41421356237309503
0
LWPOLYLINE
5
155
100
AcDbEntity
8
0
100
AcDbPolyline
90
8
70
1
43
0.0
10
-253.50000000266905
20
-26.907638691615929
10
-453.50000000217858
20
-26.907638690443925
42
0.41421356223130756
10
-458.00000000220496
20
-31.407638688239139
10
-458.00000004581091
20
-120.40763863924417
42
0.41421356244471719
10
-453.50000004691532
20
-124.90763864144895
10
-253.50000005710567
20
-124.90763869053417
42
0.41421356226955297
10
-249.00000005600128
20
-120.40763869322943
10
-249.0000000026954
20
-31.407638694311153
42
0.41421356254680708
0
LWPOLYLINE
5
156
100
AcDbEntity
8
0
100
AcDbPolyline
90
6
70
1
43
0.0
10
0
20
0
10
-2.0339285811132868e-12
20
-432.65999201785189
42
-0.41421356237308943
10
-6.0000000000020748
20
-438.65999201785195
10
-711.00000000000023
20
-438.65999201785206
42
-0.41421356237309159
10
-717.00000000000034
20
-432.65999201785178
10
-716.99999999999841
20
3.5527136788005009e-14
0
LINE
5
157
100
AcDbEntity
8
0
100
AcDbLine
10
-92.023810264419822
20
-279.17555899570908
30
0
11
-92.023810264419822
21
-284.17555899570908
31
0
0
LINE
5
158
100
AcDbEntity
8
0
100
AcDbLine
10
-92.023810264419822
20
-279.17555899570908
30
0
11
-89.880952951263694
21
-279.17555899570908
31
0
0
LINE
5
159
100
AcDbEntity
8
0
100
AcDbLine
10
-89.880952951263694
20
-279.17555899570908
30
0
11
-89.166667279552726
21
-279.41365421961274
31
0
0
LINE
5
160
100
AcDbEntity
8
0
100
AcDbLine
10
-89.166667279552726
20
-279.41365421961274
30
0
11
-88.92857205564907
21
-279.65174944351639
31
0
0
LINE
5
161
100
AcDbEntity
8
0
100
AcDbLine
10
-88.92857205564907
20
-279.65174944351639
30
0
11
-88.690476831745414
21
-280.12793989132371
31
0
0
LINE
5
162
100
AcDbEntity
8
0
100
AcDbLine
10
-88.690476831745414
20
-280.12793989132371
30
0
11
-88.690476831745414
21
-280.84222526501145
31
0
0
LINE
5
163
100
AcDbEntity
8
0
100
AcDbLine
10
-88.690476831745414
20
-280.84222526501145
30
0
11
-88.92857205564907
21
-281.31841630886521
31
0
0
LINE
5
164
100
AcDbEntity
8
0
100
AcDbLine
10
-88.92857205564907
20
-281.31841630886521
30
0
11
-89.166667279552726
21
-281.55651123474564
31
0
0
LINE
5
165
100
AcDbEntity
8
0
100
AcDbLine
10
-89.166667279552726
20
-281.55651123474564
30
0
11
-89.880952951263694
21
-281.79460675667252
31
0
0
LINE
5
166
100
AcDbEntity
8
0
100
AcDbLine
10
-89.880952951263694
20
-281.79460675667252
30
0
11
-92.023810264419822
21
-281.79460675667252
31
0
0
LINE
5
167
100
AcDbEntity
8
0
100
AcDbLine
10
-87.023810264419822
20
-279.17555899570908
30
0
11
-87.023810264419822
21
-284.17555899570908
31
0
0
LINE
5
168
100
AcDbEntity
8
0
100
AcDbLine
10
-84.16666757757595
20
-279.17555899570908
30
0
11
-84.16666757757595
21
-284.17555899570908
31
0
0
LINE
5
169
100
AcDbEntity
8
0
100
AcDbLine
10
-85.833334144901542
20
-279.17555899570908
30
0
11
-82.500000712227134
21
-279.17555899570908
31
0
0
LINE
5
170
100
AcDbEntity
8
0
100
AcDbLine
10
-77.976191160034446
20
-280.36603541325059
30
0
11
-78.214286681961326
21
-279.88984466742005
31
0
0
LINE
5
171
100
AcDbEntity
8
0
100
AcDbLine
10
-78.214286681961326
20
-279.88984466742005
30
0
11
-78.690477725815086
21
-279.41365421961274
31
0
0
LINE
5
172
100
AcDbEntity
8
0
100
AcDbLine
10
-78.690477725815086
20
-279.41365421961274
30
0
11
-79.16666757757595
21
-279.17555899570908
31
0
0
LINE
5
173
100
AcDbEntity
8
0
100
AcDbLine
10
-79.16666757757595
20
-279.17555899570908
30
0
11
-80.119048473190574
21
-279.17555899570908
31
0
0
LINE
5
174
100
AcDbEntity
8
0
100
AcDbLine
10
-80.119048473190574
20
-279.17555899570908
30
0
11
-80.595238920997886
21
-279.41365421961274
31
0
0
LINE
5
175
100
AcDbEntity
8
0
100
AcDbLine
10
-80.595238920997886
20
-279.41365421961274
30
0
11
-81.071429368805198
21
-279.88984466742005
31
0
0
LINE
5
176
100
AcDbEntity
8
0
100
AcDbLine
10
-81.071429368805198
20
-279.88984466742005
30
0
11
-81.309524890732078
21
-280.36603541325059
31
0
0
LINE
5
177
100
AcDbEntity
8
0
100
AcDbLine
10
-81.309524890732078
20
-280.36603541325059
30
0
11
-81.54761981661251
21
-281.08032078693833
31
0
0
LINE
5
178
100
AcDbEntity
8
0
100
AcDbLine
10
-81.54761981661251
20
-281.08032078693833
30
0
11
-81.54761981661251
21
-282.27079720447983
31
0
0
LINE
5
179
100
AcDbEntity
8
0
100
AcDbLine
10
-81.54761981661251
20
-282.27079720447983
30
0
11
-81.309524890732078
21
-282.98508257816758
31
0
0
LINE
5
180
100
AcDbEntity
8
0
100
AcDbLine
10
-81.309524890732078
20
-282.98508257816758
30
0
11
-81.071429368805198
21
-283.46127302597489
31
0
0
LINE
5
181
100
AcDbEntity
8
0
100
AcDbLine
10
-81.071429368805198
20
-283.46127302597489
30
0
11
-80.595238920997886
21
-283.9374634737822
31
0
0
LINE
5
182
100
AcDbEntity
8
0
100
AcDbLine
10
-80.595238920997886
20
-283.9374634737822
30
0
11
-80.119048473190574
21
-284.17555899570908
31
0
0
LINE
5
183
100
AcDbEntity
8
0
100
AcDbLine
10
-80.119048473190574
20
-284.17555899570908
30
0
11
-79.16666757757595
21
-284.17555899570908
31
0
0
LINE
5
184
100
AcDbEntity
8
0
100
AcDbLine
10
-79.16666757757595
20
-284.17555899570908
30
0
11
-78.690477725815086
21
-283.9374634737822
31
0
0
LINE
5
185
100
AcDbEntity
8
0
100
AcDbLine
10
-78.690477725815086
20
-283.9374634737822
30
0
11
-78.214286681961326
21
-283.46127302597489
31
0
0
LINE
5
186
100
AcDbEntity
8
0
100
AcDbLine
10
-78.214286681961326
20
-283.46127302597489
30
0
11
-77.976191160034446
21
-282.98508257816758
31
0
0
LINE
5
187
100
AcDbEntity
8
0
100
AcDbLine
10
-76.309524890732078
20
-279.17555899570908
30
0
11
-76.309524890732078
21
-284.17555899570908
31
0
0
LINE
5
188
100
AcDbEntity
8
0
100
AcDbLine
10
-72.976191160034446
20
-279.17555899570908
30
0
11
-72.976191160034446
21
-284.17555899570908
31
0
0
LINE
5
189
100
AcDbEntity
8
0
100
AcDbLine
10
-76.309524890732078
20
-281.55651123474564
30
0
11
-72.976191160034446
21
-281.55651123474564
31
0
0
LINE
5
190
100
AcDbEntity
8
0
100
AcDbLine
10
-63.404762205433144
20
-279.17555899570908
30
0
11
-61.500000265192284
21
-281.55651123474564
31
0
0
LINE
5
191
100
AcDbEntity
8
0
100
AcDbLine
10
-61.500000265192284
20
-281.55651123474564
30
0
11
-61.500000265192284
21
-284.17555899570908
31
0
0
LINE
5
192
100
AcDbEntity
8
0
100
AcDbLine
10
-59.595238324951424
20
-279.17555899570908
30
0
11
-61.500000265192284
21
-281.55651123474564
31
0
0
LINE
5
193
100
AcDbEntity
8
0
100
AcDbLine
10
-57.214286085914864
20
-279.17555899570908
30
0
11
-59.119047877144112
21
-284.17555899570908
31
0
0
LINE
5
194
100
AcDbEntity
8
0
100
AcDbLine
10
-57.214286085914864
20
-279.17555899570908
30
0
11
-55.309523698639168
21
-284.17555899570908
31
0
0
LINE
5
195
100
AcDbEntity
8
0
100
AcDbLine
10
-58.40476190740992
20
-282.50889213036027
30
0
11
-56.02380966837336
21
-282.50889213036027
31
0
0
LINE
5
196
100
AcDbEntity
8
0
100
AcDbLine
10
-54.595238324951424
20
-279.17555899570908
30
0
11
-53.40476190740992
21
-284.17555899570908
31
0
0
LINE
5
197
100
AcDbEntity
8
0
100
AcDbLine
10
-52.214285489868416
20
-279.17555899570908
30
0
11
-53.40476190740992
21
-284.17555899570908
31
0
0
LINE
5
198
100
AcDbEntity
8
0
100
AcDbLine
10
-52.214285489868416
20
-279.17555899570908
30
0
11
-51.023810264419808
21
-284.17555899570908
31
0
0
LINE
5
199
100
AcDbEntity
8
0
100
AcDbLine
10
-49.833333846878304
20
-279.17555899570908
30
0
11
-51.023810264419808
21
-284.17555899570908
31
0
0
LINE
5
200
100
AcDbEntity
8
0
100
AcDbLine
10
-38.714286011409044
20
-279.17555899570908
30
0
11
-38.714286011409044
21
-284.17555899570908
31
0
0
LINE
5
201
100
AcDbEntity
8
0
100
AcDbLine
10
-38.714286011409044
20
-279.17555899570908
30
0
11
-36.571428772758722
21
-279.17555899570908
31
0
0
LINE
5
202
100
AcDbEntity
8
0
100
AcDbLine
10
-36.571428772758722
20
-279.17555899570908
30
0
11
-35.857143101047754
21
-279.41365421961274
31
0
0
LINE
5
203
100
AcDbEntity
8
0
100
AcDbLine
10
-35.857143101047754
20
-279.41365421961274
30
0
11
-35.619047877144098
21
-279.65174944351639
31
0
0
LINE
5
204
100
AcDbEntity
8
0
100
AcDbLine
10
-35.619047877144098
20
-279.65174944351639
30
0
11
-35.380952653240442
21
-280.12793989132371
31
0
0
LINE
5
205
100
AcDbEntity
8
0
100
AcDbLine
10
-35.380952653240442
20
-280.12793989132371
30
0
11
-35.380952653240442
21
-280.60413033913102
31
0
0
LINE
5
206
100
AcDbEntity
8
0
100
AcDbLine
10
-35.380952653240442
20
-280.60413033913102
30
0
11
-35.619047877144098
21
-281.08032078693833
31
0
0
LINE
5
207
100
AcDbEntity
8
0
100
AcDbLine
10
-35.619047877144098
20
-281.08032078693833
30
0
11
-35.857143101047754
21
-281.31841630886521
31
0
0
LINE
5
208
100
AcDbEntity
8
0
100
AcDbLine
10
-35.857143101047754
20
-281.31841630886521
30
0
11
-36.571428772758722
21
-281.55651123474564
31
0
0
LINE
5
209
100
AcDbEntity
8
0
100
AcDbLine
10
-36.571428772758722
20
-281.55651123474564
30
0
11
-38.714286011409044
21
-281.55651123474564
31
0
0
LINE
5
210
100
AcDbEntity
8
0
100
AcDbLine
10
-37.047619220566034
20
-281.55651123474564
30
0
11
-35.380952653240442
21
-284.17555899570908
31
0
0
LWPOLYLINE
5
211
100
AcDbEntity
8
0
100
AcDbPolyline
90
20
70
1
43
0.0
10
-33.000000116180658
20
-279.41365421961274
10
-32.523809668373346
20
-279.17555899570908
10
-31.571428772758722
20
-279.17555899570908
10
-31.09523832495141
20
-279.41365421961274
10
-30.619047877144098
20
-279.88984466742005
10
-30.380952951263666
20
-280.36603541325059
10
-30.142857429336786
20
-281.08032078693833
10
-30.142857429336786
20
-282.27079720447983
10
-30.380952951263666
20
-282.98508257816758
10
-30.619047877144098
20
-283.46127302597489
10
-31.09523832495141
20
-283.9374634737822
10
-31.571428772758722
20
-284.17555899570908
10
-32.523809668373346
20
-284.17555899570908
10
-33.000000116180658
20
-283.9374634737822
10
-33.476190862011194
20
-283.46127302597489
10
-33.71428608591485
20
-282.98508257816758
10
-33.952381309818506
20
-282.27079720447983
10
-33.952381309818506
20
-281.08032078693833
10
-33.71428608591485
20
-280.36603541325059
10
-33.476190862011194
20
-279.88984466742005
0
LINE
5
212
100
AcDbEntity
8
0
100
AcDbLine
10
-28.47619056398797
20
-279.17555899570908
30
0
11
-28.47619056398797
21
-284.17555899570908
31
0
0
LINE
5
213
100
AcDbEntity
8
0
100
AcDbLine
10
-28.47619056398797
20
-284.17555899570908
30
0
11
-25.61904728109765
21
-284.17555899570908
31
0
0
LINE
5
214
100
AcDbEntity
8
0
100
AcDbLine
10
-24.428570863556153
20
-279.17555899570908
30
0
11
-24.428570863556153
21
-284.17555899570908
31
0
0
LINE
5
215
100
AcDbEntity
8
0
100
AcDbLine
10
-24.428570863556153
20
-284.17555899570908
30
0
11
-21.571428176712281
21
-284.17555899570908
31
0
0
ENDSEC
0
SECTION
2
OBJECTS
0
DICTIONARY
5
C
100
AcDbDictionary
3
ACAD_GROUP
350
D
3
ACAD_MLINESTYLE
350
17
0
DICTIONARY
5
D
100
AcDbDictionary
0
DICTIONARY
5
1A
330
C
100
AcDbDictionary
0
DICTIONARY
5
17
100
AcDbDictionary
0
ENDSEC
0
EOF
