ISO-10303-21;
HEADER;
/* Generated by software containing ST-Developer
 * from STEP Tools, Inc. (www.steptools.com) 
 */

FILE_DESCRIPTION(
/* description */ (''),
/* implementation_level */ '2;1');

FILE_NAME(
/* name */ 
'C:/Users/anton/Documents/Kerbal Space Program/Kerbal_Control_Panel/KC
P2-physical/CAD/ForManufacture/Aluminum/Panel Back Plate/Panel_BackPla
te_v98.step',
/* time_stamp */ '2021-03-29T22:01:36-06:00',
/* author */ (''),
/* organization */ (''),
/* preprocessor_version */ 'ST-DEVELOPER v18.1',
/* originating_system */ 'Autodesk Translation Framework v9.10.0.1330',

/* authorisation */ '');

FILE_SCHEMA (('AUTOMOTIVE_DESIGN { 1 0 10303 214 3 1 1 }'));
ENDSEC;

DATA;
#10=MECHANICAL_DESIGN_GEOMETRIC_PRESENTATION_REPRESENTATION('',(#777,#778,
#779,#780,#781,#782,#783,#784,#785,#786,#787,#788,#789,#790,#791,#792,#793),
#1431);
#11=SHAPE_REPRESENTATION_RELATIONSHIP('SRR','None',#1438,#12);
#12=ADVANCED_BREP_SHAPE_REPRESENTATION('',(#13),#1430);
#13=MANIFOLD_SOLID_BREP('Body1',#838);
#14=FACE_BOUND('',#160,.T.);
#15=FACE_BOUND('',#161,.T.);
#16=FACE_BOUND('',#162,.T.);
#17=FACE_BOUND('',#163,.T.);
#18=FACE_BOUND('',#164,.T.);
#19=FACE_BOUND('',#165,.T.);
#20=FACE_BOUND('',#166,.T.);
#21=FACE_BOUND('',#167,.T.);
#22=FACE_BOUND('',#168,.T.);
#23=FACE_BOUND('',#169,.T.);
#24=FACE_BOUND('',#170,.T.);
#25=FACE_BOUND('',#171,.T.);
#26=FACE_BOUND('',#172,.T.);
#27=FACE_BOUND('',#173,.T.);
#28=FACE_BOUND('',#174,.T.);
#29=FACE_BOUND('',#176,.T.);
#30=FACE_BOUND('',#177,.T.);
#31=FACE_BOUND('',#178,.T.);
#32=FACE_BOUND('',#179,.T.);
#33=FACE_BOUND('',#180,.T.);
#34=FACE_BOUND('',#181,.T.);
#35=FACE_BOUND('',#182,.T.);
#36=FACE_BOUND('',#183,.T.);
#37=FACE_BOUND('',#184,.T.);
#38=FACE_BOUND('',#185,.T.);
#39=FACE_BOUND('',#186,.T.);
#40=FACE_BOUND('',#187,.T.);
#41=FACE_BOUND('',#188,.T.);
#42=FACE_BOUND('',#189,.T.);
#43=FACE_BOUND('',#190,.T.);
#44=PLANE('',#930);
#45=PLANE('',#931);
#46=PLANE('',#932);
#47=PLANE('',#936);
#48=PLANE('',#937);
#49=PLANE('',#941);
#50=PLANE('',#945);
#51=PLANE('',#946);
#52=PLANE('',#947);
#53=PLANE('',#948);
#54=CYLINDRICAL_SURFACE('',#855,2.248);
#55=CYLINDRICAL_SURFACE('',#860,2.248);
#56=CYLINDRICAL_SURFACE('',#865,2.248);
#57=CYLINDRICAL_SURFACE('',#870,2.248);
#58=CYLINDRICAL_SURFACE('',#875,2.248);
#59=CYLINDRICAL_SURFACE('',#880,2.248);
#60=CYLINDRICAL_SURFACE('',#885,2.248);
#61=CYLINDRICAL_SURFACE('',#890,2.248);
#62=CYLINDRICAL_SURFACE('',#895,2.248);
#63=CYLINDRICAL_SURFACE('',#900,2.248);
#64=CYLINDRICAL_SURFACE('',#905,2.248);
#65=CYLINDRICAL_SURFACE('',#910,2.248);
#66=CYLINDRICAL_SURFACE('',#915,2.248);
#67=CYLINDRICAL_SURFACE('',#920,2.248);
#68=CYLINDRICAL_SURFACE('',#925,2.248);
#69=CYLINDRICAL_SURFACE('',#927,2.99999999999998);
#70=CYLINDRICAL_SURFACE('',#933,2.99999999999997);
#71=CYLINDRICAL_SURFACE('',#938,3.00000000000002);
#72=CYLINDRICAL_SURFACE('',#942,2.99999999999997);
#73=FACE_OUTER_BOUND('',#117,.T.);
#74=FACE_OUTER_BOUND('',#118,.T.);
#75=FACE_OUTER_BOUND('',#119,.T.);
#76=FACE_OUTER_BOUND('',#120,.T.);
#77=FACE_OUTER_BOUND('',#121,.T.);
#78=FACE_OUTER_BOUND('',#122,.T.);
#79=FACE_OUTER_BOUND('',#123,.T.);
#80=FACE_OUTER_BOUND('',#124,.T.);
#81=FACE_OUTER_BOUND('',#125,.T.);
#82=FACE_OUTER_BOUND('',#126,.T.);
#83=FACE_OUTER_BOUND('',#127,.T.);
#84=FACE_OUTER_BOUND('',#128,.T.);
#85=FACE_OUTER_BOUND('',#129,.T.);
#86=FACE_OUTER_BOUND('',#130,.T.);
#87=FACE_OUTER_BOUND('',#131,.T.);
#88=FACE_OUTER_BOUND('',#132,.T.);
#89=FACE_OUTER_BOUND('',#133,.T.);
#90=FACE_OUTER_BOUND('',#134,.T.);
#91=FACE_OUTER_BOUND('',#135,.T.);
#92=FACE_OUTER_BOUND('',#136,.T.);
#93=FACE_OUTER_BOUND('',#137,.T.);
#94=FACE_OUTER_BOUND('',#138,.T.);
#95=FACE_OUTER_BOUND('',#139,.T.);
#96=FACE_OUTER_BOUND('',#140,.T.);
#97=FACE_OUTER_BOUND('',#141,.T.);
#98=FACE_OUTER_BOUND('',#142,.T.);
#99=FACE_OUTER_BOUND('',#143,.T.);
#100=FACE_OUTER_BOUND('',#144,.T.);
#101=FACE_OUTER_BOUND('',#145,.T.);
#102=FACE_OUTER_BOUND('',#146,.T.);
#103=FACE_OUTER_BOUND('',#147,.T.);
#104=FACE_OUTER_BOUND('',#148,.T.);
#105=FACE_OUTER_BOUND('',#149,.T.);
#106=FACE_OUTER_BOUND('',#150,.T.);
#107=FACE_OUTER_BOUND('',#151,.T.);
#108=FACE_OUTER_BOUND('',#152,.T.);
#109=FACE_OUTER_BOUND('',#153,.T.);
#110=FACE_OUTER_BOUND('',#154,.T.);
#111=FACE_OUTER_BOUND('',#155,.T.);
#112=FACE_OUTER_BOUND('',#156,.T.);
#113=FACE_OUTER_BOUND('',#157,.T.);
#114=FACE_OUTER_BOUND('',#158,.T.);
#115=FACE_OUTER_BOUND('',#159,.T.);
#116=FACE_OUTER_BOUND('',#175,.T.);
#117=EDGE_LOOP('',(#540,#541,#542,#543));
#118=EDGE_LOOP('',(#544,#545,#546,#547));
#119=EDGE_LOOP('',(#548,#549,#550,#551));
#120=EDGE_LOOP('',(#552,#553,#554,#555));
#121=EDGE_LOOP('',(#556,#557,#558,#559));
#122=EDGE_LOOP('',(#560,#561,#562,#563));
#123=EDGE_LOOP('',(#564,#565,#566,#567));
#124=EDGE_LOOP('',(#568,#569,#570,#571));
#125=EDGE_LOOP('',(#572,#573,#574,#575));
#126=EDGE_LOOP('',(#576,#577,#578,#579));
#127=EDGE_LOOP('',(#580,#581,#582,#583));
#128=EDGE_LOOP('',(#584,#585,#586,#587));
#129=EDGE_LOOP('',(#588,#589,#590,#591));
#130=EDGE_LOOP('',(#592,#593,#594,#595));
#131=EDGE_LOOP('',(#596,#597,#598,#599));
#132=EDGE_LOOP('',(#600,#601,#602,#603));
#133=EDGE_LOOP('',(#604,#605,#606,#607));
#134=EDGE_LOOP('',(#608,#609,#610,#611));
#135=EDGE_LOOP('',(#612,#613,#614,#615));
#136=EDGE_LOOP('',(#616,#617,#618,#619));
#137=EDGE_LOOP('',(#620,#621,#622,#623));
#138=EDGE_LOOP('',(#624,#625,#626,#627));
#139=EDGE_LOOP('',(#628,#629,#630,#631));
#140=EDGE_LOOP('',(#632,#633,#634,#635));
#141=EDGE_LOOP('',(#636,#637,#638,#639));
#142=EDGE_LOOP('',(#640,#641,#642,#643));
#143=EDGE_LOOP('',(#644,#645,#646,#647));
#144=EDGE_LOOP('',(#648,#649,#650,#651));
#145=EDGE_LOOP('',(#652,#653,#654,#655));
#146=EDGE_LOOP('',(#656,#657,#658,#659));
#147=EDGE_LOOP('',(#660,#661,#662,#663));
#148=EDGE_LOOP('',(#664,#665,#666,#667));
#149=EDGE_LOOP('',(#668,#669,#670,#671));
#150=EDGE_LOOP('',(#672,#673,#674,#675));
#151=EDGE_LOOP('',(#676,#677,#678,#679));
#152=EDGE_LOOP('',(#680,#681,#682,#683));
#153=EDGE_LOOP('',(#684,#685,#686,#687));
#154=EDGE_LOOP('',(#688,#689,#690,#691));
#155=EDGE_LOOP('',(#692,#693,#694,#695));
#156=EDGE_LOOP('',(#696,#697,#698,#699));
#157=EDGE_LOOP('',(#700,#701,#702,#703));
#158=EDGE_LOOP('',(#704,#705,#706,#707));
#159=EDGE_LOOP('',(#708,#709,#710,#711,#712,#713,#714,#715,#716,#717,#718,
#719));
#160=EDGE_LOOP('',(#720));
#161=EDGE_LOOP('',(#721));
#162=EDGE_LOOP('',(#722));
#163=EDGE_LOOP('',(#723));
#164=EDGE_LOOP('',(#724));
#165=EDGE_LOOP('',(#725));
#166=EDGE_LOOP('',(#726));
#167=EDGE_LOOP('',(#727));
#168=EDGE_LOOP('',(#728));
#169=EDGE_LOOP('',(#729));
#170=EDGE_LOOP('',(#730));
#171=EDGE_LOOP('',(#731));
#172=EDGE_LOOP('',(#732));
#173=EDGE_LOOP('',(#733));
#174=EDGE_LOOP('',(#734));
#175=EDGE_LOOP('',(#735,#736,#737,#738,#739,#740,#741,#742,#743,#744,#745,
#746));
#176=EDGE_LOOP('',(#747));
#177=EDGE_LOOP('',(#748));
#178=EDGE_LOOP('',(#749));
#179=EDGE_LOOP('',(#750));
#180=EDGE_LOOP('',(#751));
#181=EDGE_LOOP('',(#752));
#182=EDGE_LOOP('',(#753));
#183=EDGE_LOOP('',(#754));
#184=EDGE_LOOP('',(#755));
#185=EDGE_LOOP('',(#756));
#186=EDGE_LOOP('',(#757));
#187=EDGE_LOOP('',(#758));
#188=EDGE_LOOP('',(#759));
#189=EDGE_LOOP('',(#760));
#190=EDGE_LOOP('',(#761));
#191=LINE('',#1208,#249);
#192=LINE('',#1212,#250);
#193=LINE('',#1218,#251);
#194=LINE('',#1222,#252);
#195=LINE('',#1228,#253);
#196=LINE('',#1232,#254);
#197=LINE('',#1238,#255);
#198=LINE('',#1242,#256);
#199=LINE('',#1248,#257);
#200=LINE('',#1252,#258);
#201=LINE('',#1258,#259);
#202=LINE('',#1262,#260);
#203=LINE('',#1268,#261);
#204=LINE('',#1272,#262);
#205=LINE('',#1278,#263);
#206=LINE('',#1282,#264);
#207=LINE('',#1288,#265);
#208=LINE('',#1292,#266);
#209=LINE('',#1298,#267);
#210=LINE('',#1302,#268);
#211=LINE('',#1308,#269);
#212=LINE('',#1312,#270);
#213=LINE('',#1318,#271);
#214=LINE('',#1322,#272);
#215=LINE('',#1328,#273);
#216=LINE('',#1332,#274);
#217=LINE('',#1338,#275);
#218=LINE('',#1342,#276);
#219=LINE('',#1348,#277);
#220=LINE('',#1352,#278);
#221=LINE('',#1359,#279);
#222=LINE('',#1362,#280);
#223=LINE('',#1365,#281);
#224=LINE('',#1367,#282);
#225=LINE('',#1368,#283);
#226=LINE('',#1371,#284);
#227=LINE('',#1373,#285);
#228=LINE('',#1374,#286);
#229=LINE('',#1377,#287);
#230=LINE('',#1379,#288);
#231=LINE('',#1380,#289);
#232=LINE('',#1386,#290);
#233=LINE('',#1389,#291);
#234=LINE('',#1391,#292);
#235=LINE('',#1392,#293);
#236=LINE('',#1395,#294);
#237=LINE('',#1397,#295);
#238=LINE('',#1398,#296);
#239=LINE('',#1404,#297);
#240=LINE('',#1407,#298);
#241=LINE('',#1409,#299);
#242=LINE('',#1410,#300);
#243=LINE('',#1416,#301);
#244=LINE('',#1419,#302);
#245=LINE('',#1421,#303);
#246=LINE('',#1422,#304);
#247=LINE('',#1424,#305);
#248=LINE('',#1425,#306);
#249=VECTOR('',#955,3.23225);
#250=VECTOR('',#960,2.248);
#251=VECTOR('',#967,3.23225);
#252=VECTOR('',#972,2.248);
#253=VECTOR('',#979,3.23225);
#254=VECTOR('',#984,2.248);
#255=VECTOR('',#991,3.23225);
#256=VECTOR('',#996,2.248);
#257=VECTOR('',#1003,3.23225);
#258=VECTOR('',#1008,2.248);
#259=VECTOR('',#1015,3.23225);
#260=VECTOR('',#1020,2.248);
#261=VECTOR('',#1027,3.23225);
#262=VECTOR('',#1032,2.248);
#263=VECTOR('',#1039,3.23225);
#264=VECTOR('',#1044,2.248);
#265=VECTOR('',#1051,3.23225);
#266=VECTOR('',#1056,2.248);
#267=VECTOR('',#1063,3.23225);
#268=VECTOR('',#1068,2.248);
#269=VECTOR('',#1075,3.23225);
#270=VECTOR('',#1080,2.248);
#271=VECTOR('',#1087,3.23225);
#272=VECTOR('',#1092,2.248);
#273=VECTOR('',#1099,3.23225);
#274=VECTOR('',#1104,2.248);
#275=VECTOR('',#1111,3.23225);
#276=VECTOR('',#1116,2.248);
#277=VECTOR('',#1123,3.23225);
#278=VECTOR('',#1128,2.248);
#279=VECTOR('',#1135,10.);
#280=VECTOR('',#1138,10.);
#281=VECTOR('',#1141,10.);
#282=VECTOR('',#1142,10.);
#283=VECTOR('',#1143,10.);
#284=VECTOR('',#1146,10.);
#285=VECTOR('',#1147,10.);
#286=VECTOR('',#1148,10.);
#287=VECTOR('',#1151,10.);
#288=VECTOR('',#1152,10.);
#289=VECTOR('',#1153,10.);
#290=VECTOR('',#1160,10.);
#291=VECTOR('',#1163,10.);
#292=VECTOR('',#1164,10.);
#293=VECTOR('',#1165,10.);
#294=VECTOR('',#1168,10.);
#295=VECTOR('',#1169,10.);
#296=VECTOR('',#1170,10.);
#297=VECTOR('',#1177,10.);
#298=VECTOR('',#1180,10.);
#299=VECTOR('',#1181,10.);
#300=VECTOR('',#1182,10.);
#301=VECTOR('',#1189,10.);
#302=VECTOR('',#1192,10.);
#303=VECTOR('',#1193,10.);
#304=VECTOR('',#1194,10.);
#305=VECTOR('',#1197,10.);
#306=VECTOR('',#1198,10.);
#307=CIRCLE('',#853,4.2165);
#308=CIRCLE('',#854,2.248);
#309=CIRCLE('',#856,2.248);
#310=CIRCLE('',#858,4.2165);
#311=CIRCLE('',#859,2.248);
#312=CIRCLE('',#861,2.248);
#313=CIRCLE('',#863,4.2165);
#314=CIRCLE('',#864,2.248);
#315=CIRCLE('',#866,2.248);
#316=CIRCLE('',#868,4.2165);
#317=CIRCLE('',#869,2.248);
#318=CIRCLE('',#871,2.248);
#319=CIRCLE('',#873,4.2165);
#320=CIRCLE('',#874,2.248);
#321=CIRCLE('',#876,2.248);
#322=CIRCLE('',#878,4.2165);
#323=CIRCLE('',#879,2.248);
#324=CIRCLE('',#881,2.248);
#325=CIRCLE('',#883,4.2165);
#326=CIRCLE('',#884,2.248);
#327=CIRCLE('',#886,2.248);
#328=CIRCLE('',#888,4.2165);
#329=CIRCLE('',#889,2.248);
#330=CIRCLE('',#891,2.248);
#331=CIRCLE('',#893,4.2165);
#332=CIRCLE('',#894,2.248);
#333=CIRCLE('',#896,2.248);
#334=CIRCLE('',#898,4.2165);
#335=CIRCLE('',#899,2.248);
#336=CIRCLE('',#901,2.248);
#337=CIRCLE('',#903,4.2165);
#338=CIRCLE('',#904,2.248);
#339=CIRCLE('',#906,2.248);
#340=CIRCLE('',#908,4.2165);
#341=CIRCLE('',#909,2.248);
#342=CIRCLE('',#911,2.248);
#343=CIRCLE('',#913,4.2165);
#344=CIRCLE('',#914,2.248);
#345=CIRCLE('',#916,2.248);
#346=CIRCLE('',#918,4.2165);
#347=CIRCLE('',#919,2.248);
#348=CIRCLE('',#921,2.248);
#349=CIRCLE('',#923,4.2165);
#350=CIRCLE('',#924,2.248);
#351=CIRCLE('',#926,2.248);
#352=CIRCLE('',#928,2.99999999999998);
#353=CIRCLE('',#929,2.99999999999998);
#354=CIRCLE('',#934,2.99999999999997);
#355=CIRCLE('',#935,2.99999999999997);
#356=CIRCLE('',#939,3.00000000000002);
#357=CIRCLE('',#940,3.00000000000002);
#358=CIRCLE('',#943,2.99999999999997);
#359=CIRCLE('',#944,2.99999999999997);
#360=VERTEX_POINT('',#1205);
#361=VERTEX_POINT('',#1207);
#362=VERTEX_POINT('',#1211);
#363=VERTEX_POINT('',#1215);
#364=VERTEX_POINT('',#1217);
#365=VERTEX_POINT('',#1221);
#366=VERTEX_POINT('',#1225);
#367=VERTEX_POINT('',#1227);
#368=VERTEX_POINT('',#1231);
#369=VERTEX_POINT('',#1235);
#370=VERTEX_POINT('',#1237);
#371=VERTEX_POINT('',#1241);
#372=VERTEX_POINT('',#1245);
#373=VERTEX_POINT('',#1247);
#374=VERTEX_POINT('',#1251);
#375=VERTEX_POINT('',#1255);
#376=VERTEX_POINT('',#1257);
#377=VERTEX_POINT('',#1261);
#378=VERTEX_POINT('',#1265);
#379=VERTEX_POINT('',#1267);
#380=VERTEX_POINT('',#1271);
#381=VERTEX_POINT('',#1275);
#382=VERTEX_POINT('',#1277);
#383=VERTEX_POINT('',#1281);
#384=VERTEX_POINT('',#1285);
#385=VERTEX_POINT('',#1287);
#386=VERTEX_POINT('',#1291);
#387=VERTEX_POINT('',#1295);
#388=VERTEX_POINT('',#1297);
#389=VERTEX_POINT('',#1301);
#390=VERTEX_POINT('',#1305);
#391=VERTEX_POINT('',#1307);
#392=VERTEX_POINT('',#1311);
#393=VERTEX_POINT('',#1315);
#394=VERTEX_POINT('',#1317);
#395=VERTEX_POINT('',#1321);
#396=VERTEX_POINT('',#1325);
#397=VERTEX_POINT('',#1327);
#398=VERTEX_POINT('',#1331);
#399=VERTEX_POINT('',#1335);
#400=VERTEX_POINT('',#1337);
#401=VERTEX_POINT('',#1341);
#402=VERTEX_POINT('',#1345);
#403=VERTEX_POINT('',#1347);
#404=VERTEX_POINT('',#1351);
#405=VERTEX_POINT('',#1355);
#406=VERTEX_POINT('',#1356);
#407=VERTEX_POINT('',#1358);
#408=VERTEX_POINT('',#1360);
#409=VERTEX_POINT('',#1364);
#410=VERTEX_POINT('',#1366);
#411=VERTEX_POINT('',#1370);
#412=VERTEX_POINT('',#1372);
#413=VERTEX_POINT('',#1376);
#414=VERTEX_POINT('',#1378);
#415=VERTEX_POINT('',#1382);
#416=VERTEX_POINT('',#1384);
#417=VERTEX_POINT('',#1388);
#418=VERTEX_POINT('',#1390);
#419=VERTEX_POINT('',#1394);
#420=VERTEX_POINT('',#1396);
#421=VERTEX_POINT('',#1400);
#422=VERTEX_POINT('',#1402);
#423=VERTEX_POINT('',#1406);
#424=VERTEX_POINT('',#1408);
#425=VERTEX_POINT('',#1412);
#426=VERTEX_POINT('',#1414);
#427=VERTEX_POINT('',#1418);
#428=VERTEX_POINT('',#1420);
#429=EDGE_CURVE('',#360,#360,#307,.T.);
#430=EDGE_CURVE('',#360,#361,#191,.T.);
#431=EDGE_CURVE('',#361,#361,#308,.T.);
#432=EDGE_CURVE('',#361,#362,#192,.T.);
#433=EDGE_CURVE('',#362,#362,#309,.T.);
#434=EDGE_CURVE('',#363,#363,#310,.T.);
#435=EDGE_CURVE('',#363,#364,#193,.T.);
#436=EDGE_CURVE('',#364,#364,#311,.T.);
#437=EDGE_CURVE('',#364,#365,#194,.T.);
#438=EDGE_CURVE('',#365,#365,#312,.T.);
#439=EDGE_CURVE('',#366,#366,#313,.T.);
#440=EDGE_CURVE('',#366,#367,#195,.T.);
#441=EDGE_CURVE('',#367,#367,#314,.T.);
#442=EDGE_CURVE('',#367,#368,#196,.T.);
#443=EDGE_CURVE('',#368,#368,#315,.T.);
#444=EDGE_CURVE('',#369,#369,#316,.T.);
#445=EDGE_CURVE('',#369,#370,#197,.T.);
#446=EDGE_CURVE('',#370,#370,#317,.T.);
#447=EDGE_CURVE('',#370,#371,#198,.T.);
#448=EDGE_CURVE('',#371,#371,#318,.T.);
#449=EDGE_CURVE('',#372,#372,#319,.T.);
#450=EDGE_CURVE('',#372,#373,#199,.T.);
#451=EDGE_CURVE('',#373,#373,#320,.T.);
#452=EDGE_CURVE('',#373,#374,#200,.T.);
#453=EDGE_CURVE('',#374,#374,#321,.T.);
#454=EDGE_CURVE('',#375,#375,#322,.T.);
#455=EDGE_CURVE('',#375,#376,#201,.T.);
#456=EDGE_CURVE('',#376,#376,#323,.T.);
#457=EDGE_CURVE('',#376,#377,#202,.T.);
#458=EDGE_CURVE('',#377,#377,#324,.T.);
#459=EDGE_CURVE('',#378,#378,#325,.T.);
#460=EDGE_CURVE('',#378,#379,#203,.T.);
#461=EDGE_CURVE('',#379,#379,#326,.T.);
#462=EDGE_CURVE('',#379,#380,#204,.T.);
#463=EDGE_CURVE('',#380,#380,#327,.T.);
#464=EDGE_CURVE('',#381,#381,#328,.T.);
#465=EDGE_CURVE('',#381,#382,#205,.T.);
#466=EDGE_CURVE('',#382,#382,#329,.T.);
#467=EDGE_CURVE('',#382,#383,#206,.T.);
#468=EDGE_CURVE('',#383,#383,#330,.T.);
#469=EDGE_CURVE('',#384,#384,#331,.T.);
#470=EDGE_CURVE('',#384,#385,#207,.T.);
#471=EDGE_CURVE('',#385,#385,#332,.T.);
#472=EDGE_CURVE('',#385,#386,#208,.T.);
#473=EDGE_CURVE('',#386,#386,#333,.T.);
#474=EDGE_CURVE('',#387,#387,#334,.T.);
#475=EDGE_CURVE('',#387,#388,#209,.T.);
#476=EDGE_CURVE('',#388,#388,#335,.T.);
#477=EDGE_CURVE('',#388,#389,#210,.T.);
#478=EDGE_CURVE('',#389,#389,#336,.T.);
#479=EDGE_CURVE('',#390,#390,#337,.T.);
#480=EDGE_CURVE('',#390,#391,#211,.T.);
#481=EDGE_CURVE('',#391,#391,#338,.T.);
#482=EDGE_CURVE('',#391,#392,#212,.T.);
#483=EDGE_CURVE('',#392,#392,#339,.T.);
#484=EDGE_CURVE('',#393,#393,#340,.T.);
#485=EDGE_CURVE('',#393,#394,#213,.T.);
#486=EDGE_CURVE('',#394,#394,#341,.T.);
#487=EDGE_CURVE('',#394,#395,#214,.T.);
#488=EDGE_CURVE('',#395,#395,#342,.T.);
#489=EDGE_CURVE('',#396,#396,#343,.T.);
#490=EDGE_CURVE('',#396,#397,#215,.T.);
#491=EDGE_CURVE('',#397,#397,#344,.T.);
#492=EDGE_CURVE('',#397,#398,#216,.T.);
#493=EDGE_CURVE('',#398,#398,#345,.T.);
#494=EDGE_CURVE('',#399,#399,#346,.T.);
#495=EDGE_CURVE('',#399,#400,#217,.T.);
#496=EDGE_CURVE('',#400,#400,#347,.T.);
#497=EDGE_CURVE('',#400,#401,#218,.T.);
#498=EDGE_CURVE('',#401,#401,#348,.T.);
#499=EDGE_CURVE('',#402,#402,#349,.T.);
#500=EDGE_CURVE('',#402,#403,#219,.T.);
#501=EDGE_CURVE('',#403,#403,#350,.T.);
#502=EDGE_CURVE('',#403,#404,#220,.T.);
#503=EDGE_CURVE('',#404,#404,#351,.T.);
#504=EDGE_CURVE('',#405,#406,#352,.T.);
#505=EDGE_CURVE('',#405,#407,#221,.T.);
#506=EDGE_CURVE('',#408,#407,#353,.T.);
#507=EDGE_CURVE('',#406,#408,#222,.T.);
#508=EDGE_CURVE('',#409,#406,#223,.T.);
#509=EDGE_CURVE('',#410,#408,#224,.T.);
#510=EDGE_CURVE('',#409,#410,#225,.T.);
#511=EDGE_CURVE('',#411,#409,#226,.T.);
#512=EDGE_CURVE('',#412,#410,#227,.T.);
#513=EDGE_CURVE('',#411,#412,#228,.T.);
#514=EDGE_CURVE('',#411,#413,#229,.T.);
#515=EDGE_CURVE('',#414,#412,#230,.T.);
#516=EDGE_CURVE('',#413,#414,#231,.T.);
#517=EDGE_CURVE('',#413,#415,#354,.T.);
#518=EDGE_CURVE('',#416,#414,#355,.T.);
#519=EDGE_CURVE('',#415,#416,#232,.T.);
#520=EDGE_CURVE('',#415,#417,#233,.T.);
#521=EDGE_CURVE('',#418,#416,#234,.T.);
#522=EDGE_CURVE('',#417,#418,#235,.T.);
#523=EDGE_CURVE('',#417,#419,#236,.T.);
#524=EDGE_CURVE('',#420,#418,#237,.T.);
#525=EDGE_CURVE('',#419,#420,#238,.T.);
#526=EDGE_CURVE('',#421,#419,#356,.T.);
#527=EDGE_CURVE('',#422,#420,#357,.T.);
#528=EDGE_CURVE('',#421,#422,#239,.T.);
#529=EDGE_CURVE('',#423,#421,#240,.T.);
#530=EDGE_CURVE('',#424,#422,#241,.T.);
#531=EDGE_CURVE('',#423,#424,#242,.T.);
#532=EDGE_CURVE('',#425,#423,#358,.T.);
#533=EDGE_CURVE('',#426,#424,#359,.T.);
#534=EDGE_CURVE('',#425,#426,#243,.T.);
#535=EDGE_CURVE('',#427,#425,#244,.T.);
#536=EDGE_CURVE('',#428,#426,#245,.T.);
#537=EDGE_CURVE('',#427,#428,#246,.T.);
#538=EDGE_CURVE('',#427,#405,#247,.T.);
#539=EDGE_CURVE('',#407,#428,#248,.T.);
#540=ORIENTED_EDGE('',*,*,#429,.F.);
#541=ORIENTED_EDGE('',*,*,#430,.T.);
#542=ORIENTED_EDGE('',*,*,#431,.T.);
#543=ORIENTED_EDGE('',*,*,#430,.F.);
#544=ORIENTED_EDGE('',*,*,#431,.F.);
#545=ORIENTED_EDGE('',*,*,#432,.T.);
#546=ORIENTED_EDGE('',*,*,#433,.F.);
#547=ORIENTED_EDGE('',*,*,#432,.F.);
#548=ORIENTED_EDGE('',*,*,#434,.F.);
#549=ORIENTED_EDGE('',*,*,#435,.T.);
#550=ORIENTED_EDGE('',*,*,#436,.T.);
#551=ORIENTED_EDGE('',*,*,#435,.F.);
#552=ORIENTED_EDGE('',*,*,#436,.F.);
#553=ORIENTED_EDGE('',*,*,#437,.T.);
#554=ORIENTED_EDGE('',*,*,#438,.F.);
#555=ORIENTED_EDGE('',*,*,#437,.F.);
#556=ORIENTED_EDGE('',*,*,#439,.F.);
#557=ORIENTED_EDGE('',*,*,#440,.T.);
#558=ORIENTED_EDGE('',*,*,#441,.T.);
#559=ORIENTED_EDGE('',*,*,#440,.F.);
#560=ORIENTED_EDGE('',*,*,#441,.F.);
#561=ORIENTED_EDGE('',*,*,#442,.T.);
#562=ORIENTED_EDGE('',*,*,#443,.F.);
#563=ORIENTED_EDGE('',*,*,#442,.F.);
#564=ORIENTED_EDGE('',*,*,#444,.F.);
#565=ORIENTED_EDGE('',*,*,#445,.T.);
#566=ORIENTED_EDGE('',*,*,#446,.T.);
#567=ORIENTED_EDGE('',*,*,#445,.F.);
#568=ORIENTED_EDGE('',*,*,#446,.F.);
#569=ORIENTED_EDGE('',*,*,#447,.T.);
#570=ORIENTED_EDGE('',*,*,#448,.F.);
#571=ORIENTED_EDGE('',*,*,#447,.F.);
#572=ORIENTED_EDGE('',*,*,#449,.F.);
#573=ORIENTED_EDGE('',*,*,#450,.T.);
#574=ORIENTED_EDGE('',*,*,#451,.T.);
#575=ORIENTED_EDGE('',*,*,#450,.F.);
#576=ORIENTED_EDGE('',*,*,#451,.F.);
#577=ORIENTED_EDGE('',*,*,#452,.T.);
#578=ORIENTED_EDGE('',*,*,#453,.F.);
#579=ORIENTED_EDGE('',*,*,#452,.F.);
#580=ORIENTED_EDGE('',*,*,#454,.F.);
#581=ORIENTED_EDGE('',*,*,#455,.T.);
#582=ORIENTED_EDGE('',*,*,#456,.T.);
#583=ORIENTED_EDGE('',*,*,#455,.F.);
#584=ORIENTED_EDGE('',*,*,#456,.F.);
#585=ORIENTED_EDGE('',*,*,#457,.T.);
#586=ORIENTED_EDGE('',*,*,#458,.F.);
#587=ORIENTED_EDGE('',*,*,#457,.F.);
#588=ORIENTED_EDGE('',*,*,#459,.F.);
#589=ORIENTED_EDGE('',*,*,#460,.T.);
#590=ORIENTED_EDGE('',*,*,#461,.T.);
#591=ORIENTED_EDGE('',*,*,#460,.F.);
#592=ORIENTED_EDGE('',*,*,#461,.F.);
#593=ORIENTED_EDGE('',*,*,#462,.T.);
#594=ORIENTED_EDGE('',*,*,#463,.F.);
#595=ORIENTED_EDGE('',*,*,#462,.F.);
#596=ORIENTED_EDGE('',*,*,#464,.F.);
#597=ORIENTED_EDGE('',*,*,#465,.T.);
#598=ORIENTED_EDGE('',*,*,#466,.T.);
#599=ORIENTED_EDGE('',*,*,#465,.F.);
#600=ORIENTED_EDGE('',*,*,#466,.F.);
#601=ORIENTED_EDGE('',*,*,#467,.T.);
#602=ORIENTED_EDGE('',*,*,#468,.F.);
#603=ORIENTED_EDGE('',*,*,#467,.F.);
#604=ORIENTED_EDGE('',*,*,#469,.F.);
#605=ORIENTED_EDGE('',*,*,#470,.T.);
#606=ORIENTED_EDGE('',*,*,#471,.T.);
#607=ORIENTED_EDGE('',*,*,#470,.F.);
#608=ORIENTED_EDGE('',*,*,#471,.F.);
#609=ORIENTED_EDGE('',*,*,#472,.T.);
#610=ORIENTED_EDGE('',*,*,#473,.F.);
#611=ORIENTED_EDGE('',*,*,#472,.F.);
#612=ORIENTED_EDGE('',*,*,#474,.F.);
#613=ORIENTED_EDGE('',*,*,#475,.T.);
#614=ORIENTED_EDGE('',*,*,#476,.T.);
#615=ORIENTED_EDGE('',*,*,#475,.F.);
#616=ORIENTED_EDGE('',*,*,#476,.F.);
#617=ORIENTED_EDGE('',*,*,#477,.T.);
#618=ORIENTED_EDGE('',*,*,#478,.F.);
#619=ORIENTED_EDGE('',*,*,#477,.F.);
#620=ORIENTED_EDGE('',*,*,#479,.F.);
#621=ORIENTED_EDGE('',*,*,#480,.T.);
#622=ORIENTED_EDGE('',*,*,#481,.T.);
#623=ORIENTED_EDGE('',*,*,#480,.F.);
#624=ORIENTED_EDGE('',*,*,#481,.F.);
#625=ORIENTED_EDGE('',*,*,#482,.T.);
#626=ORIENTED_EDGE('',*,*,#483,.F.);
#627=ORIENTED_EDGE('',*,*,#482,.F.);
#628=ORIENTED_EDGE('',*,*,#484,.F.);
#629=ORIENTED_EDGE('',*,*,#485,.T.);
#630=ORIENTED_EDGE('',*,*,#486,.T.);
#631=ORIENTED_EDGE('',*,*,#485,.F.);
#632=ORIENTED_EDGE('',*,*,#486,.F.);
#633=ORIENTED_EDGE('',*,*,#487,.T.);
#634=ORIENTED_EDGE('',*,*,#488,.F.);
#635=ORIENTED_EDGE('',*,*,#487,.F.);
#636=ORIENTED_EDGE('',*,*,#489,.F.);
#637=ORIENTED_EDGE('',*,*,#490,.T.);
#638=ORIENTED_EDGE('',*,*,#491,.T.);
#639=ORIENTED_EDGE('',*,*,#490,.F.);
#640=ORIENTED_EDGE('',*,*,#491,.F.);
#641=ORIENTED_EDGE('',*,*,#492,.T.);
#642=ORIENTED_EDGE('',*,*,#493,.F.);
#643=ORIENTED_EDGE('',*,*,#492,.F.);
#644=ORIENTED_EDGE('',*,*,#494,.F.);
#645=ORIENTED_EDGE('',*,*,#495,.T.);
#646=ORIENTED_EDGE('',*,*,#496,.T.);
#647=ORIENTED_EDGE('',*,*,#495,.F.);
#648=ORIENTED_EDGE('',*,*,#496,.F.);
#649=ORIENTED_EDGE('',*,*,#497,.T.);
#650=ORIENTED_EDGE('',*,*,#498,.F.);
#651=ORIENTED_EDGE('',*,*,#497,.F.);
#652=ORIENTED_EDGE('',*,*,#499,.F.);
#653=ORIENTED_EDGE('',*,*,#500,.T.);
#654=ORIENTED_EDGE('',*,*,#501,.T.);
#655=ORIENTED_EDGE('',*,*,#500,.F.);
#656=ORIENTED_EDGE('',*,*,#501,.F.);
#657=ORIENTED_EDGE('',*,*,#502,.T.);
#658=ORIENTED_EDGE('',*,*,#503,.F.);
#659=ORIENTED_EDGE('',*,*,#502,.F.);
#660=ORIENTED_EDGE('',*,*,#504,.F.);
#661=ORIENTED_EDGE('',*,*,#505,.T.);
#662=ORIENTED_EDGE('',*,*,#506,.F.);
#663=ORIENTED_EDGE('',*,*,#507,.F.);
#664=ORIENTED_EDGE('',*,*,#508,.T.);
#665=ORIENTED_EDGE('',*,*,#507,.T.);
#666=ORIENTED_EDGE('',*,*,#509,.F.);
#667=ORIENTED_EDGE('',*,*,#510,.F.);
#668=ORIENTED_EDGE('',*,*,#511,.T.);
#669=ORIENTED_EDGE('',*,*,#510,.T.);
#670=ORIENTED_EDGE('',*,*,#512,.F.);
#671=ORIENTED_EDGE('',*,*,#513,.F.);
#672=ORIENTED_EDGE('',*,*,#514,.F.);
#673=ORIENTED_EDGE('',*,*,#513,.T.);
#674=ORIENTED_EDGE('',*,*,#515,.F.);
#675=ORIENTED_EDGE('',*,*,#516,.F.);
#676=ORIENTED_EDGE('',*,*,#517,.F.);
#677=ORIENTED_EDGE('',*,*,#516,.T.);
#678=ORIENTED_EDGE('',*,*,#518,.F.);
#679=ORIENTED_EDGE('',*,*,#519,.F.);
#680=ORIENTED_EDGE('',*,*,#520,.F.);
#681=ORIENTED_EDGE('',*,*,#519,.T.);
#682=ORIENTED_EDGE('',*,*,#521,.F.);
#683=ORIENTED_EDGE('',*,*,#522,.F.);
#684=ORIENTED_EDGE('',*,*,#523,.F.);
#685=ORIENTED_EDGE('',*,*,#522,.T.);
#686=ORIENTED_EDGE('',*,*,#524,.F.);
#687=ORIENTED_EDGE('',*,*,#525,.F.);
#688=ORIENTED_EDGE('',*,*,#526,.T.);
#689=ORIENTED_EDGE('',*,*,#525,.T.);
#690=ORIENTED_EDGE('',*,*,#527,.F.);
#691=ORIENTED_EDGE('',*,*,#528,.F.);
#692=ORIENTED_EDGE('',*,*,#529,.T.);
#693=ORIENTED_EDGE('',*,*,#528,.T.);
#694=ORIENTED_EDGE('',*,*,#530,.F.);
#695=ORIENTED_EDGE('',*,*,#531,.F.);
#696=ORIENTED_EDGE('',*,*,#532,.T.);
#697=ORIENTED_EDGE('',*,*,#531,.T.);
#698=ORIENTED_EDGE('',*,*,#533,.F.);
#699=ORIENTED_EDGE('',*,*,#534,.F.);
#700=ORIENTED_EDGE('',*,*,#535,.T.);
#701=ORIENTED_EDGE('',*,*,#534,.T.);
#702=ORIENTED_EDGE('',*,*,#536,.F.);
#703=ORIENTED_EDGE('',*,*,#537,.F.);
#704=ORIENTED_EDGE('',*,*,#538,.F.);
#705=ORIENTED_EDGE('',*,*,#537,.T.);
#706=ORIENTED_EDGE('',*,*,#539,.F.);
#707=ORIENTED_EDGE('',*,*,#505,.F.);
#708=ORIENTED_EDGE('',*,*,#538,.T.);
#709=ORIENTED_EDGE('',*,*,#504,.T.);
#710=ORIENTED_EDGE('',*,*,#508,.F.);
#711=ORIENTED_EDGE('',*,*,#511,.F.);
#712=ORIENTED_EDGE('',*,*,#514,.T.);
#713=ORIENTED_EDGE('',*,*,#517,.T.);
#714=ORIENTED_EDGE('',*,*,#520,.T.);
#715=ORIENTED_EDGE('',*,*,#523,.T.);
#716=ORIENTED_EDGE('',*,*,#526,.F.);
#717=ORIENTED_EDGE('',*,*,#529,.F.);
#718=ORIENTED_EDGE('',*,*,#532,.F.);
#719=ORIENTED_EDGE('',*,*,#535,.F.);
#720=ORIENTED_EDGE('',*,*,#429,.T.);
#721=ORIENTED_EDGE('',*,*,#434,.T.);
#722=ORIENTED_EDGE('',*,*,#439,.T.);
#723=ORIENTED_EDGE('',*,*,#444,.T.);
#724=ORIENTED_EDGE('',*,*,#449,.T.);
#725=ORIENTED_EDGE('',*,*,#454,.T.);
#726=ORIENTED_EDGE('',*,*,#459,.T.);
#727=ORIENTED_EDGE('',*,*,#464,.T.);
#728=ORIENTED_EDGE('',*,*,#469,.T.);
#729=ORIENTED_EDGE('',*,*,#474,.T.);
#730=ORIENTED_EDGE('',*,*,#479,.T.);
#731=ORIENTED_EDGE('',*,*,#484,.T.);
#732=ORIENTED_EDGE('',*,*,#489,.T.);
#733=ORIENTED_EDGE('',*,*,#494,.T.);
#734=ORIENTED_EDGE('',*,*,#499,.T.);
#735=ORIENTED_EDGE('',*,*,#539,.T.);
#736=ORIENTED_EDGE('',*,*,#536,.T.);
#737=ORIENTED_EDGE('',*,*,#533,.T.);
#738=ORIENTED_EDGE('',*,*,#530,.T.);
#739=ORIENTED_EDGE('',*,*,#527,.T.);
#740=ORIENTED_EDGE('',*,*,#524,.T.);
#741=ORIENTED_EDGE('',*,*,#521,.T.);
#742=ORIENTED_EDGE('',*,*,#518,.T.);
#743=ORIENTED_EDGE('',*,*,#515,.T.);
#744=ORIENTED_EDGE('',*,*,#512,.T.);
#745=ORIENTED_EDGE('',*,*,#509,.T.);
#746=ORIENTED_EDGE('',*,*,#506,.T.);
#747=ORIENTED_EDGE('',*,*,#433,.T.);
#748=ORIENTED_EDGE('',*,*,#438,.T.);
#749=ORIENTED_EDGE('',*,*,#443,.T.);
#750=ORIENTED_EDGE('',*,*,#448,.T.);
#751=ORIENTED_EDGE('',*,*,#453,.T.);
#752=ORIENTED_EDGE('',*,*,#458,.T.);
#753=ORIENTED_EDGE('',*,*,#463,.T.);
#754=ORIENTED_EDGE('',*,*,#468,.T.);
#755=ORIENTED_EDGE('',*,*,#473,.T.);
#756=ORIENTED_EDGE('',*,*,#478,.T.);
#757=ORIENTED_EDGE('',*,*,#483,.T.);
#758=ORIENTED_EDGE('',*,*,#488,.T.);
#759=ORIENTED_EDGE('',*,*,#493,.T.);
#760=ORIENTED_EDGE('',*,*,#498,.T.);
#761=ORIENTED_EDGE('',*,*,#503,.T.);
#762=CONICAL_SURFACE('',#852,3.23225,0.715584993317675);
#763=CONICAL_SURFACE('',#857,3.23225,0.715584993317675);
#764=CONICAL_SURFACE('',#862,3.23225,0.715584993317675);
#765=CONICAL_SURFACE('',#867,3.23225,0.715584993317675);
#766=CONICAL_SURFACE('',#872,3.23225,0.715584993317675);
#767=CONICAL_SURFACE('',#877,3.23225,0.715584993317675);
#768=CONICAL_SURFACE('',#882,3.23225,0.715584993317675);
#769=CONICAL_SURFACE('',#887,3.23225,0.715584993317675);
#770=CONICAL_SURFACE('',#892,3.23225,0.715584993317675);
#771=CONICAL_SURFACE('',#897,3.23225,0.715584993317675);
#772=CONICAL_SURFACE('',#902,3.23225,0.715584993317675);
#773=CONICAL_SURFACE('',#907,3.23225,0.715584993317675);
#774=CONICAL_SURFACE('',#912,3.23225,0.715584993317675);
#775=CONICAL_SURFACE('',#917,3.23225,0.715584993317675);
#776=CONICAL_SURFACE('',#922,3.23225,0.715584993317675);
#777=STYLED_ITEM('',(#1449),#794);
#778=STYLED_ITEM('',(#1449),#796);
#779=STYLED_ITEM('',(#1449),#798);
#780=STYLED_ITEM('',(#1449),#800);
#781=STYLED_ITEM('',(#1449),#802);
#782=STYLED_ITEM('',(#1449),#804);
#783=STYLED_ITEM('',(#1449),#806);
#784=STYLED_ITEM('',(#1449),#808);
#785=STYLED_ITEM('',(#1449),#810);
#786=STYLED_ITEM('',(#1449),#812);
#787=STYLED_ITEM('',(#1449),#814);
#788=STYLED_ITEM('',(#1449),#816);
#789=STYLED_ITEM('',(#1449),#818);
#790=STYLED_ITEM('',(#1449),#820);
#791=STYLED_ITEM('',(#1449),#822);
#792=STYLED_ITEM('',(#1449),#836);
#793=STYLED_ITEM('',(#1448),#13);
#794=ADVANCED_FACE('',(#73),#762,.F.);
#795=ADVANCED_FACE('',(#74),#54,.F.);
#796=ADVANCED_FACE('',(#75),#763,.F.);
#797=ADVANCED_FACE('',(#76),#55,.F.);
#798=ADVANCED_FACE('',(#77),#764,.F.);
#799=ADVANCED_FACE('',(#78),#56,.F.);
#800=ADVANCED_FACE('',(#79),#765,.F.);
#801=ADVANCED_FACE('',(#80),#57,.F.);
#802=ADVANCED_FACE('',(#81),#766,.F.);
#803=ADVANCED_FACE('',(#82),#58,.F.);
#804=ADVANCED_FACE('',(#83),#767,.F.);
#805=ADVANCED_FACE('',(#84),#59,.F.);
#806=ADVANCED_FACE('',(#85),#768,.F.);
#807=ADVANCED_FACE('',(#86),#60,.F.);
#808=ADVANCED_FACE('',(#87),#769,.F.);
#809=ADVANCED_FACE('',(#88),#61,.F.);
#810=ADVANCED_FACE('',(#89),#770,.F.);
#811=ADVANCED_FACE('',(#90),#62,.F.);
#812=ADVANCED_FACE('',(#91),#771,.F.);
#813=ADVANCED_FACE('',(#92),#63,.F.);
#814=ADVANCED_FACE('',(#93),#772,.F.);
#815=ADVANCED_FACE('',(#94),#64,.F.);
#816=ADVANCED_FACE('',(#95),#773,.F.);
#817=ADVANCED_FACE('',(#96),#65,.F.);
#818=ADVANCED_FACE('',(#97),#774,.F.);
#819=ADVANCED_FACE('',(#98),#66,.F.);
#820=ADVANCED_FACE('',(#99),#775,.F.);
#821=ADVANCED_FACE('',(#100),#67,.F.);
#822=ADVANCED_FACE('',(#101),#776,.F.);
#823=ADVANCED_FACE('',(#102),#68,.F.);
#824=ADVANCED_FACE('',(#103),#69,.T.);
#825=ADVANCED_FACE('',(#104),#44,.T.);
#826=ADVANCED_FACE('',(#105),#45,.T.);
#827=ADVANCED_FACE('',(#106),#46,.T.);
#828=ADVANCED_FACE('',(#107),#70,.T.);
#829=ADVANCED_FACE('',(#108),#47,.T.);
#830=ADVANCED_FACE('',(#109),#48,.T.);
#831=ADVANCED_FACE('',(#110),#71,.F.);
#832=ADVANCED_FACE('',(#111),#49,.T.);
#833=ADVANCED_FACE('',(#112),#72,.F.);
#834=ADVANCED_FACE('',(#113),#50,.T.);
#835=ADVANCED_FACE('',(#114),#51,.T.);
#836=ADVANCED_FACE('',(#115,#14,#15,#16,#17,#18,#19,#20,#21,#22,#23,#24,
#25,#26,#27,#28),#52,.T.);
#837=ADVANCED_FACE('',(#116,#29,#30,#31,#32,#33,#34,#35,#36,#37,#38,#39,
#40,#41,#42,#43),#53,.F.);
#838=CLOSED_SHELL('',(#794,#795,#796,#797,#798,#799,#800,#801,#802,#803,
#804,#805,#806,#807,#808,#809,#810,#811,#812,#813,#814,#815,#816,#817,#818,
#819,#820,#821,#822,#823,#824,#825,#826,#827,#828,#829,#830,#831,#832,#833,
#834,#835,#836,#837));
#839=DERIVED_UNIT_ELEMENT(#841,1.);
#840=DERIVED_UNIT_ELEMENT(#1433,-3.);
#841=(
MASS_UNIT()
NAMED_UNIT(*)
SI_UNIT(.KILO.,.GRAM.)
);
#842=DERIVED_UNIT((#839,#840));
#843=MEASURE_REPRESENTATION_ITEM('density measure',
POSITIVE_RATIO_MEASURE(7850.),#842);
#844=PROPERTY_DEFINITION_REPRESENTATION(#849,#846);
#845=PROPERTY_DEFINITION_REPRESENTATION(#850,#847);
#846=REPRESENTATION('material name',(#848),#1430);
#847=REPRESENTATION('density',(#843),#1430);
#848=DESCRIPTIVE_REPRESENTATION_ITEM('Steel','Steel');
#849=PROPERTY_DEFINITION('material property','material name',#1440);
#850=PROPERTY_DEFINITION('material property','density of part',#1440);
#851=AXIS2_PLACEMENT_3D('placement',#1203,#949,#950);
#852=AXIS2_PLACEMENT_3D('',#1204,#951,#952);
#853=AXIS2_PLACEMENT_3D('',#1206,#953,#954);
#854=AXIS2_PLACEMENT_3D('',#1209,#956,#957);
#855=AXIS2_PLACEMENT_3D('',#1210,#958,#959);
#856=AXIS2_PLACEMENT_3D('',#1213,#961,#962);
#857=AXIS2_PLACEMENT_3D('',#1214,#963,#964);
#858=AXIS2_PLACEMENT_3D('',#1216,#965,#966);
#859=AXIS2_PLACEMENT_3D('',#1219,#968,#969);
#860=AXIS2_PLACEMENT_3D('',#1220,#970,#971);
#861=AXIS2_PLACEMENT_3D('',#1223,#973,#974);
#862=AXIS2_PLACEMENT_3D('',#1224,#975,#976);
#863=AXIS2_PLACEMENT_3D('',#1226,#977,#978);
#864=AXIS2_PLACEMENT_3D('',#1229,#980,#981);
#865=AXIS2_PLACEMENT_3D('',#1230,#982,#983);
#866=AXIS2_PLACEMENT_3D('',#1233,#985,#986);
#867=AXIS2_PLACEMENT_3D('',#1234,#987,#988);
#868=AXIS2_PLACEMENT_3D('',#1236,#989,#990);
#869=AXIS2_PLACEMENT_3D('',#1239,#992,#993);
#870=AXIS2_PLACEMENT_3D('',#1240,#994,#995);
#871=AXIS2_PLACEMENT_3D('',#1243,#997,#998);
#872=AXIS2_PLACEMENT_3D('',#1244,#999,#1000);
#873=AXIS2_PLACEMENT_3D('',#1246,#1001,#1002);
#874=AXIS2_PLACEMENT_3D('',#1249,#1004,#1005);
#875=AXIS2_PLACEMENT_3D('',#1250,#1006,#1007);
#876=AXIS2_PLACEMENT_3D('',#1253,#1009,#1010);
#877=AXIS2_PLACEMENT_3D('',#1254,#1011,#1012);
#878=AXIS2_PLACEMENT_3D('',#1256,#1013,#1014);
#879=AXIS2_PLACEMENT_3D('',#1259,#1016,#1017);
#880=AXIS2_PLACEMENT_3D('',#1260,#1018,#1019);
#881=AXIS2_PLACEMENT_3D('',#1263,#1021,#1022);
#882=AXIS2_PLACEMENT_3D('',#1264,#1023,#1024);
#883=AXIS2_PLACEMENT_3D('',#1266,#1025,#1026);
#884=AXIS2_PLACEMENT_3D('',#1269,#1028,#1029);
#885=AXIS2_PLACEMENT_3D('',#1270,#1030,#1031);
#886=AXIS2_PLACEMENT_3D('',#1273,#1033,#1034);
#887=AXIS2_PLACEMENT_3D('',#1274,#1035,#1036);
#888=AXIS2_PLACEMENT_3D('',#1276,#1037,#1038);
#889=AXIS2_PLACEMENT_3D('',#1279,#1040,#1041);
#890=AXIS2_PLACEMENT_3D('',#1280,#1042,#1043);
#891=AXIS2_PLACEMENT_3D('',#1283,#1045,#1046);
#892=AXIS2_PLACEMENT_3D('',#1284,#1047,#1048);
#893=AXIS2_PLACEMENT_3D('',#1286,#1049,#1050);
#894=AXIS2_PLACEMENT_3D('',#1289,#1052,#1053);
#895=AXIS2_PLACEMENT_3D('',#1290,#1054,#1055);
#896=AXIS2_PLACEMENT_3D('',#1293,#1057,#1058);
#897=AXIS2_PLACEMENT_3D('',#1294,#1059,#1060);
#898=AXIS2_PLACEMENT_3D('',#1296,#1061,#1062);
#899=AXIS2_PLACEMENT_3D('',#1299,#1064,#1065);
#900=AXIS2_PLACEMENT_3D('',#1300,#1066,#1067);
#901=AXIS2_PLACEMENT_3D('',#1303,#1069,#1070);
#902=AXIS2_PLACEMENT_3D('',#1304,#1071,#1072);
#903=AXIS2_PLACEMENT_3D('',#1306,#1073,#1074);
#904=AXIS2_PLACEMENT_3D('',#1309,#1076,#1077);
#905=AXIS2_PLACEMENT_3D('',#1310,#1078,#1079);
#906=AXIS2_PLACEMENT_3D('',#1313,#1081,#1082);
#907=AXIS2_PLACEMENT_3D('',#1314,#1083,#1084);
#908=AXIS2_PLACEMENT_3D('',#1316,#1085,#1086);
#909=AXIS2_PLACEMENT_3D('',#1319,#1088,#1089);
#910=AXIS2_PLACEMENT_3D('',#1320,#1090,#1091);
#911=AXIS2_PLACEMENT_3D('',#1323,#1093,#1094);
#912=AXIS2_PLACEMENT_3D('',#1324,#1095,#1096);
#913=AXIS2_PLACEMENT_3D('',#1326,#1097,#1098);
#914=AXIS2_PLACEMENT_3D('',#1329,#1100,#1101);
#915=AXIS2_PLACEMENT_3D('',#1330,#1102,#1103);
#916=AXIS2_PLACEMENT_3D('',#1333,#1105,#1106);
#917=AXIS2_PLACEMENT_3D('',#1334,#1107,#1108);
#918=AXIS2_PLACEMENT_3D('',#1336,#1109,#1110);
#919=AXIS2_PLACEMENT_3D('',#1339,#1112,#1113);
#920=AXIS2_PLACEMENT_3D('',#1340,#1114,#1115);
#921=AXIS2_PLACEMENT_3D('',#1343,#1117,#1118);
#922=AXIS2_PLACEMENT_3D('',#1344,#1119,#1120);
#923=AXIS2_PLACEMENT_3D('',#1346,#1121,#1122);
#924=AXIS2_PLACEMENT_3D('',#1349,#1124,#1125);
#925=AXIS2_PLACEMENT_3D('',#1350,#1126,#1127);
#926=AXIS2_PLACEMENT_3D('',#1353,#1129,#1130);
#927=AXIS2_PLACEMENT_3D('',#1354,#1131,#1132);
#928=AXIS2_PLACEMENT_3D('',#1357,#1133,#1134);
#929=AXIS2_PLACEMENT_3D('',#1361,#1136,#1137);
#930=AXIS2_PLACEMENT_3D('',#1363,#1139,#1140);
#931=AXIS2_PLACEMENT_3D('',#1369,#1144,#1145);
#932=AXIS2_PLACEMENT_3D('',#1375,#1149,#1150);
#933=AXIS2_PLACEMENT_3D('',#1381,#1154,#1155);
#934=AXIS2_PLACEMENT_3D('',#1383,#1156,#1157);
#935=AXIS2_PLACEMENT_3D('',#1385,#1158,#1159);
#936=AXIS2_PLACEMENT_3D('',#1387,#1161,#1162);
#937=AXIS2_PLACEMENT_3D('',#1393,#1166,#1167);
#938=AXIS2_PLACEMENT_3D('',#1399,#1171,#1172);
#939=AXIS2_PLACEMENT_3D('',#1401,#1173,#1174);
#940=AXIS2_PLACEMENT_3D('',#1403,#1175,#1176);
#941=AXIS2_PLACEMENT_3D('',#1405,#1178,#1179);
#942=AXIS2_PLACEMENT_3D('',#1411,#1183,#1184);
#943=AXIS2_PLACEMENT_3D('',#1413,#1185,#1186);
#944=AXIS2_PLACEMENT_3D('',#1415,#1187,#1188);
#945=AXIS2_PLACEMENT_3D('',#1417,#1190,#1191);
#946=AXIS2_PLACEMENT_3D('',#1423,#1195,#1196);
#947=AXIS2_PLACEMENT_3D('',#1426,#1199,#1200);
#948=AXIS2_PLACEMENT_3D('',#1427,#1201,#1202);
#949=DIRECTION('axis',(0.,0.,1.));
#950=DIRECTION('refdir',(1.,0.,0.));
#951=DIRECTION('center_axis',(0.,1.,0.));
#952=DIRECTION('ref_axis',(0.,0.,1.));
#953=DIRECTION('center_axis',(0.,-1.,0.));
#954=DIRECTION('ref_axis',(0.,0.,1.));
#955=DIRECTION('',(-8.03440589904945E-17,-0.754709580222772,0.656059028990507));
#956=DIRECTION('center_axis',(0.,-1.,0.));
#957=DIRECTION('ref_axis',(0.,0.,1.));
#958=DIRECTION('center_axis',(0.,-1.,0.));
#959=DIRECTION('ref_axis',(0.,0.,1.));
#960=DIRECTION('',(0.,-1.,0.));
#961=DIRECTION('center_axis',(0.,1.,0.));
#962=DIRECTION('ref_axis',(0.,0.,1.));
#963=DIRECTION('center_axis',(0.,1.,0.));
#964=DIRECTION('ref_axis',(0.,0.,1.));
#965=DIRECTION('center_axis',(0.,-1.,0.));
#966=DIRECTION('ref_axis',(0.,0.,1.));
#967=DIRECTION('',(-8.03440589904945E-17,-0.754709580222772,0.656059028990507));
#968=DIRECTION('center_axis',(0.,-1.,0.));
#969=DIRECTION('ref_axis',(0.,0.,1.));
#970=DIRECTION('center_axis',(0.,-1.,0.));
#971=DIRECTION('ref_axis',(0.,0.,1.));
#972=DIRECTION('',(0.,-1.,0.));
#973=DIRECTION('center_axis',(0.,1.,0.));
#974=DIRECTION('ref_axis',(0.,0.,1.));
#975=DIRECTION('center_axis',(0.,1.,0.));
#976=DIRECTION('ref_axis',(0.,0.,1.));
#977=DIRECTION('center_axis',(0.,-1.,0.));
#978=DIRECTION('ref_axis',(0.,0.,1.));
#979=DIRECTION('',(-8.03440589904945E-17,-0.754709580222772,0.656059028990507));
#980=DIRECTION('center_axis',(0.,-1.,0.));
#981=DIRECTION('ref_axis',(0.,0.,1.));
#982=DIRECTION('center_axis',(0.,-1.,0.));
#983=DIRECTION('ref_axis',(0.,0.,1.));
#984=DIRECTION('',(0.,-1.,0.));
#985=DIRECTION('center_axis',(0.,1.,0.));
#986=DIRECTION('ref_axis',(0.,0.,1.));
#987=DIRECTION('center_axis',(0.,1.,0.));
#988=DIRECTION('ref_axis',(0.,0.,1.));
#989=DIRECTION('center_axis',(0.,-1.,0.));
#990=DIRECTION('ref_axis',(0.,0.,1.));
#991=DIRECTION('',(-8.03440589904945E-17,-0.754709580222772,0.656059028990507));
#992=DIRECTION('center_axis',(0.,-1.,0.));
#993=DIRECTION('ref_axis',(0.,0.,1.));
#994=DIRECTION('center_axis',(0.,-1.,0.));
#995=DIRECTION('ref_axis',(0.,0.,1.));
#996=DIRECTION('',(0.,-1.,0.));
#997=DIRECTION('center_axis',(0.,1.,0.));
#998=DIRECTION('ref_axis',(0.,0.,1.));
#999=DIRECTION('center_axis',(0.,1.,0.));
#1000=DIRECTION('ref_axis',(0.,0.,1.));
#1001=DIRECTION('center_axis',(0.,-1.,0.));
#1002=DIRECTION('ref_axis',(0.,0.,1.));
#1003=DIRECTION('',(-8.03440589904945E-17,-0.754709580222772,0.656059028990507));
#1004=DIRECTION('center_axis',(0.,-1.,0.));
#1005=DIRECTION('ref_axis',(0.,0.,1.));
#1006=DIRECTION('center_axis',(0.,-1.,0.));
#1007=DIRECTION('ref_axis',(0.,0.,1.));
#1008=DIRECTION('',(0.,-1.,0.));
#1009=DIRECTION('center_axis',(0.,1.,0.));
#1010=DIRECTION('ref_axis',(0.,0.,1.));
#1011=DIRECTION('center_axis',(0.,1.,0.));
#1012=DIRECTION('ref_axis',(0.,0.,1.));
#1013=DIRECTION('center_axis',(0.,-1.,0.));
#1014=DIRECTION('ref_axis',(0.,0.,1.));
#1015=DIRECTION('',(-8.03440589904945E-17,-0.754709580222772,0.656059028990507));
#1016=DIRECTION('center_axis',(0.,-1.,0.));
#1017=DIRECTION('ref_axis',(0.,0.,1.));
#1018=DIRECTION('center_axis',(0.,-1.,0.));
#1019=DIRECTION('ref_axis',(0.,0.,1.));
#1020=DIRECTION('',(0.,-1.,0.));
#1021=DIRECTION('center_axis',(0.,1.,0.));
#1022=DIRECTION('ref_axis',(0.,0.,1.));
#1023=DIRECTION('center_axis',(0.,1.,0.));
#1024=DIRECTION('ref_axis',(0.,0.,1.));
#1025=DIRECTION('center_axis',(0.,-1.,0.));
#1026=DIRECTION('ref_axis',(0.,0.,1.));
#1027=DIRECTION('',(-8.03440589904945E-17,-0.754709580222772,0.656059028990507));
#1028=DIRECTION('center_axis',(0.,-1.,0.));
#1029=DIRECTION('ref_axis',(0.,0.,1.));
#1030=DIRECTION('center_axis',(0.,-1.,0.));
#1031=DIRECTION('ref_axis',(0.,0.,1.));
#1032=DIRECTION('',(0.,-1.,0.));
#1033=DIRECTION('center_axis',(0.,1.,0.));
#1034=DIRECTION('ref_axis',(0.,0.,1.));
#1035=DIRECTION('center_axis',(0.,1.,0.));
#1036=DIRECTION('ref_axis',(0.,0.,1.));
#1037=DIRECTION('center_axis',(0.,-1.,0.));
#1038=DIRECTION('ref_axis',(0.,0.,1.));
#1039=DIRECTION('',(-8.03440589904945E-17,-0.754709580222772,0.656059028990507));
#1040=DIRECTION('center_axis',(0.,-1.,0.));
#1041=DIRECTION('ref_axis',(0.,0.,1.));
#1042=DIRECTION('center_axis',(0.,-1.,0.));
#1043=DIRECTION('ref_axis',(0.,0.,1.));
#1044=DIRECTION('',(0.,-1.,0.));
#1045=DIRECTION('center_axis',(0.,1.,0.));
#1046=DIRECTION('ref_axis',(0.,0.,1.));
#1047=DIRECTION('center_axis',(0.,1.,0.));
#1048=DIRECTION('ref_axis',(0.,0.,1.));
#1049=DIRECTION('center_axis',(0.,-1.,0.));
#1050=DIRECTION('ref_axis',(0.,0.,1.));
#1051=DIRECTION('',(-8.03440589904945E-17,-0.754709580222772,0.656059028990507));
#1052=DIRECTION('center_axis',(0.,-1.,0.));
#1053=DIRECTION('ref_axis',(0.,0.,1.));
#1054=DIRECTION('center_axis',(0.,-1.,0.));
#1055=DIRECTION('ref_axis',(0.,0.,1.));
#1056=DIRECTION('',(0.,-1.,0.));
#1057=DIRECTION('center_axis',(0.,1.,0.));
#1058=DIRECTION('ref_axis',(0.,0.,1.));
#1059=DIRECTION('center_axis',(0.,1.,0.));
#1060=DIRECTION('ref_axis',(0.,0.,1.));
#1061=DIRECTION('center_axis',(0.,-1.,0.));
#1062=DIRECTION('ref_axis',(0.,0.,1.));
#1063=DIRECTION('',(-8.03440589904945E-17,-0.754709580222772,0.656059028990507));
#1064=DIRECTION('center_axis',(0.,-1.,0.));
#1065=DIRECTION('ref_axis',(0.,0.,1.));
#1066=DIRECTION('center_axis',(0.,-1.,0.));
#1067=DIRECTION('ref_axis',(0.,0.,1.));
#1068=DIRECTION('',(0.,-1.,0.));
#1069=DIRECTION('center_axis',(0.,1.,0.));
#1070=DIRECTION('ref_axis',(0.,0.,1.));
#1071=DIRECTION('center_axis',(0.,1.,0.));
#1072=DIRECTION('ref_axis',(0.,0.,1.));
#1073=DIRECTION('center_axis',(0.,-1.,0.));
#1074=DIRECTION('ref_axis',(0.,0.,1.));
#1075=DIRECTION('',(-8.03440589904945E-17,-0.754709580222772,0.656059028990507));
#1076=DIRECTION('center_axis',(0.,-1.,0.));
#1077=DIRECTION('ref_axis',(0.,0.,1.));
#1078=DIRECTION('center_axis',(0.,-1.,0.));
#1079=DIRECTION('ref_axis',(0.,0.,1.));
#1080=DIRECTION('',(0.,-1.,0.));
#1081=DIRECTION('center_axis',(0.,1.,0.));
#1082=DIRECTION('ref_axis',(0.,0.,1.));
#1083=DIRECTION('center_axis',(0.,1.,0.));
#1084=DIRECTION('ref_axis',(0.,0.,1.));
#1085=DIRECTION('center_axis',(0.,-1.,0.));
#1086=DIRECTION('ref_axis',(0.,0.,1.));
#1087=DIRECTION('',(-8.03440589904945E-17,-0.754709580222772,0.656059028990507));
#1088=DIRECTION('center_axis',(0.,-1.,0.));
#1089=DIRECTION('ref_axis',(0.,0.,1.));
#1090=DIRECTION('center_axis',(0.,-1.,0.));
#1091=DIRECTION('ref_axis',(0.,0.,1.));
#1092=DIRECTION('',(0.,-1.,0.));
#1093=DIRECTION('center_axis',(0.,1.,0.));
#1094=DIRECTION('ref_axis',(0.,0.,1.));
#1095=DIRECTION('center_axis',(0.,1.,0.));
#1096=DIRECTION('ref_axis',(0.,0.,1.));
#1097=DIRECTION('center_axis',(0.,-1.,0.));
#1098=DIRECTION('ref_axis',(0.,0.,1.));
#1099=DIRECTION('',(-8.03440589904945E-17,-0.754709580222772,0.656059028990507));
#1100=DIRECTION('center_axis',(0.,-1.,0.));
#1101=DIRECTION('ref_axis',(0.,0.,1.));
#1102=DIRECTION('center_axis',(0.,-1.,0.));
#1103=DIRECTION('ref_axis',(0.,0.,1.));
#1104=DIRECTION('',(0.,-1.,0.));
#1105=DIRECTION('center_axis',(0.,1.,0.));
#1106=DIRECTION('ref_axis',(0.,0.,1.));
#1107=DIRECTION('center_axis',(0.,1.,0.));
#1108=DIRECTION('ref_axis',(0.,0.,1.));
#1109=DIRECTION('center_axis',(0.,-1.,0.));
#1110=DIRECTION('ref_axis',(0.,0.,1.));
#1111=DIRECTION('',(-8.03440589904945E-17,-0.754709580222772,0.656059028990507));
#1112=DIRECTION('center_axis',(0.,-1.,0.));
#1113=DIRECTION('ref_axis',(0.,0.,1.));
#1114=DIRECTION('center_axis',(0.,-1.,0.));
#1115=DIRECTION('ref_axis',(0.,0.,1.));
#1116=DIRECTION('',(0.,-1.,0.));
#1117=DIRECTION('center_axis',(0.,1.,0.));
#1118=DIRECTION('ref_axis',(0.,0.,1.));
#1119=DIRECTION('center_axis',(0.,1.,0.));
#1120=DIRECTION('ref_axis',(0.,0.,1.));
#1121=DIRECTION('center_axis',(0.,-1.,0.));
#1122=DIRECTION('ref_axis',(0.,0.,1.));
#1123=DIRECTION('',(-8.03440589904945E-17,-0.754709580222772,0.656059028990507));
#1124=DIRECTION('center_axis',(0.,-1.,0.));
#1125=DIRECTION('ref_axis',(0.,0.,1.));
#1126=DIRECTION('center_axis',(0.,-1.,0.));
#1127=DIRECTION('ref_axis',(0.,0.,1.));
#1128=DIRECTION('',(0.,-1.,0.));
#1129=DIRECTION('center_axis',(0.,1.,0.));
#1130=DIRECTION('ref_axis',(0.,0.,1.));
#1131=DIRECTION('center_axis',(0.,-1.,0.));
#1132=DIRECTION('ref_axis',(2.36847578586701E-14,0.,-1.));
#1133=DIRECTION('center_axis',(0.,1.,0.));
#1134=DIRECTION('ref_axis',(2.36847578586701E-14,0.,-1.));
#1135=DIRECTION('',(0.,-1.,0.));
#1136=DIRECTION('center_axis',(0.,-1.,0.));
#1137=DIRECTION('ref_axis',(2.36847578586701E-14,0.,-1.));
#1138=DIRECTION('',(0.,-1.,0.));
#1139=DIRECTION('center_axis',(-1.,0.,1.71169288593172E-15));
#1140=DIRECTION('ref_axis',(-1.71169288593172E-15,0.,-1.));
#1141=DIRECTION('',(-1.71169288593172E-15,0.,-1.));
#1142=DIRECTION('',(-1.71169288593172E-15,0.,-1.));
#1143=DIRECTION('',(0.,-1.,0.));
#1144=DIRECTION('center_axis',(9.99356871673956E-17,0.,1.));
#1145=DIRECTION('ref_axis',(-1.,0.,9.99356871673956E-17));
#1146=DIRECTION('',(-1.,0.,9.99356871673956E-17));
#1147=DIRECTION('',(-1.,0.,9.99356871673956E-17));
#1148=DIRECTION('',(0.,-1.,0.));
#1149=DIRECTION('center_axis',(1.,0.,-5.32526675623202E-15));
#1150=DIRECTION('ref_axis',(5.32526675623202E-15,0.,1.));
#1151=DIRECTION('',(-5.32526675623202E-15,0.,-1.));
#1152=DIRECTION('',(5.32526675623202E-15,0.,1.));
#1153=DIRECTION('',(0.,-1.,0.));
#1154=DIRECTION('center_axis',(0.,-1.,0.));
#1155=DIRECTION('ref_axis',(1.,0.,-1.92438657601696E-14));
#1156=DIRECTION('center_axis',(0.,1.,0.));
#1157=DIRECTION('ref_axis',(1.,0.,-1.92438657601696E-14));
#1158=DIRECTION('center_axis',(0.,-1.,0.));
#1159=DIRECTION('ref_axis',(1.,0.,-1.92438657601696E-14));
#1160=DIRECTION('',(0.,-1.,0.));
#1161=DIRECTION('center_axis',(1.04491578788251E-16,0.,-1.));
#1162=DIRECTION('ref_axis',(1.,0.,1.04491578788251E-16));
#1163=DIRECTION('',(-1.,0.,-1.04491578788251E-16));
#1164=DIRECTION('',(1.,0.,1.04491578788251E-16));
#1165=DIRECTION('',(0.,-1.,0.));
#1166=DIRECTION('center_axis',(-1.,0.,-6.4594794160009E-15));
#1167=DIRECTION('ref_axis',(6.4594794160009E-15,0.,-1.));
#1168=DIRECTION('',(-6.4594794160009E-15,0.,1.));
#1169=DIRECTION('',(6.4594794160009E-15,0.,-1.));
#1170=DIRECTION('',(0.,-1.,0.));
#1171=DIRECTION('center_axis',(0.,-1.,0.));
#1172=DIRECTION('ref_axis',(1.18423789293349E-14,0.,1.));
#1173=DIRECTION('center_axis',(0.,1.,0.));
#1174=DIRECTION('ref_axis',(1.18423789293349E-14,0.,1.));
#1175=DIRECTION('center_axis',(0.,1.,0.));
#1176=DIRECTION('ref_axis',(1.18423789293349E-14,0.,1.));
#1177=DIRECTION('',(0.,-1.,0.));
#1178=DIRECTION('center_axis',(1.20024110770287E-16,0.,-1.));
#1179=DIRECTION('ref_axis',(1.,0.,1.20024110770287E-16));
#1180=DIRECTION('',(1.,0.,1.20024110770287E-16));
#1181=DIRECTION('',(1.,0.,1.20024110770287E-16));
#1182=DIRECTION('',(0.,-1.,0.));
#1183=DIRECTION('center_axis',(0.,-1.,0.));
#1184=DIRECTION('ref_axis',(-1.,0.,0.));
#1185=DIRECTION('center_axis',(0.,1.,0.));
#1186=DIRECTION('ref_axis',(-1.,0.,0.));
#1187=DIRECTION('center_axis',(0.,1.,0.));
#1188=DIRECTION('ref_axis',(-1.,0.,0.));
#1189=DIRECTION('',(0.,-1.,0.));
#1190=DIRECTION('center_axis',(1.,0.,0.));
#1191=DIRECTION('ref_axis',(0.,0.,1.));
#1192=DIRECTION('',(0.,0.,1.));
#1193=DIRECTION('',(0.,0.,1.));
#1194=DIRECTION('',(0.,-1.,0.));
#1195=DIRECTION('center_axis',(1.04491578788318E-16,0.,-1.));
#1196=DIRECTION('ref_axis',(1.,0.,1.04491578788318E-16));
#1197=DIRECTION('',(-1.,0.,-1.04491578788318E-16));
#1198=DIRECTION('',(1.,0.,1.04491578788318E-16));
#1199=DIRECTION('center_axis',(0.,1.,0.));
#1200=DIRECTION('ref_axis',(1.,0.,0.));
#1201=DIRECTION('center_axis',(0.,1.,0.));
#1202=DIRECTION('ref_axis',(1.,0.,0.));
#1203=CARTESIAN_POINT('',(0.,0.,0.));
#1204=CARTESIAN_POINT('Origin',(-150.849681932068,-1.13225010480728,-30.0850293009571));
#1205=CARTESIAN_POINT('',(-150.849681932068,1.11022302462516E-15,-34.3015293009571));
#1206=CARTESIAN_POINT('Origin',(-150.849681932068,0.,-30.0850293009571));
#1207=CARTESIAN_POINT('',(-150.849681932068,-2.26450020961456,-32.3330293009571));
#1208=CARTESIAN_POINT('',(-150.849681932068,-1.13225010480728,-33.3172793009571));
#1209=CARTESIAN_POINT('Origin',(-150.849681932068,-2.26450020961456,-30.0850293009571));
#1210=CARTESIAN_POINT('Origin',(-150.849681932068,-2.,-30.0850293009571));
#1211=CARTESIAN_POINT('',(-150.849681932068,-3.,-32.3330293009571));
#1212=CARTESIAN_POINT('',(-150.849681932068,-2.,-32.3330293009571));
#1213=CARTESIAN_POINT('Origin',(-150.849681932068,-3.,-30.0850293009571));
#1214=CARTESIAN_POINT('Origin',(-255.999681915229,-1.13225010480728,-6.43502922609138));
#1215=CARTESIAN_POINT('',(-255.999681915229,2.77555756156289E-16,-10.6515292260914));
#1216=CARTESIAN_POINT('Origin',(-255.999681915229,0.,-6.43502922609138));
#1217=CARTESIAN_POINT('',(-255.999681915229,-2.26450020961457,-8.68302922609137));
#1218=CARTESIAN_POINT('',(-255.999681915229,-1.13225010480728,-9.66727922609138));
#1219=CARTESIAN_POINT('Origin',(-255.999681915229,-2.26450020961456,-6.43502922609138));
#1220=CARTESIAN_POINT('Origin',(-255.999681915229,-2.,-6.43502922609138));
#1221=CARTESIAN_POINT('',(-255.999681915229,-3.,-8.68302922609138));
#1222=CARTESIAN_POINT('',(-255.999681915229,-2.,-8.68302922609138));
#1223=CARTESIAN_POINT('Origin',(-255.999681915229,-3.,-6.43502922609138));
#1224=CARTESIAN_POINT('Origin',(-250.849681805823,-1.13225010480728,147.014970774336));
#1225=CARTESIAN_POINT('',(-250.849681805823,-1.80411241501588E-15,142.798470774336));
#1226=CARTESIAN_POINT('Origin',(-250.849681805823,0.,147.014970774336));
#1227=CARTESIAN_POINT('',(-250.849681805823,-2.26450020961457,144.766970774336));
#1228=CARTESIAN_POINT('',(-250.849681805823,-1.13225010480728,143.782720774336));
#1229=CARTESIAN_POINT('Origin',(-250.849681805823,-2.26450020961456,147.014970774336));
#1230=CARTESIAN_POINT('Origin',(-250.849681805823,-2.,147.014970774336));
#1231=CARTESIAN_POINT('',(-250.849681805823,-3.,144.766970774336));
#1232=CARTESIAN_POINT('',(-250.849681805823,-2.,144.766970774336));
#1233=CARTESIAN_POINT('Origin',(-250.849681805823,-3.,147.014970774336));
#1234=CARTESIAN_POINT('Origin',(93.1503181963133,-1.13225010480728,147.014970651873));
#1235=CARTESIAN_POINT('',(93.1503181963133,-1.80411241501588E-15,142.798470651873));
#1236=CARTESIAN_POINT('Origin',(93.1503181963133,0.,147.014970651873));
#1237=CARTESIAN_POINT('',(93.1503181963133,-2.26450020961456,144.766970651873));
#1238=CARTESIAN_POINT('',(93.1503181963133,-1.13225010480728,143.782720651873));
#1239=CARTESIAN_POINT('Origin',(93.1503181963133,-2.26450020961456,147.014970651873));
#1240=CARTESIAN_POINT('Origin',(93.1503181963133,-2.,147.014970651873));
#1241=CARTESIAN_POINT('',(93.1503181963133,-3.,144.766970651873));
#1242=CARTESIAN_POINT('',(93.1503181963133,-2.,144.766970651873));
#1243=CARTESIAN_POINT('Origin',(93.1503181963133,-3.,147.014970651873));
#1244=CARTESIAN_POINT('Origin',(183.150318143234,-1.13225010480728,-2.08502947753011));
#1245=CARTESIAN_POINT('',(183.150318143234,2.77555756156289E-16,-6.30152947753011));
#1246=CARTESIAN_POINT('Origin',(183.150318143234,0.,-2.08502947753011));
#1247=CARTESIAN_POINT('',(183.150318143234,-2.26450020961457,-4.3330294775301));
#1248=CARTESIAN_POINT('',(183.150318143234,-1.13225010480728,-5.31727947753011));
#1249=CARTESIAN_POINT('Origin',(183.150318143234,-2.26450020961456,-2.08502947753011));
#1250=CARTESIAN_POINT('Origin',(183.150318143234,-2.,-2.08502947753011));
#1251=CARTESIAN_POINT('',(183.150318143234,-3.,-4.33302947753011));
#1252=CARTESIAN_POINT('',(183.150318143234,-2.,-4.33302947753011));
#1253=CARTESIAN_POINT('Origin',(183.150318143234,-3.,-2.08502947753011));
#1254=CARTESIAN_POINT('Origin',(442.300318198601,-1.13225010480728,-6.43502947468264));
#1255=CARTESIAN_POINT('',(442.300318198601,2.77555756156289E-16,-10.6515294746826));
#1256=CARTESIAN_POINT('Origin',(442.300318198601,0.,-6.43502947468264));
#1257=CARTESIAN_POINT('',(442.300318198601,-2.26450020961456,-8.68302947468264));
#1258=CARTESIAN_POINT('',(442.300318198601,-1.13225010480728,-9.66727947468264));
#1259=CARTESIAN_POINT('Origin',(442.300318198601,-2.26450020961456,-6.43502947468264));
#1260=CARTESIAN_POINT('Origin',(442.300318198601,-2.,-6.43502947468264));
#1261=CARTESIAN_POINT('',(442.300318198601,-3.,-8.68302947468264));
#1262=CARTESIAN_POINT('',(442.300318198601,-2.,-8.68302947468264));
#1263=CARTESIAN_POINT('Origin',(442.300318198601,-3.,-6.43502947468264));
#1264=CARTESIAN_POINT('Origin',(442.300318198601,-1.13225010480728,123.442170885218));
#1265=CARTESIAN_POINT('',(442.300318198601,-1.80411241501588E-15,119.225670885218));
#1266=CARTESIAN_POINT('Origin',(442.300318198601,0.,123.442170885218));
#1267=CARTESIAN_POINT('',(442.300318198601,-2.26450020961456,121.194170885218));
#1268=CARTESIAN_POINT('',(442.300318198601,-1.13225010480728,120.209920885218));
#1269=CARTESIAN_POINT('Origin',(442.300318198601,-2.26450020961456,123.442170885218));
#1270=CARTESIAN_POINT('Origin',(442.300318198601,-2.,123.442170885218));
#1271=CARTESIAN_POINT('',(442.300318198601,-3.,121.194170885218));
#1272=CARTESIAN_POINT('',(442.300318198601,-2.,121.194170885218));
#1273=CARTESIAN_POINT('Origin',(442.300318198601,-3.,123.442170885218));
#1274=CARTESIAN_POINT('Origin',(437.15031819845,-1.13225010480728,147.014970529411));
#1275=CARTESIAN_POINT('',(437.15031819845,-1.80411241501588E-15,142.798470529411));
#1276=CARTESIAN_POINT('Origin',(437.15031819845,0.,147.014970529411));
#1277=CARTESIAN_POINT('',(437.15031819845,-2.26450020961456,144.766970529411));
#1278=CARTESIAN_POINT('',(437.15031819845,-1.13225010480728,143.782720529411));
#1279=CARTESIAN_POINT('Origin',(437.15031819845,-2.26450020961456,147.014970529411));
#1280=CARTESIAN_POINT('Origin',(437.15031819845,-2.,147.014970529411));
#1281=CARTESIAN_POINT('',(437.15031819845,-3.,144.766970529411));
#1282=CARTESIAN_POINT('',(437.15031819845,-2.,144.766970529411));
#1283=CARTESIAN_POINT('Origin',(437.15031819845,-3.,147.014970529411));
#1284=CARTESIAN_POINT('Origin',(426.150318198601,-1.13225010480728,-30.0850294746831));
#1285=CARTESIAN_POINT('',(426.150318198601,1.11022302462516E-15,-34.3015294746831));
#1286=CARTESIAN_POINT('Origin',(426.150318198601,0.,-30.0850294746831));
#1287=CARTESIAN_POINT('',(426.150318198601,-2.26450020961456,-32.3330294746831));
#1288=CARTESIAN_POINT('',(426.150318198601,-1.13225010480728,-33.3172794746831));
#1289=CARTESIAN_POINT('Origin',(426.150318198601,-2.26450020961456,-30.0850294746831));
#1290=CARTESIAN_POINT('Origin',(426.150318198601,-2.,-30.0850294746831));
#1291=CARTESIAN_POINT('',(426.150318198601,-3.,-32.3330294746831));
#1292=CARTESIAN_POINT('',(426.150318198601,-2.,-32.3330294746831));
#1293=CARTESIAN_POINT('Origin',(426.150318198601,-3.,-30.0850294746831));
#1294=CARTESIAN_POINT('Origin',(337.150318198602,-1.13225010480728,-30.0850294746827));
#1295=CARTESIAN_POINT('',(337.150318198602,1.11022302462516E-15,-34.3015294746827));
#1296=CARTESIAN_POINT('Origin',(337.150318198602,0.,-30.0850294746827));
#1297=CARTESIAN_POINT('',(337.150318198602,-2.26450020961456,-32.3330294746827));
#1298=CARTESIAN_POINT('',(337.150318198602,-1.13225010480728,-33.3172794746827));
#1299=CARTESIAN_POINT('Origin',(337.150318198602,-2.26450020961456,-30.0850294746827));
#1300=CARTESIAN_POINT('Origin',(337.150318198602,-2.,-30.0850294746827));
#1301=CARTESIAN_POINT('',(337.150318198602,-3.,-32.3330294746827));
#1302=CARTESIAN_POINT('',(337.150318198602,-2.,-32.3330294746827));
#1303=CARTESIAN_POINT('Origin',(337.150318198602,-3.,-30.0850294746827));
#1304=CARTESIAN_POINT('Origin',(265.150318197382,-1.13225010480728,147.014970590642));
#1305=CARTESIAN_POINT('',(265.150318197382,-1.80411241501588E-15,142.798470590642));
#1306=CARTESIAN_POINT('Origin',(265.150318197382,0.,147.014970590642));
#1307=CARTESIAN_POINT('',(265.150318197382,-2.26450020961457,144.766970590642));
#1308=CARTESIAN_POINT('',(265.150318197382,-1.13225010480728,143.782720590642));
#1309=CARTESIAN_POINT('Origin',(265.150318197382,-2.26450020961456,147.014970590642));
#1310=CARTESIAN_POINT('Origin',(265.150318197382,-2.,147.014970590642));
#1311=CARTESIAN_POINT('',(265.150318197382,-3.,144.766970590642));
#1312=CARTESIAN_POINT('',(265.150318197382,-2.,144.766970590642));
#1313=CARTESIAN_POINT('Origin',(265.150318197382,-3.,147.014970590642));
#1314=CARTESIAN_POINT('Origin',(-78.8496818047549,-1.13225010480728,147.014970713105));
#1315=CARTESIAN_POINT('',(-78.8496818047549,3.46944695195361E-15,142.798470713105));
#1316=CARTESIAN_POINT('Origin',(-78.8496818047549,0.,147.014970713105));
#1317=CARTESIAN_POINT('',(-78.8496818047549,-2.26450020961456,144.766970713105));
#1318=CARTESIAN_POINT('',(-78.8496818047549,-1.13225010480728,143.782720713105));
#1319=CARTESIAN_POINT('Origin',(-78.8496818047549,-2.26450020961456,147.014970713105));
#1320=CARTESIAN_POINT('Origin',(-78.8496818047549,-2.,147.014970713105));
#1321=CARTESIAN_POINT('',(-78.8496818047549,-3.,144.766970713105));
#1322=CARTESIAN_POINT('',(-78.8496818047549,-2.,144.766970713105));
#1323=CARTESIAN_POINT('Origin',(-78.8496818047549,-3.,147.014970713105));
#1324=CARTESIAN_POINT('Origin',(-255.999681822758,-1.13225010480728,123.442171133809));
#1325=CARTESIAN_POINT('',(-255.999681822758,-1.80411241501588E-15,119.225671133809));
#1326=CARTESIAN_POINT('Origin',(-255.999681822758,0.,123.442171133809));
#1327=CARTESIAN_POINT('',(-255.999681822758,-2.26450020961457,121.194171133809));
#1328=CARTESIAN_POINT('',(-255.999681822758,-1.13225010480728,120.209921133809));
#1329=CARTESIAN_POINT('Origin',(-255.999681822758,-2.26450020961456,123.442171133809));
#1330=CARTESIAN_POINT('Origin',(-255.999681822758,-2.,123.442171133809));
#1331=CARTESIAN_POINT('',(-255.999681822758,-3.,121.194171133809));
#1332=CARTESIAN_POINT('',(-255.999681822758,-2.,121.194171133809));
#1333=CARTESIAN_POINT('Origin',(-255.999681822758,-3.,123.442171133809));
#1334=CARTESIAN_POINT('Origin',(-239.849681932068,-1.13225010480728,-30.0850292375905));
#1335=CARTESIAN_POINT('',(-239.849681932068,1.11022302462516E-15,-34.3015292375905));
#1336=CARTESIAN_POINT('Origin',(-239.849681932068,0.,-30.0850292375905));
#1337=CARTESIAN_POINT('',(-239.849681932068,-2.26450020961457,-32.3330292375905));
#1338=CARTESIAN_POINT('',(-239.849681932068,-1.13225010480728,-33.3172792375905));
#1339=CARTESIAN_POINT('Origin',(-239.849681932068,-2.26450020961456,-30.0850292375905));
#1340=CARTESIAN_POINT('Origin',(-239.849681932068,-2.,-30.0850292375905));
#1341=CARTESIAN_POINT('',(-239.849681932068,-3.,-32.3330292375905));
#1342=CARTESIAN_POINT('',(-239.849681932068,-2.,-32.3330292375905));
#1343=CARTESIAN_POINT('Origin',(-239.849681932068,-3.,-30.0850292375905));
#1344=CARTESIAN_POINT('Origin',(3.15031814323448,-1.13225010480728,-2.08502941345102));
#1345=CARTESIAN_POINT('',(3.15031814323448,2.77555756156289E-16,-6.30152941345102));
#1346=CARTESIAN_POINT('Origin',(3.15031814323448,0.,-2.08502941345102));
#1347=CARTESIAN_POINT('',(3.15031814323448,-2.26450020961456,-4.33302941345102));
#1348=CARTESIAN_POINT('',(3.15031814323448,-1.13225010480728,-5.31727941345102));
#1349=CARTESIAN_POINT('Origin',(3.15031814323448,-2.26450020961456,-2.08502941345102));
#1350=CARTESIAN_POINT('Origin',(3.15031814323448,-2.,-2.08502941345102));
#1351=CARTESIAN_POINT('',(3.15031814323448,-3.,-4.33302941345102));
#1352=CARTESIAN_POINT('',(3.15031814323448,-2.,-4.33302941345102));
#1353=CARTESIAN_POINT('Origin',(3.15031814323448,-3.,-2.08502941345102));
#1354=CARTESIAN_POINT('Origin',(-259.349681801316,0.,-33.4350294746827));
#1355=CARTESIAN_POINT('',(-259.349681801316,0.,-36.4350294746827));
#1356=CARTESIAN_POINT('',(-262.349681801316,0.,-33.4350294746827));
#1357=CARTESIAN_POINT('Origin',(-259.349681801316,0.,-33.4350294746827));
#1358=CARTESIAN_POINT('',(-259.349681801316,-3.,-36.4350294746827));
#1359=CARTESIAN_POINT('',(-259.349681801316,0.,-36.4350294746827));
#1360=CARTESIAN_POINT('',(-262.349681801316,-3.,-33.4350294746827));
#1361=CARTESIAN_POINT('Origin',(-259.349681801316,-3.,-33.4350294746827));
#1362=CARTESIAN_POINT('',(-262.349681801316,0.,-33.4350294746827));
#1363=CARTESIAN_POINT('Origin',(-262.349681801316,0.,153.364970525317));
#1364=CARTESIAN_POINT('',(-262.349681801316,0.,153.364970525317));
#1365=CARTESIAN_POINT('',(-262.349681801316,0.,153.364970525317));
#1366=CARTESIAN_POINT('',(-262.349681801316,-3.,153.364970525317));
#1367=CARTESIAN_POINT('',(-262.349681801316,-3.,153.364970525317));
#1368=CARTESIAN_POINT('',(-262.349681801316,0.,153.364970525317));
#1369=CARTESIAN_POINT('Origin',(448.650318198602,0.,153.364970525317));
#1370=CARTESIAN_POINT('',(448.650318198602,0.,153.364970525317));
#1371=CARTESIAN_POINT('',(448.650318198602,0.,153.364970525317));
#1372=CARTESIAN_POINT('',(448.650318198602,-3.,153.364970525317));
#1373=CARTESIAN_POINT('',(448.650318198602,-3.,153.364970525317));
#1374=CARTESIAN_POINT('',(448.650318198602,0.,153.364970525317));
#1375=CARTESIAN_POINT('Origin',(448.650318198601,0.,-33.4350294746827));
#1376=CARTESIAN_POINT('',(448.650318198601,0.,-33.4350294746827));
#1377=CARTESIAN_POINT('',(448.650318198602,0.,153.364970525317));
#1378=CARTESIAN_POINT('',(448.650318198601,-3.,-33.4350294746827));
#1379=CARTESIAN_POINT('',(448.650318198602,-3.,153.364970525317));
#1380=CARTESIAN_POINT('',(448.650318198601,0.,-33.4350294746827));
#1381=CARTESIAN_POINT('Origin',(445.650318198601,0.,-33.4350294746826));
#1382=CARTESIAN_POINT('',(445.650318198601,0.,-36.4350294746826));
#1383=CARTESIAN_POINT('Origin',(445.650318198601,0.,-33.4350294746826));
#1384=CARTESIAN_POINT('',(445.650318198601,-3.,-36.4350294746826));
#1385=CARTESIAN_POINT('Origin',(445.650318198601,-3.,-33.4350294746826));
#1386=CARTESIAN_POINT('',(445.650318198601,0.,-36.4350294746826));
#1387=CARTESIAN_POINT('Origin',(318.150318198602,0.,-36.4350294746827));
#1388=CARTESIAN_POINT('',(318.150318198602,0.,-36.4350294746827));
#1389=CARTESIAN_POINT('',(445.650318198601,0.,-36.4350294746826));
#1390=CARTESIAN_POINT('',(318.150318198602,-3.,-36.4350294746827));
#1391=CARTESIAN_POINT('',(445.650318198601,-3.,-36.4350294746826));
#1392=CARTESIAN_POINT('',(318.150318198602,0.,-36.4350294746827));
#1393=CARTESIAN_POINT('Origin',(318.150318198601,0.,-14.4350294746826));
#1394=CARTESIAN_POINT('',(318.150318198601,0.,-14.4350294746826));
#1395=CARTESIAN_POINT('',(318.150318198602,0.,-36.4350294746827));
#1396=CARTESIAN_POINT('',(318.150318198601,-3.,-14.4350294746826));
#1397=CARTESIAN_POINT('',(318.150318198602,-3.,-36.4350294746827));
#1398=CARTESIAN_POINT('',(318.150318198601,0.,-14.4350294746826));
#1399=CARTESIAN_POINT('Origin',(315.150318198601,0.,-14.4350294746827));
#1400=CARTESIAN_POINT('',(315.150318198601,0.,-11.4350294746827));
#1401=CARTESIAN_POINT('Origin',(315.150318198601,0.,-14.4350294746827));
#1402=CARTESIAN_POINT('',(315.150318198601,-3.,-11.4350294746827));
#1403=CARTESIAN_POINT('Origin',(315.150318198601,-3.,-14.4350294746827));
#1404=CARTESIAN_POINT('',(315.150318198601,0.,-11.4350294746827));
#1405=CARTESIAN_POINT('Origin',(-128.849681801399,0.,-11.4350294746827));
#1406=CARTESIAN_POINT('',(-128.849681801399,0.,-11.4350294746828));
#1407=CARTESIAN_POINT('',(-128.849681801399,0.,-11.4350294746827));
#1408=CARTESIAN_POINT('',(-128.849681801399,-3.,-11.4350294746828));
#1409=CARTESIAN_POINT('',(-128.849681801399,-3.,-11.4350294746827));
#1410=CARTESIAN_POINT('',(-128.849681801399,0.,-11.4350294746828));
#1411=CARTESIAN_POINT('Origin',(-128.849681801399,0.,-14.4350294746827));
#1412=CARTESIAN_POINT('',(-131.849681801399,0.,-14.4350294746827));
#1413=CARTESIAN_POINT('Origin',(-128.849681801399,0.,-14.4350294746827));
#1414=CARTESIAN_POINT('',(-131.849681801399,-3.,-14.4350294746827));
#1415=CARTESIAN_POINT('Origin',(-128.849681801399,-3.,-14.4350294746827));
#1416=CARTESIAN_POINT('',(-131.849681801399,0.,-14.4350294746827));
#1417=CARTESIAN_POINT('Origin',(-131.849681801399,0.,-36.4350294746827));
#1418=CARTESIAN_POINT('',(-131.849681801399,0.,-36.4350294746827));
#1419=CARTESIAN_POINT('',(-131.849681801399,0.,-36.4350294746827));
#1420=CARTESIAN_POINT('',(-131.849681801399,-3.,-36.4350294746827));
#1421=CARTESIAN_POINT('',(-131.849681801399,-3.,-36.4350294746827));
#1422=CARTESIAN_POINT('',(-131.849681801399,0.,-36.4350294746827));
#1423=CARTESIAN_POINT('Origin',(-259.349681801316,0.,-36.4350294746827));
#1424=CARTESIAN_POINT('',(-131.849681801399,0.,-36.4350294746827));
#1425=CARTESIAN_POINT('',(-131.849681801399,-3.,-36.4350294746827));
#1426=CARTESIAN_POINT('Origin',(93.1503181986429,0.,58.4649705253173));
#1427=CARTESIAN_POINT('Origin',(93.1503181986429,-3.,58.4649705253173));
#1428=UNCERTAINTY_MEASURE_WITH_UNIT(LENGTH_MEASURE(0.01),#1432,
'DISTANCE_ACCURACY_VALUE',
'Maximum model space distance between geometric entities at asserted c
onnectivities');
#1429=UNCERTAINTY_MEASURE_WITH_UNIT(LENGTH_MEASURE(0.01),#1432,
'DISTANCE_ACCURACY_VALUE',
'Maximum model space distance between geometric entities at asserted c
onnectivities');
#1430=(
GEOMETRIC_REPRESENTATION_CONTEXT(3)
GLOBAL_UNCERTAINTY_ASSIGNED_CONTEXT((#1428))
GLOBAL_UNIT_ASSIGNED_CONTEXT((#1432,#1434,#1435))
REPRESENTATION_CONTEXT('','3D')
);
#1431=(
GEOMETRIC_REPRESENTATION_CONTEXT(3)
GLOBAL_UNCERTAINTY_ASSIGNED_CONTEXT((#1429))
GLOBAL_UNIT_ASSIGNED_CONTEXT((#1432,#1434,#1435))
REPRESENTATION_CONTEXT('','3D')
);
#1432=(
LENGTH_UNIT()
NAMED_UNIT(*)
SI_UNIT(.MILLI.,.METRE.)
);
#1433=(
LENGTH_UNIT()
NAMED_UNIT(*)
SI_UNIT($,.METRE.)
);
#1434=(
NAMED_UNIT(*)
PLANE_ANGLE_UNIT()
SI_UNIT($,.RADIAN.)
);
#1435=(
NAMED_UNIT(*)
SI_UNIT($,.STERADIAN.)
SOLID_ANGLE_UNIT()
);
#1436=SHAPE_DEFINITION_REPRESENTATION(#1437,#1438);
#1437=PRODUCT_DEFINITION_SHAPE('',$,#1440);
#1438=SHAPE_REPRESENTATION('',(#851),#1430);
#1439=PRODUCT_DEFINITION_CONTEXT('part definition',#1444,'design');
#1440=PRODUCT_DEFINITION('Back Plate','Back Plate',#1441,#1439);
#1441=PRODUCT_DEFINITION_FORMATION('',$,#1446);
#1442=PRODUCT_RELATED_PRODUCT_CATEGORY('Back Plate','Back Plate',(#1446));
#1443=APPLICATION_PROTOCOL_DEFINITION('international standard',
'automotive_design',2009,#1444);
#1444=APPLICATION_CONTEXT(
'Core Data for Automotive Mechanical Design Process');
#1445=PRODUCT_CONTEXT('part definition',#1444,'mechanical');
#1446=PRODUCT('Back Plate','Back Plate',$,(#1445));
#1447=PRESENTATION_STYLE_ASSIGNMENT((#1450));
#1448=PRESENTATION_STYLE_ASSIGNMENT((#1451));
#1449=PRESENTATION_STYLE_ASSIGNMENT((#1452));
#1450=SURFACE_STYLE_USAGE(.BOTH.,#1453);
#1451=SURFACE_STYLE_USAGE(.BOTH.,#1454);
#1452=SURFACE_STYLE_USAGE(.BOTH.,#1455);
#1453=SURFACE_SIDE_STYLE('',(#1456));
#1454=SURFACE_SIDE_STYLE('',(#1457));
#1455=SURFACE_SIDE_STYLE('',(#1458));
#1456=SURFACE_STYLE_FILL_AREA(#1459);
#1457=SURFACE_STYLE_FILL_AREA(#1460);
#1458=SURFACE_STYLE_FILL_AREA(#1461);
#1459=FILL_AREA_STYLE('Steel - Satin',(#1462));
#1460=FILL_AREA_STYLE('Aluminum - Satin',(#1463));
#1461=FILL_AREA_STYLE('Plastic - Matte (Black) (1)',(#1464));
#1462=FILL_AREA_STYLE_COLOUR('Steel - Satin',#1465);
#1463=FILL_AREA_STYLE_COLOUR('Aluminum - Satin',#1466);
#1464=FILL_AREA_STYLE_COLOUR('Plastic - Matte (Black) (1)',#1467);
#1465=COLOUR_RGB('Steel - Satin',0.627450980392157,0.627450980392157,0.627450980392157);
#1466=COLOUR_RGB('Aluminum - Satin',0.96078431372549,0.96078431372549,0.964705882352941);
#1467=COLOUR_RGB('Plastic - Matte (Black) (1)',0.47843137254902,0.474509803921569,
0.474509803921569);
ENDSEC;
END-ISO-10303-21;
