0
SECTION
2
HEADER
9
$INSUNITS
70
4
9
$ACADVER
1
AC1014
9
$HANDSEED
5
FFFF
0
ENDSEC
0
SECTION
2
TABLES
0
TABLE
2
VPORT
5
8
100
AcDbSymbolTable
0
ENDTAB
0
TABLE
2
LTYPE
5
5
100
AcDbSymbolTable
0
LTYPE
5
14
100
AcDbSymbolTableRecord
100
AcDbLinetypeTableRecord
2
BYBLOCK
70
0
0
LTYPE
5
15
100
AcDbSymbolTableRecord
100
AcDbLinetypeTableRecord
2
BYLAYER
70
0
0
ENDTAB
0
TABLE
2
LAYER
5
2
100
AcDbSymbolTable
70
2
0
LAYER
5
50
100
AcDbSymbolTableRecord
100
AcDbLayerTableRecord
2
0
70
0
6
CONTINUOUS
0
ENDTAB
0
TABLE
2
STYLE
5
3
100
AcDbSymbolTable
70
1
0
STYLE
5
11
100
AcDbSymbolTableRecord
100
AcDbTextStyleTableRecord
2
STANDARD
70
0
0
ENDTAB
0
TABLE
2
VIEW
5
6
100
AcDbSymbolTable
70
0
0
ENDTAB
0
TABLE
2
UCS
5
7
100
AcDbSymbolTable
70
0
0
ENDTAB
0
TABLE
2
APPID
5
9
100
AcDbSymbolTable
70
2
0
APPID
5
12
100
AcDbSymbolTableRecord
100
AcDbRegAppTableRecord
2
ACAD
70
0
0
ENDTAB
0
TABLE
2
DIMSTYLE
5
A
100
AcDbSymbolTable
70
1
0
ENDTAB
0
TABLE
2
BLOCK_RECORD
5
1
100
AcDbSymbolTable
70
1
0
BLOCK_RECORD
5
1F
100
AcDbSymbolTableRecord
100
AcDbBlockTableRecord
2
*MODEL_SPACE
0
BLOCK_RECORD
5
1B
100
AcDbSymbolTableRecord
100
AcDbBlockTableRecord
2
*PAPER_SPACE
0
ENDTAB
0
ENDSEC
0
SECTION
2
BLOCKS
0
BLOCK
5
20
100
AcDbEntity
100
AcDbBlockBegin
2
*MODEL_SPACE
0
ENDBLK
5
21
100
AcDbEntity
100
AcDbBlockEnd
0
BLOCK
5
1C
100
AcDbEntity
100
AcDbBlockBegin
2
*PAPER_SPACE
0
ENDBLK
5
1D
100
AcDbEntity
100
AcDbBlockEnd
0
ENDSEC
0
SECTION
2
ENTITIES
0
CIRCLE
5
100
100
AcDbEntity
8
0
100
AcDbCircle
10
-197.99999999999997
20
74.000000000000028
30
0
40
3.1499999999999995
210
0
220
-0
230
1
0
CIRCLE
5
101
100
AcDbEntity
8
0
100
AcDbCircle
10
16
20
-15.000000000000004
30
0
40
3.1499999999999995
210
0
220
-0
230
1
0
CIRCLE
5
102
100
AcDbEntity
8
0
100
AcDbCircle
10
16.000000000000007
20
74.000000000000014
30
0
40
3.1499999999999995
210
0
220
-0
230
1
0
CIRCLE
5
103
100
AcDbEntity
8
0
100
AcDbCircle
10
-197.99999999999997
20
-15.000000000000004
30
0
40
3.1499999999999995
210
0
220
-0
230
1
0
CIRCLE
5
104
100
AcDbEntity
8
0
100
AcDbCircle
10
0
20
0
30
0
40
7.75
210
0
220
-0
230
1
0
CIRCLE
5
105
100
AcDbEntity
8
0
100
AcDbCircle
10
-182
20
37.750000000000014
30
0
40
6.0000000000000142
210
0
220
-0
230
1
0
CIRCLE
5
106
100
AcDbEntity
8
0
100
AcDbCircle
10
-3.7288824377648724e-16
20
68.250000000000014
30
0
40
4.125
210
0
220
-0
230
1
0
CIRCLE
5
107
100
AcDbEntity
8
0
100
AcDbCircle
10
-78
20
68.250000000000014
30
0
40
4.1249999999999964
210
0
220
-0
230
1
0
CIRCLE
5
108
100
AcDbEntity
8
0
100
AcDbCircle
10
2.0816681711721685e-15
20
37.750000000000014
30
0
40
6.0000000000000009
210
0
220
-0
230
1
0
CIRCLE
5
109
100
AcDbEntity
8
0
100
AcDbCircle
10
-26
20
37.750000000000014
30
0
40
6.0000000000000009
210
0
220
-0
230
1
0
CIRCLE
5
110
100
AcDbEntity
8
0
100
AcDbCircle
10
-104
20
68.250000000000014
30
0
40
4.1249999999999964
210
0
220
-0
230
1
0
CIRCLE
5
111
100
AcDbEntity
8
0
100
AcDbCircle
10
-78
20
37.750000000000014
30
0
40
5.9999999999999964
210
0
220
-0
230
1
0
CIRCLE
5
112
100
AcDbEntity
8
0
100
AcDbCircle
10
-182
20
68.250000000000014
30
0
40
4.1250000000000142
210
0
220
-0
230
1
0
CIRCLE
5
113
100
AcDbEntity
8
0
100
AcDbCircle
10
-26
20
68.250000000000014
30
0
40
4.1250000000000009
210
0
220
-0
230
1
0
CIRCLE
5
114
100
AcDbEntity
8
0
100
AcDbCircle
10
-156
20
37.750000000000014
30
0
40
6.0000000000000142
210
0
220
-0
230
1
0
CIRCLE
5
115
100
AcDbEntity
8
0
100
AcDbCircle
10
-52
20
37.750000000000014
30
0
40
6.0000000000000053
210
0
220
-0
230
1
0
CIRCLE
5
116
100
AcDbEntity
8
0
100
AcDbCircle
10
-130
20
37.750000000000014
30
0
40
5.9999999999999964
210
0
220
-0
230
1
0
CIRCLE
5
117
100
AcDbEntity
8
0
100
AcDbCircle
10
-130
20
68.250000000000014
30
0
40
4.1249999999999964
210
0
220
-0
230
1
0
CIRCLE
5
118
100
AcDbEntity
8
0
100
AcDbCircle
10
-66.999999999999957
20
-1.4999999999993385
30
0
40
6.0000000000000142
210
0
220
-0
230
1
0
CIRCLE
5
119
100
AcDbEntity
8
0
100
AcDbCircle
10
-104
20
37.750000000000014
30
0
40
5.9999999999999964
210
0
220
-0
230
1
0
CIRCLE
5
120
100
AcDbEntity
8
0
100
AcDbCircle
10
-156
20
68.250000000000014
30
0
40
4.1250000000000142
210
0
220
-0
230
1
0
CIRCLE
5
121
100
AcDbEntity
8
0
100
AcDbCircle
10
-32
20
0
30
0
40
7.7499999999999991
210
0
220
-0
230
1
0
CIRCLE
5
122
100
AcDbEntity
8
0
100
AcDbCircle
10
-166.99999999999994
20
-1.4999999999993385
30
0
40
6.0000000000000142
210
0
220
-0
230
1
0
CIRCLE
5
123
100
AcDbEntity
8
0
100
AcDbCircle
10
-116.99999999999996
20
-1.4999999999993385
30
0
40
6.0000000000000142
210
0
220
-0
230
1
0
CIRCLE
5
124
100
AcDbEntity
8
0
100
AcDbCircle
10
-52
20
68.250000000000014
30
0
40
4.1249999999999964
210
0
220
-0
230
1
0
LWPOLYLINE
5
125
100
AcDbEntity
8
0
100
AcDbPolyline
90
8
70
1
43
0.0
10
-197.99999999999997
20
-18.999999999999989
42
-0.41421356237309598
10
-201.99999999999994
20
-15
10
-201.99999999999994
20
74.000000000000028
42
-0.4142135623730957
10
-197.99999999999997
20
78.000000000000014
10
16.000000000000014
20
78.000000000000014
42
-0.4142135623730937
10
20.000000000000007
20
74.000000000000028
10
20
20
-15
42
-0.41421356237309437
10
16.000000000000014
20
-19.000000000000004
0
LINE
5
126
100
AcDbEntity
8
0
100
AcDbLine
10
-185.85714268684387
20
7.0001666588789844
30
0
11
-185.61904776096344
21
7.7144523305899524
31
0
0
LINE
5
127
100
AcDbEntity
8
0
100
AcDbLine
10
-185.61904776096344
20
7.7144523305899524
30
0
11
-185.14285731315613
21
8.1906427783972653
31
0
0
LINE
5
128
100
AcDbEntity
8
0
100
AcDbLine
10
-185.14285731315613
20
8.1906427783972653
30
0
11
-184.42857134342194
21
8.4287383003241452
31
0
0
LINE
5
129
100
AcDbEntity
8
0
100
AcDbLine
10
-184.42857134342194
20
8.4287383003241452
30
0
11
-184.1904764175415
21
8.4287383003241434
31
0
0
LINE
5
130
100
AcDbEntity
8
0
100
AcDbLine
10
-184.1904764175415
20
8.4287383003241434
30
0
11
-183.47619044780731
21
8.1906427783972635
31
0
0
LINE
5
131
100
AcDbEntity
8
0
100
AcDbLine
10
-183.47619044780731
20
8.1906427783972635
30
0
11
-183
21
7.7144523305899515
31
0
0
LINE
5
132
100
AcDbEntity
8
0
100
AcDbLine
10
-183
20
7.7144523305899515
30
0
11
-182.76190477609634
21
7.0001666588789835
31
0
0
LINE
5
133
100
AcDbEntity
8
0
100
AcDbLine
10
-182.76190477609634
20
7.0001666588789835
30
0
11
-182.76190477609634
21
6.7620714349753275
31
0
0
LINE
5
134
100
AcDbEntity
8
0
100
AcDbLine
10
-182.76190477609634
20
6.7620714349753275
30
0
11
-183
21
6.0477857632643595
31
0
0
LINE
5
135
100
AcDbEntity
8
0
100
AcDbLine
10
-183
20
6.0477857632643595
30
0
11
-183.47619044780731
21
5.5715953154570474
31
0
0
LINE
5
136
100
AcDbEntity
8
0
100
AcDbLine
10
-183.47619044780731
20
5.5715953154570474
30
0
11
-184.1904764175415
21
5.3335000915533914
31
0
0
LINE
5
137
100
AcDbEntity
8
0
100
AcDbLine
10
-184.1904764175415
20
5.3335000915533914
30
0
11
-184.42857134342199
21
5.3335000915533914
31
0
0
LINE
5
138
100
AcDbEntity
8
0
100
AcDbLine
10
-184.42857134342199
20
5.3335000915533914
30
0
11
-185.14285731315618
21
5.5715953154570474
31
0
0
LINE
5
139
100
AcDbEntity
8
0
100
AcDbLine
10
-185.14285731315618
20
5.5715953154570474
30
0
11
-185.61904776096344
21
6.0477857632643603
31
0
0
LINE
5
140
100
AcDbEntity
8
0
100
AcDbLine
10
-185.61904776096344
20
6.0477857632643603
30
0
11
-185.85714268684387
21
7.0001666588789844
31
0
0
LINE
5
141
100
AcDbEntity
8
0
100
AcDbLine
10
-185.85714268684387
20
7.0001666588789844
30
0
11
-185.85714268684387
21
8.1906427783972653
31
0
0
LINE
5
142
100
AcDbEntity
8
0
100
AcDbLine
10
-185.85714268684387
20
8.1906427783972653
30
0
11
-185.61904776096344
21
9.3811191959387692
31
0
0
LINE
5
143
100
AcDbEntity
8
0
100
AcDbLine
10
-185.61904776096344
20
9.3811191959387692
30
0
11
-185.14285731315613
21
10.095404569626512
31
0
0
LINE
5
144
100
AcDbEntity
8
0
100
AcDbLine
10
-185.14285731315613
20
10.095404569626512
30
0
11
-184.42857134342194
21
10.333500091553391
31
0
0
LINE
5
145
100
AcDbEntity
8
0
100
AcDbLine
10
-184.42857134342194
20
10.333500091553391
30
0
11
-183.9523808956146
21
10.333500091553391
31
0
0
LINE
5
146
100
AcDbEntity
8
0
100
AcDbLine
10
-183.9523808956146
20
10.333500091553391
30
0
11
-183.23809522390363
21
10.095404569626512
31
0
0
LINE
5
147
100
AcDbEntity
8
0
100
AcDbLine
10
-183.23809522390363
20
10.095404569626512
30
0
11
-183
21
9.6192141218191995
31
0
0
CIRCLE
5
148
100
AcDbEntity
8
0
100
AcDbCircle
10
-187.52380955219269
20
5.8096905393607052
30
0
40
0.476190485060215
210
0
220
0
230
1
0
LINE
5
149
100
AcDbEntity
8
0
100
AcDbLine
10
-180.85714305937296
20
-4.0000004215233975
30
0
11
-183.47619074583059
21
-4.0000004215233957
31
0
0
LINE
5
150
100
AcDbEntity
8
0
100
AcDbLine
10
-183.47619074583059
20
-4.0000004215233957
30
0
11
-182.04761925339699
21
-2.0952386302941481
31
0
0
LINE
5
151
100
AcDbEntity
8
0
100
AcDbLine
10
-182.04761925339699
20
-2.0952386302941481
30
0
11
-182.76190507411962
21
-2.0952386302941477
31
0
0
LINE
5
152
100
AcDbEntity
8
0
100
AcDbLine
10
-182.76190507411962
20
-2.0952386302941477
30
0
11
-183.23809552192694
21
-1.8571434063904908
31
0
0
LINE
5
153
100
AcDbEntity
8
0
100
AcDbLine
10
-183.23809552192694
20
-1.8571434063904908
30
0
11
-183.47619074583059
21
-1.619048182486835
31
0
0
LINE
5
154
100
AcDbEntity
8
0
100
AcDbLine
10
-183.47619074583059
20
-1.619048182486835
30
0
11
-183.71428596973425
21
-0.90476221275264246
31
0
0
LINE
5
155
100
AcDbEntity
8
0
100
AcDbLine
10
-183.71428596973425
20
-0.90476221275264246
30
0
11
-183.71428596973419
21
-0.42857176494533022
31
0
0
LINE
5
156
100
AcDbEntity
8
0
100
AcDbLine
10
-183.71428596973419
20
-0.42857176494533022
30
0
11
-183.47619074583054
21
0.28571360874241364
31
0
0
LINE
5
157
100
AcDbEntity
8
0
100
AcDbLine
10
-183.47619074583054
20
0.28571360874241364
30
0
11
-183.00000029802322
21
0.76190405654972437
31
0
0
LINE
5
158
100
AcDbEntity
8
0
100
AcDbLine
10
-183.00000029802322
20
0.76190405654972437
30
0
11
-182.28571462631226
21
0.99999957847660415
31
0
0
LINE
5
159
100
AcDbEntity
8
0
100
AcDbLine
10
-182.28571462631226
20
0.99999957847660415
30
0
11
-181.57142880558968
21
0.99999957847660292
31
0
0
LINE
5
160
100
AcDbEntity
8
0
100
AcDbLine
10
-181.57142880558968
20
0.99999957847660292
30
0
11
-180.8571430593729
21
0.76190405654972315
31
0
0
LINE
5
161
100
AcDbEntity
8
0
100
AcDbLine
10
-180.8571430593729
20
0.76190405654972315
30
0
11
-180.61904783546925
21
0.52380913066929025
31
0
0
LINE
5
162
100
AcDbEntity
8
0
100
AcDbLine
10
-180.61904783546925
20
0.52380913066929025
30
0
11
-180.38095261156559
21
0.047618682861978248
31
0
0
LWPOLYLINE
5
163
100
AcDbEntity
8
0
100
AcDbPolyline
90
16
70
1
43
0.0
10
-185.85714328289038
20
-3.7619051976197366
10
-186.57142865657812
20
-4.0000004215233922
10
-187.04761910438543
20
-4.0000004215233913
10
-187.76190507411962
20
-3.7619051976197353
10
-188.23809552192694
20
-3.0476195259087668
10
-188.47619104385376
20
-1.8571434063904868
10
-188.47619104385376
20
-1.1428577346795186
10
-188.23809552192688
20
0.047618682861985534
10
-187.76190507411957
20
0.7619040565497287
10
-187.04761910438538
20
0.99999957847660847
10
-186.57142865657806
20
0.99999957847660748
10
-185.85714328289032
20
0.76190405654972748
10
-185.38095253705978
20
0.047618682861983175
10
-185.14285731315618
20
-1.1428577346795215
10
-185.14285731315618
20
-1.8571434063904892
10
-185.38095253705984
20
-3.0476195259087695
0
CIRCLE
5
164
100
AcDbEntity
8
0
100
AcDbCircle
10
-189.90476238727575
20
-3.5238099737160771
30
0
40
0.476190485060215
210
0
220
0
230
1
0
LINE
5
165
100
AcDbEntity
8
0
100
AcDbLine
10
-183.47619074583042
20
-11.666833341121022
30
0
11
-183.23809552192677
21
-10.952547669410054
31
0
0
LINE
5
166
100
AcDbEntity
8
0
100
AcDbLine
10
-183.23809552192677
20
-10.952547669410054
30
0
11
-182.76190507411945
21
-10.476357221602742
31
0
0
LINE
5
167
100
AcDbEntity
8
0
100
AcDbLine
10
-182.76190507411945
20
-10.476357221602742
30
0
11
-182.04761925339685
21
-10.238261699675862
31
0
0
LINE
5
168
100
AcDbEntity
8
0
100
AcDbLine
10
-182.04761925339685
20
-10.238261699675862
30
0
11
-181.80952402949319
21
-10.238261699675864
31
0
0
LINE
5
169
100
AcDbEntity
8
0
100
AcDbLine
10
-181.80952402949319
20
-10.238261699675864
30
0
11
-181.09523835778222
21
-10.476357221602743
31
0
0
LINE
5
170
100
AcDbEntity
8
0
100
AcDbLine
10
-181.09523835778222
20
-10.476357221602743
30
0
11
-180.6190478354691
21
-10.952547669410055
31
0
0
LINE
5
171
100
AcDbEntity
8
0
100
AcDbLine
10
-180.6190478354691
20
-10.952547669410055
30
0
11
-180.38095261156548
21
-11.666833341121023
31
0
0
LINE
5
172
100
AcDbEntity
8
0
100
AcDbLine
10
-180.38095261156548
20
-11.666833341121023
30
0
11
-180.38095261156548
21
-11.904928565024679
31
0
0
LINE
5
173
100
AcDbEntity
8
0
100
AcDbLine
10
-180.38095261156548
20
-11.904928565024679
30
0
11
-180.61904783546913
21
-12.619214236735647
31
0
0
LINE
5
174
100
AcDbEntity
8
0
100
AcDbLine
10
-180.61904783546913
20
-12.619214236735647
30
0
11
-181.09523835778225
21
-13.095404684542959
31
0
0
LINE
5
175
100
AcDbEntity
8
0
100
AcDbLine
10
-181.09523835778225
20
-13.095404684542959
30
0
11
-181.80952402949322
21
-13.333499908446615
31
0
0
LINE
5
176
100
AcDbEntity
8
0
100
AcDbLine
10
-181.80952402949322
20
-13.333499908446615
30
0
11
-182.04761925339687
21
-13.333499908446615
31
0
0
LINE
5
177
100
AcDbEntity
8
0
100
AcDbLine
10
-182.04761925339687
20
-13.333499908446615
30
0
11
-182.76190507411945
21
-13.095404684542958
31
0
0
LINE
5
178
100
AcDbEntity
8
0
100
AcDbLine
10
-182.76190507411945
20
-13.095404684542958
30
0
11
-183.23809552192677
21
-12.619214236735646
31
0
0
LINE
5
179
100
AcDbEntity
8
0
100
AcDbLine
10
-183.23809552192677
20
-12.619214236735646
30
0
11
-183.47619074583042
21
-11.666833341121022
31
0
0
LINE
5
180
100
AcDbEntity
8
0
100
AcDbLine
10
-183.47619074583042
20
-11.666833341121022
30
0
11
-183.47619074583042
21
-10.476357221602742
31
0
0
LINE
5
181
100
AcDbEntity
8
0
100
AcDbLine
10
-183.47619074583042
20
-10.476357221602742
30
0
11
-183.23809552192674
21
-9.2858808040612377
31
0
0
LINE
5
182
100
AcDbEntity
8
0
100
AcDbLine
10
-183.23809552192674
20
-9.2858808040612377
30
0
11
-182.76190507411943
21
-8.5715954303734936
31
0
0
LINE
5
183
100
AcDbEntity
8
0
100
AcDbLine
10
-182.76190507411943
20
-8.5715954303734936
30
0
11
-182.04761925339685
21
-8.3334999084466137
31
0
0
LINE
5
184
100
AcDbEntity
8
0
100
AcDbLine
10
-182.04761925339685
20
-8.3334999084466137
30
0
11
-181.57142880558953
21
-8.3334999084466137
31
0
0
LINE
5
185
100
AcDbEntity
8
0
100
AcDbLine
10
-181.57142880558953
20
-8.3334999084466137
30
0
11
-180.85714305937276
21
-8.5715954303734954
31
0
0
LINE
5
186
100
AcDbEntity
8
0
100
AcDbLine
10
-180.85714305937276
20
-8.5715954303734954
30
0
11
-180.6190478354691
21
-9.0477858781808074
31
0
0
LWPOLYLINE
5
187
100
AcDbEntity
8
0
100
AcDbPolyline
90
16
70
1
43
0.0
10
-185.85714328289021
20
-13.095404684542956
10
-186.57142865657795
20
-13.333499908446612
10
-187.04761910438526
20
-13.333499908446608
10
-187.76190507411945
20
-13.095404684542952
10
-188.23809552192677
20
-12.381119012831984
10
-188.47619104385362
20
-11.190642893313704
10
-188.47619104385362
20
-10.476357221602736
10
-188.23809552192674
20
-9.2858808040612324
10
-187.76190507411943
20
-8.5715954303734883
10
-187.04761910438523
20
-8.3334999084466101
10
-186.57142865657792
20
-8.3334999084466101
10
-185.85714328289018
20
-8.5715954303734918
10
-185.38095253705964
20
-9.2858808040612359
10
-185.14285731315601
20
-10.47635722160274
10
-185.14285731315601
20
-11.190642893313708
10
-185.38095253705967
20
-12.381119012831988
0
CIRCLE
5
188
100
AcDbEntity
8
0
100
AcDbCircle
10
-189.90476238727558
20
-12.857309460639295
30
0
40
0.476190485060215
210
0
220
0
230
1
0
LINE
5
189
100
AcDbEntity
8
0
100
AcDbLine
10
-131.30952353775496
20
5.3335000915534083
30
0
11
-131.3095235377549
21
10.333500091553409
31
0
0
LINE
5
190
100
AcDbEntity
8
0
100
AcDbLine
10
-131.30952353775496
20
5.3335000915534083
30
0
11
-133.45238077640528
21
5.3335000915534057
31
0
0
LINE
5
191
100
AcDbEntity
8
0
100
AcDbLine
10
-133.45238077640528
20
5.3335000915534057
30
0
11
-134.16666644811625
21
5.5715953154570617
31
0
0
LINE
5
192
100
AcDbEntity
8
0
100
AcDbLine
10
-134.16666644811625
20
5.5715953154570617
30
0
11
-134.4047616720199
21
5.8096905393607177
31
0
0
LINE
5
193
100
AcDbEntity
8
0
100
AcDbLine
10
-134.4047616720199
20
5.8096905393607177
30
0
11
-134.64285689592356
21
6.2858809871680288
31
0
0
LINE
5
194
100
AcDbEntity
8
0
100
AcDbLine
10
-134.64285689592356
20
6.2858809871680288
30
0
11
-134.64285689592356
21
6.7620714349753408
31
0
0
LINE
5
195
100
AcDbEntity
8
0
100
AcDbLine
10
-134.64285689592356
20
6.7620714349753408
30
0
11
-134.40476167201987
21
7.2382618827826528
31
0
0
LINE
5
196
100
AcDbEntity
8
0
100
AcDbLine
10
-134.40476167201987
20
7.2382618827826528
30
0
11
-134.16666644811622
21
7.4763571066863088
31
0
0
LINE
5
197
100
AcDbEntity
8
0
100
AcDbLine
10
-134.16666644811622
20
7.4763571066863088
30
0
11
-133.45238077640525
21
7.7144523305899675
31
0
0
LINE
5
198
100
AcDbEntity
8
0
100
AcDbLine
10
-133.45238077640525
20
7.7144523305899675
30
0
11
-131.30952353775493
21
7.7144523305899693
31
0
0
LINE
5
199
100
AcDbEntity
8
0
100
AcDbLine
10
-132.97619032859794
20
7.7144523305899675
30
0
11
-134.6428568959235
21
10.333500091553404
31
0
0
LINE
5
200
100
AcDbEntity
8
0
100
AcDbLine
10
-135.59523808956141
20
5.3335000915534048
30
0
11
-137.4999998807906
21
10.333500091553402
31
0
0
LINE
5
201
100
AcDbEntity
8
0
100
AcDbLine
10
-139.4047616720199
20
5.3335000915534003
30
0
11
-137.4999998807906
21
10.333500091553402
31
0
0
LINE
5
202
100
AcDbEntity
8
0
100
AcDbLine
10
-140.59523868560785
20
5.3335000915533994
30
0
11
-140.5952386856078
21
10.3335000915534
31
0
0
LINE
5
203
100
AcDbEntity
8
0
100
AcDbLine
10
-140.59523868560785
20
5.3335000915533994
30
0
11
-142.73809480667109
21
5.3335000915533968
31
0
0
LINE
5
204
100
AcDbEntity
8
0
100
AcDbLine
10
-142.73809480667109
20
5.3335000915533968
30
0
11
-143.45238137245173
21
5.5715953154570528
31
0
0
LINE
5
205
100
AcDbEntity
8
0
100
AcDbLine
10
-143.45238137245173
20
5.5715953154570528
30
0
11
-143.69047689437861
21
5.8096905393607088
31
0
0
LINE
5
206
100
AcDbEntity
8
0
100
AcDbLine
10
-143.69047689437861
20
5.8096905393607088
30
0
11
-143.92857122421259
21
6.2858809871680199
31
0
0
LINE
5
207
100
AcDbEntity
8
0
100
AcDbLine
10
-143.92857122421259
20
6.2858809871680199
30
0
11
-143.92857122421259
21
6.7620714349753319
31
0
0
LINE
5
208
100
AcDbEntity
8
0
100
AcDbLine
10
-143.92857122421259
20
6.7620714349753319
30
0
11
-143.69047689437861
21
7.2382618827826439
31
0
0
LINE
5
209
100
AcDbEntity
8
0
100
AcDbLine
10
-143.69047689437861
20
7.2382618827826439
30
0
11
-143.4523813724517
21
7.4763571066862999
31
0
0
LINE
5
210
100
AcDbEntity
8
0
100
AcDbLine
10
-143.4523813724517
20
7.4763571066862999
30
0
11
-142.73809480667106
21
7.7144523305899586
31
0
0
LINE
5
211
100
AcDbEntity
8
0
100
AcDbLine
10
-142.73809480667106
20
7.7144523305899586
30
0
11
-140.59523868560782
21
7.7144523305899604
31
0
0
LINE
5
212
100
AcDbEntity
8
0
100
AcDbLine
10
-142.26190495491019
20
7.7144523305899586
30
0
11
-143.92857122421253
21
10.333500091553397
31
0
0
LINE
5
213
100
AcDbEntity
8
0
100
AcDbLine
10
-131.30952353775501
20
-4.0000004215233806
30
0
11
-131.30952353775498
21
0.99999957847661913
31
0
0
LINE
5
214
100
AcDbEntity
8
0
100
AcDbLine
10
-131.30952353775501
20
-4.0000004215233806
30
0
11
-133.45238077640533
21
-4.0000004215233833
31
0
0
LINE
5
215
100
AcDbEntity
8
0
100
AcDbLine
10
-133.45238077640533
20
-4.0000004215233833
30
0
11
-134.1666664481163
21
-3.7619051976197282
31
0
0
LINE
5
216
100
AcDbEntity
8
0
100
AcDbLine
10
-134.1666664481163
20
-3.7619051976197282
30
0
11
-134.40476167201996
21
-3.5238099737160726
31
0
0
LINE
5
217
100
AcDbEntity
8
0
100
AcDbLine
10
-134.40476167201996
20
-3.5238099737160726
30
0
11
-134.64285689592361
21
-3.0476195259087611
31
0
0
LINE
5
218
100
AcDbEntity
8
0
100
AcDbLine
10
-134.64285689592361
20
-3.0476195259087611
30
0
11
-134.64285689592361
21
-2.3333338541977926
31
0
0
LINE
5
219
100
AcDbEntity
8
0
100
AcDbLine
10
-134.64285689592361
20
-2.3333338541977926
30
0
11
-134.40476167201996
21
-1.8571434063904804
31
0
0
LINE
5
220
100
AcDbEntity
8
0
100
AcDbLine
10
-134.40476167201996
20
-1.8571434063904804
30
0
11
-134.1666664481163
21
-1.6190481824868244
31
0
0
LINE
5
221
100
AcDbEntity
8
0
100
AcDbLine
10
-134.1666664481163
20
-1.6190481824868244
30
0
11
-133.45238077640533
21
-1.3809526605599434
31
0
0
LINE
5
222
100
AcDbEntity
8
0
100
AcDbLine
10
-133.45238077640533
20
-1.3809526605599434
30
0
11
-131.30952353775501
21
-1.3809526605599409
31
0
0
LINE
5
223
100
AcDbEntity
8
0
100
AcDbLine
10
-136.30952346324921
20
-4.0000004215233878
30
0
11
-136.30952346324918
21
0.99999957847661247
31
0
0
LINE
5
224
100
AcDbEntity
8
0
100
AcDbLine
10
-136.30952346324918
20
0.99999957847661247
30
0
11
-139.1666667461395
21
0.99999957847660892
31
0
0
LINE
5
225
100
AcDbEntity
8
0
100
AcDbLine
10
-140.35714256763458
20
-4.0000004215233922
30
0
11
-140.35714256763455
21
0.99999957847660803
31
0
0
LINE
5
226
100
AcDbEntity
8
0
100
AcDbLine
10
-140.35714256763458
20
-4.0000004215233922
30
0
11
-143.69047570228574
21
0.99999957847660359
31
0
0
LINE
5
227
100
AcDbEntity
8
0
100
AcDbLine
10
-143.69047570228577
20
-4.0000004215233966
30
0
11
-143.69047570228574
21
0.99999957847660359
31
0
0
LINE
5
228
100
AcDbEntity
8
0
100
AcDbLine
10
-131.54761905968189
20
-13.333499908446598
30
0
11
-131.54761905968186
21
-8.3334999084465977
31
0
0
LINE
5
229
100
AcDbEntity
8
0
100
AcDbLine
10
-131.54761905968189
20
-13.333499908446598
30
0
11
-133.69047629833221
21
-13.333499908446599
31
0
0
LINE
5
230
100
AcDbEntity
8
0
100
AcDbLine
10
-133.69047629833221
20
-13.333499908446599
30
0
11
-134.40476197004318
21
-13.095404684542943
31
0
0
LINE
5
231
100
AcDbEntity
8
0
100
AcDbLine
10
-134.40476197004318
20
-13.095404684542943
30
0
11
-134.64285719394684
21
-12.857309460639287
31
0
0
LINE
5
232
100
AcDbEntity
8
0
100
AcDbLine
10
-134.64285719394684
20
-12.857309460639287
30
0
11
-134.88095241785049
21
-12.381119012831975
31
0
0
LINE
5
233
100
AcDbEntity
8
0
100
AcDbLine
10
-134.88095241785049
20
-12.381119012831975
30
0
11
-134.88095241785049
21
-11.904928565024663
31
0
0
LINE
5
234
100
AcDbEntity
8
0
100
AcDbLine
10
-134.88095241785049
20
-11.904928565024663
30
0
11
-134.64285719394684
21
-11.428738117217351
31
0
0
LINE
5
235
100
AcDbEntity
8
0
100
AcDbLine
10
-134.64285719394684
20
-11.428738117217351
30
0
11
-134.40476197004318
21
-11.190642893313695
31
0
0
LINE
5
236
100
AcDbEntity
8
0
100
AcDbLine
10
-134.40476197004318
20
-11.190642893313695
30
0
11
-133.69047629833221
21
-10.952547669410039
31
0
0
LINE
5
237
100
AcDbEntity
8
0
100
AcDbLine
10
-133.69047629833221
20
-10.952547669410039
30
0
11
-131.54761905968189
21
-10.952547669410038
31
0
0
LINE
5
238
100
AcDbEntity
8
0
100
AcDbLine
10
-133.2142858505249
20
-10.952547669410039
30
0
11
-134.88095241785047
21
-8.3334999084466013
31
0
0
LINE
5
239
100
AcDbEntity
8
0
100
AcDbLine
10
-136.54761898517609
20
-13.333499908446601
30
0
11
-136.54761898517606
21
-8.3334999084466013
31
0
0
LINE
5
240
100
AcDbEntity
8
0
100
AcDbLine
10
-139.88095211982727
20
-13.333499908446605
30
0
11
-136.54761898517609
21
-10.000166773795417
31
0
0
LINE
5
241
100
AcDbEntity
8
0
100
AcDbLine
10
-137.73809540271759
20
-11.190642893313697
30
0
11
-139.88095211982724
21
-8.333499908446603
31
0
0
LINE
5
242
100
AcDbEntity
8
0
100
AcDbLine
10
-142.50000047683716
20
-13.333499908446605
30
0
11
-142.50000047683713
21
-8.3334999084466048
31
0
0
LINE
5
243
100
AcDbEntity
8
0
100
AcDbLine
10
-140.83333420753479
20
-13.333499908446605
30
0
11
-144.16666793823242
21
-13.333499908446607
31
0
0
LINE
5
244
100
AcDbEntity
8
0
100
AcDbLine
10
-83.095238089561491
20
5.3335000915534092
30
0
11
-83.095238089561434
21
10.333500091553409
31
0
0
LINE
5
245
100
AcDbEntity
8
0
100
AcDbLine
10
-81.428571522235899
20
5.3335000915534101
30
0
11
-84.761904954910307
21
5.3335000915534074
31
0
0
LINE
5
246
100
AcDbEntity
8
0
100
AcDbLine
10
-89.285714507102966
20
6.5239762110716812
30
0
11
-89.047619581222534
21
6.0477857632643692
31
0
0
LINE
5
247
100
AcDbEntity
8
0
100
AcDbLine
10
-89.047619581222534
20
6.0477857632643692
30
0
11
-88.571428537368774
21
5.5715953154570581
31
0
0
LINE
5
248
100
AcDbEntity
8
0
100
AcDbLine
10
-88.571428537368774
20
5.5715953154570581
30
0
11
-88.095238685607939
21
5.3335000915534021
31
0
0
LINE
5
249
100
AcDbEntity
8
0
100
AcDbLine
10
-88.095238685607939
20
5.3335000915534021
30
0
11
-87.142857193946867
21
5.3335000915534039
31
0
0
LINE
5
250
100
AcDbEntity
8
0
100
AcDbLine
10
-87.142857193946867
20
5.3335000915534039
30
0
11
-86.666666746139555
21
5.5715953154570599
31
0
0
LINE
5
251
100
AcDbEntity
8
0
100
AcDbLine
10
-86.666666746139555
20
5.5715953154570599
30
0
11
-86.190476298332243
21
6.0477857632643728
31
0
0
LINE
5
252
100
AcDbEntity
8
0
100
AcDbLine
10
-86.190476298332243
20
6.0477857632643728
30
0
11
-85.952381372451782
21
6.5239762110716848
31
0
0
LINE
5
253
100
AcDbEntity
8
0
100
AcDbLine
10
-85.952381372451782
20
6.5239762110716848
30
0
11
-85.714285850524902
21
7.2382618827826528
31
0
0
LINE
5
254
100
AcDbEntity
8
0
100
AcDbLine
10
-85.714285850524902
20
7.2382618827826528
30
0
11
-85.714285850524888
21
8.4287383003241576
31
0
0
LINE
5
255
100
AcDbEntity
8
0
100
AcDbLine
10
-85.714285850524888
20
8.4287383003241576
30
0
11
-85.952381372451768
21
9.1430236740119017
31
0
0
LINE
5
256
100
AcDbEntity
8
0
100
AcDbLine
10
-85.952381372451768
20
9.1430236740119017
30
0
11
-86.1904762983322
21
9.6192141218192138
31
0
0
LINE
5
257
100
AcDbEntity
8
0
100
AcDbLine
10
-86.1904762983322
20
9.6192141218192138
30
0
11
-86.666666746139512
21
10.095404569626524
31
0
0
LINE
5
258
100
AcDbEntity
8
0
100
AcDbLine
10
-86.666666746139512
20
10.095404569626524
30
0
11
-87.14285719394681
21
10.333500091553404
31
0
0
LINE
5
259
100
AcDbEntity
8
0
100
AcDbLine
10
-87.14285719394681
20
10.333500091553404
30
0
11
-88.095238685607882
21
10.333500091553404
31
0
0
LINE
5
260
100
AcDbEntity
8
0
100
AcDbLine
10
-88.095238685607882
20
10.333500091553404
30
0
11
-88.571428537368746
21
10.095404569626522
31
0
0
LINE
5
261
100
AcDbEntity
8
0
100
AcDbLine
10
-88.571428537368746
20
10.095404569626522
30
0
11
-89.047619581222506
21
9.6192141218192102
31
0
0
LINE
5
262
100
AcDbEntity
8
0
100
AcDbLine
10
-89.047619581222506
20
9.6192141218192102
30
0
11
-89.285714507102952
21
9.1430236740118982
31
0
0
LINE
5
263
100
AcDbEntity
8
0
100
AcDbLine
10
-89.285714507102952
20
9.1430236740118982
30
0
11
-89.285714507102952
21
8.4287383003241541
31
0
0
LINE
5
264
100
AcDbEntity
8
0
100
AcDbLine
10
-88.095238685607896
20
8.4287383003241541
30
0
11
-89.285714507102952
21
8.4287383003241541
31
0
0
LINE
5
265
100
AcDbEntity
8
0
100
AcDbLine
10
-91.904762268066435
20
5.3335000915533985
30
0
11
-91.904762268066378
21
10.333500091553399
31
0
0
LINE
5
266
100
AcDbEntity
8
0
100
AcDbLine
10
-90.238095402717619
20
5.3335000915534003
30
0
11
-93.571428537368803
21
5.3335000915533968
31
0
0
LWPOLYLINE
5
267
100
AcDbEntity
8
0
100
AcDbPolyline
90
20
70
1
43
0.0
10
-81.547618836164503
20
-3.7619051976197166
10
-82.023809283971815
20
-4.0000004215233727
10
-82.976190328598051
20
-4.0000004215233735
10
-83.452380776405334
20
-3.7619051976197189
10
-83.928571224212646
20
-3.2857147498124073
10
-84.166666448116302
20
-2.8095243020050953
10
-84.404761672019958
20
-2.0952386302941273
10
-84.404761672019944
20
-0.90476221275262358
10
-84.166666448116288
20
-0.1904768390648795
10
-83.928571224212618
20
0.28571360874243329
10
-83.452380776405306
20
0.76190405654974536
10
-82.976190328597994
20
0.99999957847662568
10
-82.023809283971758
20
0.99999957847662746
10
-81.54761883616446
20
0.76190405654974758
10
-81.071428313851342
20
0.28571360874243695
10
-80.833333089947686
20
-0.19047683906487506
10
-80.59523786604403
20
-0.90476221275261892
10
-80.595237866044044
20
-2.0952386302941233
10
-80.833333089947701
20
-2.8095243020050908
10
-81.071428313851385
20
-3.2857147498124033
0
LINE
5
268
100
AcDbEntity
8
0
100
AcDbLine
10
-86.071428537368803
20
-4.000000421523378
30
0
11
-86.071428537368746
21
0.99999957847662246
31
0
0
LINE
5
269
100
AcDbEntity
8
0
100
AcDbLine
10
-86.071428537368803
20
-4.000000421523378
30
0
11
-88.214285850524931
21
-4.0000004215233806
31
0
0
LINE
5
270
100
AcDbEntity
8
0
100
AcDbLine
10
-88.214285850524931
20
-4.0000004215233806
30
0
11
-88.928571224212675
21
-3.761905197619726
31
0
0
LINE
5
271
100
AcDbEntity
8
0
100
AcDbLine
10
-88.928571224212675
20
-3.761905197619726
30
0
11
-89.166666746139555
21
-3.5238099737160704
31
0
0
LINE
5
272
100
AcDbEntity
8
0
100
AcDbLine
10
-89.166666746139555
20
-3.5238099737160704
30
0
11
-89.404762268066435
21
-3.047619525908758
31
0
0
LINE
5
273
100
AcDbEntity
8
0
100
AcDbLine
10
-89.404762268066435
20
-3.047619525908758
30
0
11
-89.404762268066406
21
-2.5714290781014459
31
0
0
LINE
5
274
100
AcDbEntity
8
0
100
AcDbLine
10
-89.404762268066406
20
-2.5714290781014459
30
0
11
-89.166666746139526
21
-2.0952386302941335
31
0
0
LINE
5
275
100
AcDbEntity
8
0
100
AcDbLine
10
-89.166666746139526
20
-2.0952386302941335
30
0
11
-88.928571224212646
21
-1.8571434063904777
31
0
0
LINE
5
276
100
AcDbEntity
8
0
100
AcDbLine
10
-88.928571224212646
20
-1.8571434063904777
30
0
11
-88.214285850524902
21
-1.6190481824868206
31
0
0
LINE
5
277
100
AcDbEntity
8
0
100
AcDbLine
10
-88.214285850524902
20
-1.6190481824868206
30
0
11
-86.071428537368774
21
-1.6190481824868179
31
0
0
LINE
5
278
100
AcDbEntity
8
0
100
AcDbLine
10
-87.73809540271759
20
-1.6190481824868201
30
0
11
-89.404762268066392
21
0.99999957847661747
31
0
0
LWPOLYLINE
5
279
100
AcDbEntity
8
0
100
AcDbPolyline
90
17
70
1
43
0.0
10
-91.071428537368746
20
0.9999995784766158
10
-91.071428537368803
20
-4.0000004215233842
10
-93.214285850524931
20
-4.0000004215233869
10
-93.928571224212675
20
-3.7619051976197322
10
-94.166666746139555
20
-3.5238099737160762
10
-94.404762268066435
20
-3.0476195259087646
10
-94.404762268066406
20
-2.5714290781014526
10
-94.166666746139526
20
-2.0952386302941401
10
-93.928571224212646
20
-1.8571434063904837
10
-93.214285850524902
20
-1.6190481824868272
10
-93.928571224212646
20
-1.3809526605599478
10
-94.166666746139512
20
-1.1428577346795163
10
-94.404762268066392
20
-0.66666728687220478
10
-94.404762268066392
20
0.047618682861987338
10
-94.166666746139512
20
0.52380913066929957
10
-93.928571224212618
20
0.7619040565497317
10
-93.214285850524874
20
0.99999957847661336
0
LINE
5
280
100
AcDbEntity
8
0
100
AcDbLine
10
-91.071428537368774
20
-1.6190481824868241
30
0
11
-93.214285850524902
21
-1.6190481824868272
31
0
0
LINE
5
281
100
AcDbEntity
8
0
100
AcDbLine
10
-84.523809432983484
20
-12.619214236735633
30
0
11
-84.047618985176172
21
-13.095404684542945
31
0
0
LINE
5
282
100
AcDbEntity
8
0
100
AcDbLine
10
-84.047618985176172
20
-13.095404684542945
30
0
11
-83.333333313465218
21
-13.333499908446599
31
0
0
LINE
5
283
100
AcDbEntity
8
0
100
AcDbLine
10
-83.333333313465218
20
-13.333499908446599
30
0
11
-82.380952268838982
21
-13.333499908446599
31
0
0
LINE
5
284
100
AcDbEntity
8
0
100
AcDbLine
10
-82.380952268838982
20
-13.333499908446599
30
0
11
-81.666666522622208
21
-13.095404684542943
31
0
0
LINE
5
285
100
AcDbEntity
8
0
100
AcDbLine
10
-81.666666522622208
20
-13.095404684542943
30
0
11
-81.190476074814896
21
-12.61921423673563
31
0
0
LINE
5
286
100
AcDbEntity
8
0
100
AcDbLine
10
-81.190476074814896
20
-12.61921423673563
30
0
11
-81.190476074814882
21
-12.143023788928318
31
0
0
LINE
5
287
100
AcDbEntity
8
0
100
AcDbLine
10
-81.190476074814882
20
-12.143023788928318
30
0
11
-81.428571298718538
21
-11.666833341121006
31
0
0
LINE
5
288
100
AcDbEntity
8
0
100
AcDbLine
10
-81.428571298718538
20
-11.666833341121006
30
0
11
-81.666666522622194
21
-11.42873811721735
31
0
0
LINE
5
289
100
AcDbEntity
8
0
100
AcDbLine
10
-81.666666522622194
20
-11.42873811721735
30
0
11
-82.142857044935312
21
-11.190642893313694
31
0
0
LINE
5
290
100
AcDbEntity
8
0
100
AcDbLine
10
-82.142857044935312
20
-11.190642893313694
30
0
11
-83.57142853736886
21
-10.71445214748316
31
0
0
LINE
5
291
100
AcDbEntity
8
0
100
AcDbLine
10
-83.57142853736886
20
-10.71445214748316
30
0
11
-84.047618985176143
21
-10.476357221602727
31
0
0
LINE
5
292
100
AcDbEntity
8
0
100
AcDbLine
10
-84.047618985176143
20
-10.476357221602727
30
0
11
-84.285714209079799
21
-10.238261699675849
31
0
0
LINE
5
293
100
AcDbEntity
8
0
100
AcDbLine
10
-84.285714209079799
20
-10.238261699675849
30
0
11
-84.523809432983455
21
-9.7620712518685373
31
0
0
LINE
5
294
100
AcDbEntity
8
0
100
AcDbLine
10
-84.523809432983455
20
-9.7620712518685373
30
0
11
-84.523809432983455
21
-9.0477858781807932
31
0
0
LINE
5
295
100
AcDbEntity
8
0
100
AcDbLine
10
-84.523809432983455
20
-9.0477858781807932
30
0
11
-84.047618985176129
21
-8.5715954303734812
31
0
0
LINE
5
296
100
AcDbEntity
8
0
100
AcDbLine
10
-84.047618985176129
20
-8.5715954303734812
30
0
11
-83.333333313465161
21
-8.3334999084466013
31
0
0
LINE
5
297
100
AcDbEntity
8
0
100
AcDbLine
10
-83.333333313465161
20
-8.3334999084466013
30
0
11
-82.380952268838925
21
-8.3334999084465995
31
0
0
LINE
5
298
100
AcDbEntity
8
0
100
AcDbLine
10
-82.380952268838925
20
-8.3334999084465995
30
0
11
-81.666666522622151
21
-8.5715954303734794
31
0
0
LINE
5
299
100
AcDbEntity
8
0
100
AcDbLine
10
-81.666666522622151
20
-8.5715954303734794
30
0
11
-81.190476074814839
21
-9.0477858781807914
31
0
0
LINE
5
300
100
AcDbEntity
8
0
100
AcDbLine
10
-86.190476298332314
20
-13.333499908446601
30
0
11
-86.190476298332257
21
-8.3334999084466013
31
0
0
LINE
5
301
100
AcDbEntity
8
0
100
AcDbLine
10
-86.190476298332314
20
-13.333499908446601
30
0
11
-89.285713911056618
21
-13.333499908446605
31
0
0
LINE
5
302
100
AcDbEntity
8
0
100
AcDbLine
10
-86.1904762983323
20
-10.952547669410041
30
0
11
-88.095238089561548
21
-10.952547669410045
31
0
0
LINE
5
303
100
AcDbEntity
8
0
100
AcDbLine
10
-93.80952405929574
20
-12.143023788928327
30
0
11
-93.57142853736886
21
-12.619214236735639
31
0
0
LINE
5
304
100
AcDbEntity
8
0
100
AcDbLine
10
-93.57142853736886
20
-12.619214236735639
30
0
11
-93.095238685607995
21
-13.095404684542951
31
0
0
LINE
5
305
100
AcDbEntity
8
0
100
AcDbLine
10
-93.095238685607995
20
-13.095404684542951
30
0
11
-92.61904764175425
21
-13.333499908446607
31
0
0
LINE
5
306
100
AcDbEntity
8
0
100
AcDbLine
10
-92.61904764175425
20
-13.333499908446607
30
0
11
-91.666666746139626
21
-13.333499908446607
31
0
0
LINE
5
307
100
AcDbEntity
8
0
100
AcDbLine
10
-91.666666746139626
20
-13.333499908446607
30
0
11
-91.190475702285866
21
-13.095404684542949
31
0
0
LINE
5
308
100
AcDbEntity
8
0
100
AcDbLine
10
-91.190475702285866
20
-13.095404684542949
30
0
11
-90.714285850525002
21
-12.619214236735637
31
0
0
LINE
5
309
100
AcDbEntity
8
0
100
AcDbLine
10
-90.714285850525002
20
-12.619214236735637
30
0
11
-90.476190328598108
21
-12.143023788928325
31
0
0
LINE
5
310
100
AcDbEntity
8
0
100
AcDbLine
10
-90.476190328598108
20
-12.143023788928325
30
0
11
-90.238095402717676
21
-11.428738117217357
31
0
0
LINE
5
311
100
AcDbEntity
8
0
100
AcDbLine
10
-90.238095402717676
20
-11.428738117217357
30
0
11
-90.238095402717647
21
-10.238261699675853
31
0
0
LINE
5
312
100
AcDbEntity
8
0
100
AcDbLine
10
-90.238095402717647
20
-10.238261699675853
30
0
11
-90.476190328598079
21
-9.5239763259881105
31
0
0
LINE
5
313
100
AcDbEntity
8
0
100
AcDbLine
10
-90.476190328598079
20
-9.5239763259881105
30
0
11
-90.714285850524959
21
-9.0477858781807967
31
0
0
LINE
5
314
100
AcDbEntity
8
0
100
AcDbLine
10
-90.714285850524959
20
-9.0477858781807967
30
0
11
-91.190475702285809
21
-8.5715954303734847
31
0
0
LINE
5
315
100
AcDbEntity
8
0
100
AcDbLine
10
-91.190475702285809
20
-8.5715954303734847
30
0
11
-91.666666746139569
21
-8.3334999084466048
31
0
0
LINE
5
316
100
AcDbEntity
8
0
100
AcDbLine
10
-91.666666746139569
20
-8.3334999084466048
30
0
11
-92.619047641754193
21
-8.3334999084466066
31
0
0
LINE
5
317
100
AcDbEntity
8
0
100
AcDbLine
10
-92.619047641754193
20
-8.3334999084466066
30
0
11
-93.095238685607953
21
-8.5715954303734865
31
0
0
LINE
5
318
100
AcDbEntity
8
0
100
AcDbLine
10
-93.095238685607953
20
-8.5715954303734865
30
0
11
-93.571428537368817
21
-9.0477858781807985
31
0
0
LINE
5
319
100
AcDbEntity
8
0
100
AcDbLine
10
-93.571428537368817
20
-9.0477858781807985
30
0
11
-93.809524059295697
21
-9.5239763259881105
31
0
0
LINE
5
320
100
AcDbEntity
8
0
100
AcDbLine
10
1.7908811383392476
20
55.090383372846034
30
0
11
2.2673640787551306
21
54.614485597416802
31
0
0
LINE
5
321
100
AcDbEntity
8
0
100
AcDbLine
10
2.2673640787551306
20
54.614485597416802
30
0
11
2.9817962049087972
21
54.37682929237863
31
0
0
LINE
5
322
100
AcDbEntity
8
0
100
AcDbLine
10
2.9817962049087972
20
54.37682929237863
30
0
11
3.9341769207539117
21
54.37741445736529
31
0
0
LINE
5
323
100
AcDbEntity
8
0
100
AcDbLine
10
3.9341769207539117
20
54.37741445736529
30
0
11
4.6483161663910835
21
54.615948510066573
31
0
0
LINE
5
324
100
AcDbEntity
8
0
100
AcDbLine
10
4.6483161663910835
20
54.615948510066573
30
0
11
5.1242139418203152
21
55.092431450482458
31
0
0
LINE
5
325
100
AcDbEntity
8
0
100
AcDbLine
10
5.1242139418203152
20
55.092431450482458
30
0
11
5.1239213591438757
21
55.568622106428187
31
0
0
LINE
5
326
100
AcDbEntity
8
0
100
AcDbLine
10
5.1239213591438757
20
55.568622106428187
30
0
11
4.8855335980554973
21
56.044665577057742
31
0
0
LINE
5
327
100
AcDbEntity
8
0
100
AcDbLine
10
4.8855335980554973
20
56.044665577057742
30
0
11
4.6472921276644428
21
56.282614762795518
31
0
0
LINE
5
328
100
AcDbEntity
8
0
100
AcDbLine
10
4.6472921276644428
20
56.282614762795518
30
0
11
4.1709551802889431
21
56.520417657103522
31
0
0
LINE
5
329
100
AcDbEntity
8
0
100
AcDbLine
10
4.1709551802889431
20
56.520417657103522
30
0
11
2.7420915240279466
21
56.995730267546094
31
0
0
LINE
5
330
100
AcDbEntity
8
0
100
AcDbLine
10
2.7420915240279466
20
56.995730267546094
30
0
11
2.2657548750418375
21
57.23353256599087
31
0
0
LINE
5
331
100
AcDbEntity
8
0
100
AcDbLine
10
2.2657548750418375
20
57.23353256599087
30
0
11
2.0275137026739514
21
57.471481751911753
31
0
0
LINE
5
332
100
AcDbEntity
8
0
100
AcDbLine
10
2.0275137026739514
20
57.471481751911753
30
0
11
1.7891256431961799
21
57.947525818404543
31
0
0
LINE
5
333
100
AcDbEntity
8
0
100
AcDbLine
10
1.7891256431961799
20
57.947525818404543
30
0
11
1.7886867696393036
21
58.661811057265211
31
0
0
LINE
5
334
100
AcDbEntity
8
0
100
AcDbLine
10
1.7886867696393036
20
58.661811057265211
30
0
11
2.2645845450685349
21
59.138293997681103
31
0
0
LINE
5
335
100
AcDbEntity
8
0
100
AcDbLine
10
2.2645845450685349
20
59.138293997681103
30
0
11
2.9787240885457624
21
59.376828348588653
31
0
0
LINE
5
336
100
AcDbEntity
8
0
100
AcDbLine
10
2.9787240885457624
20
59.376828348588653
30
0
11
3.9311048043908774
21
59.377413513575313
31
0
0
LINE
5
337
100
AcDbEntity
8
0
100
AcDbLine
10
3.9311048043908774
20
59.377413513575313
30
0
11
4.6455366327044878
21
59.139756910330867
31
0
0
LINE
5
338
100
AcDbEntity
8
0
100
AcDbLine
10
4.6455366327044878
20
59.139756910330867
30
0
11
5.1220195731203706
21
58.663859134901628
31
0
0
LINE
5
339
100
AcDbEntity
8
0
100
AcDbLine
10
-3.2094105005472082
20
55.56350191242867
30
0
11
-2.9710224408863239
21
55.08745754791272
31
0
0
LINE
5
340
100
AcDbEntity
8
0
100
AcDbLine
10
-2.9710224408863239
20
55.08745754791272
30
0
11
-2.4945389044241044
21
54.611559772849716
31
0
0
LINE
5
341
100
AcDbEntity
8
0
100
AcDbLine
10
-2.4945389044241044
20
54.611559772849716
30
0
11
-2.0182028513012202
21
54.373757176015552
31
0
0
LINE
5
342
100
AcDbEntity
8
0
100
AcDbLine
10
-2.0182028513012202
20
54.373757176015552
30
0
11
-1.0658221354561055
21
54.374342341002219
31
0
0
LINE
5
343
100
AcDbEntity
8
0
100
AcDbLine
10
-1.0658221354561055
20
54.374342341002219
30
0
11
-0.5897774727338766
21
54.612730102823051
31
0
0
LINE
5
344
100
AcDbEntity
8
0
100
AcDbLine
10
-0.5897774727338766
20
54.612730102823051
30
0
11
-0.11388029335098186
21
55.089213042872707
31
0
0
LINE
5
345
100
AcDbEntity
8
0
100
AcDbLine
10
-0.11388029335098186
20
55.089213042872707
30
0
11
0.12392260095702701
21
55.565549990248215
31
0
0
LINE
5
346
100
AcDbEntity
8
0
100
AcDbLine
10
0.12392260095702701
20
55.565549990248215
30
0
11
0.36157860833826161
21
56.279981520172427
31
0
0
LINE
5
347
100
AcDbEntity
8
0
100
AcDbLine
10
0.36157860833826161
20
56.279981520172427
30
0
11
0.36084715192183503
21
57.470457713001991
31
0
0
LINE
5
348
100
AcDbEntity
8
0
100
AcDbLine
10
0.36084715192183503
20
57.470457713001991
30
0
11
0.12231339742684744
21
58.184596660799109
31
0
0
LINE
5
349
100
AcDbEntity
8
0
100
AcDbLine
10
0.12231339742684744
20
58.184596660799109
30
0
11
-0.11607466205092562
21
58.660640727291884
31
0
0
LINE
5
350
100
AcDbEntity
8
0
100
AcDbLine
10
-0.11607466205092562
20
58.660640727291884
30
0
11
-0.59255700642047227
21
59.136538503087337
31
0
0
LINE
5
351
100
AcDbEntity
8
0
100
AcDbLine
10
-0.59255700642047227
20
59.136538503087337
30
0
11
-1.0688942518191398
21
59.374341397212227
31
0
0
LINE
5
352
100
AcDbEntity
8
0
100
AcDbLine
10
-1.0688942518191398
20
59.374341397212227
30
0
11
-2.0212749676642545
21
59.373756232225567
31
0
0
LINE
5
353
100
AcDbEntity
8
0
100
AcDbLine
10
-2.0212749676642545
20
59.373756232225567
30
0
11
-2.4973184381107001
21
59.135368173114017
31
0
0
LINE
5
354
100
AcDbEntity
8
0
100
AcDbLine
10
-2.4973184381107001
20
59.135368173114017
30
0
11
-2.9732168095862659
21
58.658885232331897
31
0
0
LINE
5
355
100
AcDbEntity
8
0
100
AcDbLine
10
-2.9732168095862659
20
58.658885232331897
30
0
11
-3.2110197040773891
21
58.182548582979564
31
0
0
LINE
5
356
100
AcDbEntity
8
0
100
AcDbLine
10
-4.8753449988365629
20
54.372001681055565
30
0
11
-4.8784171151995972
21
59.37200073726558
31
0
0
LINE
5
357
100
AcDbEntity
8
0
100
AcDbLine
10
-20.142772781181947
20
54.390296148420362
30
0
11
-20.155876289064349
21
59.390278978198992
31
0
0
LINE
5
358
100
AcDbEntity
8
0
100
AcDbLine
10
-20.142772781181947
20
54.390296148420362
30
0
11
-22.28562273567119
21
54.384680358881631
31
0
0
LINE
5
359
100
AcDbEntity
8
0
100
AcDbLine
10
-22.28562273567119
20
54.384680358881631
30
0
11
-23.000529632999974
21
54.620902836350879
31
0
0
LINE
5
360
100
AcDbEntity
8
0
100
AcDbLine
10
-23.000529632999974
20
54.620902836350879
30
0
11
-23.23924831382493
21
54.858373265315322
31
0
0
LINE
5
361
100
AcDbEntity
8
0
100
AcDbLine
10
-23.23924831382493
20
54.858373265315322
30
0
11
-23.478590971178516
21
55.333938100553901
31
0
0
LINE
5
362
100
AcDbEntity
8
0
100
AcDbLine
10
-23.478590971178516
20
55.333938100553901
30
0
11
-23.479838924235793
21
55.810126913102131
31
0
0
LINE
5
363
100
AcDbEntity
8
0
100
AcDbLine
10
-23.479838924235793
20
55.810126913102131
30
0
11
-23.24299217299675
21
56.286939702960026
31
0
0
LINE
5
364
100
AcDbEntity
8
0
100
AcDbLine
10
-23.24299217299675
20
56.286939702960026
30
0
11
-23.0055214460101
21
56.525658384566015
31
0
0
LINE
5
365
100
AcDbEntity
8
0
100
AcDbLine
10
-23.0055214460101
20
56.525658384566015
30
0
11
-22.29186250095756
21
56.765624421622796
31
0
0
LINE
5
366
100
AcDbEntity
8
0
100
AcDbLine
10
-22.29186250095756
20
56.765624421622796
30
0
11
-20.149012546468317
21
56.771240211161526
31
0
0
LINE
5
367
100
AcDbEntity
8
0
100
AcDbLine
10
-21.815673688409326
20
56.766872374680055
30
0
11
-23.489198572946375
21
59.381543305236065
31
0
0
LINE
5
368
100
AcDbEntity
8
0
100
AcDbLine
10
-28.239855120132198
20
55.08336416370711
30
0
11
-27.76241775848229
21
54.608423305778203
31
0
0
LINE
5
369
100
AcDbEntity
8
0
100
AcDbLine
10
-27.76241775848229
20
54.608423305778203
30
0
11
-27.047510861153508
21
54.372200828308962
31
0
0
LINE
5
370
100
AcDbEntity
8
0
100
AcDbLine
10
-27.047510861153508
20
54.372200828308962
30
0
11
-26.095133236057041
21
54.374696734423495
31
0
0
LINE
5
371
100
AcDbEntity
8
0
100
AcDbLine
10
-26.095133236057041
20
54.374696734423495
30
0
11
-25.381474291785537
21
54.614663069502491
31
0
0
LINE
5
372
100
AcDbEntity
8
0
100
AcDbLine
10
-25.381474291785537
20
54.614663069502491
30
0
11
-24.906533432294577
21
55.092099835107987
31
0
0
LINE
5
373
100
AcDbEntity
8
0
100
AcDbLine
10
-24.906533432294577
20
55.092099835107987
30
0
11
-24.907781386132875
21
55.568288945678418
31
0
0
LINE
5
374
100
AcDbEntity
8
0
100
AcDbLine
10
-24.907781386132875
20
55.568288945678418
30
0
11
-25.147123445880005
21
56.043853186434646
31
0
0
LINE
5
375
100
AcDbEntity
8
0
100
AcDbLine
10
-25.147123445880005
20
56.043853186434646
30
0
11
-25.385842127485994
21
56.281323913421289
31
0
0
LINE
5
376
100
AcDbEntity
8
0
100
AcDbLine
10
-25.385842127485994
20
56.281323913421289
30
0
11
-25.862654917343892
21
56.518170664660339
31
0
0
LINE
5
377
100
AcDbEntity
8
0
100
AcDbLine
10
-25.862654917343892
20
56.518170664660339
30
0
11
-27.29246930804586
21
56.990615618036777
31
0
0
LINE
5
378
100
AcDbEntity
8
0
100
AcDbLine
10
-27.29246930804586
20
56.990615618036777
30
0
11
-27.769281500297296
21
57.227461774793483
31
0
0
LINE
5
379
100
AcDbEntity
8
0
100
AcDbLine
10
-27.769281500297296
20
57.227461774793483
30
0
11
-28.008000181903281
21
57.464932501780133
31
0
0
LINE
5
380
100
AcDbEntity
8
0
100
AcDbLine
10
-28.008000181903281
20
57.464932501780133
30
0
11
-28.247342839256874
21
57.940497337018698
31
0
0
LINE
5
381
100
AcDbEntity
8
0
100
AcDbLine
10
-28.247342839256874
20
57.940497337018698
30
0
11
-28.249214768061751
21
58.654780257818842
31
0
0
LINE
5
382
100
AcDbEntity
8
0
100
AcDbLine
10
-28.249214768061751
20
58.654780257818842
30
0
11
-27.774273312526393
21
59.132217024986417
31
0
0
LINE
5
383
100
AcDbEntity
8
0
100
AcDbLine
10
-27.774273312526393
20
59.132217024986417
30
0
11
-27.060614369035907
21
59.372183658087593
31
0
0
LINE
5
384
100
AcDbEntity
8
0
100
AcDbLine
10
-27.060614369035907
20
59.372183658087593
30
0
11
-26.108236743939447
21
59.374679564202133
31
0
0
LINE
5
385
100
AcDbEntity
8
0
100
AcDbLine
10
-26.108236743939447
20
59.374679564202133
30
0
11
-25.39332984582963
21
59.138456788710691
31
0
0
LINE
5
386
100
AcDbEntity
8
0
100
AcDbLine
10
-25.39332984582963
20
59.138456788710691
30
0
11
-24.91589308022413
21
58.663515929219727
31
0
0
LINE
5
387
100
AcDbEntity
8
0
100
AcDbLine
10
-30.857021361539367
20
54.362217203850832
30
0
11
-30.870124869421769
21
59.362200033629463
31
0
0
LINE
5
388
100
AcDbEntity
8
0
100
AcDbLine
10
-29.190360815642755
20
54.366585038770232
30
0
11
-32.523683099524781
21
54.357849365807304
31
0
0
LINE
5
389
100
AcDbEntity
8
0
100
AcDbLine
10
-48.324477088933627
20
54.36895733527458
30
0
11
-48.316286123786902
21
59.368950626079084
31
0
0
LINE
5
390
100
AcDbEntity
8
0
100
AcDbLine
10
-48.324477088933627
20
54.36895733527458
30
0
11
-50.467331526720031
21
54.372467749187898
31
0
0
LINE
5
391
100
AcDbEntity
8
0
100
AcDbLine
10
-50.467331526720031
20
54.372467749187898
30
0
11
-51.181225896015611
21
54.611732790926212
31
0
0
LINE
5
392
100
AcDbEntity
8
0
100
AcDbLine
10
-51.181225896015611
20
54.611732790926212
30
0
11
-51.418931052520485
21
54.850217741768731
31
0
0
LINE
5
393
100
AcDbEntity
8
0
100
AcDbLine
10
-51.418931052520485
20
54.850217741768731
30
0
11
-51.656246163089243
21
55.326797597029426
31
0
0
LINE
5
394
100
AcDbEntity
8
0
100
AcDbLine
10
-51.656246163089243
20
55.326797597029426
30
0
11
-51.655076025769098
21
56.041082012261121
31
0
0
LINE
5
395
100
AcDbEntity
8
0
100
AcDbLine
10
-51.655076025769098
20
56.041082012261121
30
0
11
-51.416200730479432
21
56.516882370718776
31
0
0
LINE
5
396
100
AcDbEntity
8
0
100
AcDbLine
10
-51.416200730479432
20
56.516882370718776
30
0
11
-51.177715482590536
21
56.75458693068979
31
0
0
LINE
5
397
100
AcDbEntity
8
0
100
AcDbLine
10
-51.177715482590536
20
56.75458693068979
30
0
11
-50.463041020934497
21
56.99151199581064
31
0
0
LINE
5
398
100
AcDbEntity
8
0
100
AcDbLine
10
-50.463041020934497
20
56.99151199581064
30
0
11
-48.320186583148093
21
56.988001581897329
31
0
0
LINE
5
399
100
AcDbEntity
8
0
100
AcDbLine
10
-52.610185964506414
20
54.375978163101209
30
0
11
-54.506754234705099
21
59.379091821394681
31
0
0
LINE
5
400
100
AcDbEntity
8
0
100
AcDbLine
10
-56.419704435197218
20
54.382218898079159
30
0
11
-54.506754234705099
21
59.379091821394681
31
0
0
LINE
5
401
100
AcDbEntity
8
0
100
AcDbLine
10
-69.791759109457118
20
54.369560315206073
30
0
11
-69.788447677029282
21
59.369559218647474
31
0
0
LINE
5
402
100
AcDbEntity
8
0
100
AcDbLine
10
-69.788447677029282
20
59.369559218647474
30
0
11
-72.645590035291448
21
59.37145146583368
31
0
0
LINE
5
403
100
AcDbEntity
8
0
100
AcDbLine
10
-75.02985348260826
20
54.37302943508034
30
0
11
-73.12178037866461
21
59.371766840331823
31
0
0
LINE
5
404
100
AcDbEntity
8
0
100
AcDbLine
10
-75.02985348260826
20
54.37302943508034
30
0
11
-76.9313034236731
21
59.374289836514301
31
0
0
LINE
5
405
100
AcDbEntity
8
0
100
AcDbLine
10
-73.837169704665214
20
57.70557340224979
30
0
11
-76.218122017577372
21
57.707150275135234
31
0
0
LWPOLYLINE
5
406
100
AcDbEntity
8
0
100
AcDbPolyline
90
12
70
1
43
0.0
10
-78.121779580129186
20
59.375078272957026
10
-78.125091012557007
20
54.375079369515618
10
-79.791758108432575
20
54.376183180851228
10
-80.505885638220093
20
54.61475141408765
10
-80.981760011048806
20
55.091257131564205
10
-81.219540106063022
20
55.56760546040698
10
-81.457162514222929
20
56.282048364890009
10
-81.456374077780197
20
57.472524521346088
10
-81.217805546520637
20
58.186652050936232
10
-80.97939470231276
20
58.66268470686294
10
-80.502889580487789
20
59.138559676132729
10
-79.788446676004739
20
59.376182084292637
0
LINE
5
407
100
AcDbEntity
8
0
100
AcDbLine
10
-83.125089915998416
20
54.378390801943446
30
0
11
-83.121778483570594
21
59.378389705384855
31
0
0
LINE
5
408
100
AcDbEntity
8
0
100
AcDbLine
10
-83.125089915998416
20
54.378390801943446
30
0
11
-85.267946759200839
21
54.379809987382444
31
0
0
LINE
5
409
100
AcDbEntity
8
0
100
AcDbLine
10
-85.267946759200839
20
54.379809987382444
30
0
11
-85.982074288988329
21
54.618378220618865
31
0
0
LINE
5
410
100
AcDbEntity
8
0
100
AcDbLine
10
-85.982074288988329
20
54.618378220618865
30
0
11
-86.220012071449034
21
54.856631079751892
31
0
0
LINE
5
411
100
AcDbEntity
8
0
100
AcDbLine
10
-86.220012071449034
20
54.856631079751892
30
0
11
-86.457792166660624
21
55.3329791105715
31
0
0
LINE
5
412
100
AcDbEntity
8
0
100
AcDbLine
10
-86.457792166660624
20
55.3329791105715
30
0
11
-86.457476792162481
21
55.809169453944669
31
0
0
LINE
5
413
100
AcDbEntity
8
0
100
AcDbLine
10
-86.457476792162481
20
55.809169453944669
30
0
11
-86.219065947954604
21
56.285202109871392
31
0
0
LINE
5
414
100
AcDbEntity
8
0
100
AcDbLine
10
-86.219065947954604
20
56.285202109871392
30
0
11
-85.98081279079841
21
56.523139892134687
31
0
0
LINE
5
415
100
AcDbEntity
8
0
100
AcDbLine
10
-85.98081279079841
20
56.523139892134687
30
0
11
-85.266369886710123
21
56.760761704248274
31
0
0
LINE
5
416
100
AcDbEntity
8
0
100
AcDbLine
10
-85.266369886710123
20
56.760761704248274
30
0
11
-83.123513043507714
21
56.759342518809284
31
0
0
LINE
5
417
100
AcDbEntity
8
0
100
AcDbLine
10
-84.790180139383281
20
56.760446330144902
30
0
11
-86.455111483229075
21
59.380597327266578
31
0
0
LINE
5
418
100
AcDbEntity
8
0
100
AcDbLine
10
-97.357944673353302
20
54.357045772646025
30
0
11
-95.439716999378163
21
59.351895240592924
31
0
0
LINE
5
419
100
AcDbEntity
8
0
100
AcDbLine
10
-97.357944673353302
20
54.357045772646025
30
0
11
-99.249227050635426
21
59.362160002182549
31
0
0
LINE
5
420
100
AcDbEntity
8
0
100
AcDbLine
10
-96.158490911756914
20
57.687159068177905
30
0
11
-98.539434805551011
21
57.693574544472554
31
0
0
LINE
5
421
100
AcDbEntity
8
0
100
AcDbLine
10
-101.40554908418775
20
54.367952081784814
30
0
11
-101.39207658485232
21
59.367933930928032
31
0
0
LINE
5
422
100
AcDbEntity
8
0
100
AcDbLine
10
-99.738888269125255
20
54.363461248137654
30
0
11
-103.07220930320597
21
54.372442913825921
31
0
0
LINE
5
423
100
AcDbEntity
8
0
100
AcDbLine
10
-104.26268139911407
20
54.375650652374759
30
0
11
-104.24920889977864
21
59.375632501517977
31
0
0
LINE
5
424
100
AcDbEntity
8
0
100
AcDbLine
10
-104.26268139911407
20
54.375650652374759
30
0
11
-107.58253052990364
21
59.384614168812305
31
0
0
LINE
5
425
100
AcDbEntity
8
0
100
AcDbLine
10
-107.59600302923909
20
54.38463231966908
30
0
11
-107.58253052990364
21
59.384614168812305
31
0
0
LINE
5
426
100
AcDbEntity
8
0
100
AcDbLine
10
-108.78647512514719
20
54.387840058217918
30
0
11
-110.67775750242932
21
59.392954287754442
31
0
0
LINE
5
427
100
AcDbEntity
8
0
100
AcDbLine
10
-112.59598487838231
20
54.398104819004516
30
0
11
-110.67775750242932
21
59.392954287754442
31
0
0
LINE
5
428
100
AcDbEntity
8
0
100
AcDbLine
10
-125.15224860716617
20
54.357274263226749
30
0
11
-123.22932473701667
21
59.350317664426306
31
0
0
LINE
5
429
100
AcDbEntity
8
0
100
AcDbLine
10
-125.15224860716617
20
54.357274263226749
30
0
11
-127.03882345112832
21
59.364164799223744
31
0
0
LINE
5
430
100
AcDbEntity
8
0
100
AcDbLine
10
-123.94966381211681
20
57.686258146936908
30
0
11
-126.33060032217331
21
57.694912605508257
31
0
0
LINE
5
431
100
AcDbEntity
8
0
100
AcDbLine
10
-131.57645025197104
20
55.571109855502179
30
0
11
-131.34008719574169
21
55.094056808529217
31
0
0
LINE
5
432
100
AcDbEntity
8
0
100
AcDbLine
10
-131.34008719574169
20
55.094056808529217
30
0
11
-130.86563018940214
21
54.61613861263708
31
0
0
LINE
5
433
100
AcDbEntity
8
0
100
AcDbLine
10
-130.86563018940214
20
54.61613861263708
30
0
11
-130.39030892929048
21
54.376314072083723
31
0
0
LINE
5
434
100
AcDbEntity
8
0
100
AcDbLine
10
-130.39030892929048
20
54.376314072083723
30
0
11
-129.43793432526789
21
54.372852288655181
31
0
0
LINE
5
435
100
AcDbEntity
8
0
100
AcDbLine
10
-129.43793432526789
20
54.372852288655181
30
0
11
-128.96088157739945
21
54.609215047946556
31
0
0
LINE
5
436
100
AcDbEntity
8
0
100
AcDbLine
10
-128.96088157739945
20
54.609215047946556
30
0
11
-128.48296338367388
21
55.083671458243586
31
0
0
LINE
5
437
100
AcDbEntity
8
0
100
AcDbLine
10
-128.48296338367388
20
55.083671458243586
30
0
11
-128.24313854184942
21
55.55899361133573
31
0
0
LINE
5
438
100
AcDbEntity
8
0
100
AcDbLine
10
-128.24313854184942
20
55.55899361133573
30
0
11
-128.00244885237692
21
56.272408821557569
31
0
0
LINE
5
439
100
AcDbEntity
8
0
100
AcDbLine
10
-128.00244885237692
20
56.272408821557569
30
0
11
-127.99812162200797
21
57.462877374607075
31
0
0
LINE
5
440
100
AcDbEntity
8
0
100
AcDbLine
10
-127.99812162200797
20
57.462877374607075
30
0
11
-128.23361863850425
21
58.178023474376637
31
0
0
LINE
5
441
100
AcDbEntity
8
0
100
AcDbLine
10
-128.23361863850425
20
58.178023474376637
30
0
11
-128.4699816958169
21
58.655076223328344
31
0
0
LINE
5
442
100
AcDbEntity
8
0
100
AcDbLine
10
-128.4699816958169
20
58.655076223328344
30
0
11
-128.94443810611395
21
59.132994417053922
31
0
0
LINE
5
443
100
AcDbEntity
8
0
100
AcDbLine
10
-128.94443810611395
20
59.132994417053922
30
0
11
-129.41975996118484
21
59.372819257795094
31
0
0
LINE
5
444
100
AcDbEntity
8
0
100
AcDbLine
10
-129.41975996118484
20
59.372819257795094
30
0
11
-130.37213456520743
21
59.376281041223635
31
0
0
LINE
5
445
100
AcDbEntity
8
0
100
AcDbLine
10
-130.37213456520743
20
59.376281041223635
30
0
11
-130.84918671811661
21
59.139917981744439
31
0
0
LINE
5
446
100
AcDbEntity
8
0
100
AcDbLine
10
-130.84918671811661
20
59.139917981744439
30
0
11
-131.32710550788471
21
58.665461573613975
31
0
0
LINE
5
447
100
AcDbEntity
8
0
100
AcDbLine
10
-131.32710550788471
20
58.665461573613975
30
0
11
-131.56693034862587
21
58.190139718543072
31
0
0
LINE
5
448
100
AcDbEntity
8
0
100
AcDbLine
10
-131.56693034862587
20
58.190139718543072
30
0
11
-131.569526685114
21
57.475859063547389
31
0
0
LINE
5
449
100
AcDbEntity
8
0
100
AcDbLine
10
-130.37905813206447
20
57.471531833178432
30
0
11
-131.569526685114
21
57.475859063547389
31
0
0
LINE
5
450
100
AcDbEntity
8
0
100
AcDbLine
10
-133.72016004806858
20
55.340804924605877
30
0
11
-134.19721219989452
21
55.104442163147944
31
0
0
LINE
5
451
100
AcDbEntity
8
0
100
AcDbLine
10
-134.19721219989452
20
55.104442163147944
30
0
11
-134.91408919246163
21
54.392757546619123
31
0
0
LINE
5
452
100
AcDbEntity
8
0
100
AcDbLine
10
-134.91408919246163
20
54.392757546619123
30
0
11
-134.89591482837855
21
59.392724515759035
31
0
0
LINE
5
453
100
AcDbEntity
8
0
100
AcDbLine
10
-151.17764001663585
20
54.3437647093847
30
0
11
-149.24086728530941
21
59.331452550844247
31
0
0
LINE
5
454
100
AcDbEntity
8
0
100
AcDbLine
10
-151.17764001663585
20
54.3437647093847
30
0
11
-153.05031290304453
21
59.355871426308923
31
0
0
LINE
5
455
100
AcDbEntity
8
0
100
AcDbLine
10
-149.96582154184685
20
57.669398464241937
30
0
11
-152.34672546270482
21
57.684660264034036
31
0
0
LINE
5
456
100
AcDbEntity
8
0
100
AcDbLine
10
-157.59844898781532
20
55.575423524667613
30
0
11
-157.36341071842045
21
55.097716380178298
31
0
0
LINE
5
457
100
AcDbEntity
8
0
100
AcDbLine
10
-157.36341071842045
20
55.097716380178298
30
0
11
-156.89028300868418
21
54.618483359839864
31
0
0
LINE
5
458
100
AcDbEntity
8
0
100
AcDbLine
10
-156.89028300868418
20
54.618483359839864
30
0
11
-156.41562792728237
21
54.377340664342569
31
0
0
LINE
5
459
100
AcDbEntity
8
0
100
AcDbLine
10
-156.41562792728237
20
54.377340664342569
30
0
11
-155.46326659735286
21
54.371235945953984
31
0
0
LINE
5
460
100
AcDbEntity
8
0
100
AcDbLine
10
-155.46326659735286
20
54.371235945953984
30
0
11
-154.98555975279095
21
54.606273919242057
31
0
0
LINE
5
461
100
AcDbEntity
8
0
100
AcDbLine
10
-154.98555975279095
20
54.606273919242057
30
0
11
-154.5063267286319
21
55.079402225012529
31
0
0
LINE
5
462
100
AcDbEntity
8
0
100
AcDbLine
10
-154.5063267286319
20
55.079402225012529
30
0
11
-154.26518373702783
21
55.554057006486921
31
0
0
LINE
5
463
100
AcDbEntity
8
0
100
AcDbLine
10
-154.26518373702783
20
55.554057006486921
30
0
11
-154.02251516568143
21
56.266801528230118
31
0
0
LINE
5
464
100
AcDbEntity
8
0
100
AcDbLine
10
-154.02251516568143
20
56.266801528230118
30
0
11
-154.01488426578541
21
57.457253488659113
31
0
0
LINE
5
465
100
AcDbEntity
8
0
100
AcDbLine
10
-154.01488426578541
20
57.457253488659113
30
0
11
-154.24839576336956
21
58.173050365775978
31
0
0
LINE
5
466
100
AcDbEntity
8
0
100
AcDbLine
10
-154.24839576336956
20
58.173050365775978
30
0
11
-154.48343403467476
21
58.650757212248187
31
0
0
LINE
5
467
100
AcDbEntity
8
0
100
AcDbLine
10
-154.48343403467476
20
58.650757212248187
30
0
11
-154.95656234044523
21
59.129990236407238
31
0
0
LINE
5
468
100
AcDbEntity
8
0
100
AcDbLine
10
-154.95656234044523
20
59.129990236407238
30
0
11
-155.43121682390253
21
59.371133226101016
31
0
0
LINE
5
469
100
AcDbEntity
8
0
100
AcDbLine
10
-155.43121682390253
20
59.371133226101016
30
0
11
-156.38357815383205
21
59.377237944489607
31
0
0
LINE
5
470
100
AcDbEntity
8
0
100
AcDbLine
10
-156.38357815383205
20
59.377237944489607
30
0
11
-156.86128559633846
21
59.142199677005053
31
0
0
LINE
5
471
100
AcDbEntity
8
0
100
AcDbLine
10
-156.86128559633846
20
59.142199677005053
30
0
11
-157.34051802446328
21
58.669071367413963
31
0
0
LINE
5
472
100
AcDbEntity
8
0
100
AcDbLine
10
-157.34051802446328
20
58.669071367413963
30
0
11
-157.58166101415705
21
58.19441688395667
31
0
0
LINE
5
473
100
AcDbEntity
8
0
100
AcDbLine
10
-157.58166101415705
20
58.19441688395667
30
0
11
-157.58623955103818
21
57.480146184526639
31
0
0
LINE
5
474
100
AcDbEntity
8
0
100
AcDbLine
10
-156.39578759060919
20
57.472515284630589
30
0
11
-157.58623955103818
21
57.480146184526639
31
0
0
LINE
5
475
100
AcDbEntity
8
0
100
AcDbLine
10
-159.26508101717485
20
55.586106779937325
30
0
11
-159.26660719868232
21
55.348016149437839
31
0
0
LINE
5
476
100
AcDbEntity
8
0
100
AcDbLine
10
-159.26660719868232
20
55.348016149437839
30
0
11
-159.50775018837609
21
54.873361665980553
31
0
0
LINE
5
477
100
AcDbEntity
8
0
100
AcDbLine
10
-159.50775018837609
20
54.873361665980553
30
0
11
-159.74736699847273
21
54.63679751500564
31
0
0
LINE
5
478
100
AcDbEntity
8
0
100
AcDbLine
10
-159.74736699847273
20
54.63679751500564
30
0
11
-160.22507324700041
21
54.401759537896922
31
0
0
LINE
5
479
100
AcDbEntity
8
0
100
AcDbLine
10
-160.22507324700041
20
54.401759537896922
30
0
11
-161.17743457692993
21
54.407864256285507
31
0
0
LINE
5
480
100
AcDbEntity
8
0
100
AcDbLine
10
-161.17743457692993
20
54.407864256285507
30
0
11
-161.65208965833173
21
54.649006951782809
31
0
0
LINE
5
481
100
AcDbEntity
8
0
100
AcDbLine
10
-161.65208965833173
20
54.649006951782809
30
0
11
-161.88865410923404
21
54.888623465772653
31
0
0
LINE
5
482
100
AcDbEntity
8
0
100
AcDbLine
10
-161.88865410923404
20
54.888623465772653
30
0
11
-162.1236911884709
21
55.366330304603615
31
0
0
LINE
5
483
100
AcDbEntity
8
0
100
AcDbLine
10
-162.1236911884709
20
55.366330304603615
30
0
11
-162.12063882927657
21
55.842510969568366
31
0
0
LINE
5
484
100
AcDbEntity
8
0
100
AcDbLine
10
-162.12063882927657
20
55.842510969568366
30
0
11
-161.87949703165123
21
56.317165460666921
31
0
0
LINE
5
485
100
AcDbEntity
8
0
100
AcDbLine
10
-161.87949703165123
20
56.317165460666921
30
0
11
-161.39873722995048
21
57.028384393116234
31
0
0
LINE
5
486
100
AcDbEntity
8
0
100
AcDbLine
10
-161.39873722995048
20
57.028384393116234
30
0
11
-159.0025715131211
21
59.394025918147911
31
0
0
LINE
5
487
100
AcDbEntity
8
0
100
AcDbLine
10
-159.0025715131211
20
59.394025918147911
30
0
11
-162.33583676390856
21
59.415392436328602
31
0
0
LINE
5
488
100
AcDbEntity
8
0
100
AcDbLine
10
-177.11406564354181
20
54.377666191540364
30
0
11
-175.21203422366915
21
59.37870559295186
31
0
0
LINE
5
489
100
AcDbEntity
8
0
100
AcDbLine
10
-177.11406564354181
20
54.377666191540364
30
0
11
-179.02155753615048
21
59.37662529929063
31
0
0
LINE
5
490
100
AcDbEntity
8
0
100
AcDbLine
10
-175.92540966031169
20
57.711648921072268
30
0
11
-178.30636154434802
21
57.710348737635712
31
0
0
LINE
5
491
100
AcDbEntity
8
0
100
AcDbLine
10
-183.54328612034413
20
55.564631936140259
30
0
11
-183.30493059706725
21
55.088571279816207
31
0
0
LINE
5
492
100
AcDbEntity
8
0
100
AcDbLine
10
-183.30493059706725
20
55.088571279816207
30
0
11
-182.82847958752632
21
54.612640940021741
31
0
0
LINE
5
493
100
AcDbEntity
8
0
100
AcDbLine
10
-182.82847958752632
20
54.612640940021741
30
0
11
-182.35215978842177
21
54.374805787979923
31
0
0
LINE
5
494
100
AcDbEntity
8
0
100
AcDbLine
10
-182.35215978842177
20
54.374805787979923
30
0
11
-181.39977903480724
21
54.375325861354554
31
0
0
LINE
5
495
100
AcDbEntity
8
0
100
AcDbLine
10
-181.39977903480724
20
54.375325861354554
30
0
11
-180.92371867634364
21
54.613681086445503
31
0
0
LINE
5
496
100
AcDbEntity
8
0
100
AcDbLine
10
-180.92371867634364
20
54.613681086445503
30
0
11
-180.44778833622365
21
55.090131499940078
31
0
0
LINE
5
497
100
AcDbEntity
8
0
100
AcDbLine
10
-180.44778833622365
20
55.090131499940078
30
0
11
-180.20995288664693
21
55.566452193276923
31
0
0
LINE
5
498
100
AcDbEntity
8
0
100
AcDbLine
10
-180.20995288664693
20
55.566452193276923
30
0
11
-179.97224805113473
21
56.280867478645575
31
0
0
LINE
5
499
100
AcDbEntity
8
0
100
AcDbLine
10
-179.97224805113473
20
56.280867478645575
30
0
11
-179.97289814301575
21
57.471343718686924
31
0
0
LINE
5
500
100
AcDbEntity
8
0
100
AcDbLine
10
-179.97289814301575
20
57.471343718686924
30
0
11
-180.21138308826443
21
58.185498967693732
31
0
0
LINE
5
501
100
AcDbEntity
8
0
100
AcDbLine
10
-180.21138308826443
20
58.185498967693732
30
0
11
-180.44973861137859
21
58.66155932599461
31
0
0
LINE
5
502
100
AcDbEntity
8
0
100
AcDbLine
10
-180.44973861137859
20
58.66155932599461
30
0
11
-180.92618902487314
21
59.137489666114568
31
0
0
LINE
5
503
100
AcDbEntity
8
0
100
AcDbLine
10
-180.92618902487314
20
59.137489666114568
30
0
11
-181.40250942018685
21
59.375325115854068
31
0
0
LINE
5
504
100
AcDbEntity
8
0
100
AcDbLine
10
-181.40250942018685
20
59.375325115854068
30
0
11
-182.35489017380135
21
59.374805042479444
31
0
0
LINE
5
505
100
AcDbEntity
8
0
100
AcDbLine
10
-182.35489017380135
20
59.374805042479444
30
0
11
-182.83094993605587
21
59.136449519690814
31
0
0
LINE
5
506
100
AcDbEntity
8
0
100
AcDbLine
10
-182.83094993605587
20
59.136449519690814
30
0
11
-183.30688087222217
21
58.659999105870725
31
0
0
LINE
5
507
100
AcDbEntity
8
0
100
AcDbLine
10
-183.30688087222217
20
58.659999105870725
30
0
11
-183.54471632196166
21
58.183678710557068
31
0
0
LINE
5
508
100
AcDbEntity
8
0
100
AcDbLine
10
-183.54471632196166
20
58.183678710557068
30
0
11
-183.54432626709342
21
57.469393443369341
31
0
0
LINE
5
509
100
AcDbEntity
8
0
100
AcDbLine
10
-182.35385002705209
20
57.470043535250362
30
0
11
-183.54432626709342
21
57.469393443369341
31
0
0
LINE
5
510
100
AcDbEntity
8
0
100
AcDbLine
10
-185.44739872778493
20
54.373115548698685
30
0
11
-188.06644550220173
21
54.371685347081211
31
0
0
LINE
5
511
100
AcDbEntity
8
0
100
AcDbLine
10
-188.06644550220173
20
54.371685347081211
30
0
11
-186.63891511457558
21
56.27722696404674
31
0
0
LINE
5
512
100
AcDbEntity
8
0
100
AcDbLine
10
-186.63891511457558
20
56.27722696404674
30
0
11
-187.35320038176329
21
56.27683690917852
31
0
0
LINE
5
513
100
AcDbEntity
8
0
100
AcDbLine
10
-187.35320038176329
20
56.27683690917852
30
0
11
-187.82952137312327
21
56.514672358592534
31
0
0
LINE
5
514
100
AcDbEntity
8
0
100
AcDbLine
10
-187.82952137312327
20
56.514672358592534
30
0
11
-188.06774568563836
21
56.752637231117561
31
0
0
LINE
5
515
100
AcDbEntity
8
0
100
AcDbLine
10
-188.06774568563836
20
56.752637231117561
30
0
11
-188.30623122725885
21
57.466793075845253
31
0
0
LINE
5
516
100
AcDbEntity
8
0
100
AcDbLine
10
-188.30623122725885
20
57.466793075845253
30
0
11
-188.30649126394619
21
57.942983452652527
31
0
0
LINE
5
517
100
AcDbEntity
8
0
100
AcDbLine
10
-188.30649126394619
20
57.942983452652527
30
0
11
-188.06878583238759
21
58.657398738346643
31
0
0
LINE
5
518
100
AcDbEntity
8
0
100
AcDbLine
10
-188.06878583238759
20
58.657398738346643
30
0
11
-187.59285608831402
21
59.13384915151574
31
0
0
LINE
5
519
100
AcDbEntity
8
0
100
AcDbLine
10
-187.59285608831402
20
59.13384915151574
30
0
11
-186.87869964753997
21
59.372334693461752
31
0
0
LINE
5
520
100
AcDbEntity
8
0
100
AcDbLine
10
-186.87869964753997
20
59.372334693461752
30
0
11
-186.16441438035224
21
59.372724748329979
31
0
0
LINE
5
521
100
AcDbEntity
8
0
100
AcDbLine
10
-186.16441438035224
20
59.372724748329979
30
0
11
-185.44999909465812
21
59.135019316771391
31
0
0
LINE
5
522
100
AcDbEntity
8
0
100
AcDbLine
10
-185.44999909465812
20
59.135019316771391
30
0
11
-185.21177359005037
21
58.897054444897321
31
0
0
LINE
5
523
100
AcDbEntity
8
0
100
AcDbLine
10
-185.21177359005037
20
58.897054444897321
30
0
11
-184.97341806693623
21
58.420994086596458
31
0
0
ENDSEC
0
SECTION
2
OBJECTS
0
DICTIONARY
5
C
100
AcDbDictionary
3
ACAD_GROUP
350
D
3
ACAD_MLINESTYLE
350
17
0
DICTIONARY
5
D
100
AcDbDictionary
0
DICTIONARY
5
1A
330
C
100
AcDbDictionary
0
DICTIONARY
5
17
100
AcDbDictionary
0
ENDSEC
0
EOF
