ISO-10303-21;
HEADER;
/* Generated by software containing ST-Developer
 * from STEP Tools, Inc. (www.steptools.com) 
 */

FILE_DESCRIPTION(
/* description */ (''),
/* implementation_level */ '2;1');

FILE_NAME(
/* name */ 
'C:/Users/anton/Documents/Kerbal Space Program/Kerbal_Control_Panel/KC
P2/CAD/ForManufacture/ThrottleBracket_v38.step',
/* time_stamp */ '2020-11-13T15:21:03-08:00',
/* author */ (''),
/* organization */ (''),
/* preprocessor_version */ 'ST-DEVELOPER v18.1',
/* originating_system */ 'Autodesk Translation Framework v9.3.0.1241',
/* authorisation */ '');

FILE_SCHEMA (('AUTOMOTIVE_DESIGN { 1 0 10303 214 3 1 1 }'));
ENDSEC;

DATA;
#10=MECHANICAL_DESIGN_GEOMETRIC_PRESENTATION_REPRESENTATION('',(#13),#1501);
#11=SHAPE_REPRESENTATION_RELATIONSHIP('SRR','None',#1508,#12);
#12=ADVANCED_BREP_SHAPE_REPRESENTATION('',(#14),#1500);
#13=STYLED_ITEM('',(#1518),#14);
#14=MANIFOLD_SOLID_BREP('Body2',#881);
#15=FACE_BOUND('',#118,.T.);
#16=FACE_BOUND('',#119,.T.);
#17=FACE_BOUND('',#120,.T.);
#18=FACE_BOUND('',#121,.T.);
#19=FACE_BOUND('',#122,.T.);
#20=FACE_BOUND('',#126,.T.);
#21=FACE_BOUND('',#127,.T.);
#22=FACE_BOUND('',#133,.T.);
#23=FACE_BOUND('',#152,.T.);
#24=FACE_BOUND('',#159,.T.);
#25=FACE_BOUND('',#160,.T.);
#26=FACE_BOUND('',#164,.T.);
#27=FACE_BOUND('',#165,.T.);
#28=FACE_BOUND('',#166,.T.);
#29=FACE_BOUND('',#167,.T.);
#30=FACE_BOUND('',#168,.T.);
#31=PLANE('',#898);
#32=PLANE('',#902);
#33=PLANE('',#906);
#34=PLANE('',#910);
#35=PLANE('',#914);
#36=PLANE('',#918);
#37=PLANE('',#919);
#38=PLANE('',#927);
#39=PLANE('',#928);
#40=PLANE('',#935);
#41=PLANE('',#939);
#42=PLANE('',#940);
#43=PLANE('',#945);
#44=PLANE('',#958);
#45=PLANE('',#961);
#46=PLANE('',#967);
#47=PLANE('',#968);
#48=PLANE('',#970);
#49=PLANE('',#973);
#50=PLANE('',#977);
#51=PLANE('',#978);
#52=PLANE('',#980);
#53=PLANE('',#983);
#54=PLANE('',#984);
#55=PLANE('',#985);
#56=PLANE('',#986);
#57=FACE_OUTER_BOUND('',#105,.T.);
#58=FACE_OUTER_BOUND('',#106,.T.);
#59=FACE_OUTER_BOUND('',#107,.T.);
#60=FACE_OUTER_BOUND('',#108,.T.);
#61=FACE_OUTER_BOUND('',#109,.T.);
#62=FACE_OUTER_BOUND('',#110,.T.);
#63=FACE_OUTER_BOUND('',#111,.T.);
#64=FACE_OUTER_BOUND('',#112,.T.);
#65=FACE_OUTER_BOUND('',#113,.T.);
#66=FACE_OUTER_BOUND('',#114,.T.);
#67=FACE_OUTER_BOUND('',#115,.T.);
#68=FACE_OUTER_BOUND('',#116,.T.);
#69=FACE_OUTER_BOUND('',#117,.T.);
#70=FACE_OUTER_BOUND('',#123,.T.);
#71=FACE_OUTER_BOUND('',#124,.T.);
#72=FACE_OUTER_BOUND('',#125,.T.);
#73=FACE_OUTER_BOUND('',#128,.T.);
#74=FACE_OUTER_BOUND('',#129,.T.);
#75=FACE_OUTER_BOUND('',#130,.T.);
#76=FACE_OUTER_BOUND('',#131,.T.);
#77=FACE_OUTER_BOUND('',#132,.T.);
#78=FACE_OUTER_BOUND('',#134,.T.);
#79=FACE_OUTER_BOUND('',#135,.T.);
#80=FACE_OUTER_BOUND('',#136,.T.);
#81=FACE_OUTER_BOUND('',#137,.T.);
#82=FACE_OUTER_BOUND('',#138,.T.);
#83=FACE_OUTER_BOUND('',#139,.T.);
#84=FACE_OUTER_BOUND('',#140,.T.);
#85=FACE_OUTER_BOUND('',#141,.T.);
#86=FACE_OUTER_BOUND('',#142,.T.);
#87=FACE_OUTER_BOUND('',#143,.T.);
#88=FACE_OUTER_BOUND('',#144,.T.);
#89=FACE_OUTER_BOUND('',#145,.T.);
#90=FACE_OUTER_BOUND('',#146,.T.);
#91=FACE_OUTER_BOUND('',#147,.T.);
#92=FACE_OUTER_BOUND('',#148,.T.);
#93=FACE_OUTER_BOUND('',#149,.T.);
#94=FACE_OUTER_BOUND('',#150,.T.);
#95=FACE_OUTER_BOUND('',#151,.T.);
#96=FACE_OUTER_BOUND('',#153,.T.);
#97=FACE_OUTER_BOUND('',#154,.T.);
#98=FACE_OUTER_BOUND('',#155,.T.);
#99=FACE_OUTER_BOUND('',#156,.T.);
#100=FACE_OUTER_BOUND('',#157,.T.);
#101=FACE_OUTER_BOUND('',#158,.T.);
#102=FACE_OUTER_BOUND('',#161,.T.);
#103=FACE_OUTER_BOUND('',#162,.T.);
#104=FACE_OUTER_BOUND('',#163,.T.);
#105=EDGE_LOOP('',(#567,#568,#569,#570));
#106=EDGE_LOOP('',(#571,#572,#573,#574));
#107=EDGE_LOOP('',(#575,#576,#577,#578));
#108=EDGE_LOOP('',(#579,#580,#581,#582));
#109=EDGE_LOOP('',(#583,#584,#585,#586));
#110=EDGE_LOOP('',(#587,#588,#589,#590));
#111=EDGE_LOOP('',(#591,#592,#593,#594));
#112=EDGE_LOOP('',(#595,#596,#597,#598));
#113=EDGE_LOOP('',(#599,#600,#601,#602));
#114=EDGE_LOOP('',(#603,#604,#605,#606));
#115=EDGE_LOOP('',(#607,#608,#609,#610));
#116=EDGE_LOOP('',(#611,#612,#613,#614));
#117=EDGE_LOOP('',(#615,#616,#617,#618,#619,#620,#621,#622));
#118=EDGE_LOOP('',(#623,#624,#625,#626,#627,#628,#629,#630));
#119=EDGE_LOOP('',(#631));
#120=EDGE_LOOP('',(#632));
#121=EDGE_LOOP('',(#633));
#122=EDGE_LOOP('',(#634));
#123=EDGE_LOOP('',(#635,#636,#637,#638));
#124=EDGE_LOOP('',(#639,#640,#641,#642));
#125=EDGE_LOOP('',(#643,#644,#645,#646,#647,#648));
#126=EDGE_LOOP('',(#649));
#127=EDGE_LOOP('',(#650,#651,#652,#653));
#128=EDGE_LOOP('',(#654,#655,#656,#657));
#129=EDGE_LOOP('',(#658,#659,#660,#661));
#130=EDGE_LOOP('',(#662,#663,#664,#665));
#131=EDGE_LOOP('',(#666,#667,#668,#669));
#132=EDGE_LOOP('',(#670,#671,#672,#673,#674,#675));
#133=EDGE_LOOP('',(#676));
#134=EDGE_LOOP('',(#677,#678,#679,#680));
#135=EDGE_LOOP('',(#681,#682,#683,#684));
#136=EDGE_LOOP('',(#685,#686,#687,#688));
#137=EDGE_LOOP('',(#689,#690,#691,#692));
#138=EDGE_LOOP('',(#693,#694,#695,#696));
#139=EDGE_LOOP('',(#697,#698,#699,#700));
#140=EDGE_LOOP('',(#701,#702,#703,#704));
#141=EDGE_LOOP('',(#705,#706,#707,#708));
#142=EDGE_LOOP('',(#709,#710,#711,#712));
#143=EDGE_LOOP('',(#713,#714,#715,#716));
#144=EDGE_LOOP('',(#717,#718,#719,#720));
#145=EDGE_LOOP('',(#721,#722,#723,#724));
#146=EDGE_LOOP('',(#725,#726,#727,#728));
#147=EDGE_LOOP('',(#729,#730,#731,#732));
#148=EDGE_LOOP('',(#733,#734,#735,#736));
#149=EDGE_LOOP('',(#737,#738,#739,#740));
#150=EDGE_LOOP('',(#741,#742,#743,#744));
#151=EDGE_LOOP('',(#745,#746,#747,#748,#749,#750));
#152=EDGE_LOOP('',(#751));
#153=EDGE_LOOP('',(#752,#753,#754,#755));
#154=EDGE_LOOP('',(#756,#757,#758,#759));
#155=EDGE_LOOP('',(#760,#761,#762,#763));
#156=EDGE_LOOP('',(#764,#765,#766,#767));
#157=EDGE_LOOP('',(#768,#769,#770,#771));
#158=EDGE_LOOP('',(#772,#773,#774,#775,#776,#777));
#159=EDGE_LOOP('',(#778));
#160=EDGE_LOOP('',(#779,#780,#781,#782));
#161=EDGE_LOOP('',(#783,#784,#785,#786));
#162=EDGE_LOOP('',(#787,#788,#789,#790));
#163=EDGE_LOOP('',(#791,#792,#793,#794,#795,#796,#797,#798));
#164=EDGE_LOOP('',(#799));
#165=EDGE_LOOP('',(#800));
#166=EDGE_LOOP('',(#801));
#167=EDGE_LOOP('',(#802));
#168=EDGE_LOOP('',(#803,#804,#805,#806,#807,#808,#809,#810));
#169=LINE('',#1257,#247);
#170=LINE('',#1260,#248);
#171=LINE('',#1263,#249);
#172=LINE('',#1265,#250);
#173=LINE('',#1266,#251);
#174=LINE('',#1272,#252);
#175=LINE('',#1275,#253);
#176=LINE('',#1277,#254);
#177=LINE('',#1278,#255);
#178=LINE('',#1284,#256);
#179=LINE('',#1287,#257);
#180=LINE('',#1289,#258);
#181=LINE('',#1290,#259);
#182=LINE('',#1295,#260);
#183=LINE('',#1298,#261);
#184=LINE('',#1299,#262);
#185=LINE('',#1305,#263);
#186=LINE('',#1308,#264);
#187=LINE('',#1311,#265);
#188=LINE('',#1313,#266);
#189=LINE('',#1314,#267);
#190=LINE('',#1320,#268);
#191=LINE('',#1323,#269);
#192=LINE('',#1325,#270);
#193=LINE('',#1326,#271);
#194=LINE('',#1329,#272);
#195=LINE('',#1331,#273);
#196=LINE('',#1333,#274);
#197=LINE('',#1334,#275);
#198=LINE('',#1348,#276);
#199=LINE('',#1351,#277);
#200=LINE('',#1354,#278);
#201=LINE('',#1356,#279);
#202=LINE('',#1357,#280);
#203=LINE('',#1360,#281);
#204=LINE('',#1362,#282);
#205=LINE('',#1364,#283);
#206=LINE('',#1370,#284);
#207=LINE('',#1374,#285);
#208=LINE('',#1379,#286);
#209=LINE('',#1382,#287);
#210=LINE('',#1383,#288);
#211=LINE('',#1389,#289);
#212=LINE('',#1392,#290);
#213=LINE('',#1395,#291);
#214=LINE('',#1397,#292);
#215=LINE('',#1398,#293);
#216=LINE('',#1401,#294);
#217=LINE('',#1403,#295);
#218=LINE('',#1405,#296);
#219=LINE('',#1412,#297);
#220=LINE('',#1415,#298);
#221=LINE('',#1416,#299);
#222=LINE('',#1419,#300);
#223=LINE('',#1423,#301);
#224=LINE('',#1427,#302);
#225=LINE('',#1431,#303);
#226=LINE('',#1436,#304);
#227=LINE('',#1439,#305);
#228=LINE('',#1443,#306);
#229=LINE('',#1445,#307);
#230=LINE('',#1446,#308);
#231=LINE('',#1450,#309);
#232=LINE('',#1453,#310);
#233=LINE('',#1454,#311);
#234=LINE('',#1459,#312);
#235=LINE('',#1463,#313);
#236=LINE('',#1464,#314);
#237=LINE('',#1468,#315);
#238=LINE('',#1471,#316);
#239=LINE('',#1474,#317);
#240=LINE('',#1478,#318);
#241=LINE('',#1482,#319);
#242=LINE('',#1483,#320);
#243=LINE('',#1488,#321);
#244=LINE('',#1491,#322);
#245=LINE('',#1494,#323);
#246=LINE('',#1496,#324);
#247=VECTOR('',#993,10.);
#248=VECTOR('',#996,10.);
#249=VECTOR('',#999,10.);
#250=VECTOR('',#1000,10.);
#251=VECTOR('',#1001,10.);
#252=VECTOR('',#1006,10.);
#253=VECTOR('',#1009,10.);
#254=VECTOR('',#1012,10.);
#255=VECTOR('',#1013,10.);
#256=VECTOR('',#1018,10.);
#257=VECTOR('',#1021,10.);
#258=VECTOR('',#1024,10.);
#259=VECTOR('',#1025,10.);
#260=VECTOR('',#1030,10.);
#261=VECTOR('',#1035,10.);
#262=VECTOR('',#1036,10.);
#263=VECTOR('',#1041,10.);
#264=VECTOR('',#1044,10.);
#265=VECTOR('',#1047,10.);
#266=VECTOR('',#1048,10.);
#267=VECTOR('',#1049,10.);
#268=VECTOR('',#1056,10.);
#269=VECTOR('',#1059,10.);
#270=VECTOR('',#1060,10.);
#271=VECTOR('',#1061,10.);
#272=VECTOR('',#1064,10.);
#273=VECTOR('',#1065,10.);
#274=VECTOR('',#1066,10.);
#275=VECTOR('',#1067,10.);
#276=VECTOR('',#1080,10.);
#277=VECTOR('',#1083,10.);
#278=VECTOR('',#1086,10.);
#279=VECTOR('',#1087,10.);
#280=VECTOR('',#1088,10.);
#281=VECTOR('',#1091,4.32000000000001);
#282=VECTOR('',#1092,10.);
#283=VECTOR('',#1093,4.32000000000001);
#284=VECTOR('',#1098,10.);
#285=VECTOR('',#1101,10.);
#286=VECTOR('',#1108,10.);
#287=VECTOR('',#1111,10.);
#288=VECTOR('',#1112,10.);
#289=VECTOR('',#1117,10.);
#290=VECTOR('',#1120,10.);
#291=VECTOR('',#1123,10.);
#292=VECTOR('',#1124,10.);
#293=VECTOR('',#1125,10.);
#294=VECTOR('',#1128,4.32000000000001);
#295=VECTOR('',#1129,10.);
#296=VECTOR('',#1130,4.32000000000001);
#297=VECTOR('',#1139,10.);
#298=VECTOR('',#1142,10.);
#299=VECTOR('',#1143,10.);
#300=VECTOR('',#1146,1.2645);
#301=VECTOR('',#1151,1.2645);
#302=VECTOR('',#1156,1.2645);
#303=VECTOR('',#1161,1.2645);
#304=VECTOR('',#1168,3.5);
#305=VECTOR('',#1171,3.5);
#306=VECTOR('',#1176,10.);
#307=VECTOR('',#1177,10.);
#308=VECTOR('',#1178,10.);
#309=VECTOR('',#1183,10.);
#310=VECTOR('',#1186,10.);
#311=VECTOR('',#1187,10.);
#312=VECTOR('',#1194,10.);
#313=VECTOR('',#1201,4.32000000000001);
#314=VECTOR('',#1202,10.);
#315=VECTOR('',#1207,10.);
#316=VECTOR('',#1210,10.);
#317=VECTOR('',#1215,10.);
#318=VECTOR('',#1220,10.);
#319=VECTOR('',#1227,4.32000000000001);
#320=VECTOR('',#1228,10.);
#321=VECTOR('',#1235,10.);
#322=VECTOR('',#1240,10.);
#323=VECTOR('',#1245,10.);
#324=VECTOR('',#1248,10.);
#325=CIRCLE('',#896,2.);
#326=CIRCLE('',#897,2.);
#327=CIRCLE('',#900,2.);
#328=CIRCLE('',#901,2.);
#329=CIRCLE('',#904,2.);
#330=CIRCLE('',#905,2.);
#331=CIRCLE('',#908,2.);
#332=CIRCLE('',#909,2.);
#333=CIRCLE('',#912,10.);
#334=CIRCLE('',#913,10.);
#335=CIRCLE('',#916,10.);
#336=CIRCLE('',#917,10.);
#337=CIRCLE('',#920,1.2645);
#338=CIRCLE('',#921,1.2645);
#339=CIRCLE('',#922,1.2645);
#340=CIRCLE('',#923,1.2645);
#341=CIRCLE('',#925,15.);
#342=CIRCLE('',#926,15.);
#343=CIRCLE('',#929,15.);
#344=CIRCLE('',#930,3.5);
#345=CIRCLE('',#931,3.5);
#346=CIRCLE('',#932,3.5);
#347=CIRCLE('',#934,15.);
#348=CIRCLE('',#937,15.);
#349=CIRCLE('',#938,15.);
#350=CIRCLE('',#941,15.);
#351=CIRCLE('',#942,3.5);
#352=CIRCLE('',#944,15.);
#353=CIRCLE('',#947,1.2645);
#354=CIRCLE('',#949,1.2645);
#355=CIRCLE('',#951,1.2645);
#356=CIRCLE('',#953,1.2645);
#357=CIRCLE('',#955,3.5);
#358=CIRCLE('',#957,3.5);
#359=CIRCLE('',#960,3.5);
#360=CIRCLE('',#963,3.5);
#361=CIRCLE('',#965,5.99999999999994);
#362=CIRCLE('',#966,6.00000000000001);
#363=CIRCLE('',#969,3.00000000000001);
#364=CIRCLE('',#971,3.00000000000001);
#365=CIRCLE('',#975,6.00000000000001);
#366=CIRCLE('',#976,6.00000000000001);
#367=CIRCLE('',#979,3.00000000000001);
#368=CIRCLE('',#981,3.00000000000001);
#369=VERTEX_POINT('',#1253);
#370=VERTEX_POINT('',#1254);
#371=VERTEX_POINT('',#1256);
#372=VERTEX_POINT('',#1258);
#373=VERTEX_POINT('',#1262);
#374=VERTEX_POINT('',#1264);
#375=VERTEX_POINT('',#1268);
#376=VERTEX_POINT('',#1269);
#377=VERTEX_POINT('',#1271);
#378=VERTEX_POINT('',#1273);
#379=VERTEX_POINT('',#1280);
#380=VERTEX_POINT('',#1281);
#381=VERTEX_POINT('',#1283);
#382=VERTEX_POINT('',#1285);
#383=VERTEX_POINT('',#1292);
#384=VERTEX_POINT('',#1294);
#385=VERTEX_POINT('',#1301);
#386=VERTEX_POINT('',#1302);
#387=VERTEX_POINT('',#1304);
#388=VERTEX_POINT('',#1306);
#389=VERTEX_POINT('',#1310);
#390=VERTEX_POINT('',#1312);
#391=VERTEX_POINT('',#1316);
#392=VERTEX_POINT('',#1318);
#393=VERTEX_POINT('',#1322);
#394=VERTEX_POINT('',#1324);
#395=VERTEX_POINT('',#1328);
#396=VERTEX_POINT('',#1330);
#397=VERTEX_POINT('',#1332);
#398=VERTEX_POINT('',#1335);
#399=VERTEX_POINT('',#1337);
#400=VERTEX_POINT('',#1339);
#401=VERTEX_POINT('',#1341);
#402=VERTEX_POINT('',#1344);
#403=VERTEX_POINT('',#1345);
#404=VERTEX_POINT('',#1347);
#405=VERTEX_POINT('',#1349);
#406=VERTEX_POINT('',#1353);
#407=VERTEX_POINT('',#1355);
#408=VERTEX_POINT('',#1359);
#409=VERTEX_POINT('',#1361);
#410=VERTEX_POINT('',#1363);
#411=VERTEX_POINT('',#1366);
#412=VERTEX_POINT('',#1368);
#413=VERTEX_POINT('',#1369);
#414=VERTEX_POINT('',#1371);
#415=VERTEX_POINT('',#1373);
#416=VERTEX_POINT('',#1377);
#417=VERTEX_POINT('',#1381);
#418=VERTEX_POINT('',#1385);
#419=VERTEX_POINT('',#1386);
#420=VERTEX_POINT('',#1388);
#421=VERTEX_POINT('',#1390);
#422=VERTEX_POINT('',#1394);
#423=VERTEX_POINT('',#1396);
#424=VERTEX_POINT('',#1400);
#425=VERTEX_POINT('',#1402);
#426=VERTEX_POINT('',#1404);
#427=VERTEX_POINT('',#1407);
#428=VERTEX_POINT('',#1410);
#429=VERTEX_POINT('',#1414);
#430=VERTEX_POINT('',#1418);
#431=VERTEX_POINT('',#1422);
#432=VERTEX_POINT('',#1426);
#433=VERTEX_POINT('',#1430);
#434=VERTEX_POINT('',#1434);
#435=VERTEX_POINT('',#1438);
#436=VERTEX_POINT('',#1442);
#437=VERTEX_POINT('',#1444);
#438=VERTEX_POINT('',#1448);
#439=VERTEX_POINT('',#1452);
#440=VERTEX_POINT('',#1458);
#441=VERTEX_POINT('',#1466);
#442=VERTEX_POINT('',#1470);
#443=VERTEX_POINT('',#1477);
#444=VERTEX_POINT('',#1487);
#445=EDGE_CURVE('',#369,#370,#325,.T.);
#446=EDGE_CURVE('',#370,#371,#169,.T.);
#447=EDGE_CURVE('',#371,#372,#326,.T.);
#448=EDGE_CURVE('',#372,#369,#170,.T.);
#449=EDGE_CURVE('',#370,#373,#171,.T.);
#450=EDGE_CURVE('',#374,#373,#172,.T.);
#451=EDGE_CURVE('',#371,#374,#173,.T.);
#452=EDGE_CURVE('',#375,#376,#327,.T.);
#453=EDGE_CURVE('',#376,#377,#174,.T.);
#454=EDGE_CURVE('',#377,#378,#328,.T.);
#455=EDGE_CURVE('',#378,#375,#175,.T.);
#456=EDGE_CURVE('',#377,#372,#176,.T.);
#457=EDGE_CURVE('',#376,#369,#177,.T.);
#458=EDGE_CURVE('',#379,#380,#329,.T.);
#459=EDGE_CURVE('',#380,#381,#178,.T.);
#460=EDGE_CURVE('',#381,#382,#330,.T.);
#461=EDGE_CURVE('',#382,#379,#179,.T.);
#462=EDGE_CURVE('',#381,#378,#180,.T.);
#463=EDGE_CURVE('',#380,#375,#181,.T.);
#464=EDGE_CURVE('',#373,#383,#331,.T.);
#465=EDGE_CURVE('',#383,#384,#182,.T.);
#466=EDGE_CURVE('',#384,#374,#332,.T.);
#467=EDGE_CURVE('',#384,#382,#183,.T.);
#468=EDGE_CURVE('',#383,#379,#184,.T.);
#469=EDGE_CURVE('',#385,#386,#333,.T.);
#470=EDGE_CURVE('',#386,#387,#185,.T.);
#471=EDGE_CURVE('',#387,#388,#334,.T.);
#472=EDGE_CURVE('',#388,#385,#186,.T.);
#473=EDGE_CURVE('',#386,#389,#187,.T.);
#474=EDGE_CURVE('',#390,#389,#188,.T.);
#475=EDGE_CURVE('',#387,#390,#189,.T.);
#476=EDGE_CURVE('',#391,#390,#335,.T.);
#477=EDGE_CURVE('',#389,#392,#336,.T.);
#478=EDGE_CURVE('',#392,#391,#190,.T.);
#479=EDGE_CURVE('',#392,#393,#191,.T.);
#480=EDGE_CURVE('',#393,#394,#192,.T.);
#481=EDGE_CURVE('',#391,#394,#193,.T.);
#482=EDGE_CURVE('',#395,#385,#194,.T.);
#483=EDGE_CURVE('',#395,#396,#195,.T.);
#484=EDGE_CURVE('',#397,#396,#196,.T.);
#485=EDGE_CURVE('',#397,#393,#197,.T.);
#486=EDGE_CURVE('',#398,#398,#337,.T.);
#487=EDGE_CURVE('',#399,#399,#338,.T.);
#488=EDGE_CURVE('',#400,#400,#339,.T.);
#489=EDGE_CURVE('',#401,#401,#340,.T.);
#490=EDGE_CURVE('',#402,#403,#341,.T.);
#491=EDGE_CURVE('',#403,#404,#198,.T.);
#492=EDGE_CURVE('',#404,#405,#342,.T.);
#493=EDGE_CURVE('',#405,#402,#199,.T.);
#494=EDGE_CURVE('',#406,#405,#200,.T.);
#495=EDGE_CURVE('',#407,#406,#201,.T.);
#496=EDGE_CURVE('',#402,#407,#202,.T.);
#497=EDGE_CURVE('',#404,#408,#203,.T.);
#498=EDGE_CURVE('',#408,#409,#204,.T.);
#499=EDGE_CURVE('',#410,#409,#205,.T.);
#500=EDGE_CURVE('',#406,#410,#343,.T.);
#501=EDGE_CURVE('',#411,#411,#344,.T.);
#502=EDGE_CURVE('',#412,#413,#206,.T.);
#503=EDGE_CURVE('',#413,#414,#345,.T.);
#504=EDGE_CURVE('',#414,#415,#207,.T.);
#505=EDGE_CURVE('',#415,#412,#346,.T.);
#506=EDGE_CURVE('',#416,#407,#347,.T.);
#507=EDGE_CURVE('',#410,#416,#208,.T.);
#508=EDGE_CURVE('',#409,#417,#209,.T.);
#509=EDGE_CURVE('',#416,#417,#210,.T.);
#510=EDGE_CURVE('',#418,#419,#348,.T.);
#511=EDGE_CURVE('',#419,#420,#211,.T.);
#512=EDGE_CURVE('',#420,#421,#349,.T.);
#513=EDGE_CURVE('',#421,#418,#212,.T.);
#514=EDGE_CURVE('',#422,#421,#213,.T.);
#515=EDGE_CURVE('',#423,#422,#214,.T.);
#516=EDGE_CURVE('',#418,#423,#215,.T.);
#517=EDGE_CURVE('',#420,#424,#216,.T.);
#518=EDGE_CURVE('',#424,#425,#217,.T.);
#519=EDGE_CURVE('',#426,#425,#218,.T.);
#520=EDGE_CURVE('',#422,#426,#350,.T.);
#521=EDGE_CURVE('',#427,#427,#351,.T.);
#522=EDGE_CURVE('',#428,#423,#352,.T.);
#523=EDGE_CURVE('',#426,#428,#219,.T.);
#524=EDGE_CURVE('',#425,#429,#220,.T.);
#525=EDGE_CURVE('',#428,#429,#221,.T.);
#526=EDGE_CURVE('',#401,#430,#222,.T.);
#527=EDGE_CURVE('',#430,#430,#353,.T.);
#528=EDGE_CURVE('',#400,#431,#223,.T.);
#529=EDGE_CURVE('',#431,#431,#354,.T.);
#530=EDGE_CURVE('',#399,#432,#224,.T.);
#531=EDGE_CURVE('',#432,#432,#355,.T.);
#532=EDGE_CURVE('',#398,#433,#225,.T.);
#533=EDGE_CURVE('',#433,#433,#356,.T.);
#534=EDGE_CURVE('',#434,#434,#357,.T.);
#535=EDGE_CURVE('',#434,#411,#226,.T.);
#536=EDGE_CURVE('',#427,#435,#227,.T.);
#537=EDGE_CURVE('',#435,#435,#358,.T.);
#538=EDGE_CURVE('',#436,#414,#228,.T.);
#539=EDGE_CURVE('',#437,#436,#229,.T.);
#540=EDGE_CURVE('',#437,#415,#230,.T.);
#541=EDGE_CURVE('',#438,#437,#359,.T.);
#542=EDGE_CURVE('',#438,#412,#231,.T.);
#543=EDGE_CURVE('',#439,#438,#232,.T.);
#544=EDGE_CURVE('',#439,#413,#233,.T.);
#545=EDGE_CURVE('',#436,#439,#360,.T.);
#546=EDGE_CURVE('',#429,#440,#234,.T.);
#547=EDGE_CURVE('',#429,#396,#361,.T.);
#548=EDGE_CURVE('',#395,#440,#362,.T.);
#549=EDGE_CURVE('',#440,#419,#235,.T.);
#550=EDGE_CURVE('',#440,#424,#236,.T.);
#551=EDGE_CURVE('',#425,#441,#363,.T.);
#552=EDGE_CURVE('',#396,#441,#237,.T.);
#553=EDGE_CURVE('',#442,#395,#238,.T.);
#554=EDGE_CURVE('',#424,#442,#364,.T.);
#555=EDGE_CURVE('',#441,#442,#239,.T.);
#556=EDGE_CURVE('',#417,#443,#240,.T.);
#557=EDGE_CURVE('',#417,#393,#365,.T.);
#558=EDGE_CURVE('',#397,#443,#366,.T.);
#559=EDGE_CURVE('',#443,#403,#241,.T.);
#560=EDGE_CURVE('',#443,#408,#242,.T.);
#561=EDGE_CURVE('',#409,#394,#367,.T.);
#562=EDGE_CURVE('',#444,#397,#243,.T.);
#563=EDGE_CURVE('',#408,#444,#368,.T.);
#564=EDGE_CURVE('',#394,#444,#244,.T.);
#565=EDGE_CURVE('',#442,#388,#245,.T.);
#566=EDGE_CURVE('',#444,#441,#246,.T.);
#567=ORIENTED_EDGE('',*,*,#445,.T.);
#568=ORIENTED_EDGE('',*,*,#446,.T.);
#569=ORIENTED_EDGE('',*,*,#447,.T.);
#570=ORIENTED_EDGE('',*,*,#448,.T.);
#571=ORIENTED_EDGE('',*,*,#446,.F.);
#572=ORIENTED_EDGE('',*,*,#449,.T.);
#573=ORIENTED_EDGE('',*,*,#450,.F.);
#574=ORIENTED_EDGE('',*,*,#451,.F.);
#575=ORIENTED_EDGE('',*,*,#452,.T.);
#576=ORIENTED_EDGE('',*,*,#453,.T.);
#577=ORIENTED_EDGE('',*,*,#454,.T.);
#578=ORIENTED_EDGE('',*,*,#455,.T.);
#579=ORIENTED_EDGE('',*,*,#448,.F.);
#580=ORIENTED_EDGE('',*,*,#456,.F.);
#581=ORIENTED_EDGE('',*,*,#453,.F.);
#582=ORIENTED_EDGE('',*,*,#457,.T.);
#583=ORIENTED_EDGE('',*,*,#458,.T.);
#584=ORIENTED_EDGE('',*,*,#459,.T.);
#585=ORIENTED_EDGE('',*,*,#460,.T.);
#586=ORIENTED_EDGE('',*,*,#461,.T.);
#587=ORIENTED_EDGE('',*,*,#455,.F.);
#588=ORIENTED_EDGE('',*,*,#462,.F.);
#589=ORIENTED_EDGE('',*,*,#459,.F.);
#590=ORIENTED_EDGE('',*,*,#463,.T.);
#591=ORIENTED_EDGE('',*,*,#464,.T.);
#592=ORIENTED_EDGE('',*,*,#465,.T.);
#593=ORIENTED_EDGE('',*,*,#466,.T.);
#594=ORIENTED_EDGE('',*,*,#450,.T.);
#595=ORIENTED_EDGE('',*,*,#461,.F.);
#596=ORIENTED_EDGE('',*,*,#467,.F.);
#597=ORIENTED_EDGE('',*,*,#465,.F.);
#598=ORIENTED_EDGE('',*,*,#468,.T.);
#599=ORIENTED_EDGE('',*,*,#469,.T.);
#600=ORIENTED_EDGE('',*,*,#470,.T.);
#601=ORIENTED_EDGE('',*,*,#471,.T.);
#602=ORIENTED_EDGE('',*,*,#472,.T.);
#603=ORIENTED_EDGE('',*,*,#470,.F.);
#604=ORIENTED_EDGE('',*,*,#473,.T.);
#605=ORIENTED_EDGE('',*,*,#474,.F.);
#606=ORIENTED_EDGE('',*,*,#475,.F.);
#607=ORIENTED_EDGE('',*,*,#476,.T.);
#608=ORIENTED_EDGE('',*,*,#474,.T.);
#609=ORIENTED_EDGE('',*,*,#477,.T.);
#610=ORIENTED_EDGE('',*,*,#478,.T.);
#611=ORIENTED_EDGE('',*,*,#478,.F.);
#612=ORIENTED_EDGE('',*,*,#479,.T.);
#613=ORIENTED_EDGE('',*,*,#480,.T.);
#614=ORIENTED_EDGE('',*,*,#481,.F.);
#615=ORIENTED_EDGE('',*,*,#477,.F.);
#616=ORIENTED_EDGE('',*,*,#473,.F.);
#617=ORIENTED_EDGE('',*,*,#469,.F.);
#618=ORIENTED_EDGE('',*,*,#482,.F.);
#619=ORIENTED_EDGE('',*,*,#483,.T.);
#620=ORIENTED_EDGE('',*,*,#484,.F.);
#621=ORIENTED_EDGE('',*,*,#485,.T.);
#622=ORIENTED_EDGE('',*,*,#479,.F.);
#623=ORIENTED_EDGE('',*,*,#464,.F.);
#624=ORIENTED_EDGE('',*,*,#449,.F.);
#625=ORIENTED_EDGE('',*,*,#445,.F.);
#626=ORIENTED_EDGE('',*,*,#457,.F.);
#627=ORIENTED_EDGE('',*,*,#452,.F.);
#628=ORIENTED_EDGE('',*,*,#463,.F.);
#629=ORIENTED_EDGE('',*,*,#458,.F.);
#630=ORIENTED_EDGE('',*,*,#468,.F.);
#631=ORIENTED_EDGE('',*,*,#486,.T.);
#632=ORIENTED_EDGE('',*,*,#487,.T.);
#633=ORIENTED_EDGE('',*,*,#488,.T.);
#634=ORIENTED_EDGE('',*,*,#489,.T.);
#635=ORIENTED_EDGE('',*,*,#490,.T.);
#636=ORIENTED_EDGE('',*,*,#491,.T.);
#637=ORIENTED_EDGE('',*,*,#492,.T.);
#638=ORIENTED_EDGE('',*,*,#493,.T.);
#639=ORIENTED_EDGE('',*,*,#493,.F.);
#640=ORIENTED_EDGE('',*,*,#494,.F.);
#641=ORIENTED_EDGE('',*,*,#495,.F.);
#642=ORIENTED_EDGE('',*,*,#496,.F.);
#643=ORIENTED_EDGE('',*,*,#492,.F.);
#644=ORIENTED_EDGE('',*,*,#497,.T.);
#645=ORIENTED_EDGE('',*,*,#498,.T.);
#646=ORIENTED_EDGE('',*,*,#499,.F.);
#647=ORIENTED_EDGE('',*,*,#500,.F.);
#648=ORIENTED_EDGE('',*,*,#494,.T.);
#649=ORIENTED_EDGE('',*,*,#501,.T.);
#650=ORIENTED_EDGE('',*,*,#502,.T.);
#651=ORIENTED_EDGE('',*,*,#503,.T.);
#652=ORIENTED_EDGE('',*,*,#504,.T.);
#653=ORIENTED_EDGE('',*,*,#505,.T.);
#654=ORIENTED_EDGE('',*,*,#506,.T.);
#655=ORIENTED_EDGE('',*,*,#495,.T.);
#656=ORIENTED_EDGE('',*,*,#500,.T.);
#657=ORIENTED_EDGE('',*,*,#507,.T.);
#658=ORIENTED_EDGE('',*,*,#507,.F.);
#659=ORIENTED_EDGE('',*,*,#499,.T.);
#660=ORIENTED_EDGE('',*,*,#508,.T.);
#661=ORIENTED_EDGE('',*,*,#509,.F.);
#662=ORIENTED_EDGE('',*,*,#510,.T.);
#663=ORIENTED_EDGE('',*,*,#511,.T.);
#664=ORIENTED_EDGE('',*,*,#512,.T.);
#665=ORIENTED_EDGE('',*,*,#513,.T.);
#666=ORIENTED_EDGE('',*,*,#513,.F.);
#667=ORIENTED_EDGE('',*,*,#514,.F.);
#668=ORIENTED_EDGE('',*,*,#515,.F.);
#669=ORIENTED_EDGE('',*,*,#516,.F.);
#670=ORIENTED_EDGE('',*,*,#512,.F.);
#671=ORIENTED_EDGE('',*,*,#517,.T.);
#672=ORIENTED_EDGE('',*,*,#518,.T.);
#673=ORIENTED_EDGE('',*,*,#519,.F.);
#674=ORIENTED_EDGE('',*,*,#520,.F.);
#675=ORIENTED_EDGE('',*,*,#514,.T.);
#676=ORIENTED_EDGE('',*,*,#521,.T.);
#677=ORIENTED_EDGE('',*,*,#522,.T.);
#678=ORIENTED_EDGE('',*,*,#515,.T.);
#679=ORIENTED_EDGE('',*,*,#520,.T.);
#680=ORIENTED_EDGE('',*,*,#523,.T.);
#681=ORIENTED_EDGE('',*,*,#523,.F.);
#682=ORIENTED_EDGE('',*,*,#519,.T.);
#683=ORIENTED_EDGE('',*,*,#524,.T.);
#684=ORIENTED_EDGE('',*,*,#525,.F.);
#685=ORIENTED_EDGE('',*,*,#489,.F.);
#686=ORIENTED_EDGE('',*,*,#526,.T.);
#687=ORIENTED_EDGE('',*,*,#527,.F.);
#688=ORIENTED_EDGE('',*,*,#526,.F.);
#689=ORIENTED_EDGE('',*,*,#488,.F.);
#690=ORIENTED_EDGE('',*,*,#528,.T.);
#691=ORIENTED_EDGE('',*,*,#529,.F.);
#692=ORIENTED_EDGE('',*,*,#528,.F.);
#693=ORIENTED_EDGE('',*,*,#487,.F.);
#694=ORIENTED_EDGE('',*,*,#530,.T.);
#695=ORIENTED_EDGE('',*,*,#531,.F.);
#696=ORIENTED_EDGE('',*,*,#530,.F.);
#697=ORIENTED_EDGE('',*,*,#486,.F.);
#698=ORIENTED_EDGE('',*,*,#532,.T.);
#699=ORIENTED_EDGE('',*,*,#533,.F.);
#700=ORIENTED_EDGE('',*,*,#532,.F.);
#701=ORIENTED_EDGE('',*,*,#534,.F.);
#702=ORIENTED_EDGE('',*,*,#535,.T.);
#703=ORIENTED_EDGE('',*,*,#501,.F.);
#704=ORIENTED_EDGE('',*,*,#535,.F.);
#705=ORIENTED_EDGE('',*,*,#521,.F.);
#706=ORIENTED_EDGE('',*,*,#536,.T.);
#707=ORIENTED_EDGE('',*,*,#537,.F.);
#708=ORIENTED_EDGE('',*,*,#536,.F.);
#709=ORIENTED_EDGE('',*,*,#504,.F.);
#710=ORIENTED_EDGE('',*,*,#538,.F.);
#711=ORIENTED_EDGE('',*,*,#539,.F.);
#712=ORIENTED_EDGE('',*,*,#540,.T.);
#713=ORIENTED_EDGE('',*,*,#505,.F.);
#714=ORIENTED_EDGE('',*,*,#540,.F.);
#715=ORIENTED_EDGE('',*,*,#541,.F.);
#716=ORIENTED_EDGE('',*,*,#542,.T.);
#717=ORIENTED_EDGE('',*,*,#502,.F.);
#718=ORIENTED_EDGE('',*,*,#542,.F.);
#719=ORIENTED_EDGE('',*,*,#543,.F.);
#720=ORIENTED_EDGE('',*,*,#544,.T.);
#721=ORIENTED_EDGE('',*,*,#503,.F.);
#722=ORIENTED_EDGE('',*,*,#544,.F.);
#723=ORIENTED_EDGE('',*,*,#545,.F.);
#724=ORIENTED_EDGE('',*,*,#538,.T.);
#725=ORIENTED_EDGE('',*,*,#546,.F.);
#726=ORIENTED_EDGE('',*,*,#547,.T.);
#727=ORIENTED_EDGE('',*,*,#483,.F.);
#728=ORIENTED_EDGE('',*,*,#548,.T.);
#729=ORIENTED_EDGE('',*,*,#511,.F.);
#730=ORIENTED_EDGE('',*,*,#549,.F.);
#731=ORIENTED_EDGE('',*,*,#550,.T.);
#732=ORIENTED_EDGE('',*,*,#517,.F.);
#733=ORIENTED_EDGE('',*,*,#524,.F.);
#734=ORIENTED_EDGE('',*,*,#551,.T.);
#735=ORIENTED_EDGE('',*,*,#552,.F.);
#736=ORIENTED_EDGE('',*,*,#547,.F.);
#737=ORIENTED_EDGE('',*,*,#550,.F.);
#738=ORIENTED_EDGE('',*,*,#548,.F.);
#739=ORIENTED_EDGE('',*,*,#553,.F.);
#740=ORIENTED_EDGE('',*,*,#554,.F.);
#741=ORIENTED_EDGE('',*,*,#518,.F.);
#742=ORIENTED_EDGE('',*,*,#554,.T.);
#743=ORIENTED_EDGE('',*,*,#555,.F.);
#744=ORIENTED_EDGE('',*,*,#551,.F.);
#745=ORIENTED_EDGE('',*,*,#510,.F.);
#746=ORIENTED_EDGE('',*,*,#516,.T.);
#747=ORIENTED_EDGE('',*,*,#522,.F.);
#748=ORIENTED_EDGE('',*,*,#525,.T.);
#749=ORIENTED_EDGE('',*,*,#546,.T.);
#750=ORIENTED_EDGE('',*,*,#549,.T.);
#751=ORIENTED_EDGE('',*,*,#537,.T.);
#752=ORIENTED_EDGE('',*,*,#556,.F.);
#753=ORIENTED_EDGE('',*,*,#557,.T.);
#754=ORIENTED_EDGE('',*,*,#485,.F.);
#755=ORIENTED_EDGE('',*,*,#558,.T.);
#756=ORIENTED_EDGE('',*,*,#491,.F.);
#757=ORIENTED_EDGE('',*,*,#559,.F.);
#758=ORIENTED_EDGE('',*,*,#560,.T.);
#759=ORIENTED_EDGE('',*,*,#497,.F.);
#760=ORIENTED_EDGE('',*,*,#508,.F.);
#761=ORIENTED_EDGE('',*,*,#561,.T.);
#762=ORIENTED_EDGE('',*,*,#480,.F.);
#763=ORIENTED_EDGE('',*,*,#557,.F.);
#764=ORIENTED_EDGE('',*,*,#560,.F.);
#765=ORIENTED_EDGE('',*,*,#558,.F.);
#766=ORIENTED_EDGE('',*,*,#562,.F.);
#767=ORIENTED_EDGE('',*,*,#563,.F.);
#768=ORIENTED_EDGE('',*,*,#498,.F.);
#769=ORIENTED_EDGE('',*,*,#563,.T.);
#770=ORIENTED_EDGE('',*,*,#564,.F.);
#771=ORIENTED_EDGE('',*,*,#561,.F.);
#772=ORIENTED_EDGE('',*,*,#490,.F.);
#773=ORIENTED_EDGE('',*,*,#496,.T.);
#774=ORIENTED_EDGE('',*,*,#506,.F.);
#775=ORIENTED_EDGE('',*,*,#509,.T.);
#776=ORIENTED_EDGE('',*,*,#556,.T.);
#777=ORIENTED_EDGE('',*,*,#559,.T.);
#778=ORIENTED_EDGE('',*,*,#534,.T.);
#779=ORIENTED_EDGE('',*,*,#543,.T.);
#780=ORIENTED_EDGE('',*,*,#541,.T.);
#781=ORIENTED_EDGE('',*,*,#539,.T.);
#782=ORIENTED_EDGE('',*,*,#545,.T.);
#783=ORIENTED_EDGE('',*,*,#472,.F.);
#784=ORIENTED_EDGE('',*,*,#565,.F.);
#785=ORIENTED_EDGE('',*,*,#553,.T.);
#786=ORIENTED_EDGE('',*,*,#482,.T.);
#787=ORIENTED_EDGE('',*,*,#552,.T.);
#788=ORIENTED_EDGE('',*,*,#566,.F.);
#789=ORIENTED_EDGE('',*,*,#562,.T.);
#790=ORIENTED_EDGE('',*,*,#484,.T.);
#791=ORIENTED_EDGE('',*,*,#476,.F.);
#792=ORIENTED_EDGE('',*,*,#481,.T.);
#793=ORIENTED_EDGE('',*,*,#564,.T.);
#794=ORIENTED_EDGE('',*,*,#566,.T.);
#795=ORIENTED_EDGE('',*,*,#555,.T.);
#796=ORIENTED_EDGE('',*,*,#565,.T.);
#797=ORIENTED_EDGE('',*,*,#471,.F.);
#798=ORIENTED_EDGE('',*,*,#475,.T.);
#799=ORIENTED_EDGE('',*,*,#527,.T.);
#800=ORIENTED_EDGE('',*,*,#529,.T.);
#801=ORIENTED_EDGE('',*,*,#531,.T.);
#802=ORIENTED_EDGE('',*,*,#533,.T.);
#803=ORIENTED_EDGE('',*,*,#467,.T.);
#804=ORIENTED_EDGE('',*,*,#460,.F.);
#805=ORIENTED_EDGE('',*,*,#462,.T.);
#806=ORIENTED_EDGE('',*,*,#454,.F.);
#807=ORIENTED_EDGE('',*,*,#456,.T.);
#808=ORIENTED_EDGE('',*,*,#447,.F.);
#809=ORIENTED_EDGE('',*,*,#451,.T.);
#810=ORIENTED_EDGE('',*,*,#466,.F.);
#811=CYLINDRICAL_SURFACE('',#895,2.);
#812=CYLINDRICAL_SURFACE('',#899,2.);
#813=CYLINDRICAL_SURFACE('',#903,2.);
#814=CYLINDRICAL_SURFACE('',#907,2.);
#815=CYLINDRICAL_SURFACE('',#911,10.);
#816=CYLINDRICAL_SURFACE('',#915,10.);
#817=CYLINDRICAL_SURFACE('',#924,15.);
#818=CYLINDRICAL_SURFACE('',#933,15.);
#819=CYLINDRICAL_SURFACE('',#936,15.);
#820=CYLINDRICAL_SURFACE('',#943,15.);
#821=CYLINDRICAL_SURFACE('',#946,1.2645);
#822=CYLINDRICAL_SURFACE('',#948,1.2645);
#823=CYLINDRICAL_SURFACE('',#950,1.2645);
#824=CYLINDRICAL_SURFACE('',#952,1.2645);
#825=CYLINDRICAL_SURFACE('',#954,3.5);
#826=CYLINDRICAL_SURFACE('',#956,3.5);
#827=CYLINDRICAL_SURFACE('',#959,3.5);
#828=CYLINDRICAL_SURFACE('',#962,3.5);
#829=CYLINDRICAL_SURFACE('',#964,5.99999999999996);
#830=CYLINDRICAL_SURFACE('',#972,2.99999999999998);
#831=CYLINDRICAL_SURFACE('',#974,6.00000000000001);
#832=CYLINDRICAL_SURFACE('',#982,3.00000000000001);
#833=ADVANCED_FACE('',(#57),#811,.F.);
#834=ADVANCED_FACE('',(#58),#31,.T.);
#835=ADVANCED_FACE('',(#59),#812,.F.);
#836=ADVANCED_FACE('',(#60),#32,.T.);
#837=ADVANCED_FACE('',(#61),#813,.F.);
#838=ADVANCED_FACE('',(#62),#33,.T.);
#839=ADVANCED_FACE('',(#63),#814,.F.);
#840=ADVANCED_FACE('',(#64),#34,.T.);
#841=ADVANCED_FACE('',(#65),#815,.F.);
#842=ADVANCED_FACE('',(#66),#35,.T.);
#843=ADVANCED_FACE('',(#67),#816,.T.);
#844=ADVANCED_FACE('',(#68),#36,.T.);
#845=ADVANCED_FACE('',(#69,#15,#16,#17,#18,#19),#37,.F.);
#846=ADVANCED_FACE('',(#70),#817,.T.);
#847=ADVANCED_FACE('',(#71),#38,.T.);
#848=ADVANCED_FACE('',(#72,#20,#21),#39,.F.);
#849=ADVANCED_FACE('',(#73),#818,.T.);
#850=ADVANCED_FACE('',(#74),#40,.T.);
#851=ADVANCED_FACE('',(#75),#819,.T.);
#852=ADVANCED_FACE('',(#76),#41,.T.);
#853=ADVANCED_FACE('',(#77,#22),#42,.F.);
#854=ADVANCED_FACE('',(#78),#820,.T.);
#855=ADVANCED_FACE('',(#79),#43,.T.);
#856=ADVANCED_FACE('',(#80),#821,.F.);
#857=ADVANCED_FACE('',(#81),#822,.F.);
#858=ADVANCED_FACE('',(#82),#823,.F.);
#859=ADVANCED_FACE('',(#83),#824,.F.);
#860=ADVANCED_FACE('',(#84),#825,.F.);
#861=ADVANCED_FACE('',(#85),#826,.F.);
#862=ADVANCED_FACE('',(#86),#44,.F.);
#863=ADVANCED_FACE('',(#87),#827,.F.);
#864=ADVANCED_FACE('',(#88),#45,.F.);
#865=ADVANCED_FACE('',(#89),#828,.F.);
#866=ADVANCED_FACE('',(#90),#829,.T.);
#867=ADVANCED_FACE('',(#91),#46,.T.);
#868=ADVANCED_FACE('',(#92),#47,.T.);
#869=ADVANCED_FACE('',(#93),#48,.T.);
#870=ADVANCED_FACE('',(#94),#830,.F.);
#871=ADVANCED_FACE('',(#95,#23),#49,.T.);
#872=ADVANCED_FACE('',(#96),#831,.T.);
#873=ADVANCED_FACE('',(#97),#50,.T.);
#874=ADVANCED_FACE('',(#98),#51,.T.);
#875=ADVANCED_FACE('',(#99),#52,.T.);
#876=ADVANCED_FACE('',(#100),#832,.F.);
#877=ADVANCED_FACE('',(#101,#24,#25),#53,.T.);
#878=ADVANCED_FACE('',(#102),#54,.T.);
#879=ADVANCED_FACE('',(#103),#55,.T.);
#880=ADVANCED_FACE('',(#104,#26,#27,#28,#29,#30),#56,.T.);
#881=CLOSED_SHELL('',(#833,#834,#835,#836,#837,#838,#839,#840,#841,#842,
#843,#844,#845,#846,#847,#848,#849,#850,#851,#852,#853,#854,#855,#856,#857,
#858,#859,#860,#861,#862,#863,#864,#865,#866,#867,#868,#869,#870,#871,#872,
#873,#874,#875,#876,#877,#878,#879,#880));
#882=DERIVED_UNIT_ELEMENT(#884,1.);
#883=DERIVED_UNIT_ELEMENT(#1503,3.);
#884=(
MASS_UNIT()
NAMED_UNIT(*)
SI_UNIT(.KILO.,.GRAM.)
);
#885=DERIVED_UNIT((#882,#883));
#886=MEASURE_REPRESENTATION_ITEM('density measure',
POSITIVE_RATIO_MEASURE(7850.),#885);
#887=PROPERTY_DEFINITION_REPRESENTATION(#892,#889);
#888=PROPERTY_DEFINITION_REPRESENTATION(#893,#890);
#889=REPRESENTATION('material name',(#891),#1500);
#890=REPRESENTATION('density',(#886),#1500);
#891=DESCRIPTIVE_REPRESENTATION_ITEM('Steel','Steel');
#892=PROPERTY_DEFINITION('material property','material name',#1510);
#893=PROPERTY_DEFINITION('material property','density of part',#1510);
#894=AXIS2_PLACEMENT_3D('placement',#1251,#987,#988);
#895=AXIS2_PLACEMENT_3D('',#1252,#989,#990);
#896=AXIS2_PLACEMENT_3D('',#1255,#991,#992);
#897=AXIS2_PLACEMENT_3D('',#1259,#994,#995);
#898=AXIS2_PLACEMENT_3D('',#1261,#997,#998);
#899=AXIS2_PLACEMENT_3D('',#1267,#1002,#1003);
#900=AXIS2_PLACEMENT_3D('',#1270,#1004,#1005);
#901=AXIS2_PLACEMENT_3D('',#1274,#1007,#1008);
#902=AXIS2_PLACEMENT_3D('',#1276,#1010,#1011);
#903=AXIS2_PLACEMENT_3D('',#1279,#1014,#1015);
#904=AXIS2_PLACEMENT_3D('',#1282,#1016,#1017);
#905=AXIS2_PLACEMENT_3D('',#1286,#1019,#1020);
#906=AXIS2_PLACEMENT_3D('',#1288,#1022,#1023);
#907=AXIS2_PLACEMENT_3D('',#1291,#1026,#1027);
#908=AXIS2_PLACEMENT_3D('',#1293,#1028,#1029);
#909=AXIS2_PLACEMENT_3D('',#1296,#1031,#1032);
#910=AXIS2_PLACEMENT_3D('',#1297,#1033,#1034);
#911=AXIS2_PLACEMENT_3D('',#1300,#1037,#1038);
#912=AXIS2_PLACEMENT_3D('',#1303,#1039,#1040);
#913=AXIS2_PLACEMENT_3D('',#1307,#1042,#1043);
#914=AXIS2_PLACEMENT_3D('',#1309,#1045,#1046);
#915=AXIS2_PLACEMENT_3D('',#1315,#1050,#1051);
#916=AXIS2_PLACEMENT_3D('',#1317,#1052,#1053);
#917=AXIS2_PLACEMENT_3D('',#1319,#1054,#1055);
#918=AXIS2_PLACEMENT_3D('',#1321,#1057,#1058);
#919=AXIS2_PLACEMENT_3D('',#1327,#1062,#1063);
#920=AXIS2_PLACEMENT_3D('',#1336,#1068,#1069);
#921=AXIS2_PLACEMENT_3D('',#1338,#1070,#1071);
#922=AXIS2_PLACEMENT_3D('',#1340,#1072,#1073);
#923=AXIS2_PLACEMENT_3D('',#1342,#1074,#1075);
#924=AXIS2_PLACEMENT_3D('',#1343,#1076,#1077);
#925=AXIS2_PLACEMENT_3D('',#1346,#1078,#1079);
#926=AXIS2_PLACEMENT_3D('',#1350,#1081,#1082);
#927=AXIS2_PLACEMENT_3D('',#1352,#1084,#1085);
#928=AXIS2_PLACEMENT_3D('',#1358,#1089,#1090);
#929=AXIS2_PLACEMENT_3D('',#1365,#1094,#1095);
#930=AXIS2_PLACEMENT_3D('',#1367,#1096,#1097);
#931=AXIS2_PLACEMENT_3D('',#1372,#1099,#1100);
#932=AXIS2_PLACEMENT_3D('',#1375,#1102,#1103);
#933=AXIS2_PLACEMENT_3D('',#1376,#1104,#1105);
#934=AXIS2_PLACEMENT_3D('',#1378,#1106,#1107);
#935=AXIS2_PLACEMENT_3D('',#1380,#1109,#1110);
#936=AXIS2_PLACEMENT_3D('',#1384,#1113,#1114);
#937=AXIS2_PLACEMENT_3D('',#1387,#1115,#1116);
#938=AXIS2_PLACEMENT_3D('',#1391,#1118,#1119);
#939=AXIS2_PLACEMENT_3D('',#1393,#1121,#1122);
#940=AXIS2_PLACEMENT_3D('',#1399,#1126,#1127);
#941=AXIS2_PLACEMENT_3D('',#1406,#1131,#1132);
#942=AXIS2_PLACEMENT_3D('',#1408,#1133,#1134);
#943=AXIS2_PLACEMENT_3D('',#1409,#1135,#1136);
#944=AXIS2_PLACEMENT_3D('',#1411,#1137,#1138);
#945=AXIS2_PLACEMENT_3D('',#1413,#1140,#1141);
#946=AXIS2_PLACEMENT_3D('',#1417,#1144,#1145);
#947=AXIS2_PLACEMENT_3D('',#1420,#1147,#1148);
#948=AXIS2_PLACEMENT_3D('',#1421,#1149,#1150);
#949=AXIS2_PLACEMENT_3D('',#1424,#1152,#1153);
#950=AXIS2_PLACEMENT_3D('',#1425,#1154,#1155);
#951=AXIS2_PLACEMENT_3D('',#1428,#1157,#1158);
#952=AXIS2_PLACEMENT_3D('',#1429,#1159,#1160);
#953=AXIS2_PLACEMENT_3D('',#1432,#1162,#1163);
#954=AXIS2_PLACEMENT_3D('',#1433,#1164,#1165);
#955=AXIS2_PLACEMENT_3D('',#1435,#1166,#1167);
#956=AXIS2_PLACEMENT_3D('',#1437,#1169,#1170);
#957=AXIS2_PLACEMENT_3D('',#1440,#1172,#1173);
#958=AXIS2_PLACEMENT_3D('',#1441,#1174,#1175);
#959=AXIS2_PLACEMENT_3D('',#1447,#1179,#1180);
#960=AXIS2_PLACEMENT_3D('',#1449,#1181,#1182);
#961=AXIS2_PLACEMENT_3D('',#1451,#1184,#1185);
#962=AXIS2_PLACEMENT_3D('',#1455,#1188,#1189);
#963=AXIS2_PLACEMENT_3D('',#1456,#1190,#1191);
#964=AXIS2_PLACEMENT_3D('',#1457,#1192,#1193);
#965=AXIS2_PLACEMENT_3D('',#1460,#1195,#1196);
#966=AXIS2_PLACEMENT_3D('',#1461,#1197,#1198);
#967=AXIS2_PLACEMENT_3D('',#1462,#1199,#1200);
#968=AXIS2_PLACEMENT_3D('',#1465,#1203,#1204);
#969=AXIS2_PLACEMENT_3D('',#1467,#1205,#1206);
#970=AXIS2_PLACEMENT_3D('',#1469,#1208,#1209);
#971=AXIS2_PLACEMENT_3D('',#1472,#1211,#1212);
#972=AXIS2_PLACEMENT_3D('',#1473,#1213,#1214);
#973=AXIS2_PLACEMENT_3D('',#1475,#1216,#1217);
#974=AXIS2_PLACEMENT_3D('',#1476,#1218,#1219);
#975=AXIS2_PLACEMENT_3D('',#1479,#1221,#1222);
#976=AXIS2_PLACEMENT_3D('',#1480,#1223,#1224);
#977=AXIS2_PLACEMENT_3D('',#1481,#1225,#1226);
#978=AXIS2_PLACEMENT_3D('',#1484,#1229,#1230);
#979=AXIS2_PLACEMENT_3D('',#1485,#1231,#1232);
#980=AXIS2_PLACEMENT_3D('',#1486,#1233,#1234);
#981=AXIS2_PLACEMENT_3D('',#1489,#1236,#1237);
#982=AXIS2_PLACEMENT_3D('',#1490,#1238,#1239);
#983=AXIS2_PLACEMENT_3D('',#1492,#1241,#1242);
#984=AXIS2_PLACEMENT_3D('',#1493,#1243,#1244);
#985=AXIS2_PLACEMENT_3D('',#1495,#1246,#1247);
#986=AXIS2_PLACEMENT_3D('',#1497,#1249,#1250);
#987=DIRECTION('axis',(0.,0.,1.));
#988=DIRECTION('refdir',(1.,0.,0.));
#989=DIRECTION('center_axis',(0.,0.,1.));
#990=DIRECTION('ref_axis',(0.707106781186541,0.707106781186554,0.));
#991=DIRECTION('center_axis',(0.,0.,-1.));
#992=DIRECTION('ref_axis',(0.707106781186541,0.707106781186554,0.));
#993=DIRECTION('',(0.,0.,1.));
#994=DIRECTION('center_axis',(0.,0.,1.));
#995=DIRECTION('ref_axis',(0.707106781186541,0.707106781186554,0.));
#996=DIRECTION('',(0.,0.,-1.));
#997=DIRECTION('center_axis',(-1.,0.,0.));
#998=DIRECTION('ref_axis',(0.,-1.,0.));
#999=DIRECTION('',(0.,-1.,0.));
#1000=DIRECTION('',(0.,0.,-1.));
#1001=DIRECTION('',(0.,-1.,0.));
#1002=DIRECTION('center_axis',(0.,0.,1.));
#1003=DIRECTION('ref_axis',(-0.707106781186551,0.707106781186544,0.));
#1004=DIRECTION('center_axis',(0.,0.,-1.));
#1005=DIRECTION('ref_axis',(-0.707106781186551,0.707106781186544,0.));
#1006=DIRECTION('',(0.,0.,1.));
#1007=DIRECTION('center_axis',(0.,0.,1.));
#1008=DIRECTION('ref_axis',(-0.707106781186551,0.707106781186544,0.));
#1009=DIRECTION('',(0.,0.,-1.));
#1010=DIRECTION('center_axis',(0.,-1.,0.));
#1011=DIRECTION('ref_axis',(1.,0.,0.));
#1012=DIRECTION('',(1.,0.,0.));
#1013=DIRECTION('',(1.,0.,0.));
#1014=DIRECTION('center_axis',(0.,0.,1.));
#1015=DIRECTION('ref_axis',(-0.707106781186554,-0.707106781186541,0.));
#1016=DIRECTION('center_axis',(0.,0.,-1.));
#1017=DIRECTION('ref_axis',(-0.707106781186554,-0.707106781186541,0.));
#1018=DIRECTION('',(0.,0.,1.));
#1019=DIRECTION('center_axis',(0.,0.,1.));
#1020=DIRECTION('ref_axis',(-0.707106781186554,-0.707106781186541,0.));
#1021=DIRECTION('',(0.,0.,-1.));
#1022=DIRECTION('center_axis',(1.,0.,0.));
#1023=DIRECTION('ref_axis',(0.,1.,0.));
#1024=DIRECTION('',(0.,1.,0.));
#1025=DIRECTION('',(0.,1.,0.));
#1026=DIRECTION('center_axis',(0.,0.,1.));
#1027=DIRECTION('ref_axis',(0.707106781186551,-0.707106781186544,0.));
#1028=DIRECTION('center_axis',(0.,0.,-1.));
#1029=DIRECTION('ref_axis',(0.707106781186551,-0.707106781186544,0.));
#1030=DIRECTION('',(0.,0.,1.));
#1031=DIRECTION('center_axis',(0.,0.,1.));
#1032=DIRECTION('ref_axis',(0.707106781186551,-0.707106781186544,0.));
#1033=DIRECTION('center_axis',(0.,1.,0.));
#1034=DIRECTION('ref_axis',(-1.,0.,0.));
#1035=DIRECTION('',(-1.,0.,0.));
#1036=DIRECTION('',(-1.,0.,0.));
#1037=DIRECTION('center_axis',(0.,0.,1.));
#1038=DIRECTION('ref_axis',(-0.382683432365089,-0.923879532511287,0.));
#1039=DIRECTION('center_axis',(0.,0.,-1.));
#1040=DIRECTION('ref_axis',(-0.382683432365089,-0.923879532511287,0.));
#1041=DIRECTION('',(0.,0.,1.));
#1042=DIRECTION('center_axis',(0.,0.,1.));
#1043=DIRECTION('ref_axis',(-0.382683432365089,-0.923879532511287,0.));
#1044=DIRECTION('',(0.,0.,-1.));
#1045=DIRECTION('center_axis',(0.707106781186547,0.707106781186548,0.));
#1046=DIRECTION('ref_axis',(-0.707106781186548,0.707106781186547,0.));
#1047=DIRECTION('',(-0.707106781186548,0.707106781186547,0.));
#1048=DIRECTION('',(0.,0.,-1.));
#1049=DIRECTION('',(-0.707106781186548,0.707106781186547,0.));
#1050=DIRECTION('center_axis',(0.,0.,1.));
#1051=DIRECTION('ref_axis',(0.382683432365089,0.923879532511287,0.));
#1052=DIRECTION('center_axis',(0.,0.,-1.));
#1053=DIRECTION('ref_axis',(0.382683432365089,0.923879532511287,0.));
#1054=DIRECTION('center_axis',(0.,0.,1.));
#1055=DIRECTION('ref_axis',(0.382683432365089,0.923879532511287,0.));
#1056=DIRECTION('',(0.,0.,1.));
#1057=DIRECTION('center_axis',(-2.22044604925031E-16,1.,0.));
#1058=DIRECTION('ref_axis',(-1.,-2.22044604925031E-16,0.));
#1059=DIRECTION('',(-1.,-2.22044604925031E-16,0.));
#1060=DIRECTION('',(0.,0.,1.));
#1061=DIRECTION('',(-1.,-2.22044604925031E-16,0.));
#1062=DIRECTION('center_axis',(0.,0.,1.));
#1063=DIRECTION('ref_axis',(1.,0.,0.));
#1064=DIRECTION('',(-1.,1.58603289232165E-16,0.));
#1065=DIRECTION('',(0.,-1.,0.));
#1066=DIRECTION('',(1.,0.,0.));
#1067=DIRECTION('',(0.,1.,0.));
#1068=DIRECTION('center_axis',(0.,0.,1.));
#1069=DIRECTION('ref_axis',(-1.,0.,0.));
#1070=DIRECTION('center_axis',(0.,0.,1.));
#1071=DIRECTION('ref_axis',(-1.,0.,0.));
#1072=DIRECTION('center_axis',(0.,0.,1.));
#1073=DIRECTION('ref_axis',(-1.,0.,0.));
#1074=DIRECTION('center_axis',(0.,0.,1.));
#1075=DIRECTION('ref_axis',(-1.,0.,0.));
#1076=DIRECTION('center_axis',(-1.,0.,-5.39030285815812E-15));
#1077=DIRECTION('ref_axis',(-3.34953057852539E-15,-0.707106781186547,0.707106781186547));
#1078=DIRECTION('center_axis',(1.,0.,5.39030285815812E-15));
#1079=DIRECTION('ref_axis',(-3.34953057852539E-15,-0.707106781186547,0.707106781186547));
#1080=DIRECTION('',(1.,0.,5.39030285815812E-15));
#1081=DIRECTION('center_axis',(-1.,0.,-5.35968668817944E-15));
#1082=DIRECTION('ref_axis',(-3.34953057852539E-15,-0.707106781186547,0.707106781186547));
#1083=DIRECTION('',(-1.,0.,-5.39030285815812E-15));
#1084=DIRECTION('center_axis',(-5.39030285815812E-15,0.,1.));
#1085=DIRECTION('ref_axis',(0.,1.,0.));
#1086=DIRECTION('',(0.,-1.,0.));
#1087=DIRECTION('',(1.,0.,5.39030285815812E-15));
#1088=DIRECTION('',(0.,1.,0.));
#1089=DIRECTION('center_axis',(-1.,0.,-5.35968668817944E-15));
#1090=DIRECTION('ref_axis',(-5.35968668817944E-15,0.,1.));
#1091=DIRECTION('',(5.32907051820075E-15,0.,-1.));
#1092=DIRECTION('',(0.,1.,0.));
#1093=DIRECTION('',(5.32907051820075E-15,0.,-1.));
#1094=DIRECTION('center_axis',(-1.,0.,-5.35968668817944E-15));
#1095=DIRECTION('ref_axis',(-3.34953057852539E-15,0.707106781186547,0.707106781186547));
#1096=DIRECTION('center_axis',(-1.,0.,-5.35968668817944E-15));
#1097=DIRECTION('ref_axis',(0.,-1.,0.));
#1098=DIRECTION('',(1.1424859326708E-28,-1.,-2.13162820728029E-14));
#1099=DIRECTION('center_axis',(-1.,0.,-5.35968668817944E-15));
#1100=DIRECTION('ref_axis',(0.,-1.,0.));
#1101=DIRECTION('',(-1.1424859326708E-28,1.,2.1316282072803E-14));
#1102=DIRECTION('center_axis',(-1.,0.,-5.35968668817944E-15));
#1103=DIRECTION('ref_axis',(0.,-1.,0.));
#1104=DIRECTION('center_axis',(-1.,0.,-5.39030285815812E-15));
#1105=DIRECTION('ref_axis',(-3.34953057852539E-15,0.707106781186547,0.707106781186547));
#1106=DIRECTION('center_axis',(1.,0.,5.39030285815812E-15));
#1107=DIRECTION('ref_axis',(-3.34953057852539E-15,0.707106781186547,0.707106781186547));
#1108=DIRECTION('',(-1.,0.,-5.39030285815812E-15));
#1109=DIRECTION('center_axis',(0.,1.,0.));
#1110=DIRECTION('ref_axis',(5.39030285815812E-15,0.,-1.));
#1111=DIRECTION('',(-1.,0.,-5.39030285815812E-15));
#1112=DIRECTION('',(5.39030285815812E-15,0.,-1.));
#1113=DIRECTION('center_axis',(1.,0.,1.71512449944288E-15));
#1114=DIRECTION('ref_axis',(0.,0.707106781186547,0.707106781186547));
#1115=DIRECTION('center_axis',(-1.,0.,-1.71512449944288E-15));
#1116=DIRECTION('ref_axis',(0.,0.707106781186547,0.707106781186547));
#1117=DIRECTION('',(-1.,0.,-1.71512449944288E-15));
#1118=DIRECTION('center_axis',(1.,0.,1.74574066942157E-15));
#1119=DIRECTION('ref_axis',(0.,0.707106781186547,0.707106781186547));
#1120=DIRECTION('',(1.,0.,1.71512449944288E-15));
#1121=DIRECTION('center_axis',(-1.71512449944288E-15,0.,1.));
#1122=DIRECTION('ref_axis',(0.,-1.,0.));
#1123=DIRECTION('',(0.,1.,0.));
#1124=DIRECTION('',(-1.,0.,-1.71512449944288E-15));
#1125=DIRECTION('',(0.,-1.,0.));
#1126=DIRECTION('center_axis',(1.,0.,1.74574066942157E-15));
#1127=DIRECTION('ref_axis',(1.74574066942157E-15,0.,-1.));
#1128=DIRECTION('',(1.77635683940025E-15,0.,-1.));
#1129=DIRECTION('',(0.,-1.,0.));
#1130=DIRECTION('',(1.77635683940025E-15,0.,-1.));
#1131=DIRECTION('center_axis',(1.,0.,1.74574066942157E-15));
#1132=DIRECTION('ref_axis',(0.,-0.707106781186547,0.707106781186547));
#1133=DIRECTION('center_axis',(1.,0.,1.74574066942157E-15));
#1134=DIRECTION('ref_axis',(0.,-1.,0.));
#1135=DIRECTION('center_axis',(1.,0.,1.71512449944288E-15));
#1136=DIRECTION('ref_axis',(0.,-0.707106781186547,0.707106781186547));
#1137=DIRECTION('center_axis',(-1.,0.,-1.71512449944288E-15));
#1138=DIRECTION('ref_axis',(0.,-0.707106781186547,0.707106781186547));
#1139=DIRECTION('',(1.,0.,1.71512449944288E-15));
#1140=DIRECTION('center_axis',(0.,-1.,0.));
#1141=DIRECTION('ref_axis',(1.71512449944288E-15,0.,-1.));
#1142=DIRECTION('',(1.,0.,1.71512449944288E-15));
#1143=DIRECTION('',(1.71512449944288E-15,0.,-1.));
#1144=DIRECTION('center_axis',(0.,0.,1.));
#1145=DIRECTION('ref_axis',(-1.,0.,0.));
#1146=DIRECTION('',(0.,0.,1.));
#1147=DIRECTION('center_axis',(0.,0.,-1.));
#1148=DIRECTION('ref_axis',(-1.,0.,0.));
#1149=DIRECTION('center_axis',(0.,0.,1.));
#1150=DIRECTION('ref_axis',(-1.,0.,0.));
#1151=DIRECTION('',(0.,0.,1.));
#1152=DIRECTION('center_axis',(0.,0.,-1.));
#1153=DIRECTION('ref_axis',(-1.,0.,0.));
#1154=DIRECTION('center_axis',(0.,0.,1.));
#1155=DIRECTION('ref_axis',(-1.,0.,0.));
#1156=DIRECTION('',(0.,0.,1.));
#1157=DIRECTION('center_axis',(0.,0.,-1.));
#1158=DIRECTION('ref_axis',(-1.,0.,0.));
#1159=DIRECTION('center_axis',(0.,0.,1.));
#1160=DIRECTION('ref_axis',(-1.,0.,0.));
#1161=DIRECTION('',(0.,0.,1.));
#1162=DIRECTION('center_axis',(0.,0.,-1.));
#1163=DIRECTION('ref_axis',(-1.,0.,0.));
#1164=DIRECTION('center_axis',(1.,0.,-1.71714494475358E-15));
#1165=DIRECTION('ref_axis',(0.,-1.,0.));
#1166=DIRECTION('center_axis',(1.,0.,5.39030285815812E-15));
#1167=DIRECTION('ref_axis',(0.,-1.,0.));
#1168=DIRECTION('',(1.,0.,-1.71714494475358E-15));
#1169=DIRECTION('center_axis',(1.,0.,-1.71714494475358E-15));
#1170=DIRECTION('ref_axis',(0.,-1.,0.));
#1171=DIRECTION('',(1.,0.,-1.71714494475358E-15));
#1172=DIRECTION('center_axis',(-1.,0.,-1.71512449944288E-15));
#1173=DIRECTION('ref_axis',(0.,-1.,0.));
#1174=DIRECTION('center_axis',(1.77635683940025E-15,-2.1316282072803E-14,
1.));
#1175=DIRECTION('ref_axis',(-3.65600776200995E-29,-1.,-2.1316282072803E-14));
#1176=DIRECTION('',(1.,0.,-1.77635683940025E-15));
#1177=DIRECTION('',(1.14901216182335E-28,-1.,-2.1316282072803E-14));
#1178=DIRECTION('',(1.,0.,-1.77635683940025E-15));
#1179=DIRECTION('center_axis',(1.,0.,-1.77635683940025E-15));
#1180=DIRECTION('ref_axis',(1.55596771326688E-29,1.,8.75931951708652E-15));
#1181=DIRECTION('center_axis',(1.,0.,5.39030285815812E-15));
#1182=DIRECTION('ref_axis',(0.,-1.,0.));
#1183=DIRECTION('',(1.,0.,-1.77635683940025E-15));
#1184=DIRECTION('center_axis',(-1.77635683940025E-15,2.13162820728029E-14,
-1.));
#1185=DIRECTION('ref_axis',(3.65600776200993E-29,1.,2.13162820728029E-14));
#1186=DIRECTION('',(-1.14901216182334E-28,1.,2.13162820728029E-14));
#1187=DIRECTION('',(1.,0.,-1.77635683940025E-15));
#1188=DIRECTION('center_axis',(1.,0.,-1.77635683940025E-15));
#1189=DIRECTION('ref_axis',(0.,-1.,0.));
#1190=DIRECTION('center_axis',(1.,0.,5.39030285815812E-15));
#1191=DIRECTION('ref_axis',(0.,-1.,0.));
#1192=DIRECTION('center_axis',(0.,-1.,0.));
#1193=DIRECTION('ref_axis',(0.,0.,-1.));
#1194=DIRECTION('',(0.,1.,0.));
#1195=DIRECTION('center_axis',(0.,1.,0.));
#1196=DIRECTION('ref_axis',(1.,0.,1.66533453693775E-15));
#1197=DIRECTION('center_axis',(0.,-1.,0.));
#1198=DIRECTION('ref_axis',(0.,0.,-1.));
#1199=DIRECTION('center_axis',(0.,1.,0.));
#1200=DIRECTION('ref_axis',(-1.77635683940025E-15,0.,1.));
#1201=DIRECTION('',(-1.77635683940025E-15,0.,1.));
#1202=DIRECTION('',(-1.,0.,-1.71512449944288E-15));
#1203=DIRECTION('center_axis',(0.,-1.,0.));
#1204=DIRECTION('ref_axis',(0.,0.,-1.));
#1205=DIRECTION('center_axis',(0.,1.,0.));
#1206=DIRECTION('ref_axis',(1.,0.,1.85037170770859E-15));
#1207=DIRECTION('',(0.,0.,1.));
#1208=DIRECTION('center_axis',(0.,1.,0.));
#1209=DIRECTION('ref_axis',(0.,0.,1.));
#1210=DIRECTION('',(0.,0.,-1.));
#1211=DIRECTION('center_axis',(0.,1.,0.));
#1212=DIRECTION('ref_axis',(1.,0.,1.85037170770859E-15));
#1213=DIRECTION('center_axis',(0.,-1.,0.));
#1214=DIRECTION('ref_axis',(0.,0.,-1.));
#1215=DIRECTION('',(0.,1.,0.));
#1216=DIRECTION('center_axis',(1.,0.,1.71512449944288E-15));
#1217=DIRECTION('ref_axis',(1.71512449944288E-15,0.,-1.));
#1218=DIRECTION('center_axis',(0.,1.,0.));
#1219=DIRECTION('ref_axis',(0.,0.,-1.));
#1220=DIRECTION('',(0.,-1.,0.));
#1221=DIRECTION('center_axis',(0.,-1.,0.));
#1222=DIRECTION('ref_axis',(-1.,0.,-5.36607795235491E-15));
#1223=DIRECTION('center_axis',(0.,1.,0.));
#1224=DIRECTION('ref_axis',(0.,0.,-1.));
#1225=DIRECTION('center_axis',(0.,-1.,0.));
#1226=DIRECTION('ref_axis',(-5.32907051820075E-15,0.,1.));
#1227=DIRECTION('',(-5.32907051820075E-15,0.,1.));
#1228=DIRECTION('',(1.,0.,5.39030285815812E-15));
#1229=DIRECTION('center_axis',(0.,1.,0.));
#1230=DIRECTION('ref_axis',(0.,0.,1.));
#1231=DIRECTION('center_axis',(0.,-1.,0.));
#1232=DIRECTION('ref_axis',(-1.,0.,-5.55111512312577E-15));
#1233=DIRECTION('center_axis',(0.,-1.,0.));
#1234=DIRECTION('ref_axis',(0.,0.,-1.));
#1235=DIRECTION('',(0.,0.,-1.));
#1236=DIRECTION('center_axis',(0.,-1.,0.));
#1237=DIRECTION('ref_axis',(-1.,0.,-5.55111512312577E-15));
#1238=DIRECTION('center_axis',(0.,1.,0.));
#1239=DIRECTION('ref_axis',(0.,0.,-1.));
#1240=DIRECTION('',(0.,-1.,0.));
#1241=DIRECTION('center_axis',(-1.,0.,-5.39030285815812E-15));
#1242=DIRECTION('ref_axis',(-5.39030285815812E-15,0.,1.));
#1243=DIRECTION('center_axis',(1.58603289232165E-16,1.,0.));
#1244=DIRECTION('ref_axis',(-1.,1.58603289232165E-16,0.));
#1245=DIRECTION('',(-1.,1.58603289232165E-16,0.));
#1246=DIRECTION('center_axis',(0.,-1.,0.));
#1247=DIRECTION('ref_axis',(1.,0.,0.));
#1248=DIRECTION('',(1.,0.,0.));
#1249=DIRECTION('center_axis',(0.,0.,1.));
#1250=DIRECTION('ref_axis',(1.,0.,0.));
#1251=CARTESIAN_POINT('',(0.,0.,0.));
#1252=CARTESIAN_POINT('Origin',(177.9000373458,-41.790532827145,0.));
#1253=CARTESIAN_POINT('',(177.9000373458,-39.790532827145,0.));
#1254=CARTESIAN_POINT('',(179.9000373458,-41.790532827145,0.));
#1255=CARTESIAN_POINT('Origin',(177.9000373458,-41.790532827145,0.));
#1256=CARTESIAN_POINT('',(179.9000373458,-41.790532827145,3.));
#1257=CARTESIAN_POINT('',(179.9000373458,-41.790532827145,0.));
#1258=CARTESIAN_POINT('',(177.9000373458,-39.790532827145,3.));
#1259=CARTESIAN_POINT('Origin',(177.9000373458,-41.790532827145,3.));
#1260=CARTESIAN_POINT('',(177.9000373458,-39.790532827145,0.));
#1261=CARTESIAN_POINT('Origin',(179.9000373458,-39.790532827145,0.));
#1262=CARTESIAN_POINT('',(179.9000373458,-72.790532827145,0.));
#1263=CARTESIAN_POINT('',(179.9000373458,-39.790532827145,0.));
#1264=CARTESIAN_POINT('',(179.9000373458,-72.790532827145,3.));
#1265=CARTESIAN_POINT('',(179.9000373458,-72.790532827145,0.));
#1266=CARTESIAN_POINT('',(179.9000373458,-39.790532827145,3.));
#1267=CARTESIAN_POINT('Origin',(169.9000373458,-41.7905328271451,0.));
#1268=CARTESIAN_POINT('',(167.9000373458,-41.7905328271451,0.));
#1269=CARTESIAN_POINT('',(169.9000373458,-39.790532827145,0.));
#1270=CARTESIAN_POINT('Origin',(169.9000373458,-41.7905328271451,0.));
#1271=CARTESIAN_POINT('',(169.9000373458,-39.790532827145,3.));
#1272=CARTESIAN_POINT('',(169.9000373458,-39.790532827145,0.));
#1273=CARTESIAN_POINT('',(167.9000373458,-41.7905328271451,3.));
#1274=CARTESIAN_POINT('Origin',(169.9000373458,-41.7905328271451,3.));
#1275=CARTESIAN_POINT('',(167.9000373458,-41.7905328271451,0.));
#1276=CARTESIAN_POINT('Origin',(167.9000373458,-39.790532827145,0.));
#1277=CARTESIAN_POINT('',(167.9000373458,-39.790532827145,3.));
#1278=CARTESIAN_POINT('',(167.9000373458,-39.790532827145,0.));
#1279=CARTESIAN_POINT('Origin',(169.9000373458,-72.7905328271451,0.));
#1280=CARTESIAN_POINT('',(169.9000373458,-74.790532827145,0.));
#1281=CARTESIAN_POINT('',(167.9000373458,-72.7905328271451,0.));
#1282=CARTESIAN_POINT('Origin',(169.9000373458,-72.7905328271451,0.));
#1283=CARTESIAN_POINT('',(167.9000373458,-72.7905328271451,3.));
#1284=CARTESIAN_POINT('',(167.9000373458,-72.7905328271451,0.));
#1285=CARTESIAN_POINT('',(169.9000373458,-74.790532827145,3.));
#1286=CARTESIAN_POINT('Origin',(169.9000373458,-72.7905328271451,3.));
#1287=CARTESIAN_POINT('',(169.9000373458,-74.790532827145,0.));
#1288=CARTESIAN_POINT('Origin',(167.9000373458,-74.790532827145,0.));
#1289=CARTESIAN_POINT('',(167.9000373458,-74.790532827145,3.));
#1290=CARTESIAN_POINT('',(167.9000373458,-74.790532827145,0.));
#1291=CARTESIAN_POINT('Origin',(177.9000373458,-72.790532827145,0.));
#1292=CARTESIAN_POINT('',(177.9000373458,-74.790532827145,0.));
#1293=CARTESIAN_POINT('Origin',(177.9000373458,-72.790532827145,0.));
#1294=CARTESIAN_POINT('',(177.9000373458,-74.790532827145,3.));
#1295=CARTESIAN_POINT('',(177.9000373458,-74.790532827145,0.));
#1296=CARTESIAN_POINT('Origin',(177.9000373458,-72.790532827145,3.));
#1297=CARTESIAN_POINT('Origin',(179.9000373458,-74.790532827145,0.));
#1298=CARTESIAN_POINT('',(179.9000373458,-74.790532827145,3.));
#1299=CARTESIAN_POINT('',(179.9000373458,-74.790532827145,0.));
#1300=CARTESIAN_POINT('Origin',(195.042172969531,-29.790532827145,0.));
#1301=CARTESIAN_POINT('',(195.042172969531,-39.790532827145,0.));
#1302=CARTESIAN_POINT('',(187.971105157666,-36.8616006390105,0.));
#1303=CARTESIAN_POINT('Origin',(195.042172969531,-29.790532827145,0.));
#1304=CARTESIAN_POINT('',(187.971105157666,-36.8616006390105,3.));
#1305=CARTESIAN_POINT('',(187.971105157666,-36.8616006390105,0.));
#1306=CARTESIAN_POINT('',(195.042172969531,-39.790532827145,3.));
#1307=CARTESIAN_POINT('Origin',(195.042172969531,-29.790532827145,3.));
#1308=CARTESIAN_POINT('',(195.042172969531,-39.790532827145,0.));
#1309=CARTESIAN_POINT('Origin',(190.9000373458,-39.790532827145,0.));
#1310=CARTESIAN_POINT('',(173.828969533935,-22.7194650152796,0.));
#1311=CARTESIAN_POINT('',(190.9000373458,-39.790532827145,0.));
#1312=CARTESIAN_POINT('',(173.828969533935,-22.7194650152796,3.));
#1313=CARTESIAN_POINT('',(173.828969533935,-22.7194650152796,0.));
#1314=CARTESIAN_POINT('',(190.9000373458,-39.790532827145,3.));
#1315=CARTESIAN_POINT('Origin',(166.757901722069,-29.7905328271451,0.));
#1316=CARTESIAN_POINT('',(166.757901722069,-19.7905328271451,3.));
#1317=CARTESIAN_POINT('Origin',(166.757901722069,-29.7905328271451,3.));
#1318=CARTESIAN_POINT('',(166.757901722069,-19.7905328271451,0.));
#1319=CARTESIAN_POINT('Origin',(166.757901722069,-29.7905328271451,0.));
#1320=CARTESIAN_POINT('',(166.757901722069,-19.7905328271451,0.));
#1321=CARTESIAN_POINT('Origin',(170.9000373458,-19.7905328271451,0.));
#1322=CARTESIAN_POINT('',(163.9000373458,-19.7905328271451,0.));
#1323=CARTESIAN_POINT('',(170.9000373458,-19.7905328271451,0.));
#1324=CARTESIAN_POINT('',(163.9000373458,-19.7905328271451,3.));
#1325=CARTESIAN_POINT('',(163.9000373458,-19.7905328271451,1.5));
#1326=CARTESIAN_POINT('',(170.9000373458,-19.7905328271451,3.));
#1327=CARTESIAN_POINT('Origin',(217.9000373458,-49.790532827145,0.));
#1328=CARTESIAN_POINT('',(271.9000373458,-39.7905328271451,0.));
#1329=CARTESIAN_POINT('',(274.9000373458,-39.7905328271451,0.));
#1330=CARTESIAN_POINT('',(271.9000373458,-79.790532827145,0.));
#1331=CARTESIAN_POINT('',(271.9000373458,-64.790532827145,0.));
#1332=CARTESIAN_POINT('',(163.9000373458,-79.790532827145,0.));
#1333=CARTESIAN_POINT('',(160.9000373458,-79.790532827145,0.));
#1334=CARTESIAN_POINT('',(163.9000373458,-34.7905328271451,0.));
#1335=CARTESIAN_POINT('',(268.1645373458,-44.790532827145,0.));
#1336=CARTESIAN_POINT('Origin',(266.9000373458,-44.790532827145,0.));
#1337=CARTESIAN_POINT('',(170.1645373458,-24.7905328271451,0.));
#1338=CARTESIAN_POINT('Origin',(168.9000373458,-24.7905328271451,0.));
#1339=CARTESIAN_POINT('',(188.1645373458,-74.790532827145,0.));
#1340=CARTESIAN_POINT('Origin',(186.9000373458,-74.790532827145,0.));
#1341=CARTESIAN_POINT('',(268.1645373458,-74.790532827145,0.));
#1342=CARTESIAN_POINT('Origin',(266.9000373458,-74.790532827145,0.));
#1343=CARTESIAN_POINT('Origin',(160.9000373458,-64.790532827145,9.99999999999995));
#1344=CARTESIAN_POINT('',(157.9000373458,-64.790532827145,24.9999999999999));
#1345=CARTESIAN_POINT('',(157.9000373458,-79.790532827145,9.99999999999993));
#1346=CARTESIAN_POINT('Origin',(157.9000373458,-64.790532827145,9.99999999999993));
#1347=CARTESIAN_POINT('',(160.9000373458,-79.790532827145,9.99999999999995));
#1348=CARTESIAN_POINT('',(160.9000373458,-79.790532827145,9.99999999999995));
#1349=CARTESIAN_POINT('',(160.9000373458,-64.790532827145,24.9999999999999));
#1350=CARTESIAN_POINT('Origin',(160.9000373458,-64.790532827145,9.99999999999995));
#1351=CARTESIAN_POINT('',(160.9000373458,-64.790532827145,24.9999999999999));
#1352=CARTESIAN_POINT('Origin',(160.9000373458,-79.790532827145,24.9999999999999));
#1353=CARTESIAN_POINT('',(160.9000373458,-34.7905328271451,24.9999999999999));
#1354=CARTESIAN_POINT('',(160.9000373458,-19.7905328271451,24.9999999999999));
#1355=CARTESIAN_POINT('',(157.9000373458,-34.7905328271451,24.9999999999999));
#1356=CARTESIAN_POINT('',(160.9000373458,-34.7905328271451,24.9999999999999));
#1357=CARTESIAN_POINT('',(157.9000373458,-19.7905328271451,24.9999999999999));
#1358=CARTESIAN_POINT('Origin',(160.9000373458,-49.790532827145,12.107079934123));
#1359=CARTESIAN_POINT('',(160.9000373458,-79.790532827145,5.99999999999996));
#1360=CARTESIAN_POINT('',(160.9000373458,-79.790532827145,-7.57168026350797));
#1361=CARTESIAN_POINT('',(160.9000373458,-19.7905328271451,5.99999999999996));
#1362=CARTESIAN_POINT('',(160.9000373458,-49.790532827145,5.99999999999996));
#1363=CARTESIAN_POINT('',(160.9000373458,-19.7905328271451,9.99999999999995));
#1364=CARTESIAN_POINT('',(160.9000373458,-19.7905328271451,-7.57168026350797));
#1365=CARTESIAN_POINT('Origin',(160.9000373458,-34.7905328271451,9.99999999999995));
#1366=CARTESIAN_POINT('',(160.9000373458,-56.2905328271451,15.9999999999992));
#1367=CARTESIAN_POINT('Origin',(160.9000373458,-59.790532827145,15.9999999999992));
#1368=CARTESIAN_POINT('',(160.9000373458,-34.790532827145,12.4999999999997));
#1369=CARTESIAN_POINT('',(160.9000373458,-44.790532827145,12.4999999999995));
#1370=CARTESIAN_POINT('',(160.9000373458,-47.290532827145,12.4999999999995));
#1371=CARTESIAN_POINT('',(160.9000373458,-44.7905328271451,19.4999999999995));
#1372=CARTESIAN_POINT('Origin',(160.9000373458,-44.790532827145,15.9999999999995));
#1373=CARTESIAN_POINT('',(160.9000373458,-34.790532827145,19.4999999999997));
#1374=CARTESIAN_POINT('',(160.9000373458,-42.2905328271451,19.4999999999996));
#1375=CARTESIAN_POINT('Origin',(160.9000373458,-34.7905328271451,15.9999999999997));
#1376=CARTESIAN_POINT('Origin',(160.9000373458,-34.7905328271451,9.99999999999995));
#1377=CARTESIAN_POINT('',(157.9000373458,-19.7905328271451,9.99999999999993));
#1378=CARTESIAN_POINT('Origin',(157.9000373458,-34.7905328271451,9.99999999999993));
#1379=CARTESIAN_POINT('',(160.9000373458,-19.7905328271451,9.99999999999995));
#1380=CARTESIAN_POINT('Origin',(160.9000373458,-19.7905328271451,24.9999999999999));
#1381=CARTESIAN_POINT('',(157.9000373458,-19.7905328271451,5.99999999999994));
#1382=CARTESIAN_POINT('',(160.2400373458,-19.7905328271451,5.99999999999996));
#1383=CARTESIAN_POINT('',(157.9000373458,-19.7905328271451,5.99999999999993));
#1384=CARTESIAN_POINT('Origin',(274.9000373458,-54.7905328271451,10.));
#1385=CARTESIAN_POINT('',(277.9000373458,-54.7905328271451,25.));
#1386=CARTESIAN_POINT('',(277.9000373458,-39.7905328271451,10.));
#1387=CARTESIAN_POINT('Origin',(277.9000373458,-54.7905328271451,10.));
#1388=CARTESIAN_POINT('',(274.9000373458,-39.7905328271451,10.));
#1389=CARTESIAN_POINT('',(274.9000373458,-39.7905328271451,10.));
#1390=CARTESIAN_POINT('',(274.9000373458,-54.7905328271451,25.));
#1391=CARTESIAN_POINT('Origin',(274.9000373458,-54.7905328271451,10.));
#1392=CARTESIAN_POINT('',(274.9000373458,-54.7905328271451,25.));
#1393=CARTESIAN_POINT('Origin',(274.9000373458,-39.7905328271451,25.));
#1394=CARTESIAN_POINT('',(274.9000373458,-64.790532827145,25.));
#1395=CARTESIAN_POINT('',(274.9000373458,-79.790532827145,25.));
#1396=CARTESIAN_POINT('',(277.9000373458,-64.790532827145,25.));
#1397=CARTESIAN_POINT('',(274.9000373458,-64.790532827145,25.));
#1398=CARTESIAN_POINT('',(277.9000373458,-79.790532827145,25.));
#1399=CARTESIAN_POINT('Origin',(274.9000373458,-59.790532827145,12.1070799341231));
#1400=CARTESIAN_POINT('',(274.9000373458,-39.7905328271451,6.00000000000001));
#1401=CARTESIAN_POINT('',(274.9000373458,-39.7905328271451,-7.5716802635079));
#1402=CARTESIAN_POINT('',(274.9000373458,-79.790532827145,6.00000000000001));
#1403=CARTESIAN_POINT('',(274.9000373458,-59.790532827145,6.00000000000005));
#1404=CARTESIAN_POINT('',(274.9000373458,-79.790532827145,10.));
#1405=CARTESIAN_POINT('',(274.9000373458,-79.790532827145,-7.5716802635079));
#1406=CARTESIAN_POINT('Origin',(274.9000373458,-64.790532827145,10.));
#1407=CARTESIAN_POINT('',(274.9000373458,-56.2905328271451,15.999999999999));
#1408=CARTESIAN_POINT('Origin',(274.9000373458,-59.790532827145,15.999999999999));
#1409=CARTESIAN_POINT('Origin',(274.9000373458,-64.790532827145,10.));
#1410=CARTESIAN_POINT('',(277.9000373458,-79.790532827145,10.));
#1411=CARTESIAN_POINT('Origin',(277.9000373458,-64.790532827145,10.));
#1412=CARTESIAN_POINT('',(274.9000373458,-79.790532827145,10.));
#1413=CARTESIAN_POINT('Origin',(274.9000373458,-79.790532827145,25.));
#1414=CARTESIAN_POINT('',(277.9000373458,-79.790532827145,6.00000000000001));
#1415=CARTESIAN_POINT('',(275.5600373458,-79.790532827145,6.00000000000001));
#1416=CARTESIAN_POINT('',(277.9000373458,-79.790532827145,6.00000000000001));
#1417=CARTESIAN_POINT('Origin',(266.9000373458,-74.790532827145,2.));
#1418=CARTESIAN_POINT('',(268.1645373458,-74.790532827145,3.));
#1419=CARTESIAN_POINT('',(268.1645373458,-74.790532827145,2.));
#1420=CARTESIAN_POINT('Origin',(266.9000373458,-74.790532827145,3.));
#1421=CARTESIAN_POINT('Origin',(186.9000373458,-74.790532827145,2.));
#1422=CARTESIAN_POINT('',(188.1645373458,-74.790532827145,3.));
#1423=CARTESIAN_POINT('',(188.1645373458,-74.790532827145,2.));
#1424=CARTESIAN_POINT('Origin',(186.9000373458,-74.790532827145,3.));
#1425=CARTESIAN_POINT('Origin',(168.9000373458,-24.7905328271451,2.));
#1426=CARTESIAN_POINT('',(170.1645373458,-24.7905328271451,3.));
#1427=CARTESIAN_POINT('',(170.1645373458,-24.7905328271451,2.));
#1428=CARTESIAN_POINT('Origin',(168.9000373458,-24.7905328271451,3.));
#1429=CARTESIAN_POINT('Origin',(266.9000373458,-44.790532827145,2.));
#1430=CARTESIAN_POINT('',(268.1645373458,-44.790532827145,3.));
#1431=CARTESIAN_POINT('',(268.1645373458,-44.790532827145,2.));
#1432=CARTESIAN_POINT('Origin',(266.9000373458,-44.790532827145,3.));
#1433=CARTESIAN_POINT('Origin',(157.9000373458,-59.790532827145,15.9999999999992));
#1434=CARTESIAN_POINT('',(157.9000373458,-56.2905328271451,15.9999999999992));
#1435=CARTESIAN_POINT('Origin',(157.9000373458,-59.790532827145,15.9999999999992));
#1436=CARTESIAN_POINT('',(157.9000373458,-56.2905328271451,15.9999999999992));
#1437=CARTESIAN_POINT('Origin',(157.9000373458,-59.790532827145,15.9999999999992));
#1438=CARTESIAN_POINT('',(277.9000373458,-56.2905328271451,15.999999999999));
#1439=CARTESIAN_POINT('',(157.9000373458,-56.2905328271451,15.9999999999992));
#1440=CARTESIAN_POINT('Origin',(277.9000373458,-59.790532827145,15.999999999999));
#1441=CARTESIAN_POINT('Origin',(157.9000373458,-34.790532827145,19.4999999999997));
#1442=CARTESIAN_POINT('',(157.9000373458,-44.7905328271451,19.4999999999995));
#1443=CARTESIAN_POINT('',(157.9000373458,-44.7905328271451,19.4999999999995));
#1444=CARTESIAN_POINT('',(157.9000373458,-34.790532827145,19.4999999999997));
#1445=CARTESIAN_POINT('',(157.9000373458,-42.2905328271451,19.4999999999996));
#1446=CARTESIAN_POINT('',(157.9000373458,-34.790532827145,19.4999999999997));
#1447=CARTESIAN_POINT('Origin',(157.9000373458,-34.7905328271451,15.9999999999997));
#1448=CARTESIAN_POINT('',(157.9000373458,-34.790532827145,12.4999999999997));
#1449=CARTESIAN_POINT('Origin',(157.9000373458,-34.7905328271451,15.9999999999997));
#1450=CARTESIAN_POINT('',(157.9000373458,-34.790532827145,12.4999999999997));
#1451=CARTESIAN_POINT('Origin',(157.9000373458,-44.790532827145,12.4999999999995));
#1452=CARTESIAN_POINT('',(157.9000373458,-44.790532827145,12.4999999999995));
#1453=CARTESIAN_POINT('',(157.9000373458,-47.290532827145,12.4999999999995));
#1454=CARTESIAN_POINT('',(157.9000373458,-44.790532827145,12.4999999999995));
#1455=CARTESIAN_POINT('Origin',(157.9000373458,-44.790532827145,15.9999999999995));
#1456=CARTESIAN_POINT('Origin',(157.9000373458,-44.790532827145,15.9999999999995));
#1457=CARTESIAN_POINT('Origin',(271.9000373458,-59.790532827145,6.));
#1458=CARTESIAN_POINT('',(277.9000373458,-39.7905328271451,6.00000000000001));
#1459=CARTESIAN_POINT('',(277.9000373458,-59.790532827145,6.00000000000005));
#1460=CARTESIAN_POINT('Origin',(271.9000373458,-79.790532827145,6.));
#1461=CARTESIAN_POINT('Origin',(271.9000373458,-39.7905328271451,6.));
#1462=CARTESIAN_POINT('Origin',(274.9000373458,-39.7905328271451,-0.785840131753943));
#1463=CARTESIAN_POINT('',(277.9000373458,-39.7905328271451,-7.5716802635079));
#1464=CARTESIAN_POINT('',(275.5600373458,-39.7905328271451,6.00000000000001));
#1465=CARTESIAN_POINT('Origin',(274.9000373458,-79.790532827145,6.00000000000001));
#1466=CARTESIAN_POINT('',(271.9000373458,-79.790532827145,3.));
#1467=CARTESIAN_POINT('Origin',(271.9000373458,-79.790532827145,6.));
#1468=CARTESIAN_POINT('',(271.9000373458,-79.790532827145,1.5));
#1469=CARTESIAN_POINT('Origin',(277.9000373458,-39.7905328271451,6.00000000000001));
#1470=CARTESIAN_POINT('',(271.9000373458,-39.7905328271451,3.));
#1471=CARTESIAN_POINT('',(271.9000373458,-39.7905328271451,1.5));
#1472=CARTESIAN_POINT('Origin',(271.9000373458,-39.7905328271451,6.));
#1473=CARTESIAN_POINT('Origin',(271.9000373458,-59.790532827145,6.));
#1474=CARTESIAN_POINT('',(271.9000373458,-64.790532827145,3.));
#1475=CARTESIAN_POINT('Origin',(277.9000373458,-59.790532827145,12.1070799341231));
#1476=CARTESIAN_POINT('Origin',(163.9000373458,-49.790532827145,6.));
#1477=CARTESIAN_POINT('',(157.9000373458,-79.790532827145,5.99999999999994));
#1478=CARTESIAN_POINT('',(157.9000373458,-49.790532827145,5.99999999999994));
#1479=CARTESIAN_POINT('Origin',(163.9000373458,-19.7905328271451,6.));
#1480=CARTESIAN_POINT('Origin',(163.9000373458,-79.790532827145,6.));
#1481=CARTESIAN_POINT('Origin',(160.9000373458,-79.790532827145,-0.785840131754014));
#1482=CARTESIAN_POINT('',(157.9000373458,-79.790532827145,-7.57168026350797));
#1483=CARTESIAN_POINT('',(160.2400373458,-79.790532827145,5.99999999999996));
#1484=CARTESIAN_POINT('Origin',(160.9000373458,-19.7905328271451,5.99999999999998));
#1485=CARTESIAN_POINT('Origin',(163.9000373458,-19.7905328271451,6.));
#1486=CARTESIAN_POINT('Origin',(157.9000373458,-79.790532827145,5.99999999999997));
#1487=CARTESIAN_POINT('',(163.9000373458,-79.790532827145,3.));
#1488=CARTESIAN_POINT('',(163.9000373458,-79.790532827145,1.5));
#1489=CARTESIAN_POINT('Origin',(163.9000373458,-79.790532827145,6.));
#1490=CARTESIAN_POINT('Origin',(163.9000373458,-49.790532827145,6.));
#1491=CARTESIAN_POINT('',(163.9000373458,-34.7905328271451,3.));
#1492=CARTESIAN_POINT('Origin',(157.9000373458,-49.790532827145,12.1070799341229));
#1493=CARTESIAN_POINT('Origin',(274.9000373458,-39.7905328271451,0.));
#1494=CARTESIAN_POINT('',(274.9000373458,-39.7905328271451,3.));
#1495=CARTESIAN_POINT('Origin',(160.9000373458,-79.790532827145,0.));
#1496=CARTESIAN_POINT('',(160.9000373458,-79.790532827145,3.));
#1497=CARTESIAN_POINT('Origin',(217.9000373458,-49.790532827145,3.));
#1498=UNCERTAINTY_MEASURE_WITH_UNIT(LENGTH_MEASURE(0.01),#1502,
'DISTANCE_ACCURACY_VALUE',
'Maximum model space distance between geometric entities at asserted c
onnectivities');
#1499=UNCERTAINTY_MEASURE_WITH_UNIT(LENGTH_MEASURE(0.01),#1502,
'DISTANCE_ACCURACY_VALUE',
'Maximum model space distance between geometric entities at asserted c
onnectivities');
#1500=(
GEOMETRIC_REPRESENTATION_CONTEXT(3)
GLOBAL_UNCERTAINTY_ASSIGNED_CONTEXT((#1498))
GLOBAL_UNIT_ASSIGNED_CONTEXT((#1502,#1504,#1505))
REPRESENTATION_CONTEXT('','3D')
);
#1501=(
GEOMETRIC_REPRESENTATION_CONTEXT(3)
GLOBAL_UNCERTAINTY_ASSIGNED_CONTEXT((#1499))
GLOBAL_UNIT_ASSIGNED_CONTEXT((#1502,#1504,#1505))
REPRESENTATION_CONTEXT('','3D')
);
#1502=(
LENGTH_UNIT()
NAMED_UNIT(*)
SI_UNIT(.MILLI.,.METRE.)
);
#1503=(
LENGTH_UNIT()
NAMED_UNIT(*)
SI_UNIT($,.METRE.)
);
#1504=(
NAMED_UNIT(*)
PLANE_ANGLE_UNIT()
SI_UNIT($,.RADIAN.)
);
#1505=(
NAMED_UNIT(*)
SI_UNIT($,.STERADIAN.)
SOLID_ANGLE_UNIT()
);
#1506=SHAPE_DEFINITION_REPRESENTATION(#1507,#1508);
#1507=PRODUCT_DEFINITION_SHAPE('',$,#1510);
#1508=SHAPE_REPRESENTATION('',(#894),#1500);
#1509=PRODUCT_DEFINITION_CONTEXT('part definition',#1514,'design');
#1510=PRODUCT_DEFINITION('Bracket','Bracket',#1511,#1509);
#1511=PRODUCT_DEFINITION_FORMATION('',$,#1516);
#1512=PRODUCT_RELATED_PRODUCT_CATEGORY('Bracket','Bracket',(#1516));
#1513=APPLICATION_PROTOCOL_DEFINITION('international standard',
'automotive_design',2009,#1514);
#1514=APPLICATION_CONTEXT(
'Core Data for Automotive Mechanical Design Process');
#1515=PRODUCT_CONTEXT('part definition',#1514,'mechanical');
#1516=PRODUCT('Bracket','Bracket',$,(#1515));
#1517=PRESENTATION_STYLE_ASSIGNMENT((#1519));
#1518=PRESENTATION_STYLE_ASSIGNMENT((#1520));
#1519=SURFACE_STYLE_USAGE(.BOTH.,#1521);
#1520=SURFACE_STYLE_USAGE(.BOTH.,#1522);
#1521=SURFACE_SIDE_STYLE('',(#1523));
#1522=SURFACE_SIDE_STYLE('',(#1524));
#1523=SURFACE_STYLE_FILL_AREA(#1525);
#1524=SURFACE_STYLE_FILL_AREA(#1526);
#1525=FILL_AREA_STYLE('Steel - Satin',(#1527));
#1526=FILL_AREA_STYLE('Aluminum - Satin',(#1528));
#1527=FILL_AREA_STYLE_COLOUR('Steel - Satin',#1529);
#1528=FILL_AREA_STYLE_COLOUR('Aluminum - Satin',#1530);
#1529=COLOUR_RGB('Steel - Satin',0.627450980392157,0.627450980392157,0.627450980392157);
#1530=COLOUR_RGB('Aluminum - Satin',0.96078431372549,0.96078431372549,0.964705882352941);
ENDSEC;
END-ISO-10303-21;
