ISO-10303-21;
HEADER;
/* Generated by software containing ST-Developer
 * from STEP Tools, Inc. (www.steptools.com) 
 */

FILE_DESCRIPTION(
/* description */ (''),
/* implementation_level */ '2;1');

FILE_NAME(
/* name */ 
'C:/Users/anton/Documents/Kerbal Space Program/Kerbal_Control_Panel/KC
P2/CAD/ForManufacture/ThrottleBracket_v38_FlatPattern.step',
/* time_stamp */ '2020-11-13T15:23:46-08:00',
/* author */ (''),
/* organization */ (''),
/* preprocessor_version */ 'ST-DEVELOPER v18.1',
/* originating_system */ 'Autodesk Translation Framework v9.3.0.1241',
/* authorisation */ '');

FILE_SCHEMA (('AUTOMOTIVE_DESIGN { 1 0 10303 214 3 1 1 }'));
ENDSEC;

DATA;
#10=MECHANICAL_DESIGN_GEOMETRIC_PRESENTATION_REPRESENTATION('',(#13),#1493);
#11=SHAPE_REPRESENTATION_RELATIONSHIP('SRR','None',#1500,#12);
#12=ADVANCED_BREP_SHAPE_REPRESENTATION('',(#14),#1492);
#13=STYLED_ITEM('',(#1510),#14);
#14=MANIFOLD_SOLID_BREP('Body2',#889);
#15=FACE_BOUND('',#122,.T.);
#16=FACE_BOUND('',#123,.T.);
#17=FACE_BOUND('',#124,.T.);
#18=FACE_BOUND('',#125,.T.);
#19=FACE_BOUND('',#126,.T.);
#20=FACE_BOUND('',#130,.T.);
#21=FACE_BOUND('',#131,.T.);
#22=FACE_BOUND('',#137,.T.);
#23=FACE_BOUND('',#156,.T.);
#24=FACE_BOUND('',#163,.T.);
#25=FACE_BOUND('',#164,.T.);
#26=FACE_BOUND('',#168,.T.);
#27=FACE_BOUND('',#169,.T.);
#28=FACE_BOUND('',#170,.T.);
#29=FACE_BOUND('',#171,.T.);
#30=FACE_BOUND('',#172,.T.);
#31=PLANE('',#906);
#32=PLANE('',#910);
#33=PLANE('',#914);
#34=PLANE('',#918);
#35=PLANE('',#922);
#36=PLANE('',#926);
#37=PLANE('',#927);
#38=PLANE('',#935);
#39=PLANE('',#936);
#40=PLANE('',#943);
#41=PLANE('',#947);
#42=PLANE('',#948);
#43=PLANE('',#953);
#44=PLANE('',#966);
#45=PLANE('',#969);
#46=PLANE('',#972);
#47=PLANE('',#973);
#48=PLANE('',#974);
#49=PLANE('',#975);
#50=PLANE('',#976);
#51=PLANE('',#977);
#52=PLANE('',#978);
#53=PLANE('',#979);
#54=PLANE('',#980);
#55=PLANE('',#981);
#56=PLANE('',#982);
#57=PLANE('',#983);
#58=PLANE('',#984);
#59=PLANE('',#985);
#60=PLANE('',#986);
#61=FACE_OUTER_BOUND('',#109,.T.);
#62=FACE_OUTER_BOUND('',#110,.T.);
#63=FACE_OUTER_BOUND('',#111,.T.);
#64=FACE_OUTER_BOUND('',#112,.T.);
#65=FACE_OUTER_BOUND('',#113,.T.);
#66=FACE_OUTER_BOUND('',#114,.T.);
#67=FACE_OUTER_BOUND('',#115,.T.);
#68=FACE_OUTER_BOUND('',#116,.T.);
#69=FACE_OUTER_BOUND('',#117,.T.);
#70=FACE_OUTER_BOUND('',#118,.T.);
#71=FACE_OUTER_BOUND('',#119,.T.);
#72=FACE_OUTER_BOUND('',#120,.T.);
#73=FACE_OUTER_BOUND('',#121,.T.);
#74=FACE_OUTER_BOUND('',#127,.T.);
#75=FACE_OUTER_BOUND('',#128,.T.);
#76=FACE_OUTER_BOUND('',#129,.T.);
#77=FACE_OUTER_BOUND('',#132,.T.);
#78=FACE_OUTER_BOUND('',#133,.T.);
#79=FACE_OUTER_BOUND('',#134,.T.);
#80=FACE_OUTER_BOUND('',#135,.T.);
#81=FACE_OUTER_BOUND('',#136,.T.);
#82=FACE_OUTER_BOUND('',#138,.T.);
#83=FACE_OUTER_BOUND('',#139,.T.);
#84=FACE_OUTER_BOUND('',#140,.T.);
#85=FACE_OUTER_BOUND('',#141,.T.);
#86=FACE_OUTER_BOUND('',#142,.T.);
#87=FACE_OUTER_BOUND('',#143,.T.);
#88=FACE_OUTER_BOUND('',#144,.T.);
#89=FACE_OUTER_BOUND('',#145,.T.);
#90=FACE_OUTER_BOUND('',#146,.T.);
#91=FACE_OUTER_BOUND('',#147,.T.);
#92=FACE_OUTER_BOUND('',#148,.T.);
#93=FACE_OUTER_BOUND('',#149,.T.);
#94=FACE_OUTER_BOUND('',#150,.T.);
#95=FACE_OUTER_BOUND('',#151,.T.);
#96=FACE_OUTER_BOUND('',#152,.T.);
#97=FACE_OUTER_BOUND('',#153,.T.);
#98=FACE_OUTER_BOUND('',#154,.T.);
#99=FACE_OUTER_BOUND('',#155,.T.);
#100=FACE_OUTER_BOUND('',#157,.T.);
#101=FACE_OUTER_BOUND('',#158,.T.);
#102=FACE_OUTER_BOUND('',#159,.T.);
#103=FACE_OUTER_BOUND('',#160,.T.);
#104=FACE_OUTER_BOUND('',#161,.T.);
#105=FACE_OUTER_BOUND('',#162,.T.);
#106=FACE_OUTER_BOUND('',#165,.T.);
#107=FACE_OUTER_BOUND('',#166,.T.);
#108=FACE_OUTER_BOUND('',#167,.T.);
#109=EDGE_LOOP('',(#579,#580,#581,#582));
#110=EDGE_LOOP('',(#583,#584,#585,#586));
#111=EDGE_LOOP('',(#587,#588,#589,#590));
#112=EDGE_LOOP('',(#591,#592,#593,#594));
#113=EDGE_LOOP('',(#595,#596,#597,#598));
#114=EDGE_LOOP('',(#599,#600,#601,#602));
#115=EDGE_LOOP('',(#603,#604,#605,#606));
#116=EDGE_LOOP('',(#607,#608,#609,#610));
#117=EDGE_LOOP('',(#611,#612,#613,#614));
#118=EDGE_LOOP('',(#615,#616,#617,#618));
#119=EDGE_LOOP('',(#619,#620,#621,#622));
#120=EDGE_LOOP('',(#623,#624,#625,#626));
#121=EDGE_LOOP('',(#627,#628,#629,#630,#631,#632,#633,#634));
#122=EDGE_LOOP('',(#635,#636,#637,#638,#639,#640,#641,#642));
#123=EDGE_LOOP('',(#643));
#124=EDGE_LOOP('',(#644));
#125=EDGE_LOOP('',(#645));
#126=EDGE_LOOP('',(#646));
#127=EDGE_LOOP('',(#647,#648,#649,#650));
#128=EDGE_LOOP('',(#651,#652,#653,#654));
#129=EDGE_LOOP('',(#655,#656,#657,#658,#659,#660));
#130=EDGE_LOOP('',(#661));
#131=EDGE_LOOP('',(#662,#663,#664,#665));
#132=EDGE_LOOP('',(#666,#667,#668,#669));
#133=EDGE_LOOP('',(#670,#671,#672,#673));
#134=EDGE_LOOP('',(#674,#675,#676,#677));
#135=EDGE_LOOP('',(#678,#679,#680,#681));
#136=EDGE_LOOP('',(#682,#683,#684,#685,#686,#687));
#137=EDGE_LOOP('',(#688));
#138=EDGE_LOOP('',(#689,#690,#691,#692));
#139=EDGE_LOOP('',(#693,#694,#695,#696));
#140=EDGE_LOOP('',(#697,#698,#699,#700));
#141=EDGE_LOOP('',(#701,#702,#703,#704));
#142=EDGE_LOOP('',(#705,#706,#707,#708));
#143=EDGE_LOOP('',(#709,#710,#711,#712));
#144=EDGE_LOOP('',(#713,#714,#715,#716));
#145=EDGE_LOOP('',(#717,#718,#719,#720));
#146=EDGE_LOOP('',(#721,#722,#723,#724));
#147=EDGE_LOOP('',(#725,#726,#727,#728));
#148=EDGE_LOOP('',(#729,#730,#731,#732));
#149=EDGE_LOOP('',(#733,#734,#735,#736));
#150=EDGE_LOOP('',(#737,#738,#739,#740));
#151=EDGE_LOOP('',(#741,#742,#743,#744));
#152=EDGE_LOOP('',(#745,#746,#747,#748));
#153=EDGE_LOOP('',(#749,#750,#751,#752));
#154=EDGE_LOOP('',(#753,#754,#755,#756));
#155=EDGE_LOOP('',(#757,#758,#759,#760,#761,#762));
#156=EDGE_LOOP('',(#763));
#157=EDGE_LOOP('',(#764,#765,#766,#767));
#158=EDGE_LOOP('',(#768,#769,#770,#771));
#159=EDGE_LOOP('',(#772,#773,#774,#775));
#160=EDGE_LOOP('',(#776,#777,#778,#779));
#161=EDGE_LOOP('',(#780,#781,#782,#783));
#162=EDGE_LOOP('',(#784,#785,#786,#787,#788,#789));
#163=EDGE_LOOP('',(#790));
#164=EDGE_LOOP('',(#791,#792,#793,#794));
#165=EDGE_LOOP('',(#795,#796,#797,#798));
#166=EDGE_LOOP('',(#799,#800,#801,#802));
#167=EDGE_LOOP('',(#803,#804,#805,#806,#807,#808,#809,#810));
#168=EDGE_LOOP('',(#811));
#169=EDGE_LOOP('',(#812));
#170=EDGE_LOOP('',(#813));
#171=EDGE_LOOP('',(#814));
#172=EDGE_LOOP('',(#815,#816,#817,#818,#819,#820,#821,#822));
#173=LINE('',#1249,#259);
#174=LINE('',#1252,#260);
#175=LINE('',#1255,#261);
#176=LINE('',#1257,#262);
#177=LINE('',#1258,#263);
#178=LINE('',#1264,#264);
#179=LINE('',#1267,#265);
#180=LINE('',#1269,#266);
#181=LINE('',#1270,#267);
#182=LINE('',#1276,#268);
#183=LINE('',#1279,#269);
#184=LINE('',#1281,#270);
#185=LINE('',#1282,#271);
#186=LINE('',#1287,#272);
#187=LINE('',#1290,#273);
#188=LINE('',#1291,#274);
#189=LINE('',#1297,#275);
#190=LINE('',#1300,#276);
#191=LINE('',#1303,#277);
#192=LINE('',#1305,#278);
#193=LINE('',#1306,#279);
#194=LINE('',#1312,#280);
#195=LINE('',#1315,#281);
#196=LINE('',#1317,#282);
#197=LINE('',#1318,#283);
#198=LINE('',#1321,#284);
#199=LINE('',#1323,#285);
#200=LINE('',#1325,#286);
#201=LINE('',#1326,#287);
#202=LINE('',#1340,#288);
#203=LINE('',#1343,#289);
#204=LINE('',#1346,#290);
#205=LINE('',#1348,#291);
#206=LINE('',#1349,#292);
#207=LINE('',#1352,#293);
#208=LINE('',#1354,#294);
#209=LINE('',#1356,#295);
#210=LINE('',#1362,#296);
#211=LINE('',#1366,#297);
#212=LINE('',#1371,#298);
#213=LINE('',#1374,#299);
#214=LINE('',#1375,#300);
#215=LINE('',#1381,#301);
#216=LINE('',#1384,#302);
#217=LINE('',#1387,#303);
#218=LINE('',#1389,#304);
#219=LINE('',#1390,#305);
#220=LINE('',#1393,#306);
#221=LINE('',#1395,#307);
#222=LINE('',#1397,#308);
#223=LINE('',#1404,#309);
#224=LINE('',#1407,#310);
#225=LINE('',#1408,#311);
#226=LINE('',#1411,#312);
#227=LINE('',#1415,#313);
#228=LINE('',#1419,#314);
#229=LINE('',#1423,#315);
#230=LINE('',#1428,#316);
#231=LINE('',#1431,#317);
#232=LINE('',#1435,#318);
#233=LINE('',#1437,#319);
#234=LINE('',#1438,#320);
#235=LINE('',#1442,#321);
#236=LINE('',#1445,#322);
#237=LINE('',#1446,#323);
#238=LINE('',#1451,#324);
#239=LINE('',#1452,#325);
#240=LINE('',#1453,#326);
#241=LINE('',#1455,#327);
#242=LINE('',#1456,#328);
#243=LINE('',#1459,#329);
#244=LINE('',#1460,#330);
#245=LINE('',#1463,#331);
#246=LINE('',#1464,#332);
#247=LINE('',#1466,#333);
#248=LINE('',#1470,#334);
#249=LINE('',#1471,#335);
#250=LINE('',#1472,#336);
#251=LINE('',#1474,#337);
#252=LINE('',#1475,#338);
#253=LINE('',#1477,#339);
#254=LINE('',#1480,#340);
#255=LINE('',#1481,#341);
#256=LINE('',#1483,#342);
#257=LINE('',#1486,#343);
#258=LINE('',#1488,#344);
#259=VECTOR('',#993,10.);
#260=VECTOR('',#996,10.);
#261=VECTOR('',#999,10.);
#262=VECTOR('',#1000,10.);
#263=VECTOR('',#1001,10.);
#264=VECTOR('',#1006,10.);
#265=VECTOR('',#1009,10.);
#266=VECTOR('',#1012,10.);
#267=VECTOR('',#1013,10.);
#268=VECTOR('',#1018,10.);
#269=VECTOR('',#1021,10.);
#270=VECTOR('',#1024,10.);
#271=VECTOR('',#1025,10.);
#272=VECTOR('',#1030,10.);
#273=VECTOR('',#1035,10.);
#274=VECTOR('',#1036,10.);
#275=VECTOR('',#1041,10.);
#276=VECTOR('',#1044,10.);
#277=VECTOR('',#1047,10.);
#278=VECTOR('',#1048,10.);
#279=VECTOR('',#1049,10.);
#280=VECTOR('',#1056,10.);
#281=VECTOR('',#1059,10.);
#282=VECTOR('',#1060,10.);
#283=VECTOR('',#1061,10.);
#284=VECTOR('',#1064,10.);
#285=VECTOR('',#1065,10.);
#286=VECTOR('',#1066,10.);
#287=VECTOR('',#1067,10.);
#288=VECTOR('',#1080,10.);
#289=VECTOR('',#1083,10.);
#290=VECTOR('',#1086,10.);
#291=VECTOR('',#1087,10.);
#292=VECTOR('',#1088,10.);
#293=VECTOR('',#1091,4.32000000000001);
#294=VECTOR('',#1092,10.);
#295=VECTOR('',#1093,4.32000000000001);
#296=VECTOR('',#1098,10.);
#297=VECTOR('',#1101,10.);
#298=VECTOR('',#1108,10.);
#299=VECTOR('',#1111,10.);
#300=VECTOR('',#1112,10.);
#301=VECTOR('',#1117,10.);
#302=VECTOR('',#1120,10.);
#303=VECTOR('',#1123,10.);
#304=VECTOR('',#1124,10.);
#305=VECTOR('',#1125,10.);
#306=VECTOR('',#1128,4.32000000000001);
#307=VECTOR('',#1129,10.);
#308=VECTOR('',#1130,4.32000000000001);
#309=VECTOR('',#1139,10.);
#310=VECTOR('',#1142,10.);
#311=VECTOR('',#1143,10.);
#312=VECTOR('',#1146,1.2645);
#313=VECTOR('',#1151,1.2645);
#314=VECTOR('',#1156,1.2645);
#315=VECTOR('',#1161,1.2645);
#316=VECTOR('',#1168,3.5);
#317=VECTOR('',#1171,3.5);
#318=VECTOR('',#1176,10.);
#319=VECTOR('',#1177,10.);
#320=VECTOR('',#1178,10.);
#321=VECTOR('',#1183,10.);
#322=VECTOR('',#1186,10.);
#323=VECTOR('',#1187,10.);
#324=VECTOR('',#1194,10.);
#325=VECTOR('',#1195,4.31999999999998);
#326=VECTOR('',#1196,4.31999999999998);
#327=VECTOR('',#1199,4.32000000000001);
#328=VECTOR('',#1200,10.);
#329=VECTOR('',#1203,4.31999999999998);
#330=VECTOR('',#1204,10.);
#331=VECTOR('',#1207,10.);
#332=VECTOR('',#1208,4.31999999999998);
#333=VECTOR('',#1211,10.);
#334=VECTOR('',#1216,10.);
#335=VECTOR('',#1217,4.32000000000001);
#336=VECTOR('',#1218,4.32000000000001);
#337=VECTOR('',#1221,4.32000000000001);
#338=VECTOR('',#1222,10.);
#339=VECTOR('',#1225,4.32000000000001);
#340=VECTOR('',#1228,10.);
#341=VECTOR('',#1229,4.32000000000001);
#342=VECTOR('',#1232,10.);
#343=VECTOR('',#1237,10.);
#344=VECTOR('',#1240,10.);
#345=CIRCLE('',#904,2.);
#346=CIRCLE('',#905,2.);
#347=CIRCLE('',#908,2.);
#348=CIRCLE('',#909,2.);
#349=CIRCLE('',#912,2.);
#350=CIRCLE('',#913,2.);
#351=CIRCLE('',#916,2.);
#352=CIRCLE('',#917,2.);
#353=CIRCLE('',#920,10.);
#354=CIRCLE('',#921,10.);
#355=CIRCLE('',#924,10.);
#356=CIRCLE('',#925,10.);
#357=CIRCLE('',#928,1.2645);
#358=CIRCLE('',#929,1.2645);
#359=CIRCLE('',#930,1.2645);
#360=CIRCLE('',#931,1.2645);
#361=CIRCLE('',#933,15.);
#362=CIRCLE('',#934,15.);
#363=CIRCLE('',#937,15.);
#364=CIRCLE('',#938,3.5);
#365=CIRCLE('',#939,3.5);
#366=CIRCLE('',#940,3.5);
#367=CIRCLE('',#942,15.);
#368=CIRCLE('',#945,15.);
#369=CIRCLE('',#946,15.);
#370=CIRCLE('',#949,15.);
#371=CIRCLE('',#950,3.5);
#372=CIRCLE('',#952,15.);
#373=CIRCLE('',#955,1.2645);
#374=CIRCLE('',#957,1.2645);
#375=CIRCLE('',#959,1.2645);
#376=CIRCLE('',#961,1.2645);
#377=CIRCLE('',#963,3.5);
#378=CIRCLE('',#965,3.5);
#379=CIRCLE('',#968,3.5);
#380=CIRCLE('',#971,3.5);
#381=VERTEX_POINT('',#1245);
#382=VERTEX_POINT('',#1246);
#383=VERTEX_POINT('',#1248);
#384=VERTEX_POINT('',#1250);
#385=VERTEX_POINT('',#1254);
#386=VERTEX_POINT('',#1256);
#387=VERTEX_POINT('',#1260);
#388=VERTEX_POINT('',#1261);
#389=VERTEX_POINT('',#1263);
#390=VERTEX_POINT('',#1265);
#391=VERTEX_POINT('',#1272);
#392=VERTEX_POINT('',#1273);
#393=VERTEX_POINT('',#1275);
#394=VERTEX_POINT('',#1277);
#395=VERTEX_POINT('',#1284);
#396=VERTEX_POINT('',#1286);
#397=VERTEX_POINT('',#1293);
#398=VERTEX_POINT('',#1294);
#399=VERTEX_POINT('',#1296);
#400=VERTEX_POINT('',#1298);
#401=VERTEX_POINT('',#1302);
#402=VERTEX_POINT('',#1304);
#403=VERTEX_POINT('',#1308);
#404=VERTEX_POINT('',#1310);
#405=VERTEX_POINT('',#1314);
#406=VERTEX_POINT('',#1316);
#407=VERTEX_POINT('',#1320);
#408=VERTEX_POINT('',#1322);
#409=VERTEX_POINT('',#1324);
#410=VERTEX_POINT('',#1327);
#411=VERTEX_POINT('',#1329);
#412=VERTEX_POINT('',#1331);
#413=VERTEX_POINT('',#1333);
#414=VERTEX_POINT('',#1336);
#415=VERTEX_POINT('',#1337);
#416=VERTEX_POINT('',#1339);
#417=VERTEX_POINT('',#1341);
#418=VERTEX_POINT('',#1345);
#419=VERTEX_POINT('',#1347);
#420=VERTEX_POINT('',#1351);
#421=VERTEX_POINT('',#1353);
#422=VERTEX_POINT('',#1355);
#423=VERTEX_POINT('',#1358);
#424=VERTEX_POINT('',#1360);
#425=VERTEX_POINT('',#1361);
#426=VERTEX_POINT('',#1363);
#427=VERTEX_POINT('',#1365);
#428=VERTEX_POINT('',#1369);
#429=VERTEX_POINT('',#1373);
#430=VERTEX_POINT('',#1377);
#431=VERTEX_POINT('',#1378);
#432=VERTEX_POINT('',#1380);
#433=VERTEX_POINT('',#1382);
#434=VERTEX_POINT('',#1386);
#435=VERTEX_POINT('',#1388);
#436=VERTEX_POINT('',#1392);
#437=VERTEX_POINT('',#1394);
#438=VERTEX_POINT('',#1396);
#439=VERTEX_POINT('',#1399);
#440=VERTEX_POINT('',#1402);
#441=VERTEX_POINT('',#1406);
#442=VERTEX_POINT('',#1410);
#443=VERTEX_POINT('',#1414);
#444=VERTEX_POINT('',#1418);
#445=VERTEX_POINT('',#1422);
#446=VERTEX_POINT('',#1426);
#447=VERTEX_POINT('',#1430);
#448=VERTEX_POINT('',#1434);
#449=VERTEX_POINT('',#1436);
#450=VERTEX_POINT('',#1440);
#451=VERTEX_POINT('',#1444);
#452=VERTEX_POINT('',#1450);
#453=VERTEX_POINT('',#1458);
#454=VERTEX_POINT('',#1462);
#455=VERTEX_POINT('',#1469);
#456=VERTEX_POINT('',#1479);
#457=EDGE_CURVE('',#381,#382,#345,.T.);
#458=EDGE_CURVE('',#382,#383,#173,.T.);
#459=EDGE_CURVE('',#383,#384,#346,.T.);
#460=EDGE_CURVE('',#384,#381,#174,.T.);
#461=EDGE_CURVE('',#382,#385,#175,.T.);
#462=EDGE_CURVE('',#386,#385,#176,.T.);
#463=EDGE_CURVE('',#383,#386,#177,.T.);
#464=EDGE_CURVE('',#387,#388,#347,.T.);
#465=EDGE_CURVE('',#388,#389,#178,.T.);
#466=EDGE_CURVE('',#389,#390,#348,.T.);
#467=EDGE_CURVE('',#390,#387,#179,.T.);
#468=EDGE_CURVE('',#389,#384,#180,.T.);
#469=EDGE_CURVE('',#388,#381,#181,.T.);
#470=EDGE_CURVE('',#391,#392,#349,.T.);
#471=EDGE_CURVE('',#392,#393,#182,.T.);
#472=EDGE_CURVE('',#393,#394,#350,.T.);
#473=EDGE_CURVE('',#394,#391,#183,.T.);
#474=EDGE_CURVE('',#393,#390,#184,.T.);
#475=EDGE_CURVE('',#392,#387,#185,.T.);
#476=EDGE_CURVE('',#385,#395,#351,.T.);
#477=EDGE_CURVE('',#395,#396,#186,.T.);
#478=EDGE_CURVE('',#396,#386,#352,.T.);
#479=EDGE_CURVE('',#396,#394,#187,.T.);
#480=EDGE_CURVE('',#395,#391,#188,.T.);
#481=EDGE_CURVE('',#397,#398,#353,.T.);
#482=EDGE_CURVE('',#398,#399,#189,.T.);
#483=EDGE_CURVE('',#399,#400,#354,.T.);
#484=EDGE_CURVE('',#400,#397,#190,.T.);
#485=EDGE_CURVE('',#398,#401,#191,.T.);
#486=EDGE_CURVE('',#402,#401,#192,.T.);
#487=EDGE_CURVE('',#399,#402,#193,.T.);
#488=EDGE_CURVE('',#403,#402,#355,.T.);
#489=EDGE_CURVE('',#401,#404,#356,.T.);
#490=EDGE_CURVE('',#404,#403,#194,.T.);
#491=EDGE_CURVE('',#404,#405,#195,.T.);
#492=EDGE_CURVE('',#405,#406,#196,.T.);
#493=EDGE_CURVE('',#403,#406,#197,.T.);
#494=EDGE_CURVE('',#407,#397,#198,.T.);
#495=EDGE_CURVE('',#407,#408,#199,.T.);
#496=EDGE_CURVE('',#409,#408,#200,.T.);
#497=EDGE_CURVE('',#409,#405,#201,.T.);
#498=EDGE_CURVE('',#410,#410,#357,.T.);
#499=EDGE_CURVE('',#411,#411,#358,.T.);
#500=EDGE_CURVE('',#412,#412,#359,.T.);
#501=EDGE_CURVE('',#413,#413,#360,.T.);
#502=EDGE_CURVE('',#414,#415,#361,.T.);
#503=EDGE_CURVE('',#415,#416,#202,.T.);
#504=EDGE_CURVE('',#416,#417,#362,.T.);
#505=EDGE_CURVE('',#417,#414,#203,.T.);
#506=EDGE_CURVE('',#418,#417,#204,.T.);
#507=EDGE_CURVE('',#419,#418,#205,.T.);
#508=EDGE_CURVE('',#414,#419,#206,.T.);
#509=EDGE_CURVE('',#416,#420,#207,.T.);
#510=EDGE_CURVE('',#420,#421,#208,.T.);
#511=EDGE_CURVE('',#422,#421,#209,.T.);
#512=EDGE_CURVE('',#418,#422,#363,.T.);
#513=EDGE_CURVE('',#423,#423,#364,.T.);
#514=EDGE_CURVE('',#424,#425,#210,.T.);
#515=EDGE_CURVE('',#425,#426,#365,.T.);
#516=EDGE_CURVE('',#426,#427,#211,.T.);
#517=EDGE_CURVE('',#427,#424,#366,.T.);
#518=EDGE_CURVE('',#428,#419,#367,.T.);
#519=EDGE_CURVE('',#422,#428,#212,.T.);
#520=EDGE_CURVE('',#421,#429,#213,.T.);
#521=EDGE_CURVE('',#428,#429,#214,.T.);
#522=EDGE_CURVE('',#430,#431,#368,.T.);
#523=EDGE_CURVE('',#431,#432,#215,.T.);
#524=EDGE_CURVE('',#432,#433,#369,.T.);
#525=EDGE_CURVE('',#433,#430,#216,.T.);
#526=EDGE_CURVE('',#434,#433,#217,.T.);
#527=EDGE_CURVE('',#435,#434,#218,.T.);
#528=EDGE_CURVE('',#430,#435,#219,.T.);
#529=EDGE_CURVE('',#432,#436,#220,.T.);
#530=EDGE_CURVE('',#436,#437,#221,.T.);
#531=EDGE_CURVE('',#438,#437,#222,.T.);
#532=EDGE_CURVE('',#434,#438,#370,.T.);
#533=EDGE_CURVE('',#439,#439,#371,.T.);
#534=EDGE_CURVE('',#440,#435,#372,.T.);
#535=EDGE_CURVE('',#438,#440,#223,.T.);
#536=EDGE_CURVE('',#437,#441,#224,.T.);
#537=EDGE_CURVE('',#440,#441,#225,.T.);
#538=EDGE_CURVE('',#413,#442,#226,.T.);
#539=EDGE_CURVE('',#442,#442,#373,.T.);
#540=EDGE_CURVE('',#412,#443,#227,.T.);
#541=EDGE_CURVE('',#443,#443,#374,.T.);
#542=EDGE_CURVE('',#411,#444,#228,.T.);
#543=EDGE_CURVE('',#444,#444,#375,.T.);
#544=EDGE_CURVE('',#410,#445,#229,.T.);
#545=EDGE_CURVE('',#445,#445,#376,.T.);
#546=EDGE_CURVE('',#446,#446,#377,.T.);
#547=EDGE_CURVE('',#446,#423,#230,.T.);
#548=EDGE_CURVE('',#439,#447,#231,.T.);
#549=EDGE_CURVE('',#447,#447,#378,.T.);
#550=EDGE_CURVE('',#448,#426,#232,.T.);
#551=EDGE_CURVE('',#449,#448,#233,.T.);
#552=EDGE_CURVE('',#449,#427,#234,.T.);
#553=EDGE_CURVE('',#450,#449,#379,.T.);
#554=EDGE_CURVE('',#450,#424,#235,.T.);
#555=EDGE_CURVE('',#451,#450,#236,.T.);
#556=EDGE_CURVE('',#451,#425,#237,.T.);
#557=EDGE_CURVE('',#448,#451,#380,.T.);
#558=EDGE_CURVE('',#441,#452,#238,.T.);
#559=EDGE_CURVE('',#441,#408,#239,.T.);
#560=EDGE_CURVE('',#407,#452,#240,.T.);
#561=EDGE_CURVE('',#452,#431,#241,.T.);
#562=EDGE_CURVE('',#452,#436,#242,.T.);
#563=EDGE_CURVE('',#437,#453,#243,.T.);
#564=EDGE_CURVE('',#408,#453,#244,.T.);
#565=EDGE_CURVE('',#454,#407,#245,.T.);
#566=EDGE_CURVE('',#436,#454,#246,.T.);
#567=EDGE_CURVE('',#453,#454,#247,.T.);
#568=EDGE_CURVE('',#429,#455,#248,.T.);
#569=EDGE_CURVE('',#429,#405,#249,.T.);
#570=EDGE_CURVE('',#409,#455,#250,.T.);
#571=EDGE_CURVE('',#455,#415,#251,.T.);
#572=EDGE_CURVE('',#455,#420,#252,.T.);
#573=EDGE_CURVE('',#421,#406,#253,.T.);
#574=EDGE_CURVE('',#456,#409,#254,.T.);
#575=EDGE_CURVE('',#420,#456,#255,.T.);
#576=EDGE_CURVE('',#406,#456,#256,.T.);
#577=EDGE_CURVE('',#454,#400,#257,.T.);
#578=EDGE_CURVE('',#456,#453,#258,.T.);
#579=ORIENTED_EDGE('',*,*,#457,.T.);
#580=ORIENTED_EDGE('',*,*,#458,.T.);
#581=ORIENTED_EDGE('',*,*,#459,.T.);
#582=ORIENTED_EDGE('',*,*,#460,.T.);
#583=ORIENTED_EDGE('',*,*,#458,.F.);
#584=ORIENTED_EDGE('',*,*,#461,.T.);
#585=ORIENTED_EDGE('',*,*,#462,.F.);
#586=ORIENTED_EDGE('',*,*,#463,.F.);
#587=ORIENTED_EDGE('',*,*,#464,.T.);
#588=ORIENTED_EDGE('',*,*,#465,.T.);
#589=ORIENTED_EDGE('',*,*,#466,.T.);
#590=ORIENTED_EDGE('',*,*,#467,.T.);
#591=ORIENTED_EDGE('',*,*,#460,.F.);
#592=ORIENTED_EDGE('',*,*,#468,.F.);
#593=ORIENTED_EDGE('',*,*,#465,.F.);
#594=ORIENTED_EDGE('',*,*,#469,.T.);
#595=ORIENTED_EDGE('',*,*,#470,.T.);
#596=ORIENTED_EDGE('',*,*,#471,.T.);
#597=ORIENTED_EDGE('',*,*,#472,.T.);
#598=ORIENTED_EDGE('',*,*,#473,.T.);
#599=ORIENTED_EDGE('',*,*,#467,.F.);
#600=ORIENTED_EDGE('',*,*,#474,.F.);
#601=ORIENTED_EDGE('',*,*,#471,.F.);
#602=ORIENTED_EDGE('',*,*,#475,.T.);
#603=ORIENTED_EDGE('',*,*,#476,.T.);
#604=ORIENTED_EDGE('',*,*,#477,.T.);
#605=ORIENTED_EDGE('',*,*,#478,.T.);
#606=ORIENTED_EDGE('',*,*,#462,.T.);
#607=ORIENTED_EDGE('',*,*,#473,.F.);
#608=ORIENTED_EDGE('',*,*,#479,.F.);
#609=ORIENTED_EDGE('',*,*,#477,.F.);
#610=ORIENTED_EDGE('',*,*,#480,.T.);
#611=ORIENTED_EDGE('',*,*,#481,.T.);
#612=ORIENTED_EDGE('',*,*,#482,.T.);
#613=ORIENTED_EDGE('',*,*,#483,.T.);
#614=ORIENTED_EDGE('',*,*,#484,.T.);
#615=ORIENTED_EDGE('',*,*,#482,.F.);
#616=ORIENTED_EDGE('',*,*,#485,.T.);
#617=ORIENTED_EDGE('',*,*,#486,.F.);
#618=ORIENTED_EDGE('',*,*,#487,.F.);
#619=ORIENTED_EDGE('',*,*,#488,.T.);
#620=ORIENTED_EDGE('',*,*,#486,.T.);
#621=ORIENTED_EDGE('',*,*,#489,.T.);
#622=ORIENTED_EDGE('',*,*,#490,.T.);
#623=ORIENTED_EDGE('',*,*,#490,.F.);
#624=ORIENTED_EDGE('',*,*,#491,.T.);
#625=ORIENTED_EDGE('',*,*,#492,.T.);
#626=ORIENTED_EDGE('',*,*,#493,.F.);
#627=ORIENTED_EDGE('',*,*,#489,.F.);
#628=ORIENTED_EDGE('',*,*,#485,.F.);
#629=ORIENTED_EDGE('',*,*,#481,.F.);
#630=ORIENTED_EDGE('',*,*,#494,.F.);
#631=ORIENTED_EDGE('',*,*,#495,.T.);
#632=ORIENTED_EDGE('',*,*,#496,.F.);
#633=ORIENTED_EDGE('',*,*,#497,.T.);
#634=ORIENTED_EDGE('',*,*,#491,.F.);
#635=ORIENTED_EDGE('',*,*,#476,.F.);
#636=ORIENTED_EDGE('',*,*,#461,.F.);
#637=ORIENTED_EDGE('',*,*,#457,.F.);
#638=ORIENTED_EDGE('',*,*,#469,.F.);
#639=ORIENTED_EDGE('',*,*,#464,.F.);
#640=ORIENTED_EDGE('',*,*,#475,.F.);
#641=ORIENTED_EDGE('',*,*,#470,.F.);
#642=ORIENTED_EDGE('',*,*,#480,.F.);
#643=ORIENTED_EDGE('',*,*,#498,.T.);
#644=ORIENTED_EDGE('',*,*,#499,.T.);
#645=ORIENTED_EDGE('',*,*,#500,.T.);
#646=ORIENTED_EDGE('',*,*,#501,.T.);
#647=ORIENTED_EDGE('',*,*,#502,.T.);
#648=ORIENTED_EDGE('',*,*,#503,.T.);
#649=ORIENTED_EDGE('',*,*,#504,.T.);
#650=ORIENTED_EDGE('',*,*,#505,.T.);
#651=ORIENTED_EDGE('',*,*,#505,.F.);
#652=ORIENTED_EDGE('',*,*,#506,.F.);
#653=ORIENTED_EDGE('',*,*,#507,.F.);
#654=ORIENTED_EDGE('',*,*,#508,.F.);
#655=ORIENTED_EDGE('',*,*,#504,.F.);
#656=ORIENTED_EDGE('',*,*,#509,.T.);
#657=ORIENTED_EDGE('',*,*,#510,.T.);
#658=ORIENTED_EDGE('',*,*,#511,.F.);
#659=ORIENTED_EDGE('',*,*,#512,.F.);
#660=ORIENTED_EDGE('',*,*,#506,.T.);
#661=ORIENTED_EDGE('',*,*,#513,.T.);
#662=ORIENTED_EDGE('',*,*,#514,.T.);
#663=ORIENTED_EDGE('',*,*,#515,.T.);
#664=ORIENTED_EDGE('',*,*,#516,.T.);
#665=ORIENTED_EDGE('',*,*,#517,.T.);
#666=ORIENTED_EDGE('',*,*,#518,.T.);
#667=ORIENTED_EDGE('',*,*,#507,.T.);
#668=ORIENTED_EDGE('',*,*,#512,.T.);
#669=ORIENTED_EDGE('',*,*,#519,.T.);
#670=ORIENTED_EDGE('',*,*,#519,.F.);
#671=ORIENTED_EDGE('',*,*,#511,.T.);
#672=ORIENTED_EDGE('',*,*,#520,.T.);
#673=ORIENTED_EDGE('',*,*,#521,.F.);
#674=ORIENTED_EDGE('',*,*,#522,.T.);
#675=ORIENTED_EDGE('',*,*,#523,.T.);
#676=ORIENTED_EDGE('',*,*,#524,.T.);
#677=ORIENTED_EDGE('',*,*,#525,.T.);
#678=ORIENTED_EDGE('',*,*,#525,.F.);
#679=ORIENTED_EDGE('',*,*,#526,.F.);
#680=ORIENTED_EDGE('',*,*,#527,.F.);
#681=ORIENTED_EDGE('',*,*,#528,.F.);
#682=ORIENTED_EDGE('',*,*,#524,.F.);
#683=ORIENTED_EDGE('',*,*,#529,.T.);
#684=ORIENTED_EDGE('',*,*,#530,.T.);
#685=ORIENTED_EDGE('',*,*,#531,.F.);
#686=ORIENTED_EDGE('',*,*,#532,.F.);
#687=ORIENTED_EDGE('',*,*,#526,.T.);
#688=ORIENTED_EDGE('',*,*,#533,.T.);
#689=ORIENTED_EDGE('',*,*,#534,.T.);
#690=ORIENTED_EDGE('',*,*,#527,.T.);
#691=ORIENTED_EDGE('',*,*,#532,.T.);
#692=ORIENTED_EDGE('',*,*,#535,.T.);
#693=ORIENTED_EDGE('',*,*,#535,.F.);
#694=ORIENTED_EDGE('',*,*,#531,.T.);
#695=ORIENTED_EDGE('',*,*,#536,.T.);
#696=ORIENTED_EDGE('',*,*,#537,.F.);
#697=ORIENTED_EDGE('',*,*,#501,.F.);
#698=ORIENTED_EDGE('',*,*,#538,.T.);
#699=ORIENTED_EDGE('',*,*,#539,.F.);
#700=ORIENTED_EDGE('',*,*,#538,.F.);
#701=ORIENTED_EDGE('',*,*,#500,.F.);
#702=ORIENTED_EDGE('',*,*,#540,.T.);
#703=ORIENTED_EDGE('',*,*,#541,.F.);
#704=ORIENTED_EDGE('',*,*,#540,.F.);
#705=ORIENTED_EDGE('',*,*,#499,.F.);
#706=ORIENTED_EDGE('',*,*,#542,.T.);
#707=ORIENTED_EDGE('',*,*,#543,.F.);
#708=ORIENTED_EDGE('',*,*,#542,.F.);
#709=ORIENTED_EDGE('',*,*,#498,.F.);
#710=ORIENTED_EDGE('',*,*,#544,.T.);
#711=ORIENTED_EDGE('',*,*,#545,.F.);
#712=ORIENTED_EDGE('',*,*,#544,.F.);
#713=ORIENTED_EDGE('',*,*,#546,.F.);
#714=ORIENTED_EDGE('',*,*,#547,.T.);
#715=ORIENTED_EDGE('',*,*,#513,.F.);
#716=ORIENTED_EDGE('',*,*,#547,.F.);
#717=ORIENTED_EDGE('',*,*,#533,.F.);
#718=ORIENTED_EDGE('',*,*,#548,.T.);
#719=ORIENTED_EDGE('',*,*,#549,.F.);
#720=ORIENTED_EDGE('',*,*,#548,.F.);
#721=ORIENTED_EDGE('',*,*,#516,.F.);
#722=ORIENTED_EDGE('',*,*,#550,.F.);
#723=ORIENTED_EDGE('',*,*,#551,.F.);
#724=ORIENTED_EDGE('',*,*,#552,.T.);
#725=ORIENTED_EDGE('',*,*,#517,.F.);
#726=ORIENTED_EDGE('',*,*,#552,.F.);
#727=ORIENTED_EDGE('',*,*,#553,.F.);
#728=ORIENTED_EDGE('',*,*,#554,.T.);
#729=ORIENTED_EDGE('',*,*,#514,.F.);
#730=ORIENTED_EDGE('',*,*,#554,.F.);
#731=ORIENTED_EDGE('',*,*,#555,.F.);
#732=ORIENTED_EDGE('',*,*,#556,.T.);
#733=ORIENTED_EDGE('',*,*,#515,.F.);
#734=ORIENTED_EDGE('',*,*,#556,.F.);
#735=ORIENTED_EDGE('',*,*,#557,.F.);
#736=ORIENTED_EDGE('',*,*,#550,.T.);
#737=ORIENTED_EDGE('',*,*,#558,.F.);
#738=ORIENTED_EDGE('',*,*,#559,.T.);
#739=ORIENTED_EDGE('',*,*,#495,.F.);
#740=ORIENTED_EDGE('',*,*,#560,.T.);
#741=ORIENTED_EDGE('',*,*,#523,.F.);
#742=ORIENTED_EDGE('',*,*,#561,.F.);
#743=ORIENTED_EDGE('',*,*,#562,.T.);
#744=ORIENTED_EDGE('',*,*,#529,.F.);
#745=ORIENTED_EDGE('',*,*,#536,.F.);
#746=ORIENTED_EDGE('',*,*,#563,.T.);
#747=ORIENTED_EDGE('',*,*,#564,.F.);
#748=ORIENTED_EDGE('',*,*,#559,.F.);
#749=ORIENTED_EDGE('',*,*,#562,.F.);
#750=ORIENTED_EDGE('',*,*,#560,.F.);
#751=ORIENTED_EDGE('',*,*,#565,.F.);
#752=ORIENTED_EDGE('',*,*,#566,.F.);
#753=ORIENTED_EDGE('',*,*,#530,.F.);
#754=ORIENTED_EDGE('',*,*,#566,.T.);
#755=ORIENTED_EDGE('',*,*,#567,.F.);
#756=ORIENTED_EDGE('',*,*,#563,.F.);
#757=ORIENTED_EDGE('',*,*,#522,.F.);
#758=ORIENTED_EDGE('',*,*,#528,.T.);
#759=ORIENTED_EDGE('',*,*,#534,.F.);
#760=ORIENTED_EDGE('',*,*,#537,.T.);
#761=ORIENTED_EDGE('',*,*,#558,.T.);
#762=ORIENTED_EDGE('',*,*,#561,.T.);
#763=ORIENTED_EDGE('',*,*,#549,.T.);
#764=ORIENTED_EDGE('',*,*,#568,.F.);
#765=ORIENTED_EDGE('',*,*,#569,.T.);
#766=ORIENTED_EDGE('',*,*,#497,.F.);
#767=ORIENTED_EDGE('',*,*,#570,.T.);
#768=ORIENTED_EDGE('',*,*,#503,.F.);
#769=ORIENTED_EDGE('',*,*,#571,.F.);
#770=ORIENTED_EDGE('',*,*,#572,.T.);
#771=ORIENTED_EDGE('',*,*,#509,.F.);
#772=ORIENTED_EDGE('',*,*,#520,.F.);
#773=ORIENTED_EDGE('',*,*,#573,.T.);
#774=ORIENTED_EDGE('',*,*,#492,.F.);
#775=ORIENTED_EDGE('',*,*,#569,.F.);
#776=ORIENTED_EDGE('',*,*,#572,.F.);
#777=ORIENTED_EDGE('',*,*,#570,.F.);
#778=ORIENTED_EDGE('',*,*,#574,.F.);
#779=ORIENTED_EDGE('',*,*,#575,.F.);
#780=ORIENTED_EDGE('',*,*,#510,.F.);
#781=ORIENTED_EDGE('',*,*,#575,.T.);
#782=ORIENTED_EDGE('',*,*,#576,.F.);
#783=ORIENTED_EDGE('',*,*,#573,.F.);
#784=ORIENTED_EDGE('',*,*,#502,.F.);
#785=ORIENTED_EDGE('',*,*,#508,.T.);
#786=ORIENTED_EDGE('',*,*,#518,.F.);
#787=ORIENTED_EDGE('',*,*,#521,.T.);
#788=ORIENTED_EDGE('',*,*,#568,.T.);
#789=ORIENTED_EDGE('',*,*,#571,.T.);
#790=ORIENTED_EDGE('',*,*,#546,.T.);
#791=ORIENTED_EDGE('',*,*,#555,.T.);
#792=ORIENTED_EDGE('',*,*,#553,.T.);
#793=ORIENTED_EDGE('',*,*,#551,.T.);
#794=ORIENTED_EDGE('',*,*,#557,.T.);
#795=ORIENTED_EDGE('',*,*,#484,.F.);
#796=ORIENTED_EDGE('',*,*,#577,.F.);
#797=ORIENTED_EDGE('',*,*,#565,.T.);
#798=ORIENTED_EDGE('',*,*,#494,.T.);
#799=ORIENTED_EDGE('',*,*,#564,.T.);
#800=ORIENTED_EDGE('',*,*,#578,.F.);
#801=ORIENTED_EDGE('',*,*,#574,.T.);
#802=ORIENTED_EDGE('',*,*,#496,.T.);
#803=ORIENTED_EDGE('',*,*,#488,.F.);
#804=ORIENTED_EDGE('',*,*,#493,.T.);
#805=ORIENTED_EDGE('',*,*,#576,.T.);
#806=ORIENTED_EDGE('',*,*,#578,.T.);
#807=ORIENTED_EDGE('',*,*,#567,.T.);
#808=ORIENTED_EDGE('',*,*,#577,.T.);
#809=ORIENTED_EDGE('',*,*,#483,.F.);
#810=ORIENTED_EDGE('',*,*,#487,.T.);
#811=ORIENTED_EDGE('',*,*,#539,.T.);
#812=ORIENTED_EDGE('',*,*,#541,.T.);
#813=ORIENTED_EDGE('',*,*,#543,.T.);
#814=ORIENTED_EDGE('',*,*,#545,.T.);
#815=ORIENTED_EDGE('',*,*,#479,.T.);
#816=ORIENTED_EDGE('',*,*,#472,.F.);
#817=ORIENTED_EDGE('',*,*,#474,.T.);
#818=ORIENTED_EDGE('',*,*,#466,.F.);
#819=ORIENTED_EDGE('',*,*,#468,.T.);
#820=ORIENTED_EDGE('',*,*,#459,.F.);
#821=ORIENTED_EDGE('',*,*,#463,.T.);
#822=ORIENTED_EDGE('',*,*,#478,.F.);
#823=CYLINDRICAL_SURFACE('',#903,2.);
#824=CYLINDRICAL_SURFACE('',#907,2.);
#825=CYLINDRICAL_SURFACE('',#911,2.);
#826=CYLINDRICAL_SURFACE('',#915,2.);
#827=CYLINDRICAL_SURFACE('',#919,10.);
#828=CYLINDRICAL_SURFACE('',#923,10.);
#829=CYLINDRICAL_SURFACE('',#932,15.);
#830=CYLINDRICAL_SURFACE('',#941,15.);
#831=CYLINDRICAL_SURFACE('',#944,15.);
#832=CYLINDRICAL_SURFACE('',#951,15.);
#833=CYLINDRICAL_SURFACE('',#954,1.2645);
#834=CYLINDRICAL_SURFACE('',#956,1.2645);
#835=CYLINDRICAL_SURFACE('',#958,1.2645);
#836=CYLINDRICAL_SURFACE('',#960,1.2645);
#837=CYLINDRICAL_SURFACE('',#962,3.5);
#838=CYLINDRICAL_SURFACE('',#964,3.5);
#839=CYLINDRICAL_SURFACE('',#967,3.5);
#840=CYLINDRICAL_SURFACE('',#970,3.5);
#841=ADVANCED_FACE('',(#61),#823,.F.);
#842=ADVANCED_FACE('',(#62),#31,.T.);
#843=ADVANCED_FACE('',(#63),#824,.F.);
#844=ADVANCED_FACE('',(#64),#32,.T.);
#845=ADVANCED_FACE('',(#65),#825,.F.);
#846=ADVANCED_FACE('',(#66),#33,.T.);
#847=ADVANCED_FACE('',(#67),#826,.F.);
#848=ADVANCED_FACE('',(#68),#34,.T.);
#849=ADVANCED_FACE('',(#69),#827,.F.);
#850=ADVANCED_FACE('',(#70),#35,.T.);
#851=ADVANCED_FACE('',(#71),#828,.T.);
#852=ADVANCED_FACE('',(#72),#36,.T.);
#853=ADVANCED_FACE('',(#73,#15,#16,#17,#18,#19),#37,.F.);
#854=ADVANCED_FACE('',(#74),#829,.T.);
#855=ADVANCED_FACE('',(#75),#38,.T.);
#856=ADVANCED_FACE('',(#76,#20,#21),#39,.T.);
#857=ADVANCED_FACE('',(#77),#830,.T.);
#858=ADVANCED_FACE('',(#78),#40,.T.);
#859=ADVANCED_FACE('',(#79),#831,.T.);
#860=ADVANCED_FACE('',(#80),#41,.T.);
#861=ADVANCED_FACE('',(#81,#22),#42,.T.);
#862=ADVANCED_FACE('',(#82),#832,.T.);
#863=ADVANCED_FACE('',(#83),#43,.T.);
#864=ADVANCED_FACE('',(#84),#833,.F.);
#865=ADVANCED_FACE('',(#85),#834,.F.);
#866=ADVANCED_FACE('',(#86),#835,.F.);
#867=ADVANCED_FACE('',(#87),#836,.F.);
#868=ADVANCED_FACE('',(#88),#837,.F.);
#869=ADVANCED_FACE('',(#89),#838,.F.);
#870=ADVANCED_FACE('',(#90),#44,.F.);
#871=ADVANCED_FACE('',(#91),#839,.F.);
#872=ADVANCED_FACE('',(#92),#45,.F.);
#873=ADVANCED_FACE('',(#93),#840,.F.);
#874=ADVANCED_FACE('',(#94),#46,.F.);
#875=ADVANCED_FACE('',(#95),#47,.T.);
#876=ADVANCED_FACE('',(#96),#48,.T.);
#877=ADVANCED_FACE('',(#97),#49,.T.);
#878=ADVANCED_FACE('',(#98),#50,.T.);
#879=ADVANCED_FACE('',(#99,#23),#51,.F.);
#880=ADVANCED_FACE('',(#100),#52,.F.);
#881=ADVANCED_FACE('',(#101),#53,.T.);
#882=ADVANCED_FACE('',(#102),#54,.T.);
#883=ADVANCED_FACE('',(#103),#55,.T.);
#884=ADVANCED_FACE('',(#104),#56,.T.);
#885=ADVANCED_FACE('',(#105,#24,#25),#57,.F.);
#886=ADVANCED_FACE('',(#106),#58,.T.);
#887=ADVANCED_FACE('',(#107),#59,.T.);
#888=ADVANCED_FACE('',(#108,#26,#27,#28,#29,#30),#60,.T.);
#889=CLOSED_SHELL('',(#841,#842,#843,#844,#845,#846,#847,#848,#849,#850,
#851,#852,#853,#854,#855,#856,#857,#858,#859,#860,#861,#862,#863,#864,#865,
#866,#867,#868,#869,#870,#871,#872,#873,#874,#875,#876,#877,#878,#879,#880,
#881,#882,#883,#884,#885,#886,#887,#888));
#890=DERIVED_UNIT_ELEMENT(#892,1.);
#891=DERIVED_UNIT_ELEMENT(#1495,3.);
#892=(
MASS_UNIT()
NAMED_UNIT(*)
SI_UNIT(.KILO.,.GRAM.)
);
#893=DERIVED_UNIT((#890,#891));
#894=MEASURE_REPRESENTATION_ITEM('density measure',
POSITIVE_RATIO_MEASURE(7850.),#893);
#895=PROPERTY_DEFINITION_REPRESENTATION(#900,#897);
#896=PROPERTY_DEFINITION_REPRESENTATION(#901,#898);
#897=REPRESENTATION('material name',(#899),#1492);
#898=REPRESENTATION('density',(#894),#1492);
#899=DESCRIPTIVE_REPRESENTATION_ITEM('Steel','Steel');
#900=PROPERTY_DEFINITION('material property','material name',#1502);
#901=PROPERTY_DEFINITION('material property','density of part',#1502);
#902=AXIS2_PLACEMENT_3D('placement',#1243,#987,#988);
#903=AXIS2_PLACEMENT_3D('',#1244,#989,#990);
#904=AXIS2_PLACEMENT_3D('',#1247,#991,#992);
#905=AXIS2_PLACEMENT_3D('',#1251,#994,#995);
#906=AXIS2_PLACEMENT_3D('',#1253,#997,#998);
#907=AXIS2_PLACEMENT_3D('',#1259,#1002,#1003);
#908=AXIS2_PLACEMENT_3D('',#1262,#1004,#1005);
#909=AXIS2_PLACEMENT_3D('',#1266,#1007,#1008);
#910=AXIS2_PLACEMENT_3D('',#1268,#1010,#1011);
#911=AXIS2_PLACEMENT_3D('',#1271,#1014,#1015);
#912=AXIS2_PLACEMENT_3D('',#1274,#1016,#1017);
#913=AXIS2_PLACEMENT_3D('',#1278,#1019,#1020);
#914=AXIS2_PLACEMENT_3D('',#1280,#1022,#1023);
#915=AXIS2_PLACEMENT_3D('',#1283,#1026,#1027);
#916=AXIS2_PLACEMENT_3D('',#1285,#1028,#1029);
#917=AXIS2_PLACEMENT_3D('',#1288,#1031,#1032);
#918=AXIS2_PLACEMENT_3D('',#1289,#1033,#1034);
#919=AXIS2_PLACEMENT_3D('',#1292,#1037,#1038);
#920=AXIS2_PLACEMENT_3D('',#1295,#1039,#1040);
#921=AXIS2_PLACEMENT_3D('',#1299,#1042,#1043);
#922=AXIS2_PLACEMENT_3D('',#1301,#1045,#1046);
#923=AXIS2_PLACEMENT_3D('',#1307,#1050,#1051);
#924=AXIS2_PLACEMENT_3D('',#1309,#1052,#1053);
#925=AXIS2_PLACEMENT_3D('',#1311,#1054,#1055);
#926=AXIS2_PLACEMENT_3D('',#1313,#1057,#1058);
#927=AXIS2_PLACEMENT_3D('',#1319,#1062,#1063);
#928=AXIS2_PLACEMENT_3D('',#1328,#1068,#1069);
#929=AXIS2_PLACEMENT_3D('',#1330,#1070,#1071);
#930=AXIS2_PLACEMENT_3D('',#1332,#1072,#1073);
#931=AXIS2_PLACEMENT_3D('',#1334,#1074,#1075);
#932=AXIS2_PLACEMENT_3D('',#1335,#1076,#1077);
#933=AXIS2_PLACEMENT_3D('',#1338,#1078,#1079);
#934=AXIS2_PLACEMENT_3D('',#1342,#1081,#1082);
#935=AXIS2_PLACEMENT_3D('',#1344,#1084,#1085);
#936=AXIS2_PLACEMENT_3D('',#1350,#1089,#1090);
#937=AXIS2_PLACEMENT_3D('',#1357,#1094,#1095);
#938=AXIS2_PLACEMENT_3D('',#1359,#1096,#1097);
#939=AXIS2_PLACEMENT_3D('',#1364,#1099,#1100);
#940=AXIS2_PLACEMENT_3D('',#1367,#1102,#1103);
#941=AXIS2_PLACEMENT_3D('',#1368,#1104,#1105);
#942=AXIS2_PLACEMENT_3D('',#1370,#1106,#1107);
#943=AXIS2_PLACEMENT_3D('',#1372,#1109,#1110);
#944=AXIS2_PLACEMENT_3D('',#1376,#1113,#1114);
#945=AXIS2_PLACEMENT_3D('',#1379,#1115,#1116);
#946=AXIS2_PLACEMENT_3D('',#1383,#1118,#1119);
#947=AXIS2_PLACEMENT_3D('',#1385,#1121,#1122);
#948=AXIS2_PLACEMENT_3D('',#1391,#1126,#1127);
#949=AXIS2_PLACEMENT_3D('',#1398,#1131,#1132);
#950=AXIS2_PLACEMENT_3D('',#1400,#1133,#1134);
#951=AXIS2_PLACEMENT_3D('',#1401,#1135,#1136);
#952=AXIS2_PLACEMENT_3D('',#1403,#1137,#1138);
#953=AXIS2_PLACEMENT_3D('',#1405,#1140,#1141);
#954=AXIS2_PLACEMENT_3D('',#1409,#1144,#1145);
#955=AXIS2_PLACEMENT_3D('',#1412,#1147,#1148);
#956=AXIS2_PLACEMENT_3D('',#1413,#1149,#1150);
#957=AXIS2_PLACEMENT_3D('',#1416,#1152,#1153);
#958=AXIS2_PLACEMENT_3D('',#1417,#1154,#1155);
#959=AXIS2_PLACEMENT_3D('',#1420,#1157,#1158);
#960=AXIS2_PLACEMENT_3D('',#1421,#1159,#1160);
#961=AXIS2_PLACEMENT_3D('',#1424,#1162,#1163);
#962=AXIS2_PLACEMENT_3D('',#1425,#1164,#1165);
#963=AXIS2_PLACEMENT_3D('',#1427,#1166,#1167);
#964=AXIS2_PLACEMENT_3D('',#1429,#1169,#1170);
#965=AXIS2_PLACEMENT_3D('',#1432,#1172,#1173);
#966=AXIS2_PLACEMENT_3D('',#1433,#1174,#1175);
#967=AXIS2_PLACEMENT_3D('',#1439,#1179,#1180);
#968=AXIS2_PLACEMENT_3D('',#1441,#1181,#1182);
#969=AXIS2_PLACEMENT_3D('',#1443,#1184,#1185);
#970=AXIS2_PLACEMENT_3D('',#1447,#1188,#1189);
#971=AXIS2_PLACEMENT_3D('',#1448,#1190,#1191);
#972=AXIS2_PLACEMENT_3D('',#1449,#1192,#1193);
#973=AXIS2_PLACEMENT_3D('',#1454,#1197,#1198);
#974=AXIS2_PLACEMENT_3D('',#1457,#1201,#1202);
#975=AXIS2_PLACEMENT_3D('',#1461,#1205,#1206);
#976=AXIS2_PLACEMENT_3D('',#1465,#1209,#1210);
#977=AXIS2_PLACEMENT_3D('',#1467,#1212,#1213);
#978=AXIS2_PLACEMENT_3D('',#1468,#1214,#1215);
#979=AXIS2_PLACEMENT_3D('',#1473,#1219,#1220);
#980=AXIS2_PLACEMENT_3D('',#1476,#1223,#1224);
#981=AXIS2_PLACEMENT_3D('',#1478,#1226,#1227);
#982=AXIS2_PLACEMENT_3D('',#1482,#1230,#1231);
#983=AXIS2_PLACEMENT_3D('',#1484,#1233,#1234);
#984=AXIS2_PLACEMENT_3D('',#1485,#1235,#1236);
#985=AXIS2_PLACEMENT_3D('',#1487,#1238,#1239);
#986=AXIS2_PLACEMENT_3D('',#1489,#1241,#1242);
#987=DIRECTION('axis',(0.,0.,1.));
#988=DIRECTION('refdir',(1.,0.,0.));
#989=DIRECTION('center_axis',(0.,0.,1.));
#990=DIRECTION('ref_axis',(0.707106781186541,0.707106781186554,0.));
#991=DIRECTION('center_axis',(0.,0.,-1.));
#992=DIRECTION('ref_axis',(0.707106781186541,0.707106781186554,0.));
#993=DIRECTION('',(0.,0.,1.));
#994=DIRECTION('center_axis',(0.,0.,1.));
#995=DIRECTION('ref_axis',(0.707106781186541,0.707106781186554,0.));
#996=DIRECTION('',(0.,0.,-1.));
#997=DIRECTION('center_axis',(-1.,0.,0.));
#998=DIRECTION('ref_axis',(0.,-1.,0.));
#999=DIRECTION('',(0.,-1.,0.));
#1000=DIRECTION('',(0.,0.,-1.));
#1001=DIRECTION('',(0.,-1.,0.));
#1002=DIRECTION('center_axis',(0.,0.,1.));
#1003=DIRECTION('ref_axis',(-0.707106781186551,0.707106781186544,0.));
#1004=DIRECTION('center_axis',(0.,0.,-1.));
#1005=DIRECTION('ref_axis',(-0.707106781186551,0.707106781186544,0.));
#1006=DIRECTION('',(0.,0.,1.));
#1007=DIRECTION('center_axis',(0.,0.,1.));
#1008=DIRECTION('ref_axis',(-0.707106781186551,0.707106781186544,0.));
#1009=DIRECTION('',(0.,0.,-1.));
#1010=DIRECTION('center_axis',(0.,-1.,0.));
#1011=DIRECTION('ref_axis',(1.,0.,0.));
#1012=DIRECTION('',(1.,0.,0.));
#1013=DIRECTION('',(1.,0.,0.));
#1014=DIRECTION('center_axis',(0.,0.,1.));
#1015=DIRECTION('ref_axis',(-0.707106781186554,-0.707106781186541,0.));
#1016=DIRECTION('center_axis',(0.,0.,-1.));
#1017=DIRECTION('ref_axis',(-0.707106781186554,-0.707106781186541,0.));
#1018=DIRECTION('',(0.,0.,1.));
#1019=DIRECTION('center_axis',(0.,0.,1.));
#1020=DIRECTION('ref_axis',(-0.707106781186554,-0.707106781186541,0.));
#1021=DIRECTION('',(0.,0.,-1.));
#1022=DIRECTION('center_axis',(1.,0.,0.));
#1023=DIRECTION('ref_axis',(0.,1.,0.));
#1024=DIRECTION('',(0.,1.,0.));
#1025=DIRECTION('',(0.,1.,0.));
#1026=DIRECTION('center_axis',(0.,0.,1.));
#1027=DIRECTION('ref_axis',(0.707106781186551,-0.707106781186544,0.));
#1028=DIRECTION('center_axis',(0.,0.,-1.));
#1029=DIRECTION('ref_axis',(0.707106781186551,-0.707106781186544,0.));
#1030=DIRECTION('',(0.,0.,1.));
#1031=DIRECTION('center_axis',(0.,0.,1.));
#1032=DIRECTION('ref_axis',(0.707106781186551,-0.707106781186544,0.));
#1033=DIRECTION('center_axis',(0.,1.,0.));
#1034=DIRECTION('ref_axis',(-1.,0.,0.));
#1035=DIRECTION('',(-1.,0.,0.));
#1036=DIRECTION('',(-1.,0.,0.));
#1037=DIRECTION('center_axis',(0.,0.,1.));
#1038=DIRECTION('ref_axis',(-0.382683432365089,-0.923879532511287,0.));
#1039=DIRECTION('center_axis',(0.,0.,-1.));
#1040=DIRECTION('ref_axis',(-0.382683432365089,-0.923879532511287,0.));
#1041=DIRECTION('',(0.,0.,1.));
#1042=DIRECTION('center_axis',(0.,0.,1.));
#1043=DIRECTION('ref_axis',(-0.382683432365089,-0.923879532511287,0.));
#1044=DIRECTION('',(0.,0.,-1.));
#1045=DIRECTION('center_axis',(0.707106781186547,0.707106781186548,0.));
#1046=DIRECTION('ref_axis',(-0.707106781186548,0.707106781186547,0.));
#1047=DIRECTION('',(-0.707106781186548,0.707106781186547,0.));
#1048=DIRECTION('',(0.,0.,-1.));
#1049=DIRECTION('',(-0.707106781186548,0.707106781186547,0.));
#1050=DIRECTION('center_axis',(0.,0.,1.));
#1051=DIRECTION('ref_axis',(0.382683432365089,0.923879532511287,0.));
#1052=DIRECTION('center_axis',(0.,0.,-1.));
#1053=DIRECTION('ref_axis',(0.382683432365089,0.923879532511287,0.));
#1054=DIRECTION('center_axis',(0.,0.,1.));
#1055=DIRECTION('ref_axis',(0.382683432365089,0.923879532511287,0.));
#1056=DIRECTION('',(0.,0.,1.));
#1057=DIRECTION('center_axis',(-2.22044604925031E-16,1.,0.));
#1058=DIRECTION('ref_axis',(-1.,-2.22044604925031E-16,0.));
#1059=DIRECTION('',(-1.,-2.22044604925031E-16,0.));
#1060=DIRECTION('',(0.,0.,1.));
#1061=DIRECTION('',(-1.,-2.22044604925031E-16,0.));
#1062=DIRECTION('center_axis',(0.,0.,1.));
#1063=DIRECTION('ref_axis',(-1.,-2.22044604925031E-16,0.));
#1064=DIRECTION('',(-1.,1.58603289232165E-16,0.));
#1065=DIRECTION('',(0.,-1.,0.));
#1066=DIRECTION('',(1.,0.,0.));
#1067=DIRECTION('',(0.,1.,0.));
#1068=DIRECTION('center_axis',(0.,0.,1.));
#1069=DIRECTION('ref_axis',(-1.,0.,0.));
#1070=DIRECTION('center_axis',(0.,0.,1.));
#1071=DIRECTION('ref_axis',(-1.,0.,0.));
#1072=DIRECTION('center_axis',(0.,0.,1.));
#1073=DIRECTION('ref_axis',(-1.,0.,0.));
#1074=DIRECTION('center_axis',(0.,0.,1.));
#1075=DIRECTION('ref_axis',(-1.,0.,0.));
#1076=DIRECTION('center_axis',(-1.67489321735783E-14,0.,-1.));
#1077=DIRECTION('ref_axis',(-0.707106781186547,-0.707106781186547,1.23052726426982E-14));
#1078=DIRECTION('center_axis',(1.67489321735783E-14,0.,1.));
#1079=DIRECTION('ref_axis',(-0.707106781186547,-0.707106781186547,1.23052726426982E-14));
#1080=DIRECTION('',(1.67489321735783E-14,0.,1.));
#1081=DIRECTION('center_axis',(-1.6779548343557E-14,0.,-1.));
#1082=DIRECTION('ref_axis',(-0.707106781186547,-0.707106781186547,1.23052726426982E-14));
#1083=DIRECTION('',(-1.67489321735783E-14,0.,-1.));
#1084=DIRECTION('center_axis',(-1.,0.,1.67489321735783E-14));
#1085=DIRECTION('ref_axis',(0.,1.,0.));
#1086=DIRECTION('',(0.,-1.,0.));
#1087=DIRECTION('',(1.67489321735783E-14,0.,1.));
#1088=DIRECTION('',(0.,1.,0.));
#1089=DIRECTION('center_axis',(0.,0.,1.));
#1090=DIRECTION('ref_axis',(1.,0.,0.));
#1091=DIRECTION('',(1.,0.,-1.68101645135356E-14));
#1092=DIRECTION('',(0.,1.,0.));
#1093=DIRECTION('',(1.,0.,-1.68101645135356E-14));
#1094=DIRECTION('center_axis',(-1.6779548343557E-14,0.,-1.));
#1095=DIRECTION('ref_axis',(-0.707106781186547,0.707106781186547,1.23052726426982E-14));
#1096=DIRECTION('center_axis',(-1.6779548343557E-14,0.,-1.));
#1097=DIRECTION('ref_axis',(0.,-1.,0.));
#1098=DIRECTION('',(2.13162820728029E-14,-1.,-3.57677585545493E-28));
#1099=DIRECTION('center_axis',(-1.6779548343557E-14,0.,-1.));
#1100=DIRECTION('ref_axis',(0.,-1.,0.));
#1101=DIRECTION('',(-2.1316282072803E-14,1.,3.57677585545494E-28));
#1102=DIRECTION('center_axis',(-1.6779548343557E-14,0.,-1.));
#1103=DIRECTION('ref_axis',(0.,-1.,0.));
#1104=DIRECTION('center_axis',(-1.67489321735783E-14,0.,-1.));
#1105=DIRECTION('ref_axis',(-0.707106781186547,0.707106781186547,1.23052726426982E-14));
#1106=DIRECTION('center_axis',(1.67489321735783E-14,0.,1.));
#1107=DIRECTION('ref_axis',(-0.707106781186547,0.707106781186547,1.23052726426982E-14));
#1108=DIRECTION('',(-1.67489321735783E-14,0.,-1.));
#1109=DIRECTION('center_axis',(0.,1.,0.));
#1110=DIRECTION('ref_axis',(1.,0.,-1.67489321735783E-14));
#1111=DIRECTION('',(-1.67489321735783E-14,0.,-1.));
#1112=DIRECTION('',(1.,0.,-1.67489321735783E-14));
#1113=DIRECTION('center_axis',(-2.31400835294853E-15,0.,-1.));
#1114=DIRECTION('ref_axis',(0.707106781186547,0.707106781186547,-2.84902716222746E-15));
#1115=DIRECTION('center_axis',(2.31400835294853E-15,0.,1.));
#1116=DIRECTION('ref_axis',(0.707106781186547,0.707106781186547,-2.84902716222746E-15));
#1117=DIRECTION('',(2.31400835294853E-15,0.,1.));
#1118=DIRECTION('center_axis',(-2.28339218296985E-15,0.,-1.));
#1119=DIRECTION('ref_axis',(0.707106781186547,0.707106781186547,-2.84902716222746E-15));
#1120=DIRECTION('',(-2.31400835294853E-15,0.,-1.));
#1121=DIRECTION('center_axis',(1.,0.,-2.31400835294853E-15));
#1122=DIRECTION('ref_axis',(0.,-1.,0.));
#1123=DIRECTION('',(0.,1.,0.));
#1124=DIRECTION('',(2.31400835294853E-15,0.,1.));
#1125=DIRECTION('',(0.,-1.,0.));
#1126=DIRECTION('center_axis',(0.,0.,1.));
#1127=DIRECTION('ref_axis',(1.,0.,0.));
#1128=DIRECTION('',(-1.,0.,2.25277601299116E-15));
#1129=DIRECTION('',(0.,-1.,0.));
#1130=DIRECTION('',(-1.,0.,2.25277601299116E-15));
#1131=DIRECTION('center_axis',(-2.28339218296985E-15,0.,-1.));
#1132=DIRECTION('ref_axis',(0.707106781186547,-0.707106781186547,-2.84902716222746E-15));
#1133=DIRECTION('center_axis',(-2.28339218296985E-15,0.,-1.));
#1134=DIRECTION('ref_axis',(0.,-1.,0.));
#1135=DIRECTION('center_axis',(-2.31400835294853E-15,0.,-1.));
#1136=DIRECTION('ref_axis',(0.707106781186547,-0.707106781186547,-2.84902716222746E-15));
#1137=DIRECTION('center_axis',(2.31400835294853E-15,0.,1.));
#1138=DIRECTION('ref_axis',(0.707106781186547,-0.707106781186547,-2.84902716222746E-15));
#1139=DIRECTION('',(-2.31400835294853E-15,0.,-1.));
#1140=DIRECTION('center_axis',(0.,-1.,0.));
#1141=DIRECTION('ref_axis',(-1.,0.,2.31400835294853E-15));
#1142=DIRECTION('',(-2.31400835294853E-15,0.,-1.));
#1143=DIRECTION('',(-1.,0.,2.31400835294853E-15));
#1144=DIRECTION('center_axis',(0.,0.,1.));
#1145=DIRECTION('ref_axis',(-1.,0.,0.));
#1146=DIRECTION('',(0.,0.,1.));
#1147=DIRECTION('center_axis',(0.,0.,-1.));
#1148=DIRECTION('ref_axis',(-1.,0.,0.));
#1149=DIRECTION('center_axis',(0.,0.,1.));
#1150=DIRECTION('ref_axis',(-1.,0.,0.));
#1151=DIRECTION('',(0.,0.,1.));
#1152=DIRECTION('center_axis',(0.,0.,-1.));
#1153=DIRECTION('ref_axis',(-1.,0.,0.));
#1154=DIRECTION('center_axis',(0.,0.,1.));
#1155=DIRECTION('ref_axis',(-1.,0.,0.));
#1156=DIRECTION('',(0.,0.,1.));
#1157=DIRECTION('center_axis',(0.,0.,-1.));
#1158=DIRECTION('ref_axis',(-1.,0.,0.));
#1159=DIRECTION('center_axis',(0.,0.,1.));
#1160=DIRECTION('ref_axis',(-1.,0.,0.));
#1161=DIRECTION('',(0.,0.,1.));
#1162=DIRECTION('center_axis',(0.,0.,-1.));
#1163=DIRECTION('ref_axis',(-1.,0.,0.));
#1164=DIRECTION('center_axis',(2.385637997649E-14,0.,1.));
#1165=DIRECTION('ref_axis',(0.,-1.,0.));
#1166=DIRECTION('center_axis',(1.67489321735783E-14,0.,1.));
#1167=DIRECTION('ref_axis',(0.,-1.,0.));
#1168=DIRECTION('',(2.385637997649E-14,0.,1.));
#1169=DIRECTION('center_axis',(-5.74627779714499E-15,0.,-1.));
#1170=DIRECTION('ref_axis',(0.,-1.,0.));
#1171=DIRECTION('',(-5.74627779714499E-15,0.,-1.));
#1172=DIRECTION('center_axis',(2.31400835294853E-15,0.,1.));
#1173=DIRECTION('ref_axis',(0.,-1.,0.));
#1174=DIRECTION('center_axis',(-1.,-2.1316282072803E-14,2.39155918711367E-14));
#1175=DIRECTION('ref_axis',(2.1316282072803E-14,-1.,-5.08486256432674E-28));
#1176=DIRECTION('',(2.39155918711367E-14,0.,1.));
#1177=DIRECTION('',(2.1316282072803E-14,-1.,-3.5702496263024E-28));
#1178=DIRECTION('',(2.39155918711367E-14,0.,1.));
#1179=DIRECTION('center_axis',(2.39155918711367E-14,0.,1.));
#1180=DIRECTION('ref_axis',(-8.75931951708652E-15,1.,2.09484310639523E-28));
#1181=DIRECTION('center_axis',(1.67489321735783E-14,0.,1.));
#1182=DIRECTION('ref_axis',(0.,-1.,0.));
#1183=DIRECTION('',(2.39155918711367E-14,0.,1.));
#1184=DIRECTION('center_axis',(1.,2.13162820728029E-14,-2.39155918711367E-14));
#1185=DIRECTION('ref_axis',(-2.13162820728029E-14,1.,5.08486256432672E-28));
#1186=DIRECTION('',(-2.13162820728029E-14,1.,3.57024962630238E-28));
#1187=DIRECTION('',(2.39155918711367E-14,0.,1.));
#1188=DIRECTION('center_axis',(2.39155918711367E-14,0.,1.));
#1189=DIRECTION('ref_axis',(0.,-1.,0.));
#1190=DIRECTION('center_axis',(1.67489321735783E-14,0.,1.));
#1191=DIRECTION('ref_axis',(0.,-1.,0.));
#1192=DIRECTION('center_axis',(0.,0.,1.));
#1193=DIRECTION('ref_axis',(-1.,-2.22044604925031E-16,0.));
#1194=DIRECTION('',(0.,1.,0.));
#1195=DIRECTION('',(-1.,0.,-1.00331265929088E-14));
#1196=DIRECTION('',(1.,0.,1.00331265929088E-14));
#1197=DIRECTION('center_axis',(0.,1.,0.));
#1198=DIRECTION('ref_axis',(1.,0.,-2.25277601299116E-15));
#1199=DIRECTION('',(1.,0.,-2.25277601299116E-15));
#1200=DIRECTION('',(2.31400835294853E-15,0.,1.));
#1201=DIRECTION('center_axis',(0.,-1.,0.));
#1202=DIRECTION('ref_axis',(0.,0.,1.));
#1203=DIRECTION('',(-1.,0.,-1.00331265929088E-14));
#1204=DIRECTION('',(0.,0.,1.));
#1205=DIRECTION('center_axis',(0.,1.,0.));
#1206=DIRECTION('ref_axis',(0.,0.,-1.));
#1207=DIRECTION('',(0.,0.,-1.));
#1208=DIRECTION('',(-1.,0.,-1.00331265929088E-14));
#1209=DIRECTION('center_axis',(0.,0.,1.));
#1210=DIRECTION('ref_axis',(1.,0.,0.));
#1211=DIRECTION('',(0.,1.,0.));
#1212=DIRECTION('center_axis',(0.,0.,1.));
#1213=DIRECTION('ref_axis',(-1.,-2.22044604925031E-16,0.));
#1214=DIRECTION('center_axis',(0.,0.,1.));
#1215=DIRECTION('ref_axis',(-1.,-2.22044604925031E-16,0.));
#1216=DIRECTION('',(0.,-1.,0.));
#1217=DIRECTION('',(1.,0.,-1.00331265929088E-14));
#1218=DIRECTION('',(-1.,0.,1.00331265929088E-14));
#1219=DIRECTION('center_axis',(0.,-1.,0.));
#1220=DIRECTION('ref_axis',(-1.,0.,1.68101645135356E-14));
#1221=DIRECTION('',(-1.,0.,1.68101645135356E-14));
#1222=DIRECTION('',(1.67489321735783E-14,0.,1.));
#1223=DIRECTION('center_axis',(0.,1.,0.));
#1224=DIRECTION('ref_axis',(0.,0.,-1.));
#1225=DIRECTION('',(1.,0.,-1.00331265929088E-14));
#1226=DIRECTION('center_axis',(0.,-1.,0.));
#1227=DIRECTION('ref_axis',(0.,0.,1.));
#1228=DIRECTION('',(0.,0.,-1.));
#1229=DIRECTION('',(1.,0.,-1.00331265929088E-14));
#1230=DIRECTION('center_axis',(0.,0.,1.));
#1231=DIRECTION('ref_axis',(1.,0.,0.));
#1232=DIRECTION('',(0.,-1.,0.));
#1233=DIRECTION('center_axis',(0.,0.,1.));
#1234=DIRECTION('ref_axis',(-1.,-2.22044604925031E-16,0.));
#1235=DIRECTION('center_axis',(1.58603289232165E-16,1.,0.));
#1236=DIRECTION('ref_axis',(-1.,1.58603289232165E-16,0.));
#1237=DIRECTION('',(-1.,1.58603289232165E-16,0.));
#1238=DIRECTION('center_axis',(0.,-1.,0.));
#1239=DIRECTION('ref_axis',(1.,0.,0.));
#1240=DIRECTION('',(1.,0.,0.));
#1241=DIRECTION('center_axis',(0.,0.,1.));
#1242=DIRECTION('ref_axis',(1.,0.,0.));
#1243=CARTESIAN_POINT('',(0.,0.,0.));
#1244=CARTESIAN_POINT('Origin',(177.9000373458,-41.790532827145,0.));
#1245=CARTESIAN_POINT('',(177.9000373458,-39.790532827145,0.));
#1246=CARTESIAN_POINT('',(179.9000373458,-41.790532827145,0.));
#1247=CARTESIAN_POINT('Origin',(177.9000373458,-41.790532827145,0.));
#1248=CARTESIAN_POINT('',(179.9000373458,-41.790532827145,3.));
#1249=CARTESIAN_POINT('',(179.9000373458,-41.790532827145,0.));
#1250=CARTESIAN_POINT('',(177.9000373458,-39.790532827145,3.));
#1251=CARTESIAN_POINT('Origin',(177.9000373458,-41.790532827145,3.));
#1252=CARTESIAN_POINT('',(177.9000373458,-39.790532827145,0.));
#1253=CARTESIAN_POINT('Origin',(179.9000373458,-39.790532827145,0.));
#1254=CARTESIAN_POINT('',(179.9000373458,-72.790532827145,0.));
#1255=CARTESIAN_POINT('',(179.9000373458,-39.790532827145,0.));
#1256=CARTESIAN_POINT('',(179.9000373458,-72.790532827145,3.));
#1257=CARTESIAN_POINT('',(179.9000373458,-72.790532827145,0.));
#1258=CARTESIAN_POINT('',(179.9000373458,-39.790532827145,3.));
#1259=CARTESIAN_POINT('Origin',(169.9000373458,-41.7905328271451,0.));
#1260=CARTESIAN_POINT('',(167.9000373458,-41.7905328271451,0.));
#1261=CARTESIAN_POINT('',(169.9000373458,-39.790532827145,0.));
#1262=CARTESIAN_POINT('Origin',(169.9000373458,-41.7905328271451,0.));
#1263=CARTESIAN_POINT('',(169.9000373458,-39.790532827145,3.));
#1264=CARTESIAN_POINT('',(169.9000373458,-39.790532827145,0.));
#1265=CARTESIAN_POINT('',(167.9000373458,-41.7905328271451,3.));
#1266=CARTESIAN_POINT('Origin',(169.9000373458,-41.7905328271451,3.));
#1267=CARTESIAN_POINT('',(167.9000373458,-41.7905328271451,0.));
#1268=CARTESIAN_POINT('Origin',(167.9000373458,-39.790532827145,0.));
#1269=CARTESIAN_POINT('',(167.9000373458,-39.790532827145,3.));
#1270=CARTESIAN_POINT('',(167.9000373458,-39.790532827145,0.));
#1271=CARTESIAN_POINT('Origin',(169.9000373458,-72.7905328271451,0.));
#1272=CARTESIAN_POINT('',(169.9000373458,-74.790532827145,0.));
#1273=CARTESIAN_POINT('',(167.9000373458,-72.7905328271451,0.));
#1274=CARTESIAN_POINT('Origin',(169.9000373458,-72.7905328271451,0.));
#1275=CARTESIAN_POINT('',(167.9000373458,-72.7905328271451,3.));
#1276=CARTESIAN_POINT('',(167.9000373458,-72.7905328271451,0.));
#1277=CARTESIAN_POINT('',(169.9000373458,-74.790532827145,3.));
#1278=CARTESIAN_POINT('Origin',(169.9000373458,-72.7905328271451,3.));
#1279=CARTESIAN_POINT('',(169.9000373458,-74.790532827145,0.));
#1280=CARTESIAN_POINT('Origin',(167.9000373458,-74.790532827145,0.));
#1281=CARTESIAN_POINT('',(167.9000373458,-74.790532827145,3.));
#1282=CARTESIAN_POINT('',(167.9000373458,-74.790532827145,0.));
#1283=CARTESIAN_POINT('Origin',(177.9000373458,-72.790532827145,0.));
#1284=CARTESIAN_POINT('',(177.9000373458,-74.790532827145,0.));
#1285=CARTESIAN_POINT('Origin',(177.9000373458,-72.790532827145,0.));
#1286=CARTESIAN_POINT('',(177.9000373458,-74.790532827145,3.));
#1287=CARTESIAN_POINT('',(177.9000373458,-74.790532827145,0.));
#1288=CARTESIAN_POINT('Origin',(177.9000373458,-72.790532827145,3.));
#1289=CARTESIAN_POINT('Origin',(179.9000373458,-74.790532827145,0.));
#1290=CARTESIAN_POINT('',(179.9000373458,-74.790532827145,3.));
#1291=CARTESIAN_POINT('',(179.9000373458,-74.790532827145,0.));
#1292=CARTESIAN_POINT('Origin',(195.042172969531,-29.790532827145,0.));
#1293=CARTESIAN_POINT('',(195.042172969531,-39.790532827145,0.));
#1294=CARTESIAN_POINT('',(187.971105157666,-36.8616006390105,0.));
#1295=CARTESIAN_POINT('Origin',(195.042172969531,-29.790532827145,0.));
#1296=CARTESIAN_POINT('',(187.971105157666,-36.8616006390105,3.));
#1297=CARTESIAN_POINT('',(187.971105157666,-36.8616006390105,0.));
#1298=CARTESIAN_POINT('',(195.042172969531,-39.790532827145,3.));
#1299=CARTESIAN_POINT('Origin',(195.042172969531,-29.790532827145,3.));
#1300=CARTESIAN_POINT('',(195.042172969531,-39.790532827145,0.));
#1301=CARTESIAN_POINT('Origin',(190.9000373458,-39.790532827145,0.));
#1302=CARTESIAN_POINT('',(173.828969533935,-22.7194650152796,0.));
#1303=CARTESIAN_POINT('',(190.9000373458,-39.790532827145,0.));
#1304=CARTESIAN_POINT('',(173.828969533935,-22.7194650152796,3.));
#1305=CARTESIAN_POINT('',(173.828969533935,-22.7194650152796,0.));
#1306=CARTESIAN_POINT('',(190.9000373458,-39.790532827145,3.));
#1307=CARTESIAN_POINT('Origin',(166.757901722069,-29.7905328271451,0.));
#1308=CARTESIAN_POINT('',(166.757901722069,-19.7905328271451,3.));
#1309=CARTESIAN_POINT('Origin',(166.757901722069,-29.7905328271451,3.));
#1310=CARTESIAN_POINT('',(166.757901722069,-19.7905328271451,0.));
#1311=CARTESIAN_POINT('Origin',(166.757901722069,-29.7905328271451,0.));
#1312=CARTESIAN_POINT('',(166.757901722069,-19.7905328271451,0.));
#1313=CARTESIAN_POINT('Origin',(170.9000373458,-19.7905328271451,0.));
#1314=CARTESIAN_POINT('',(163.9000373458,-19.7905328271451,0.));
#1315=CARTESIAN_POINT('',(170.9000373458,-19.7905328271451,0.));
#1316=CARTESIAN_POINT('',(163.9000373458,-19.7905328271451,3.));
#1317=CARTESIAN_POINT('',(163.9000373458,-19.7905328271451,1.5));
#1318=CARTESIAN_POINT('',(170.9000373458,-19.7905328271451,3.));
#1319=CARTESIAN_POINT('Origin',(217.9000373458,-49.790532827145,0.));
#1320=CARTESIAN_POINT('',(271.9000373458,-39.7905328271451,0.));
#1321=CARTESIAN_POINT('',(274.9000373458,-39.7905328271451,0.));
#1322=CARTESIAN_POINT('',(271.9000373458,-79.790532827145,0.));
#1323=CARTESIAN_POINT('',(271.9000373458,-64.790532827145,0.));
#1324=CARTESIAN_POINT('',(163.9000373458,-79.790532827145,0.));
#1325=CARTESIAN_POINT('',(160.9000373458,-79.790532827145,0.));
#1326=CARTESIAN_POINT('',(163.9000373458,-34.7905328271451,0.));
#1327=CARTESIAN_POINT('',(268.1645373458,-44.7905328271451,0.));
#1328=CARTESIAN_POINT('Origin',(266.9000373458,-44.7905328271451,0.));
#1329=CARTESIAN_POINT('',(170.1645373458,-24.7905328271451,0.));
#1330=CARTESIAN_POINT('Origin',(168.9000373458,-24.7905328271451,0.));
#1331=CARTESIAN_POINT('',(188.1645373458,-74.790532827145,0.));
#1332=CARTESIAN_POINT('Origin',(186.9000373458,-74.790532827145,0.));
#1333=CARTESIAN_POINT('',(268.1645373458,-74.790532827145,0.));
#1334=CARTESIAN_POINT('Origin',(266.9000373458,-74.790532827145,0.));
#1335=CARTESIAN_POINT('Origin',(153.114197214046,-64.790532827145,3.00000000000011));
#1336=CARTESIAN_POINT('',(138.114197214046,-64.790532827145,3.66373598126302E-13));
#1337=CARTESIAN_POINT('',(153.114197214046,-79.790532827145,1.17683640610267E-13));
#1338=CARTESIAN_POINT('Origin',(153.114197214046,-64.790532827145,1.17683640610267E-13));
#1339=CARTESIAN_POINT('',(153.114197214046,-79.790532827145,3.00000000000011));
#1340=CARTESIAN_POINT('',(153.114197214046,-79.790532827145,3.00000000000011));
#1341=CARTESIAN_POINT('',(138.114197214046,-64.790532827145,3.00000000000039));
#1342=CARTESIAN_POINT('Origin',(153.114197214046,-64.790532827145,3.00000000000011));
#1343=CARTESIAN_POINT('',(138.114197214046,-64.790532827145,3.00000000000039));
#1344=CARTESIAN_POINT('Origin',(138.114197214046,-79.790532827145,3.00000000000039));
#1345=CARTESIAN_POINT('',(138.114197214046,-34.7905328271451,3.00000000000039));
#1346=CARTESIAN_POINT('',(138.114197214046,-19.7905328271451,3.00000000000039));
#1347=CARTESIAN_POINT('',(138.114197214046,-34.7905328271451,3.66373598126302E-13));
#1348=CARTESIAN_POINT('',(138.114197214046,-34.7905328271451,3.00000000000039));
#1349=CARTESIAN_POINT('',(138.114197214046,-19.7905328271451,3.66373598126302E-13));
#1350=CARTESIAN_POINT('Origin',(217.9000373458,-49.790532827145,3.));
#1351=CARTESIAN_POINT('',(157.114197214046,-79.790532827145,3.00000000000007));
#1352=CARTESIAN_POINT('',(170.685877477554,-79.790532827145,2.99999999999982));
#1353=CARTESIAN_POINT('',(157.114197214046,-19.7905328271451,3.00000000000007));
#1354=CARTESIAN_POINT('',(157.114197214046,-49.790532827145,3.00000000000007));
#1355=CARTESIAN_POINT('',(153.114197214046,-19.7905328271451,3.00000000000011));
#1356=CARTESIAN_POINT('',(170.685877477554,-19.7905328271451,2.99999999999982));
#1357=CARTESIAN_POINT('Origin',(153.114197214046,-34.7905328271451,3.00000000000011));
#1358=CARTESIAN_POINT('',(147.114197214047,-56.2905328271451,3.00000000000025));
#1359=CARTESIAN_POINT('Origin',(147.114197214047,-59.7905328271451,3.00000000000025));
#1360=CARTESIAN_POINT('',(150.614197214047,-34.790532827145,3.00000000000018));
#1361=CARTESIAN_POINT('',(150.614197214047,-44.790532827145,3.00000000000018));
#1362=CARTESIAN_POINT('',(150.614197214047,-47.2905328271451,3.00000000000018));
#1363=CARTESIAN_POINT('',(143.614197214047,-44.7905328271451,3.00000000000028));
#1364=CARTESIAN_POINT('Origin',(147.114197214047,-44.7905328271451,3.00000000000025));
#1365=CARTESIAN_POINT('',(143.614197214047,-34.790532827145,3.00000000000028));
#1366=CARTESIAN_POINT('',(143.614197214047,-42.2905328271451,3.00000000000028));
#1367=CARTESIAN_POINT('Origin',(147.114197214047,-34.7905328271451,3.00000000000025));
#1368=CARTESIAN_POINT('Origin',(153.114197214046,-34.7905328271451,3.00000000000011));
#1369=CARTESIAN_POINT('',(153.114197214046,-19.7905328271451,1.17683640610267E-13));
#1370=CARTESIAN_POINT('Origin',(153.114197214046,-34.7905328271451,1.17683640610267E-13));
#1371=CARTESIAN_POINT('',(153.114197214046,-19.7905328271451,3.00000000000011));
#1372=CARTESIAN_POINT('Origin',(138.114197214046,-19.7905328271451,3.00000000000039));
#1373=CARTESIAN_POINT('',(157.114197214046,-19.7905328271451,4.66293670342566E-14));
#1374=CARTESIAN_POINT('',(157.114197214046,-19.7905328271451,2.34000000000008));
#1375=CARTESIAN_POINT('',(157.114197214046,-19.7905328271451,4.66293670342566E-14));
#1376=CARTESIAN_POINT('Origin',(282.685877477554,-54.7905328271451,3.00000000000007));
#1377=CARTESIAN_POINT('',(297.685877477554,-54.7905328271451,9.99200722162641E-14));
#1378=CARTESIAN_POINT('',(282.685877477554,-39.7905328271451,9.99200722162641E-14));
#1379=CARTESIAN_POINT('Origin',(282.685877477554,-54.7905328271451,1.35447209004269E-13));
#1380=CARTESIAN_POINT('',(282.685877477554,-39.7905328271451,3.00000000000007));
#1381=CARTESIAN_POINT('',(282.685877477554,-39.7905328271451,3.00000000000007));
#1382=CARTESIAN_POINT('',(297.685877477554,-54.7905328271451,3.00000000000007));
#1383=CARTESIAN_POINT('Origin',(282.685877477554,-54.7905328271451,3.00000000000011));
#1384=CARTESIAN_POINT('',(297.685877477554,-54.7905328271451,3.00000000000004));
#1385=CARTESIAN_POINT('Origin',(297.685877477554,-39.7905328271451,3.00000000000007));
#1386=CARTESIAN_POINT('',(297.685877477554,-64.7905328271451,3.00000000000007));
#1387=CARTESIAN_POINT('',(297.685877477554,-79.7905328271451,3.00000000000007));
#1388=CARTESIAN_POINT('',(297.685877477554,-64.7905328271451,9.99200722162641E-14));
#1389=CARTESIAN_POINT('',(297.685877477554,-64.7905328271451,3.00000000000011));
#1390=CARTESIAN_POINT('',(297.685877477554,-79.7905328271451,9.99200722162641E-14));
#1391=CARTESIAN_POINT('Origin',(217.9000373458,-49.790532827145,3.));
#1392=CARTESIAN_POINT('',(278.685877477554,-39.7905328271451,3.00000000000007));
#1393=CARTESIAN_POINT('',(265.114197214046,-39.7905328271451,3.00000000000011));
#1394=CARTESIAN_POINT('',(278.685877477554,-79.790532827145,3.00000000000007));
#1395=CARTESIAN_POINT('',(278.685877477554,-59.790532827145,3.00000000000011));
#1396=CARTESIAN_POINT('',(282.685877477554,-79.790532827145,3.00000000000007));
#1397=CARTESIAN_POINT('',(265.114197214046,-79.790532827145,3.00000000000011));
#1398=CARTESIAN_POINT('Origin',(282.685877477554,-64.790532827145,3.00000000000011));
#1399=CARTESIAN_POINT('',(288.685877477553,-56.2905328271451,3.00000000000007));
#1400=CARTESIAN_POINT('Origin',(288.685877477553,-59.790532827145,3.00000000000007));
#1401=CARTESIAN_POINT('Origin',(282.685877477554,-64.790532827145,3.00000000000014));
#1402=CARTESIAN_POINT('',(282.685877477554,-79.790532827145,1.35447209004269E-13));
#1403=CARTESIAN_POINT('Origin',(282.685877477554,-64.790532827145,1.35447209004269E-13));
#1404=CARTESIAN_POINT('',(282.685877477554,-79.790532827145,3.00000000000014));
#1405=CARTESIAN_POINT('Origin',(297.685877477554,-79.7905328271451,3.00000000000007));
#1406=CARTESIAN_POINT('',(278.685877477554,-79.790532827145,1.35447209004269E-13));
#1407=CARTESIAN_POINT('',(278.685877477554,-79.790532827145,2.34000000000008));
#1408=CARTESIAN_POINT('',(278.685877477554,-79.790532827145,1.35447209004269E-13));
#1409=CARTESIAN_POINT('Origin',(266.9000373458,-74.790532827145,2.));
#1410=CARTESIAN_POINT('',(268.1645373458,-74.790532827145,3.));
#1411=CARTESIAN_POINT('',(268.1645373458,-74.790532827145,2.));
#1412=CARTESIAN_POINT('Origin',(266.9000373458,-74.790532827145,3.));
#1413=CARTESIAN_POINT('Origin',(186.9000373458,-74.790532827145,2.));
#1414=CARTESIAN_POINT('',(188.1645373458,-74.790532827145,3.));
#1415=CARTESIAN_POINT('',(188.1645373458,-74.790532827145,2.));
#1416=CARTESIAN_POINT('Origin',(186.9000373458,-74.790532827145,3.));
#1417=CARTESIAN_POINT('Origin',(168.9000373458,-24.7905328271451,2.));
#1418=CARTESIAN_POINT('',(170.1645373458,-24.7905328271451,3.));
#1419=CARTESIAN_POINT('',(170.1645373458,-24.7905328271451,2.));
#1420=CARTESIAN_POINT('Origin',(168.9000373458,-24.7905328271451,3.));
#1421=CARTESIAN_POINT('Origin',(266.9000373458,-44.7905328271451,2.));
#1422=CARTESIAN_POINT('',(268.1645373458,-44.7905328271451,3.));
#1423=CARTESIAN_POINT('',(268.1645373458,-44.7905328271451,2.));
#1424=CARTESIAN_POINT('Origin',(266.9000373458,-44.7905328271451,3.));
#1425=CARTESIAN_POINT('Origin',(147.114197214047,-59.7905328271451,3.30846461338297E-13));
#1426=CARTESIAN_POINT('',(147.114197214047,-56.2905328271451,3.30846461338297E-13));
#1427=CARTESIAN_POINT('Origin',(147.114197214047,-59.7905328271451,2.42028619368284E-13));
#1428=CARTESIAN_POINT('',(147.114197214047,-56.2905328271451,3.30846461338297E-13));
#1429=CARTESIAN_POINT('Origin',(288.685877477554,-59.790532827145,120.));
#1430=CARTESIAN_POINT('',(288.685877477553,-56.2905328271451,9.99200722162641E-14));
#1431=CARTESIAN_POINT('',(288.685877477554,-56.2905328271451,120.));
#1432=CARTESIAN_POINT('Origin',(288.685877477553,-59.790532827145,9.99200722162641E-14));
#1433=CARTESIAN_POINT('Origin',(143.614197214046,-34.790532827145,4.01900734914307E-13));
#1434=CARTESIAN_POINT('',(143.614197214047,-44.7905328271451,4.01900734914307E-13));
#1435=CARTESIAN_POINT('',(143.614197214047,-44.7905328271451,4.01900734914307E-13));
#1436=CARTESIAN_POINT('',(143.614197214046,-34.790532827145,4.01900734914307E-13));
#1437=CARTESIAN_POINT('',(143.614197214047,-42.2905328271451,2.77555756156289E-13));
#1438=CARTESIAN_POINT('',(143.614197214046,-34.790532827145,4.01900734914307E-13));
#1439=CARTESIAN_POINT('Origin',(147.114197214046,-34.7905328271451,3.30846461338297E-13));
#1440=CARTESIAN_POINT('',(150.614197214046,-34.790532827145,2.42028619368284E-13));
#1441=CARTESIAN_POINT('Origin',(147.114197214046,-34.7905328271451,2.42028619368284E-13));
#1442=CARTESIAN_POINT('',(150.614197214046,-34.790532827145,2.42028619368284E-13));
#1443=CARTESIAN_POINT('Origin',(150.614197214047,-44.790532827145,2.42028619368284E-13));
#1444=CARTESIAN_POINT('',(150.614197214047,-44.790532827145,2.42028619368284E-13));
#1445=CARTESIAN_POINT('',(150.614197214047,-47.2905328271451,1.70974345792274E-13));
#1446=CARTESIAN_POINT('',(150.614197214047,-44.790532827145,2.42028619368284E-13));
#1447=CARTESIAN_POINT('Origin',(147.114197214047,-44.7905328271451,3.30846461338297E-13));
#1448=CARTESIAN_POINT('Origin',(147.114197214047,-44.7905328271451,2.42028619368284E-13));
#1449=CARTESIAN_POINT('Origin',(217.9000373458,-49.790532827145,0.));
#1450=CARTESIAN_POINT('',(278.685877477554,-39.7905328271451,6.43929354282591E-14));
#1451=CARTESIAN_POINT('',(278.685877477554,-59.790532827145,1.35447209004269E-13));
#1452=CARTESIAN_POINT('',(278.685877477554,-79.790532827145,1.25455201782643E-13));
#1453=CARTESIAN_POINT('',(271.9000373458,-39.7905328271451,-6.66133814775094E-15));
#1454=CARTESIAN_POINT('Origin',(271.9000373458,-39.7905328271451,3.00000000000011));
#1455=CARTESIAN_POINT('',(265.114197214046,-39.7905328271451,1.35447209004269E-13));
#1456=CARTESIAN_POINT('',(278.685877477554,-39.7905328271451,2.34000000000008));
#1457=CARTESIAN_POINT('Origin',(271.9000373458,-79.790532827145,1.68000000000002));
#1458=CARTESIAN_POINT('',(271.9000373458,-79.790532827145,3.));
#1459=CARTESIAN_POINT('',(278.685877477554,-79.790532827145,3.00000000000006));
#1460=CARTESIAN_POINT('',(271.9000373458,-79.790532827145,1.5));
#1461=CARTESIAN_POINT('Origin',(271.9000373458,-39.7905328271451,1.68000000000002));
#1462=CARTESIAN_POINT('',(271.9000373458,-39.7905328271451,3.));
#1463=CARTESIAN_POINT('',(271.9000373458,-39.7905328271451,1.5));
#1464=CARTESIAN_POINT('',(278.685877477554,-39.7905328271451,3.00000000000006));
#1465=CARTESIAN_POINT('Origin',(217.9000373458,-49.790532827145,3.));
#1466=CARTESIAN_POINT('',(271.9000373458,-64.790532827145,3.));
#1467=CARTESIAN_POINT('Origin',(217.9000373458,-49.790532827145,0.));
#1468=CARTESIAN_POINT('Origin',(217.9000373458,-49.790532827145,0.));
#1469=CARTESIAN_POINT('',(157.114197214046,-79.790532827145,4.66293670342566E-14));
#1470=CARTESIAN_POINT('',(157.114197214046,-49.790532827145,4.66293670342566E-14));
#1471=CARTESIAN_POINT('',(157.114197214046,-19.7905328271451,5.44009282066327E-14));
#1472=CARTESIAN_POINT('',(163.9000373458,-79.790532827145,-6.66133814775094E-15));
#1473=CARTESIAN_POINT('Origin',(163.9000373458,-79.790532827145,2.99999999999996));
#1474=CARTESIAN_POINT('',(170.685877477554,-79.790532827145,-1.66533453693773E-13));
#1475=CARTESIAN_POINT('',(157.114197214046,-79.790532827145,2.34000000000008));
#1476=CARTESIAN_POINT('Origin',(163.9000373458,-19.7905328271451,1.67999999999999));
#1477=CARTESIAN_POINT('',(157.114197214046,-19.7905328271451,3.00000000000006));
#1478=CARTESIAN_POINT('Origin',(163.9000373458,-79.790532827145,1.67999999999999));
#1479=CARTESIAN_POINT('',(163.9000373458,-79.790532827145,3.));
#1480=CARTESIAN_POINT('',(163.9000373458,-79.790532827145,1.5));
#1481=CARTESIAN_POINT('',(157.114197214046,-79.790532827145,3.00000000000006));
#1482=CARTESIAN_POINT('Origin',(217.9000373458,-49.790532827145,3.));
#1483=CARTESIAN_POINT('',(163.9000373458,-34.7905328271451,3.));
#1484=CARTESIAN_POINT('Origin',(217.9000373458,-49.790532827145,0.));
#1485=CARTESIAN_POINT('Origin',(274.9000373458,-39.7905328271451,0.));
#1486=CARTESIAN_POINT('',(274.9000373458,-39.7905328271451,3.));
#1487=CARTESIAN_POINT('Origin',(160.9000373458,-79.790532827145,0.));
#1488=CARTESIAN_POINT('',(160.9000373458,-79.790532827145,3.));
#1489=CARTESIAN_POINT('Origin',(217.9000373458,-49.790532827145,3.));
#1490=UNCERTAINTY_MEASURE_WITH_UNIT(LENGTH_MEASURE(0.01),#1494,
'DISTANCE_ACCURACY_VALUE',
'Maximum model space distance between geometric entities at asserted c
onnectivities');
#1491=UNCERTAINTY_MEASURE_WITH_UNIT(LENGTH_MEASURE(0.01),#1494,
'DISTANCE_ACCURACY_VALUE',
'Maximum model space distance between geometric entities at asserted c
onnectivities');
#1492=(
GEOMETRIC_REPRESENTATION_CONTEXT(3)
GLOBAL_UNCERTAINTY_ASSIGNED_CONTEXT((#1490))
GLOBAL_UNIT_ASSIGNED_CONTEXT((#1494,#1496,#1497))
REPRESENTATION_CONTEXT('','3D')
);
#1493=(
GEOMETRIC_REPRESENTATION_CONTEXT(3)
GLOBAL_UNCERTAINTY_ASSIGNED_CONTEXT((#1491))
GLOBAL_UNIT_ASSIGNED_CONTEXT((#1494,#1496,#1497))
REPRESENTATION_CONTEXT('','3D')
);
#1494=(
LENGTH_UNIT()
NAMED_UNIT(*)
SI_UNIT(.MILLI.,.METRE.)
);
#1495=(
LENGTH_UNIT()
NAMED_UNIT(*)
SI_UNIT($,.METRE.)
);
#1496=(
NAMED_UNIT(*)
PLANE_ANGLE_UNIT()
SI_UNIT($,.RADIAN.)
);
#1497=(
NAMED_UNIT(*)
SI_UNIT($,.STERADIAN.)
SOLID_ANGLE_UNIT()
);
#1498=SHAPE_DEFINITION_REPRESENTATION(#1499,#1500);
#1499=PRODUCT_DEFINITION_SHAPE('',$,#1502);
#1500=SHAPE_REPRESENTATION('',(#902),#1492);
#1501=PRODUCT_DEFINITION_CONTEXT('part definition',#1506,'design');
#1502=PRODUCT_DEFINITION('Bracket','Bracket',#1503,#1501);
#1503=PRODUCT_DEFINITION_FORMATION('',$,#1508);
#1504=PRODUCT_RELATED_PRODUCT_CATEGORY('Bracket','Bracket',(#1508));
#1505=APPLICATION_PROTOCOL_DEFINITION('international standard',
'automotive_design',2009,#1506);
#1506=APPLICATION_CONTEXT(
'Core Data for Automotive Mechanical Design Process');
#1507=PRODUCT_CONTEXT('part definition',#1506,'mechanical');
#1508=PRODUCT('Bracket','Bracket',$,(#1507));
#1509=PRESENTATION_STYLE_ASSIGNMENT((#1511));
#1510=PRESENTATION_STYLE_ASSIGNMENT((#1512));
#1511=SURFACE_STYLE_USAGE(.BOTH.,#1513);
#1512=SURFACE_STYLE_USAGE(.BOTH.,#1514);
#1513=SURFACE_SIDE_STYLE('',(#1515));
#1514=SURFACE_SIDE_STYLE('',(#1516));
#1515=SURFACE_STYLE_FILL_AREA(#1517);
#1516=SURFACE_STYLE_FILL_AREA(#1518);
#1517=FILL_AREA_STYLE('Steel - Satin',(#1519));
#1518=FILL_AREA_STYLE('Aluminum - Satin',(#1520));
#1519=FILL_AREA_STYLE_COLOUR('Steel - Satin',#1521);
#1520=FILL_AREA_STYLE_COLOUR('Aluminum - Satin',#1522);
#1521=COLOUR_RGB('Steel - Satin',0.627450980392157,0.627450980392157,0.627450980392157);
#1522=COLOUR_RGB('Aluminum - Satin',0.96078431372549,0.96078431372549,0.964705882352941);
ENDSEC;
END-ISO-10303-21;
