ISO-10303-21;
HEADER;
/* Generated by software containing ST-Developer
 * from STEP Tools, Inc. (www.steptools.com) 
 */

FILE_DESCRIPTION(
/* description */ (''),
/* implementation_level */ '2;1');

FILE_NAME(
/* name */ 
'C:/Users/anton/Documents/Kerbal Space Program/Kerbal_Control_Panel/KC
P2/CAD/ForManufacture/Handlebar.step',
/* time_stamp */ '2020-11-13T15:53:04-08:00',
/* author */ (''),
/* organization */ (''),
/* preprocessor_version */ 'ST-DEVELOPER v18.1',
/* originating_system */ 'Autodesk Translation Framework v9.3.0.1241',
/* authorisation */ '');

FILE_SCHEMA (('AUTOMOTIVE_DESIGN { 1 0 10303 214 3 1 1 }'));
ENDSEC;

DATA;
#10=MECHANICAL_DESIGN_GEOMETRIC_PRESENTATION_REPRESENTATION('',(#13),#2004);
#11=SHAPE_REPRESENTATION_RELATIONSHIP('SRR','None',#2011,#12);
#12=ADVANCED_BREP_SHAPE_REPRESENTATION('',(#14),#2003);
#13=STYLED_ITEM('',(#2021),#14);
#14=MANIFOLD_SOLID_BREP('Body1',#1181);
#15=FACE_BOUND('',#175,.T.);
#16=FACE_BOUND('',#176,.T.);
#17=FACE_BOUND('',#177,.T.);
#18=FACE_BOUND('',#178,.T.);
#19=FACE_BOUND('',#179,.T.);
#20=FACE_BOUND('',#180,.T.);
#21=FACE_BOUND('',#182,.T.);
#22=FACE_BOUND('',#183,.T.);
#23=FACE_BOUND('',#184,.T.);
#24=FACE_BOUND('',#185,.T.);
#25=FACE_BOUND('',#186,.T.);
#26=FACE_BOUND('',#187,.T.);
#27=CONICAL_SURFACE('',#1294,3.23225,0.872664625997165);
#28=PLANE('',#1198);
#29=PLANE('',#1202);
#30=PLANE('',#1206);
#31=PLANE('',#1210);
#32=PLANE('',#1214);
#33=PLANE('',#1218);
#34=PLANE('',#1222);
#35=PLANE('',#1226);
#36=PLANE('',#1230);
#37=PLANE('',#1234);
#38=PLANE('',#1238);
#39=PLANE('',#1242);
#40=PLANE('',#1246);
#41=PLANE('',#1250);
#42=PLANE('',#1254);
#43=PLANE('',#1258);
#44=PLANE('',#1262);
#45=PLANE('',#1266);
#46=PLANE('',#1270);
#47=PLANE('',#1274);
#48=PLANE('',#1278);
#49=PLANE('',#1282);
#50=PLANE('',#1286);
#51=PLANE('',#1290);
#52=PLANE('',#1305);
#53=PLANE('',#1306);
#54=PLANE('',#1307);
#55=PLANE('',#1308);
#56=PLANE('',#1309);
#57=PLANE('',#1310);
#58=FACE_OUTER_BOUND('',#117,.T.);
#59=FACE_OUTER_BOUND('',#118,.T.);
#60=FACE_OUTER_BOUND('',#119,.T.);
#61=FACE_OUTER_BOUND('',#120,.T.);
#62=FACE_OUTER_BOUND('',#121,.T.);
#63=FACE_OUTER_BOUND('',#122,.T.);
#64=FACE_OUTER_BOUND('',#123,.T.);
#65=FACE_OUTER_BOUND('',#124,.T.);
#66=FACE_OUTER_BOUND('',#125,.T.);
#67=FACE_OUTER_BOUND('',#126,.T.);
#68=FACE_OUTER_BOUND('',#127,.T.);
#69=FACE_OUTER_BOUND('',#128,.T.);
#70=FACE_OUTER_BOUND('',#129,.T.);
#71=FACE_OUTER_BOUND('',#130,.T.);
#72=FACE_OUTER_BOUND('',#131,.T.);
#73=FACE_OUTER_BOUND('',#132,.T.);
#74=FACE_OUTER_BOUND('',#133,.T.);
#75=FACE_OUTER_BOUND('',#134,.T.);
#76=FACE_OUTER_BOUND('',#135,.T.);
#77=FACE_OUTER_BOUND('',#136,.T.);
#78=FACE_OUTER_BOUND('',#137,.T.);
#79=FACE_OUTER_BOUND('',#138,.T.);
#80=FACE_OUTER_BOUND('',#139,.T.);
#81=FACE_OUTER_BOUND('',#140,.T.);
#82=FACE_OUTER_BOUND('',#141,.T.);
#83=FACE_OUTER_BOUND('',#142,.T.);
#84=FACE_OUTER_BOUND('',#143,.T.);
#85=FACE_OUTER_BOUND('',#144,.T.);
#86=FACE_OUTER_BOUND('',#145,.T.);
#87=FACE_OUTER_BOUND('',#146,.T.);
#88=FACE_OUTER_BOUND('',#147,.T.);
#89=FACE_OUTER_BOUND('',#148,.T.);
#90=FACE_OUTER_BOUND('',#149,.T.);
#91=FACE_OUTER_BOUND('',#150,.T.);
#92=FACE_OUTER_BOUND('',#151,.T.);
#93=FACE_OUTER_BOUND('',#152,.T.);
#94=FACE_OUTER_BOUND('',#153,.T.);
#95=FACE_OUTER_BOUND('',#154,.T.);
#96=FACE_OUTER_BOUND('',#155,.T.);
#97=FACE_OUTER_BOUND('',#156,.T.);
#98=FACE_OUTER_BOUND('',#157,.T.);
#99=FACE_OUTER_BOUND('',#158,.T.);
#100=FACE_OUTER_BOUND('',#159,.T.);
#101=FACE_OUTER_BOUND('',#160,.T.);
#102=FACE_OUTER_BOUND('',#161,.T.);
#103=FACE_OUTER_BOUND('',#162,.T.);
#104=FACE_OUTER_BOUND('',#163,.T.);
#105=FACE_OUTER_BOUND('',#164,.T.);
#106=FACE_OUTER_BOUND('',#165,.T.);
#107=FACE_OUTER_BOUND('',#166,.T.);
#108=FACE_OUTER_BOUND('',#167,.T.);
#109=FACE_OUTER_BOUND('',#168,.T.);
#110=FACE_OUTER_BOUND('',#169,.T.);
#111=FACE_OUTER_BOUND('',#170,.T.);
#112=FACE_OUTER_BOUND('',#171,.T.);
#113=FACE_OUTER_BOUND('',#172,.T.);
#114=FACE_OUTER_BOUND('',#173,.T.);
#115=FACE_OUTER_BOUND('',#174,.T.);
#116=FACE_OUTER_BOUND('',#181,.T.);
#117=EDGE_LOOP('',(#754,#755,#756,#757));
#118=EDGE_LOOP('',(#758,#759,#760,#761));
#119=EDGE_LOOP('',(#762,#763,#764,#765));
#120=EDGE_LOOP('',(#766,#767,#768,#769));
#121=EDGE_LOOP('',(#770,#771,#772,#773));
#122=EDGE_LOOP('',(#774,#775,#776,#777));
#123=EDGE_LOOP('',(#778,#779,#780,#781));
#124=EDGE_LOOP('',(#782,#783,#784,#785));
#125=EDGE_LOOP('',(#786,#787,#788,#789));
#126=EDGE_LOOP('',(#790,#791,#792,#793));
#127=EDGE_LOOP('',(#794,#795,#796,#797));
#128=EDGE_LOOP('',(#798,#799,#800,#801));
#129=EDGE_LOOP('',(#802,#803,#804,#805));
#130=EDGE_LOOP('',(#806,#807,#808,#809));
#131=EDGE_LOOP('',(#810,#811,#812,#813));
#132=EDGE_LOOP('',(#814,#815,#816,#817));
#133=EDGE_LOOP('',(#818,#819,#820,#821));
#134=EDGE_LOOP('',(#822,#823,#824,#825));
#135=EDGE_LOOP('',(#826,#827,#828,#829));
#136=EDGE_LOOP('',(#830,#831,#832,#833));
#137=EDGE_LOOP('',(#834,#835,#836,#837));
#138=EDGE_LOOP('',(#838,#839,#840,#841));
#139=EDGE_LOOP('',(#842,#843,#844,#845));
#140=EDGE_LOOP('',(#846,#847,#848,#849));
#141=EDGE_LOOP('',(#850,#851,#852,#853));
#142=EDGE_LOOP('',(#854,#855,#856,#857));
#143=EDGE_LOOP('',(#858,#859,#860,#861));
#144=EDGE_LOOP('',(#862,#863,#864,#865));
#145=EDGE_LOOP('',(#866,#867,#868,#869));
#146=EDGE_LOOP('',(#870,#871,#872,#873));
#147=EDGE_LOOP('',(#874,#875,#876,#877));
#148=EDGE_LOOP('',(#878,#879,#880,#881));
#149=EDGE_LOOP('',(#882,#883,#884,#885));
#150=EDGE_LOOP('',(#886,#887,#888,#889));
#151=EDGE_LOOP('',(#890,#891,#892,#893));
#152=EDGE_LOOP('',(#894,#895,#896,#897));
#153=EDGE_LOOP('',(#898,#899,#900,#901));
#154=EDGE_LOOP('',(#902,#903,#904,#905));
#155=EDGE_LOOP('',(#906,#907,#908,#909));
#156=EDGE_LOOP('',(#910,#911,#912,#913));
#157=EDGE_LOOP('',(#914,#915,#916,#917));
#158=EDGE_LOOP('',(#918,#919,#920,#921));
#159=EDGE_LOOP('',(#922,#923,#924,#925));
#160=EDGE_LOOP('',(#926,#927,#928,#929));
#161=EDGE_LOOP('',(#930,#931,#932,#933));
#162=EDGE_LOOP('',(#934,#935,#936,#937));
#163=EDGE_LOOP('',(#938,#939,#940,#941));
#164=EDGE_LOOP('',(#942,#943,#944,#945));
#165=EDGE_LOOP('',(#946,#947,#948,#949));
#166=EDGE_LOOP('',(#950,#951,#952,#953));
#167=EDGE_LOOP('',(#954,#955,#956,#957));
#168=EDGE_LOOP('',(#958,#959,#960,#961));
#169=EDGE_LOOP('',(#962,#963,#964,#965));
#170=EDGE_LOOP('',(#966,#967,#968,#969));
#171=EDGE_LOOP('',(#970,#971,#972,#973));
#172=EDGE_LOOP('',(#974,#975,#976,#977));
#173=EDGE_LOOP('',(#978,#979,#980,#981));
#174=EDGE_LOOP('',(#982,#983,#984,#985,#986,#987));
#175=EDGE_LOOP('',(#988));
#176=EDGE_LOOP('',(#989));
#177=EDGE_LOOP('',(#990,#991,#992,#993,#994,#995,#996,#997,#998,#999,#1000,
#1001));
#178=EDGE_LOOP('',(#1002,#1003,#1004,#1005,#1006,#1007,#1008,#1009,#1010,
#1011,#1012,#1013));
#179=EDGE_LOOP('',(#1014,#1015,#1016,#1017,#1018,#1019,#1020,#1021,#1022,
#1023,#1024,#1025));
#180=EDGE_LOOP('',(#1026,#1027,#1028,#1029,#1030,#1031,#1032,#1033,#1034,
#1035,#1036,#1037));
#181=EDGE_LOOP('',(#1038,#1039,#1040,#1041,#1042,#1043));
#182=EDGE_LOOP('',(#1044));
#183=EDGE_LOOP('',(#1045));
#184=EDGE_LOOP('',(#1046,#1047,#1048,#1049,#1050,#1051,#1052,#1053,#1054,
#1055,#1056,#1057));
#185=EDGE_LOOP('',(#1058,#1059,#1060,#1061,#1062,#1063,#1064,#1065,#1066,
#1067,#1068,#1069));
#186=EDGE_LOOP('',(#1070,#1071,#1072,#1073,#1074,#1075,#1076,#1077,#1078,
#1079,#1080,#1081));
#187=EDGE_LOOP('',(#1082,#1083,#1084,#1085,#1086,#1087,#1088,#1089,#1090,
#1091,#1092,#1093));
#188=LINE('',#1664,#301);
#189=LINE('',#1667,#302);
#190=LINE('',#1670,#303);
#191=LINE('',#1672,#304);
#192=LINE('',#1673,#305);
#193=LINE('',#1679,#306);
#194=LINE('',#1682,#307);
#195=LINE('',#1684,#308);
#196=LINE('',#1685,#309);
#197=LINE('',#1691,#310);
#198=LINE('',#1694,#311);
#199=LINE('',#1697,#312);
#200=LINE('',#1699,#313);
#201=LINE('',#1700,#314);
#202=LINE('',#1706,#315);
#203=LINE('',#1709,#316);
#204=LINE('',#1711,#317);
#205=LINE('',#1712,#318);
#206=LINE('',#1718,#319);
#207=LINE('',#1721,#320);
#208=LINE('',#1724,#321);
#209=LINE('',#1726,#322);
#210=LINE('',#1727,#323);
#211=LINE('',#1732,#324);
#212=LINE('',#1736,#325);
#213=LINE('',#1738,#326);
#214=LINE('',#1739,#327);
#215=LINE('',#1745,#328);
#216=LINE('',#1748,#329);
#217=LINE('',#1751,#330);
#218=LINE('',#1753,#331);
#219=LINE('',#1754,#332);
#220=LINE('',#1759,#333);
#221=LINE('',#1763,#334);
#222=LINE('',#1765,#335);
#223=LINE('',#1766,#336);
#224=LINE('',#1772,#337);
#225=LINE('',#1775,#338);
#226=LINE('',#1777,#339);
#227=LINE('',#1778,#340);
#228=LINE('',#1784,#341);
#229=LINE('',#1787,#342);
#230=LINE('',#1789,#343);
#231=LINE('',#1790,#344);
#232=LINE('',#1796,#345);
#233=LINE('',#1799,#346);
#234=LINE('',#1801,#347);
#235=LINE('',#1802,#348);
#236=LINE('',#1808,#349);
#237=LINE('',#1811,#350);
#238=LINE('',#1813,#351);
#239=LINE('',#1814,#352);
#240=LINE('',#1820,#353);
#241=LINE('',#1823,#354);
#242=LINE('',#1825,#355);
#243=LINE('',#1826,#356);
#244=LINE('',#1832,#357);
#245=LINE('',#1835,#358);
#246=LINE('',#1837,#359);
#247=LINE('',#1838,#360);
#248=LINE('',#1844,#361);
#249=LINE('',#1847,#362);
#250=LINE('',#1849,#363);
#251=LINE('',#1850,#364);
#252=LINE('',#1856,#365);
#253=LINE('',#1859,#366);
#254=LINE('',#1861,#367);
#255=LINE('',#1862,#368);
#256=LINE('',#1867,#369);
#257=LINE('',#1871,#370);
#258=LINE('',#1873,#371);
#259=LINE('',#1874,#372);
#260=LINE('',#1879,#373);
#261=LINE('',#1882,#374);
#262=LINE('',#1883,#375);
#263=LINE('',#1888,#376);
#264=LINE('',#1892,#377);
#265=LINE('',#1894,#378);
#266=LINE('',#1895,#379);
#267=LINE('',#1900,#380);
#268=LINE('',#1903,#381);
#269=LINE('',#1904,#382);
#270=LINE('',#1909,#383);
#271=LINE('',#1913,#384);
#272=LINE('',#1915,#385);
#273=LINE('',#1916,#386);
#274=LINE('',#1921,#387);
#275=LINE('',#1924,#388);
#276=LINE('',#1925,#389);
#277=LINE('',#1930,#390);
#278=LINE('',#1934,#391);
#279=LINE('',#1936,#392);
#280=LINE('',#1937,#393);
#281=LINE('',#1942,#394);
#282=LINE('',#1945,#395);
#283=LINE('',#1946,#396);
#284=LINE('',#1951,#397);
#285=LINE('',#1957,#398);
#286=LINE('',#1961,#399);
#287=LINE('',#1968,#400);
#288=LINE('',#1971,#401);
#289=LINE('',#1977,#402);
#290=LINE('',#1980,#403);
#291=LINE('',#1983,#404);
#292=LINE('',#1985,#405);
#293=LINE('',#1986,#406);
#294=LINE('',#1988,#407);
#295=LINE('',#1989,#408);
#296=LINE('',#1992,#409);
#297=LINE('',#1994,#410);
#298=LINE('',#1995,#411);
#299=LINE('',#1997,#412);
#300=LINE('',#1998,#413);
#301=VECTOR('',#1317,10.);
#302=VECTOR('',#1320,10.);
#303=VECTOR('',#1323,10.);
#304=VECTOR('',#1324,10.);
#305=VECTOR('',#1325,10.);
#306=VECTOR('',#1330,10.);
#307=VECTOR('',#1333,10.);
#308=VECTOR('',#1336,10.);
#309=VECTOR('',#1337,10.);
#310=VECTOR('',#1342,10.);
#311=VECTOR('',#1345,10.);
#312=VECTOR('',#1348,10.);
#313=VECTOR('',#1349,10.);
#314=VECTOR('',#1350,10.);
#315=VECTOR('',#1355,10.);
#316=VECTOR('',#1358,10.);
#317=VECTOR('',#1361,10.);
#318=VECTOR('',#1362,10.);
#319=VECTOR('',#1367,10.);
#320=VECTOR('',#1370,10.);
#321=VECTOR('',#1373,10.);
#322=VECTOR('',#1374,10.);
#323=VECTOR('',#1375,10.);
#324=VECTOR('',#1380,10.);
#325=VECTOR('',#1385,10.);
#326=VECTOR('',#1386,10.);
#327=VECTOR('',#1387,10.);
#328=VECTOR('',#1392,10.);
#329=VECTOR('',#1395,10.);
#330=VECTOR('',#1398,10.);
#331=VECTOR('',#1399,10.);
#332=VECTOR('',#1400,10.);
#333=VECTOR('',#1405,10.);
#334=VECTOR('',#1410,10.);
#335=VECTOR('',#1411,10.);
#336=VECTOR('',#1412,10.);
#337=VECTOR('',#1417,10.);
#338=VECTOR('',#1420,10.);
#339=VECTOR('',#1423,10.);
#340=VECTOR('',#1424,10.);
#341=VECTOR('',#1429,10.);
#342=VECTOR('',#1432,10.);
#343=VECTOR('',#1435,10.);
#344=VECTOR('',#1436,10.);
#345=VECTOR('',#1441,10.);
#346=VECTOR('',#1444,10.);
#347=VECTOR('',#1447,10.);
#348=VECTOR('',#1448,10.);
#349=VECTOR('',#1453,10.);
#350=VECTOR('',#1456,10.);
#351=VECTOR('',#1459,10.);
#352=VECTOR('',#1460,10.);
#353=VECTOR('',#1465,10.);
#354=VECTOR('',#1468,10.);
#355=VECTOR('',#1471,10.);
#356=VECTOR('',#1472,10.);
#357=VECTOR('',#1477,10.);
#358=VECTOR('',#1480,10.);
#359=VECTOR('',#1483,10.);
#360=VECTOR('',#1484,10.);
#361=VECTOR('',#1489,10.);
#362=VECTOR('',#1492,10.);
#363=VECTOR('',#1495,10.);
#364=VECTOR('',#1496,10.);
#365=VECTOR('',#1501,10.);
#366=VECTOR('',#1504,10.);
#367=VECTOR('',#1507,10.);
#368=VECTOR('',#1508,10.);
#369=VECTOR('',#1513,10.);
#370=VECTOR('',#1518,10.);
#371=VECTOR('',#1519,10.);
#372=VECTOR('',#1520,10.);
#373=VECTOR('',#1525,10.);
#374=VECTOR('',#1530,10.);
#375=VECTOR('',#1531,10.);
#376=VECTOR('',#1536,10.);
#377=VECTOR('',#1541,10.);
#378=VECTOR('',#1542,10.);
#379=VECTOR('',#1543,10.);
#380=VECTOR('',#1548,10.);
#381=VECTOR('',#1553,10.);
#382=VECTOR('',#1554,10.);
#383=VECTOR('',#1559,10.);
#384=VECTOR('',#1564,10.);
#385=VECTOR('',#1565,10.);
#386=VECTOR('',#1566,10.);
#387=VECTOR('',#1571,10.);
#388=VECTOR('',#1576,10.);
#389=VECTOR('',#1577,10.);
#390=VECTOR('',#1582,10.);
#391=VECTOR('',#1587,10.);
#392=VECTOR('',#1588,10.);
#393=VECTOR('',#1589,10.);
#394=VECTOR('',#1594,10.);
#395=VECTOR('',#1599,10.);
#396=VECTOR('',#1600,10.);
#397=VECTOR('',#1605,3.5);
#398=VECTOR('',#1612,3.23225);
#399=VECTOR('',#1617,2.248);
#400=VECTOR('',#1624,10.);
#401=VECTOR('',#1627,10.);
#402=VECTOR('',#1632,10.);
#403=VECTOR('',#1635,10.);
#404=VECTOR('',#1638,10.);
#405=VECTOR('',#1639,10.);
#406=VECTOR('',#1640,10.);
#407=VECTOR('',#1643,10.);
#408=VECTOR('',#1644,10.);
#409=VECTOR('',#1647,10.);
#410=VECTOR('',#1648,10.);
#411=VECTOR('',#1649,10.);
#412=VECTOR('',#1652,10.);
#413=VECTOR('',#1653,10.);
#414=CIRCLE('',#1196,1.);
#415=CIRCLE('',#1197,1.);
#416=CIRCLE('',#1200,1.);
#417=CIRCLE('',#1201,1.);
#418=CIRCLE('',#1204,1.);
#419=CIRCLE('',#1205,1.);
#420=CIRCLE('',#1208,1.);
#421=CIRCLE('',#1209,1.);
#422=CIRCLE('',#1212,1.);
#423=CIRCLE('',#1213,1.);
#424=CIRCLE('',#1216,1.);
#425=CIRCLE('',#1217,1.);
#426=CIRCLE('',#1220,1.);
#427=CIRCLE('',#1221,1.);
#428=CIRCLE('',#1224,1.);
#429=CIRCLE('',#1225,1.);
#430=CIRCLE('',#1228,1.);
#431=CIRCLE('',#1229,1.);
#432=CIRCLE('',#1232,1.);
#433=CIRCLE('',#1233,1.);
#434=CIRCLE('',#1236,1.);
#435=CIRCLE('',#1237,1.);
#436=CIRCLE('',#1240,1.);
#437=CIRCLE('',#1241,1.);
#438=CIRCLE('',#1244,1.);
#439=CIRCLE('',#1245,1.);
#440=CIRCLE('',#1248,1.);
#441=CIRCLE('',#1249,1.);
#442=CIRCLE('',#1252,1.);
#443=CIRCLE('',#1253,1.);
#444=CIRCLE('',#1256,1.);
#445=CIRCLE('',#1257,1.);
#446=CIRCLE('',#1260,1.);
#447=CIRCLE('',#1261,1.);
#448=CIRCLE('',#1264,1.);
#449=CIRCLE('',#1265,1.);
#450=CIRCLE('',#1268,1.);
#451=CIRCLE('',#1269,1.);
#452=CIRCLE('',#1272,1.);
#453=CIRCLE('',#1273,1.);
#454=CIRCLE('',#1276,1.);
#455=CIRCLE('',#1277,1.);
#456=CIRCLE('',#1280,1.);
#457=CIRCLE('',#1281,1.);
#458=CIRCLE('',#1284,1.);
#459=CIRCLE('',#1285,1.);
#460=CIRCLE('',#1288,1.);
#461=CIRCLE('',#1289,1.);
#462=CIRCLE('',#1292,3.5);
#463=CIRCLE('',#1293,3.5);
#464=CIRCLE('',#1295,4.2165);
#465=CIRCLE('',#1296,2.248);
#466=CIRCLE('',#1298,2.248);
#467=CIRCLE('',#1300,12.7);
#468=CIRCLE('',#1301,12.7);
#469=CIRCLE('',#1303,9.);
#470=CIRCLE('',#1304,9.);
#471=VERTEX_POINT('',#1660);
#472=VERTEX_POINT('',#1661);
#473=VERTEX_POINT('',#1663);
#474=VERTEX_POINT('',#1665);
#475=VERTEX_POINT('',#1669);
#476=VERTEX_POINT('',#1671);
#477=VERTEX_POINT('',#1675);
#478=VERTEX_POINT('',#1676);
#479=VERTEX_POINT('',#1678);
#480=VERTEX_POINT('',#1680);
#481=VERTEX_POINT('',#1687);
#482=VERTEX_POINT('',#1688);
#483=VERTEX_POINT('',#1690);
#484=VERTEX_POINT('',#1692);
#485=VERTEX_POINT('',#1696);
#486=VERTEX_POINT('',#1698);
#487=VERTEX_POINT('',#1702);
#488=VERTEX_POINT('',#1703);
#489=VERTEX_POINT('',#1705);
#490=VERTEX_POINT('',#1707);
#491=VERTEX_POINT('',#1714);
#492=VERTEX_POINT('',#1715);
#493=VERTEX_POINT('',#1717);
#494=VERTEX_POINT('',#1719);
#495=VERTEX_POINT('',#1723);
#496=VERTEX_POINT('',#1725);
#497=VERTEX_POINT('',#1729);
#498=VERTEX_POINT('',#1731);
#499=VERTEX_POINT('',#1735);
#500=VERTEX_POINT('',#1737);
#501=VERTEX_POINT('',#1741);
#502=VERTEX_POINT('',#1742);
#503=VERTEX_POINT('',#1744);
#504=VERTEX_POINT('',#1746);
#505=VERTEX_POINT('',#1750);
#506=VERTEX_POINT('',#1752);
#507=VERTEX_POINT('',#1756);
#508=VERTEX_POINT('',#1758);
#509=VERTEX_POINT('',#1762);
#510=VERTEX_POINT('',#1764);
#511=VERTEX_POINT('',#1768);
#512=VERTEX_POINT('',#1769);
#513=VERTEX_POINT('',#1771);
#514=VERTEX_POINT('',#1773);
#515=VERTEX_POINT('',#1780);
#516=VERTEX_POINT('',#1781);
#517=VERTEX_POINT('',#1783);
#518=VERTEX_POINT('',#1785);
#519=VERTEX_POINT('',#1792);
#520=VERTEX_POINT('',#1793);
#521=VERTEX_POINT('',#1795);
#522=VERTEX_POINT('',#1797);
#523=VERTEX_POINT('',#1804);
#524=VERTEX_POINT('',#1805);
#525=VERTEX_POINT('',#1807);
#526=VERTEX_POINT('',#1809);
#527=VERTEX_POINT('',#1816);
#528=VERTEX_POINT('',#1817);
#529=VERTEX_POINT('',#1819);
#530=VERTEX_POINT('',#1821);
#531=VERTEX_POINT('',#1828);
#532=VERTEX_POINT('',#1829);
#533=VERTEX_POINT('',#1831);
#534=VERTEX_POINT('',#1833);
#535=VERTEX_POINT('',#1840);
#536=VERTEX_POINT('',#1841);
#537=VERTEX_POINT('',#1843);
#538=VERTEX_POINT('',#1845);
#539=VERTEX_POINT('',#1852);
#540=VERTEX_POINT('',#1853);
#541=VERTEX_POINT('',#1855);
#542=VERTEX_POINT('',#1857);
#543=VERTEX_POINT('',#1864);
#544=VERTEX_POINT('',#1866);
#545=VERTEX_POINT('',#1870);
#546=VERTEX_POINT('',#1872);
#547=VERTEX_POINT('',#1876);
#548=VERTEX_POINT('',#1878);
#549=VERTEX_POINT('',#1885);
#550=VERTEX_POINT('',#1887);
#551=VERTEX_POINT('',#1891);
#552=VERTEX_POINT('',#1893);
#553=VERTEX_POINT('',#1897);
#554=VERTEX_POINT('',#1899);
#555=VERTEX_POINT('',#1906);
#556=VERTEX_POINT('',#1908);
#557=VERTEX_POINT('',#1912);
#558=VERTEX_POINT('',#1914);
#559=VERTEX_POINT('',#1918);
#560=VERTEX_POINT('',#1920);
#561=VERTEX_POINT('',#1927);
#562=VERTEX_POINT('',#1929);
#563=VERTEX_POINT('',#1933);
#564=VERTEX_POINT('',#1935);
#565=VERTEX_POINT('',#1939);
#566=VERTEX_POINT('',#1941);
#567=VERTEX_POINT('',#1948);
#568=VERTEX_POINT('',#1950);
#569=VERTEX_POINT('',#1954);
#570=VERTEX_POINT('',#1956);
#571=VERTEX_POINT('',#1960);
#572=VERTEX_POINT('',#1964);
#573=VERTEX_POINT('',#1965);
#574=VERTEX_POINT('',#1967);
#575=VERTEX_POINT('',#1969);
#576=VERTEX_POINT('',#1973);
#577=VERTEX_POINT('',#1974);
#578=VERTEX_POINT('',#1976);
#579=VERTEX_POINT('',#1978);
#580=VERTEX_POINT('',#1982);
#581=VERTEX_POINT('',#1984);
#582=VERTEX_POINT('',#1991);
#583=VERTEX_POINT('',#1993);
#584=EDGE_CURVE('',#471,#472,#414,.T.);
#585=EDGE_CURVE('',#472,#473,#188,.T.);
#586=EDGE_CURVE('',#473,#474,#415,.T.);
#587=EDGE_CURVE('',#474,#471,#189,.T.);
#588=EDGE_CURVE('',#475,#472,#190,.T.);
#589=EDGE_CURVE('',#476,#475,#191,.T.);
#590=EDGE_CURVE('',#473,#476,#192,.T.);
#591=EDGE_CURVE('',#477,#478,#416,.T.);
#592=EDGE_CURVE('',#478,#479,#193,.T.);
#593=EDGE_CURVE('',#479,#480,#417,.T.);
#594=EDGE_CURVE('',#480,#477,#194,.T.);
#595=EDGE_CURVE('',#479,#474,#195,.T.);
#596=EDGE_CURVE('',#471,#478,#196,.T.);
#597=EDGE_CURVE('',#481,#482,#418,.T.);
#598=EDGE_CURVE('',#482,#483,#197,.T.);
#599=EDGE_CURVE('',#483,#484,#419,.T.);
#600=EDGE_CURVE('',#484,#481,#198,.T.);
#601=EDGE_CURVE('',#485,#482,#199,.T.);
#602=EDGE_CURVE('',#486,#485,#200,.T.);
#603=EDGE_CURVE('',#483,#486,#201,.T.);
#604=EDGE_CURVE('',#487,#488,#420,.T.);
#605=EDGE_CURVE('',#488,#489,#202,.T.);
#606=EDGE_CURVE('',#489,#490,#421,.T.);
#607=EDGE_CURVE('',#490,#487,#203,.T.);
#608=EDGE_CURVE('',#489,#484,#204,.T.);
#609=EDGE_CURVE('',#481,#488,#205,.T.);
#610=EDGE_CURVE('',#491,#492,#422,.T.);
#611=EDGE_CURVE('',#492,#493,#206,.T.);
#612=EDGE_CURVE('',#493,#494,#423,.T.);
#613=EDGE_CURVE('',#494,#491,#207,.T.);
#614=EDGE_CURVE('',#495,#492,#208,.T.);
#615=EDGE_CURVE('',#496,#495,#209,.T.);
#616=EDGE_CURVE('',#493,#496,#210,.T.);
#617=EDGE_CURVE('',#495,#497,#424,.T.);
#618=EDGE_CURVE('',#497,#498,#211,.T.);
#619=EDGE_CURVE('',#498,#496,#425,.T.);
#620=EDGE_CURVE('',#499,#497,#212,.T.);
#621=EDGE_CURVE('',#500,#499,#213,.T.);
#622=EDGE_CURVE('',#498,#500,#214,.T.);
#623=EDGE_CURVE('',#501,#502,#426,.T.);
#624=EDGE_CURVE('',#502,#503,#215,.T.);
#625=EDGE_CURVE('',#503,#504,#427,.T.);
#626=EDGE_CURVE('',#504,#501,#216,.T.);
#627=EDGE_CURVE('',#505,#502,#217,.T.);
#628=EDGE_CURVE('',#506,#505,#218,.T.);
#629=EDGE_CURVE('',#503,#506,#219,.T.);
#630=EDGE_CURVE('',#505,#507,#428,.T.);
#631=EDGE_CURVE('',#507,#508,#220,.T.);
#632=EDGE_CURVE('',#508,#506,#429,.T.);
#633=EDGE_CURVE('',#509,#507,#221,.T.);
#634=EDGE_CURVE('',#510,#509,#222,.T.);
#635=EDGE_CURVE('',#508,#510,#223,.T.);
#636=EDGE_CURVE('',#511,#512,#430,.T.);
#637=EDGE_CURVE('',#512,#513,#224,.T.);
#638=EDGE_CURVE('',#513,#514,#431,.T.);
#639=EDGE_CURVE('',#514,#511,#225,.T.);
#640=EDGE_CURVE('',#513,#490,#226,.T.);
#641=EDGE_CURVE('',#487,#512,#227,.T.);
#642=EDGE_CURVE('',#515,#516,#432,.T.);
#643=EDGE_CURVE('',#516,#517,#228,.T.);
#644=EDGE_CURVE('',#517,#518,#433,.T.);
#645=EDGE_CURVE('',#518,#515,#229,.T.);
#646=EDGE_CURVE('',#517,#514,#230,.T.);
#647=EDGE_CURVE('',#511,#516,#231,.T.);
#648=EDGE_CURVE('',#519,#520,#434,.T.);
#649=EDGE_CURVE('',#520,#521,#232,.T.);
#650=EDGE_CURVE('',#521,#522,#435,.T.);
#651=EDGE_CURVE('',#522,#519,#233,.T.);
#652=EDGE_CURVE('',#521,#494,#234,.T.);
#653=EDGE_CURVE('',#491,#520,#235,.T.);
#654=EDGE_CURVE('',#523,#524,#436,.T.);
#655=EDGE_CURVE('',#524,#525,#236,.T.);
#656=EDGE_CURVE('',#525,#526,#437,.T.);
#657=EDGE_CURVE('',#526,#523,#237,.T.);
#658=EDGE_CURVE('',#525,#522,#238,.T.);
#659=EDGE_CURVE('',#519,#524,#239,.T.);
#660=EDGE_CURVE('',#527,#528,#438,.T.);
#661=EDGE_CURVE('',#528,#529,#240,.T.);
#662=EDGE_CURVE('',#529,#530,#439,.T.);
#663=EDGE_CURVE('',#530,#527,#241,.T.);
#664=EDGE_CURVE('',#529,#504,#242,.T.);
#665=EDGE_CURVE('',#501,#528,#243,.T.);
#666=EDGE_CURVE('',#531,#532,#440,.T.);
#667=EDGE_CURVE('',#532,#533,#244,.T.);
#668=EDGE_CURVE('',#533,#534,#441,.T.);
#669=EDGE_CURVE('',#534,#531,#245,.T.);
#670=EDGE_CURVE('',#533,#530,#246,.T.);
#671=EDGE_CURVE('',#527,#532,#247,.T.);
#672=EDGE_CURVE('',#535,#536,#442,.T.);
#673=EDGE_CURVE('',#536,#537,#248,.T.);
#674=EDGE_CURVE('',#537,#538,#443,.T.);
#675=EDGE_CURVE('',#538,#535,#249,.T.);
#676=EDGE_CURVE('',#537,#480,#250,.T.);
#677=EDGE_CURVE('',#477,#536,#251,.T.);
#678=EDGE_CURVE('',#539,#540,#444,.T.);
#679=EDGE_CURVE('',#540,#541,#252,.T.);
#680=EDGE_CURVE('',#541,#542,#445,.T.);
#681=EDGE_CURVE('',#542,#539,#253,.T.);
#682=EDGE_CURVE('',#541,#538,#254,.T.);
#683=EDGE_CURVE('',#535,#540,#255,.T.);
#684=EDGE_CURVE('',#499,#543,#446,.T.);
#685=EDGE_CURVE('',#543,#544,#256,.T.);
#686=EDGE_CURVE('',#544,#500,#447,.T.);
#687=EDGE_CURVE('',#545,#543,#257,.T.);
#688=EDGE_CURVE('',#546,#545,#258,.T.);
#689=EDGE_CURVE('',#544,#546,#259,.T.);
#690=EDGE_CURVE('',#545,#547,#448,.T.);
#691=EDGE_CURVE('',#547,#548,#260,.T.);
#692=EDGE_CURVE('',#548,#546,#449,.T.);
#693=EDGE_CURVE('',#548,#526,#261,.T.);
#694=EDGE_CURVE('',#523,#547,#262,.T.);
#695=EDGE_CURVE('',#475,#549,#450,.T.);
#696=EDGE_CURVE('',#549,#550,#263,.T.);
#697=EDGE_CURVE('',#550,#476,#451,.T.);
#698=EDGE_CURVE('',#551,#549,#264,.T.);
#699=EDGE_CURVE('',#552,#551,#265,.T.);
#700=EDGE_CURVE('',#550,#552,#266,.T.);
#701=EDGE_CURVE('',#551,#553,#452,.T.);
#702=EDGE_CURVE('',#553,#554,#267,.T.);
#703=EDGE_CURVE('',#554,#552,#453,.T.);
#704=EDGE_CURVE('',#554,#542,#268,.T.);
#705=EDGE_CURVE('',#539,#553,#269,.T.);
#706=EDGE_CURVE('',#485,#555,#454,.T.);
#707=EDGE_CURVE('',#555,#556,#270,.T.);
#708=EDGE_CURVE('',#556,#486,#455,.T.);
#709=EDGE_CURVE('',#557,#555,#271,.T.);
#710=EDGE_CURVE('',#558,#557,#272,.T.);
#711=EDGE_CURVE('',#556,#558,#273,.T.);
#712=EDGE_CURVE('',#557,#559,#456,.T.);
#713=EDGE_CURVE('',#559,#560,#274,.T.);
#714=EDGE_CURVE('',#560,#558,#457,.T.);
#715=EDGE_CURVE('',#560,#518,#275,.T.);
#716=EDGE_CURVE('',#515,#559,#276,.T.);
#717=EDGE_CURVE('',#509,#561,#458,.T.);
#718=EDGE_CURVE('',#561,#562,#277,.T.);
#719=EDGE_CURVE('',#562,#510,#459,.T.);
#720=EDGE_CURVE('',#563,#561,#278,.T.);
#721=EDGE_CURVE('',#564,#563,#279,.T.);
#722=EDGE_CURVE('',#562,#564,#280,.T.);
#723=EDGE_CURVE('',#563,#565,#460,.T.);
#724=EDGE_CURVE('',#565,#566,#281,.T.);
#725=EDGE_CURVE('',#566,#564,#461,.T.);
#726=EDGE_CURVE('',#566,#534,#282,.T.);
#727=EDGE_CURVE('',#531,#565,#283,.T.);
#728=EDGE_CURVE('',#567,#567,#462,.T.);
#729=EDGE_CURVE('',#567,#568,#284,.T.);
#730=EDGE_CURVE('',#568,#568,#463,.T.);
#731=EDGE_CURVE('',#569,#569,#464,.T.);
#732=EDGE_CURVE('',#569,#570,#285,.T.);
#733=EDGE_CURVE('',#570,#570,#465,.T.);
#734=EDGE_CURVE('',#570,#571,#286,.T.);
#735=EDGE_CURVE('',#571,#571,#466,.T.);
#736=EDGE_CURVE('',#572,#573,#467,.T.);
#737=EDGE_CURVE('',#572,#574,#287,.T.);
#738=EDGE_CURVE('',#575,#574,#468,.T.);
#739=EDGE_CURVE('',#573,#575,#288,.T.);
#740=EDGE_CURVE('',#576,#577,#469,.T.);
#741=EDGE_CURVE('',#576,#578,#289,.T.);
#742=EDGE_CURVE('',#579,#578,#470,.T.);
#743=EDGE_CURVE('',#577,#579,#290,.T.);
#744=EDGE_CURVE('',#577,#580,#291,.T.);
#745=EDGE_CURVE('',#581,#579,#292,.T.);
#746=EDGE_CURVE('',#580,#581,#293,.T.);
#747=EDGE_CURVE('',#572,#580,#294,.T.);
#748=EDGE_CURVE('',#574,#581,#295,.T.);
#749=EDGE_CURVE('',#582,#573,#296,.T.);
#750=EDGE_CURVE('',#583,#575,#297,.T.);
#751=EDGE_CURVE('',#582,#583,#298,.T.);
#752=EDGE_CURVE('',#576,#582,#299,.T.);
#753=EDGE_CURVE('',#578,#583,#300,.T.);
#754=ORIENTED_EDGE('',*,*,#584,.T.);
#755=ORIENTED_EDGE('',*,*,#585,.T.);
#756=ORIENTED_EDGE('',*,*,#586,.T.);
#757=ORIENTED_EDGE('',*,*,#587,.T.);
#758=ORIENTED_EDGE('',*,*,#585,.F.);
#759=ORIENTED_EDGE('',*,*,#588,.F.);
#760=ORIENTED_EDGE('',*,*,#589,.F.);
#761=ORIENTED_EDGE('',*,*,#590,.F.);
#762=ORIENTED_EDGE('',*,*,#591,.T.);
#763=ORIENTED_EDGE('',*,*,#592,.T.);
#764=ORIENTED_EDGE('',*,*,#593,.T.);
#765=ORIENTED_EDGE('',*,*,#594,.T.);
#766=ORIENTED_EDGE('',*,*,#587,.F.);
#767=ORIENTED_EDGE('',*,*,#595,.F.);
#768=ORIENTED_EDGE('',*,*,#592,.F.);
#769=ORIENTED_EDGE('',*,*,#596,.F.);
#770=ORIENTED_EDGE('',*,*,#597,.T.);
#771=ORIENTED_EDGE('',*,*,#598,.T.);
#772=ORIENTED_EDGE('',*,*,#599,.T.);
#773=ORIENTED_EDGE('',*,*,#600,.T.);
#774=ORIENTED_EDGE('',*,*,#598,.F.);
#775=ORIENTED_EDGE('',*,*,#601,.F.);
#776=ORIENTED_EDGE('',*,*,#602,.F.);
#777=ORIENTED_EDGE('',*,*,#603,.F.);
#778=ORIENTED_EDGE('',*,*,#604,.T.);
#779=ORIENTED_EDGE('',*,*,#605,.T.);
#780=ORIENTED_EDGE('',*,*,#606,.T.);
#781=ORIENTED_EDGE('',*,*,#607,.T.);
#782=ORIENTED_EDGE('',*,*,#600,.F.);
#783=ORIENTED_EDGE('',*,*,#608,.F.);
#784=ORIENTED_EDGE('',*,*,#605,.F.);
#785=ORIENTED_EDGE('',*,*,#609,.F.);
#786=ORIENTED_EDGE('',*,*,#610,.T.);
#787=ORIENTED_EDGE('',*,*,#611,.T.);
#788=ORIENTED_EDGE('',*,*,#612,.T.);
#789=ORIENTED_EDGE('',*,*,#613,.T.);
#790=ORIENTED_EDGE('',*,*,#611,.F.);
#791=ORIENTED_EDGE('',*,*,#614,.F.);
#792=ORIENTED_EDGE('',*,*,#615,.F.);
#793=ORIENTED_EDGE('',*,*,#616,.F.);
#794=ORIENTED_EDGE('',*,*,#617,.T.);
#795=ORIENTED_EDGE('',*,*,#618,.T.);
#796=ORIENTED_EDGE('',*,*,#619,.T.);
#797=ORIENTED_EDGE('',*,*,#615,.T.);
#798=ORIENTED_EDGE('',*,*,#618,.F.);
#799=ORIENTED_EDGE('',*,*,#620,.F.);
#800=ORIENTED_EDGE('',*,*,#621,.F.);
#801=ORIENTED_EDGE('',*,*,#622,.F.);
#802=ORIENTED_EDGE('',*,*,#623,.T.);
#803=ORIENTED_EDGE('',*,*,#624,.T.);
#804=ORIENTED_EDGE('',*,*,#625,.T.);
#805=ORIENTED_EDGE('',*,*,#626,.T.);
#806=ORIENTED_EDGE('',*,*,#624,.F.);
#807=ORIENTED_EDGE('',*,*,#627,.F.);
#808=ORIENTED_EDGE('',*,*,#628,.F.);
#809=ORIENTED_EDGE('',*,*,#629,.F.);
#810=ORIENTED_EDGE('',*,*,#630,.T.);
#811=ORIENTED_EDGE('',*,*,#631,.T.);
#812=ORIENTED_EDGE('',*,*,#632,.T.);
#813=ORIENTED_EDGE('',*,*,#628,.T.);
#814=ORIENTED_EDGE('',*,*,#631,.F.);
#815=ORIENTED_EDGE('',*,*,#633,.F.);
#816=ORIENTED_EDGE('',*,*,#634,.F.);
#817=ORIENTED_EDGE('',*,*,#635,.F.);
#818=ORIENTED_EDGE('',*,*,#636,.T.);
#819=ORIENTED_EDGE('',*,*,#637,.T.);
#820=ORIENTED_EDGE('',*,*,#638,.T.);
#821=ORIENTED_EDGE('',*,*,#639,.T.);
#822=ORIENTED_EDGE('',*,*,#607,.F.);
#823=ORIENTED_EDGE('',*,*,#640,.F.);
#824=ORIENTED_EDGE('',*,*,#637,.F.);
#825=ORIENTED_EDGE('',*,*,#641,.F.);
#826=ORIENTED_EDGE('',*,*,#642,.T.);
#827=ORIENTED_EDGE('',*,*,#643,.T.);
#828=ORIENTED_EDGE('',*,*,#644,.T.);
#829=ORIENTED_EDGE('',*,*,#645,.T.);
#830=ORIENTED_EDGE('',*,*,#639,.F.);
#831=ORIENTED_EDGE('',*,*,#646,.F.);
#832=ORIENTED_EDGE('',*,*,#643,.F.);
#833=ORIENTED_EDGE('',*,*,#647,.F.);
#834=ORIENTED_EDGE('',*,*,#648,.T.);
#835=ORIENTED_EDGE('',*,*,#649,.T.);
#836=ORIENTED_EDGE('',*,*,#650,.T.);
#837=ORIENTED_EDGE('',*,*,#651,.T.);
#838=ORIENTED_EDGE('',*,*,#613,.F.);
#839=ORIENTED_EDGE('',*,*,#652,.F.);
#840=ORIENTED_EDGE('',*,*,#649,.F.);
#841=ORIENTED_EDGE('',*,*,#653,.F.);
#842=ORIENTED_EDGE('',*,*,#654,.T.);
#843=ORIENTED_EDGE('',*,*,#655,.T.);
#844=ORIENTED_EDGE('',*,*,#656,.T.);
#845=ORIENTED_EDGE('',*,*,#657,.T.);
#846=ORIENTED_EDGE('',*,*,#651,.F.);
#847=ORIENTED_EDGE('',*,*,#658,.F.);
#848=ORIENTED_EDGE('',*,*,#655,.F.);
#849=ORIENTED_EDGE('',*,*,#659,.F.);
#850=ORIENTED_EDGE('',*,*,#660,.T.);
#851=ORIENTED_EDGE('',*,*,#661,.T.);
#852=ORIENTED_EDGE('',*,*,#662,.T.);
#853=ORIENTED_EDGE('',*,*,#663,.T.);
#854=ORIENTED_EDGE('',*,*,#626,.F.);
#855=ORIENTED_EDGE('',*,*,#664,.F.);
#856=ORIENTED_EDGE('',*,*,#661,.F.);
#857=ORIENTED_EDGE('',*,*,#665,.F.);
#858=ORIENTED_EDGE('',*,*,#666,.T.);
#859=ORIENTED_EDGE('',*,*,#667,.T.);
#860=ORIENTED_EDGE('',*,*,#668,.T.);
#861=ORIENTED_EDGE('',*,*,#669,.T.);
#862=ORIENTED_EDGE('',*,*,#663,.F.);
#863=ORIENTED_EDGE('',*,*,#670,.F.);
#864=ORIENTED_EDGE('',*,*,#667,.F.);
#865=ORIENTED_EDGE('',*,*,#671,.F.);
#866=ORIENTED_EDGE('',*,*,#672,.T.);
#867=ORIENTED_EDGE('',*,*,#673,.T.);
#868=ORIENTED_EDGE('',*,*,#674,.T.);
#869=ORIENTED_EDGE('',*,*,#675,.T.);
#870=ORIENTED_EDGE('',*,*,#594,.F.);
#871=ORIENTED_EDGE('',*,*,#676,.F.);
#872=ORIENTED_EDGE('',*,*,#673,.F.);
#873=ORIENTED_EDGE('',*,*,#677,.F.);
#874=ORIENTED_EDGE('',*,*,#678,.T.);
#875=ORIENTED_EDGE('',*,*,#679,.T.);
#876=ORIENTED_EDGE('',*,*,#680,.T.);
#877=ORIENTED_EDGE('',*,*,#681,.T.);
#878=ORIENTED_EDGE('',*,*,#675,.F.);
#879=ORIENTED_EDGE('',*,*,#682,.F.);
#880=ORIENTED_EDGE('',*,*,#679,.F.);
#881=ORIENTED_EDGE('',*,*,#683,.F.);
#882=ORIENTED_EDGE('',*,*,#684,.T.);
#883=ORIENTED_EDGE('',*,*,#685,.T.);
#884=ORIENTED_EDGE('',*,*,#686,.T.);
#885=ORIENTED_EDGE('',*,*,#621,.T.);
#886=ORIENTED_EDGE('',*,*,#685,.F.);
#887=ORIENTED_EDGE('',*,*,#687,.F.);
#888=ORIENTED_EDGE('',*,*,#688,.F.);
#889=ORIENTED_EDGE('',*,*,#689,.F.);
#890=ORIENTED_EDGE('',*,*,#690,.T.);
#891=ORIENTED_EDGE('',*,*,#691,.T.);
#892=ORIENTED_EDGE('',*,*,#692,.T.);
#893=ORIENTED_EDGE('',*,*,#688,.T.);
#894=ORIENTED_EDGE('',*,*,#657,.F.);
#895=ORIENTED_EDGE('',*,*,#693,.F.);
#896=ORIENTED_EDGE('',*,*,#691,.F.);
#897=ORIENTED_EDGE('',*,*,#694,.F.);
#898=ORIENTED_EDGE('',*,*,#695,.T.);
#899=ORIENTED_EDGE('',*,*,#696,.T.);
#900=ORIENTED_EDGE('',*,*,#697,.T.);
#901=ORIENTED_EDGE('',*,*,#589,.T.);
#902=ORIENTED_EDGE('',*,*,#696,.F.);
#903=ORIENTED_EDGE('',*,*,#698,.F.);
#904=ORIENTED_EDGE('',*,*,#699,.F.);
#905=ORIENTED_EDGE('',*,*,#700,.F.);
#906=ORIENTED_EDGE('',*,*,#701,.T.);
#907=ORIENTED_EDGE('',*,*,#702,.T.);
#908=ORIENTED_EDGE('',*,*,#703,.T.);
#909=ORIENTED_EDGE('',*,*,#699,.T.);
#910=ORIENTED_EDGE('',*,*,#681,.F.);
#911=ORIENTED_EDGE('',*,*,#704,.F.);
#912=ORIENTED_EDGE('',*,*,#702,.F.);
#913=ORIENTED_EDGE('',*,*,#705,.F.);
#914=ORIENTED_EDGE('',*,*,#706,.T.);
#915=ORIENTED_EDGE('',*,*,#707,.T.);
#916=ORIENTED_EDGE('',*,*,#708,.T.);
#917=ORIENTED_EDGE('',*,*,#602,.T.);
#918=ORIENTED_EDGE('',*,*,#707,.F.);
#919=ORIENTED_EDGE('',*,*,#709,.F.);
#920=ORIENTED_EDGE('',*,*,#710,.F.);
#921=ORIENTED_EDGE('',*,*,#711,.F.);
#922=ORIENTED_EDGE('',*,*,#712,.T.);
#923=ORIENTED_EDGE('',*,*,#713,.T.);
#924=ORIENTED_EDGE('',*,*,#714,.T.);
#925=ORIENTED_EDGE('',*,*,#710,.T.);
#926=ORIENTED_EDGE('',*,*,#645,.F.);
#927=ORIENTED_EDGE('',*,*,#715,.F.);
#928=ORIENTED_EDGE('',*,*,#713,.F.);
#929=ORIENTED_EDGE('',*,*,#716,.F.);
#930=ORIENTED_EDGE('',*,*,#717,.T.);
#931=ORIENTED_EDGE('',*,*,#718,.T.);
#932=ORIENTED_EDGE('',*,*,#719,.T.);
#933=ORIENTED_EDGE('',*,*,#634,.T.);
#934=ORIENTED_EDGE('',*,*,#718,.F.);
#935=ORIENTED_EDGE('',*,*,#720,.F.);
#936=ORIENTED_EDGE('',*,*,#721,.F.);
#937=ORIENTED_EDGE('',*,*,#722,.F.);
#938=ORIENTED_EDGE('',*,*,#723,.T.);
#939=ORIENTED_EDGE('',*,*,#724,.T.);
#940=ORIENTED_EDGE('',*,*,#725,.T.);
#941=ORIENTED_EDGE('',*,*,#721,.T.);
#942=ORIENTED_EDGE('',*,*,#669,.F.);
#943=ORIENTED_EDGE('',*,*,#726,.F.);
#944=ORIENTED_EDGE('',*,*,#724,.F.);
#945=ORIENTED_EDGE('',*,*,#727,.F.);
#946=ORIENTED_EDGE('',*,*,#728,.F.);
#947=ORIENTED_EDGE('',*,*,#729,.T.);
#948=ORIENTED_EDGE('',*,*,#730,.F.);
#949=ORIENTED_EDGE('',*,*,#729,.F.);
#950=ORIENTED_EDGE('',*,*,#731,.F.);
#951=ORIENTED_EDGE('',*,*,#732,.T.);
#952=ORIENTED_EDGE('',*,*,#733,.T.);
#953=ORIENTED_EDGE('',*,*,#732,.F.);
#954=ORIENTED_EDGE('',*,*,#733,.F.);
#955=ORIENTED_EDGE('',*,*,#734,.T.);
#956=ORIENTED_EDGE('',*,*,#735,.F.);
#957=ORIENTED_EDGE('',*,*,#734,.F.);
#958=ORIENTED_EDGE('',*,*,#736,.F.);
#959=ORIENTED_EDGE('',*,*,#737,.T.);
#960=ORIENTED_EDGE('',*,*,#738,.F.);
#961=ORIENTED_EDGE('',*,*,#739,.F.);
#962=ORIENTED_EDGE('',*,*,#740,.F.);
#963=ORIENTED_EDGE('',*,*,#741,.T.);
#964=ORIENTED_EDGE('',*,*,#742,.F.);
#965=ORIENTED_EDGE('',*,*,#743,.F.);
#966=ORIENTED_EDGE('',*,*,#744,.F.);
#967=ORIENTED_EDGE('',*,*,#743,.T.);
#968=ORIENTED_EDGE('',*,*,#745,.F.);
#969=ORIENTED_EDGE('',*,*,#746,.F.);
#970=ORIENTED_EDGE('',*,*,#747,.T.);
#971=ORIENTED_EDGE('',*,*,#746,.T.);
#972=ORIENTED_EDGE('',*,*,#748,.F.);
#973=ORIENTED_EDGE('',*,*,#737,.F.);
#974=ORIENTED_EDGE('',*,*,#749,.T.);
#975=ORIENTED_EDGE('',*,*,#739,.T.);
#976=ORIENTED_EDGE('',*,*,#750,.F.);
#977=ORIENTED_EDGE('',*,*,#751,.F.);
#978=ORIENTED_EDGE('',*,*,#752,.T.);
#979=ORIENTED_EDGE('',*,*,#751,.T.);
#980=ORIENTED_EDGE('',*,*,#753,.F.);
#981=ORIENTED_EDGE('',*,*,#741,.F.);
#982=ORIENTED_EDGE('',*,*,#744,.T.);
#983=ORIENTED_EDGE('',*,*,#747,.F.);
#984=ORIENTED_EDGE('',*,*,#736,.T.);
#985=ORIENTED_EDGE('',*,*,#749,.F.);
#986=ORIENTED_EDGE('',*,*,#752,.F.);
#987=ORIENTED_EDGE('',*,*,#740,.T.);
#988=ORIENTED_EDGE('',*,*,#728,.T.);
#989=ORIENTED_EDGE('',*,*,#731,.T.);
#990=ORIENTED_EDGE('',*,*,#596,.T.);
#991=ORIENTED_EDGE('',*,*,#591,.F.);
#992=ORIENTED_EDGE('',*,*,#677,.T.);
#993=ORIENTED_EDGE('',*,*,#672,.F.);
#994=ORIENTED_EDGE('',*,*,#683,.T.);
#995=ORIENTED_EDGE('',*,*,#678,.F.);
#996=ORIENTED_EDGE('',*,*,#705,.T.);
#997=ORIENTED_EDGE('',*,*,#701,.F.);
#998=ORIENTED_EDGE('',*,*,#698,.T.);
#999=ORIENTED_EDGE('',*,*,#695,.F.);
#1000=ORIENTED_EDGE('',*,*,#588,.T.);
#1001=ORIENTED_EDGE('',*,*,#584,.F.);
#1002=ORIENTED_EDGE('',*,*,#614,.T.);
#1003=ORIENTED_EDGE('',*,*,#610,.F.);
#1004=ORIENTED_EDGE('',*,*,#653,.T.);
#1005=ORIENTED_EDGE('',*,*,#648,.F.);
#1006=ORIENTED_EDGE('',*,*,#659,.T.);
#1007=ORIENTED_EDGE('',*,*,#654,.F.);
#1008=ORIENTED_EDGE('',*,*,#694,.T.);
#1009=ORIENTED_EDGE('',*,*,#690,.F.);
#1010=ORIENTED_EDGE('',*,*,#687,.T.);
#1011=ORIENTED_EDGE('',*,*,#684,.F.);
#1012=ORIENTED_EDGE('',*,*,#620,.T.);
#1013=ORIENTED_EDGE('',*,*,#617,.F.);
#1014=ORIENTED_EDGE('',*,*,#609,.T.);
#1015=ORIENTED_EDGE('',*,*,#604,.F.);
#1016=ORIENTED_EDGE('',*,*,#641,.T.);
#1017=ORIENTED_EDGE('',*,*,#636,.F.);
#1018=ORIENTED_EDGE('',*,*,#647,.T.);
#1019=ORIENTED_EDGE('',*,*,#642,.F.);
#1020=ORIENTED_EDGE('',*,*,#716,.T.);
#1021=ORIENTED_EDGE('',*,*,#712,.F.);
#1022=ORIENTED_EDGE('',*,*,#709,.T.);
#1023=ORIENTED_EDGE('',*,*,#706,.F.);
#1024=ORIENTED_EDGE('',*,*,#601,.T.);
#1025=ORIENTED_EDGE('',*,*,#597,.F.);
#1026=ORIENTED_EDGE('',*,*,#727,.T.);
#1027=ORIENTED_EDGE('',*,*,#723,.F.);
#1028=ORIENTED_EDGE('',*,*,#720,.T.);
#1029=ORIENTED_EDGE('',*,*,#717,.F.);
#1030=ORIENTED_EDGE('',*,*,#633,.T.);
#1031=ORIENTED_EDGE('',*,*,#630,.F.);
#1032=ORIENTED_EDGE('',*,*,#627,.T.);
#1033=ORIENTED_EDGE('',*,*,#623,.F.);
#1034=ORIENTED_EDGE('',*,*,#665,.T.);
#1035=ORIENTED_EDGE('',*,*,#660,.F.);
#1036=ORIENTED_EDGE('',*,*,#671,.T.);
#1037=ORIENTED_EDGE('',*,*,#666,.F.);
#1038=ORIENTED_EDGE('',*,*,#753,.T.);
#1039=ORIENTED_EDGE('',*,*,#750,.T.);
#1040=ORIENTED_EDGE('',*,*,#738,.T.);
#1041=ORIENTED_EDGE('',*,*,#748,.T.);
#1042=ORIENTED_EDGE('',*,*,#745,.T.);
#1043=ORIENTED_EDGE('',*,*,#742,.T.);
#1044=ORIENTED_EDGE('',*,*,#730,.T.);
#1045=ORIENTED_EDGE('',*,*,#735,.T.);
#1046=ORIENTED_EDGE('',*,*,#595,.T.);
#1047=ORIENTED_EDGE('',*,*,#586,.F.);
#1048=ORIENTED_EDGE('',*,*,#590,.T.);
#1049=ORIENTED_EDGE('',*,*,#697,.F.);
#1050=ORIENTED_EDGE('',*,*,#700,.T.);
#1051=ORIENTED_EDGE('',*,*,#703,.F.);
#1052=ORIENTED_EDGE('',*,*,#704,.T.);
#1053=ORIENTED_EDGE('',*,*,#680,.F.);
#1054=ORIENTED_EDGE('',*,*,#682,.T.);
#1055=ORIENTED_EDGE('',*,*,#674,.F.);
#1056=ORIENTED_EDGE('',*,*,#676,.T.);
#1057=ORIENTED_EDGE('',*,*,#593,.F.);
#1058=ORIENTED_EDGE('',*,*,#616,.T.);
#1059=ORIENTED_EDGE('',*,*,#619,.F.);
#1060=ORIENTED_EDGE('',*,*,#622,.T.);
#1061=ORIENTED_EDGE('',*,*,#686,.F.);
#1062=ORIENTED_EDGE('',*,*,#689,.T.);
#1063=ORIENTED_EDGE('',*,*,#692,.F.);
#1064=ORIENTED_EDGE('',*,*,#693,.T.);
#1065=ORIENTED_EDGE('',*,*,#656,.F.);
#1066=ORIENTED_EDGE('',*,*,#658,.T.);
#1067=ORIENTED_EDGE('',*,*,#650,.F.);
#1068=ORIENTED_EDGE('',*,*,#652,.T.);
#1069=ORIENTED_EDGE('',*,*,#612,.F.);
#1070=ORIENTED_EDGE('',*,*,#608,.T.);
#1071=ORIENTED_EDGE('',*,*,#599,.F.);
#1072=ORIENTED_EDGE('',*,*,#603,.T.);
#1073=ORIENTED_EDGE('',*,*,#708,.F.);
#1074=ORIENTED_EDGE('',*,*,#711,.T.);
#1075=ORIENTED_EDGE('',*,*,#714,.F.);
#1076=ORIENTED_EDGE('',*,*,#715,.T.);
#1077=ORIENTED_EDGE('',*,*,#644,.F.);
#1078=ORIENTED_EDGE('',*,*,#646,.T.);
#1079=ORIENTED_EDGE('',*,*,#638,.F.);
#1080=ORIENTED_EDGE('',*,*,#640,.T.);
#1081=ORIENTED_EDGE('',*,*,#606,.F.);
#1082=ORIENTED_EDGE('',*,*,#726,.T.);
#1083=ORIENTED_EDGE('',*,*,#668,.F.);
#1084=ORIENTED_EDGE('',*,*,#670,.T.);
#1085=ORIENTED_EDGE('',*,*,#662,.F.);
#1086=ORIENTED_EDGE('',*,*,#664,.T.);
#1087=ORIENTED_EDGE('',*,*,#625,.F.);
#1088=ORIENTED_EDGE('',*,*,#629,.T.);
#1089=ORIENTED_EDGE('',*,*,#632,.F.);
#1090=ORIENTED_EDGE('',*,*,#635,.T.);
#1091=ORIENTED_EDGE('',*,*,#719,.F.);
#1092=ORIENTED_EDGE('',*,*,#722,.T.);
#1093=ORIENTED_EDGE('',*,*,#725,.F.);
#1094=CYLINDRICAL_SURFACE('',#1195,1.);
#1095=CYLINDRICAL_SURFACE('',#1199,1.);
#1096=CYLINDRICAL_SURFACE('',#1203,1.);
#1097=CYLINDRICAL_SURFACE('',#1207,1.);
#1098=CYLINDRICAL_SURFACE('',#1211,1.);
#1099=CYLINDRICAL_SURFACE('',#1215,1.);
#1100=CYLINDRICAL_SURFACE('',#1219,1.);
#1101=CYLINDRICAL_SURFACE('',#1223,1.);
#1102=CYLINDRICAL_SURFACE('',#1227,1.);
#1103=CYLINDRICAL_SURFACE('',#1231,1.);
#1104=CYLINDRICAL_SURFACE('',#1235,1.);
#1105=CYLINDRICAL_SURFACE('',#1239,1.);
#1106=CYLINDRICAL_SURFACE('',#1243,1.);
#1107=CYLINDRICAL_SURFACE('',#1247,1.);
#1108=CYLINDRICAL_SURFACE('',#1251,1.);
#1109=CYLINDRICAL_SURFACE('',#1255,1.);
#1110=CYLINDRICAL_SURFACE('',#1259,1.);
#1111=CYLINDRICAL_SURFACE('',#1263,1.);
#1112=CYLINDRICAL_SURFACE('',#1267,1.);
#1113=CYLINDRICAL_SURFACE('',#1271,1.);
#1114=CYLINDRICAL_SURFACE('',#1275,1.);
#1115=CYLINDRICAL_SURFACE('',#1279,1.);
#1116=CYLINDRICAL_SURFACE('',#1283,1.);
#1117=CYLINDRICAL_SURFACE('',#1287,1.);
#1118=CYLINDRICAL_SURFACE('',#1291,3.5);
#1119=CYLINDRICAL_SURFACE('',#1297,2.248);
#1120=CYLINDRICAL_SURFACE('',#1299,12.7);
#1121=CYLINDRICAL_SURFACE('',#1302,9.);
#1122=ADVANCED_FACE('',(#58),#1094,.F.);
#1123=ADVANCED_FACE('',(#59),#28,.T.);
#1124=ADVANCED_FACE('',(#60),#1095,.F.);
#1125=ADVANCED_FACE('',(#61),#29,.T.);
#1126=ADVANCED_FACE('',(#62),#1096,.F.);
#1127=ADVANCED_FACE('',(#63),#30,.T.);
#1128=ADVANCED_FACE('',(#64),#1097,.F.);
#1129=ADVANCED_FACE('',(#65),#31,.T.);
#1130=ADVANCED_FACE('',(#66),#1098,.F.);
#1131=ADVANCED_FACE('',(#67),#32,.T.);
#1132=ADVANCED_FACE('',(#68),#1099,.F.);
#1133=ADVANCED_FACE('',(#69),#33,.T.);
#1134=ADVANCED_FACE('',(#70),#1100,.F.);
#1135=ADVANCED_FACE('',(#71),#34,.T.);
#1136=ADVANCED_FACE('',(#72),#1101,.F.);
#1137=ADVANCED_FACE('',(#73),#35,.T.);
#1138=ADVANCED_FACE('',(#74),#1102,.F.);
#1139=ADVANCED_FACE('',(#75),#36,.T.);
#1140=ADVANCED_FACE('',(#76),#1103,.F.);
#1141=ADVANCED_FACE('',(#77),#37,.T.);
#1142=ADVANCED_FACE('',(#78),#1104,.F.);
#1143=ADVANCED_FACE('',(#79),#38,.T.);
#1144=ADVANCED_FACE('',(#80),#1105,.F.);
#1145=ADVANCED_FACE('',(#81),#39,.T.);
#1146=ADVANCED_FACE('',(#82),#1106,.F.);
#1147=ADVANCED_FACE('',(#83),#40,.T.);
#1148=ADVANCED_FACE('',(#84),#1107,.F.);
#1149=ADVANCED_FACE('',(#85),#41,.T.);
#1150=ADVANCED_FACE('',(#86),#1108,.F.);
#1151=ADVANCED_FACE('',(#87),#42,.T.);
#1152=ADVANCED_FACE('',(#88),#1109,.F.);
#1153=ADVANCED_FACE('',(#89),#43,.T.);
#1154=ADVANCED_FACE('',(#90),#1110,.F.);
#1155=ADVANCED_FACE('',(#91),#44,.T.);
#1156=ADVANCED_FACE('',(#92),#1111,.F.);
#1157=ADVANCED_FACE('',(#93),#45,.T.);
#1158=ADVANCED_FACE('',(#94),#1112,.F.);
#1159=ADVANCED_FACE('',(#95),#46,.T.);
#1160=ADVANCED_FACE('',(#96),#1113,.F.);
#1161=ADVANCED_FACE('',(#97),#47,.T.);
#1162=ADVANCED_FACE('',(#98),#1114,.F.);
#1163=ADVANCED_FACE('',(#99),#48,.T.);
#1164=ADVANCED_FACE('',(#100),#1115,.F.);
#1165=ADVANCED_FACE('',(#101),#49,.T.);
#1166=ADVANCED_FACE('',(#102),#1116,.F.);
#1167=ADVANCED_FACE('',(#103),#50,.T.);
#1168=ADVANCED_FACE('',(#104),#1117,.F.);
#1169=ADVANCED_FACE('',(#105),#51,.T.);
#1170=ADVANCED_FACE('',(#106),#1118,.F.);
#1171=ADVANCED_FACE('',(#107),#27,.F.);
#1172=ADVANCED_FACE('',(#108),#1119,.F.);
#1173=ADVANCED_FACE('',(#109),#1120,.T.);
#1174=ADVANCED_FACE('',(#110),#1121,.T.);
#1175=ADVANCED_FACE('',(#111),#52,.T.);
#1176=ADVANCED_FACE('',(#112),#53,.T.);
#1177=ADVANCED_FACE('',(#113),#54,.T.);
#1178=ADVANCED_FACE('',(#114),#55,.T.);
#1179=ADVANCED_FACE('',(#115,#15,#16,#17,#18,#19,#20),#56,.T.);
#1180=ADVANCED_FACE('',(#116,#21,#22,#23,#24,#25,#26),#57,.F.);
#1181=CLOSED_SHELL('',(#1122,#1123,#1124,#1125,#1126,#1127,#1128,#1129,
#1130,#1131,#1132,#1133,#1134,#1135,#1136,#1137,#1138,#1139,#1140,#1141,
#1142,#1143,#1144,#1145,#1146,#1147,#1148,#1149,#1150,#1151,#1152,#1153,
#1154,#1155,#1156,#1157,#1158,#1159,#1160,#1161,#1162,#1163,#1164,#1165,
#1166,#1167,#1168,#1169,#1170,#1171,#1172,#1173,#1174,#1175,#1176,#1177,
#1178,#1179,#1180));
#1182=DERIVED_UNIT_ELEMENT(#1184,1.);
#1183=DERIVED_UNIT_ELEMENT(#2006,3.);
#1184=(
MASS_UNIT()
NAMED_UNIT(*)
SI_UNIT(.KILO.,.GRAM.)
);
#1185=DERIVED_UNIT((#1182,#1183));
#1186=MEASURE_REPRESENTATION_ITEM('density measure',
POSITIVE_RATIO_MEASURE(7850.),#1185);
#1187=PROPERTY_DEFINITION_REPRESENTATION(#1192,#1189);
#1188=PROPERTY_DEFINITION_REPRESENTATION(#1193,#1190);
#1189=REPRESENTATION('material name',(#1191),#2003);
#1190=REPRESENTATION('density',(#1186),#2003);
#1191=DESCRIPTIVE_REPRESENTATION_ITEM('Steel','Steel');
#1192=PROPERTY_DEFINITION('material property','material name',#2013);
#1193=PROPERTY_DEFINITION('material property','density of part',#2013);
#1194=AXIS2_PLACEMENT_3D('placement',#1658,#1311,#1312);
#1195=AXIS2_PLACEMENT_3D('',#1659,#1313,#1314);
#1196=AXIS2_PLACEMENT_3D('',#1662,#1315,#1316);
#1197=AXIS2_PLACEMENT_3D('',#1666,#1318,#1319);
#1198=AXIS2_PLACEMENT_3D('',#1668,#1321,#1322);
#1199=AXIS2_PLACEMENT_3D('',#1674,#1326,#1327);
#1200=AXIS2_PLACEMENT_3D('',#1677,#1328,#1329);
#1201=AXIS2_PLACEMENT_3D('',#1681,#1331,#1332);
#1202=AXIS2_PLACEMENT_3D('',#1683,#1334,#1335);
#1203=AXIS2_PLACEMENT_3D('',#1686,#1338,#1339);
#1204=AXIS2_PLACEMENT_3D('',#1689,#1340,#1341);
#1205=AXIS2_PLACEMENT_3D('',#1693,#1343,#1344);
#1206=AXIS2_PLACEMENT_3D('',#1695,#1346,#1347);
#1207=AXIS2_PLACEMENT_3D('',#1701,#1351,#1352);
#1208=AXIS2_PLACEMENT_3D('',#1704,#1353,#1354);
#1209=AXIS2_PLACEMENT_3D('',#1708,#1356,#1357);
#1210=AXIS2_PLACEMENT_3D('',#1710,#1359,#1360);
#1211=AXIS2_PLACEMENT_3D('',#1713,#1363,#1364);
#1212=AXIS2_PLACEMENT_3D('',#1716,#1365,#1366);
#1213=AXIS2_PLACEMENT_3D('',#1720,#1368,#1369);
#1214=AXIS2_PLACEMENT_3D('',#1722,#1371,#1372);
#1215=AXIS2_PLACEMENT_3D('',#1728,#1376,#1377);
#1216=AXIS2_PLACEMENT_3D('',#1730,#1378,#1379);
#1217=AXIS2_PLACEMENT_3D('',#1733,#1381,#1382);
#1218=AXIS2_PLACEMENT_3D('',#1734,#1383,#1384);
#1219=AXIS2_PLACEMENT_3D('',#1740,#1388,#1389);
#1220=AXIS2_PLACEMENT_3D('',#1743,#1390,#1391);
#1221=AXIS2_PLACEMENT_3D('',#1747,#1393,#1394);
#1222=AXIS2_PLACEMENT_3D('',#1749,#1396,#1397);
#1223=AXIS2_PLACEMENT_3D('',#1755,#1401,#1402);
#1224=AXIS2_PLACEMENT_3D('',#1757,#1403,#1404);
#1225=AXIS2_PLACEMENT_3D('',#1760,#1406,#1407);
#1226=AXIS2_PLACEMENT_3D('',#1761,#1408,#1409);
#1227=AXIS2_PLACEMENT_3D('',#1767,#1413,#1414);
#1228=AXIS2_PLACEMENT_3D('',#1770,#1415,#1416);
#1229=AXIS2_PLACEMENT_3D('',#1774,#1418,#1419);
#1230=AXIS2_PLACEMENT_3D('',#1776,#1421,#1422);
#1231=AXIS2_PLACEMENT_3D('',#1779,#1425,#1426);
#1232=AXIS2_PLACEMENT_3D('',#1782,#1427,#1428);
#1233=AXIS2_PLACEMENT_3D('',#1786,#1430,#1431);
#1234=AXIS2_PLACEMENT_3D('',#1788,#1433,#1434);
#1235=AXIS2_PLACEMENT_3D('',#1791,#1437,#1438);
#1236=AXIS2_PLACEMENT_3D('',#1794,#1439,#1440);
#1237=AXIS2_PLACEMENT_3D('',#1798,#1442,#1443);
#1238=AXIS2_PLACEMENT_3D('',#1800,#1445,#1446);
#1239=AXIS2_PLACEMENT_3D('',#1803,#1449,#1450);
#1240=AXIS2_PLACEMENT_3D('',#1806,#1451,#1452);
#1241=AXIS2_PLACEMENT_3D('',#1810,#1454,#1455);
#1242=AXIS2_PLACEMENT_3D('',#1812,#1457,#1458);
#1243=AXIS2_PLACEMENT_3D('',#1815,#1461,#1462);
#1244=AXIS2_PLACEMENT_3D('',#1818,#1463,#1464);
#1245=AXIS2_PLACEMENT_3D('',#1822,#1466,#1467);
#1246=AXIS2_PLACEMENT_3D('',#1824,#1469,#1470);
#1247=AXIS2_PLACEMENT_3D('',#1827,#1473,#1474);
#1248=AXIS2_PLACEMENT_3D('',#1830,#1475,#1476);
#1249=AXIS2_PLACEMENT_3D('',#1834,#1478,#1479);
#1250=AXIS2_PLACEMENT_3D('',#1836,#1481,#1482);
#1251=AXIS2_PLACEMENT_3D('',#1839,#1485,#1486);
#1252=AXIS2_PLACEMENT_3D('',#1842,#1487,#1488);
#1253=AXIS2_PLACEMENT_3D('',#1846,#1490,#1491);
#1254=AXIS2_PLACEMENT_3D('',#1848,#1493,#1494);
#1255=AXIS2_PLACEMENT_3D('',#1851,#1497,#1498);
#1256=AXIS2_PLACEMENT_3D('',#1854,#1499,#1500);
#1257=AXIS2_PLACEMENT_3D('',#1858,#1502,#1503);
#1258=AXIS2_PLACEMENT_3D('',#1860,#1505,#1506);
#1259=AXIS2_PLACEMENT_3D('',#1863,#1509,#1510);
#1260=AXIS2_PLACEMENT_3D('',#1865,#1511,#1512);
#1261=AXIS2_PLACEMENT_3D('',#1868,#1514,#1515);
#1262=AXIS2_PLACEMENT_3D('',#1869,#1516,#1517);
#1263=AXIS2_PLACEMENT_3D('',#1875,#1521,#1522);
#1264=AXIS2_PLACEMENT_3D('',#1877,#1523,#1524);
#1265=AXIS2_PLACEMENT_3D('',#1880,#1526,#1527);
#1266=AXIS2_PLACEMENT_3D('',#1881,#1528,#1529);
#1267=AXIS2_PLACEMENT_3D('',#1884,#1532,#1533);
#1268=AXIS2_PLACEMENT_3D('',#1886,#1534,#1535);
#1269=AXIS2_PLACEMENT_3D('',#1889,#1537,#1538);
#1270=AXIS2_PLACEMENT_3D('',#1890,#1539,#1540);
#1271=AXIS2_PLACEMENT_3D('',#1896,#1544,#1545);
#1272=AXIS2_PLACEMENT_3D('',#1898,#1546,#1547);
#1273=AXIS2_PLACEMENT_3D('',#1901,#1549,#1550);
#1274=AXIS2_PLACEMENT_3D('',#1902,#1551,#1552);
#1275=AXIS2_PLACEMENT_3D('',#1905,#1555,#1556);
#1276=AXIS2_PLACEMENT_3D('',#1907,#1557,#1558);
#1277=AXIS2_PLACEMENT_3D('',#1910,#1560,#1561);
#1278=AXIS2_PLACEMENT_3D('',#1911,#1562,#1563);
#1279=AXIS2_PLACEMENT_3D('',#1917,#1567,#1568);
#1280=AXIS2_PLACEMENT_3D('',#1919,#1569,#1570);
#1281=AXIS2_PLACEMENT_3D('',#1922,#1572,#1573);
#1282=AXIS2_PLACEMENT_3D('',#1923,#1574,#1575);
#1283=AXIS2_PLACEMENT_3D('',#1926,#1578,#1579);
#1284=AXIS2_PLACEMENT_3D('',#1928,#1580,#1581);
#1285=AXIS2_PLACEMENT_3D('',#1931,#1583,#1584);
#1286=AXIS2_PLACEMENT_3D('',#1932,#1585,#1586);
#1287=AXIS2_PLACEMENT_3D('',#1938,#1590,#1591);
#1288=AXIS2_PLACEMENT_3D('',#1940,#1592,#1593);
#1289=AXIS2_PLACEMENT_3D('',#1943,#1595,#1596);
#1290=AXIS2_PLACEMENT_3D('',#1944,#1597,#1598);
#1291=AXIS2_PLACEMENT_3D('',#1947,#1601,#1602);
#1292=AXIS2_PLACEMENT_3D('',#1949,#1603,#1604);
#1293=AXIS2_PLACEMENT_3D('',#1952,#1606,#1607);
#1294=AXIS2_PLACEMENT_3D('',#1953,#1608,#1609);
#1295=AXIS2_PLACEMENT_3D('',#1955,#1610,#1611);
#1296=AXIS2_PLACEMENT_3D('',#1958,#1613,#1614);
#1297=AXIS2_PLACEMENT_3D('',#1959,#1615,#1616);
#1298=AXIS2_PLACEMENT_3D('',#1962,#1618,#1619);
#1299=AXIS2_PLACEMENT_3D('',#1963,#1620,#1621);
#1300=AXIS2_PLACEMENT_3D('',#1966,#1622,#1623);
#1301=AXIS2_PLACEMENT_3D('',#1970,#1625,#1626);
#1302=AXIS2_PLACEMENT_3D('',#1972,#1628,#1629);
#1303=AXIS2_PLACEMENT_3D('',#1975,#1630,#1631);
#1304=AXIS2_PLACEMENT_3D('',#1979,#1633,#1634);
#1305=AXIS2_PLACEMENT_3D('',#1981,#1636,#1637);
#1306=AXIS2_PLACEMENT_3D('',#1987,#1641,#1642);
#1307=AXIS2_PLACEMENT_3D('',#1990,#1645,#1646);
#1308=AXIS2_PLACEMENT_3D('',#1996,#1650,#1651);
#1309=AXIS2_PLACEMENT_3D('',#1999,#1654,#1655);
#1310=AXIS2_PLACEMENT_3D('',#2000,#1656,#1657);
#1311=DIRECTION('axis',(0.,0.,1.));
#1312=DIRECTION('refdir',(1.,0.,0.));
#1313=DIRECTION('center_axis',(-1.,0.,0.));
#1314=DIRECTION('ref_axis',(0.,-0.866025403784436,-0.500000000000005));
#1315=DIRECTION('center_axis',(1.,0.,0.));
#1316=DIRECTION('ref_axis',(0.,-0.866025403784436,-0.500000000000005));
#1317=DIRECTION('',(-1.,0.,0.));
#1318=DIRECTION('center_axis',(-1.,0.,0.));
#1319=DIRECTION('ref_axis',(0.,-0.866025403784436,-0.500000000000005));
#1320=DIRECTION('',(1.,0.,0.));
#1321=DIRECTION('center_axis',(0.,0.499999999999998,0.86602540378444));
#1322=DIRECTION('ref_axis',(0.,0.86602540378444,-0.499999999999998));
#1323=DIRECTION('',(0.,-0.86602540378444,0.499999999999998));
#1324=DIRECTION('',(1.,0.,0.));
#1325=DIRECTION('',(0.,0.86602540378444,-0.499999999999998));
#1326=DIRECTION('center_axis',(-1.,0.,0.));
#1327=DIRECTION('ref_axis',(0.,-0.866025403784438,0.500000000000002));
#1328=DIRECTION('center_axis',(1.,0.,0.));
#1329=DIRECTION('ref_axis',(0.,-0.866025403784438,0.500000000000002));
#1330=DIRECTION('',(-1.,0.,0.));
#1331=DIRECTION('center_axis',(-1.,0.,0.));
#1332=DIRECTION('ref_axis',(0.,-0.866025403784438,0.500000000000002));
#1333=DIRECTION('',(1.,0.,0.));
#1334=DIRECTION('center_axis',(0.,1.,4.73344661263645E-15));
#1335=DIRECTION('ref_axis',(0.,4.73344661263645E-15,-1.));
#1336=DIRECTION('',(0.,4.73344661263645E-15,-1.));
#1337=DIRECTION('',(0.,-4.73344661263645E-15,1.));
#1338=DIRECTION('center_axis',(-1.,0.,0.));
#1339=DIRECTION('ref_axis',(0.,-0.866025403784441,-0.499999999999997));
#1340=DIRECTION('center_axis',(1.,0.,0.));
#1341=DIRECTION('ref_axis',(0.,-0.866025403784441,-0.499999999999997));
#1342=DIRECTION('',(-1.,0.,0.));
#1343=DIRECTION('center_axis',(-1.,0.,0.));
#1344=DIRECTION('ref_axis',(0.,-0.866025403784441,-0.499999999999997));
#1345=DIRECTION('',(1.,0.,0.));
#1346=DIRECTION('center_axis',(0.,0.5,0.866025403784439));
#1347=DIRECTION('ref_axis',(0.,0.866025403784439,-0.5));
#1348=DIRECTION('',(0.,-0.866025403784439,0.5));
#1349=DIRECTION('',(1.,0.,0.));
#1350=DIRECTION('',(0.,0.866025403784439,-0.5));
#1351=DIRECTION('center_axis',(-1.,0.,0.));
#1352=DIRECTION('ref_axis',(0.,-0.866025403784441,0.499999999999996));
#1353=DIRECTION('center_axis',(1.,0.,0.));
#1354=DIRECTION('ref_axis',(0.,-0.866025403784441,0.499999999999996));
#1355=DIRECTION('',(-1.,0.,0.));
#1356=DIRECTION('center_axis',(-1.,0.,0.));
#1357=DIRECTION('ref_axis',(0.,-0.866025403784441,0.499999999999996));
#1358=DIRECTION('',(1.,0.,0.));
#1359=DIRECTION('center_axis',(0.,1.,-2.3667233063182E-15));
#1360=DIRECTION('ref_axis',(0.,-2.3667233063182E-15,-1.));
#1361=DIRECTION('',(0.,-2.3667233063182E-15,-1.));
#1362=DIRECTION('',(0.,2.3667233063182E-15,1.));
#1363=DIRECTION('center_axis',(-1.,0.,0.));
#1364=DIRECTION('ref_axis',(0.,-0.866025403784442,0.499999999999995));
#1365=DIRECTION('center_axis',(1.,0.,0.));
#1366=DIRECTION('ref_axis',(0.,-0.866025403784442,0.499999999999995));
#1367=DIRECTION('',(-1.,0.,0.));
#1368=DIRECTION('center_axis',(-1.,0.,0.));
#1369=DIRECTION('ref_axis',(0.,-0.866025403784442,0.499999999999995));
#1370=DIRECTION('',(1.,0.,0.));
#1371=DIRECTION('center_axis',(0.,1.,-2.3667233063182E-15));
#1372=DIRECTION('ref_axis',(0.,-2.3667233063182E-15,-1.));
#1373=DIRECTION('',(0.,2.3667233063182E-15,1.));
#1374=DIRECTION('',(1.,0.,0.));
#1375=DIRECTION('',(0.,-2.3667233063182E-15,-1.));
#1376=DIRECTION('center_axis',(-1.,0.,0.));
#1377=DIRECTION('ref_axis',(0.,-0.866025403784441,-0.499999999999997));
#1378=DIRECTION('center_axis',(1.,0.,0.));
#1379=DIRECTION('ref_axis',(0.,-0.866025403784441,-0.499999999999997));
#1380=DIRECTION('',(-1.,0.,0.));
#1381=DIRECTION('center_axis',(-1.,0.,0.));
#1382=DIRECTION('ref_axis',(0.,-0.866025403784441,-0.499999999999997));
#1383=DIRECTION('center_axis',(0.,0.5,0.866025403784439));
#1384=DIRECTION('ref_axis',(0.,0.866025403784439,-0.5));
#1385=DIRECTION('',(0.,-0.866025403784439,0.5));
#1386=DIRECTION('',(1.,0.,0.));
#1387=DIRECTION('',(0.,0.866025403784439,-0.5));
#1388=DIRECTION('center_axis',(-1.,0.,0.));
#1389=DIRECTION('ref_axis',(0.,-0.866025403784437,0.500000000000002));
#1390=DIRECTION('center_axis',(1.,0.,0.));
#1391=DIRECTION('ref_axis',(0.,-0.866025403784437,0.500000000000002));
#1392=DIRECTION('',(-1.,0.,0.));
#1393=DIRECTION('center_axis',(-1.,0.,0.));
#1394=DIRECTION('ref_axis',(0.,-0.866025403784437,0.500000000000002));
#1395=DIRECTION('',(1.,0.,0.));
#1396=DIRECTION('center_axis',(0.,1.,4.73344661263646E-15));
#1397=DIRECTION('ref_axis',(0.,4.73344661263646E-15,-1.));
#1398=DIRECTION('',(0.,-4.73344661263646E-15,1.));
#1399=DIRECTION('',(1.,0.,0.));
#1400=DIRECTION('',(0.,4.73344661263646E-15,-1.));
#1401=DIRECTION('center_axis',(-1.,0.,0.));
#1402=DIRECTION('ref_axis',(0.,-0.866025403784434,-0.500000000000008));
#1403=DIRECTION('center_axis',(1.,0.,0.));
#1404=DIRECTION('ref_axis',(0.,-0.866025403784434,-0.500000000000008));
#1405=DIRECTION('',(-1.,0.,0.));
#1406=DIRECTION('center_axis',(-1.,0.,0.));
#1407=DIRECTION('ref_axis',(0.,-0.866025403784434,-0.500000000000008));
#1408=DIRECTION('center_axis',(0.,0.499999999999999,0.866025403784439));
#1409=DIRECTION('ref_axis',(0.,0.866025403784439,-0.499999999999999));
#1410=DIRECTION('',(0.,-0.866025403784439,0.499999999999999));
#1411=DIRECTION('',(1.,0.,0.));
#1412=DIRECTION('',(0.,0.866025403784439,-0.499999999999999));
#1413=DIRECTION('center_axis',(-1.,0.,0.));
#1414=DIRECTION('ref_axis',(0.,0.,1.));
#1415=DIRECTION('center_axis',(1.,0.,0.));
#1416=DIRECTION('ref_axis',(0.,0.,1.));
#1417=DIRECTION('',(-1.,0.,0.));
#1418=DIRECTION('center_axis',(-1.,0.,0.));
#1419=DIRECTION('ref_axis',(0.,0.,1.));
#1420=DIRECTION('',(1.,0.,0.));
#1421=DIRECTION('center_axis',(0.,0.500000000000001,-0.866025403784438));
#1422=DIRECTION('ref_axis',(0.,-0.866025403784438,-0.500000000000001));
#1423=DIRECTION('',(0.,-0.866025403784438,-0.500000000000001));
#1424=DIRECTION('',(0.,0.866025403784438,0.500000000000001));
#1425=DIRECTION('center_axis',(-1.,0.,0.));
#1426=DIRECTION('ref_axis',(0.,0.866025403784437,0.500000000000004));
#1427=DIRECTION('center_axis',(1.,0.,0.));
#1428=DIRECTION('ref_axis',(0.,0.866025403784437,0.500000000000004));
#1429=DIRECTION('',(-1.,0.,0.));
#1430=DIRECTION('center_axis',(-1.,0.,0.));
#1431=DIRECTION('ref_axis',(0.,0.866025403784437,0.500000000000004));
#1432=DIRECTION('',(1.,0.,0.));
#1433=DIRECTION('center_axis',(0.,-0.5,-0.866025403784439));
#1434=DIRECTION('ref_axis',(0.,-0.866025403784439,0.5));
#1435=DIRECTION('',(0.,-0.866025403784439,0.5));
#1436=DIRECTION('',(0.,0.866025403784439,-0.5));
#1437=DIRECTION('center_axis',(-1.,0.,0.));
#1438=DIRECTION('ref_axis',(0.,0.,1.));
#1439=DIRECTION('center_axis',(1.,0.,0.));
#1440=DIRECTION('ref_axis',(0.,0.,1.));
#1441=DIRECTION('',(-1.,0.,0.));
#1442=DIRECTION('center_axis',(-1.,0.,0.));
#1443=DIRECTION('ref_axis',(0.,0.,1.));
#1444=DIRECTION('',(1.,0.,0.));
#1445=DIRECTION('center_axis',(0.,0.500000000000001,-0.866025403784438));
#1446=DIRECTION('ref_axis',(0.,-0.866025403784438,-0.500000000000001));
#1447=DIRECTION('',(0.,-0.866025403784438,-0.500000000000001));
#1448=DIRECTION('',(0.,0.866025403784438,0.500000000000001));
#1449=DIRECTION('center_axis',(-1.,0.,0.));
#1450=DIRECTION('ref_axis',(0.,0.866025403784437,0.500000000000004));
#1451=DIRECTION('center_axis',(1.,0.,0.));
#1452=DIRECTION('ref_axis',(0.,0.866025403784437,0.500000000000004));
#1453=DIRECTION('',(-1.,0.,0.));
#1454=DIRECTION('center_axis',(-1.,0.,0.));
#1455=DIRECTION('ref_axis',(0.,0.866025403784437,0.500000000000004));
#1456=DIRECTION('',(1.,0.,0.));
#1457=DIRECTION('center_axis',(0.,-0.5,-0.866025403784439));
#1458=DIRECTION('ref_axis',(0.,-0.866025403784439,0.5));
#1459=DIRECTION('',(0.,-0.866025403784439,0.5));
#1460=DIRECTION('',(0.,0.866025403784439,-0.5));
#1461=DIRECTION('center_axis',(-1.,0.,0.));
#1462=DIRECTION('ref_axis',(0.,0.,1.));
#1463=DIRECTION('center_axis',(1.,0.,0.));
#1464=DIRECTION('ref_axis',(0.,0.,1.));
#1465=DIRECTION('',(-1.,0.,0.));
#1466=DIRECTION('center_axis',(-1.,0.,0.));
#1467=DIRECTION('ref_axis',(0.,0.,1.));
#1468=DIRECTION('',(1.,0.,0.));
#1469=DIRECTION('center_axis',(0.,0.499999999999997,-0.86602540378444));
#1470=DIRECTION('ref_axis',(0.,-0.86602540378444,-0.499999999999997));
#1471=DIRECTION('',(0.,-0.86602540378444,-0.499999999999997));
#1472=DIRECTION('',(0.,0.86602540378444,0.499999999999997));
#1473=DIRECTION('center_axis',(-1.,0.,0.));
#1474=DIRECTION('ref_axis',(0.,0.866025403784436,0.500000000000005));
#1475=DIRECTION('center_axis',(1.,0.,0.));
#1476=DIRECTION('ref_axis',(0.,0.866025403784436,0.500000000000005));
#1477=DIRECTION('',(-1.,0.,0.));
#1478=DIRECTION('center_axis',(-1.,0.,0.));
#1479=DIRECTION('ref_axis',(0.,0.866025403784436,0.500000000000005));
#1480=DIRECTION('',(1.,0.,0.));
#1481=DIRECTION('center_axis',(0.,-0.499999999999996,-0.866025403784441));
#1482=DIRECTION('ref_axis',(0.,-0.866025403784441,0.499999999999996));
#1483=DIRECTION('',(0.,-0.866025403784441,0.499999999999996));
#1484=DIRECTION('',(0.,0.866025403784441,-0.499999999999996));
#1485=DIRECTION('center_axis',(-1.,0.,0.));
#1486=DIRECTION('ref_axis',(0.,0.,1.));
#1487=DIRECTION('center_axis',(1.,0.,0.));
#1488=DIRECTION('ref_axis',(0.,0.,1.));
#1489=DIRECTION('',(-1.,0.,0.));
#1490=DIRECTION('center_axis',(-1.,0.,0.));
#1491=DIRECTION('ref_axis',(0.,0.,1.));
#1492=DIRECTION('',(1.,0.,0.));
#1493=DIRECTION('center_axis',(0.,0.499999999999997,-0.86602540378444));
#1494=DIRECTION('ref_axis',(0.,-0.86602540378444,-0.499999999999997));
#1495=DIRECTION('',(0.,-0.86602540378444,-0.499999999999997));
#1496=DIRECTION('',(0.,0.86602540378444,0.499999999999997));
#1497=DIRECTION('center_axis',(-1.,0.,0.));
#1498=DIRECTION('ref_axis',(0.,0.866025403784437,0.500000000000004));
#1499=DIRECTION('center_axis',(1.,0.,0.));
#1500=DIRECTION('ref_axis',(0.,0.866025403784437,0.500000000000004));
#1501=DIRECTION('',(-1.,0.,0.));
#1502=DIRECTION('center_axis',(-1.,0.,0.));
#1503=DIRECTION('ref_axis',(0.,0.866025403784437,0.500000000000004));
#1504=DIRECTION('',(1.,0.,0.));
#1505=DIRECTION('center_axis',(0.,-0.499999999999996,-0.866025403784441));
#1506=DIRECTION('ref_axis',(0.,-0.866025403784441,0.499999999999996));
#1507=DIRECTION('',(0.,-0.866025403784441,0.499999999999996));
#1508=DIRECTION('',(0.,0.866025403784441,-0.499999999999996));
#1509=DIRECTION('center_axis',(-1.,0.,0.));
#1510=DIRECTION('ref_axis',(0.,0.,-1.));
#1511=DIRECTION('center_axis',(1.,0.,0.));
#1512=DIRECTION('ref_axis',(0.,0.,-1.));
#1513=DIRECTION('',(-1.,0.,0.));
#1514=DIRECTION('center_axis',(-1.,0.,0.));
#1515=DIRECTION('ref_axis',(0.,0.,-1.));
#1516=DIRECTION('center_axis',(0.,-0.5,0.866025403784438));
#1517=DIRECTION('ref_axis',(0.,0.866025403784438,0.5));
#1518=DIRECTION('',(0.,-0.866025403784438,-0.5));
#1519=DIRECTION('',(1.,0.,0.));
#1520=DIRECTION('',(0.,0.866025403784438,0.5));
#1521=DIRECTION('center_axis',(-1.,0.,0.));
#1522=DIRECTION('ref_axis',(0.,0.866025403784438,-0.500000000000002));
#1523=DIRECTION('center_axis',(1.,0.,0.));
#1524=DIRECTION('ref_axis',(0.,0.866025403784438,-0.500000000000002));
#1525=DIRECTION('',(-1.,0.,0.));
#1526=DIRECTION('center_axis',(-1.,0.,0.));
#1527=DIRECTION('ref_axis',(0.,0.866025403784438,-0.500000000000002));
#1528=DIRECTION('center_axis',(0.,-1.,0.));
#1529=DIRECTION('ref_axis',(0.,0.,1.));
#1530=DIRECTION('',(0.,0.,1.));
#1531=DIRECTION('',(0.,0.,-1.));
#1532=DIRECTION('center_axis',(-1.,0.,0.));
#1533=DIRECTION('ref_axis',(0.,0.,-1.));
#1534=DIRECTION('center_axis',(1.,0.,0.));
#1535=DIRECTION('ref_axis',(0.,0.,-1.));
#1536=DIRECTION('',(-1.,0.,0.));
#1537=DIRECTION('center_axis',(-1.,0.,0.));
#1538=DIRECTION('ref_axis',(0.,0.,-1.));
#1539=DIRECTION('center_axis',(0.,-0.500000000000001,0.866025403784438));
#1540=DIRECTION('ref_axis',(0.,0.866025403784438,0.500000000000001));
#1541=DIRECTION('',(0.,-0.866025403784438,-0.500000000000001));
#1542=DIRECTION('',(1.,0.,0.));
#1543=DIRECTION('',(0.,0.866025403784438,0.500000000000001));
#1544=DIRECTION('center_axis',(-1.,0.,0.));
#1545=DIRECTION('ref_axis',(0.,0.866025403784438,-0.500000000000001));
#1546=DIRECTION('center_axis',(1.,0.,0.));
#1547=DIRECTION('ref_axis',(0.,0.866025403784438,-0.500000000000001));
#1548=DIRECTION('',(-1.,0.,0.));
#1549=DIRECTION('center_axis',(-1.,0.,0.));
#1550=DIRECTION('ref_axis',(0.,0.866025403784438,-0.500000000000001));
#1551=DIRECTION('center_axis',(0.,-1.,-1.18336165315911E-15));
#1552=DIRECTION('ref_axis',(0.,-1.18336165315911E-15,1.));
#1553=DIRECTION('',(0.,-1.18336165315911E-15,1.));
#1554=DIRECTION('',(0.,1.18336165315911E-15,-1.));
#1555=DIRECTION('center_axis',(-1.,0.,0.));
#1556=DIRECTION('ref_axis',(0.,0.,-1.));
#1557=DIRECTION('center_axis',(1.,0.,0.));
#1558=DIRECTION('ref_axis',(0.,0.,-1.));
#1559=DIRECTION('',(-1.,0.,0.));
#1560=DIRECTION('center_axis',(-1.,0.,0.));
#1561=DIRECTION('ref_axis',(0.,0.,-1.));
#1562=DIRECTION('center_axis',(0.,-0.5,0.866025403784438));
#1563=DIRECTION('ref_axis',(0.,0.866025403784438,0.5));
#1564=DIRECTION('',(0.,-0.866025403784438,-0.5));
#1565=DIRECTION('',(1.,0.,0.));
#1566=DIRECTION('',(0.,0.866025403784438,0.5));
#1567=DIRECTION('center_axis',(-1.,0.,0.));
#1568=DIRECTION('ref_axis',(0.,0.866025403784438,-0.500000000000002));
#1569=DIRECTION('center_axis',(1.,0.,0.));
#1570=DIRECTION('ref_axis',(0.,0.866025403784438,-0.500000000000002));
#1571=DIRECTION('',(-1.,0.,0.));
#1572=DIRECTION('center_axis',(-1.,0.,0.));
#1573=DIRECTION('ref_axis',(0.,0.866025403784438,-0.500000000000002));
#1574=DIRECTION('center_axis',(0.,-1.,0.));
#1575=DIRECTION('ref_axis',(0.,0.,1.));
#1576=DIRECTION('',(0.,0.,1.));
#1577=DIRECTION('',(0.,0.,-1.));
#1578=DIRECTION('center_axis',(-1.,0.,0.));
#1579=DIRECTION('ref_axis',(0.,0.,-1.));
#1580=DIRECTION('center_axis',(1.,0.,0.));
#1581=DIRECTION('ref_axis',(0.,0.,-1.));
#1582=DIRECTION('',(-1.,0.,0.));
#1583=DIRECTION('center_axis',(-1.,0.,0.));
#1584=DIRECTION('ref_axis',(0.,0.,-1.));
#1585=DIRECTION('center_axis',(0.,-0.500000000000001,0.866025403784438));
#1586=DIRECTION('ref_axis',(0.,0.866025403784438,0.500000000000001));
#1587=DIRECTION('',(0.,-0.866025403784438,-0.500000000000001));
#1588=DIRECTION('',(1.,0.,0.));
#1589=DIRECTION('',(0.,0.866025403784438,0.500000000000001));
#1590=DIRECTION('center_axis',(-1.,0.,0.));
#1591=DIRECTION('ref_axis',(0.,0.86602540378444,-0.499999999999998));
#1592=DIRECTION('center_axis',(1.,0.,0.));
#1593=DIRECTION('ref_axis',(0.,0.86602540378444,-0.499999999999998));
#1594=DIRECTION('',(-1.,0.,0.));
#1595=DIRECTION('center_axis',(-1.,0.,0.));
#1596=DIRECTION('ref_axis',(0.,0.86602540378444,-0.499999999999998));
#1597=DIRECTION('center_axis',(0.,-1.,-1.18336165315912E-15));
#1598=DIRECTION('ref_axis',(0.,-1.18336165315912E-15,1.));
#1599=DIRECTION('',(0.,-1.18336165315912E-15,1.));
#1600=DIRECTION('',(0.,1.18336165315912E-15,-1.));
#1601=DIRECTION('center_axis',(-1.,0.,0.));
#1602=DIRECTION('ref_axis',(0.,1.,0.));
#1603=DIRECTION('center_axis',(-1.,0.,0.));
#1604=DIRECTION('ref_axis',(0.,1.,0.));
#1605=DIRECTION('',(-1.,0.,0.));
#1606=DIRECTION('center_axis',(1.,0.,0.));
#1607=DIRECTION('ref_axis',(0.,1.,0.));
#1608=DIRECTION('center_axis',(1.,0.,0.));
#1609=DIRECTION('ref_axis',(0.,1.,0.));
#1610=DIRECTION('center_axis',(-1.,0.,0.));
#1611=DIRECTION('ref_axis',(0.,1.,0.));
#1612=DIRECTION('',(-0.642787609686539,0.766044443118978,-9.38133875270273E-17));
#1613=DIRECTION('center_axis',(-1.,0.,0.));
#1614=DIRECTION('ref_axis',(0.,1.,0.));
#1615=DIRECTION('center_axis',(-1.,0.,0.));
#1616=DIRECTION('ref_axis',(0.,1.,0.));
#1617=DIRECTION('',(-1.,0.,0.));
#1618=DIRECTION('center_axis',(1.,0.,0.));
#1619=DIRECTION('ref_axis',(0.,1.,0.));
#1620=DIRECTION('center_axis',(-1.,0.,0.));
#1621=DIRECTION('ref_axis',(0.,1.,0.));
#1622=DIRECTION('center_axis',(1.,0.,0.));
#1623=DIRECTION('ref_axis',(0.,1.,0.));
#1624=DIRECTION('',(-1.,0.,0.));
#1625=DIRECTION('center_axis',(-1.,0.,0.));
#1626=DIRECTION('ref_axis',(0.,1.,0.));
#1627=DIRECTION('',(-1.,0.,0.));
#1628=DIRECTION('center_axis',(-1.,0.,0.));
#1629=DIRECTION('ref_axis',(0.,1.,0.));
#1630=DIRECTION('center_axis',(1.,0.,0.));
#1631=DIRECTION('ref_axis',(0.,1.,0.));
#1632=DIRECTION('',(-1.,0.,0.));
#1633=DIRECTION('center_axis',(-1.,0.,0.));
#1634=DIRECTION('ref_axis',(0.,1.,0.));
#1635=DIRECTION('',(-1.,0.,0.));
#1636=DIRECTION('center_axis',(0.,0.939692620785909,-0.342020143325669));
#1637=DIRECTION('ref_axis',(0.,-0.342020143325669,-0.939692620785909));
#1638=DIRECTION('',(0.,0.342020143325669,0.939692620785909));
#1639=DIRECTION('',(0.,-0.342020143325669,-0.939692620785909));
#1640=DIRECTION('',(-1.,0.,0.));
#1641=DIRECTION('center_axis',(0.,1.,1.0821292836084E-15));
#1642=DIRECTION('ref_axis',(0.,1.0821292836084E-15,-1.));
#1643=DIRECTION('',(0.,1.0821292836084E-15,-1.));
#1644=DIRECTION('',(0.,1.0821292836084E-15,-1.));
#1645=DIRECTION('center_axis',(0.,-1.,0.));
#1646=DIRECTION('ref_axis',(0.,0.,1.));
#1647=DIRECTION('',(0.,0.,1.));
#1648=DIRECTION('',(0.,0.,1.));
#1649=DIRECTION('',(-1.,0.,0.));
#1650=DIRECTION('center_axis',(0.,-0.939692620785909,-0.342020143325668));
#1651=DIRECTION('ref_axis',(0.,-0.342020143325668,0.939692620785909));
#1652=DIRECTION('',(0.,-0.342020143325668,0.939692620785909));
#1653=DIRECTION('',(0.,-0.342020143325668,0.939692620785909));
#1654=DIRECTION('center_axis',(1.,0.,0.));
#1655=DIRECTION('ref_axis',(0.,1.,0.));
#1656=DIRECTION('center_axis',(1.,0.,0.));
#1657=DIRECTION('ref_axis',(0.,1.,0.));
#1658=CARTESIAN_POINT('',(0.,0.,0.));
#1659=CARTESIAN_POINT('Origin',(0.,-80.9521586489144,-26.7190017581465));
#1660=CARTESIAN_POINT('',(0.,-81.9521586489144,-26.7190017581465));
#1661=CARTESIAN_POINT('',(0.,-81.4521586489144,-27.5850271619309));
#1662=CARTESIAN_POINT('Origin',(0.,-80.9521586489144,-26.7190017581465));
#1663=CARTESIAN_POINT('',(-3.,-81.4521586489144,-27.5850271619309));
#1664=CARTESIAN_POINT('',(0.,-81.4521586489144,-27.5850271619309));
#1665=CARTESIAN_POINT('',(-3.,-81.9521586489144,-26.7190017581465));
#1666=CARTESIAN_POINT('Origin',(-3.,-80.9521586489144,-26.7190017581465));
#1667=CARTESIAN_POINT('',(0.,-81.9521586489144,-26.7190017581465));
#1668=CARTESIAN_POINT('Origin',(0.,-81.9521586489144,-27.2963520273361));
#1669=CARTESIAN_POINT('',(0.,-75.9521586489144,-30.7604536424739));
#1670=CARTESIAN_POINT('',(0.,-81.9521586489144,-27.2963520273361));
#1671=CARTESIAN_POINT('',(-3.,-75.9521586489144,-30.7604536424739));
#1672=CARTESIAN_POINT('',(0.,-75.9521586489144,-30.7604536424739));
#1673=CARTESIAN_POINT('',(-3.,-81.9521586489144,-27.2963520273361));
#1674=CARTESIAN_POINT('Origin',(0.,-80.9521586489145,-20.3681487970606));
#1675=CARTESIAN_POINT('',(0.,-81.4521586489145,-19.5021233932762));
#1676=CARTESIAN_POINT('',(0.,-81.9521586489145,-20.3681487970606));
#1677=CARTESIAN_POINT('Origin',(0.,-80.9521586489145,-20.3681487970606));
#1678=CARTESIAN_POINT('',(-3.,-81.9521586489145,-20.3681487970606));
#1679=CARTESIAN_POINT('',(0.,-81.9521586489145,-20.3681487970606));
#1680=CARTESIAN_POINT('',(-3.,-81.4521586489145,-19.5021233932762));
#1681=CARTESIAN_POINT('Origin',(-3.,-80.9521586489145,-20.3681487970606));
#1682=CARTESIAN_POINT('',(0.,-81.4521586489145,-19.5021233932762));
#1683=CARTESIAN_POINT('Origin',(0.,-81.9521586489145,-19.790798527871));
#1684=CARTESIAN_POINT('',(-3.,-81.9521586489145,-19.790798527871));
#1685=CARTESIAN_POINT('',(0.,-81.9521586489145,-19.790798527871));
#1686=CARTESIAN_POINT('Origin',(0.,-88.3521586489145,-13.7190017581465));
#1687=CARTESIAN_POINT('',(0.,-89.3521586489145,-13.7190017581465));
#1688=CARTESIAN_POINT('',(0.,-88.8521586489145,-14.585027161931));
#1689=CARTESIAN_POINT('Origin',(0.,-88.3521586489145,-13.7190017581465));
#1690=CARTESIAN_POINT('',(-3.,-88.8521586489145,-14.585027161931));
#1691=CARTESIAN_POINT('',(0.,-88.8521586489145,-14.585027161931));
#1692=CARTESIAN_POINT('',(-3.,-89.3521586489145,-13.7190017581465));
#1693=CARTESIAN_POINT('Origin',(-3.,-88.3521586489145,-13.7190017581465));
#1694=CARTESIAN_POINT('',(0.,-89.3521586489145,-13.7190017581465));
#1695=CARTESIAN_POINT('Origin',(0.,-89.3521586489145,-14.2963520273362));
#1696=CARTESIAN_POINT('',(0.,-83.3521586489144,-17.760453642474));
#1697=CARTESIAN_POINT('',(0.,-89.3521586489145,-14.2963520273362));
#1698=CARTESIAN_POINT('',(-3.,-83.3521586489144,-17.760453642474));
#1699=CARTESIAN_POINT('',(0.,-83.3521586489144,-17.760453642474));
#1700=CARTESIAN_POINT('',(-3.,-89.3521586489145,-14.2963520273362));
#1701=CARTESIAN_POINT('Origin',(0.,-88.3521586489145,-7.36814879706053));
#1702=CARTESIAN_POINT('',(0.,-88.8521586489145,-6.5021233932761));
#1703=CARTESIAN_POINT('',(0.,-89.3521586489145,-7.36814879706053));
#1704=CARTESIAN_POINT('Origin',(0.,-88.3521586489145,-7.36814879706053));
#1705=CARTESIAN_POINT('',(-3.,-89.3521586489145,-7.36814879706053));
#1706=CARTESIAN_POINT('',(0.,-89.3521586489145,-7.36814879706053));
#1707=CARTESIAN_POINT('',(-3.,-88.8521586489145,-6.5021233932761));
#1708=CARTESIAN_POINT('Origin',(-3.,-88.3521586489145,-7.36814879706053));
#1709=CARTESIAN_POINT('',(0.,-88.8521586489145,-6.5021233932761));
#1710=CARTESIAN_POINT('Origin',(0.,-89.3521586489145,-6.79079852787091));
#1711=CARTESIAN_POINT('',(-3.,-89.3521586489145,-6.79079852787091));
#1712=CARTESIAN_POINT('',(0.,-89.3521586489145,-6.79079852787091));
#1713=CARTESIAN_POINT('Origin',(0.,-88.3521586489145,18.6318512029395));
#1714=CARTESIAN_POINT('',(0.,-88.8521586489145,19.4978766067239));
#1715=CARTESIAN_POINT('',(0.,-89.3521586489145,18.6318512029395));
#1716=CARTESIAN_POINT('Origin',(0.,-88.3521586489145,18.6318512029395));
#1717=CARTESIAN_POINT('',(-3.,-89.3521586489145,18.6318512029395));
#1718=CARTESIAN_POINT('',(0.,-89.3521586489145,18.6318512029395));
#1719=CARTESIAN_POINT('',(-3.,-88.8521586489145,19.4978766067239));
#1720=CARTESIAN_POINT('Origin',(-3.,-88.3521586489145,18.6318512029395));
#1721=CARTESIAN_POINT('',(0.,-88.8521586489145,19.4978766067239));
#1722=CARTESIAN_POINT('Origin',(0.,-89.3521586489145,19.2092014721291));
#1723=CARTESIAN_POINT('',(0.,-89.3521586489145,12.2809982418535));
#1724=CARTESIAN_POINT('',(0.,-89.3521586489145,19.2092014721291));
#1725=CARTESIAN_POINT('',(-3.,-89.3521586489145,12.2809982418535));
#1726=CARTESIAN_POINT('',(0.,-89.3521586489145,12.2809982418535));
#1727=CARTESIAN_POINT('',(-3.,-89.3521586489145,19.2092014721291));
#1728=CARTESIAN_POINT('Origin',(0.,-88.3521586489145,12.2809982418535));
#1729=CARTESIAN_POINT('',(0.,-88.8521586489145,11.414972838069));
#1730=CARTESIAN_POINT('Origin',(0.,-88.3521586489145,12.2809982418535));
#1731=CARTESIAN_POINT('',(-3.,-88.8521586489145,11.414972838069));
#1732=CARTESIAN_POINT('',(0.,-88.8521586489145,11.414972838069));
#1733=CARTESIAN_POINT('Origin',(-3.,-88.3521586489145,12.2809982418535));
#1734=CARTESIAN_POINT('Origin',(0.,-89.3521586489145,11.7036479726638));
#1735=CARTESIAN_POINT('',(0.,-83.3521586489144,8.23954635752604));
#1736=CARTESIAN_POINT('',(0.,-89.3521586489145,11.7036479726638));
#1737=CARTESIAN_POINT('',(-3.,-83.3521586489144,8.23954635752604));
#1738=CARTESIAN_POINT('',(0.,-83.3521586489144,8.23954635752604));
#1739=CARTESIAN_POINT('',(-3.,-89.3521586489145,11.7036479726638));
#1740=CARTESIAN_POINT('Origin',(0.,-80.9521586489145,5.63185120293941));
#1741=CARTESIAN_POINT('',(0.,-81.4521586489145,6.49787660672385));
#1742=CARTESIAN_POINT('',(0.,-81.9521586489145,5.6318512029394));
#1743=CARTESIAN_POINT('Origin',(0.,-80.9521586489145,5.63185120293941));
#1744=CARTESIAN_POINT('',(-3.,-81.9521586489145,5.6318512029394));
#1745=CARTESIAN_POINT('',(0.,-81.9521586489145,5.6318512029394));
#1746=CARTESIAN_POINT('',(-3.,-81.4521586489145,6.49787660672385));
#1747=CARTESIAN_POINT('Origin',(-3.,-80.9521586489145,5.63185120293941));
#1748=CARTESIAN_POINT('',(0.,-81.4521586489145,6.49787660672385));
#1749=CARTESIAN_POINT('Origin',(0.,-81.9521586489145,6.20920147212904));
#1750=CARTESIAN_POINT('',(0.,-81.9521586489144,-0.719001758146472));
#1751=CARTESIAN_POINT('',(0.,-81.9521586489145,6.20920147212904));
#1752=CARTESIAN_POINT('',(-3.,-81.9521586489144,-0.719001758146472));
#1753=CARTESIAN_POINT('',(0.,-81.9521586489144,-0.719001758146473));
#1754=CARTESIAN_POINT('',(-3.,-81.9521586489145,6.20920147212904));
#1755=CARTESIAN_POINT('Origin',(0.,-80.9521586489144,-0.719001758146468));
#1756=CARTESIAN_POINT('',(0.,-81.4521586489145,-1.58502716193091));
#1757=CARTESIAN_POINT('Origin',(0.,-80.9521586489144,-0.719001758146468));
#1758=CARTESIAN_POINT('',(-3.,-81.4521586489145,-1.58502716193091));
#1759=CARTESIAN_POINT('',(0.,-81.4521586489145,-1.58502716193091));
#1760=CARTESIAN_POINT('Origin',(-3.,-80.9521586489144,-0.719001758146468));
#1761=CARTESIAN_POINT('Origin',(0.,-81.9521586489144,-1.29635202733611));
#1762=CARTESIAN_POINT('',(0.,-75.9521586489144,-4.76045364247386));
#1763=CARTESIAN_POINT('',(0.,-81.9521586489144,-1.29635202733611));
#1764=CARTESIAN_POINT('',(-3.,-75.9521586489144,-4.76045364247386));
#1765=CARTESIAN_POINT('',(0.,-75.9521586489144,-4.76045364247386));
#1766=CARTESIAN_POINT('',(-3.,-81.9521586489144,-1.29635202733611));
#1767=CARTESIAN_POINT('Origin',(0.,-82.8521586489144,-4.19272231651754));
#1768=CARTESIAN_POINT('',(0.,-82.3521586489144,-3.3266969127331));
#1769=CARTESIAN_POINT('',(0.,-83.3521586489144,-3.3266969127331));
#1770=CARTESIAN_POINT('Origin',(0.,-82.8521586489144,-4.19272231651754));
#1771=CARTESIAN_POINT('',(-3.,-83.3521586489144,-3.3266969127331));
#1772=CARTESIAN_POINT('',(0.,-83.3521586489144,-3.3266969127331));
#1773=CARTESIAN_POINT('',(-3.,-82.3521586489144,-3.3266969127331));
#1774=CARTESIAN_POINT('Origin',(-3.,-82.8521586489144,-4.19272231651754));
#1775=CARTESIAN_POINT('',(0.,-82.3521586489144,-3.3266969127331));
#1776=CARTESIAN_POINT('Origin',(0.,-82.8521586489144,-3.03802177813829));
#1777=CARTESIAN_POINT('',(-3.,-82.8521586489144,-3.03802177813829));
#1778=CARTESIAN_POINT('',(0.,-82.8521586489144,-3.03802177813829));
#1779=CARTESIAN_POINT('Origin',(0.,-77.3521586489143,-7.36814879706054));
#1780=CARTESIAN_POINT('',(0.,-76.3521586489143,-7.36814879706054));
#1781=CARTESIAN_POINT('',(0.,-76.8521586489143,-6.5021233932761));
#1782=CARTESIAN_POINT('Origin',(0.,-77.3521586489143,-7.36814879706054));
#1783=CARTESIAN_POINT('',(-3.,-76.8521586489143,-6.5021233932761));
#1784=CARTESIAN_POINT('',(0.,-76.8521586489143,-6.5021233932761));
#1785=CARTESIAN_POINT('',(-3.,-76.3521586489143,-7.36814879706054));
#1786=CARTESIAN_POINT('Origin',(-3.,-77.3521586489143,-7.36814879706054));
#1787=CARTESIAN_POINT('',(0.,-76.3521586489143,-7.36814879706054));
#1788=CARTESIAN_POINT('Origin',(0.,-76.3521586489143,-6.79079852787091));
#1789=CARTESIAN_POINT('',(-3.,-76.3521586489143,-6.79079852787091));
#1790=CARTESIAN_POINT('',(0.,-76.3521586489143,-6.79079852787091));
#1791=CARTESIAN_POINT('Origin',(0.,-82.8521586489144,21.8072776834825));
#1792=CARTESIAN_POINT('',(0.,-82.3521586489144,22.6733030872669));
#1793=CARTESIAN_POINT('',(0.,-83.3521586489144,22.6733030872669));
#1794=CARTESIAN_POINT('Origin',(0.,-82.8521586489144,21.8072776834825));
#1795=CARTESIAN_POINT('',(-3.,-83.3521586489144,22.6733030872669));
#1796=CARTESIAN_POINT('',(0.,-83.3521586489144,22.6733030872669));
#1797=CARTESIAN_POINT('',(-3.,-82.3521586489144,22.6733030872669));
#1798=CARTESIAN_POINT('Origin',(-3.,-82.8521586489144,21.8072776834825));
#1799=CARTESIAN_POINT('',(0.,-82.3521586489144,22.6733030872669));
#1800=CARTESIAN_POINT('Origin',(0.,-82.8521586489144,22.9619782218617));
#1801=CARTESIAN_POINT('',(-3.,-82.8521586489144,22.9619782218617));
#1802=CARTESIAN_POINT('',(0.,-82.8521586489144,22.9619782218617));
#1803=CARTESIAN_POINT('Origin',(0.,-77.3521586489143,18.6318512029395));
#1804=CARTESIAN_POINT('',(0.,-76.3521586489143,18.6318512029395));
#1805=CARTESIAN_POINT('',(0.,-76.8521586489143,19.4978766067239));
#1806=CARTESIAN_POINT('Origin',(0.,-77.3521586489143,18.6318512029395));
#1807=CARTESIAN_POINT('',(-3.,-76.8521586489143,19.4978766067239));
#1808=CARTESIAN_POINT('',(0.,-76.8521586489143,19.4978766067239));
#1809=CARTESIAN_POINT('',(-3.,-76.3521586489143,18.6318512029395));
#1810=CARTESIAN_POINT('Origin',(-3.,-77.3521586489143,18.6318512029395));
#1811=CARTESIAN_POINT('',(0.,-76.3521586489143,18.6318512029395));
#1812=CARTESIAN_POINT('Origin',(0.,-76.3521586489143,19.2092014721291));
#1813=CARTESIAN_POINT('',(-3.,-76.3521586489143,19.2092014721291));
#1814=CARTESIAN_POINT('',(0.,-76.3521586489143,19.2092014721291));
#1815=CARTESIAN_POINT('Origin',(0.,-75.4521586489144,8.80727768348233));
#1816=CARTESIAN_POINT('',(0.,-74.9521586489145,9.67330308726678));
#1817=CARTESIAN_POINT('',(0.,-75.9521586489144,9.67330308726677));
#1818=CARTESIAN_POINT('Origin',(0.,-75.4521586489144,8.80727768348233));
#1819=CARTESIAN_POINT('',(-3.,-75.9521586489144,9.67330308726677));
#1820=CARTESIAN_POINT('',(0.,-75.9521586489144,9.67330308726677));
#1821=CARTESIAN_POINT('',(-3.,-74.9521586489145,9.67330308726678));
#1822=CARTESIAN_POINT('Origin',(-3.,-75.4521586489144,8.80727768348233));
#1823=CARTESIAN_POINT('',(0.,-74.9521586489145,9.67330308726678));
#1824=CARTESIAN_POINT('Origin',(0.,-75.4521586489144,9.96197822186159));
#1825=CARTESIAN_POINT('',(-3.,-75.4521586489144,9.96197822186159));
#1826=CARTESIAN_POINT('',(0.,-75.4521586489144,9.96197822186159));
#1827=CARTESIAN_POINT('Origin',(0.,-69.9521586489144,5.63185120293942));
#1828=CARTESIAN_POINT('',(0.,-68.9521586489144,5.63185120293942));
#1829=CARTESIAN_POINT('',(0.,-69.4521586489144,6.49787660672385));
#1830=CARTESIAN_POINT('Origin',(0.,-69.9521586489144,5.63185120293942));
#1831=CARTESIAN_POINT('',(-3.,-69.4521586489144,6.49787660672385));
#1832=CARTESIAN_POINT('',(0.,-69.4521586489144,6.49787660672386));
#1833=CARTESIAN_POINT('',(-3.,-68.9521586489144,5.63185120293942));
#1834=CARTESIAN_POINT('Origin',(-3.,-69.9521586489144,5.63185120293942));
#1835=CARTESIAN_POINT('',(0.,-68.9521586489144,5.63185120293942));
#1836=CARTESIAN_POINT('Origin',(0.,-68.9521586489144,6.20920147212905));
#1837=CARTESIAN_POINT('',(-3.,-68.9521586489144,6.20920147212905));
#1838=CARTESIAN_POINT('',(0.,-68.9521586489144,6.20920147212905));
#1839=CARTESIAN_POINT('Origin',(0.,-75.4521586489144,-17.1927223165177));
#1840=CARTESIAN_POINT('',(0.,-74.9521586489145,-16.3266969127332));
#1841=CARTESIAN_POINT('',(0.,-75.9521586489144,-16.3266969127332));
#1842=CARTESIAN_POINT('Origin',(0.,-75.4521586489144,-17.1927223165177));
#1843=CARTESIAN_POINT('',(-3.,-75.9521586489144,-16.3266969127332));
#1844=CARTESIAN_POINT('',(0.,-75.9521586489144,-16.3266969127332));
#1845=CARTESIAN_POINT('',(-3.,-74.9521586489145,-16.3266969127332));
#1846=CARTESIAN_POINT('Origin',(-3.,-75.4521586489144,-17.1927223165177));
#1847=CARTESIAN_POINT('',(0.,-74.9521586489145,-16.3266969127332));
#1848=CARTESIAN_POINT('Origin',(0.,-75.4521586489144,-16.0380217781384));
#1849=CARTESIAN_POINT('',(-3.,-75.4521586489144,-16.0380217781384));
#1850=CARTESIAN_POINT('',(0.,-75.4521586489144,-16.0380217781384));
#1851=CARTESIAN_POINT('Origin',(0.,-69.9521586489144,-20.3681487970606));
#1852=CARTESIAN_POINT('',(0.,-68.9521586489144,-20.3681487970606));
#1853=CARTESIAN_POINT('',(0.,-69.4521586489144,-19.5021233932761));
#1854=CARTESIAN_POINT('Origin',(0.,-69.9521586489144,-20.3681487970606));
#1855=CARTESIAN_POINT('',(-3.,-69.4521586489144,-19.5021233932761));
#1856=CARTESIAN_POINT('',(0.,-69.4521586489144,-19.5021233932761));
#1857=CARTESIAN_POINT('',(-3.,-68.9521586489144,-20.3681487970606));
#1858=CARTESIAN_POINT('Origin',(-3.,-69.9521586489144,-20.3681487970606));
#1859=CARTESIAN_POINT('',(0.,-68.9521586489144,-20.3681487970606));
#1860=CARTESIAN_POINT('Origin',(0.,-68.9521586489144,-19.790798527871));
#1861=CARTESIAN_POINT('',(-3.,-68.9521586489144,-19.790798527871));
#1862=CARTESIAN_POINT('',(0.,-68.9521586489144,-19.790798527871));
#1863=CARTESIAN_POINT('Origin',(0.,-82.8521586489144,9.10557176131048));
#1864=CARTESIAN_POINT('',(0.,-82.3521586489144,8.23954635752604));
#1865=CARTESIAN_POINT('Origin',(0.,-82.8521586489144,9.10557176131048));
#1866=CARTESIAN_POINT('',(-3.,-82.3521586489144,8.23954635752604));
#1867=CARTESIAN_POINT('',(0.,-82.3521586489144,8.23954635752604));
#1868=CARTESIAN_POINT('Origin',(-3.,-82.8521586489144,9.10557176131048));
#1869=CARTESIAN_POINT('Origin',(0.,-82.8521586489144,7.95087122293122));
#1870=CARTESIAN_POINT('',(0.,-76.8521586489143,11.414972838069));
#1871=CARTESIAN_POINT('',(0.,-82.8521586489144,7.95087122293122));
#1872=CARTESIAN_POINT('',(-3.,-76.8521586489143,11.414972838069));
#1873=CARTESIAN_POINT('',(0.,-76.8521586489143,11.414972838069));
#1874=CARTESIAN_POINT('',(-3.,-82.8521586489144,7.95087122293122));
#1875=CARTESIAN_POINT('Origin',(0.,-77.3521586489143,12.2809982418535));
#1876=CARTESIAN_POINT('',(0.,-76.3521586489143,12.2809982418535));
#1877=CARTESIAN_POINT('Origin',(0.,-77.3521586489143,12.2809982418535));
#1878=CARTESIAN_POINT('',(-3.,-76.3521586489143,12.2809982418535));
#1879=CARTESIAN_POINT('',(0.,-76.3521586489143,12.2809982418535));
#1880=CARTESIAN_POINT('Origin',(-3.,-77.3521586489143,12.2809982418535));
#1881=CARTESIAN_POINT('Origin',(0.,-76.3521586489143,11.7036479726638));
#1882=CARTESIAN_POINT('',(-3.,-76.3521586489143,11.7036479726638));
#1883=CARTESIAN_POINT('',(0.,-76.3521586489143,11.7036479726638));
#1884=CARTESIAN_POINT('Origin',(0.,-75.4521586489144,-29.8944282386894));
#1885=CARTESIAN_POINT('',(0.,-74.9521586489144,-30.7604536424739));
#1886=CARTESIAN_POINT('Origin',(0.,-75.4521586489144,-29.8944282386894));
#1887=CARTESIAN_POINT('',(-3.,-74.9521586489144,-30.7604536424739));
#1888=CARTESIAN_POINT('',(0.,-74.9521586489144,-30.7604536424739));
#1889=CARTESIAN_POINT('Origin',(-3.,-75.4521586489144,-29.8944282386894));
#1890=CARTESIAN_POINT('Origin',(0.,-75.4521586489144,-31.0491287770687));
#1891=CARTESIAN_POINT('',(0.,-69.4521586489144,-27.5850271619309));
#1892=CARTESIAN_POINT('',(0.,-75.4521586489144,-31.0491287770687));
#1893=CARTESIAN_POINT('',(-3.,-69.4521586489144,-27.5850271619309));
#1894=CARTESIAN_POINT('',(0.,-69.4521586489144,-27.5850271619309));
#1895=CARTESIAN_POINT('',(-3.,-75.4521586489144,-31.0491287770687));
#1896=CARTESIAN_POINT('Origin',(0.,-69.9521586489144,-26.7190017581465));
#1897=CARTESIAN_POINT('',(0.,-68.9521586489144,-26.7190017581465));
#1898=CARTESIAN_POINT('Origin',(0.,-69.9521586489144,-26.7190017581465));
#1899=CARTESIAN_POINT('',(-3.,-68.9521586489144,-26.7190017581465));
#1900=CARTESIAN_POINT('',(0.,-68.9521586489144,-26.7190017581465));
#1901=CARTESIAN_POINT('Origin',(-3.,-69.9521586489144,-26.7190017581465));
#1902=CARTESIAN_POINT('Origin',(0.,-68.9521586489144,-27.2963520273361));
#1903=CARTESIAN_POINT('',(-3.,-68.9521586489144,-27.2963520273361));
#1904=CARTESIAN_POINT('',(0.,-68.9521586489144,-27.2963520273361));
#1905=CARTESIAN_POINT('Origin',(0.,-82.8521586489144,-16.8944282386895));
#1906=CARTESIAN_POINT('',(0.,-82.3521586489144,-17.760453642474));
#1907=CARTESIAN_POINT('Origin',(0.,-82.8521586489144,-16.8944282386895));
#1908=CARTESIAN_POINT('',(-3.,-82.3521586489144,-17.760453642474));
#1909=CARTESIAN_POINT('',(0.,-82.3521586489144,-17.760453642474));
#1910=CARTESIAN_POINT('Origin',(-3.,-82.8521586489144,-16.8944282386895));
#1911=CARTESIAN_POINT('Origin',(0.,-82.8521586489144,-18.0491287770688));
#1912=CARTESIAN_POINT('',(0.,-76.8521586489143,-14.585027161931));
#1913=CARTESIAN_POINT('',(0.,-82.8521586489144,-18.0491287770688));
#1914=CARTESIAN_POINT('',(-3.,-76.8521586489143,-14.585027161931));
#1915=CARTESIAN_POINT('',(0.,-76.8521586489143,-14.585027161931));
#1916=CARTESIAN_POINT('',(-3.,-82.8521586489144,-18.0491287770688));
#1917=CARTESIAN_POINT('Origin',(0.,-77.3521586489143,-13.7190017581465));
#1918=CARTESIAN_POINT('',(0.,-76.3521586489143,-13.7190017581465));
#1919=CARTESIAN_POINT('Origin',(0.,-77.3521586489143,-13.7190017581465));
#1920=CARTESIAN_POINT('',(-3.,-76.3521586489143,-13.7190017581465));
#1921=CARTESIAN_POINT('',(0.,-76.3521586489143,-13.7190017581465));
#1922=CARTESIAN_POINT('Origin',(-3.,-77.3521586489143,-13.7190017581465));
#1923=CARTESIAN_POINT('Origin',(0.,-76.3521586489143,-14.2963520273362));
#1924=CARTESIAN_POINT('',(-3.,-76.3521586489143,-14.2963520273362));
#1925=CARTESIAN_POINT('',(0.,-76.3521586489143,-14.2963520273362));
#1926=CARTESIAN_POINT('Origin',(0.,-75.4521586489144,-3.89442823868941));
#1927=CARTESIAN_POINT('',(0.,-74.9521586489144,-4.76045364247385));
#1928=CARTESIAN_POINT('Origin',(0.,-75.4521586489144,-3.89442823868941));
#1929=CARTESIAN_POINT('',(-3.,-74.9521586489144,-4.76045364247385));
#1930=CARTESIAN_POINT('',(0.,-74.9521586489144,-4.76045364247385));
#1931=CARTESIAN_POINT('Origin',(-3.,-75.4521586489144,-3.89442823868941));
#1932=CARTESIAN_POINT('Origin',(0.,-75.4521586489144,-5.04912877706867));
#1933=CARTESIAN_POINT('',(0.,-69.4521586489144,-1.5850271619309));
#1934=CARTESIAN_POINT('',(0.,-75.4521586489144,-5.04912877706867));
#1935=CARTESIAN_POINT('',(-3.,-69.4521586489144,-1.5850271619309));
#1936=CARTESIAN_POINT('',(0.,-69.4521586489144,-1.5850271619309));
#1937=CARTESIAN_POINT('',(-3.,-75.4521586489144,-5.04912877706867));
#1938=CARTESIAN_POINT('Origin',(0.,-69.9521586489144,-0.719001758146465));
#1939=CARTESIAN_POINT('',(0.,-68.9521586489144,-0.719001758146464));
#1940=CARTESIAN_POINT('Origin',(0.,-69.9521586489144,-0.719001758146465));
#1941=CARTESIAN_POINT('',(-3.,-68.9521586489144,-0.719001758146464));
#1942=CARTESIAN_POINT('',(0.,-68.9521586489144,-0.719001758146464));
#1943=CARTESIAN_POINT('Origin',(-3.,-69.9521586489144,-0.719001758146465));
#1944=CARTESIAN_POINT('Origin',(0.,-68.9521586489144,-1.29635202733609));
#1945=CARTESIAN_POINT('',(-3.,-68.9521586489144,-1.29635202733609));
#1946=CARTESIAN_POINT('',(0.,-68.9521586489144,-1.29635202733609));
#1947=CARTESIAN_POINT('Origin',(-1.65,-79.1521586489144,-48.7435752776035));
#1948=CARTESIAN_POINT('',(0.,-82.6521586489144,-48.7435752776035));
#1949=CARTESIAN_POINT('Origin',(0.,-79.1521586489144,-48.7435752776035));
#1950=CARTESIAN_POINT('',(-3.,-82.6521586489144,-48.7435752776035));
#1951=CARTESIAN_POINT('',(-1.65,-82.6521586489144,-48.7435752776035));
#1952=CARTESIAN_POINT('Origin',(-3.,-79.1521586489144,-48.7435752776035));
#1953=CARTESIAN_POINT('Origin',(-0.825883811986238,-79.1521586489144,36.2564247223965));
#1954=CARTESIAN_POINT('',(3.19189119579733E-15,-83.3686586489144,36.2564247223965));
#1955=CARTESIAN_POINT('Origin',(0.,-79.1521586489144,36.2564247223965));
#1956=CARTESIAN_POINT('',(-1.65176762397248,-81.4001586489144,36.2564247223965));
#1957=CARTESIAN_POINT('',(-0.825883811986238,-82.3844086489144,36.2564247223965));
#1958=CARTESIAN_POINT('Origin',(-1.65176762397248,-79.1521586489144,36.2564247223965));
#1959=CARTESIAN_POINT('Origin',(-1.65,-79.1521586489144,36.2564247223965));
#1960=CARTESIAN_POINT('',(-3.,-81.4001586489144,36.2564247223965));
#1961=CARTESIAN_POINT('',(-1.65,-81.4001586489144,36.2564247223965));
#1962=CARTESIAN_POINT('Origin',(-3.,-79.1521586489144,36.2564247223965));
#1963=CARTESIAN_POINT('Origin',(0.,-79.1521586489144,36.2564247223965));
#1964=CARTESIAN_POINT('',(0.,-66.4521586489144,36.2564247223965));
#1965=CARTESIAN_POINT('',(0.,-91.8521586489144,36.2564247223965));
#1966=CARTESIAN_POINT('Origin',(0.,-79.1521586489144,36.2564247223965));
#1967=CARTESIAN_POINT('',(-3.,-66.4521586489144,36.2564247223965));
#1968=CARTESIAN_POINT('',(0.,-66.4521586489144,36.2564247223965));
#1969=CARTESIAN_POINT('',(-3.,-91.8521586489144,36.2564247223965));
#1970=CARTESIAN_POINT('Origin',(-3.,-79.1521586489144,36.2564247223965));
#1971=CARTESIAN_POINT('',(0.,-91.8521586489144,36.2564247223965));
#1972=CARTESIAN_POINT('Origin',(0.,-79.1521586489144,-48.7435752776035));
#1973=CARTESIAN_POINT('',(0.,-87.6093922359876,-51.8217565675346));
#1974=CARTESIAN_POINT('',(0.,-70.6949250618412,-51.8217565675346));
#1975=CARTESIAN_POINT('Origin',(0.,-79.1521586489144,-48.7435752776035));
#1976=CARTESIAN_POINT('',(-3.,-87.6093922359876,-51.8217565675346));
#1977=CARTESIAN_POINT('',(0.,-87.6093922359876,-51.8217565675346));
#1978=CARTESIAN_POINT('',(-3.,-70.6949250618412,-51.8217565675346));
#1979=CARTESIAN_POINT('Origin',(-3.,-79.1521586489144,-48.7435752776035));
#1980=CARTESIAN_POINT('',(0.,-70.6949250618412,-51.8217565675346));
#1981=CARTESIAN_POINT('Origin',(0.,-66.4521586489143,-40.1648516519975));
#1982=CARTESIAN_POINT('',(0.,-66.4521586489143,-40.1648516519975));
#1983=CARTESIAN_POINT('',(0.,-70.6949250618412,-51.8217565675346));
#1984=CARTESIAN_POINT('',(-3.,-66.4521586489143,-40.1648516519975));
#1985=CARTESIAN_POINT('',(-3.,-70.6949250618412,-51.8217565675346));
#1986=CARTESIAN_POINT('',(0.,-66.4521586489143,-40.1648516519975));
#1987=CARTESIAN_POINT('Origin',(0.,-66.4521586489144,36.2564247223965));
#1988=CARTESIAN_POINT('',(0.,-66.4521586489144,48.9564247223965));
#1989=CARTESIAN_POINT('',(-3.,-66.4521586489144,48.9564247223965));
#1990=CARTESIAN_POINT('Origin',(0.,-91.8521586489144,-40.1648516519975));
#1991=CARTESIAN_POINT('',(0.,-91.8521586489144,-40.1648516519975));
#1992=CARTESIAN_POINT('',(0.,-91.8521586489144,-57.7435752776035));
#1993=CARTESIAN_POINT('',(-3.,-91.8521586489144,-40.1648516519975));
#1994=CARTESIAN_POINT('',(-3.,-91.8521586489144,-57.7435752776035));
#1995=CARTESIAN_POINT('',(0.,-91.8521586489144,-40.1648516519975));
#1996=CARTESIAN_POINT('Origin',(0.,-87.6093922359876,-51.8217565675346));
#1997=CARTESIAN_POINT('',(0.,-87.6093922359876,-51.8217565675346));
#1998=CARTESIAN_POINT('',(-3.,-87.6093922359876,-51.8217565675346));
#1999=CARTESIAN_POINT('Origin',(0.,-79.1521586489144,-7.78266592256905));
#2000=CARTESIAN_POINT('Origin',(-3.,-79.1521586489144,-7.78266592256905));
#2001=UNCERTAINTY_MEASURE_WITH_UNIT(LENGTH_MEASURE(0.01),#2005,
'DISTANCE_ACCURACY_VALUE',
'Maximum model space distance between geometric entities at asserted c
onnectivities');
#2002=UNCERTAINTY_MEASURE_WITH_UNIT(LENGTH_MEASURE(0.01),#2005,
'DISTANCE_ACCURACY_VALUE',
'Maximum model space distance between geometric entities at asserted c
onnectivities');
#2003=(
GEOMETRIC_REPRESENTATION_CONTEXT(3)
GLOBAL_UNCERTAINTY_ASSIGNED_CONTEXT((#2001))
GLOBAL_UNIT_ASSIGNED_CONTEXT((#2005,#2007,#2008))
REPRESENTATION_CONTEXT('','3D')
);
#2004=(
GEOMETRIC_REPRESENTATION_CONTEXT(3)
GLOBAL_UNCERTAINTY_ASSIGNED_CONTEXT((#2002))
GLOBAL_UNIT_ASSIGNED_CONTEXT((#2005,#2007,#2008))
REPRESENTATION_CONTEXT('','3D')
);
#2005=(
LENGTH_UNIT()
NAMED_UNIT(*)
SI_UNIT(.MILLI.,.METRE.)
);
#2006=(
LENGTH_UNIT()
NAMED_UNIT(*)
SI_UNIT($,.METRE.)
);
#2007=(
NAMED_UNIT(*)
PLANE_ANGLE_UNIT()
SI_UNIT($,.RADIAN.)
);
#2008=(
NAMED_UNIT(*)
SI_UNIT($,.STERADIAN.)
SOLID_ANGLE_UNIT()
);
#2009=SHAPE_DEFINITION_REPRESENTATION(#2010,#2011);
#2010=PRODUCT_DEFINITION_SHAPE('',$,#2013);
#2011=SHAPE_REPRESENTATION('',(#1194),#2003);
#2012=PRODUCT_DEFINITION_CONTEXT('part definition',#2017,'design');
#2013=PRODUCT_DEFINITION('Handlebar','Handlebar',#2014,#2012);
#2014=PRODUCT_DEFINITION_FORMATION('',$,#2019);
#2015=PRODUCT_RELATED_PRODUCT_CATEGORY('Handlebar','Handlebar',(#2019));
#2016=APPLICATION_PROTOCOL_DEFINITION('international standard',
'automotive_design',2009,#2017);
#2017=APPLICATION_CONTEXT(
'Core Data for Automotive Mechanical Design Process');
#2018=PRODUCT_CONTEXT('part definition',#2017,'mechanical');
#2019=PRODUCT('Handlebar','Handlebar',$,(#2018));
#2020=PRESENTATION_STYLE_ASSIGNMENT((#2022));
#2021=PRESENTATION_STYLE_ASSIGNMENT((#2023));
#2022=SURFACE_STYLE_USAGE(.BOTH.,#2024);
#2023=SURFACE_STYLE_USAGE(.BOTH.,#2025);
#2024=SURFACE_SIDE_STYLE('',(#2026));
#2025=SURFACE_SIDE_STYLE('',(#2027));
#2026=SURFACE_STYLE_FILL_AREA(#2028);
#2027=SURFACE_STYLE_FILL_AREA(#2029);
#2028=FILL_AREA_STYLE('Steel - Satin',(#2030));
#2029=FILL_AREA_STYLE('Copper - Polished',(#2031));
#2030=FILL_AREA_STYLE_COLOUR('Steel - Satin',#2032);
#2031=FILL_AREA_STYLE_COLOUR('Copper - Polished',#2033);
#2032=COLOUR_RGB('Steel - Satin',0.627450980392157,0.627450980392157,0.627450980392157);
#2033=COLOUR_RGB('Copper - Polished',0.929411764705882,0.807843137254902,
0.764705882352941);
ENDSEC;
END-ISO-10303-21;
