ISO-10303-21;
HEADER;
/* Generated by software containing ST-Developer
 * from STEP Tools, Inc. (www.steptools.com) 
 */

FILE_DESCRIPTION(
/* description */ (''),
/* implementation_level */ '2;1');

FILE_NAME(
/* name */ 
'C:/Users/anton/Documents/Kerbal Space Program/Kerbal_Control_Panel/KC
P2/CAD/ForManufacture/ShortColumn_v90.step',
/* time_stamp */ '2020-11-13T21:33:24-08:00',
/* author */ (''),
/* organization */ (''),
/* preprocessor_version */ 'ST-DEVELOPER v18.1',
/* originating_system */ 'Autodesk Translation Framework v9.3.0.1241',
/* authorisation */ '');

FILE_SCHEMA (('AUTOMOTIVE_DESIGN { 1 0 10303 214 3 1 1 }'));
ENDSEC;

DATA;
#10=MECHANICAL_DESIGN_GEOMETRIC_PRESENTATION_REPRESENTATION('',(#13),#248);
#11=SHAPE_REPRESENTATION_RELATIONSHIP('SRR','None',#255,#12);
#12=ADVANCED_BREP_SHAPE_REPRESENTATION('',(#14),#247);
#13=STYLED_ITEM('',(#265),#14);
#14=MANIFOLD_SOLID_BREP('Body1',#115);
#15=B_SPLINE_CURVE_WITH_KNOTS('',3,(#202,#203,#204,#205,#206,#207,#208,
#209,#210,#211,#212,#213,#214,#215,#216,#217,#218,#219,#220,#221,#222,#223,
#224,#225,#226,#227,#228,#229,#230,#231,#232,#233,#234,#235,#236,#237,#238,
#239),.UNSPECIFIED.,.T.,.F.,(4,2,2,2,2,2,2,2,2,2,2,2,2,2,2,2,2,2,4),(0.,
0.0713076397833936,0.142615279566787,0.19375152303113,0.219319644763301,
0.244887766495472,0.270455887952273,0.296024009409073,0.347160252322674,
0.418467891694646,0.489775531066619,0.550276433375598,0.610777335684576,
0.660803916434186,0.710830497183796,0.760857077627975,0.810883658072155,
0.871384560063855,0.931885462055555),.UNSPECIFIED.);
#16=CYLINDRICAL_SURFACE('',#137,1.2645);
#17=CYLINDRICAL_SURFACE('',#139,1.2645);
#18=CYLINDRICAL_SURFACE('',#140,5.);
#19=CONICAL_SURFACE('',#135,0.63225,1.02974425867665);
#20=FACE_BOUND('',#36,.T.);
#21=FACE_BOUND('',#41,.T.);
#22=FACE_BOUND('',#43,.T.);
#23=CIRCLE('',#134,1.2645);
#24=CIRCLE('',#136,1.2645);
#25=CIRCLE('',#138,1.2645);
#26=CIRCLE('',#141,5.);
#27=FACE_OUTER_BOUND('',#34,.T.);
#28=FACE_OUTER_BOUND('',#35,.T.);
#29=FACE_OUTER_BOUND('',#37,.T.);
#30=FACE_OUTER_BOUND('',#38,.T.);
#31=FACE_OUTER_BOUND('',#39,.T.);
#32=FACE_OUTER_BOUND('',#40,.T.);
#33=FACE_OUTER_BOUND('',#42,.T.);
#34=EDGE_LOOP('',(#79,#80));
#35=EDGE_LOOP('',(#81,#82,#83));
#36=EDGE_LOOP('',(#84));
#37=EDGE_LOOP('',(#85,#86,#87));
#38=EDGE_LOOP('',(#88,#89,#90,#91));
#39=EDGE_LOOP('',(#92,#93,#94,#95));
#40=EDGE_LOOP('',(#96,#97,#98,#99,#100,#101));
#41=EDGE_LOOP('',(#102));
#42=EDGE_LOOP('',(#103));
#43=EDGE_LOOP('',(#104));
#44=LINE('',#183,#49);
#45=LINE('',#194,#50);
#46=LINE('',#198,#51);
#47=LINE('',#201,#52);
#48=LINE('',#242,#53);
#49=VECTOR('',#149,10.);
#50=VECTOR('',#162,0.63225);
#51=VECTOR('',#167,1.2645);
#52=VECTOR('',#170,1.2645);
#53=VECTOR('',#173,5.);
#54=ELLIPSE('',#130,7.07106781186545,5.);
#55=ELLIPSE('',#132,7.0710678118655,5.);
#56=ELLIPSE('',#133,7.0710678118655,5.);
#57=VERTEX_POINT('',#180);
#58=VERTEX_POINT('',#181);
#59=VERTEX_POINT('',#185);
#60=VERTEX_POINT('',#188);
#61=VERTEX_POINT('',#191);
#62=VERTEX_POINT('',#193);
#63=VERTEX_POINT('',#196);
#64=VERTEX_POINT('',#200);
#65=VERTEX_POINT('',#241);
#66=EDGE_CURVE('',#57,#58,#54,.T.);
#67=EDGE_CURVE('',#58,#57,#44,.T.);
#68=EDGE_CURVE('',#59,#57,#55,.T.);
#69=EDGE_CURVE('',#58,#59,#56,.T.);
#70=EDGE_CURVE('',#60,#60,#23,.T.);
#71=EDGE_CURVE('',#61,#61,#24,.T.);
#72=EDGE_CURVE('',#61,#62,#45,.T.);
#73=EDGE_CURVE('',#63,#63,#25,.T.);
#74=EDGE_CURVE('',#63,#61,#46,.T.);
#75=EDGE_CURVE('',#60,#64,#47,.T.);
#76=EDGE_CURVE('',#64,#64,#15,.T.);
#77=EDGE_CURVE('',#59,#65,#48,.T.);
#78=EDGE_CURVE('',#65,#65,#26,.T.);
#79=ORIENTED_EDGE('',*,*,#66,.F.);
#80=ORIENTED_EDGE('',*,*,#67,.F.);
#81=ORIENTED_EDGE('',*,*,#67,.T.);
#82=ORIENTED_EDGE('',*,*,#68,.F.);
#83=ORIENTED_EDGE('',*,*,#69,.F.);
#84=ORIENTED_EDGE('',*,*,#70,.T.);
#85=ORIENTED_EDGE('',*,*,#71,.F.);
#86=ORIENTED_EDGE('',*,*,#72,.T.);
#87=ORIENTED_EDGE('',*,*,#72,.F.);
#88=ORIENTED_EDGE('',*,*,#73,.F.);
#89=ORIENTED_EDGE('',*,*,#74,.T.);
#90=ORIENTED_EDGE('',*,*,#71,.T.);
#91=ORIENTED_EDGE('',*,*,#74,.F.);
#92=ORIENTED_EDGE('',*,*,#70,.F.);
#93=ORIENTED_EDGE('',*,*,#75,.T.);
#94=ORIENTED_EDGE('',*,*,#76,.F.);
#95=ORIENTED_EDGE('',*,*,#75,.F.);
#96=ORIENTED_EDGE('',*,*,#66,.T.);
#97=ORIENTED_EDGE('',*,*,#69,.T.);
#98=ORIENTED_EDGE('',*,*,#77,.T.);
#99=ORIENTED_EDGE('',*,*,#78,.T.);
#100=ORIENTED_EDGE('',*,*,#77,.F.);
#101=ORIENTED_EDGE('',*,*,#68,.T.);
#102=ORIENTED_EDGE('',*,*,#76,.T.);
#103=ORIENTED_EDGE('',*,*,#78,.F.);
#104=ORIENTED_EDGE('',*,*,#73,.T.);
#105=PLANE('',#129);
#106=PLANE('',#131);
#107=PLANE('',#142);
#108=ADVANCED_FACE('',(#27),#105,.F.);
#109=ADVANCED_FACE('',(#28,#20),#106,.F.);
#110=ADVANCED_FACE('',(#29),#19,.F.);
#111=ADVANCED_FACE('',(#30),#16,.F.);
#112=ADVANCED_FACE('',(#31),#17,.F.);
#113=ADVANCED_FACE('',(#32,#21),#18,.T.);
#114=ADVANCED_FACE('',(#33,#22),#107,.F.);
#115=CLOSED_SHELL('',(#108,#109,#110,#111,#112,#113,#114));
#116=DERIVED_UNIT_ELEMENT(#118,1.);
#117=DERIVED_UNIT_ELEMENT(#250,3.);
#118=(
MASS_UNIT()
NAMED_UNIT(*)
SI_UNIT(.KILO.,.GRAM.)
);
#119=DERIVED_UNIT((#116,#117));
#120=MEASURE_REPRESENTATION_ITEM('density measure',
POSITIVE_RATIO_MEASURE(7850.),#119);
#121=PROPERTY_DEFINITION_REPRESENTATION(#126,#123);
#122=PROPERTY_DEFINITION_REPRESENTATION(#127,#124);
#123=REPRESENTATION('material name',(#125),#247);
#124=REPRESENTATION('density',(#120),#247);
#125=DESCRIPTIVE_REPRESENTATION_ITEM('Steel','Steel');
#126=PROPERTY_DEFINITION('material property','material name',#257);
#127=PROPERTY_DEFINITION('material property','density of part',#257);
#128=AXIS2_PLACEMENT_3D('placement',#178,#143,#144);
#129=AXIS2_PLACEMENT_3D('',#179,#145,#146);
#130=AXIS2_PLACEMENT_3D('',#182,#147,#148);
#131=AXIS2_PLACEMENT_3D('',#184,#150,#151);
#132=AXIS2_PLACEMENT_3D('',#186,#152,#153);
#133=AXIS2_PLACEMENT_3D('',#187,#154,#155);
#134=AXIS2_PLACEMENT_3D('',#189,#156,#157);
#135=AXIS2_PLACEMENT_3D('',#190,#158,#159);
#136=AXIS2_PLACEMENT_3D('',#192,#160,#161);
#137=AXIS2_PLACEMENT_3D('',#195,#163,#164);
#138=AXIS2_PLACEMENT_3D('',#197,#165,#166);
#139=AXIS2_PLACEMENT_3D('',#199,#168,#169);
#140=AXIS2_PLACEMENT_3D('',#240,#171,#172);
#141=AXIS2_PLACEMENT_3D('',#243,#174,#175);
#142=AXIS2_PLACEMENT_3D('',#244,#176,#177);
#143=DIRECTION('axis',(0.,0.,1.));
#144=DIRECTION('refdir',(1.,0.,0.));
#145=DIRECTION('center_axis',(1.91486396686005E-15,-0.707106781186548,-0.707106781186548));
#146=DIRECTION('ref_axis',(-1.,-1.29344435422909E-15,-1.41458223780394E-15));
#147=DIRECTION('center_axis',(1.91486396686005E-15,-0.707106781186548,-0.707106781186548));
#148=DIRECTION('ref_axis',(-1.21801723479494E-16,-0.707106781186548,0.707106781186548));
#149=DIRECTION('',(-1.,-1.29344435422909E-15,-1.41458223780394E-15));
#150=DIRECTION('center_axis',(8.5657418934359E-17,0.707106781186547,-0.707106781186548));
#151=DIRECTION('ref_axis',(-8.02478102261406E-17,0.707106781186548,0.707106781186547));
#152=DIRECTION('center_axis',(8.5657418934359E-17,0.707106781186547,-0.707106781186548));
#153=DIRECTION('ref_axis',(1.21801723479495E-16,-0.707106781186548,-0.707106781186547));
#154=DIRECTION('center_axis',(8.5657418934359E-17,0.707106781186547,-0.707106781186548));
#155=DIRECTION('ref_axis',(1.21801723479495E-16,-0.707106781186548,-0.707106781186547));
#156=DIRECTION('center_axis',(8.5657418934359E-17,0.707106781186547,-0.707106781186548));
#157=DIRECTION('ref_axis',(1.,0.,1.21137883574844E-16));
#158=DIRECTION('center_axis',(1.21271933336428E-16,-4.05231403988182E-15,
-1.));
#159=DIRECTION('ref_axis',(-1.,0.,-1.21271933336428E-16));
#160=DIRECTION('center_axis',(-1.21271933336428E-16,4.05231403988182E-15,
1.));
#161=DIRECTION('ref_axis',(-1.,0.,-1.21271933336428E-16));
#162=DIRECTION('',(-0.857167300702112,1.98212330291785E-15,0.515038074910054));
#163=DIRECTION('center_axis',(-1.21271933336428E-16,4.05231403988182E-15,
1.));
#164=DIRECTION('ref_axis',(-1.,0.,-1.21271933336428E-16));
#165=DIRECTION('center_axis',(-1.21271933336428E-16,4.05231403988182E-15,
1.));
#166=DIRECTION('ref_axis',(-1.,0.,-1.21271933336428E-16));
#167=DIRECTION('',(-1.21271933336428E-16,4.05231403988182E-15,1.));
#168=DIRECTION('center_axis',(8.5657418934359E-17,0.707106781186547,-0.707106781186548));
#169=DIRECTION('ref_axis',(1.,0.,1.21137883574844E-16));
#170=DIRECTION('',(8.5657418934359E-17,0.707106781186547,-0.707106781186548));
#171=DIRECTION('center_axis',(-1.72253649265119E-16,4.13408758236285E-15,
1.));
#172=DIRECTION('ref_axis',(-1.,-2.10762878748349E-31,-1.72253649265119E-16));
#173=DIRECTION('',(1.72253649265119E-16,-4.13408758236285E-15,-1.));
#174=DIRECTION('center_axis',(-1.21271933336428E-16,4.05231403988182E-15,
1.));
#175=DIRECTION('ref_axis',(-1.,0.,-1.21271933336428E-16));
#176=DIRECTION('center_axis',(-1.21271933336428E-16,4.05231403988182E-15,
1.));
#177=DIRECTION('ref_axis',(-1.,0.,-1.21271933336428E-16));
#178=CARTESIAN_POINT('',(0.,0.,0.));
#179=CARTESIAN_POINT('Origin',(-90.9099471395204,112.235453804038,77.2566190325386));
#180=CARTESIAN_POINT('',(-99.7894165219227,112.235453804038,77.2566190325386));
#181=CARTESIAN_POINT('',(-90.9099471395204,112.235453804038,77.2566190325386));
#182=CARTESIAN_POINT('Origin',(-95.349681772026,109.935724282448,79.5563485541293));
#183=CARTESIAN_POINT('',(-96.87981447046,112.235453804038,77.2566190325386));
#184=CARTESIAN_POINT('Origin',(-102.849681801399,96.421745305055,61.4429105335552));
#185=CARTESIAN_POINT('',(-90.349681772026,109.935724282448,74.9568895109479));
#186=CARTESIAN_POINT('Origin',(-95.349681772026,109.935724282448,74.9568895109479));
#187=CARTESIAN_POINT('Origin',(-95.349681772026,109.935724282448,74.9568895109479));
#188=CARTESIAN_POINT('',(-96.6141818307215,107.639259726376,72.660424954876));
#189=CARTESIAN_POINT('Origin',(-95.3496818307215,107.639259726376,72.660424954876));
#190=CARTESIAN_POINT('Origin',(-95.349681772026,109.935724282447,11.9448646516983));
#191=CARTESIAN_POINT('',(-94.085181772026,109.935724282447,11.5649705253182));
#192=CARTESIAN_POINT('Origin',(-95.349681772026,109.935724282447,11.5649705253182));
#193=CARTESIAN_POINT('',(-95.349681772026,109.935724282447,12.3247587780785));
#194=CARTESIAN_POINT('',(-94.717431772026,109.935724282447,11.9448646516983));
#195=CARTESIAN_POINT('Origin',(-95.349681772026,109.935724282447,1.56497052531817));
#196=CARTESIAN_POINT('',(-94.085181772026,109.935724282447,-8.43502947468183));
#197=CARTESIAN_POINT('Origin',(-95.349681772026,109.935724282447,-8.43502947468183));
#198=CARTESIAN_POINT('',(-94.085181772026,109.935724282447,1.56497052531817));
#199=CARTESIAN_POINT('Origin',(-95.3496818307215,112.942560585275,67.3571240959769));
#200=CARTESIAN_POINT('',(-96.6141818307215,114.77318638582,65.5264982954322));
#201=CARTESIAN_POINT('',(-96.6141818307215,112.942560585275,67.3571240959769));
#202=CARTESIAN_POINT('Ctrl Pts',(-96.6141818307215,114.77318638582,65.5264982954322));
#203=CARTESIAN_POINT('Ctrl Pts',(-96.6141818307215,114.77318638582,65.2888061628209));
#204=CARTESIAN_POINT('Ctrl Pts',(-96.5794790051213,114.782665234066,65.0319090814899));
#205=CARTESIAN_POINT('Ctrl Pts',(-96.4386782472334,114.816228819668,64.5409547375894));
#206=CARTESIAN_POINT('Ctrl Pts',(-96.3330419148831,114.839956955898,64.3067408998806));
#207=CARTESIAN_POINT('Ctrl Pts',(-96.1029117348479,114.879625178456,63.9720023210061));
#208=CARTESIAN_POINT('Ctrl Pts',(-95.9784784236334,114.898183485298,63.8340922393039));
#209=CARTESIAN_POINT('Ctrl Pts',(-95.7601415067883,114.919384552416,63.6851978449576));
#210=CARTESIAN_POINT('Ctrl Pts',(-95.6820937943433,114.925328810665,63.6449853593848));
#211=CARTESIAN_POINT('Ctrl Pts',(-95.5194759406165,114.933501244056,63.590235104593));
#212=CARTESIAN_POINT('Ctrl Pts',(-95.4349089031621,114.935724281447,63.5756873501838));
#213=CARTESIAN_POINT('Ctrl Pts',(-95.2644547591988,114.935724283448,63.5756873481829));
#214=CARTESIAN_POINT('Ctrl Pts',(-95.179887722198,114.933501248085,63.5902351003232));
#215=CARTESIAN_POINT('Ctrl Pts',(-95.0172698688892,114.925328818601,63.6449853507841));
#216=CARTESIAN_POINT('Ctrl Pts',(-94.9392221564072,114.919384562228,63.6851978342911));
#217=CARTESIAN_POINT('Ctrl Pts',(-94.7208852392565,114.898183500352,63.8340922230631));
#218=CARTESIAN_POINT('Ctrl Pts',(-94.5964519275235,114.879625196481,63.9720023019652));
#219=CARTESIAN_POINT('Ctrl Pts',(-94.3663217461679,114.839956979372,64.3067408766673));
#220=CARTESIAN_POINT('Ctrl Pts',(-94.2606854136755,114.816228845735,64.540954712701));
#221=CARTESIAN_POINT('Ctrl Pts',(-94.1198846559571,114.782665263751,65.0319090535452));
#222=CARTESIAN_POINT('Ctrl Pts',(-94.0851818307215,114.773186416505,65.2888061335066));
#223=CARTESIAN_POINT('Ctrl Pts',(-94.0851818307215,114.773186416505,65.7281679391098));
#224=CARTESIAN_POINT('Ctrl Pts',(-94.110491949323,114.780137047748,65.9473955028182));
#225=CARTESIAN_POINT('Ctrl Pts',(-94.232286349342,114.809670739836,66.3601232577929));
#226=CARTESIAN_POINT('Ctrl Pts',(-94.3293039704774,114.832181420213,66.5534710523367));
#227=CARTESIAN_POINT('Ctrl Pts',(-94.5599308955467,114.874099508423,66.8377086894082));
#228=CARTESIAN_POINT('Ctrl Pts',(-94.6969497405782,114.895405989865,66.9544997396686));
#229=CARTESIAN_POINT('Ctrl Pts',(-95.0084597391158,114.926522730176,67.1116780721598));
#230=CARTESIAN_POINT('Ctrl Pts',(-95.1829265615561,114.935724284405,67.1522334464673));
#231=CARTESIAN_POINT('Ctrl Pts',(-95.5164370988688,114.93572428049,67.1522334503824));
#232=CARTESIAN_POINT('Ctrl Pts',(-95.6909039210882,114.92652272225,67.1116780805893));
#233=CARTESIAN_POINT('Ctrl Pts',(-96.0024139199201,114.895405974556,66.9544997557932));
#234=CARTESIAN_POINT('Ctrl Pts',(-96.1394327654741,114.874099489736,66.8377087086919));
#235=CARTESIAN_POINT('Ctrl Pts',(-96.3700596915848,114.832181395651,66.5534710760222));
#236=CARTESIAN_POINT('Ctrl Pts',(-96.4670773126911,114.809670712791,66.3601232833112));
#237=CARTESIAN_POINT('Ctrl Pts',(-96.5888717123936,114.780137017652,65.9473955313048));
#238=CARTESIAN_POINT('Ctrl Pts',(-96.6141818307215,114.77318638582,65.7281679687379));
#239=CARTESIAN_POINT('Ctrl Pts',(-96.6141818307215,114.77318638582,65.5264982954322));
#240=CARTESIAN_POINT('Origin',(-95.349681772026,109.935724282447,-8.43502947468183));
#241=CARTESIAN_POINT('',(-90.349681772026,109.935724282447,-8.43502947468183));
#242=CARTESIAN_POINT('',(-90.349681772026,109.935724282447,-8.43502947468183));
#243=CARTESIAN_POINT('Origin',(-95.349681772026,109.935724282447,-8.43502947468183));
#244=CARTESIAN_POINT('Origin',(-95.349681772026,109.935724282447,-8.43502947468183));
#245=UNCERTAINTY_MEASURE_WITH_UNIT(LENGTH_MEASURE(0.01),#249,
'DISTANCE_ACCURACY_VALUE',
'Maximum model space distance between geometric entities at asserted c
onnectivities');
#246=UNCERTAINTY_MEASURE_WITH_UNIT(LENGTH_MEASURE(0.01),#249,
'DISTANCE_ACCURACY_VALUE',
'Maximum model space distance between geometric entities at asserted c
onnectivities');
#247=(
GEOMETRIC_REPRESENTATION_CONTEXT(3)
GLOBAL_UNCERTAINTY_ASSIGNED_CONTEXT((#245))
GLOBAL_UNIT_ASSIGNED_CONTEXT((#249,#251,#252))
REPRESENTATION_CONTEXT('','3D')
);
#248=(
GEOMETRIC_REPRESENTATION_CONTEXT(3)
GLOBAL_UNCERTAINTY_ASSIGNED_CONTEXT((#246))
GLOBAL_UNIT_ASSIGNED_CONTEXT((#249,#251,#252))
REPRESENTATION_CONTEXT('','3D')
);
#249=(
LENGTH_UNIT()
NAMED_UNIT(*)
SI_UNIT(.MILLI.,.METRE.)
);
#250=(
LENGTH_UNIT()
NAMED_UNIT(*)
SI_UNIT($,.METRE.)
);
#251=(
NAMED_UNIT(*)
PLANE_ANGLE_UNIT()
SI_UNIT($,.RADIAN.)
);
#252=(
NAMED_UNIT(*)
SI_UNIT($,.STERADIAN.)
SOLID_ANGLE_UNIT()
);
#253=SHAPE_DEFINITION_REPRESENTATION(#254,#255);
#254=PRODUCT_DEFINITION_SHAPE('',$,#257);
#255=SHAPE_REPRESENTATION('',(#128),#247);
#256=PRODUCT_DEFINITION_CONTEXT('part definition',#261,'design');
#257=PRODUCT_DEFINITION('Short Column','Short Column',#258,#256);
#258=PRODUCT_DEFINITION_FORMATION('',$,#263);
#259=PRODUCT_RELATED_PRODUCT_CATEGORY('Short Column','Short Column',(#263));
#260=APPLICATION_PROTOCOL_DEFINITION('international standard',
'automotive_design',2009,#261);
#261=APPLICATION_CONTEXT(
'Core Data for Automotive Mechanical Design Process');
#262=PRODUCT_CONTEXT('part definition',#261,'mechanical');
#263=PRODUCT('Short Column','Short Column',$,(#262));
#264=PRESENTATION_STYLE_ASSIGNMENT((#266));
#265=PRESENTATION_STYLE_ASSIGNMENT((#267));
#266=SURFACE_STYLE_USAGE(.BOTH.,#268);
#267=SURFACE_STYLE_USAGE(.BOTH.,#269);
#268=SURFACE_SIDE_STYLE('',(#270));
#269=SURFACE_SIDE_STYLE('',(#271));
#270=SURFACE_STYLE_FILL_AREA(#272);
#271=SURFACE_STYLE_FILL_AREA(#273);
#272=FILL_AREA_STYLE('Steel - Satin',(#274));
#273=FILL_AREA_STYLE('Aluminum - Satin',(#275));
#274=FILL_AREA_STYLE_COLOUR('Steel - Satin',#276);
#275=FILL_AREA_STYLE_COLOUR('Aluminum - Satin',#277);
#276=COLOUR_RGB('Steel - Satin',0.627450980392157,0.627450980392157,0.627450980392157);
#277=COLOUR_RGB('Aluminum - Satin',0.96078431372549,0.96078431372549,0.964705882352941);
ENDSEC;
END-ISO-10303-21;
