0
SECTION
2
HEADER
9
$INSUNITS
70
4
9
$ACADVER
1
AC1014
9
$HANDSEED
5
FFFF
0
ENDSEC
0
SECTION
2
TABLES
0
TABLE
2
VPORT
5
8
100
AcDbSymbolTable
0
ENDTAB
0
TABLE
2
LTYPE
5
5
100
AcDbSymbolTable
0
LTYPE
5
14
100
AcDbSymbolTableRecord
100
AcDbLinetypeTableRecord
2
BYBLOCK
70
0
0
LTYPE
5
15
100
AcDbSymbolTableRecord
100
AcDbLinetypeTableRecord
2
BYLAYER
70
0
0
ENDTAB
0
TABLE
2
LAYER
5
2
100
AcDbSymbolTable
70
2
0
LAYER
5
50
100
AcDbSymbolTableRecord
100
AcDbLayerTableRecord
2
0
70
0
6
CONTINUOUS
0
ENDTAB
0
TABLE
2
STYLE
5
3
100
AcDbSymbolTable
70
1
0
STYLE
5
11
100
AcDbSymbolTableRecord
100
AcDbTextStyleTableRecord
2
STANDARD
70
0
0
ENDTAB
0
TABLE
2
VIEW
5
6
100
AcDbSymbolTable
70
0
0
ENDTAB
0
TABLE
2
UCS
5
7
100
AcDbSymbolTable
70
0
0
ENDTAB
0
TABLE
2
APPID
5
9
100
AcDbSymbolTable
70
2
0
APPID
5
12
100
AcDbSymbolTableRecord
100
AcDbRegAppTableRecord
2
ACAD
70
0
0
ENDTAB
0
TABLE
2
DIMSTYLE
5
A
100
AcDbSymbolTable
70
1
0
ENDTAB
0
TABLE
2
BLOCK_RECORD
5
1
100
AcDbSymbolTable
70
1
0
BLOCK_RECORD
5
1F
100
AcDbSymbolTableRecord
100
AcDbBlockTableRecord
2
*MODEL_SPACE
0
BLOCK_RECORD
5
1B
100
AcDbSymbolTableRecord
100
AcDbBlockTableRecord
2
*PAPER_SPACE
0
ENDTAB
0
ENDSEC
0
SECTION
2
BLOCKS
0
BLOCK
5
20
100
AcDbEntity
100
AcDbBlockBegin
2
*MODEL_SPACE
0
ENDBLK
5
21
100
AcDbEntity
100
AcDbBlockEnd
0
BLOCK
5
1C
100
AcDbEntity
100
AcDbBlockBegin
2
*PAPER_SPACE
0
ENDBLK
5
1D
100
AcDbEntity
100
AcDbBlockEnd
0
ENDSEC
0
SECTION
2
ENTITIES
0
CIRCLE
5
100
100
AcDbEntity
8
0
100
AcDbCircle
10
-185.99999999999994
20
53
30
0
40
3.1499999999999995
210
0
220
-0
230
1
0
CIRCLE
5
101
100
AcDbEntity
8
0
100
AcDbCircle
10
36
20
-35.999999999999993
30
0
40
3.1499999999999995
210
0
220
-0
230
1
0
CIRCLE
5
102
100
AcDbEntity
8
0
100
AcDbCircle
10
36
20
53
30
0
40
3.1499999999999995
210
0
220
-0
230
1
0
CIRCLE
5
103
100
AcDbEntity
8
0
100
AcDbCircle
10
-185.99999999999994
20
-35.999999999999993
30
0
40
3.1499999999999995
210
0
220
-0
230
1
0
LWPOLYLINE
5
104
100
AcDbEntity
8
0
100
AcDbPolyline
90
8
70
1
43
0.0
10
40
20
-35.5
42
-0.41421356237309442
10
35.500000000000007
20
-39.999999999999993
10
-185.49999999999997
20
-39.999999999999979
42
-0.41421356237309997
10
-189.99999999999997
20
-35.499999999999979
10
-189.99999999999994
20
52.499999999999993
42
-0.41421356237309681
10
-185.49999999999997
20
56.999999999999993
10
35.500000000000007
20
57
42
-0.41421356237309243
10
39.999999999999993
20
52.500000000000007
0
CIRCLE
5
105
100
AcDbEntity
8
0
100
AcDbCircle
10
27.753941161571994
20
-27.753941161571994
30
0
40
1.5000000000000036
210
0
220
-0
230
1
0
CIRCLE
5
106
100
AcDbEntity
8
0
100
AcDbCircle
10
-27.753941161571994
20
-27.753941161571994
30
0
40
1.5000000000000036
210
0
220
-0
230
1
0
CIRCLE
5
107
100
AcDbEntity
8
0
100
AcDbCircle
10
-112.49999999999999
20
46
30
0
40
4.1249999999999964
210
0
220
-0
230
1
0
CIRCLE
5
108
100
AcDbEntity
8
0
100
AcDbCircle
10
-47.246058838427999
20
-27.753941161571994
30
0
40
1.5000000000000036
210
0
220
-0
230
1
0
CIRCLE
5
109
100
AcDbEntity
8
0
100
AcDbCircle
10
-177.75394116157199
20
27.753941161571994
30
0
40
1.4999999999999858
210
0
220
-0
230
1
0
CIRCLE
5
110
100
AcDbEntity
8
0
100
AcDbCircle
10
0
20
0
30
0
40
32
210
0
220
-0
230
1
0
CIRCLE
5
111
100
AcDbEntity
8
0
100
AcDbCircle
10
-122.24605883842798
20
-27.753941161571994
30
0
40
1.5000000000000036
210
0
220
-0
230
1
0
CIRCLE
5
112
100
AcDbEntity
8
0
100
AcDbCircle
10
-122.24605883842798
20
27.753941161571994
30
0
40
1.5000000000000036
210
0
220
-0
230
1
0
CIRCLE
5
113
100
AcDbEntity
8
0
100
AcDbCircle
10
-27.753941161571994
20
27.753941161571994
30
0
40
1.5000000000000036
210
0
220
-0
230
1
0
CIRCLE
5
114
100
AcDbEntity
8
0
100
AcDbCircle
10
27.753941161571994
20
27.753941161571994
30
0
40
1.5000000000000036
210
0
220
-0
230
1
0
CIRCLE
5
115
100
AcDbEntity
8
0
100
AcDbCircle
10
-74.999999999999986
20
0
30
0
40
32
210
0
220
-0
230
1
0
CIRCLE
5
116
100
AcDbEntity
8
0
100
AcDbCircle
10
-47.246058838427999
20
27.753941161571994
30
0
40
1.5000000000000036
210
0
220
-0
230
1
0
CIRCLE
5
117
100
AcDbEntity
8
0
100
AcDbCircle
10
-102.75394116157199
20
-27.753941161571994
30
0
40
1.5000000000000036
210
0
220
-0
230
1
0
CIRCLE
5
118
100
AcDbEntity
8
0
100
AcDbCircle
10
-102.75394116157199
20
27.753941161571994
30
0
40
1.5000000000000036
210
0
220
-0
230
1
0
CIRCLE
5
119
100
AcDbEntity
8
0
100
AcDbCircle
10
-149.99999999999997
20
0
30
0
40
32.000000000000014
210
0
220
-0
230
1
0
CIRCLE
5
120
100
AcDbEntity
8
0
100
AcDbCircle
10
-177.75394116157199
20
-27.753941161571994
30
0
40
1.4999999999999858
210
0
220
-0
230
1
0
CIRCLE
5
121
100
AcDbEntity
8
0
100
AcDbCircle
10
-37.499999999999993
20
46
30
0
40
3.1250000000000044
210
0
220
-0
230
1
0
LWPOLYLINE
5
122
100
AcDbEntity
8
0
100
AcDbPolyline
90
4
70
1
43
0.0
10
-23.000000000000004
20
40.000000000000007
10
23.000000000000004
20
40.000000000000007
10
23.000000000000004
20
52
10
-23.000000000000004
20
52
0
LWPOLYLINE
5
123
100
AcDbEntity
8
0
100
AcDbPolyline
90
4
70
1
43
0.0
10
-98
20
40.000000000000007
10
-51.999999999999993
20
40.000000000000007
10
-51.999999999999993
20
52
10
-98
20
52
0
LWPOLYLINE
5
124
100
AcDbEntity
8
0
100
AcDbPolyline
90
4
70
1
43
0.0
10
-173
20
40.000000000000007
10
-127
20
40.000000000000007
10
-127
20
52
10
-173
20
52
0
LINE
5
125
100
AcDbEntity
8
0
100
AcDbLine
10
9.1666667461395299
20
43.500000238418586
30
0
11
9.1666667461395299
21
48.500000238418586
31
0
0
LINE
5
126
100
AcDbEntity
8
0
100
AcDbLine
10
9.1666667461395299
20
43.500000238418586
30
0
11
7.261904954910281
21
48.500000238418586
31
0
0
LINE
5
127
100
AcDbEntity
8
0
100
AcDbLine
10
5.3571431636810329
20
43.500000238418586
30
0
11
7.261904954910281
21
48.500000238418586
31
0
0
LINE
5
128
100
AcDbEntity
8
0
100
AcDbLine
10
5.3571431636810329
20
43.500000238418586
30
0
11
5.3571431636810329
21
48.500000238418586
31
0
0
LINE
5
129
100
AcDbEntity
8
0
100
AcDbLine
10
2.2619061470031765
20
43.500000238418586
30
0
11
4.166666746139529
21
48.500000238418586
31
0
0
LINE
5
130
100
AcDbEntity
8
0
100
AcDbLine
10
2.2619061470031765
20
43.500000238418586
30
0
11
0.35714435577392845
21
48.500000238418586
31
0
0
LINE
5
131
100
AcDbEntity
8
0
100
AcDbLine
10
3.4523813724517849
20
46.83333337306977
30
0
11
1.0714297294616726
21
46.83333337306977
31
0
0
LINE
5
132
100
AcDbEntity
8
0
100
AcDbLine
10
-4.1666669845581028
20
44.690476357936866
30
0
11
-3.9285726547241184
21
44.214285910129554
31
0
0
LINE
5
133
100
AcDbEntity
8
0
100
AcDbLine
10
-3.9285726547241184
20
44.214285910129554
30
0
11
-3.4523816108703587
21
43.738095462322242
31
0
0
LINE
5
134
100
AcDbEntity
8
0
100
AcDbLine
10
-3.4523816108703587
20
43.738095462322242
30
0
11
-2.9761905670165989
21
43.500000238418586
31
0
0
LINE
5
135
100
AcDbEntity
8
0
100
AcDbLine
10
-2.9761905670165989
20
43.500000238418586
30
0
11
-2.0238084793090794
21
43.500000238418586
31
0
0
LINE
5
136
100
AcDbEntity
8
0
100
AcDbLine
10
-2.0238084793090794
20
43.500000238418586
30
0
11
-1.5476198196411106
21
43.738095462322242
31
0
0
LINE
5
137
100
AcDbEntity
8
0
100
AcDbLine
10
-1.5476198196411106
20
43.738095462322242
30
0
11
-1.0714287757873509
21
44.214285910129554
31
0
0
LINE
5
138
100
AcDbEntity
8
0
100
AcDbLine
10
-1.0714287757873509
20
44.214285910129554
30
0
11
-0.83333444595336648
21
44.690476357936866
31
0
0
LINE
5
139
100
AcDbEntity
8
0
100
AcDbLine
10
-0.83333444595336648
20
44.690476357936866
30
0
11
-0.59523773193359109
21
45.404762029647834
31
0
0
LINE
5
140
100
AcDbEntity
8
0
100
AcDbLine
10
-0.59523773193359109
20
45.404762029647834
30
0
11
-0.59523773193359109
21
46.595238447189338
31
0
0
LINE
5
141
100
AcDbEntity
8
0
100
AcDbLine
10
-0.59523773193359109
20
46.595238447189338
30
0
11
-0.83333444595336648
21
47.309523820877082
31
0
0
LINE
5
142
100
AcDbEntity
8
0
100
AcDbLine
10
-0.83333444595336648
20
47.309523820877082
30
0
11
-1.0714287757873509
21
47.785714268684394
31
0
0
LINE
5
143
100
AcDbEntity
8
0
100
AcDbLine
10
-1.0714287757873509
20
47.785714268684394
30
0
11
-1.5476198196411106
21
48.261904716491706
31
0
0
LINE
5
144
100
AcDbEntity
8
0
100
AcDbLine
10
-1.5476198196411106
20
48.261904716491706
30
0
11
-2.0238084793090794
21
48.500000238418586
31
0
0
LINE
5
145
100
AcDbEntity
8
0
100
AcDbLine
10
-2.0238084793090794
20
48.500000238418586
30
0
11
-2.9761905670165989
21
48.500000238418586
31
0
0
LINE
5
146
100
AcDbEntity
8
0
100
AcDbLine
10
-2.9761905670165989
20
48.500000238418586
30
0
11
-3.4523816108703587
21
48.261904716491706
31
0
0
LINE
5
147
100
AcDbEntity
8
0
100
AcDbLine
10
-3.4523816108703587
20
48.261904716491706
30
0
11
-3.9285726547241184
21
47.785714268684394
31
0
0
LINE
5
148
100
AcDbEntity
8
0
100
AcDbLine
10
-3.9285726547241184
20
47.785714268684394
30
0
11
-4.1666669845581028
21
47.309523820877082
31
0
0
LINE
5
149
100
AcDbEntity
8
0
100
AcDbLine
10
-5.8333344459533665
20
43.500000238418586
30
0
11
-5.8333344459533665
21
48.500000238418586
31
0
0
LINE
5
150
100
AcDbEntity
8
0
100
AcDbLine
10
-9.1666669845581019
20
43.500000238418586
30
0
11
-9.1666669845581019
21
48.500000238418586
31
0
0
LINE
5
151
100
AcDbEntity
8
0
100
AcDbLine
10
-5.8333344459533665
20
45.880952477455146
30
0
11
-9.1666669845581019
21
45.880952477455146
31
0
0
LINE
5
152
100
AcDbEntity
8
0
100
AcDbLine
10
-65.476189374923706
20
43.500000238418586
30
0
11
-65.476189374923706
21
48.500000238418586
31
0
0
LINE
5
153
100
AcDbEntity
8
0
100
AcDbLine
10
-65.476189374923706
20
43.500000238418586
30
0
11
-67.619046688079834
21
43.500000238418586
31
0
0
LINE
5
154
100
AcDbEntity
8
0
100
AcDbLine
10
-67.619046688079834
20
43.500000238418586
30
0
11
-68.333332061767578
21
43.738095462322242
31
0
0
LINE
5
155
100
AcDbEntity
8
0
100
AcDbLine
10
-68.333332061767578
20
43.738095462322242
30
0
11
-68.571427583694458
21
43.976190686225898
31
0
0
LINE
5
156
100
AcDbEntity
8
0
100
AcDbLine
10
-68.571427583694458
20
43.976190686225898
30
0
11
-68.809523105621338
21
44.45238113403321
31
0
0
LINE
5
157
100
AcDbEntity
8
0
100
AcDbLine
10
-68.809523105621338
20
44.45238113403321
30
0
11
-68.809523105621338
21
45.166666507720954
31
0
0
LINE
5
158
100
AcDbEntity
8
0
100
AcDbLine
10
-68.809523105621338
20
45.166666507720954
30
0
11
-68.571427583694458
21
45.642857551574714
31
0
0
LINE
5
159
100
AcDbEntity
8
0
100
AcDbLine
10
-68.571427583694458
20
45.642857551574714
30
0
11
-68.333332061767578
21
45.880952477455146
31
0
0
LINE
5
160
100
AcDbEntity
8
0
100
AcDbLine
10
-68.333332061767578
20
45.880952477455146
30
0
11
-67.619046688079834
21
46.119047999382026
31
0
0
LINE
5
161
100
AcDbEntity
8
0
100
AcDbLine
10
-67.619046688079834
20
46.119047999382026
30
0
11
-65.476189374923706
21
46.119047999382026
31
0
0
LINE
5
162
100
AcDbEntity
8
0
100
AcDbLine
10
-70.476189374923706
20
43.500000238418586
30
0
11
-70.476189374923706
21
48.500000238418586
31
0
0
LINE
5
163
100
AcDbEntity
8
0
100
AcDbLine
10
-73.333332061767578
20
43.500000238418586
30
0
11
-73.333332061767578
21
48.500000238418586
31
0
0
LINE
5
164
100
AcDbEntity
8
0
100
AcDbLine
10
-71.66666579246521
20
43.500000238418586
30
0
11
-74.999999523162842
21
43.500000238418586
31
0
0
LINE
5
165
100
AcDbEntity
8
0
100
AcDbLine
10
-79.523808479309082
20
44.690476357936866
30
0
11
-79.285714149475098
21
44.214285910129554
31
0
0
LINE
5
166
100
AcDbEntity
8
0
100
AcDbLine
10
-79.285714149475098
20
44.214285910129554
30
0
11
-78.809523105621338
21
43.738095462322242
31
0
0
LINE
5
167
100
AcDbEntity
8
0
100
AcDbLine
10
-78.809523105621338
20
43.738095462322242
30
0
11
-78.333332061767578
21
43.500000238418586
31
0
0
LINE
5
168
100
AcDbEntity
8
0
100
AcDbLine
10
-78.333332061767578
20
43.500000238418586
30
0
11
-77.380949974060059
21
43.500000238418586
31
0
0
LINE
5
169
100
AcDbEntity
8
0
100
AcDbLine
10
-77.380949974060059
20
43.500000238418586
30
0
11
-76.90476131439209
21
43.738095462322242
31
0
0
LINE
5
170
100
AcDbEntity
8
0
100
AcDbLine
10
-76.90476131439209
20
43.738095462322242
30
0
11
-76.42857027053833
21
44.214285910129554
31
0
0
LINE
5
171
100
AcDbEntity
8
0
100
AcDbLine
10
-76.42857027053833
20
44.214285910129554
30
0
11
-76.190475940704346
21
44.690476357936866
31
0
0
LINE
5
172
100
AcDbEntity
8
0
100
AcDbLine
10
-76.190475940704346
20
44.690476357936866
30
0
11
-75.95237922668457
21
45.404762029647834
31
0
0
LINE
5
173
100
AcDbEntity
8
0
100
AcDbLine
10
-75.95237922668457
20
45.404762029647834
30
0
11
-75.95237922668457
21
46.595238447189338
31
0
0
LINE
5
174
100
AcDbEntity
8
0
100
AcDbLine
10
-75.95237922668457
20
46.595238447189338
30
0
11
-76.190475940704346
21
47.309523820877082
31
0
0
LINE
5
175
100
AcDbEntity
8
0
100
AcDbLine
10
-76.190475940704346
20
47.309523820877082
30
0
11
-76.42857027053833
21
47.785714268684394
31
0
0
LINE
5
176
100
AcDbEntity
8
0
100
AcDbLine
10
-76.42857027053833
20
47.785714268684394
30
0
11
-76.90476131439209
21
48.261904716491706
31
0
0
LINE
5
177
100
AcDbEntity
8
0
100
AcDbLine
10
-76.90476131439209
20
48.261904716491706
30
0
11
-77.380949974060059
21
48.500000238418586
31
0
0
LINE
5
178
100
AcDbEntity
8
0
100
AcDbLine
10
-77.380949974060059
20
48.500000238418586
30
0
11
-78.333332061767578
21
48.500000238418586
31
0
0
LINE
5
179
100
AcDbEntity
8
0
100
AcDbLine
10
-78.333332061767578
20
48.500000238418586
30
0
11
-78.809523105621338
21
48.261904716491706
31
0
0
LINE
5
180
100
AcDbEntity
8
0
100
AcDbLine
10
-78.809523105621338
20
48.261904716491706
30
0
11
-79.285714149475098
21
47.785714268684394
31
0
0
LINE
5
181
100
AcDbEntity
8
0
100
AcDbLine
10
-79.285714149475098
20
47.785714268684394
30
0
11
-79.523808479309082
21
47.309523820877082
31
0
0
LINE
5
182
100
AcDbEntity
8
0
100
AcDbLine
10
-81.190475940704346
20
43.500000238418586
30
0
11
-81.190475940704346
21
48.500000238418586
31
0
0
LINE
5
183
100
AcDbEntity
8
0
100
AcDbLine
10
-84.523808479309082
20
43.500000238418586
30
0
11
-84.523808479309082
21
48.500000238418586
31
0
0
LINE
5
184
100
AcDbEntity
8
0
100
AcDbLine
10
-81.190475940704346
20
45.880952477455146
30
0
11
-84.523808479309082
21
45.880952477455146
31
0
0
LINE
5
185
100
AcDbEntity
8
0
100
AcDbLine
10
-135.35714221000671
20
43.500000238418586
30
0
11
-135.35714221000671
21
48.500000238418586
31
0
0
LINE
5
186
100
AcDbEntity
8
0
100
AcDbLine
10
-138.69047594070435
20
43.500000238418586
30
0
11
-138.69047594070435
21
48.500000238418586
31
0
0
LINE
5
187
100
AcDbEntity
8
0
100
AcDbLine
10
-135.35714221000671
20
45.880952477455146
30
0
11
-138.69047594070435
21
45.880952477455146
31
0
0
LINE
5
188
100
AcDbEntity
8
0
100
AcDbLine
10
-140.59523773193359
20
43.500000238418586
30
0
11
-140.59523773193359
21
48.500000238418586
31
0
0
LINE
5
189
100
AcDbEntity
8
0
100
AcDbLine
10
-140.59523773193359
20
43.500000238418586
30
0
11
-143.69047594070435
21
43.500000238418586
31
0
0
LINE
5
190
100
AcDbEntity
8
0
100
AcDbLine
10
-140.59523773193359
20
45.880952477455146
30
0
11
-142.49999952316284
21
45.880952477455146
31
0
0
LINE
5
191
100
AcDbEntity
8
0
100
AcDbLine
10
-140.59523773193359
20
48.500000238418586
30
0
11
-143.69047594070435
21
48.500000238418586
31
0
0
LINE
5
192
100
AcDbEntity
8
0
100
AcDbLine
10
-146.30952429771423
20
43.500000238418586
30
0
11
-144.40476250648499
21
48.500000238418586
31
0
0
LINE
5
193
100
AcDbEntity
8
0
100
AcDbLine
10
-146.30952429771423
20
43.500000238418586
30
0
11
-148.21428489685059
21
48.500000238418586
31
0
0
LINE
5
194
100
AcDbEntity
8
0
100
AcDbLine
10
-145.11904788017273
20
46.83333337306977
30
0
11
-147.49999952316284
21
46.83333337306977
31
0
0
LWPOLYLINE
5
195
100
AcDbEntity
8
0
100
AcDbPolyline
90
12
70
1
43
0.0
10
-149.40476131439209
20
48.500000238418586
10
-149.40476131439209
20
43.500000238418586
10
-151.07142639160156
20
43.500000238418586
10
-151.78571176528931
20
43.738095462322242
10
-152.26190280914307
20
44.214285910129554
10
-152.49999713897705
20
44.690476357936866
10
-152.73809385299683
20
45.404762029647834
10
-152.73809385299683
20
46.595238447189338
10
-152.49999713897705
20
47.309523820877082
10
-152.26190280914307
20
47.785714268684394
10
-151.78571176528931
20
48.261904716491706
10
-151.07142639160156
20
48.500000238418586
0
LINE
5
196
100
AcDbEntity
8
0
100
AcDbLine
10
-154.40476131439209
20
43.500000238418586
30
0
11
-154.40476131439209
21
48.500000238418586
31
0
0
LINE
5
197
100
AcDbEntity
8
0
100
AcDbLine
10
-156.30952548980713
20
43.500000238418586
30
0
11
-156.30952548980713
21
48.500000238418586
31
0
0
LINE
5
198
100
AcDbEntity
8
0
100
AcDbLine
10
-156.30952548980713
20
43.500000238418586
30
0
11
-159.64285802841187
21
48.500000238418586
31
0
0
LINE
5
199
100
AcDbEntity
8
0
100
AcDbLine
10
-159.64285802841187
20
43.500000238418586
30
0
11
-159.64285802841187
21
48.500000238418586
31
0
0
LINE
5
200
100
AcDbEntity
8
0
100
AcDbLine
10
-164.88095235824585
20
44.690476357936866
30
0
11
-164.64285564422607
21
44.214285910129554
31
0
0
LINE
5
201
100
AcDbEntity
8
0
100
AcDbLine
10
-164.64285564422607
20
44.214285910129554
30
0
11
-164.16666698455811
21
43.738095462322242
31
0
0
LINE
5
202
100
AcDbEntity
8
0
100
AcDbLine
10
-164.16666698455811
20
43.738095462322242
30
0
11
-163.69047594070435
21
43.500000238418586
31
0
0
LINE
5
203
100
AcDbEntity
8
0
100
AcDbLine
10
-163.69047594070435
20
43.500000238418586
30
0
11
-162.73809385299683
21
43.500000238418586
31
0
0
LINE
5
204
100
AcDbEntity
8
0
100
AcDbLine
10
-162.73809385299683
20
43.500000238418586
30
0
11
-162.26190519332886
21
43.738095462322242
31
0
0
LINE
5
205
100
AcDbEntity
8
0
100
AcDbLine
10
-162.26190519332886
20
43.738095462322242
30
0
11
-161.7857141494751
21
44.214285910129554
31
0
0
LINE
5
206
100
AcDbEntity
8
0
100
AcDbLine
10
-161.7857141494751
20
44.214285910129554
30
0
11
-161.54761981964111
21
44.690476357936866
31
0
0
LINE
5
207
100
AcDbEntity
8
0
100
AcDbLine
10
-161.54761981964111
20
44.690476357936866
30
0
11
-161.30952310562134
21
45.404762029647834
31
0
0
LINE
5
208
100
AcDbEntity
8
0
100
AcDbLine
10
-161.30952310562134
20
45.404762029647834
30
0
11
-161.30952310562134
21
46.595238447189338
31
0
0
LINE
5
209
100
AcDbEntity
8
0
100
AcDbLine
10
-161.30952310562134
20
46.595238447189338
30
0
11
-161.54761981964111
21
47.309523820877082
31
0
0
LINE
5
210
100
AcDbEntity
8
0
100
AcDbLine
10
-161.54761981964111
20
47.309523820877082
30
0
11
-161.7857141494751
21
47.785714268684394
31
0
0
LINE
5
211
100
AcDbEntity
8
0
100
AcDbLine
10
-161.7857141494751
20
47.785714268684394
30
0
11
-162.26190519332886
21
48.261904716491706
31
0
0
LINE
5
212
100
AcDbEntity
8
0
100
AcDbLine
10
-162.26190519332886
20
48.261904716491706
30
0
11
-162.73809385299683
21
48.500000238418586
31
0
0
LINE
5
213
100
AcDbEntity
8
0
100
AcDbLine
10
-162.73809385299683
20
48.500000238418586
30
0
11
-163.69047594070435
21
48.500000238418586
31
0
0
LINE
5
214
100
AcDbEntity
8
0
100
AcDbLine
10
-163.69047594070435
20
48.500000238418586
30
0
11
-164.16666698455811
21
48.261904716491706
31
0
0
LINE
5
215
100
AcDbEntity
8
0
100
AcDbLine
10
-164.16666698455811
20
48.261904716491706
30
0
11
-164.64285564422607
21
47.785714268684394
31
0
0
LINE
5
216
100
AcDbEntity
8
0
100
AcDbLine
10
-164.64285564422607
20
47.785714268684394
30
0
11
-164.88095235824585
21
47.309523820877082
31
0
0
LINE
5
217
100
AcDbEntity
8
0
100
AcDbLine
10
-164.88095235824585
20
47.309523820877082
30
0
11
-164.88095235824585
21
46.595238447189338
31
0
0
LINE
5
218
100
AcDbEntity
8
0
100
AcDbLine
10
-163.69047594070435
20
46.595238447189338
30
0
11
-164.88095235824585
21
46.595238447189338
31
0
0
ENDSEC
0
SECTION
2
OBJECTS
0
DICTIONARY
5
C
100
AcDbDictionary
3
ACAD_GROUP
350
D
3
ACAD_MLINESTYLE
350
17
0
DICTIONARY
5
D
100
AcDbDictionary
0
DICTIONARY
5
1A
330
C
100
AcDbDictionary
0
DICTIONARY
5
17
100
AcDbDictionary
0
ENDSEC
0
EOF
