0
SECTION
2
HEADER
9
$INSUNITS
70
4
9
$ACADVER
1
AC1014
9
$HANDSEED
5
FFFF
0
ENDSEC
0
SECTION
2
TABLES
0
TABLE
2
VPORT
5
8
100
AcDbSymbolTable
0
ENDTAB
0
TABLE
2
LTYPE
5
5
100
AcDbSymbolTable
0
LTYPE
5
14
100
AcDbSymbolTableRecord
100
AcDbLinetypeTableRecord
2
BYBLOCK
70
0
0
LTYPE
5
15
100
AcDbSymbolTableRecord
100
AcDbLinetypeTableRecord
2
BYLAYER
70
0
0
ENDTAB
0
TABLE
2
LAYER
5
2
100
AcDbSymbolTable
70
2
0
LAYER
5
50
100
AcDbSymbolTableRecord
100
AcDbLayerTableRecord
2
0
70
0
6
CONTINUOUS
0
ENDTAB
0
TABLE
2
STYLE
5
3
100
AcDbSymbolTable
70
1
0
STYLE
5
11
100
AcDbSymbolTableRecord
100
AcDbTextStyleTableRecord
2
STANDARD
70
0
0
ENDTAB
0
TABLE
2
VIEW
5
6
100
AcDbSymbolTable
70
0
0
ENDTAB
0
TABLE
2
UCS
5
7
100
AcDbSymbolTable
70
0
0
ENDTAB
0
TABLE
2
APPID
5
9
100
AcDbSymbolTable
70
2
0
APPID
5
12
100
AcDbSymbolTableRecord
100
AcDbRegAppTableRecord
2
ACAD
70
0
0
ENDTAB
0
TABLE
2
DIMSTYLE
5
A
100
AcDbSymbolTable
70
1
0
ENDTAB
0
TABLE
2
BLOCK_RECORD
5
1
100
AcDbSymbolTable
70
1
0
BLOCK_RECORD
5
1F
100
AcDbSymbolTableRecord
100
AcDbBlockTableRecord
2
*MODEL_SPACE
0
BLOCK_RECORD
5
1B
100
AcDbSymbolTableRecord
100
AcDbBlockTableRecord
2
*PAPER_SPACE
0
ENDTAB
0
ENDSEC
0
SECTION
2
BLOCKS
0
BLOCK
5
20
100
AcDbEntity
100
AcDbBlockBegin
2
*MODEL_SPACE
0
ENDBLK
5
21
100
AcDbEntity
100
AcDbBlockEnd
0
BLOCK
5
1C
100
AcDbEntity
100
AcDbBlockBegin
2
*PAPER_SPACE
0
ENDBLK
5
1D
100
AcDbEntity
100
AcDbBlockEnd
0
ENDSEC
0
SECTION
2
ENTITIES
0
CIRCLE
5
100
100
AcDbEntity
8
0
100
AcDbCircle
10
-67.999999999999986
20
-16
30
0
40
3.1499999999999995
210
0
220
-0
230
1
0
CIRCLE
5
101
100
AcDbEntity
8
0
100
AcDbCircle
10
16
20
73.000000000000014
30
0
40
3.1499999999999995
210
0
220
-0
230
1
0
CIRCLE
5
102
100
AcDbEntity
8
0
100
AcDbCircle
10
16
20
-16
30
0
40
3.1499999999999995
210
0
220
-0
230
1
0
CIRCLE
5
103
100
AcDbEntity
8
0
100
AcDbCircle
10
-67.999999999999986
20
73.000000000000014
30
0
40
3.1499999999999995
210
0
220
-0
230
1
0
CIRCLE
5
104
100
AcDbEntity
8
0
100
AcDbCircle
10
-25.999999999999996
20
36.750000000000021
30
0
40
6.0000000000000009
210
0
220
-0
230
1
0
CIRCLE
5
105
100
AcDbEntity
8
0
100
AcDbCircle
10
-25.999999999999996
20
67.250000000000014
30
0
40
4.1249999999999964
210
0
220
-0
230
1
0
CIRCLE
5
106
100
AcDbEntity
8
0
100
AcDbCircle
10
1.2490009027033011e-15
20
36.750000000000021
30
0
40
6.0000000000000009
210
0
220
-0
230
1
0
CIRCLE
5
107
100
AcDbEntity
8
0
100
AcDbCircle
10
0
20
67.250000000000014
30
0
40
4.1249999999999982
210
0
220
-0
230
1
0
CIRCLE
5
108
100
AcDbEntity
8
0
100
AcDbCircle
10
0
20
0
30
0
40
3.5
210
0
220
-0
230
1
0
CIRCLE
5
109
100
AcDbEntity
8
0
100
AcDbCircle
10
-51.999999999999993
20
36.750000000000021
30
0
40
5.9999999999999964
210
0
220
-0
230
1
0
CIRCLE
5
110
100
AcDbEntity
8
0
100
AcDbCircle
10
-51.999999999999993
20
67.250000000000014
30
0
40
4.1249999999999964
210
0
220
-0
230
1
0
CIRCLE
5
111
100
AcDbEntity
8
0
100
AcDbCircle
10
-46
20
0
30
0
40
3.499999999999996
210
0
220
-0
230
1
0
LWPOLYLINE
5
112
100
AcDbEntity
8
0
100
AcDbPolyline
90
8
70
1
43
0.0
10
-67.999999999999986
20
-20.000000000000004
42
-0.41421356237309503
10
-72
20
-15.999999999999996
10
-71.999999999999986
20
73
42
-0.4142135623730957
10
-67.999999999999986
20
77.000000000000014
10
16.000000000000014
20
77.000000000000014
42
-0.4142135623730947
10
20
20
73
10
20
20
-15.999999999999996
42
-0.4142135623730957
10
15.999999999999996
20
-20
0
LINE
5
113
100
AcDbEntity
8
0
100
AcDbLine
10
6.216851792534702
20
53.311275019276707
30
0
11
6.2674519049949886
21
58.311018975582769
31
0
0
LINE
5
114
100
AcDbEntity
8
0
100
AcDbLine
10
7.8834331609713839
20
53.294408314620611
30
0
11
4.550270424098021
21
53.328141723932802
31
0
0
LINE
5
115
100
AcDbEntity
8
0
100
AcDbLine
10
3.3598552673603779
20
53.340189369038583
30
0
11
3.4104553798206645
21
58.339933325344646
31
0
0
LINE
5
116
100
AcDbEntity
8
0
100
AcDbLine
10
3.3598552673603779
20
53.340189369038583
30
0
11
1.2171079852326203
21
53.361875130228988
31
0
0
LINE
5
117
100
AcDbEntity
8
0
100
AcDbLine
10
1.2171079852326203
20
53.361875130228988
30
0
11
0.5052681222032287
21
53.607186751655988
31
0
0
LINE
5
118
100
AcDbEntity
8
0
100
AcDbLine
10
0.5052681222032287
20
53.607186751655988
30
0
11
0.26959491788481882
21
53.847679309008669
31
0
0
LINE
5
119
100
AcDbEntity
8
0
100
AcDbLine
10
0.26959491788481882
20
53.847679309008669
30
0
11
0.03633064657164068
21
54.326254903740875
31
0
0
LINE
5
120
100
AcDbEntity
8
0
100
AcDbLine
10
0.03633064657164068
20
54.326254903740875
30
0
11
0.041149704613953494
21
54.802420966435932
31
0
0
LINE
5
121
100
AcDbEntity
8
0
100
AcDbLine
10
0.041149704613953494
20
54.802420966435932
30
0
11
0.28405209201175696
21
55.27617749709384
31
0
0
LINE
5
122
100
AcDbEntity
8
0
100
AcDbLine
10
0.28405209201175696
20
55.27617749709384
30
0
11
0.5245443573884816
21
55.511851300444171
31
0
0
LINE
5
123
100
AcDbEntity
8
0
100
AcDbLine
10
0.5245443573884816
20
55.511851300444171
30
0
11
1.2412032754441842
21
55.742705443704274
31
0
0
LINE
5
124
100
AcDbEntity
8
0
100
AcDbLine
10
1.2412032754441842
20
55.742705443704274
30
0
11
3.383950557571942
21
55.721019682513869
31
0
0
LINE
5
125
100
AcDbEntity
8
0
100
AcDbLine
10
1.7173687421233164
20
55.737886391693962
30
0
11
0.077292642947301149
21
58.373666734656823
31
0
0
LINE
5
126
100
AcDbEntity
8
0
100
AcDbLine
10
-1.6398883909377227
20
53.390789478482858
30
0
11
-1.589288278477436
21
58.390533434788921
31
0
0
LINE
5
127
100
AcDbEntity
8
0
100
AcDbLine
10
-3.5445526417179507
20
53.410065710652106
30
0
11
-3.4939525292576641
21
58.409809666958168
31
0
0
LINE
5
128
100
AcDbEntity
8
0
100
AcDbLine
10
-3.5445526417179507
20
53.410065710652106
30
0
11
-5.3986167800378926
21
58.429085899127415
31
0
0
LINE
5
129
100
AcDbEntity
8
0
100
AcDbLine
10
-7.353881143278409
20
53.4486181749906
30
0
11
-5.3986167800378926
21
58.429085899127415
31
0
0
LINE
5
130
100
AcDbEntity
8
0
100
AcDbLine
10
-7.353881143278409
20
53.4486181749906
30
0
11
-7.3032810308181233
21
58.448362131296669
31
0
0
LINE
5
131
100
AcDbEntity
8
0
100
AcDbLine
10
-19.122722096417423
20
53.354238364481247
30
0
11
-19.107679573120542
21
58.354215736679329
31
0
0
LINE
5
132
100
AcDbEntity
8
0
100
AcDbLine
10
-19.122722096417423
20
53.354238364481247
30
0
11
-21.265569711943392
21
53.360685160692256
31
0
0
LINE
5
133
100
AcDbEntity
8
0
100
AcDbLine
10
-21.265569711943392
20
53.360685160692256
30
0
11
-21.979135840520932
21
53.600928238853065
31
0
0
LINE
5
134
100
AcDbEntity
8
0
100
AcDbLine
10
-21.979135840520932
20
53.600928238853065
30
0
11
-22.216513676319781
21
53.839738695832899
31
0
0
LINE
5
135
100
AcDbEntity
8
0
100
AcDbLine
10
-22.216513676319781
20
53.839738695832899
30
0
11
-22.453175201528147
21
54.31664329920207
31
0
0
LINE
5
136
100
AcDbEntity
8
0
100
AcDbLine
10
-22.453175201528147
20
54.31664329920207
30
0
11
-22.451026270653283
21
55.030925440348241
31
0
0
LINE
5
137
100
AcDbEntity
8
0
100
AcDbLine
10
-22.451026270653283
20
55.030925440348241
30
0
11
-22.211499501289751
21
55.506398018580178
31
0
0
LINE
5
138
100
AcDbEntity
8
0
100
AcDbLine
10
-22.211499501289751
20
55.506398018580178
30
0
11
-21.972689045206522
21
55.74377555635715
31
0
0
LINE
5
139
100
AcDbEntity
8
0
100
AcDbLine
10
-21.972689045206522
20
55.74377555635715
30
0
11
-21.257690294551402
21
55.979721068996902
31
0
0
LINE
5
140
100
AcDbEntity
8
0
100
AcDbLine
10
-21.257690294551402
20
55.979721068996902
30
0
11
-19.114842679025436
21
55.973274272785893
31
0
0
LINE
5
141
100
AcDbEntity
8
0
100
AcDbLine
10
-23.646511175836821
20
53.36784826659715
30
0
11
-24.821939682508535
21
58.371407192644284
31
0
0
LINE
5
142
100
AcDbEntity
8
0
100
AcDbLine
10
-26.027452639730253
20
53.375011372502044
30
0
11
-24.821939682508535
21
58.371407192644284
31
0
0
LINE
5
143
100
AcDbEntity
8
0
100
AcDbLine
10
-26.027452639730253
20
53.375011372502044
30
0
11
-27.202881146401964
21
58.378570298549178
31
0
0
LINE
5
144
100
AcDbEntity
8
0
100
AcDbLine
10
-28.408394699667436
20
53.382174480200142
30
0
11
-27.202881146401964
21
58.378570298549178
31
0
0
LINE
5
145
100
AcDbEntity
8
0
100
AcDbLine
10
-29.836958981959746
20
53.386472341949876
30
0
11
-29.821916458662866
21
58.386449714147957
31
0
0
LINE
5
146
100
AcDbEntity
8
0
100
AcDbLine
10
-29.836958981959746
20
53.386472341949876
30
0
11
-31.979806597485705
21
53.392919138160892
31
0
0
LINE
5
147
100
AcDbEntity
8
0
100
AcDbLine
10
-31.979806597485705
20
53.392919138160892
30
0
11
-32.693372428041378
21
53.633162215425088
31
0
0
LINE
5
148
100
AcDbEntity
8
0
100
AcDbLine
10
-32.693372428041378
20
53.633162215425088
30
0
11
-32.930750561862105
21
53.871972673301521
31
0
0
LINE
5
149
100
AcDbEntity
8
0
100
AcDbLine
10
-32.930750561862105
20
53.871972673301521
30
0
11
-33.167412385092341
21
54.348877277567311
31
0
0
LINE
5
150
100
AcDbEntity
8
0
100
AcDbLine
10
-33.167412385092341
20
54.348877277567311
30
0
11
-33.165979763911366
21
54.825065570345998
31
0
0
LINE
5
151
100
AcDbEntity
8
0
100
AcDbLine
10
-33.165979763911366
20
54.825065570345998
30
0
11
-32.926452698319167
21
55.300537551637589
31
0
0
LINE
5
152
100
AcDbEntity
8
0
100
AcDbLine
10
-32.926452698319167
20
55.300537551637589
30
0
11
-32.687641942420861
21
55.53791568456171
31
0
0
LINE
5
153
100
AcDbEntity
8
0
100
AcDbLine
10
-32.687641942420861
20
55.53791568456171
30
0
11
-31.972643491580818
21
55.773860602054313
31
0
0
LINE
5
154
100
AcDbEntity
8
0
100
AcDbLine
10
-31.972643491580818
20
55.773860602054313
30
0
11
-29.829795876054852
21
55.767413805843304
31
0
0
LINE
5
155
100
AcDbEntity
8
0
100
AcDbLine
10
-31.496454602758384
20
55.772427979080128
30
0
11
-33.155235104157427
21
58.396478064208011
31
0
0
LINE
5
156
100
AcDbEntity
8
0
100
AcDbLine
10
-46.183665435260188
20
53.36414371366827
30
0
11
-46.174356773444885
21
58.364135048542281
31
0
0
LINE
5
157
100
AcDbEntity
8
0
100
AcDbLine
10
-46.183665435260188
20
53.36414371366827
30
0
11
-48.3265190347906
21
53.368133140477589
31
0
0
LINE
5
158
100
AcDbEntity
8
0
100
AcDbLine
10
-48.3265190347906
20
53.368133140477589
30
0
11
-49.040360497065365
21
53.607557761062566
31
0
0
LINE
5
159
100
AcDbEntity
8
0
100
AcDbLine
10
-49.040360497065365
20
53.607557761062566
30
0
11
-49.278011740737462
21
53.846095841370179
31
0
0
LINE
5
160
100
AcDbEntity
8
0
100
AcDbLine
10
-49.278011740737462
20
53.846095841370179
30
0
11
-49.515219714825719
21
54.322728732956449
31
0
0
LINE
5
161
100
AcDbEntity
8
0
100
AcDbLine
10
-49.515219714825719
20
54.322728732956449
30
0
11
-49.514333175658074
21
54.798918355513713
31
0
0
LINE
5
162
100
AcDbEntity
8
0
100
AcDbLine
10
-49.514333175658074
20
54.798918355513713
30
0
11
-49.275352123234477
21
55.274664709041986
31
0
0
LINE
5
163
100
AcDbEntity
8
0
100
AcDbLine
10
-49.275352123234477
20
55.274664709041986
30
0
11
-49.036814339839879
21
55.512316549314342
31
0
0
LINE
5
164
100
AcDbEntity
8
0
100
AcDbLine
10
-49.036814339839879
20
55.512316549314342
30
0
11
-48.322086338952282
21
55.749081253263924
31
0
0
LINE
5
165
100
AcDbEntity
8
0
100
AcDbLine
10
-48.322086338952282
20
55.749081253263924
30
0
11
-46.179232739421863
21
55.745091826454605
31
0
0
LINE
5
166
100
AcDbEntity
8
0
100
AcDbLine
10
-47.845896716395011
20
55.748194714096265
30
0
11
-49.507684131345748
21
58.370340822715924
31
0
0
LINE
5
167
100
AcDbEntity
8
0
100
AcDbLine
10
-54.277560402073064
20
54.093499315573801
30
0
11
-53.802256722638049
21
53.616423152739195
31
0
0
LINE
5
168
100
AcDbEntity
8
0
100
AcDbLine
10
-53.802256722638049
20
53.616423152739195
30
0
11
-53.088415856408673
21
53.376998533263908
31
0
0
LINE
5
169
100
AcDbEntity
8
0
100
AcDbLine
10
-53.088415856408673
20
53.376998533263908
30
0
11
-52.136036015248735
21
53.375225453818899
31
0
0
LINE
5
170
100
AcDbEntity
8
0
100
AcDbLine
10
-52.136036015248735
20
53.375225453818899
30
0
11
-51.421308609851707
21
53.61199045690087
31
0
0
LINE
5
171
100
AcDbEntity
8
0
100
AcDbLine
10
-51.421308609851707
20
53.61199045690087
30
0
11
-50.944232448126776
21
54.087293540290482
31
0
0
LINE
5
172
100
AcDbEntity
8
0
100
AcDbLine
10
-50.944232448126776
20
54.087293540290482
30
0
11
-50.943345908404268
21
54.563483460870458
31
0
0
LINE
5
173
100
AcDbEntity
8
0
100
AcDbLine
10
-50.943345908404268
20
54.563483460870458
30
0
11
-51.180553883602215
21
55.040115756411296
31
0
0
LINE
5
174
100
AcDbEntity
8
0
100
AcDbLine
10
-51.180553883602215
20
55.040115756411296
30
0
11
-51.418205722764881
21
55.278654135851312
31
0
0
LINE
5
175
100
AcDbEntity
8
0
100
AcDbLine
10
-51.418205722764881
20
55.278654135851312
30
0
11
-51.893952075183485
21
55.517635784320312
31
0
0
LINE
5
176
100
AcDbEntity
8
0
100
AcDbLine
10
-51.893952075183485
20
55.517635784320312
30
0
11
-53.321634403687611
21
55.996485024380576
31
0
0
LINE
5
177
100
AcDbEntity
8
0
100
AcDbLine
10
-53.321634403687611
20
55.996485024380576
30
0
11
-53.79738075721589
21
56.235466076804165
31
0
0
LINE
5
178
100
AcDbEntity
8
0
100
AcDbLine
10
-53.79738075721589
20
56.235466076804165
30
0
11
-54.035032596378556
21
56.474004456244174
31
0
0
LINE
5
179
100
AcDbEntity
8
0
100
AcDbLine
10
-54.035032596378556
20
56.474004456244174
30
0
11
-54.272241166512245
21
56.95063734894012
31
0
0
LINE
5
180
100
AcDbEntity
8
0
100
AcDbLine
10
-54.272241166512245
20
56.95063734894012
30
0
11
-54.270911358315594
21
57.664921484753307
31
0
0
LINE
5
181
100
AcDbEntity
8
0
100
AcDbLine
10
-54.270911358315594
20
57.664921484753307
30
0
11
-53.793834600545239
21
58.140224567033236
31
0
0
LINE
5
182
100
AcDbEntity
8
0
100
AcDbLine
10
-53.793834600545239
20
58.140224567033236
30
0
11
-53.079107194593377
21
58.376989868137919
31
0
0
LINE
5
183
100
AcDbEntity
8
0
100
AcDbLine
10
-53.079107194593377
20
58.376989868137919
30
0
11
-52.126727353433424
21
58.37521678869291
31
0
0
LINE
5
184
100
AcDbEntity
8
0
100
AcDbLine
10
-52.126727353433424
20
58.37521678869291
30
0
11
-51.412886487758904
21
58.135791871194911
31
0
0
LINE
5
185
100
AcDbEntity
8
0
100
AcDbLine
10
-51.412886487758904
20
58.135791871194911
30
0
11
-50.937583404369292
21
57.65871570946998
31
0
0
LINE
5
186
100
AcDbEntity
8
0
100
AcDbLine
10
-56.897932836866815
20
53.384090846605218
30
0
11
-56.888624175051504
21
58.384082181479229
31
0
0
LINE
5
187
100
AcDbEntity
8
0
100
AcDbLine
10
-55.231269455939085
20
53.380987960073227
30
0
11
-58.564597409885373
21
53.387193735356547
31
0
0
LINE
5
188
100
AcDbEntity
8
0
100
AcDbLine
10
-37.161165235168156
20
8.8388347648318444
30
0
11
-35.03984489160851
21
10.960155108391486
31
0
0
CIRCLE
5
189
100
AcDbEntity
8
0
100
AcDbCircle
10
-31.504310985675772
20
14.495689014324222
30
0
40
2.4999999999999996
210
0
220
0
230
1
0
LINE
5
190
100
AcDbEntity
8
0
100
AcDbLine
10
-31.504310985675772
20
14.495689014324222
30
0
11
-29.736544032709403
21
16.263455967290593
31
0
0
LINE
5
191
100
AcDbEntity
8
0
100
AcDbLine
10
-31.504310985675772
20
14.495689014324222
30
0
11
-33.272077938642141
21
16.263455967290589
31
0
0
LINE
5
192
100
AcDbEntity
8
0
100
AcDbLine
10
-33.92592717138664
20
3.2352380637815115
30
0
11
-31.028149692519435
21
4.0116951990890737
31
0
0
CIRCLE
5
193
100
AcDbEntity
8
0
100
AcDbCircle
10
-26.198520561074098
20
5.3057904246016774
30
0
40
2.4999999999999996
210
0
220
0
230
1
0
LINE
5
194
100
AcDbEntity
8
0
100
AcDbLine
10
-33.925927171386647
20
-3.2352380637815115
30
0
11
-31.028149692519442
21
-4.0116951990890692
31
0
0
CIRCLE
5
195
100
AcDbEntity
8
0
100
AcDbCircle
10
-26.198520561074101
20
-5.3057904246016774
30
0
40
2.4999999999999996
210
0
220
0
230
1
0
LINE
5
196
100
AcDbEntity
8
0
100
AcDbLine
10
-37.161165235168156
20
-8.8388347648318444
30
0
11
-35.039844891608503
21
-10.960155108391492
31
0
0
CIRCLE
5
197
100
AcDbEntity
8
0
100
AcDbCircle
10
-31.504310985675772
20
-14.495689014324228
30
0
40
2.4999999999999996
210
0
220
0
230
1
0
LINE
5
198
100
AcDbEntity
8
0
100
AcDbLine
10
-26.198520561074098
20
5.3057904246016774
30
0
11
-23.698520561074098
21
5.3057904246016774
31
0
0
LINE
5
199
100
AcDbEntity
8
0
100
AcDbLine
10
-26.198520561074098
20
5.3057904246016774
30
0
11
-28.698520561074098
21
5.3057904246016774
31
0
0
LINE
5
200
100
AcDbEntity
8
0
100
AcDbLine
10
-26.198520561074101
20
-5.3057904246016774
30
0
11
-27.96628751404047
21
-7.0735573775680463
31
0
0
LINE
5
201
100
AcDbEntity
8
0
100
AcDbLine
10
-26.198520561074101
20
-5.3057904246016774
30
0
11
-24.430753608107732
21
-7.0735573775680471
31
0
0
ARC
5
202
100
AcDbEntity
8
0
100
AcDbCircle
10
-46
20
0
30
0
40
12.5
210
0
220
0
230
1
100
AcDbArc
50
-45
51
45
0
ENDSEC
0
SECTION
2
OBJECTS
0
DICTIONARY
5
C
100
AcDbDictionary
3
ACAD_GROUP
350
D
3
ACAD_MLINESTYLE
350
17
0
DICTIONARY
5
D
100
AcDbDictionary
0
DICTIONARY
5
1A
330
C
100
AcDbDictionary
0
DICTIONARY
5
17
100
AcDbDictionary
0
ENDSEC
0
EOF
