0
SECTION
2
HEADER
9
$INSUNITS
70
4
9
$ACADVER
1
AC1014
9
$HANDSEED
5
FFFF
0
ENDSEC
0
SECTION
2
TABLES
0
TABLE
2
VPORT
5
8
100
AcDbSymbolTable
0
ENDTAB
0
TABLE
2
LTYPE
5
5
100
AcDbSymbolTable
0
LTYPE
5
14
100
AcDbSymbolTableRecord
100
AcDbLinetypeTableRecord
2
BYBLOCK
70
0
0
LTYPE
5
15
100
AcDbSymbolTableRecord
100
AcDbLinetypeTableRecord
2
BYLAYER
70
0
0
ENDTAB
0
TABLE
2
LAYER
5
2
100
AcDbSymbolTable
70
2
0
LAYER
5
50
100
AcDbSymbolTableRecord
100
AcDbLayerTableRecord
2
0
70
0
6
CONTINUOUS
0
ENDTAB
0
TABLE
2
STYLE
5
3
100
AcDbSymbolTable
70
1
0
STYLE
5
11
100
AcDbSymbolTableRecord
100
AcDbTextStyleTableRecord
2
STANDARD
70
0
0
ENDTAB
0
TABLE
2
VIEW
5
6
100
AcDbSymbolTable
70
0
0
ENDTAB
0
TABLE
2
UCS
5
7
100
AcDbSymbolTable
70
0
0
ENDTAB
0
TABLE
2
APPID
5
9
100
AcDbSymbolTable
70
2
0
APPID
5
12
100
AcDbSymbolTableRecord
100
AcDbRegAppTableRecord
2
ACAD
70
0
0
ENDTAB
0
TABLE
2
DIMSTYLE
5
A
100
AcDbSymbolTable
70
1
0
ENDTAB
0
TABLE
2
BLOCK_RECORD
5
1
100
AcDbSymbolTable
70
1
0
BLOCK_RECORD
5
1F
100
AcDbSymbolTableRecord
100
AcDbBlockTableRecord
2
*MODEL_SPACE
0
BLOCK_RECORD
5
1B
100
AcDbSymbolTableRecord
100
AcDbBlockTableRecord
2
*PAPER_SPACE
0
ENDTAB
0
ENDSEC
0
SECTION
2
BLOCKS
0
BLOCK
5
20
100
AcDbEntity
100
AcDbBlockBegin
2
*MODEL_SPACE
0
ENDBLK
5
21
100
AcDbEntity
100
AcDbBlockEnd
0
BLOCK
5
1C
100
AcDbEntity
100
AcDbBlockBegin
2
*PAPER_SPACE
0
ENDBLK
5
1D
100
AcDbEntity
100
AcDbBlockEnd
0
ENDSEC
0
SECTION
2
ENTITIES
0
CIRCLE
5
100
100
AcDbEntity
8
0
100
AcDbCircle
10
-10.499999999999993
20
-412.5
30
0
40
2.8574999999999999
210
0
220
-0
230
1
0
CIRCLE
5
101
100
AcDbEntity
8
0
100
AcDbCircle
10
-10.499999999999993
20
-366.50000000000006
30
0
40
2.8574999999999999
210
0
220
-0
230
1
0
CIRCLE
5
102
100
AcDbEntity
8
0
100
AcDbCircle
10
-26.000000000000053
20
-352.99999999999977
30
0
40
2.8574999999999999
210
0
220
-0
230
1
0
CIRCLE
5
103
100
AcDbEntity
8
0
100
AcDbCircle
10
26.000000000000046
20
-301
30
0
40
2.8574999999999999
210
0
220
-0
230
1
0
CIRCLE
5
104
100
AcDbEntity
8
0
100
AcDbCircle
10
-26.000000000000107
20
-301
30
0
40
2.8574999999999999
210
0
220
-0
230
1
0
CIRCLE
5
105
100
AcDbEntity
8
0
100
AcDbCircle
10
26.000000000000036
20
-352.99999999999977
30
0
40
2.8574999999999999
210
0
220
-0
230
1
0
CIRCLE
5
106
100
AcDbEntity
8
0
100
AcDbCircle
10
10.500000000000078
20
-366.50000000000006
30
0
40
2.8574999999999999
210
0
220
-0
230
1
0
CIRCLE
5
107
100
AcDbEntity
8
0
100
AcDbCircle
10
10.500000000000082
20
-412.5
30
0
40
2.8574999999999999
210
0
220
-0
230
1
0
CIRCLE
5
108
100
AcDbEntity
8
0
100
AcDbCircle
10
-31.060000000000002
20
-389.5
30
0
40
4.2165000000011776
210
0
220
-0
230
1
0
CIRCLE
5
109
100
AcDbEntity
8
0
100
AcDbCircle
10
-31.060000000000002
20
-187.5
30
0
40
4.2164999999999999
210
0
220
-0
230
1
0
CIRCLE
5
110
100
AcDbEntity
8
0
100
AcDbCircle
10
-31.060000000000002
20
-37.5
30
0
40
4.2164999999999999
210
0
220
-0
230
1
0
CIRCLE
5
111
100
AcDbEntity
8
0
100
AcDbCircle
10
48.059999999999988
20
-389.5
30
0
40
4.2165000000011776
210
0
220
-0
230
1
0
LWPOLYLINE
5
112
100
AcDbEntity
8
0
100
AcDbPolyline
90
14
70
1
43
0.0
10
37.5
20
-266.49999999999994
42
-0.41421356237307161
10
36.499999999999993
20
-267.49999999999994
10
20.499999999999993
20
-267.49999999999994
42
0.41421356237309503
10
19.499999999999993
20
-268.5
10
19.499999999999993
20
-291
42
0.41421356237309503
10
20.499999999999993
20
-292
10
56.999999999999993
20
-292
10
56.999999999999993
20
-505
10
-40
20
-505
10
-40
20
40
10
56.999999999999993
20
40
10
56.999999999999993
20
25.500000000000007
10
38.5
20
25.499999999999993
42
0.41421356237309503
10
37.499999999999993
20
24.499999999999993
0
LWPOLYLINE
5
113
100
AcDbEntity
8
0
100
AcDbPolyline
90
8
70
1
43
0.0
10
-32.999999999999993
20
-499
42
-0.41421356237309503
10
-33.999999999999993
20
-498
10
-34.000000000000007
20
-473.50000000000023
42
-0.41421356237311324
10
-32.999999999999929
20
-472.50000000000023
10
-29.499999999999687
20
-472.50000000000045
42
-0.41421356237307683
10
-28.499999999999748
20
-473.50000000000045
10
-28.499999999999893
20
-498
42
-0.41421356237309503
10
-29.499999999999908
20
-499
0
CIRCLE
5
114
100
AcDbEntity
8
0
100
AcDbCircle
10
-27.753941161571994
20
-252.75394116157199
30
0
40
1.4999999999999991
210
0
220
-0
230
1
0
CIRCLE
5
115
100
AcDbEntity
8
0
100
AcDbCircle
10
27.753941161571994
20
-102.75394116157199
30
0
40
1.4999999999999991
210
0
220
-0
230
1
0
CIRCLE
5
116
100
AcDbEntity
8
0
100
AcDbCircle
10
27.753941161571994
20
27.75394116157198
30
0
40
1.4999999999999991
210
0
220
-0
230
1
0
CIRCLE
5
117
100
AcDbEntity
8
0
100
AcDbCircle
10
-27.753941161571994
20
27.75394116157198
30
0
40
1.4999999999999991
210
0
220
-0
230
1
0
CIRCLE
5
118
100
AcDbEntity
8
0
100
AcDbCircle
10
0
20
0
30
0
40
32
210
0
220
-0
230
1
0
CIRCLE
5
119
100
AcDbEntity
8
0
100
AcDbCircle
10
-27.753941161571994
20
-27.75394116157198
30
0
40
1.4999999999999991
210
0
220
-0
230
1
0
CIRCLE
5
120
100
AcDbEntity
8
0
100
AcDbCircle
10
27.753941161571994
20
-27.75394116157198
30
0
40
1.4999999999999991
210
0
220
-0
230
1
0
CIRCLE
5
121
100
AcDbEntity
8
0
100
AcDbCircle
10
-27.753941161571994
20
-47.24605883842802
30
0
40
1.4999999999999991
210
0
220
-0
230
1
0
CIRCLE
5
122
100
AcDbEntity
8
0
100
AcDbCircle
10
0
20
-75
30
0
40
32
210
0
220
-0
230
1
0
CIRCLE
5
123
100
AcDbEntity
8
0
100
AcDbCircle
10
27.753941161571994
20
-47.24605883842802
30
0
40
1.4999999999999991
210
0
220
-0
230
1
0
CIRCLE
5
124
100
AcDbEntity
8
0
100
AcDbCircle
10
-27.753941161571994
20
-102.75394116157199
30
0
40
1.4999999999999991
210
0
220
-0
230
1
0
CIRCLE
5
125
100
AcDbEntity
8
0
100
AcDbCircle
10
-27.753941161571994
20
-122.246058838428
30
0
40
1.4999999999999991
210
0
220
-0
230
1
0
CIRCLE
5
126
100
AcDbEntity
8
0
100
AcDbCircle
10
0
20
-150
30
0
40
32
210
0
220
-0
230
1
0
CIRCLE
5
127
100
AcDbEntity
8
0
100
AcDbCircle
10
27.753941161571994
20
-122.246058838428
30
0
40
1.4999999999999991
210
0
220
-0
230
1
0
CIRCLE
5
128
100
AcDbEntity
8
0
100
AcDbCircle
10
-27.753941161571994
20
-177.75394116157199
30
0
40
1.4999999999999991
210
0
220
-0
230
1
0
CIRCLE
5
129
100
AcDbEntity
8
0
100
AcDbCircle
10
27.753941161571994
20
-197.24605883842801
30
0
40
1.4999999999999991
210
0
220
-0
230
1
0
CIRCLE
5
130
100
AcDbEntity
8
0
100
AcDbCircle
10
0
20
-225
30
0
40
32
210
0
220
-0
230
1
0
CIRCLE
5
131
100
AcDbEntity
8
0
100
AcDbCircle
10
-27.753941161571994
20
-197.24605883842801
30
0
40
1.4999999999999991
210
0
220
-0
230
1
0
CIRCLE
5
132
100
AcDbEntity
8
0
100
AcDbCircle
10
27.753941161571994
20
-252.75394116157199
30
0
40
1.4999999999999991
210
0
220
-0
230
1
0
LWPOLYLINE
5
133
100
AcDbEntity
8
0
100
AcDbPolyline
90
8
70
1
43
0.0
10
15.999999999999993
20
-270
42
-0.41421356237309503
10
16.999999999999993
20
-271
10
17.000000000000007
20
-288.5
42
-0.41421356237309503
10
15.999999999999993
20
-289.5
10
-20.100000000000001
20
-289.5
42
-0.41421356237309503
10
-21.100000000000001
20
-288.5
10
-21.100000000000009
20
-271
42
-0.41421356237309503
10
-20.099999999999994
20
-270
0
CIRCLE
5
134
100
AcDbEntity
8
0
100
AcDbCircle
10
27.753941161571994
20
-177.75394116157199
30
0
40
1.4999999999999991
210
0
220
-0
230
1
0
CIRCLE
5
135
100
AcDbEntity
8
0
100
AcDbCircle
10
-25
20
-536.88584013175398
30
0
40
4.2164999999999999
210
0
220
-0
230
1
0
CIRCLE
5
136
100
AcDbEntity
8
0
100
AcDbCircle
10
41.999999999999993
20
-536.88584013175398
30
0
40
4.2164999999999999
210
0
220
-0
230
1
0
LWPOLYLINE
5
137
100
AcDbEntity
8
0
100
AcDbPolyline
90
6
70
1
43
0.0
10
-34.000000000000007
20
-545.78584013175384
42
-0.41421356237308915
10
-40.000000000000007
20
-539.78584013175396
10
-40
20
-511.78584013175396
10
56.999999999999993
20
-511.78584013175396
10
56.999999999999872
20
-539.78584013175396
42
-0.41421356237309853
10
51
20
-545.78584013175396
0
LWPOLYLINE
5
138
100
AcDbEntity
8
0
100
AcDbPolyline
90
4
70
1
43
0.0
10
56.999999999999993
20
-511.78584013175396
10
-40
20
-511.78584013175396
10
-40
20
-505
10
56.999999999999993
20
-505
0
LWPOLYLINE
5
139
100
AcDbEntity
8
0
100
AcDbPolyline
90
4
70
1
43
0.0
10
-40
20
46.785840131753957
10
56.999999999999957
20
46.785840131753957
10
56.999999999999993
20
40
10
-40
20
40
0
CIRCLE
5
140
100
AcDbEntity
8
0
100
AcDbCircle
10
-25
20
71.88584013175398
30
0
40
4.2164999999999999
210
0
220
-0
230
1
0
CIRCLE
5
141
100
AcDbEntity
8
0
100
AcDbCircle
10
41.999999999999993
20
71.88584013175398
30
0
40
4.2164999999999999
210
0
220
-0
230
1
0
LWPOLYLINE
5
142
100
AcDbEntity
8
0
100
AcDbPolyline
90
6
70
1
43
0.0
10
-40.000000000000007
20
74.785840131753957
42
-0.41421356237309531
10
-34
20
80.785840131753957
10
50.999999999999957
20
80.785840131753957
42
-0.41421356237309503
10
56.999999999999957
20
74.785840131753957
10
56.999999999999957
20
46.785840131753957
10
-40
20
46.785840131753957
0
LWPOLYLINE
5
143
100
AcDbEntity
8
0
100
AcDbPolyline
90
3
70
1
43
0.0
10
-5.0000000000000799
20
-327
42
-0.64174243050440627
10
4.9999999999998925
20
-327
10
-1.0547118733938987e-13
20
-307
0
ELLIPSE
5
144
100
AcDbEntity
8
0
100
AcDbEllipse
10
-1.0658141036401503e-13
20
-327
30
0
11
23.179596364169686
21
9.365164835397799
31
0.0
40
0.22000000000000058
41
1.9721029154066982
42
7.4526750497475316
0
ARC
5
145
100
AcDbEntity
8
0
100
AcDbCircle
10
-1.0658141036401503e-13
20
-327
30
0
40
11
210
0
220
0
230
1
100
AcDbArc
50
-257.87020947746049
51
77.870209477460477
0
ENDSEC
0
SECTION
2
OBJECTS
0
DICTIONARY
5
C
100
AcDbDictionary
3
ACAD_GROUP
350
D
3
ACAD_MLINESTYLE
350
17
0
DICTIONARY
5
D
100
AcDbDictionary
0
DICTIONARY
5
1A
330
C
100
AcDbDictionary
0
DICTIONARY
5
17
100
AcDbDictionary
0
ENDSEC
0
EOF
