0
SECTION
2
HEADER
9
$INSUNITS
70
4
9
$ACADVER
1
AC1014
9
$HANDSEED
5
FFFF
0
ENDSEC
0
SECTION
2
TABLES
0
TABLE
2
VPORT
5
8
100
AcDbSymbolTable
0
ENDTAB
0
TABLE
2
LTYPE
5
5
100
AcDbSymbolTable
0
LTYPE
5
14
100
AcDbSymbolTableRecord
100
AcDbLinetypeTableRecord
2
BYBLOCK
70
0
0
LTYPE
5
15
100
AcDbSymbolTableRecord
100
AcDbLinetypeTableRecord
2
BYLAYER
70
0
0
ENDTAB
0
TABLE
2
LAYER
5
2
100
AcDbSymbolTable
70
2
0
LAYER
5
50
100
AcDbSymbolTableRecord
100
AcDbLayerTableRecord
2
0
70
0
6
CONTINUOUS
0
ENDTAB
0
TABLE
2
STYLE
5
3
100
AcDbSymbolTable
70
1
0
STYLE
5
11
100
AcDbSymbolTableRecord
100
AcDbTextStyleTableRecord
2
STANDARD
70
0
0
ENDTAB
0
TABLE
2
VIEW
5
6
100
AcDbSymbolTable
70
0
0
ENDTAB
0
TABLE
2
UCS
5
7
100
AcDbSymbolTable
70
0
0
ENDTAB
0
TABLE
2
APPID
5
9
100
AcDbSymbolTable
70
2
0
APPID
5
12
100
AcDbSymbolTableRecord
100
AcDbRegAppTableRecord
2
ACAD
70
0
0
ENDTAB
0
TABLE
2
DIMSTYLE
5
A
100
AcDbSymbolTable
70
1
0
ENDTAB
0
TABLE
2
BLOCK_RECORD
5
1
100
AcDbSymbolTable
70
1
0
BLOCK_RECORD
5
1F
100
AcDbSymbolTableRecord
100
AcDbBlockTableRecord
2
*MODEL_SPACE
0
BLOCK_RECORD
5
1B
100
AcDbSymbolTableRecord
100
AcDbBlockTableRecord
2
*PAPER_SPACE
0
ENDTAB
0
ENDSEC
0
SECTION
2
BLOCKS
0
BLOCK
5
20
100
AcDbEntity
100
AcDbBlockBegin
2
*MODEL_SPACE
0
ENDBLK
5
21
100
AcDbEntity
100
AcDbBlockEnd
0
BLOCK
5
1C
100
AcDbEntity
100
AcDbBlockBegin
2
*PAPER_SPACE
0
ENDBLK
5
1D
100
AcDbEntity
100
AcDbBlockEnd
0
ENDSEC
0
SECTION
2
ENTITIES
0
CIRCLE
5
100
100
AcDbEntity
8
0
100
AcDbCircle
10
48.059999999999988
20
-37.5
30
0
40
4.2164999999999999
210
0
220
-0
230
1
0
CIRCLE
5
101
100
AcDbEntity
8
0
100
AcDbCircle
10
48.059999999999988
20
-187.5
30
0
40
4.2164999999999999
210
0
220
-0
230
1
0
LWPOLYLINE
5
102
100
AcDbEntity
8
0
100
AcDbPolyline
90
10
70
1
43
0.0
10
37.499999999999993
20
24.499999999999993
42
-0.41421356237309243
10
38.5
20
25.499999999999993
10
56.999999999999993
20
25.500000000000007
10
56.999999999999993
20
-292
10
20.499999999999993
20
-292
42
-0.41421356237307422
10
19.499999999999993
20
-291
10
19.499999999999979
20
-268.5
42
-0.41421356237307422
10
20.499999999999993
20
-267.49999999999994
10
36.499999999999993
20
-267.49999999999994
42
0.41421356237309503
10
37.499999999999993
20
-266.49999999999994
0
LWPOLYLINE
5
103
100
AcDbEntity
8
0
100
AcDbPolyline
90
4
70
1
43
0.0
10
51.999999999999993
20
23.000000000000004
10
40
20
23.000000000000011
10
40
20
-23.000000000000004
10
51.999999999999993
20
-23.000000000000004
0
CIRCLE
5
104
100
AcDbEntity
8
0
100
AcDbCircle
10
0
20
0
30
0
40
32
210
0
220
-0
230
1
0
CIRCLE
5
105
100
AcDbEntity
8
0
100
AcDbCircle
10
0
20
-75
30
0
40
32
210
0
220
-0
230
1
0
CIRCLE
5
106
100
AcDbEntity
8
0
100
AcDbCircle
10
0
20
-150
30
0
40
32
210
0
220
-0
230
1
0
CIRCLE
5
107
100
AcDbEntity
8
0
100
AcDbCircle
10
0
20
-225
30
0
40
32
210
0
220
-0
230
1
0
LWPOLYLINE
5
108
100
AcDbEntity
8
0
100
AcDbPolyline
90
4
70
1
43
0.0
10
51.999999999999993
20
-98
10
51.999999999999993
20
-51.999999999999993
10
39.999999999999993
20
-51.999999999999993
10
39.999999999999993
20
-98
0
LWPOLYLINE
5
109
100
AcDbEntity
8
0
100
AcDbPolyline
90
4
70
1
43
0.0
10
51.999999999999993
20
-173
10
51.999999999999993
20
-127.00000000000001
10
40.000000000000007
20
-127.00000000000001
10
40.000000000000007
20
-173
0
LWPOLYLINE
5
110
100
AcDbEntity
8
0
100
AcDbPolyline
90
4
70
1
43
0.0
10
51.999999999999993
20
-248
10
51.999999999999993
20
-202
10
40
20
-202
10
40
20
-248
0
LINE
5
111
100
AcDbEntity
8
0
100
AcDbLine
10
27.714285373687733
20
-273.56547564268112
30
0
11
27.476190447807301
21
-273.08928519487381
31
0
0
LINE
5
112
100
AcDbEntity
8
0
100
AcDbLine
10
27.476190447807301
20
-273.08928519487381
30
0
11
26.999999999999989
21
-272.6130947470665
31
0
0
LINE
5
113
100
AcDbEntity
8
0
100
AcDbLine
10
26.999999999999989
20
-272.6130947470665
30
0
11
26.523809552192677
21
-272.37499952316284
31
0
0
LINE
5
114
100
AcDbEntity
8
0
100
AcDbLine
10
26.523809552192677
20
-272.37499952316284
30
0
11
25.571428656578053
21
-272.37499952316284
31
0
0
LINE
5
115
100
AcDbEntity
8
0
100
AcDbLine
10
25.571428656578053
20
-272.37499952316284
30
0
11
25.095238208770741
21
-272.6130947470665
31
0
0
LINE
5
116
100
AcDbEntity
8
0
100
AcDbLine
10
25.095238208770741
20
-272.6130947470665
30
0
11
24.619047462940205
21
-273.08928519487381
31
0
0
LINE
5
117
100
AcDbEntity
8
0
100
AcDbLine
10
24.619047462940205
20
-273.08928519487381
30
0
11
24.380952239036549
21
-273.56547564268112
31
0
0
LINE
5
118
100
AcDbEntity
8
0
100
AcDbLine
10
24.380952239036549
20
-273.56547564268112
30
0
11
24.142857015132893
21
-274.27976131439209
31
0
0
LINE
5
119
100
AcDbEntity
8
0
100
AcDbLine
10
24.142857015132893
20
-274.27976131439209
30
0
11
24.142857015132893
21
-275.47023773193359
31
0
0
LINE
5
120
100
AcDbEntity
8
0
100
AcDbLine
10
24.142857015132893
20
-275.47023773193359
30
0
11
24.380952239036549
21
-276.18452310562134
31
0
0
LINE
5
121
100
AcDbEntity
8
0
100
AcDbLine
10
24.380952239036549
20
-276.18452310562134
30
0
11
24.619047462940205
21
-276.66071355342865
31
0
0
LINE
5
122
100
AcDbEntity
8
0
100
AcDbLine
10
24.619047462940205
20
-276.66071355342865
30
0
11
25.095238208770741
21
-277.13690400123596
31
0
0
LINE
5
123
100
AcDbEntity
8
0
100
AcDbLine
10
25.095238208770741
20
-277.13690400123596
30
0
11
25.571428656578053
21
-277.37499952316284
31
0
0
LINE
5
124
100
AcDbEntity
8
0
100
AcDbLine
10
25.571428656578053
20
-277.37499952316284
30
0
11
26.523809552192677
21
-277.37499952316284
31
0
0
LINE
5
125
100
AcDbEntity
8
0
100
AcDbLine
10
26.523809552192677
20
-277.37499952316284
30
0
11
26.999999999999989
21
-277.13690400123596
31
0
0
LINE
5
126
100
AcDbEntity
8
0
100
AcDbLine
10
26.999999999999989
20
-277.13690400123596
30
0
11
27.476190447807301
21
-276.66071355342865
31
0
0
LINE
5
127
100
AcDbEntity
8
0
100
AcDbLine
10
27.476190447807301
20
-276.66071355342865
30
0
11
27.714285373687733
21
-276.18452310562134
31
0
0
LINE
5
128
100
AcDbEntity
8
0
100
AcDbLine
10
27.714285373687733
20
-276.18452310562134
30
0
11
27.714285373687733
21
-275.47023773193359
31
0
0
LINE
5
129
100
AcDbEntity
8
0
100
AcDbLine
10
26.523809552192677
20
-275.47023773193359
30
0
11
27.714285373687733
21
-275.47023773193359
31
0
0
LINE
5
130
100
AcDbEntity
8
0
100
AcDbLine
10
29.380952239036549
20
-274.04166609048843
30
0
11
29.380952239036549
21
-277.37499952316284
31
0
0
LINE
5
131
100
AcDbEntity
8
0
100
AcDbLine
10
29.380952239036549
20
-274.99404728412628
30
0
11
30.095238208770741
21
-274.27976131439209
31
0
0
LINE
5
132
100
AcDbEntity
8
0
100
AcDbLine
10
30.095238208770741
20
-274.27976131439209
30
0
11
30.571428656578053
21
-274.04166609048838
31
0
0
LINE
5
133
100
AcDbEntity
8
0
100
AcDbLine
10
30.571428656578053
20
-274.04166609048838
30
0
11
31.285714626312245
21
-274.04166609048838
31
0
0
LINE
5
134
100
AcDbEntity
8
0
100
AcDbLine
10
31.285714626312245
20
-274.04166609048838
30
0
11
31.761904478073109
21
-274.27976131439203
31
0
0
LINE
5
135
100
AcDbEntity
8
0
100
AcDbLine
10
31.761904478073109
20
-274.27976131439203
30
0
11
31.999999999999989
21
-274.99404728412622
31
0
0
LINE
5
136
100
AcDbEntity
8
0
100
AcDbLine
10
31.999999999999989
20
-274.99404728412622
30
0
11
31.999999999999989
21
-277.37499952316278
31
0
0
LINE
5
137
100
AcDbEntity
8
0
100
AcDbLine
10
31.999999999999989
20
-274.99404728412622
30
0
11
32.71428537368773
21
-274.27976131439203
31
0
0
LINE
5
138
100
AcDbEntity
8
0
100
AcDbLine
10
32.71428537368773
20
-274.27976131439203
30
0
11
33.19047641754149
21
-274.04166609048838
31
0
0
LINE
5
139
100
AcDbEntity
8
0
100
AcDbLine
10
33.19047641754149
20
-274.04166609048838
30
0
11
33.904761791229234
21
-274.04166609048838
31
0
0
LINE
5
140
100
AcDbEntity
8
0
100
AcDbLine
10
33.904761791229234
20
-274.04166609048838
30
0
11
34.380952835082994
21
-274.27976131439203
31
0
0
LINE
5
141
100
AcDbEntity
8
0
100
AcDbLine
10
34.380952835082994
20
-274.27976131439203
30
0
11
34.619047164916978
21
-274.99404728412622
31
0
0
LINE
5
142
100
AcDbEntity
8
0
100
AcDbLine
10
34.619047164916978
20
-274.99404728412622
30
0
11
34.619047164916978
21
-277.37499952316278
31
0
0
LINE
5
143
100
AcDbEntity
8
0
100
AcDbLine
10
39.023808956146141
20
-272.3749995231629
30
0
11
39.023808956146169
21
-277.3749995231629
31
0
0
LINE
5
144
100
AcDbEntity
8
0
100
AcDbLine
10
39.023808956146141
20
-272.3749995231629
30
0
11
40.928571045398641
21
-277.3749995231629
31
0
0
LINE
5
145
100
AcDbEntity
8
0
100
AcDbLine
10
42.833332538604637
20
-272.3749995231629
30
0
11
40.928571045398641
21
-277.3749995231629
31
0
0
LINE
5
146
100
AcDbEntity
8
0
100
AcDbLine
10
42.833332538604637
20
-272.3749995231629
30
0
11
42.833332538604665
21
-277.3749995231629
31
0
0
LINE
5
147
100
AcDbEntity
8
0
100
AcDbLine
10
44.738094925880333
20
-274.04166609048843
30
0
11
44.738094925880354
21
-277.37499952316284
31
0
0
LINE
5
148
100
AcDbEntity
8
0
100
AcDbLine
10
44.738094925880347
20
-274.99404728412628
30
0
11
45.452380895614539
21
-274.27976131439209
31
0
0
LINE
5
149
100
AcDbEntity
8
0
100
AcDbLine
10
45.452380895614539
20
-274.27976131439209
30
0
11
45.928571343421851
21
-274.04166609048843
31
0
0
LINE
5
150
100
AcDbEntity
8
0
100
AcDbLine
10
45.928571343421851
20
-274.04166609048843
30
0
11
46.642857313156028
21
-274.04166609048843
31
0
0
LINE
5
151
100
AcDbEntity
8
0
100
AcDbLine
10
46.642857313156028
20
-274.04166609048843
30
0
11
47.119047164916893
21
-274.27976131439209
31
0
0
LINE
5
152
100
AcDbEntity
8
0
100
AcDbLine
10
47.119047164916893
20
-274.27976131439209
30
0
11
47.357142686843787
21
-274.99404728412628
31
0
0
LINE
5
153
100
AcDbEntity
8
0
100
AcDbLine
10
47.357142686843787
20
-274.99404728412628
30
0
11
47.357142686843794
21
-277.37499952316284
31
0
0
LINE
5
154
100
AcDbEntity
8
0
100
AcDbLine
10
47.357142686843787
20
-274.99404728412628
30
0
11
48.071428060531531
21
-274.27976131439209
31
0
0
LINE
5
155
100
AcDbEntity
8
0
100
AcDbLine
10
48.071428060531531
20
-274.27976131439209
30
0
11
48.547619104385291
21
-274.04166609048843
31
0
0
LINE
5
156
100
AcDbEntity
8
0
100
AcDbLine
10
48.547619104385291
20
-274.04166609048843
30
0
11
49.261904478073021
21
-274.04166609048843
31
0
0
LINE
5
157
100
AcDbEntity
8
0
100
AcDbLine
10
49.261904478073021
20
-274.04166609048843
30
0
11
49.738094329833885
21
-274.27976131439209
31
0
0
LINE
5
158
100
AcDbEntity
8
0
100
AcDbLine
10
49.738094329833885
20
-274.27976131439209
30
0
11
49.976191043853675
21
-274.99404728412628
31
0
0
LINE
5
159
100
AcDbEntity
8
0
100
AcDbLine
10
49.976191043853675
20
-274.99404728412628
30
0
11
49.976191043853682
21
-277.37499952316284
31
0
0
LINE
5
160
100
AcDbEntity
8
0
100
AcDbLine
10
26.880952239036588
20
-282.95833325386047
30
0
11
26.880952239036592
21
-286.29166668653488
31
0
0
LINE
5
161
100
AcDbEntity
8
0
100
AcDbLine
10
26.880952239036588
20
-283.91071444749832
30
0
11
27.59523820877078
21
-283.19642847776413
31
0
0
LINE
5
162
100
AcDbEntity
8
0
100
AcDbLine
10
27.59523820877078
20
-283.19642847776413
30
0
11
28.071428656578092
21
-282.95833325386047
31
0
0
LINE
5
163
100
AcDbEntity
8
0
100
AcDbLine
10
28.071428656578092
20
-282.95833325386047
30
0
11
28.785714626312284
21
-282.95833325386047
31
0
0
LINE
5
164
100
AcDbEntity
8
0
100
AcDbLine
10
28.785714626312284
20
-282.95833325386047
30
0
11
29.261904478073149
21
-283.19642847776413
31
0
0
LINE
5
165
100
AcDbEntity
8
0
100
AcDbLine
10
29.261904478073149
20
-283.19642847776413
30
0
11
29.500000000000028
21
-283.91071444749832
31
0
0
LINE
5
166
100
AcDbEntity
8
0
100
AcDbLine
10
29.500000000000028
20
-283.91071444749832
30
0
11
29.500000000000032
21
-286.29166668653482
31
0
0
LINE
5
167
100
AcDbEntity
8
0
100
AcDbLine
10
29.500000000000028
20
-283.91071444749832
30
0
11
30.214285373687773
21
-283.19642847776407
31
0
0
LINE
5
168
100
AcDbEntity
8
0
100
AcDbLine
10
30.214285373687773
20
-283.19642847776407
30
0
11
30.690476417541532
21
-282.95833325386042
31
0
0
LINE
5
169
100
AcDbEntity
8
0
100
AcDbLine
10
30.690476417541532
20
-282.95833325386042
30
0
11
31.404761791229276
21
-282.95833325386042
31
0
0
LINE
5
170
100
AcDbEntity
8
0
100
AcDbLine
10
31.404761791229276
20
-282.95833325386042
30
0
11
31.880952239036588
21
-283.19642847776407
31
0
0
LINE
5
171
100
AcDbEntity
8
0
100
AcDbLine
10
31.880952239036588
20
-283.19642847776407
30
0
11
32.119047164917021
21
-283.91071444749826
31
0
0
LINE
5
172
100
AcDbEntity
8
0
100
AcDbLine
10
32.119047164917021
20
-283.91071444749826
30
0
11
32.119047164917028
21
-286.29166668653482
31
0
0
LINE
5
173
100
AcDbEntity
8
0
100
AcDbLine
10
39.857142686843886
20
-282.12499952316278
30
0
11
39.857142686843886
21
-287.12499952316278
31
0
0
LINE
5
174
100
AcDbEntity
8
0
100
AcDbLine
10
42.238095521926894
20
-283.79166609048838
30
0
11
39.857142686843886
21
-286.17261862754816
31
0
0
LINE
5
175
100
AcDbEntity
8
0
100
AcDbLine
10
40.80952358245851
20
-285.22023773193354
30
0
11
42.476190447807326
21
-287.12499952316278
31
0
0
LINE
5
176
100
AcDbEntity
8
0
100
AcDbLine
10
43.904761791229262
20
-283.79166609048838
30
0
11
43.904761791229262
21
-287.12499952316278
31
0
0
LINE
5
177
100
AcDbEntity
8
0
100
AcDbLine
10
43.904761791229262
20
-284.74404728412622
30
0
11
44.619047760963454
21
-284.02976131439203
31
0
0
LINE
5
178
100
AcDbEntity
8
0
100
AcDbLine
10
44.619047760963454
20
-284.02976131439203
30
0
11
45.095238208770766
21
-283.79166609048838
31
0
0
LINE
5
179
100
AcDbEntity
8
0
100
AcDbLine
10
45.095238208770766
20
-283.79166609048838
30
0
11
45.80952358245851
21
-283.79166609048838
31
0
0
LINE
5
180
100
AcDbEntity
8
0
100
AcDbLine
10
45.80952358245851
20
-283.79166609048838
30
0
11
46.28571462631227
21
-284.02976131439203
31
0
0
LINE
5
181
100
AcDbEntity
8
0
100
AcDbLine
10
46.28571462631227
20
-284.02976131439203
30
0
11
46.523809552192702
21
-284.74404728412622
31
0
0
LINE
5
182
100
AcDbEntity
8
0
100
AcDbLine
10
46.523809552192702
20
-284.74404728412622
30
0
11
46.523809552192702
21
-287.12499952316278
31
0
0
LINE
5
183
100
AcDbEntity
8
0
100
AcDbLine
10
46.523809552192702
20
-284.74404728412622
30
0
11
47.238095521926894
21
-284.02976131439203
31
0
0
LINE
5
184
100
AcDbEntity
8
0
100
AcDbLine
10
47.238095521926894
20
-284.02976131439203
30
0
11
47.714285373687758
21
-283.79166609048838
31
0
0
LINE
5
185
100
AcDbEntity
8
0
100
AcDbLine
10
47.714285373687758
20
-283.79166609048838
30
0
11
48.428570747375502
21
-283.79166609048838
31
0
0
LINE
5
186
100
AcDbEntity
8
0
100
AcDbLine
10
48.428570747375502
20
-283.79166609048838
30
0
11
48.904761791229262
21
-284.02976131439203
31
0
0
LINE
5
187
100
AcDbEntity
8
0
100
AcDbLine
10
48.904761791229262
20
-284.02976131439203
30
0
11
49.142857313156142
21
-284.74404728412622
31
0
0
LINE
5
188
100
AcDbEntity
8
0
100
AcDbLine
10
49.142857313156142
20
-284.74404728412622
30
0
11
49.142857313156142
21
-287.12499952316278
31
0
0
LINE
5
189
100
AcDbEntity
8
0
100
AcDbLine
10
44.452381134033203
20
-212.50000071525574
30
0
11
44.452381134033203
21
-217.50000071525574
31
0
0
LINE
5
190
100
AcDbEntity
8
0
100
AcDbLine
10
44.452381134033203
20
-212.50000071525574
30
0
11
46.595238447189331
21
-212.50000071525574
31
0
0
LINE
5
191
100
AcDbEntity
8
0
100
AcDbLine
10
46.595238447189331
20
-212.50000071525574
30
0
11
47.309523820877075
21
-212.73809623718262
31
0
0
LINE
5
192
100
AcDbEntity
8
0
100
AcDbLine
10
47.309523820877075
20
-212.73809623718262
30
0
11
47.547619342803955
21
-212.9761905670166
31
0
0
LINE
5
193
100
AcDbEntity
8
0
100
AcDbLine
10
47.547619342803955
20
-212.9761905670166
30
0
11
47.785714864730835
21
-213.45238161087036
31
0
0
LINE
5
194
100
AcDbEntity
8
0
100
AcDbLine
10
47.785714864730835
20
-213.45238161087036
30
0
11
47.785714864730835
21
-213.92857265472412
31
0
0
LINE
5
195
100
AcDbEntity
8
0
100
AcDbLine
10
47.785714864730835
20
-213.92857265472412
30
0
11
47.547619342803955
21
-214.40476250648499
31
0
0
LINE
5
196
100
AcDbEntity
8
0
100
AcDbLine
10
47.547619342803955
20
-214.40476250648499
30
0
11
47.309523820877075
21
-214.64285802841187
31
0
0
LINE
5
197
100
AcDbEntity
8
0
100
AcDbLine
10
47.309523820877075
20
-214.64285802841187
30
0
11
46.595238447189331
21
-214.88095235824585
31
0
0
LINE
5
198
100
AcDbEntity
8
0
100
AcDbLine
10
46.595238447189331
20
-214.88095235824585
30
0
11
44.452381134033203
21
-214.88095235824585
31
0
0
LINE
5
199
100
AcDbEntity
8
0
100
AcDbLine
10
46.119047999382019
20
-214.88095235824585
30
0
11
47.785714864730835
21
-217.50000071525574
31
0
0
LINE
5
200
100
AcDbEntity
8
0
100
AcDbLine
10
46.000000238418579
20
-219.16666698455811
30
0
11
44.095238149166107
21
-224.16666698455811
31
0
0
LINE
5
201
100
AcDbEntity
8
0
100
AcDbLine
10
46.000000238418579
20
-219.16666698455811
30
0
11
47.904762029647827
21
-224.16666698455811
31
0
0
LINE
5
202
100
AcDbEntity
8
0
100
AcDbLine
10
44.809523820877075
20
-222.49999952316284
30
0
11
47.190476655960083
21
-222.49999952316284
31
0
0
LINE
5
203
100
AcDbEntity
8
0
100
AcDbLine
10
44.928571581840515
20
-225.83333444595337
30
0
11
44.928571581840515
21
-230.83333444595337
31
0
0
LINE
5
204
100
AcDbEntity
8
0
100
AcDbLine
10
44.928571581840515
20
-230.83333444595337
30
0
11
47.785714864730835
21
-230.83333444595337
31
0
0
LINE
5
205
100
AcDbEntity
8
0
100
AcDbLine
10
46.000000238418579
20
-232.50000190734863
30
0
11
46.000000238418579
21
-237.50000190734863
31
0
0
LINE
5
206
100
AcDbEntity
8
0
100
AcDbLine
10
44.333333671092987
20
-232.50000190734863
30
0
11
47.666667103767395
21
-232.50000190734863
31
0
0
LINE
5
207
100
AcDbEntity
8
0
100
AcDbLine
10
44.095238149166114
20
-137.50000071525574
30
0
11
46.000000238418586
21
-142.50000071525574
31
0
0
LINE
5
208
100
AcDbEntity
8
0
100
AcDbLine
10
47.904762029647834
20
-137.50000071525574
30
0
11
46.000000238418586
21
-142.50000071525574
31
0
0
LINE
5
209
100
AcDbEntity
8
0
100
AcDbLine
10
47.666667103767402
20
-144.88095235824585
30
0
11
47.19047665596009
21
-144.40476250648499
31
0
0
LINE
5
210
100
AcDbEntity
8
0
100
AcDbLine
10
47.19047665596009
20
-144.40476250648499
30
0
11
46.476191282272346
21
-144.16666698455811
31
0
0
LINE
5
211
100
AcDbEntity
8
0
100
AcDbLine
10
46.476191282272346
20
-144.16666698455811
30
0
11
45.523809790611274
21
-144.16666698455811
31
0
0
LINE
5
212
100
AcDbEntity
8
0
100
AcDbLine
10
45.523809790611274
20
-144.16666698455811
30
0
11
44.809524118900306
21
-144.40476250648499
31
0
0
LINE
5
213
100
AcDbEntity
8
0
100
AcDbLine
10
44.809524118900306
20
-144.40476250648499
30
0
11
44.333333671092994
21
-144.88095235824585
31
0
0
LINE
5
214
100
AcDbEntity
8
0
100
AcDbLine
10
44.333333671092994
20
-144.88095235824585
30
0
11
44.333333671092994
21
-145.35714340209961
31
0
0
LINE
5
215
100
AcDbEntity
8
0
100
AcDbLine
10
44.333333671092994
20
-145.35714340209961
30
0
11
44.57142889499665
21
-145.83333325386047
31
0
0
LINE
5
216
100
AcDbEntity
8
0
100
AcDbLine
10
44.57142889499665
20
-145.83333325386047
30
0
11
44.809524118900306
21
-146.07142877578735
31
0
0
LINE
5
217
100
AcDbEntity
8
0
100
AcDbLine
10
44.809524118900306
20
-146.07142877578735
30
0
11
45.285714864730842
21
-146.30952429771423
31
0
0
LINE
5
218
100
AcDbEntity
8
0
100
AcDbLine
10
45.285714864730842
20
-146.30952429771423
30
0
11
46.714286208152778
21
-146.7857141494751
31
0
0
LINE
5
219
100
AcDbEntity
8
0
100
AcDbLine
10
46.714286208152778
20
-146.7857141494751
30
0
11
47.19047665596009
21
-147.02381086349487
31
0
0
LINE
5
220
100
AcDbEntity
8
0
100
AcDbLine
10
47.19047665596009
20
-147.02381086349487
30
0
11
47.42857217788697
21
-147.26190519332886
31
0
0
LINE
5
221
100
AcDbEntity
8
0
100
AcDbLine
10
47.42857217788697
20
-147.26190519332886
30
0
11
47.666667103767402
21
-147.73809623718262
31
0
0
LINE
5
222
100
AcDbEntity
8
0
100
AcDbLine
10
47.666667103767402
20
-147.73809623718262
30
0
11
47.666667103767402
21
-148.45238161087036
31
0
0
LINE
5
223
100
AcDbEntity
8
0
100
AcDbLine
10
47.666667103767402
20
-148.45238161087036
30
0
11
47.19047665596009
21
-148.92857265472412
31
0
0
LINE
5
224
100
AcDbEntity
8
0
100
AcDbLine
10
47.19047665596009
20
-148.92857265472412
30
0
11
46.476191282272346
21
-149.16666698455811
31
0
0
LINE
5
225
100
AcDbEntity
8
0
100
AcDbLine
10
46.476191282272346
20
-149.16666698455811
30
0
11
45.523809790611274
21
-149.16666698455811
31
0
0
LINE
5
226
100
AcDbEntity
8
0
100
AcDbLine
10
45.523809790611274
20
-149.16666698455811
30
0
11
44.809524118900306
21
-148.92857265472412
31
0
0
LINE
5
227
100
AcDbEntity
8
0
100
AcDbLine
10
44.809524118900306
20
-148.92857265472412
30
0
11
44.333333671092994
21
-148.45238161087036
31
0
0
LINE
5
228
100
AcDbEntity
8
0
100
AcDbLine
10
44.45238113403321
20
-150.83333444595337
30
0
11
44.45238113403321
21
-155.83333444595337
31
0
0
LINE
5
229
100
AcDbEntity
8
0
100
AcDbLine
10
44.45238113403321
20
-150.83333444595337
30
0
11
46.595238447189338
21
-150.83333444595337
31
0
0
LINE
5
230
100
AcDbEntity
8
0
100
AcDbLine
10
46.595238447189338
20
-150.83333444595337
30
0
11
47.309523820877082
21
-151.07142877578735
31
0
0
LINE
5
231
100
AcDbEntity
8
0
100
AcDbLine
10
47.309523820877082
20
-151.07142877578735
30
0
11
47.547619342803962
21
-151.30952548980713
31
0
0
LINE
5
232
100
AcDbEntity
8
0
100
AcDbLine
10
47.547619342803962
20
-151.30952548980713
30
0
11
47.785714864730842
21
-151.7857141494751
31
0
0
LINE
5
233
100
AcDbEntity
8
0
100
AcDbLine
10
47.785714864730842
20
-151.7857141494751
30
0
11
47.785714864730842
21
-152.50000190734863
31
0
0
LINE
5
234
100
AcDbEntity
8
0
100
AcDbLine
10
47.785714864730842
20
-152.50000190734863
30
0
11
47.547619342803962
21
-152.9761905670166
31
0
0
LINE
5
235
100
AcDbEntity
8
0
100
AcDbLine
10
47.547619342803962
20
-152.9761905670166
30
0
11
47.309523820877082
21
-153.21428728103638
31
0
0
LINE
5
236
100
AcDbEntity
8
0
100
AcDbLine
10
47.309523820877082
20
-153.21428728103638
30
0
11
46.595238447189338
21
-153.45238161087036
31
0
0
LINE
5
237
100
AcDbEntity
8
0
100
AcDbLine
10
46.595238447189338
20
-153.45238161087036
30
0
11
44.45238113403321
21
-153.45238161087036
31
0
0
LWPOLYLINE
5
238
100
AcDbEntity
8
0
100
AcDbPolyline
90
12
70
1
43
0.0
10
44.45238113403321
20
-162.50000190734866
10
44.45238113403321
20
-157.50000190734863
10
46.119047999382026
20
-157.50000190734863
10
46.833333969116218
20
-157.73809623718262
10
47.309523820877082
20
-158.21428728103638
10
47.547619342803962
20
-158.69047832489014
10
47.785714864730842
20
-159.40476369857788
10
47.785714864730842
20
-160.59524011611941
10
47.547619342803962
20
-161.30952548980716
10
47.309523820877082
20
-161.78571653366092
10
46.833333969116218
20
-162.26190757751468
10
46.119047999382026
20
-162.50000190734866
0
LINE
5
239
100
AcDbEntity
8
0
100
AcDbLine
10
47.666667103767395
20
-59.880952358245843
30
0
11
47.190476655960083
21
-59.404762506484978
31
0
0
LINE
5
240
100
AcDbEntity
8
0
100
AcDbLine
10
47.190476655960083
20
-59.404762506484978
30
0
11
46.476191282272339
21
-59.166666984558098
31
0
0
LINE
5
241
100
AcDbEntity
8
0
100
AcDbLine
10
46.476191282272339
20
-59.166666984558098
30
0
11
45.523809790611267
21
-59.166666984558098
31
0
0
LINE
5
242
100
AcDbEntity
8
0
100
AcDbLine
10
45.523809790611267
20
-59.166666984558098
30
0
11
44.809524118900299
21
-59.404762506484978
31
0
0
LINE
5
243
100
AcDbEntity
8
0
100
AcDbLine
10
44.809524118900299
20
-59.404762506484978
30
0
11
44.333333671092987
21
-59.880952358245843
31
0
0
LINE
5
244
100
AcDbEntity
8
0
100
AcDbLine
10
44.333333671092987
20
-59.880952358245843
30
0
11
44.333333671092987
21
-60.357143402099602
31
0
0
LINE
5
245
100
AcDbEntity
8
0
100
AcDbLine
10
44.333333671092987
20
-60.357143402099602
30
0
11
44.571428894996643
21
-60.833333253860467
31
0
0
LINE
5
246
100
AcDbEntity
8
0
100
AcDbLine
10
44.571428894996643
20
-60.833333253860467
30
0
11
44.809524118900299
21
-61.071428775787346
31
0
0
LINE
5
247
100
AcDbEntity
8
0
100
AcDbLine
10
44.809524118900299
20
-61.071428775787346
30
0
11
45.285714864730835
21
-61.309524297714226
31
0
0
LINE
5
248
100
AcDbEntity
8
0
100
AcDbLine
10
45.285714864730835
20
-61.309524297714226
30
0
11
46.714286208152771
21
-61.785714745521538
31
0
0
LINE
5
249
100
AcDbEntity
8
0
100
AcDbLine
10
46.714286208152771
20
-61.785714745521538
30
0
11
47.190476655960083
21
-62.02380967140197
31
0
0
LINE
5
250
100
AcDbEntity
8
0
100
AcDbLine
10
47.190476655960083
20
-62.02380967140197
30
0
11
47.428572177886963
21
-62.26190519332885
31
0
0
LINE
5
251
100
AcDbEntity
8
0
100
AcDbLine
10
47.428572177886963
20
-62.26190519332885
30
0
11
47.666667103767395
21
-62.738095045089715
31
0
0
LINE
5
252
100
AcDbEntity
8
0
100
AcDbLine
10
47.666667103767395
20
-62.738095045089715
30
0
11
47.666667103767395
21
-63.452381610870354
31
0
0
LINE
5
253
100
AcDbEntity
8
0
100
AcDbLine
10
47.666667103767395
20
-63.452381610870354
30
0
11
47.190476655960083
21
-63.928571462631218
31
0
0
LINE
5
254
100
AcDbEntity
8
0
100
AcDbLine
10
47.190476655960083
20
-63.928571462631218
30
0
11
46.476191282272339
21
-64.166666984558105
31
0
0
LINE
5
255
100
AcDbEntity
8
0
100
AcDbLine
10
46.476191282272339
20
-64.166666984558105
30
0
11
45.523809790611267
21
-64.166666984558105
31
0
0
LINE
5
256
100
AcDbEntity
8
0
100
AcDbLine
10
45.523809790611267
20
-64.166666984558105
30
0
11
44.809524118900299
21
-63.928571462631218
31
0
0
LINE
5
257
100
AcDbEntity
8
0
100
AcDbLine
10
44.809524118900299
20
-63.928571462631218
30
0
11
44.333333671092987
21
-63.452381610870354
31
0
0
LINE
5
258
100
AcDbEntity
8
0
100
AcDbLine
10
44.452381134033203
20
-65.833334445953369
30
0
11
44.452381134033203
21
-70.833334445953369
31
0
0
LINE
5
259
100
AcDbEntity
8
0
100
AcDbLine
10
44.452381134033203
20
-65.833334445953369
30
0
11
46.595238447189331
21
-65.833334445953369
31
0
0
LINE
5
260
100
AcDbEntity
8
0
100
AcDbLine
10
46.595238447189331
20
-65.833334445953369
30
0
11
47.309523820877075
21
-66.071429967880249
31
0
0
LINE
5
261
100
AcDbEntity
8
0
100
AcDbLine
10
47.309523820877075
20
-66.071429967880249
30
0
11
47.547619342803955
21
-66.309525489807129
31
0
0
LINE
5
262
100
AcDbEntity
8
0
100
AcDbLine
10
47.547619342803955
20
-66.309525489807129
30
0
11
47.785714864730835
21
-66.785715341567993
31
0
0
LINE
5
263
100
AcDbEntity
8
0
100
AcDbLine
10
47.785714864730835
20
-66.785715341567993
30
0
11
47.785714864730835
21
-67.500000715255737
31
0
0
LINE
5
264
100
AcDbEntity
8
0
100
AcDbLine
10
47.785714864730835
20
-67.500000715255737
30
0
11
47.547619342803955
21
-67.976191759109497
31
0
0
LINE
5
265
100
AcDbEntity
8
0
100
AcDbLine
10
47.547619342803955
20
-67.976191759109497
30
0
11
47.309523820877075
21
-68.214287281036377
31
0
0
LINE
5
266
100
AcDbEntity
8
0
100
AcDbLine
10
47.309523820877075
20
-68.214287281036377
30
0
11
46.595238447189331
21
-68.452381610870361
31
0
0
LINE
5
267
100
AcDbEntity
8
0
100
AcDbLine
10
46.595238447189331
20
-68.452381610870361
30
0
11
44.452381134033203
21
-68.452381610870361
31
0
0
LINE
5
268
100
AcDbEntity
8
0
100
AcDbLine
10
44.690476357936859
20
-72.500001907348633
30
0
11
44.690476357936859
21
-77.500001907348633
31
0
0
LINE
5
269
100
AcDbEntity
8
0
100
AcDbLine
10
44.690476357936859
20
-72.500001907348633
30
0
11
47.785714864730835
21
-72.500001907348633
31
0
0
LINE
5
270
100
AcDbEntity
8
0
100
AcDbLine
10
44.690476357936859
20
-74.880954742431641
30
0
11
46.595238447189331
21
-74.880954742431641
31
0
0
LINE
5
271
100
AcDbEntity
8
0
100
AcDbLine
10
44.690476357936859
20
-77.500001907348633
30
0
11
47.785714864730835
21
-77.500001907348633
31
0
0
LINE
5
272
100
AcDbEntity
8
0
100
AcDbLine
10
44.690476357936859
20
-79.166666984558105
30
0
11
44.690476357936859
21
-84.166666984558105
31
0
0
LINE
5
273
100
AcDbEntity
8
0
100
AcDbLine
10
44.690476357936859
20
-79.166666984558105
30
0
11
47.785714864730835
21
-79.166666984558105
31
0
0
LINE
5
274
100
AcDbEntity
8
0
100
AcDbLine
10
44.690476357936859
20
-81.547619819641113
30
0
11
46.595238447189331
21
-81.547619819641113
31
0
0
LINE
5
275
100
AcDbEntity
8
0
100
AcDbLine
10
44.690476357936859
20
-84.166666984558105
30
0
11
47.785714864730835
21
-84.166666984558105
31
0
0
LWPOLYLINE
5
276
100
AcDbEntity
8
0
100
AcDbPolyline
90
12
70
1
43
0.0
10
44.452381134033203
20
-90.833334445953369
10
44.452381134033203
20
-85.833334445953369
10
46.119047999382019
20
-85.833334445953369
10
46.833333969116211
20
-86.071428775787354
10
47.309523820877075
20
-86.547619819641113
10
47.547619342803955
20
-87.023810863494873
10
47.785714864730835
20
-87.738096237182617
10
47.785714864730835
20
-88.928572654724121
10
47.547619342803955
20
-89.642858028411865
10
47.309523820877075
20
-90.119049072265625
10
46.833333969116211
20
-90.595240116119385
10
46.119047999382019
20
-90.833334445953369
0
LWPOLYLINE
5
277
100
AcDbEntity
8
0
100
AcDbPolyline
90
12
70
1
43
0.0
10
44.452381134033203
20
7.4999992847442654
10
44.452381134033203
20
12.499999284744266
10
46.119047999382019
20
12.499999284744266
10
46.833333969116211
20
12.261903762817386
10
47.309523820877075
20
11.785713911056522
10
47.547619342803955
20
11.309522867202762
10
47.785714864730835
20
10.595237493515018
10
47.785714864730835
20
9.4047610759735143
10
47.547619342803955
20
8.6904757022857702
10
47.309523820877075
20
8.2142846584320104
10
46.833333969116211
20
7.7380948066711452
10
46.119047999382019
20
7.4999992847442654
0
LINE
5
278
100
AcDbEntity
8
0
100
AcDbLine
10
44.333333373069763
20
5.8333330154418972
30
0
11
44.333333373069763
21
0.8333330154418972
31
0
0
LINE
5
279
100
AcDbEntity
8
0
100
AcDbLine
10
44.333333373069763
20
5.8333330154418972
30
0
11
47.666666507720947
21
0.8333330154418972
31
0
0
LINE
5
280
100
AcDbEntity
8
0
100
AcDbLine
10
47.666666507720947
20
5.8333330154418972
30
0
11
47.666666507720947
21
0.8333330154418972
31
0
0
LINE
5
281
100
AcDbEntity
8
0
100
AcDbLine
10
47.666667103767395
20
-1.5476198196411106
30
0
11
47.190476655960083
21
-1.0714287757873509
31
0
0
LINE
5
282
100
AcDbEntity
8
0
100
AcDbLine
10
47.190476655960083
20
-1.0714287757873509
30
0
11
46.476191282272339
21
-0.83333444595336648
31
0
0
LINE
5
283
100
AcDbEntity
8
0
100
AcDbLine
10
46.476191282272339
20
-0.83333444595336648
30
0
11
45.523809790611267
21
-0.83333444595336648
31
0
0
LINE
5
284
100
AcDbEntity
8
0
100
AcDbLine
10
45.523809790611267
20
-0.83333444595336648
30
0
11
44.809524118900299
21
-1.0714287757873509
31
0
0
LINE
5
285
100
AcDbEntity
8
0
100
AcDbLine
10
44.809524118900299
20
-1.0714287757873509
30
0
11
44.333333671092987
21
-1.5476198196411106
31
0
0
LINE
5
286
100
AcDbEntity
8
0
100
AcDbLine
10
44.333333671092987
20
-1.5476198196411106
30
0
11
44.333333671092987
21
-2.0238108634948704
31
0
0
LINE
5
287
100
AcDbEntity
8
0
100
AcDbLine
10
44.333333671092987
20
-2.0238108634948704
30
0
11
44.571428894996643
21
-2.5000019073486301
31
0
0
LINE
5
288
100
AcDbEntity
8
0
100
AcDbLine
10
44.571428894996643
20
-2.5000019073486301
30
0
11
44.809524118900299
21
-2.7380962371826145
31
0
0
LINE
5
289
100
AcDbEntity
8
0
100
AcDbLine
10
44.809524118900299
20
-2.7380962371826145
30
0
11
45.285714864730835
21
-2.9761905670165989
31
0
0
LINE
5
290
100
AcDbEntity
8
0
100
AcDbLine
10
45.285714864730835
20
-2.9761905670165989
30
0
11
46.714286208152771
21
-3.4523816108703587
31
0
0
LINE
5
291
100
AcDbEntity
8
0
100
AcDbLine
10
46.714286208152771
20
-3.4523816108703587
30
0
11
47.190476655960083
21
-3.6904783248901341
31
0
0
LINE
5
292
100
AcDbEntity
8
0
100
AcDbLine
10
47.190476655960083
20
-3.6904783248901341
30
0
11
47.428572177886963
21
-3.9285726547241184
31
0
0
LINE
5
293
100
AcDbEntity
8
0
100
AcDbLine
10
47.428572177886963
20
-3.9285726547241184
30
0
11
47.666667103767395
21
-4.4047636985778782
31
0
0
LINE
5
294
100
AcDbEntity
8
0
100
AcDbLine
10
47.666667103767395
20
-4.4047636985778782
30
0
11
47.666667103767395
21
-5.1190490722656223
31
0
0
LINE
5
295
100
AcDbEntity
8
0
100
AcDbLine
10
47.666667103767395
20
-5.1190490722656223
30
0
11
47.190476655960083
21
-5.5952401161193821
31
0
0
LINE
5
296
100
AcDbEntity
8
0
100
AcDbLine
10
47.190476655960083
20
-5.5952401161193821
30
0
11
46.476191282272339
21
-5.8333344459533665
31
0
0
LINE
5
297
100
AcDbEntity
8
0
100
AcDbLine
10
46.476191282272339
20
-5.8333344459533665
30
0
11
45.523809790611267
21
-5.8333344459533665
31
0
0
LINE
5
298
100
AcDbEntity
8
0
100
AcDbLine
10
45.523809790611267
20
-5.8333344459533665
30
0
11
44.809524118900299
21
-5.5952401161193821
31
0
0
LINE
5
299
100
AcDbEntity
8
0
100
AcDbLine
10
44.809524118900299
20
-5.5952401161193821
30
0
11
44.333333671092987
21
-5.1190490722656223
31
0
0
LINE
5
300
100
AcDbEntity
8
0
100
AcDbLine
10
46.000000238418579
20
-7.5000019073486301
30
0
11
46.000000238418579
21
-12.500001907348629
31
0
0
LINE
5
301
100
AcDbEntity
8
0
100
AcDbLine
10
44.333333671092987
20
-7.5000019073486301
30
0
11
47.666667103767395
21
-7.5000019073486301
31
0
0
ENDSEC
0
SECTION
2
OBJECTS
0
DICTIONARY
5
C
100
AcDbDictionary
3
ACAD_GROUP
350
D
3
ACAD_MLINESTYLE
350
17
0
DICTIONARY
5
D
100
AcDbDictionary
0
DICTIONARY
5
1A
330
C
100
AcDbDictionary
0
DICTIONARY
5
17
100
AcDbDictionary
0
ENDSEC
0
EOF
