ISO-10303-21;
HEADER;
/* Generated by software containing ST-Developer
 * from STEP Tools, Inc. (www.steptools.com) 
 */

FILE_DESCRIPTION(
/* description */ (''),
/* implementation_level */ '2;1');

FILE_NAME(
/* name */ 
'C:/Users/anton/Documents/Kerbal Space Program/Kerbal_Control_Panel/KC
P2/CAD/ForManufacture/LongColumn_v90.step',
/* time_stamp */ '2020-11-13T21:34:02-08:00',
/* author */ (''),
/* organization */ (''),
/* preprocessor_version */ 'ST-DEVELOPER v18.1',
/* originating_system */ 'Autodesk Translation Framework v9.3.0.1241',
/* authorisation */ '');

FILE_SCHEMA (('AUTOMOTIVE_DESIGN { 1 0 10303 214 3 1 1 }'));
ENDSEC;

DATA;
#10=MECHANICAL_DESIGN_GEOMETRIC_PRESENTATION_REPRESENTATION('',(#13),#248);
#11=SHAPE_REPRESENTATION_RELATIONSHIP('SRR','None',#255,#12);
#12=ADVANCED_BREP_SHAPE_REPRESENTATION('',(#14),#247);
#13=STYLED_ITEM('',(#265),#14);
#14=MANIFOLD_SOLID_BREP('Body1',#115);
#15=B_SPLINE_CURVE_WITH_KNOTS('',3,(#202,#203,#204,#205,#206,#207,#208,
#209,#210,#211,#212,#213,#214,#215,#216,#217,#218,#219,#220,#221,#222,#223,
#224,#225,#226,#227,#228,#229,#230,#231,#232,#233,#234,#235,#236,#237,#238,
#239),.UNSPECIFIED.,.T.,.F.,(4,2,2,2,2,2,2,2,2,2,2,2,2,2,2,2,2,2,4),(0.,
0.0672595095755541,0.134519019151108,0.189919620018876,0.21761992045276,
0.245320220886644,0.273020521320527,0.300720821754411,0.356121422622177,
0.423380932197733,0.490640441773289,0.557139170644012,0.623637899514735,
0.667713759108957,0.711789618703179,0.755865478297401,0.799941337891624,
0.866440066762347,0.93293879563307),.UNSPECIFIED.);
#16=CYLINDRICAL_SURFACE('',#137,1.2645);
#17=CYLINDRICAL_SURFACE('',#139,1.2645);
#18=CYLINDRICAL_SURFACE('',#140,5.);
#19=CONICAL_SURFACE('',#135,0.63225,1.02974425867665);
#20=FACE_BOUND('',#36,.T.);
#21=FACE_BOUND('',#41,.T.);
#22=FACE_BOUND('',#43,.T.);
#23=CIRCLE('',#134,1.2645);
#24=CIRCLE('',#136,1.2645);
#25=CIRCLE('',#138,1.2645);
#26=CIRCLE('',#141,5.);
#27=FACE_OUTER_BOUND('',#34,.T.);
#28=FACE_OUTER_BOUND('',#35,.T.);
#29=FACE_OUTER_BOUND('',#37,.T.);
#30=FACE_OUTER_BOUND('',#38,.T.);
#31=FACE_OUTER_BOUND('',#39,.T.);
#32=FACE_OUTER_BOUND('',#40,.T.);
#33=FACE_OUTER_BOUND('',#42,.T.);
#34=EDGE_LOOP('',(#79,#80));
#35=EDGE_LOOP('',(#81,#82,#83));
#36=EDGE_LOOP('',(#84));
#37=EDGE_LOOP('',(#85,#86,#87));
#38=EDGE_LOOP('',(#88,#89,#90,#91));
#39=EDGE_LOOP('',(#92,#93,#94,#95));
#40=EDGE_LOOP('',(#96,#97,#98,#99,#100,#101));
#41=EDGE_LOOP('',(#102));
#42=EDGE_LOOP('',(#103));
#43=EDGE_LOOP('',(#104));
#44=LINE('',#183,#49);
#45=LINE('',#194,#50);
#46=LINE('',#198,#51);
#47=LINE('',#201,#52);
#48=LINE('',#242,#53);
#49=VECTOR('',#149,10.);
#50=VECTOR('',#162,0.63225);
#51=VECTOR('',#167,1.2645);
#52=VECTOR('',#170,1.2645);
#53=VECTOR('',#173,5.);
#54=ELLIPSE('',#130,7.0710678118654,5.);
#55=ELLIPSE('',#132,7.07106781186554,5.);
#56=ELLIPSE('',#133,7.07106781186554,5.);
#57=VERTEX_POINT('',#180);
#58=VERTEX_POINT('',#181);
#59=VERTEX_POINT('',#185);
#60=VERTEX_POINT('',#188);
#61=VERTEX_POINT('',#191);
#62=VERTEX_POINT('',#193);
#63=VERTEX_POINT('',#196);
#64=VERTEX_POINT('',#200);
#65=VERTEX_POINT('',#241);
#66=EDGE_CURVE('',#57,#58,#54,.T.);
#67=EDGE_CURVE('',#58,#57,#44,.T.);
#68=EDGE_CURVE('',#59,#57,#55,.T.);
#69=EDGE_CURVE('',#58,#59,#56,.T.);
#70=EDGE_CURVE('',#60,#60,#23,.T.);
#71=EDGE_CURVE('',#61,#61,#24,.T.);
#72=EDGE_CURVE('',#61,#62,#45,.T.);
#73=EDGE_CURVE('',#63,#63,#25,.T.);
#74=EDGE_CURVE('',#63,#61,#46,.T.);
#75=EDGE_CURVE('',#60,#64,#47,.T.);
#76=EDGE_CURVE('',#64,#64,#15,.T.);
#77=EDGE_CURVE('',#59,#65,#48,.T.);
#78=EDGE_CURVE('',#65,#65,#26,.T.);
#79=ORIENTED_EDGE('',*,*,#66,.F.);
#80=ORIENTED_EDGE('',*,*,#67,.F.);
#81=ORIENTED_EDGE('',*,*,#67,.T.);
#82=ORIENTED_EDGE('',*,*,#68,.F.);
#83=ORIENTED_EDGE('',*,*,#69,.F.);
#84=ORIENTED_EDGE('',*,*,#70,.T.);
#85=ORIENTED_EDGE('',*,*,#71,.F.);
#86=ORIENTED_EDGE('',*,*,#72,.T.);
#87=ORIENTED_EDGE('',*,*,#72,.F.);
#88=ORIENTED_EDGE('',*,*,#73,.F.);
#89=ORIENTED_EDGE('',*,*,#74,.T.);
#90=ORIENTED_EDGE('',*,*,#71,.T.);
#91=ORIENTED_EDGE('',*,*,#74,.F.);
#92=ORIENTED_EDGE('',*,*,#70,.F.);
#93=ORIENTED_EDGE('',*,*,#75,.T.);
#94=ORIENTED_EDGE('',*,*,#76,.F.);
#95=ORIENTED_EDGE('',*,*,#75,.F.);
#96=ORIENTED_EDGE('',*,*,#66,.T.);
#97=ORIENTED_EDGE('',*,*,#69,.T.);
#98=ORIENTED_EDGE('',*,*,#77,.T.);
#99=ORIENTED_EDGE('',*,*,#78,.T.);
#100=ORIENTED_EDGE('',*,*,#77,.F.);
#101=ORIENTED_EDGE('',*,*,#68,.T.);
#102=ORIENTED_EDGE('',*,*,#76,.T.);
#103=ORIENTED_EDGE('',*,*,#78,.F.);
#104=ORIENTED_EDGE('',*,*,#73,.T.);
#105=PLANE('',#129);
#106=PLANE('',#131);
#107=PLANE('',#142);
#108=ADVANCED_FACE('',(#27),#105,.F.);
#109=ADVANCED_FACE('',(#28,#20),#106,.F.);
#110=ADVANCED_FACE('',(#29),#19,.F.);
#111=ADVANCED_FACE('',(#30),#16,.F.);
#112=ADVANCED_FACE('',(#31),#17,.F.);
#113=ADVANCED_FACE('',(#32,#21),#18,.T.);
#114=ADVANCED_FACE('',(#33,#22),#107,.F.);
#115=CLOSED_SHELL('',(#108,#109,#110,#111,#112,#113,#114));
#116=DERIVED_UNIT_ELEMENT(#118,1.);
#117=DERIVED_UNIT_ELEMENT(#250,3.);
#118=(
MASS_UNIT()
NAMED_UNIT(*)
SI_UNIT(.KILO.,.GRAM.)
);
#119=DERIVED_UNIT((#116,#117));
#120=MEASURE_REPRESENTATION_ITEM('density measure',
POSITIVE_RATIO_MEASURE(7850.),#119);
#121=PROPERTY_DEFINITION_REPRESENTATION(#126,#123);
#122=PROPERTY_DEFINITION_REPRESENTATION(#127,#124);
#123=REPRESENTATION('material name',(#125),#247);
#124=REPRESENTATION('density',(#120),#247);
#125=DESCRIPTIVE_REPRESENTATION_ITEM('Steel','Steel');
#126=PROPERTY_DEFINITION('material property','material name',#257);
#127=PROPERTY_DEFINITION('material property','density of part',#257);
#128=AXIS2_PLACEMENT_3D('placement',#178,#143,#144);
#129=AXIS2_PLACEMENT_3D('',#179,#145,#146);
#130=AXIS2_PLACEMENT_3D('',#182,#147,#148);
#131=AXIS2_PLACEMENT_3D('',#184,#150,#151);
#132=AXIS2_PLACEMENT_3D('',#186,#152,#153);
#133=AXIS2_PLACEMENT_3D('',#187,#154,#155);
#134=AXIS2_PLACEMENT_3D('',#189,#156,#157);
#135=AXIS2_PLACEMENT_3D('',#190,#158,#159);
#136=AXIS2_PLACEMENT_3D('',#192,#160,#161);
#137=AXIS2_PLACEMENT_3D('',#195,#163,#164);
#138=AXIS2_PLACEMENT_3D('',#197,#165,#166);
#139=AXIS2_PLACEMENT_3D('',#199,#168,#169);
#140=AXIS2_PLACEMENT_3D('',#240,#171,#172);
#141=AXIS2_PLACEMENT_3D('',#243,#174,#175);
#142=AXIS2_PLACEMENT_3D('',#244,#176,#177);
#143=DIRECTION('axis',(0.,0.,1.));
#144=DIRECTION('refdir',(1.,0.,0.));
#145=DIRECTION('center_axis',(-8.56574189343589E-17,-0.707106781186547,
-0.707106781186548));
#146=DIRECTION('ref_axis',(-1.,1.21137883574844E-16,-1.74315279842105E-32));
#147=DIRECTION('center_axis',(-8.56574189343589E-17,-0.707106781186547,
-0.707106781186548));
#148=DIRECTION('ref_axis',(-8.00553736921376E-31,-0.707106781186548,0.707106781186547));
#149=DIRECTION('',(-1.,1.21137883574844E-16,-2.46519032881566E-32));
#150=DIRECTION('center_axis',(8.5657418934359E-17,0.707106781186547,-0.707106781186548));
#151=DIRECTION('ref_axis',(-8.02478102261406E-17,0.707106781186548,0.707106781186547));
#152=DIRECTION('center_axis',(8.5657418934359E-17,0.707106781186547,-0.707106781186548));
#153=DIRECTION('ref_axis',(-8.0055373692136E-31,-0.707106781186548,-0.707106781186547));
#154=DIRECTION('center_axis',(8.5657418934359E-17,0.707106781186547,-0.707106781186548));
#155=DIRECTION('ref_axis',(-8.0055373692136E-31,-0.707106781186548,-0.707106781186547));
#156=DIRECTION('center_axis',(8.5657418934359E-17,0.707106781186547,-0.707106781186548));
#157=DIRECTION('ref_axis',(1.,0.,1.21137883574844E-16));
#158=DIRECTION('center_axis',(1.21271933336428E-16,-9.38138455808257E-15,
-1.));
#159=DIRECTION('ref_axis',(-1.,0.,-1.21271933336428E-16));
#160=DIRECTION('center_axis',(-1.21271933336428E-16,9.38138455808257E-15,
1.));
#161=DIRECTION('ref_axis',(-1.,0.,-1.21271933336428E-16));
#162=DIRECTION('',(-0.857167300702112,4.72679752367189E-15,0.515038074910054));
#163=DIRECTION('center_axis',(-1.21271933336428E-16,9.38138455808257E-15,
1.));
#164=DIRECTION('ref_axis',(-1.,0.,-1.21271933336428E-16));
#165=DIRECTION('center_axis',(-1.21271933336428E-16,9.38138455808257E-15,
1.));
#166=DIRECTION('ref_axis',(-1.,0.,-1.21271933336428E-16));
#167=DIRECTION('',(-1.21271933336428E-16,9.38138455808257E-15,1.));
#168=DIRECTION('center_axis',(8.5657418934359E-17,0.707106781186547,-0.707106781186548));
#169=DIRECTION('ref_axis',(1.,0.,1.21137883574844E-16));
#170=DIRECTION('',(8.5657418934359E-17,0.707106781186547,-0.707106781186548));
#171=DIRECTION('center_axis',(0.,9.335663421988E-15,1.));
#172=DIRECTION('ref_axis',(-1.,1.13215395216266E-30,0.));
#173=DIRECTION('',(0.,-9.335663421988E-15,-1.));
#174=DIRECTION('center_axis',(-1.21271933336428E-16,9.38138455808257E-15,
1.));
#175=DIRECTION('ref_axis',(-1.,0.,-1.21271933336428E-16));
#176=DIRECTION('center_axis',(-1.21271933336428E-16,9.38138455808257E-15,
1.));
#177=DIRECTION('ref_axis',(-1.,0.,-1.21271933336428E-16));
#178=CARTESIAN_POINT('',(0.,0.,0.));
#179=CARTESIAN_POINT('Origin',(349.089812194997,112.235453804038,77.2566190325386));
#180=CARTESIAN_POINT('',(340.21082414341,112.235453804038,77.2566190325386));
#181=CARTESIAN_POINT('',(349.089812194997,112.235453804038,77.2566190325386));
#182=CARTESIAN_POINT('Origin',(344.650318169204,109.93525972637,79.5568131102074));
#183=CARTESIAN_POINT('',(123.120065196799,112.235453804038,77.2566190325386));
#184=CARTESIAN_POINT('Origin',(-102.849681801399,96.421745305055,61.4429105335552));
#185=CARTESIAN_POINT('',(349.650318169204,109.93525972637,74.9564249548698));
#186=CARTESIAN_POINT('Origin',(344.650318169204,109.93525972637,74.9564249548698));
#187=CARTESIAN_POINT('Origin',(344.650318169204,109.93525972637,74.9564249548698));
#188=CARTESIAN_POINT('',(343.385818169204,107.63925972637,72.6604249548698));
#189=CARTESIAN_POINT('Origin',(344.650318169204,107.63925972637,72.6604249548698));
#190=CARTESIAN_POINT('Origin',(344.650318169204,109.935259726369,-16.0551353483016));
#191=CARTESIAN_POINT('',(345.914818169204,109.935259726369,-16.4350294746818));
#192=CARTESIAN_POINT('Origin',(344.650318169204,109.935259726369,-16.4350294746818));
#193=CARTESIAN_POINT('',(344.650318169204,109.935259726369,-15.6752412219214));
#194=CARTESIAN_POINT('',(345.282568169204,109.935259726369,-16.0551353483016));
#195=CARTESIAN_POINT('Origin',(344.650318169204,109.935259726369,-26.4350294746818));
#196=CARTESIAN_POINT('',(345.914818169204,109.935259726368,-36.4350294746818));
#197=CARTESIAN_POINT('Origin',(344.650318169204,109.935259726368,-36.4350294746818));
#198=CARTESIAN_POINT('',(345.914818169204,109.935259726369,-26.4350294746818));
#199=CARTESIAN_POINT('Origin',(344.650318169204,112.942560585269,67.3571240959707));
#200=CARTESIAN_POINT('',(343.385818169204,114.772721845084,65.5269628361552));
#201=CARTESIAN_POINT('',(343.385818169204,112.942560585269,67.3571240959707));
#202=CARTESIAN_POINT('Ctrl Pts',(343.385818169204,114.772721845084,65.5269628361552));
#203=CARTESIAN_POINT('Ctrl Pts',(343.385818169204,114.772721845084,65.3027644709034));
#204=CARTESIAN_POINT('Ctrl Pts',(343.416795568529,114.781147232944,65.0599841856421));
#205=CARTESIAN_POINT('Ctrl Pts',(343.542864933844,114.811503268855,64.5934622448861));
#206=CARTESIAN_POINT('Ctrl Pts',(343.637691743654,114.833125730536,64.3696289753334));
#207=CARTESIAN_POINT('Ctrl Pts',(343.853779913235,114.872401298925,64.0247585868541));
#208=CARTESIAN_POINT('Ctrl Pts',(343.982350959574,114.892823680635,63.8701115748082));
#209=CARTESIAN_POINT('Ctrl Pts',(344.211660583256,114.916573297575,63.7017162490709));
#210=CARTESIAN_POINT('Ctrl Pts',(344.294130897652,114.923312596656,63.6559300834962));
#211=CARTESIAN_POINT('Ctrl Pts',(344.467296567351,114.932658966898,63.593159536735));
#212=CARTESIAN_POINT('Ctrl Pts',(344.557983834424,114.935259726369,63.5761519052492));
#213=CARTESIAN_POINT('Ctrl Pts',(344.742652503983,114.935259726369,63.5761519052492));
#214=CARTESIAN_POINT('Ctrl Pts',(344.833339771056,114.932658966898,63.5931595367349));
#215=CARTESIAN_POINT('Ctrl Pts',(345.006505440755,114.923312596656,63.6559300834962));
#216=CARTESIAN_POINT('Ctrl Pts',(345.088975755151,114.916573297575,63.7017162490709));
#217=CARTESIAN_POINT('Ctrl Pts',(345.318285378833,114.892823680635,63.8701115748082));
#218=CARTESIAN_POINT('Ctrl Pts',(345.446856425172,114.872401298925,64.024758586854));
#219=CARTESIAN_POINT('Ctrl Pts',(345.662944594754,114.833125730536,64.3696289753334));
#220=CARTESIAN_POINT('Ctrl Pts',(345.757771404563,114.811503268855,64.593462244886));
#221=CARTESIAN_POINT('Ctrl Pts',(345.883840769879,114.781147232944,65.0599841856421));
#222=CARTESIAN_POINT('Ctrl Pts',(345.914818169204,114.772721845084,65.3027644709034));
#223=CARTESIAN_POINT('Ctrl Pts',(345.914818169204,114.772721845084,65.7486252657243));
#224=CARTESIAN_POINT('Ctrl Pts',(345.88423297016,114.781203924863,65.9889771541884));
#225=CARTESIAN_POINT('Ctrl Pts',(345.737087241424,114.816310251879,66.4343331738484));
#226=CARTESIAN_POINT('Ctrl Pts',(345.62005771858,114.842782223163,66.6391942051602));
#227=CARTESIAN_POINT('Ctrl Pts',(345.365005075746,114.884991199303,66.9019092867529));
#228=CARTESIAN_POINT('Ctrl Pts',(345.236649818097,114.902806615165,66.9957281695086));
#229=CARTESIAN_POINT('Ctrl Pts',(344.952773397666,114.928137421227,67.1210994283015));
#230=CARTESIAN_POINT('Ctrl Pts',(344.797237701184,114.935259726369,67.1526980044907));
#231=CARTESIAN_POINT('Ctrl Pts',(344.503398637223,114.935259726369,67.1526980044907));
#232=CARTESIAN_POINT('Ctrl Pts',(344.347862940741,114.928137421227,67.1210994283015));
#233=CARTESIAN_POINT('Ctrl Pts',(344.063986520311,114.902806615165,66.9957281695086));
#234=CARTESIAN_POINT('Ctrl Pts',(343.935631262662,114.884991199303,66.9019092867529));
#235=CARTESIAN_POINT('Ctrl Pts',(343.680578619827,114.842782223163,66.6391942051602));
#236=CARTESIAN_POINT('Ctrl Pts',(343.563549096983,114.816310251879,66.4343331738484));
#237=CARTESIAN_POINT('Ctrl Pts',(343.416403368248,114.781203924863,65.9889771541884));
#238=CARTESIAN_POINT('Ctrl Pts',(343.385818169204,114.772721845084,65.7486252657243));
#239=CARTESIAN_POINT('Ctrl Pts',(343.385818169204,114.772721845084,65.5269628361552));
#240=CARTESIAN_POINT('Origin',(344.650318169204,109.935259726368,-36.4350294746818));
#241=CARTESIAN_POINT('',(349.650318169204,109.935259726368,-36.4350294746818));
#242=CARTESIAN_POINT('',(349.650318169204,109.935259726368,-36.4350294746818));
#243=CARTESIAN_POINT('Origin',(344.650318169204,109.935259726368,-36.4350294746818));
#244=CARTESIAN_POINT('Origin',(344.650318169204,109.935259726368,-36.4350294746818));
#245=UNCERTAINTY_MEASURE_WITH_UNIT(LENGTH_MEASURE(0.01),#249,
'DISTANCE_ACCURACY_VALUE',
'Maximum model space distance between geometric entities at asserted c
onnectivities');
#246=UNCERTAINTY_MEASURE_WITH_UNIT(LENGTH_MEASURE(0.01),#249,
'DISTANCE_ACCURACY_VALUE',
'Maximum model space distance between geometric entities at asserted c
onnectivities');
#247=(
GEOMETRIC_REPRESENTATION_CONTEXT(3)
GLOBAL_UNCERTAINTY_ASSIGNED_CONTEXT((#245))
GLOBAL_UNIT_ASSIGNED_CONTEXT((#249,#251,#252))
REPRESENTATION_CONTEXT('','3D')
);
#248=(
GEOMETRIC_REPRESENTATION_CONTEXT(3)
GLOBAL_UNCERTAINTY_ASSIGNED_CONTEXT((#246))
GLOBAL_UNIT_ASSIGNED_CONTEXT((#249,#251,#252))
REPRESENTATION_CONTEXT('','3D')
);
#249=(
LENGTH_UNIT()
NAMED_UNIT(*)
SI_UNIT(.MILLI.,.METRE.)
);
#250=(
LENGTH_UNIT()
NAMED_UNIT(*)
SI_UNIT($,.METRE.)
);
#251=(
NAMED_UNIT(*)
PLANE_ANGLE_UNIT()
SI_UNIT($,.RADIAN.)
);
#252=(
NAMED_UNIT(*)
SI_UNIT($,.STERADIAN.)
SOLID_ANGLE_UNIT()
);
#253=SHAPE_DEFINITION_REPRESENTATION(#254,#255);
#254=PRODUCT_DEFINITION_SHAPE('',$,#257);
#255=SHAPE_REPRESENTATION('',(#128),#247);
#256=PRODUCT_DEFINITION_CONTEXT('part definition',#261,'design');
#257=PRODUCT_DEFINITION('Long Column','Long Column',#258,#256);
#258=PRODUCT_DEFINITION_FORMATION('',$,#263);
#259=PRODUCT_RELATED_PRODUCT_CATEGORY('Long Column','Long Column',(#263));
#260=APPLICATION_PROTOCOL_DEFINITION('international standard',
'automotive_design',2009,#261);
#261=APPLICATION_CONTEXT(
'Core Data for Automotive Mechanical Design Process');
#262=PRODUCT_CONTEXT('part definition',#261,'mechanical');
#263=PRODUCT('Long Column','Long Column',$,(#262));
#264=PRESENTATION_STYLE_ASSIGNMENT((#266));
#265=PRESENTATION_STYLE_ASSIGNMENT((#267));
#266=SURFACE_STYLE_USAGE(.BOTH.,#268);
#267=SURFACE_STYLE_USAGE(.BOTH.,#269);
#268=SURFACE_SIDE_STYLE('',(#270));
#269=SURFACE_SIDE_STYLE('',(#271));
#270=SURFACE_STYLE_FILL_AREA(#272);
#271=SURFACE_STYLE_FILL_AREA(#273);
#272=FILL_AREA_STYLE('Steel - Satin',(#274));
#273=FILL_AREA_STYLE('Aluminum - Satin',(#275));
#274=FILL_AREA_STYLE_COLOUR('Steel - Satin',#276);
#275=FILL_AREA_STYLE_COLOUR('Aluminum - Satin',#277);
#276=COLOUR_RGB('Steel - Satin',0.627450980392157,0.627450980392157,0.627450980392157);
#277=COLOUR_RGB('Aluminum - Satin',0.96078431372549,0.96078431372549,0.964705882352941);
ENDSEC;
END-ISO-10303-21;
