ISO-10303-21;
HEADER;
FILE_DESCRIPTION(('starvars output'),'2;1');
FILE_NAME('cv20200412105558000012899.stp','10:55:58   2020/04/12',(
   'Thomas Industrial Network Germany GmbH'),(
   'Thomas Industrial Network Germany GmbH'),'unknown preprocess','ACIS'
   ,'unknown authorization');
FILE_SCHEMA(('AUTOMOTIVE_DESIGN_CC2 {UNKNOWN IMPLEMENTATION LEVEL}'));
ENDSEC;
/* ISO 10303-21 file written by STEP Caselib, ProSTEP GmbH, Germany */
DATA;
#1=CARTESIAN_POINT('POINT1',(1.5875E+001,9.72031293346512E-016,
   9.41070000000001E-001));
#2=VERTEX_POINT('VERTEX1',#1);
#3=CARTESIAN_POINT('POINT2',(1.5875E+001,-1.08687372965562E-015,
   -9.4107E-001));
#4=VERTEX_POINT('VERTEX2',#3);
#5=CARTESIAN_POINT('POS1',(1.5875E+001,0.0E+000,9.72031293346512E-016));
#6=DIRECTION('DIR1',(1.0E+000,5.90488697852377E-033,
   6.12303176911189E-017));
#7=DIRECTION('DIR2',(-6.12303176911189E-017,1.03247335428444E-015,
   1.0E+000));
#8=AXIS2_PLACEMENT_3D('AXIS1',#5,#6,#7);
#9=CIRCLE('ELLIPSE1',#8,9.41070000000001E-001);
#10=EDGE_CURVE('EDGE1',#2,#4,#9,.T.);
#11=ORIENTED_EDGE('COEDGE1',*,*,#10,.T.);
#12=EDGE_CURVE('EDGE2',#4,#2,#9,.T.);
#13=ORIENTED_EDGE('COEDGE2',*,*,#12,.T.);
#14=EDGE_LOOP('NONE',(#11,#13));
#15=FACE_BOUND('LOOP1',#14,.T.);
#16=CARTESIAN_POINT('POS2',(1.5875E+001,8.58498038283639E-016,
   -6.2865E-001));
#17=DIRECTION('DIR3',(1.0E+000,0.0E+000,5.55111512312578E-017));
#18=DIRECTION('DIR4',(0.0E+000,1.0E+000,0.0E+000));
#19=AXIS2_PLACEMENT_3D('AXIS2',#16,#17,#18);
#20=PLANE('PLANE1',#19);
#21=ADVANCED_FACE('FACE1',(#15),#20,.T.);
#22=CARTESIAN_POINT('POINT3',(1.555877E+001,9.52668429983049E-016,
   1.2573E+000));
#23=VERTEX_POINT('VERTEX3',#22);
#24=CARTESIAN_POINT('POS3',(1.5716885E+001,1.26948611743177E-015,
   1.099185E+000));
#25=DIRECTION('DIR5',(-7.07106781186546E-001,8.16661655916142E-016,
   7.07106781186549E-001));
#26=VECTOR('VEC1',#25,1.0E+000);
#27=LINE('STRAIGHT1',#24,#26);
#28=EDGE_CURVE('EDGE3',#2,#23,#27,.T.);
#29=ORIENTED_EDGE('COEDGE3',*,*,#28,.T.);
#30=CARTESIAN_POINT('POINT4',(1.555877E+001,-1.45209850520791E-015,
   -1.2573E+000));
#31=VERTEX_POINT('VERTEX4',#30);
#32=CARTESIAN_POINT('POS4',(1.555877E+001,0.0E+000,7.60756457829359E-016
   ));
#33=DIRECTION('DIR6',(-1.0E+000,0.0E+000,0.0E+000));
#34=DIRECTION('DIR7',(0.0E+000,0.0E+000,-1.0E+000));
#35=AXIS2_PLACEMENT_3D('AXIS3',#32,#33,#34);
#36=CIRCLE('ELLIPSE2',#35,1.2573E+000);
#37=EDGE_CURVE('EDGE4',#31,#23,#36,.T.);
#38=ORIENTED_EDGE('COEDGE4',*,*,#37,.F.);
#39=CARTESIAN_POINT('POS5',(1.5716885E+001,-1.26948611743177E-015,
   -1.099185E+000));
#40=DIRECTION('DIR8',(7.07106781186546E-001,8.16661655916142E-016,
   7.07106781186549E-001));
#41=VECTOR('VEC2',#40,1.0E+000);
#42=LINE('STRAIGHT2',#39,#41);
#43=EDGE_CURVE('EDGE5',#31,#4,#42,.T.);
#44=ORIENTED_EDGE('COEDGE5',*,*,#43,.T.);
#45=ORIENTED_EDGE('COEDGE6',*,*,#10,.F.);
#46=EDGE_LOOP('NONE',(#29,#38,#44,#45));
#47=FACE_BOUND('LOOP1',#46,.T.);
#48=CARTESIAN_POINT('POS6',(1.5716885E+001,0.0E+000,
   9.62349861664781E-016));
#49=DIRECTION('DIR9',(-1.0E+000,0.0E+000,-6.12303176911189E-017));
#50=DIRECTION('DIR10',(-6.12303176911189E-017,1.03247335428444E-015,
   1.0E+000));
#51=AXIS2_PLACEMENT_3D('AXIS4',#48,#49,#50);
#52=CONICAL_SURFACE('CONE_SURF1',#51,1.099185E+000,7.8539816339745E-001)
   ;
#53=ADVANCED_FACE('FACE2',(#47),#52,.T.);
#54=ORIENTED_EDGE('COEDGE7',*,*,#28,.F.);
#55=ORIENTED_EDGE('COEDGE8',*,*,#12,.F.);
#56=ORIENTED_EDGE('COEDGE9',*,*,#43,.F.);
#57=EDGE_CURVE('EDGE6',#23,#31,#36,.T.);
#58=ORIENTED_EDGE('COEDGE10',*,*,#57,.F.);
#59=EDGE_LOOP('NONE',(#54,#55,#56,#58));
#60=FACE_BOUND('LOOP1',#59,.T.);
#61=ADVANCED_FACE('FACE3',(#60),#52,.T.);
#62=CARTESIAN_POINT('POINT5',(1.89372875E+000,1.15953612983305E-016,
   -1.2573E+000));
#63=VERTEX_POINT('VERTEX5',#62);
#64=CARTESIAN_POINT('POS7',(8.8646E+000,1.53969756866088E-016,
   -1.2573E+000));
#65=DIRECTION('DIR11',(-1.0E+000,0.0E+000,-5.55111512312578E-017));
#66=VECTOR('VEC3',#65,1.0E+000);
#67=LINE('STRAIGHT3',#64,#66);
#68=EDGE_CURVE('EDGE7',#31,#63,#67,.T.);
#69=ORIENTED_EDGE('COEDGE11',*,*,#68,.F.);
#70=ORIENTED_EDGE('COEDGE12',*,*,#37,.T.);
#71=CARTESIAN_POINT('POINT6',(1.89372875E+000,-2.67500034888718E-016,
   1.2573E+000));
#72=VERTEX_POINT('VERTEX6',#71);
#73=CARTESIAN_POINT('POS8',(8.8646E+000,-1.53969756866088E-016,
   1.2573E+000));
#74=DIRECTION('DIR12',(1.0E+000,-0.0E+000,5.55111512312578E-017));
#75=VECTOR('VEC4',#74,1.0E+000);
#76=LINE('STRAIGHT4',#73,#75);
#77=EDGE_CURVE('EDGE8',#72,#23,#76,.T.);
#78=ORIENTED_EDGE('COEDGE13',*,*,#77,.F.);
#79=CARTESIAN_POINT('POS9',(1.89372875E+000,0.0E+000,
   2.19428641923256E-018));
#80=DIRECTION('DIR13',(1.0E+000,0.0E+000,0.0E+000));
#81=DIRECTION('DIR14',(0.0E+000,0.0E+000,-1.0E+000));
#82=AXIS2_PLACEMENT_3D('AXIS5',#79,#80,#81);
#83=CIRCLE('ELLIPSE3',#82,1.2573E+000);
#84=EDGE_CURVE('EDGE9',#72,#63,#83,.T.);
#85=ORIENTED_EDGE('COEDGE14',*,*,#84,.T.);
#86=EDGE_LOOP('NONE',(#69,#70,#78,#85));
#87=FACE_BOUND('LOOP1',#86,.T.);
#88=CARTESIAN_POINT('POS10',(8.8646E+000,0.0E+000,3.8915537459161E-016))
   ;
#89=DIRECTION('DIR15',(-1.0E+000,0.0E+000,-5.55111512312578E-017));
#90=DIRECTION('DIR16',(5.55111512312578E-017,0.0E+000,-1.0E+000));
#91=AXIS2_PLACEMENT_3D('AXIS6',#88,#89,#90);
#92=CYLINDRICAL_SURFACE('CONE_SURF2',#91,1.2573E+000);
#93=ADVANCED_FACE('FACE4',(#87),#92,.T.);
#94=ORIENTED_EDGE('COEDGE15',*,*,#68,.T.);
#95=EDGE_CURVE('EDGE10',#63,#72,#83,.T.);
#96=ORIENTED_EDGE('COEDGE16',*,*,#95,.T.);
#97=ORIENTED_EDGE('COEDGE17',*,*,#77,.T.);
#98=ORIENTED_EDGE('COEDGE18',*,*,#57,.T.);
#99=EDGE_LOOP('NONE',(#94,#96,#97,#98));
#100=FACE_BOUND('LOOP1',#99,.T.);
#101=ADVANCED_FACE('FACE5',(#100),#92,.T.);
#102=CARTESIAN_POINT('POINT7',(1.8542E+000,1.13533255062873E-016,
   -9.4107E-001));
#103=VERTEX_POINT('VERTEX7',#102);
#104=CARTESIAN_POINT('POS11',(1.873964375E+000,2.33859878986046E-016,
   -1.099185E+000));
#105=DIRECTION('DIR17',(1.24034734589208E-001,2.11114584140785E-016,
   -9.92277876713668E-001));
#106=VECTOR('VEC5',#105,1.0E+000);
#107=LINE('STRAIGHT5',#104,#106);
#108=EDGE_CURVE('EDGE11',#103,#63,#107,.T.);
#109=ORIENTED_EDGE('COEDGE19',*,*,#108,.T.);
#110=ORIENTED_EDGE('COEDGE20',*,*,#84,.F.);
#111=CARTESIAN_POINT('POINT8',(1.8542E+000,-2.00219723083374E-016,
   9.4107E-001));
#112=VERTEX_POINT('VERTEX8',#111);
#113=CARTESIAN_POINT('POS12',(1.873964375E+000,-2.33859878986046E-016,
   1.099185E+000));
#114=DIRECTION('DIR18',(-1.24034734589208E-001,2.11114584140785E-016,
   -9.92277876713668E-001));
#115=VECTOR('VEC6',#114,1.0E+000);
#116=LINE('STRAIGHT6',#113,#115);
#117=EDGE_CURVE('EDGE12',#72,#112,#116,.T.);
#118=ORIENTED_EDGE('COEDGE21',*,*,#117,.T.);
#119=CARTESIAN_POINT('POS13',(1.8542E+000,0.0E+000,1.13533255062873E-016
   ));
#120=DIRECTION('DIR19',(-1.0E+000,0.0E+000,-6.12303176911189E-017));
#121=DIRECTION('DIR20',(6.12303176911189E-017,9.0296888588746E-017,
   -1.0E+000));
#122=AXIS2_PLACEMENT_3D('AXIS7',#119,#120,#121);
#123=CIRCLE('ELLIPSE4',#122,9.4107E-001);
#124=EDGE_CURVE('EDGE13',#103,#112,#123,.T.);
#125=ORIENTED_EDGE('COEDGE22',*,*,#124,.F.);
#126=EDGE_LOOP('NONE',(#109,#110,#118,#125));
#127=FACE_BOUND('LOOP1',#126,.T.);
#128=CARTESIAN_POINT('POS14',(1.873964375E+000,0.0E+000,
   1.14743434023089E-016));
#129=DIRECTION('DIR21',(1.0E+000,0.0E+000,6.12303176911189E-017));
#130=DIRECTION('DIR22',(6.12303176911189E-017,9.0296888588746E-017,
   -1.0E+000));
#131=AXIS2_PLACEMENT_3D('AXIS8',#128,#129,#130);
#132=CONICAL_SURFACE('CONE_SURF3',#131,1.099185E+000,
   1.44644133224814E+000);
#133=ADVANCED_FACE('FACE6',(#127),#132,.T.);
#134=CARTESIAN_POINT('POINT9',(1.1176E+000,1.34731318968327E-016,
   9.16543552338531E-001));
#135=VERTEX_POINT('VERTEX9',#134);
#136=CARTESIAN_POINT('POINT10',(1.64676666666667E+000,0.0E+000,
   3.30464822173582E-017));
#137=VERTEX_POINT('VERTEX10',#136);
#138=CARTESIAN_POINT('POS15',(1.38218333333333E+000,
   5.61202528874349E-017,4.58271776169265E-001));
#139=DIRECTION('DIR23',(5.0E-001,-1.06054021204601E-016,
   -8.66025403784439E-001));
#140=VECTOR('VEC7',#139,1.0E+000);
#141=LINE('STRAIGHT7',#138,#140);
#142=EDGE_CURVE('EDGE14',#135,#137,#141,.T.);
#143=ORIENTED_EDGE('COEDGE23',*,*,#142,.T.);
#144=CARTESIAN_POINT('POINT11',(1.1176E+000,1.68224358933159E-016,
   -9.16543552338531E-001));
#145=VERTEX_POINT('VERTEX11',#144);
#146=CARTESIAN_POINT('POS16',(1.38218333333333E+000,
   -5.61202528874349E-017,-4.58271776169265E-001));
#147=DIRECTION('DIR24',(-5.0E-001,-1.06054021204601E-016,
   -8.66025403784439E-001));
#148=VECTOR('VEC8',#147,1.0E+000);
#149=LINE('STRAIGHT8',#146,#148);
#150=EDGE_CURVE('EDGE15',#137,#145,#149,.T.);
#151=ORIENTED_EDGE('COEDGE24',*,*,#150,.T.);
#152=CARTESIAN_POINT('POINT12',(1.1176E+000,-7.9375E-001,
   -4.58271776169265E-001));
#153=VERTEX_POINT('VERTEX12',#152);
#154=(BOUNDED_CURVE() B_SPLINE_CURVE(2,(#155,#156,#157),.UNSPECIFIED.,
   .F.,.F.) B_SPLINE_CURVE_WITH_KNOTS((3,3),(0.0E+000,
   3.6513629314935E-002),.UNSPECIFIED.) CURVE() 
   GEOMETRIC_REPRESENTATION_ITEM() RATIONAL_B_SPLINE_CURVE((1.0E+000,
   1.15470053837925E+000,1.0E+000)) REPRESENTATION_ITEM('SPLINE_CRV1'));
#155=CARTESIAN_POINT('',(1.1176E+000,7.93115573216596E-016,
   -9.16543552338531E-001));
#156=CARTESIAN_POINT('',(1.24989166666667E+000,-3.96875E-001,
   -6.87407664253898E-001));
#157=CARTESIAN_POINT('',(1.1176E+000,-7.9375E-001,-4.58271776169266E-001
   ));
#158=EDGE_CURVE('EDGE16',#145,#153,#154,.T.);
#159=ORIENTED_EDGE('COEDGE25',*,*,#158,.T.);
#160=CARTESIAN_POINT('POINT13',(1.1176E+000,-7.9375E-001,
   4.58271776169265E-001));
#161=VERTEX_POINT('VERTEX13',#160);
#162=(BOUNDED_CURVE() B_SPLINE_CURVE(2,(#163,#164,#165),.UNSPECIFIED.,
   .F.,.F.) B_SPLINE_CURVE_WITH_KNOTS((3,3),(0.0E+000,
   3.6513629314935E-002),.UNSPECIFIED.) CURVE() 
   GEOMETRIC_REPRESENTATION_ITEM() RATIONAL_B_SPLINE_CURVE((1.0E+000,
   1.15470053837925E+000,1.0E+000)) REPRESENTATION_ITEM('SPLINE_CRV2'));
#163=CARTESIAN_POINT('',(1.1176E+000,-7.9375E-001,-4.58271776169266E-001
   ));
#164=CARTESIAN_POINT('',(1.24989166666667E+000,-7.9375E-001,
   3.42292821299543E-017));
#165=CARTESIAN_POINT('',(1.1176E+000,-7.9375E-001,4.58271776169265E-001)
   );
#166=EDGE_CURVE('EDGE17',#153,#161,#162,.T.);
#167=ORIENTED_EDGE('COEDGE26',*,*,#166,.T.);
#168=(BOUNDED_CURVE() B_SPLINE_CURVE(2,(#169,#170,#171),.UNSPECIFIED.,
   .F.,.F.) B_SPLINE_CURVE_WITH_KNOTS((3,3),(0.0E+000,
   3.6513629314935E-002),.UNSPECIFIED.) CURVE() 
   GEOMETRIC_REPRESENTATION_ITEM() RATIONAL_B_SPLINE_CURVE((1.0E+000,
   1.15470053837925E+000,1.0E+000)) REPRESENTATION_ITEM('SPLINE_CRV3'));
#169=CARTESIAN_POINT('',(1.1176E+000,-7.9375E-001,4.58271776169265E-001)
   );
#170=CARTESIAN_POINT('',(1.24989166666667E+000,-3.96875E-001,
   6.87407664253898E-001));
#171=CARTESIAN_POINT('',(1.1176E+000,-4.8468173918792E-016,
   9.16543552338531E-001));
#172=EDGE_CURVE('EDGE18',#161,#135,#168,.T.);
#173=ORIENTED_EDGE('COEDGE27',*,*,#172,.T.);
#174=EDGE_LOOP('NONE',(#143,#151,#159,#167,#173));
#175=FACE_BOUND('LOOP1',#174,.T.);
#176=CARTESIAN_POINT('POS17',(1.38218333333333E+000,0.0E+000,
   1.65232411086791E-017));
#177=DIRECTION('DIR25',(-1.0E+000,0.0E+000,-6.24500451351651E-017));
#178=DIRECTION('DIR26',(6.24500451351651E-017,0.0E+000,-1.0E+000));
#179=AXIS2_PLACEMENT_3D('AXIS9',#176,#177,#178);
#180=CONICAL_SURFACE('CONE_SURF4',#179,4.58271776169265E-001,
   1.0471975511966E+000);
#181=ADVANCED_FACE('FACE7',(#175),#180,.F.);
#182=ORIENTED_EDGE('COEDGE28',*,*,#142,.F.);
#183=CARTESIAN_POINT('POINT14',(1.1176E+000,7.9375E-001,
   4.58271776169265E-001));
#184=VERTEX_POINT('VERTEX14',#183);
#185=(BOUNDED_CURVE() B_SPLINE_CURVE(2,(#186,#187,#188),.UNSPECIFIED.,
   .F.,.F.) B_SPLINE_CURVE_WITH_KNOTS((3,3),(0.0E+000,
   3.6513629314935E-002),.UNSPECIFIED.) CURVE() 
   GEOMETRIC_REPRESENTATION_ITEM() RATIONAL_B_SPLINE_CURVE((1.0E+000,
   1.15470053837925E+000,1.0E+000)) REPRESENTATION_ITEM('SPLINE_CRV4'));
#186=CARTESIAN_POINT('',(1.1176E+000,-1.32185928869433E-016,
   9.16543552338531E-001));
#187=CARTESIAN_POINT('',(1.24989166666667E+000,3.96875E-001,
   6.87407664253898E-001));
#188=CARTESIAN_POINT('',(1.1176E+000,7.9375E-001,4.58271776169266E-001))
   ;
#189=EDGE_CURVE('EDGE19',#135,#184,#185,.T.);
#190=ORIENTED_EDGE('COEDGE29',*,*,#189,.T.);
#191=CARTESIAN_POINT('POINT15',(1.1176E+000,7.9375E-001,
   -4.58271776169266E-001));
#192=VERTEX_POINT('VERTEX15',#191);
#193=(BOUNDED_CURVE() B_SPLINE_CURVE(2,(#194,#195,#196),.UNSPECIFIED.,
   .F.,.F.) B_SPLINE_CURVE_WITH_KNOTS((3,3),(0.0E+000,
   3.6513629314935E-002),.UNSPECIFIED.) CURVE() 
   GEOMETRIC_REPRESENTATION_ITEM() RATIONAL_B_SPLINE_CURVE((1.0E+000,
   1.15470053837925E+000,1.0E+000)) REPRESENTATION_ITEM('SPLINE_CRV5'));
#194=CARTESIAN_POINT('',(1.1176E+000,7.9375E-001,4.58271776169266E-001))
   ;
#195=CARTESIAN_POINT('',(1.24989166666667E+000,7.9375E-001,
   4.40619762898109E-017));
#196=CARTESIAN_POINT('',(1.1176E+000,7.9375E-001,-4.58271776169265E-001)
   );
#197=EDGE_CURVE('EDGE20',#184,#192,#193,.T.);
#198=ORIENTED_EDGE('COEDGE30',*,*,#197,.T.);
#199=(BOUNDED_CURVE() B_SPLINE_CURVE(2,(#200,#201,#202),.UNSPECIFIED.,
   .F.,.F.) B_SPLINE_CURVE_WITH_KNOTS((3,3),(0.0E+000,
   3.6513629314935E-002),.UNSPECIFIED.) CURVE() 
   GEOMETRIC_REPRESENTATION_ITEM() RATIONAL_B_SPLINE_CURVE((1.0E+000,
   1.15470053837924E+000,1.0E+000)) REPRESENTATION_ITEM('SPLINE_CRV6'));
#200=CARTESIAN_POINT('',(1.1176E+000,7.93750000000001E-001,
   -4.58271776169265E-001));
#201=CARTESIAN_POINT('',(1.24989166666667E+000,3.96875000000001E-001,
   -6.87407664253898E-001));
#202=CARTESIAN_POINT('',(1.1176E+000,8.81239525796218E-016,
   -9.16543552338531E-001));
#203=EDGE_CURVE('EDGE21',#192,#145,#199,.T.);
#204=ORIENTED_EDGE('COEDGE31',*,*,#203,.T.);
#205=ORIENTED_EDGE('COEDGE32',*,*,#150,.F.);
#206=EDGE_LOOP('NONE',(#182,#190,#198,#204,#205));
#207=FACE_BOUND('LOOP1',#206,.T.);
#208=ADVANCED_FACE('FACE8',(#207),#180,.F.);
#209=ORIENTED_EDGE('COEDGE33',*,*,#108,.F.);
#210=EDGE_CURVE('EDGE22',#112,#103,#123,.T.);
#211=ORIENTED_EDGE('COEDGE34',*,*,#210,.F.);
#212=ORIENTED_EDGE('COEDGE35',*,*,#117,.F.);
#213=ORIENTED_EDGE('COEDGE36',*,*,#95,.F.);
#214=EDGE_LOOP('NONE',(#209,#211,#212,#213));
#215=FACE_BOUND('LOOP1',#214,.T.);
#216=ADVANCED_FACE('FACE9',(#215),#132,.T.);
#217=CARTESIAN_POINT('POINT16',(1.81467125E+000,1.1111289714244E-016,
   -1.2573E+000));
#218=VERTEX_POINT('VERTEX16',#217);
#219=CARTESIAN_POINT('POS18',(1.834435625E+000,2.33859878986046E-016,
   -1.099185E+000));
#220=DIRECTION('DIR27',(1.24034734589208E-001,-2.11114584140785E-016,
   9.92277876713668E-001));
#221=VECTOR('VEC9',#220,1.0E+000);
#222=LINE('STRAIGHT9',#219,#221);
#223=EDGE_CURVE('EDGE23',#218,#103,#222,.T.);
#224=ORIENTED_EDGE('COEDGE37',*,*,#223,.T.);
#225=ORIENTED_EDGE('COEDGE38',*,*,#124,.T.);
#226=CARTESIAN_POINT('POINT17',(1.81467125E+000,-2.67500034888718E-016,
   1.2573E+000));
#227=VERTEX_POINT('VERTEX17',#226);
#228=CARTESIAN_POINT('POS19',(1.834435625E+000,-2.33859878986046E-016,
   1.099185E+000));
#229=DIRECTION('DIR28',(-1.24034734589208E-001,-2.11114584140785E-016,
   9.92277876713668E-001));
#230=VECTOR('VEC10',#229,1.0E+000);
#231=LINE('STRAIGHT10',#228,#230);
#232=EDGE_CURVE('EDGE24',#112,#227,#231,.T.);
#233=ORIENTED_EDGE('COEDGE39',*,*,#232,.T.);
#234=CARTESIAN_POINT('POS20',(1.81467125E+000,0.0E+000,
   1.1111289714244E-016));
#235=DIRECTION('DIR29',(-1.0E+000,0.0E+000,-6.12303176911189E-017));
#236=DIRECTION('DIR30',(6.12303176911189E-017,9.0296888588746E-017,
   -1.0E+000));
#237=AXIS2_PLACEMENT_3D('AXIS10',#234,#235,#236);
#238=CIRCLE('ELLIPSE5',#237,1.2573E+000);
#239=EDGE_CURVE('EDGE25',#218,#227,#238,.T.);
#240=ORIENTED_EDGE('COEDGE40',*,*,#239,.F.);
#241=EDGE_LOOP('NONE',(#224,#225,#233,#240));
#242=FACE_BOUND('LOOP1',#241,.T.);
#243=CARTESIAN_POINT('POS21',(1.834435625E+000,0.0E+000,
   1.12323076102656E-016));
#244=DIRECTION('DIR31',(-1.0E+000,0.0E+000,-6.12303176911189E-017));
#245=DIRECTION('DIR32',(6.12303176911189E-017,9.0296888588746E-017,
   -1.0E+000));
#246=AXIS2_PLACEMENT_3D('AXIS11',#243,#244,#245);
#247=CONICAL_SURFACE('CONE_SURF5',#246,1.099185E+000,
   1.44644133224814E+000);
#248=ADVANCED_FACE('FACE10',(#242),#247,.T.);
#249=CARTESIAN_POINT('POINT18',(1.22793552338531E-001,
   3.96875000000001E-001,-6.87407664253898E-001));
#250=VERTEX_POINT('VERTEX18',#249);
#251=CARTESIAN_POINT('POINT19',(3.52495810318487E-016,
   -8.81239525796218E-017,-9.16543552338531E-001));
#252=VERTEX_POINT('VERTEX19',#251);
#253=(BOUNDED_CURVE() B_SPLINE_CURVE(2,(#254,#255,#256),.UNSPECIFIED.,
   .F.,.F.) B_SPLINE_CURVE_WITH_KNOTS((3,3),(1.88092525153058E-002,
   3.76185050306117E-002),.UNSPECIFIED.) CURVE() 
   GEOMETRIC_REPRESENTATION_ITEM() RATIONAL_B_SPLINE_CURVE((1.0E+000,
   1.03795484930205E+000,1.0E+000)) REPRESENTATION_ITEM('SPLINE_CRV7'));
#254=CARTESIAN_POINT('',(1.22793552338531E-001,3.96875000000001E-001,
   -6.87407664253898E-001));
#255=CARTESIAN_POINT('',(1.22793552338531E-001,2.12684671492204E-001,
   -7.9375E-001));
#256=CARTESIAN_POINT('',(-1.54216917014338E-016,5.66705806261157E-016,
   -9.16543552338531E-001));
#257=EDGE_CURVE('EDGE26',#250,#252,#253,.T.);
#258=ORIENTED_EDGE('COEDGE41',*,*,#257,.T.);
#259=CARTESIAN_POINT('POS22',(5.588E-001,4.40619762898109E-017,
   -9.16543552338531E-001));
#260=DIRECTION('DIR33',(1.0E+000,0.0E+000,6.24500451351651E-017));
#261=VECTOR('VEC11',#260,2.54E+001);
#262=LINE('STRAIGHT11',#259,#261);
#263=EDGE_CURVE('EDGE27',#252,#145,#262,.T.);
#264=ORIENTED_EDGE('COEDGE42',*,*,#263,.T.);
#265=ORIENTED_EDGE('COEDGE43',*,*,#203,.F.);
#266=CARTESIAN_POINT('POINT20',(0.0E+000,7.9375E-001,
   -4.58271776169266E-001));
#267=VERTEX_POINT('VERTEX20',#266);
#268=CARTESIAN_POINT('POS23',(5.588E-001,7.9375E-001,
   -4.58271776169265E-001));
#269=DIRECTION('DIR34',(-1.0E+000,0.0E+000,-6.24500451351651E-017));
#270=VECTOR('VEC12',#269,2.54E+001);
#271=LINE('STRAIGHT12',#268,#270);
#272=EDGE_CURVE('EDGE28',#192,#267,#271,.T.);
#273=ORIENTED_EDGE('COEDGE44',*,*,#272,.T.);
#274=(BOUNDED_CURVE() B_SPLINE_CURVE(2,(#275,#276,#277),.UNSPECIFIED.,
   .F.,.F.) B_SPLINE_CURVE_WITH_KNOTS((3,3),(0.0E+000,
   1.88092525153058E-002),.UNSPECIFIED.) CURVE() 
   GEOMETRIC_REPRESENTATION_ITEM() RATIONAL_B_SPLINE_CURVE((1.0E+000,
   1.03795484930204E+000,1.0E+000)) REPRESENTATION_ITEM('SPLINE_CRV8'));
#275=CARTESIAN_POINT('',(-2.20309881449055E-016,7.93750000000001E-001,
   -4.58271776169265E-001));
#276=CARTESIAN_POINT('',(1.22793552338531E-001,5.81065328507797E-001,
   -5.81065328507796E-001));
#277=CARTESIAN_POINT('',(1.22793552338531E-001,3.96875000000001E-001,
   -6.87407664253898E-001));
#278=EDGE_CURVE('EDGE29',#267,#250,#274,.T.);
#279=ORIENTED_EDGE('COEDGE45',*,*,#278,.T.);
#280=EDGE_LOOP('NONE',(#258,#264,#265,#273,#279));
#281=FACE_BOUND('LOOP1',#280,.T.);
#282=CARTESIAN_POINT('POS24',(1.8542E+000,7.9375E-001,
   -4.58271776169265E-001));
#283=DIRECTION('DIR35',(-2.35922392732846E-016,-5.00000000000001E-001,
   8.66025403784438E-001));
#284=DIRECTION('DIR36',(1.0E+000,-1.17961196366423E-016,
   2.04314785428254E-016));
#285=AXIS2_PLACEMENT_3D('AXIS12',#282,#283,#284);
#286=PLANE('PLANE2',#285);
#287=ADVANCED_FACE('FACE11',(#281),#286,.T.);
#288=CARTESIAN_POINT('POINT21',(1.22793552338531E-001,-3.96875E-001,
   -6.87407664253899E-001));
#289=VERTEX_POINT('VERTEX21',#288);
#290=CARTESIAN_POINT('POINT22',(0.0E+000,-7.9375E-001,
   -4.58271776169265E-001));
#291=VERTEX_POINT('VERTEX22',#290);
#292=(BOUNDED_CURVE() B_SPLINE_CURVE(2,(#293,#294,#295),.UNSPECIFIED.,
   .F.,.F.) B_SPLINE_CURVE_WITH_KNOTS((3,3),(1.88092525153059E-002,
   3.76185050306117E-002),.UNSPECIFIED.) CURVE() 
   GEOMETRIC_REPRESENTATION_ITEM() RATIONAL_B_SPLINE_CURVE((1.0E+000,
   1.03795484930205E+000,1.0E+000)) REPRESENTATION_ITEM('SPLINE_CRV9'));
#293=CARTESIAN_POINT('',(1.22793552338531E-001,-3.96875E-001,
   -6.87407664253899E-001));
#294=CARTESIAN_POINT('',(1.22793552338531E-001,-5.81065328507796E-001,
   -5.81065328507796E-001));
#295=CARTESIAN_POINT('',(-2.75387351811318E-016,-7.9375E-001,
   -4.58271776169266E-001));
#296=EDGE_CURVE('EDGE30',#289,#291,#292,.T.);
#297=ORIENTED_EDGE('COEDGE46',*,*,#296,.T.);
#298=CARTESIAN_POINT('POS25',(5.588E-001,-7.9375E-001,
   -4.58271776169266E-001));
#299=DIRECTION('DIR37',(1.0E+000,0.0E+000,6.24500451351651E-017));
#300=VECTOR('VEC13',#299,2.54E+001);
#301=LINE('STRAIGHT13',#298,#300);
#302=EDGE_CURVE('EDGE31',#291,#153,#301,.T.);
#303=ORIENTED_EDGE('COEDGE47',*,*,#302,.T.);
#304=ORIENTED_EDGE('COEDGE48',*,*,#158,.F.);
#305=ORIENTED_EDGE('COEDGE49',*,*,#263,.F.);
#306=(BOUNDED_CURVE() B_SPLINE_CURVE(2,(#307,#308,#309),.UNSPECIFIED.,
   .F.,.F.) B_SPLINE_CURVE_WITH_KNOTS((3,3),(0.0E+000,
   1.88092525153059E-002),.UNSPECIFIED.) CURVE() 
   GEOMETRIC_REPRESENTATION_ITEM() RATIONAL_B_SPLINE_CURVE((1.0E+000,
   1.03795484930205E+000,1.0E+000)) REPRESENTATION_ITEM('SPLINE_CRV10'))
   ;
#307=CARTESIAN_POINT('',(-1.87263399231696E-016,1.41676451565289E-015,
   -9.16543552338531E-001));
#308=CARTESIAN_POINT('',(1.22793552338531E-001,-2.12684671492202E-001,
   -7.93750000000001E-001));
#309=CARTESIAN_POINT('',(1.22793552338531E-001,-3.96875E-001,
   -6.87407664253899E-001));
#310=EDGE_CURVE('EDGE32',#252,#289,#306,.T.);
#311=ORIENTED_EDGE('COEDGE50',*,*,#310,.T.);
#312=EDGE_LOOP('NONE',(#297,#303,#304,#305,#311));
#313=FACE_BOUND('LOOP1',#312,.T.);
#314=CARTESIAN_POINT('POS26',(1.8542E+000,3.52495810318487E-016,
   -9.16543552338531E-001));
#315=DIRECTION('DIR38',(-2.35922392732846E-016,5.0E-001,
   8.66025403784439E-001));
#316=DIRECTION('DIR39',(1.0E+000,1.17961196366423E-016,
   2.04314785428254E-016));
#317=AXIS2_PLACEMENT_3D('AXIS13',#314,#315,#316);
#318=PLANE('PLANE3',#317);
#319=ADVANCED_FACE('FACE12',(#313),#318,.T.);
#320=CARTESIAN_POINT('POINT23',(1.22793552338531E-001,-7.9375E-001,
   -5.76737044505325E-016));
#321=VERTEX_POINT('VERTEX23',#320);
#322=CARTESIAN_POINT('POINT24',(0.0E+000,-7.9375E-001,
   4.58271776169265E-001));
#323=VERTEX_POINT('VERTEX24',#322);
#324=(BOUNDED_CURVE() B_SPLINE_CURVE(2,(#325,#326,#327),.UNSPECIFIED.,
   .F.,.F.) B_SPLINE_CURVE_WITH_KNOTS((3,3),(1.88092525153058E-002,
   3.76185050306116E-002),.UNSPECIFIED.) CURVE() 
   GEOMETRIC_REPRESENTATION_ITEM() RATIONAL_B_SPLINE_CURVE((1.0E+000,
   1.03795484930203E+000,1.0E+000)) REPRESENTATION_ITEM('SPLINE_CRV11'))
   ;
#325=CARTESIAN_POINT('',(1.22793552338531E-001,-7.9375E-001,
   -5.76737044505325E-016));
#326=CARTESIAN_POINT('',(1.22793552338531E-001,-7.9375E-001,
   2.12684671492202E-001));
#327=CARTESIAN_POINT('',(-3.08433834028676E-016,-7.9375E-001,
   4.58271776169265E-001));
#328=EDGE_CURVE('EDGE33',#321,#323,#324,.T.);
#329=ORIENTED_EDGE('COEDGE51',*,*,#328,.T.);
#330=CARTESIAN_POINT('POS27',(5.588E-001,-7.9375E-001,
   4.58271776169265E-001));
#331=DIRECTION('DIR40',(1.0E+000,0.0E+000,6.24500451351651E-017));
#332=VECTOR('VEC14',#331,2.54E+001);
#333=LINE('STRAIGHT14',#330,#332);
#334=EDGE_CURVE('EDGE34',#323,#161,#333,.T.);
#335=ORIENTED_EDGE('COEDGE52',*,*,#334,.T.);
#336=ORIENTED_EDGE('COEDGE53',*,*,#166,.F.);
#337=ORIENTED_EDGE('COEDGE54',*,*,#302,.F.);
#338=(BOUNDED_CURVE() B_SPLINE_CURVE(2,(#339,#340,#341),.UNSPECIFIED.,
   .F.,.F.) B_SPLINE_CURVE_WITH_KNOTS((3,3),(0.0E+000,
   1.88092525153058E-002),.UNSPECIFIED.) CURVE() 
   GEOMETRIC_REPRESENTATION_ITEM() RATIONAL_B_SPLINE_CURVE((1.0E+000,
   1.03795484930205E+000,1.0E+000)) REPRESENTATION_ITEM('SPLINE_CRV12'))
   ;
#339=CARTESIAN_POINT('',(-1.54216917014338E-016,-7.9375E-001,
   -4.58271776169266E-001));
#340=CARTESIAN_POINT('',(1.22793552338531E-001,-7.9375E-001,
   -2.12684671492204E-001));
#341=CARTESIAN_POINT('',(1.22793552338531E-001,-7.9375E-001,
   -5.76737044505325E-016));
#342=EDGE_CURVE('EDGE35',#291,#321,#338,.T.);
#343=ORIENTED_EDGE('COEDGE55',*,*,#342,.T.);
#344=EDGE_LOOP('NONE',(#329,#335,#336,#337,#343));
#345=FACE_BOUND('LOOP1',#344,.T.);
#346=CARTESIAN_POINT('POS28',(1.8542E+000,-7.9375E-001,
   -4.58271776169266E-001));
#347=DIRECTION('DIR41',(-1.80411241501588E-016,1.0E+000,
   3.56546391095884E-016));
#348=DIRECTION('DIR42',(1.0E+000,1.80411241501588E-016,
   6.43249770705192E-032));
#349=AXIS2_PLACEMENT_3D('AXIS14',#346,#347,#348);
#350=PLANE('PLANE4',#349);
#351=ADVANCED_FACE('FACE13',(#345),#350,.T.);
#352=CARTESIAN_POINT('POINT25',(1.22793552338531E-001,-3.96875E-001,
   6.87407664253898E-001));
#353=VERTEX_POINT('VERTEX25',#352);
#354=(BOUNDED_CURVE() B_SPLINE_CURVE(2,(#355,#356,#357),.UNSPECIFIED.,
   .F.,.F.) B_SPLINE_CURVE_WITH_KNOTS((3,3),(0.0E+000,
   1.88092525153058E-002),.UNSPECIFIED.) CURVE() 
   GEOMETRIC_REPRESENTATION_ITEM() RATIONAL_B_SPLINE_CURVE((1.0E+000,
   1.03795484930201E+000,1.0E+000)) REPRESENTATION_ITEM('SPLINE_CRV13'))
   ;
#355=CARTESIAN_POINT('',(-2.31325375521507E-016,-7.9375E-001,
   4.58271776169265E-001));
#356=CARTESIAN_POINT('',(1.22793552338531E-001,-5.81065328507796E-001,
   5.81065328507797E-001));
#357=CARTESIAN_POINT('',(1.22793552338531E-001,-3.96875E-001,
   6.87407664253898E-001));
#358=EDGE_CURVE('EDGE36',#323,#353,#354,.T.);
#359=ORIENTED_EDGE('COEDGE56',*,*,#358,.T.);
#360=CARTESIAN_POINT('POINT26',(0.0E+000,4.40619762898109E-016,
   9.16543552338531E-001));
#361=VERTEX_POINT('VERTEX26',#360);
#362=(BOUNDED_CURVE() B_SPLINE_CURVE(2,(#363,#364,#365),.UNSPECIFIED.,
   .F.,.F.) B_SPLINE_CURVE_WITH_KNOTS((3,3),(1.88092525153058E-002,
   3.76185050306116E-002),.UNSPECIFIED.) CURVE() 
   GEOMETRIC_REPRESENTATION_ITEM() RATIONAL_B_SPLINE_CURVE((1.0E+000,
   1.03795484930202E+000,1.0E+000)) REPRESENTATION_ITEM('SPLINE_CRV14'))
   ;
#363=CARTESIAN_POINT('',(1.22793552338531E-001,-3.96875E-001,
   6.87407664253898E-001));
#364=CARTESIAN_POINT('',(1.22793552338531E-001,-2.12684671492205E-001,
   7.93749999999999E-001));
#365=CARTESIAN_POINT('',(-2.53356363666413E-016,-9.44509677101928E-016,
   9.1654355233853E-001));
#366=EDGE_CURVE('EDGE37',#353,#361,#362,.T.);
#367=ORIENTED_EDGE('COEDGE57',*,*,#366,.T.);
#368=CARTESIAN_POINT('POS29',(5.588E-001,-8.81239525796218E-017,
   9.16543552338531E-001));
#369=DIRECTION('DIR43',(1.0E+000,0.0E+000,6.24500451351651E-017));
#370=VECTOR('VEC15',#369,2.54E+001);
#371=LINE('STRAIGHT15',#368,#370);
#372=EDGE_CURVE('EDGE38',#361,#135,#371,.T.);
#373=ORIENTED_EDGE('COEDGE58',*,*,#372,.T.);
#374=ORIENTED_EDGE('COEDGE59',*,*,#172,.F.);
#375=ORIENTED_EDGE('COEDGE60',*,*,#334,.F.);
#376=EDGE_LOOP('NONE',(#359,#367,#373,#374,#375));
#377=FACE_BOUND('LOOP1',#376,.T.);
#378=CARTESIAN_POINT('POS30',(1.8542E+000,-7.9375E-001,
   4.58271776169265E-001));
#379=DIRECTION('DIR44',(-1.2490009027033E-016,5.0E-001,
   -8.66025403784438E-001));
#380=DIRECTION('DIR45',(1.0E+000,6.24500451351651E-017,
   -1.08166651109075E-016));
#381=AXIS2_PLACEMENT_3D('AXIS15',#378,#379,#380);
#382=PLANE('PLANE5',#381);
#383=ADVANCED_FACE('FACE14',(#377),#382,.T.);
#384=CARTESIAN_POINT('POINT27',(1.22793552338531E-001,3.96875E-001,
   6.87407664253898E-001));
#385=VERTEX_POINT('VERTEX27',#384);
#386=(BOUNDED_CURVE() B_SPLINE_CURVE(2,(#387,#388,#389),.UNSPECIFIED.,
   .F.,.F.) B_SPLINE_CURVE_WITH_KNOTS((3,3),(0.0E+000,
   1.88092525153058E-002),.UNSPECIFIED.) CURVE() 
   GEOMETRIC_REPRESENTATION_ITEM() RATIONAL_B_SPLINE_CURVE((1.0E+000,
   1.03795484930203E+000,1.0E+000)) REPRESENTATION_ITEM('SPLINE_CRV15'))
   ;
#387=CARTESIAN_POINT('',(-3.30464822173582E-016,2.83352903130579E-016,
   9.16543552338531E-001));
#388=CARTESIAN_POINT('',(1.22793552338531E-001,2.12684671492205E-001,
   7.93749999999999E-001));
#389=CARTESIAN_POINT('',(1.22793552338531E-001,3.96875E-001,
   6.87407664253898E-001));
#390=EDGE_CURVE('EDGE39',#361,#385,#386,.T.);
#391=ORIENTED_EDGE('COEDGE61',*,*,#390,.T.);
#392=CARTESIAN_POINT('POINT28',(0.0E+000,7.9375E-001,
   4.58271776169265E-001));
#393=VERTEX_POINT('VERTEX28',#392);
#394=(BOUNDED_CURVE() B_SPLINE_CURVE(2,(#395,#396,#397),.UNSPECIFIED.,
   .F.,.F.) B_SPLINE_CURVE_WITH_KNOTS((3,3),(1.88092525153058E-002,
   3.76185050306116E-002),.UNSPECIFIED.) CURVE() 
   GEOMETRIC_REPRESENTATION_ITEM() RATIONAL_B_SPLINE_CURVE((1.0E+000,
   1.03795484930202E+000,1.0E+000)) REPRESENTATION_ITEM('SPLINE_CRV16'))
   ;
#395=CARTESIAN_POINT('',(1.22793552338531E-001,3.96875E-001,
   6.87407664253898E-001));
#396=CARTESIAN_POINT('',(1.22793552338531E-001,5.81065328507795E-001,
   5.81065328507797E-001));
#397=CARTESIAN_POINT('',(-2.97418339956224E-016,7.9375E-001,
   4.58271776169266E-001));
#398=EDGE_CURVE('EDGE40',#385,#393,#394,.T.);
#399=ORIENTED_EDGE('COEDGE62',*,*,#398,.T.);
#400=CARTESIAN_POINT('POS31',(5.588E-001,7.9375E-001,
   4.58271776169265E-001));
#401=DIRECTION('DIR46',(1.0E+000,0.0E+000,6.24500451351651E-017));
#402=VECTOR('VEC16',#401,2.54E+001);
#403=LINE('STRAIGHT16',#400,#402);
#404=EDGE_CURVE('EDGE41',#393,#184,#403,.T.);
#405=ORIENTED_EDGE('COEDGE63',*,*,#404,.T.);
#406=ORIENTED_EDGE('COEDGE64',*,*,#189,.F.);
#407=ORIENTED_EDGE('COEDGE65',*,*,#372,.F.);
#408=EDGE_LOOP('NONE',(#391,#399,#405,#406,#407));
#409=FACE_BOUND('LOOP1',#408,.T.);
#410=CARTESIAN_POINT('POS32',(1.8542E+000,-4.40619762898109E-017,
   9.16543552338531E-001));
#411=DIRECTION('DIR47',(-1.2490009027033E-016,-5.0E-001,
   -8.66025403784439E-001));
#412=DIRECTION('DIR48',(1.0E+000,-6.2450045135165E-017,
   -1.08166651109075E-016));
#413=AXIS2_PLACEMENT_3D('AXIS16',#410,#411,#412);
#414=PLANE('PLANE6',#413);
#415=ADVANCED_FACE('FACE15',(#409),#414,.T.);
#416=CARTESIAN_POINT('POINT29',(1.22793552338531E-001,7.9375E-001,
   -2.68303210476649E-016));
#417=VERTEX_POINT('VERTEX29',#416);
#418=(BOUNDED_CURVE() B_SPLINE_CURVE(2,(#419,#420,#421),.UNSPECIFIED.,
   .F.,.F.) B_SPLINE_CURVE_WITH_KNOTS((3,3),(0.0E+000,
   1.88092525153058E-002),.UNSPECIFIED.) CURVE() 
   GEOMETRIC_REPRESENTATION_ITEM() RATIONAL_B_SPLINE_CURVE((1.0E+000,
   1.03795484930202E+000,1.0E+000)) REPRESENTATION_ITEM('SPLINE_CRV17'))
   ;
#419=CARTESIAN_POINT('',(-2.20309881449055E-016,7.9375E-001,
   4.58271776169265E-001));
#420=CARTESIAN_POINT('',(1.22793552338531E-001,7.9375E-001,
   2.12684671492203E-001));
#421=CARTESIAN_POINT('',(1.22793552338531E-001,7.9375E-001,
   -2.68303210476649E-016));
#422=EDGE_CURVE('EDGE42',#393,#417,#418,.T.);
#423=ORIENTED_EDGE('COEDGE66',*,*,#422,.T.);
#424=(BOUNDED_CURVE() B_SPLINE_CURVE(2,(#425,#426,#427),.UNSPECIFIED.,
   .F.,.F.) B_SPLINE_CURVE_WITH_KNOTS((3,3),(1.88092525153058E-002,
   3.76185050306116E-002),.UNSPECIFIED.) CURVE() 
   GEOMETRIC_REPRESENTATION_ITEM() RATIONAL_B_SPLINE_CURVE((1.0E+000,
   1.03795484930203E+000,1.0E+000)) REPRESENTATION_ITEM('SPLINE_CRV18'))
   ;
#425=CARTESIAN_POINT('',(1.22793552338531E-001,7.9375E-001,
   -2.68303210476649E-016));
#426=CARTESIAN_POINT('',(1.22793552338531E-001,7.9375E-001,
   -2.12684671492203E-001));
#427=CARTESIAN_POINT('',(-6.60929644347163E-017,7.9375E-001,
   -4.58271776169266E-001));
#428=EDGE_CURVE('EDGE43',#417,#267,#424,.T.);
#429=ORIENTED_EDGE('COEDGE67',*,*,#428,.T.);
#430=ORIENTED_EDGE('COEDGE68',*,*,#272,.F.);
#431=ORIENTED_EDGE('COEDGE69',*,*,#197,.F.);
#432=ORIENTED_EDGE('COEDGE70',*,*,#404,.F.);
#433=EDGE_LOOP('NONE',(#423,#429,#430,#431,#432));
#434=FACE_BOUND('LOOP1',#433,.T.);
#435=CARTESIAN_POINT('POS33',(1.8542E+000,7.9375E-001,
   4.58271776169265E-001));
#436=DIRECTION('DIR49',(-1.80411241501588E-016,-1.0E+000,
   -3.49178166280594E-017));
#437=DIRECTION('DIR50',(1.0E+000,-1.80411241501588E-016,
   -6.29956664839299E-033));
#438=AXIS2_PLACEMENT_3D('AXIS17',#435,#436,#437);
#439=PLANE('PLANE7',#438);
#440=ADVANCED_FACE('FACE16',(#434),#439,.T.);
#441=ORIENTED_EDGE('COEDGE71',*,*,#223,.F.);
#442=EDGE_CURVE('EDGE44',#227,#218,#238,.T.);
#443=ORIENTED_EDGE('COEDGE72',*,*,#442,.F.);
#444=ORIENTED_EDGE('COEDGE73',*,*,#232,.F.);
#445=ORIENTED_EDGE('COEDGE74',*,*,#210,.T.);
#446=EDGE_LOOP('NONE',(#441,#443,#444,#445));
#447=FACE_BOUND('LOOP1',#446,.T.);
#448=ADVANCED_FACE('FACE17',(#447),#247,.T.);
#449=CARTESIAN_POINT('POINT30',(1.8542E+000,2.67500034888718E-016,
   -1.2573E+000));
#450=VERTEX_POINT('VERTEX30',#449);
#451=CARTESIAN_POINT('POS34',(1.834435625E+000,2.67500034888718E-016,
   -1.2573E+000));
#452=DIRECTION('DIR51',(1.0E+000,-0.0E+000,6.12303176911189E-017));
#453=VECTOR('VEC17',#452,1.0E+000);
#454=LINE('STRAIGHT17',#451,#453);
#455=EDGE_CURVE('EDGE45',#218,#450,#454,.T.);
#456=ORIENTED_EDGE('COEDGE75',*,*,#455,.F.);
#457=ORIENTED_EDGE('COEDGE76',*,*,#239,.T.);
#458=CARTESIAN_POINT('POINT31',(1.8542E+000,-1.13533255062873E-016,
   1.2573E+000));
#459=VERTEX_POINT('VERTEX31',#458);
#460=CARTESIAN_POINT('POS35',(1.834435625E+000,-2.67500034888718E-016,
   1.2573E+000));
#461=DIRECTION('DIR52',(-1.0E+000,-0.0E+000,-6.12303176911189E-017));
#462=VECTOR('VEC18',#461,1.0E+000);
#463=LINE('STRAIGHT18',#460,#462);
#464=EDGE_CURVE('EDGE46',#459,#227,#463,.T.);
#465=ORIENTED_EDGE('COEDGE77',*,*,#464,.F.);
#466=CARTESIAN_POINT('POS36',(1.8542E+000,0.0E+000,3.40599765188618E-016
   ));
#467=DIRECTION('DIR53',(-1.0E+000,0.0E+000,-1.83690953073357E-016));
#468=DIRECTION('DIR54',(-1.83690953073357E-016,0.0E+000,1.0E+000));
#469=AXIS2_PLACEMENT_3D('AXIS18',#466,#467,#468);
#470=CIRCLE('ELLIPSE6',#469,1.2573E+000);
#471=EDGE_CURVE('EDGE47',#450,#459,#470,.T.);
#472=ORIENTED_EDGE('COEDGE78',*,*,#471,.F.);
#473=EDGE_LOOP('NONE',(#456,#457,#465,#472));
#474=FACE_BOUND('LOOP1',#473,.T.);
#475=CARTESIAN_POINT('POS37',(1.834435625E+000,0.0E+000,
   1.12323076102656E-016));
#476=DIRECTION('DIR55',(-1.0E+000,0.0E+000,-6.12303176911189E-017));
#477=DIRECTION('DIR56',(6.12303176911189E-017,9.0296888588746E-017,
   -1.0E+000));
#478=AXIS2_PLACEMENT_3D('AXIS19',#475,#476,#477);
#479=CYLINDRICAL_SURFACE('CONE_SURF6',#478,1.2573E+000);
#480=ADVANCED_FACE('FACE18',(#474),#479,.F.);
#481=ORIENTED_EDGE('COEDGE79',*,*,#257,.F.);
#482=ORIENTED_EDGE('COEDGE80',*,*,#278,.F.);
#483=CARTESIAN_POINT('POS38',(0.0E+000,0.0E+000,-3.34518523992244E-016))
   ;
#484=DIRECTION('DIR57',(1.0E+000,4.69021091411854E-034,
   1.80411241501588E-016));
#485=DIRECTION('DIR58',(1.80411241501588E-016,1.43006810552835E-016,
   -1.0E+000));
#486=AXIS2_PLACEMENT_3D('AXIS20',#483,#484,#485);
#487=CIRCLE('ELLIPSE7',#486,9.16543552338531E-001);
#488=EDGE_CURVE('EDGE48',#252,#267,#487,.T.);
#489=ORIENTED_EDGE('COEDGE81',*,*,#488,.F.);
#490=EDGE_LOOP('NONE',(#481,#482,#489));
#491=FACE_BOUND('LOOP1',#490,.T.);
#492=CARTESIAN_POINT('POS39',(6.13967761692654E-002,0.0E+000,
   -3.23441855379352E-016));
#493=DIRECTION('DIR59',(-1.0E+000,0.0E+000,-1.80411241501588E-016));
#494=DIRECTION('DIR60',(1.80411241501588E-016,1.43006810552835E-016,
   -1.0E+000));
#495=AXIS2_PLACEMENT_3D('AXIS21',#492,#493,#494);
#496=CONICAL_SURFACE('CONE_SURF7',#495,8.55146776169265E-001,
   7.85398163397448E-001);
#497=ADVANCED_FACE('FACE19',(#491),#496,.F.);
#498=ORIENTED_EDGE('COEDGE82',*,*,#296,.F.);
#499=ORIENTED_EDGE('COEDGE83',*,*,#310,.F.);
#500=EDGE_CURVE('EDGE49',#291,#252,#487,.T.);
#501=ORIENTED_EDGE('COEDGE84',*,*,#500,.F.);
#502=EDGE_LOOP('NONE',(#498,#499,#501));
#503=FACE_BOUND('LOOP1',#502,.T.);
#504=ADVANCED_FACE('FACE20',(#503),#496,.F.);
#505=ORIENTED_EDGE('COEDGE85',*,*,#328,.F.);
#506=ORIENTED_EDGE('COEDGE86',*,*,#342,.F.);
#507=EDGE_CURVE('EDGE50',#323,#291,#487,.T.);
#508=ORIENTED_EDGE('COEDGE87',*,*,#507,.F.);
#509=EDGE_LOOP('NONE',(#505,#506,#508));
#510=FACE_BOUND('LOOP1',#509,.T.);
#511=ADVANCED_FACE('FACE21',(#510),#496,.F.);
#512=ORIENTED_EDGE('COEDGE88',*,*,#358,.F.);
#513=EDGE_CURVE('EDGE51',#361,#323,#487,.T.);
#514=ORIENTED_EDGE('COEDGE89',*,*,#513,.F.);
#515=ORIENTED_EDGE('COEDGE90',*,*,#366,.F.);
#516=EDGE_LOOP('NONE',(#512,#514,#515));
#517=FACE_BOUND('LOOP1',#516,.T.);
#518=ADVANCED_FACE('FACE22',(#517),#496,.F.);
#519=ORIENTED_EDGE('COEDGE91',*,*,#390,.F.);
#520=EDGE_CURVE('EDGE52',#393,#361,#487,.T.);
#521=ORIENTED_EDGE('COEDGE92',*,*,#520,.F.);
#522=ORIENTED_EDGE('COEDGE93',*,*,#398,.F.);
#523=EDGE_LOOP('NONE',(#519,#521,#522));
#524=FACE_BOUND('LOOP1',#523,.T.);
#525=ADVANCED_FACE('FACE23',(#524),#496,.F.);
#526=ORIENTED_EDGE('COEDGE94',*,*,#422,.F.);
#527=EDGE_CURVE('EDGE53',#267,#393,#487,.T.);
#528=ORIENTED_EDGE('COEDGE95',*,*,#527,.F.);
#529=ORIENTED_EDGE('COEDGE96',*,*,#428,.F.);
#530=EDGE_LOOP('NONE',(#526,#528,#529));
#531=FACE_BOUND('LOOP1',#530,.T.);
#532=ADVANCED_FACE('FACE24',(#531),#496,.F.);
#533=ORIENTED_EDGE('COEDGE97',*,*,#455,.T.);
#534=EDGE_CURVE('EDGE54',#459,#450,#470,.T.);
#535=ORIENTED_EDGE('COEDGE98',*,*,#534,.F.);
#536=ORIENTED_EDGE('COEDGE99',*,*,#464,.T.);
#537=ORIENTED_EDGE('COEDGE100',*,*,#442,.T.);
#538=EDGE_LOOP('NONE',(#533,#535,#536,#537));
#539=FACE_BOUND('LOOP1',#538,.T.);
#540=ADVANCED_FACE('FACE25',(#539),#479,.F.);
#541=CARTESIAN_POINT('POINT32',(6.28930748319944E-002,
   -3.85096295253436E-018,2.8702E+000));
#542=VERTEX_POINT('VERTEX32',#541);
#543=CARTESIAN_POINT('POS40',(9.58546537415997E-001,
   -2.52728136270093E-016,2.06375E+000));
#544=DIRECTION('DIR61',(-7.43144825477394E-001,-8.19421592084078E-017,
   6.69130606358858E-001));
#545=VECTOR('VEC19',#544,1.0E+000);
#546=LINE('STRAIGHT19',#543,#545);
#547=EDGE_CURVE('EDGE55',#459,#542,#546,.T.);
#548=ORIENTED_EDGE('COEDGE101',*,*,#547,.T.);
#549=CARTESIAN_POINT('POINT33',(6.28930748319955E-002,
   3.51486515674099E-016,-2.8702E+000));
#550=VERTEX_POINT('VERTEX33',#549);
#551=CARTESIAN_POINT('POS41',(6.28930748319949E-002,0.0E+000,
   1.15528888576031E-017));
#552=DIRECTION('DIR62',(-1.0E+000,0.0E+000,-1.83690953073357E-016));
#553=DIRECTION('DIR63',(-1.83690953073357E-016,0.0E+000,1.0E+000));
#554=AXIS2_PLACEMENT_3D('AXIS22',#551,#552,#553);
#555=CIRCLE('ELLIPSE8',#554,2.8702E+000);
#556=EDGE_CURVE('EDGE56',#550,#542,#555,.T.);
#557=ORIENTED_EDGE('COEDGE102',*,*,#556,.F.);
#558=CARTESIAN_POINT('POS42',(9.58546537415998E-001,
   2.52728136270093E-016,-2.06375E+000));
#559=DIRECTION('DIR64',(7.43144825477394E-001,-8.19421592084078E-017,
   6.69130606358858E-001));
#560=VECTOR('VEC20',#559,1.0E+000);
#561=LINE('STRAIGHT20',#558,#560);
#562=EDGE_CURVE('EDGE57',#550,#450,#561,.T.);
#563=ORIENTED_EDGE('COEDGE103',*,*,#562,.T.);
#564=ORIENTED_EDGE('COEDGE104',*,*,#471,.T.);
#565=EDGE_LOOP('NONE',(#548,#557,#563,#564));
#566=FACE_BOUND('LOOP1',#565,.T.);
#567=CARTESIAN_POINT('POS43',(9.58546537415997E-001,0.0E+000,
   1.7607632702311E-016));
#568=DIRECTION('DIR65',(-1.0E+000,0.0E+000,-1.83690953073357E-016));
#569=DIRECTION('DIR66',(-1.83690953073357E-016,0.0E+000,1.0E+000));
#570=AXIS2_PLACEMENT_3D('AXIS23',#567,#568,#569);
#571=CONICAL_SURFACE('CONE_SURF8',#570,2.06375E+000,
   7.33038285837618E-001);
#572=ADVANCED_FACE('FACE26',(#566),#571,.T.);
#573=ORIENTED_EDGE('COEDGE105',*,*,#527,.T.);
#574=ORIENTED_EDGE('COEDGE106',*,*,#520,.T.);
#575=ORIENTED_EDGE('COEDGE107',*,*,#513,.T.);
#576=ORIENTED_EDGE('COEDGE108',*,*,#507,.T.);
#577=ORIENTED_EDGE('COEDGE109',*,*,#500,.T.);
#578=ORIENTED_EDGE('COEDGE110',*,*,#488,.T.);
#579=EDGE_LOOP('NONE',(#573,#574,#575,#576,#577,#578));
#580=FACE_BOUND('LOOP1',#579,.T.);
#581=CARTESIAN_POINT('POINT34',(-5.27229773511148E-016,0.0E+000,
   2.8702E+000));
#582=VERTEX_POINT('VERTEX34',#581);
#583=CARTESIAN_POINT('POINT35',(5.27229773511148E-016,
   3.51486515674099E-016,-2.8702E+000));
#584=VERTEX_POINT('VERTEX35',#583);
#585=CARTESIAN_POINT('POS44',(0.0E+000,0.0E+000,0.0E+000));
#586=DIRECTION('DIR67',(-1.0E+000,0.0E+000,-1.83690953073357E-016));
#587=DIRECTION('DIR68',(-1.83690953073357E-016,0.0E+000,1.0E+000));
#588=AXIS2_PLACEMENT_3D('AXIS24',#585,#586,#587);
#589=CIRCLE('ELLIPSE9',#588,2.8702E+000);
#590=EDGE_CURVE('EDGE58',#582,#584,#589,.T.);
#591=ORIENTED_EDGE('COEDGE111',*,*,#590,.T.);
#592=EDGE_CURVE('EDGE59',#584,#582,#589,.T.);
#593=ORIENTED_EDGE('COEDGE112',*,*,#592,.T.);
#594=EDGE_LOOP('NONE',(#591,#593));
#595=FACE_BOUND('LOOP1',#594,.T.);
#596=CARTESIAN_POINT('POS45',(-2.63614886755574E-016,0.0E+000,
   1.4351E+000));
#597=DIRECTION('DIR69',(-1.0E+000,0.0E+000,-1.83690953073357E-016));
#598=DIRECTION('DIR70',(0.0E+000,1.0E+000,0.0E+000));
#599=AXIS2_PLACEMENT_3D('AXIS25',#596,#597,#598);
#600=PLANE('PLANE8',#599);
#601=ADVANCED_FACE('FACE27',(#580,#595),#600,.T.);
#602=ORIENTED_EDGE('COEDGE113',*,*,#547,.F.);
#603=ORIENTED_EDGE('COEDGE114',*,*,#534,.T.);
#604=ORIENTED_EDGE('COEDGE115',*,*,#562,.F.);
#605=EDGE_CURVE('EDGE60',#542,#550,#555,.T.);
#606=ORIENTED_EDGE('COEDGE116',*,*,#605,.F.);
#607=EDGE_LOOP('NONE',(#602,#603,#604,#606));
#608=FACE_BOUND('LOOP1',#607,.T.);
#609=ADVANCED_FACE('FACE28',(#608),#571,.T.);
#610=CARTESIAN_POINT('POS46',(3.14465374159969E-002,
   -3.51486515674099E-016,2.8702E+000));
#611=DIRECTION('DIR71',(-1.0E+000,0.0E+000,-1.83690953073357E-016));
#612=VECTOR('VEC21',#611,1.0E+000);
#613=LINE('STRAIGHT21',#610,#612);
#614=EDGE_CURVE('EDGE61',#542,#582,#613,.T.);
#615=ORIENTED_EDGE('COEDGE117',*,*,#614,.T.);
#616=ORIENTED_EDGE('COEDGE118',*,*,#592,.F.);
#617=CARTESIAN_POINT('POS47',(3.1446537415998E-002,3.51486515674099E-016
   ,-2.8702E+000));
#618=DIRECTION('DIR72',(1.0E+000,-0.0E+000,1.83690953073357E-016));
#619=VECTOR('VEC22',#618,1.0E+000);
#620=LINE('STRAIGHT22',#617,#619);
#621=EDGE_CURVE('EDGE62',#584,#550,#620,.T.);
#622=ORIENTED_EDGE('COEDGE119',*,*,#621,.T.);
#623=ORIENTED_EDGE('COEDGE120',*,*,#556,.T.);
#624=EDGE_LOOP('NONE',(#615,#616,#622,#623));
#625=FACE_BOUND('LOOP1',#624,.T.);
#626=CARTESIAN_POINT('POS48',(3.14465374159975E-002,0.0E+000,
   5.77644442880154E-018));
#627=DIRECTION('DIR73',(-1.0E+000,0.0E+000,-1.83690953073357E-016));
#628=DIRECTION('DIR74',(-1.83690953073357E-016,0.0E+000,1.0E+000));
#629=AXIS2_PLACEMENT_3D('AXIS26',#626,#627,#628);
#630=CYLINDRICAL_SURFACE('CONE_SURF9',#629,2.8702E+000);
#631=ADVANCED_FACE('FACE29',(#625),#630,.T.);
#632=ORIENTED_EDGE('COEDGE121',*,*,#614,.F.);
#633=ORIENTED_EDGE('COEDGE122',*,*,#605,.T.);
#634=ORIENTED_EDGE('COEDGE123',*,*,#621,.F.);
#635=ORIENTED_EDGE('COEDGE124',*,*,#590,.F.);
#636=EDGE_LOOP('NONE',(#632,#633,#634,#635));
#637=FACE_BOUND('LOOP1',#636,.T.);
#638=ADVANCED_FACE('FACE30',(#637),#630,.T.);
#639=CLOSED_SHELL('SHELL1',(#21,#53,#61,#93,#101,#133,#181,#208,#216,
   #248,#287,#319,#351,#383,#415,#440,#448,#480,#497,#504,#511,#518,#525
   ,#532,#540,#572,#601,#609,#631,#638));
#640=MANIFOLD_SOLID_BREP('LUMP1',#639);
#641=ADVANCED_BREP_SHAPE_REPRESENTATION('BODY0',(#640),#642);
#642=(GEOMETRIC_REPRESENTATION_CONTEXT(3) 
   GLOBAL_UNCERTAINTY_ASSIGNED_CONTEXT((#643)) 
   GLOBAL_UNIT_ASSIGNED_CONTEXT((#644,#645,#646)) REPRESENTATION_CONTEXT
   ('',''));
#643=UNCERTAINTY_MEASURE_WITH_UNIT(LENGTH_MEASURE(1.0E-006),#644,'','');
#644=(LENGTH_UNIT() NAMED_UNIT(*) SI_UNIT(.MILLI.,.METRE.));
#645=(NAMED_UNIT(*) PLANE_ANGLE_UNIT() SI_UNIT($,.RADIAN.));
#646=(NAMED_UNIT(*) SI_UNIT($,.STERADIAN.) SOLID_ANGLE_UNIT());
#647=APPLICATION_CONTEXT(
   'CONFIGURATION CONTROLLED 3D DESIGNS OF MECHANICAL PARTS AND 
ASSEMBLIES');
#648=APPLICATION_PROTOCOL_DEFINITION('INTERNATIONAL STANDARD',
   'config_control_design',1994,#647);
#649=MECHANICAL_CONTEXT('MECHANICAL_CONTEXT_NAME',#647,'mechanical');
#650=PRODUCT('PRODUCT_ID_1','PRODUCT_NAME_1','PRODUCT_DESCRIPTION',(#649
   ));
#651=PRODUCT_RELATED_PRODUCT_CATEGORY('detail',
   'PRODUCT_RELATED_PRODUCT_CATEGORY_DESCRIPTION',(#650));
#652=PERSON_AND_ORGANIZATION_ROLE('design_owner');
#653=PERSON('ID_1','PERSON_LAST_NAME','PERSON_FIRST_NAME',$,$,$);
#654=ORGANIZATION('ORGANIZATION_ID','ORGANIZATION_NAME',
   'ORGANIZATION_DESCRIPTION');
#655=PERSON_AND_ORGANIZATION(#653,#654);
#656=PRODUCT_DEFINITION_FORMATION_WITH_SPECIFIED_SOURCE(
   'PRODUCT_DEFINITION_FORMATION_ID',
   'PRODUCT_DEFINITION_FORMATION_DESCRIPTION',#650,.NOT_KNOWN.);
#657=PERSON_AND_ORGANIZATION_ROLE('creator');
#658=PERSON('ID_2','PERSON_LAST_NAME','PERSON_FIRST_NAME',$,$,$);
#659=ORGANIZATION('ORGANIZATION_ID','ORGANIZATION_NAME',
   'ORGANIZATION_DESCRIPTION');
#660=PERSON_AND_ORGANIZATION(#658,#659);
#661=PERSON_AND_ORGANIZATION_ROLE('part_supplier');
#662=PERSON('ID_3','PERSON_LAST_NAME','PERSON_FIRST_NAME',$,$,$);
#663=ORGANIZATION('ORGANIZATION_ID','ORGANIZATION_NAME',
   'ORGANIZATION_DESCRIPTION');
#664=PERSON_AND_ORGANIZATION(#662,#663);
#665=APPROVAL_STATUS('approved');
#666=APPROVAL(#665,'APPROVAL_LEVEL');
#667=APPROVAL_ROLE('APPROVAL_ROLE');
#668=APPROVAL_PERSON_ORGANIZATION(#671,#666,#667);
#669=PERSON('ID_4','PERSON_LAST_NAME','PERSON_FIRST_NAME',$,$,$);
#670=ORGANIZATION('ORGANIZATION_ID','ORGANIZATION_NAME',
   'ORGANIZATION_DESCRIPTION');
#671=PERSON_AND_ORGANIZATION(#669,#670);
#672=APPROVAL_DATE_TIME(#676,#666);
#673=CALENDAR_DATE(1997,1,1);
#674=COORDINATED_UNIVERSAL_TIME_OFFSET(0,0,.AHEAD.);
#675=LOCAL_TIME(0,0,0.0E+000,#674);
#676=DATE_AND_TIME(#673,#675);
#677=SECURITY_CLASSIFICATION_LEVEL('classified');
#678=SECURITY_CLASSIFICATION('SECURITY_CLASSIFICATION_NAME',
   'SECURITY_CLASSIFICATION_PURPOSE',#677);
#679=APPROVAL_STATUS('approved');
#680=APPROVAL(#679,'APPROVAL_LEVEL');
#681=APPROVAL_ROLE('APPROVAL_ROLE');
#682=APPROVAL_PERSON_ORGANIZATION(#685,#680,#681);
#683=PERSON('ID_5','PERSON_LAST_NAME','PERSON_FIRST_NAME',$,$,$);
#684=ORGANIZATION('ORGANIZATION_ID','ORGANIZATION_NAME',
   'ORGANIZATION_DESCRIPTION');
#685=PERSON_AND_ORGANIZATION(#683,#684);
#686=APPROVAL_DATE_TIME(#690,#680);
#687=CALENDAR_DATE(1997,1,1);
#688=COORDINATED_UNIVERSAL_TIME_OFFSET(0,0,.AHEAD.);
#689=LOCAL_TIME(0,0,0.0E+000,#688);
#690=DATE_AND_TIME(#687,#689);
#691=PERSON_AND_ORGANIZATION_ROLE('classification_officer');
#692=PERSON('ID_6','PERSON_LAST_NAME','PERSON_FIRST_NAME',$,$,$);
#693=ORGANIZATION('ORGANIZATION_ID','ORGANIZATION_NAME',
   'ORGANIZATION_DESCRIPTION');
#694=PERSON_AND_ORGANIZATION(#692,#693);
#695=DATE_TIME_ROLE('classification_date');
#696=CALENDAR_DATE(1997,1,1);
#697=COORDINATED_UNIVERSAL_TIME_OFFSET(0,0,.AHEAD.);
#698=LOCAL_TIME(0,0,0.0E+000,#697);
#699=DATE_AND_TIME(#696,#698);
#700=DESIGN_CONTEXT('DESIGN_CONTEXT_NAME',#647,'design');
#701=PRODUCT_DEFINITION('PRODUCT_DEFINITION_ID',
   'PRODUCT_DEFINITION_DESCRIPTION',#656,#700);
#702=PERSON_AND_ORGANIZATION_ROLE('creator');
#703=PERSON('ID_7','PERSON_LAST_NAME','PERSON_FIRST_NAME',$,$,$);
#704=ORGANIZATION('ORGANIZATION_ID','ORGANIZATION_NAME',
   'ORGANIZATION_DESCRIPTION');
#705=PERSON_AND_ORGANIZATION(#703,#704);
#706=DATE_TIME_ROLE('creation_date');
#707=CALENDAR_DATE(1997,1,1);
#708=COORDINATED_UNIVERSAL_TIME_OFFSET(0,0,.AHEAD.);
#709=LOCAL_TIME(0,0,0.0E+000,#708);
#710=DATE_AND_TIME(#707,#709);
#711=APPROVAL_STATUS('approved');
#712=APPROVAL(#711,'APPROVAL_LEVEL');
#713=APPROVAL_ROLE('APPROVAL_ROLE');
#714=APPROVAL_PERSON_ORGANIZATION(#717,#712,#713);
#715=PERSON('ID_8','PERSON_LAST_NAME','PERSON_FIRST_NAME',$,$,$);
#716=ORGANIZATION('ORGANIZATION_ID','ORGANIZATION_NAME',
   'ORGANIZATION_DESCRIPTION');
#717=PERSON_AND_ORGANIZATION(#715,#716);
#718=APPROVAL_DATE_TIME(#722,#712);
#719=CALENDAR_DATE(1997,1,1);
#720=COORDINATED_UNIVERSAL_TIME_OFFSET(0,0,.AHEAD.);
#721=LOCAL_TIME(0,0,0.0E+000,#720);
#722=DATE_AND_TIME(#719,#721);
#723=PRODUCT_DEFINITION_SHAPE('PRODUCT_DEFINITION_SHAPE_NAME',
   'PRODUCT_DEFINITION_SHAPE_DESCRIPTION',#701);
#724=SHAPE_DEFINITION_REPRESENTATION(#723,#641);
#725=STYLED_ITEM('',(#726),#640);
#726=PRESENTATION_STYLE_ASSIGNMENT((#728));
#727=COLOUR_RGB('',5.09803921568627E-001,5.09803921568627E-001,
   5.88235294117647E-001);
#728=SURFACE_STYLE_USAGE(.BOTH.,#729);
#729=SURFACE_SIDE_STYLE('',(#730));
#730=SURFACE_STYLE_FILL_AREA(#731);
#731=FILL_AREA_STYLE('',(#732));
#732=FILL_AREA_STYLE_COLOUR('',#727);
#733=STYLED_ITEM('',(#734),#21);
#734=PRESENTATION_STYLE_ASSIGNMENT((#736));
#735=COLOUR_RGB('',5.09803921568627E-001,5.09803921568627E-001,
   5.88235294117647E-001);
#736=SURFACE_STYLE_USAGE(.BOTH.,#737);
#737=SURFACE_SIDE_STYLE('',(#738));
#738=SURFACE_STYLE_FILL_AREA(#739);
#739=FILL_AREA_STYLE('',(#740));
#740=FILL_AREA_STYLE_COLOUR('',#735);
#741=STYLED_ITEM('',(#742),#53);
#742=PRESENTATION_STYLE_ASSIGNMENT((#744));
#743=COLOUR_RGB('',5.09803921568627E-001,5.09803921568627E-001,
   5.88235294117647E-001);
#744=SURFACE_STYLE_USAGE(.BOTH.,#745);
#745=SURFACE_SIDE_STYLE('',(#746));
#746=SURFACE_STYLE_FILL_AREA(#747);
#747=FILL_AREA_STYLE('',(#748));
#748=FILL_AREA_STYLE_COLOUR('',#743);
#749=STYLED_ITEM('',(#750),#61);
#750=PRESENTATION_STYLE_ASSIGNMENT((#752));
#751=COLOUR_RGB('',5.09803921568627E-001,5.09803921568627E-001,
   5.88235294117647E-001);
#752=SURFACE_STYLE_USAGE(.BOTH.,#753);
#753=SURFACE_SIDE_STYLE('',(#754));
#754=SURFACE_STYLE_FILL_AREA(#755);
#755=FILL_AREA_STYLE('',(#756));
#756=FILL_AREA_STYLE_COLOUR('',#751);
#757=STYLED_ITEM('',(#758),#93);
#758=PRESENTATION_STYLE_ASSIGNMENT((#760));
#759=COLOUR_RGB('',5.09803921568627E-001,5.09803921568627E-001,
   5.88235294117647E-001);
#760=SURFACE_STYLE_USAGE(.BOTH.,#761);
#761=SURFACE_SIDE_STYLE('',(#762));
#762=SURFACE_STYLE_FILL_AREA(#763);
#763=FILL_AREA_STYLE('',(#764));
#764=FILL_AREA_STYLE_COLOUR('',#759);
#765=STYLED_ITEM('',(#766),#101);
#766=PRESENTATION_STYLE_ASSIGNMENT((#768));
#767=COLOUR_RGB('',5.09803921568627E-001,5.09803921568627E-001,
   5.88235294117647E-001);
#768=SURFACE_STYLE_USAGE(.BOTH.,#769);
#769=SURFACE_SIDE_STYLE('',(#770));
#770=SURFACE_STYLE_FILL_AREA(#771);
#771=FILL_AREA_STYLE('',(#772));
#772=FILL_AREA_STYLE_COLOUR('',#767);
#773=STYLED_ITEM('',(#774),#133);
#774=PRESENTATION_STYLE_ASSIGNMENT((#776));
#775=COLOUR_RGB('',5.09803921568627E-001,5.09803921568627E-001,
   5.88235294117647E-001);
#776=SURFACE_STYLE_USAGE(.BOTH.,#777);
#777=SURFACE_SIDE_STYLE('',(#778));
#778=SURFACE_STYLE_FILL_AREA(#779);
#779=FILL_AREA_STYLE('',(#780));
#780=FILL_AREA_STYLE_COLOUR('',#775);
#781=STYLED_ITEM('',(#782),#181);
#782=PRESENTATION_STYLE_ASSIGNMENT((#784));
#783=COLOUR_RGB('',5.09803921568627E-001,5.09803921568627E-001,
   5.88235294117647E-001);
#784=SURFACE_STYLE_USAGE(.BOTH.,#785);
#785=SURFACE_SIDE_STYLE('',(#786));
#786=SURFACE_STYLE_FILL_AREA(#787);
#787=FILL_AREA_STYLE('',(#788));
#788=FILL_AREA_STYLE_COLOUR('',#783);
#789=STYLED_ITEM('',(#790),#208);
#790=PRESENTATION_STYLE_ASSIGNMENT((#792));
#791=COLOUR_RGB('',5.09803921568627E-001,5.09803921568627E-001,
   5.88235294117647E-001);
#792=SURFACE_STYLE_USAGE(.BOTH.,#793);
#793=SURFACE_SIDE_STYLE('',(#794));
#794=SURFACE_STYLE_FILL_AREA(#795);
#795=FILL_AREA_STYLE('',(#796));
#796=FILL_AREA_STYLE_COLOUR('',#791);
#797=STYLED_ITEM('',(#798),#216);
#798=PRESENTATION_STYLE_ASSIGNMENT((#800));
#799=COLOUR_RGB('',5.09803921568627E-001,5.09803921568627E-001,
   5.88235294117647E-001);
#800=SURFACE_STYLE_USAGE(.BOTH.,#801);
#801=SURFACE_SIDE_STYLE('',(#802));
#802=SURFACE_STYLE_FILL_AREA(#803);
#803=FILL_AREA_STYLE('',(#804));
#804=FILL_AREA_STYLE_COLOUR('',#799);
#805=STYLED_ITEM('',(#806),#248);
#806=PRESENTATION_STYLE_ASSIGNMENT((#808));
#807=COLOUR_RGB('',5.09803921568627E-001,5.09803921568627E-001,
   5.88235294117647E-001);
#808=SURFACE_STYLE_USAGE(.BOTH.,#809);
#809=SURFACE_SIDE_STYLE('',(#810));
#810=SURFACE_STYLE_FILL_AREA(#811);
#811=FILL_AREA_STYLE('',(#812));
#812=FILL_AREA_STYLE_COLOUR('',#807);
#813=STYLED_ITEM('',(#814),#287);
#814=PRESENTATION_STYLE_ASSIGNMENT((#816));
#815=COLOUR_RGB('',5.09803921568627E-001,5.09803921568627E-001,
   5.88235294117647E-001);
#816=SURFACE_STYLE_USAGE(.BOTH.,#817);
#817=SURFACE_SIDE_STYLE('',(#818));
#818=SURFACE_STYLE_FILL_AREA(#819);
#819=FILL_AREA_STYLE('',(#820));
#820=FILL_AREA_STYLE_COLOUR('',#815);
#821=STYLED_ITEM('',(#822),#319);
#822=PRESENTATION_STYLE_ASSIGNMENT((#824));
#823=COLOUR_RGB('',5.09803921568627E-001,5.09803921568627E-001,
   5.88235294117647E-001);
#824=SURFACE_STYLE_USAGE(.BOTH.,#825);
#825=SURFACE_SIDE_STYLE('',(#826));
#826=SURFACE_STYLE_FILL_AREA(#827);
#827=FILL_AREA_STYLE('',(#828));
#828=FILL_AREA_STYLE_COLOUR('',#823);
#829=STYLED_ITEM('',(#830),#351);
#830=PRESENTATION_STYLE_ASSIGNMENT((#832));
#831=COLOUR_RGB('',5.09803921568627E-001,5.09803921568627E-001,
   5.88235294117647E-001);
#832=SURFACE_STYLE_USAGE(.BOTH.,#833);
#833=SURFACE_SIDE_STYLE('',(#834));
#834=SURFACE_STYLE_FILL_AREA(#835);
#835=FILL_AREA_STYLE('',(#836));
#836=FILL_AREA_STYLE_COLOUR('',#831);
#837=STYLED_ITEM('',(#838),#383);
#838=PRESENTATION_STYLE_ASSIGNMENT((#840));
#839=COLOUR_RGB('',5.09803921568627E-001,5.09803921568627E-001,
   5.88235294117647E-001);
#840=SURFACE_STYLE_USAGE(.BOTH.,#841);
#841=SURFACE_SIDE_STYLE('',(#842));
#842=SURFACE_STYLE_FILL_AREA(#843);
#843=FILL_AREA_STYLE('',(#844));
#844=FILL_AREA_STYLE_COLOUR('',#839);
#845=STYLED_ITEM('',(#846),#415);
#846=PRESENTATION_STYLE_ASSIGNMENT((#848));
#847=COLOUR_RGB('',5.09803921568627E-001,5.09803921568627E-001,
   5.88235294117647E-001);
#848=SURFACE_STYLE_USAGE(.BOTH.,#849);
#849=SURFACE_SIDE_STYLE('',(#850));
#850=SURFACE_STYLE_FILL_AREA(#851);
#851=FILL_AREA_STYLE('',(#852));
#852=FILL_AREA_STYLE_COLOUR('',#847);
#853=STYLED_ITEM('',(#854),#440);
#854=PRESENTATION_STYLE_ASSIGNMENT((#856));
#855=COLOUR_RGB('',5.09803921568627E-001,5.09803921568627E-001,
   5.88235294117647E-001);
#856=SURFACE_STYLE_USAGE(.BOTH.,#857);
#857=SURFACE_SIDE_STYLE('',(#858));
#858=SURFACE_STYLE_FILL_AREA(#859);
#859=FILL_AREA_STYLE('',(#860));
#860=FILL_AREA_STYLE_COLOUR('',#855);
#861=STYLED_ITEM('',(#862),#448);
#862=PRESENTATION_STYLE_ASSIGNMENT((#864));
#863=COLOUR_RGB('',5.09803921568627E-001,5.09803921568627E-001,
   5.88235294117647E-001);
#864=SURFACE_STYLE_USAGE(.BOTH.,#865);
#865=SURFACE_SIDE_STYLE('',(#866));
#866=SURFACE_STYLE_FILL_AREA(#867);
#867=FILL_AREA_STYLE('',(#868));
#868=FILL_AREA_STYLE_COLOUR('',#863);
#869=STYLED_ITEM('',(#870),#480);
#870=PRESENTATION_STYLE_ASSIGNMENT((#872));
#871=COLOUR_RGB('',5.09803921568627E-001,5.09803921568627E-001,
   5.88235294117647E-001);
#872=SURFACE_STYLE_USAGE(.BOTH.,#873);
#873=SURFACE_SIDE_STYLE('',(#874));
#874=SURFACE_STYLE_FILL_AREA(#875);
#875=FILL_AREA_STYLE('',(#876));
#876=FILL_AREA_STYLE_COLOUR('',#871);
#877=STYLED_ITEM('',(#878),#497);
#878=PRESENTATION_STYLE_ASSIGNMENT((#880));
#879=COLOUR_RGB('',5.09803921568627E-001,5.09803921568627E-001,
   5.88235294117647E-001);
#880=SURFACE_STYLE_USAGE(.BOTH.,#881);
#881=SURFACE_SIDE_STYLE('',(#882));
#882=SURFACE_STYLE_FILL_AREA(#883);
#883=FILL_AREA_STYLE('',(#884));
#884=FILL_AREA_STYLE_COLOUR('',#879);
#885=STYLED_ITEM('',(#886),#504);
#886=PRESENTATION_STYLE_ASSIGNMENT((#888));
#887=COLOUR_RGB('',5.09803921568627E-001,5.09803921568627E-001,
   5.88235294117647E-001);
#888=SURFACE_STYLE_USAGE(.BOTH.,#889);
#889=SURFACE_SIDE_STYLE('',(#890));
#890=SURFACE_STYLE_FILL_AREA(#891);
#891=FILL_AREA_STYLE('',(#892));
#892=FILL_AREA_STYLE_COLOUR('',#887);
#893=STYLED_ITEM('',(#894),#511);
#894=PRESENTATION_STYLE_ASSIGNMENT((#896));
#895=COLOUR_RGB('',5.09803921568627E-001,5.09803921568627E-001,
   5.88235294117647E-001);
#896=SURFACE_STYLE_USAGE(.BOTH.,#897);
#897=SURFACE_SIDE_STYLE('',(#898));
#898=SURFACE_STYLE_FILL_AREA(#899);
#899=FILL_AREA_STYLE('',(#900));
#900=FILL_AREA_STYLE_COLOUR('',#895);
#901=STYLED_ITEM('',(#902),#518);
#902=PRESENTATION_STYLE_ASSIGNMENT((#904));
#903=COLOUR_RGB('',5.09803921568627E-001,5.09803921568627E-001,
   5.88235294117647E-001);
#904=SURFACE_STYLE_USAGE(.BOTH.,#905);
#905=SURFACE_SIDE_STYLE('',(#906));
#906=SURFACE_STYLE_FILL_AREA(#907);
#907=FILL_AREA_STYLE('',(#908));
#908=FILL_AREA_STYLE_COLOUR('',#903);
#909=STYLED_ITEM('',(#910),#525);
#910=PRESENTATION_STYLE_ASSIGNMENT((#912));
#911=COLOUR_RGB('',5.09803921568627E-001,5.09803921568627E-001,
   5.88235294117647E-001);
#912=SURFACE_STYLE_USAGE(.BOTH.,#913);
#913=SURFACE_SIDE_STYLE('',(#914));
#914=SURFACE_STYLE_FILL_AREA(#915);
#915=FILL_AREA_STYLE('',(#916));
#916=FILL_AREA_STYLE_COLOUR('',#911);
#917=STYLED_ITEM('',(#918),#532);
#918=PRESENTATION_STYLE_ASSIGNMENT((#920));
#919=COLOUR_RGB('',5.09803921568627E-001,5.09803921568627E-001,
   5.88235294117647E-001);
#920=SURFACE_STYLE_USAGE(.BOTH.,#921);
#921=SURFACE_SIDE_STYLE('',(#922));
#922=SURFACE_STYLE_FILL_AREA(#923);
#923=FILL_AREA_STYLE('',(#924));
#924=FILL_AREA_STYLE_COLOUR('',#919);
#925=STYLED_ITEM('',(#926),#540);
#926=PRESENTATION_STYLE_ASSIGNMENT((#928));
#927=COLOUR_RGB('',5.09803921568627E-001,5.09803921568627E-001,
   5.88235294117647E-001);
#928=SURFACE_STYLE_USAGE(.BOTH.,#929);
#929=SURFACE_SIDE_STYLE('',(#930));
#930=SURFACE_STYLE_FILL_AREA(#931);
#931=FILL_AREA_STYLE('',(#932));
#932=FILL_AREA_STYLE_COLOUR('',#927);
#933=STYLED_ITEM('',(#934),#572);
#934=PRESENTATION_STYLE_ASSIGNMENT((#936));
#935=COLOUR_RGB('',5.09803921568627E-001,5.09803921568627E-001,
   5.88235294117647E-001);
#936=SURFACE_STYLE_USAGE(.BOTH.,#937);
#937=SURFACE_SIDE_STYLE('',(#938));
#938=SURFACE_STYLE_FILL_AREA(#939);
#939=FILL_AREA_STYLE('',(#940));
#940=FILL_AREA_STYLE_COLOUR('',#935);
#941=STYLED_ITEM('',(#942),#601);
#942=PRESENTATION_STYLE_ASSIGNMENT((#944));
#943=COLOUR_RGB('',5.09803921568627E-001,5.09803921568627E-001,
   5.88235294117647E-001);
#944=SURFACE_STYLE_USAGE(.BOTH.,#945);
#945=SURFACE_SIDE_STYLE('',(#946));
#946=SURFACE_STYLE_FILL_AREA(#947);
#947=FILL_AREA_STYLE('',(#948));
#948=FILL_AREA_STYLE_COLOUR('',#943);
#949=STYLED_ITEM('',(#950),#609);
#950=PRESENTATION_STYLE_ASSIGNMENT((#952));
#951=COLOUR_RGB('',5.09803921568627E-001,5.09803921568627E-001,
   5.88235294117647E-001);
#952=SURFACE_STYLE_USAGE(.BOTH.,#953);
#953=SURFACE_SIDE_STYLE('',(#954));
#954=SURFACE_STYLE_FILL_AREA(#955);
#955=FILL_AREA_STYLE('',(#956));
#956=FILL_AREA_STYLE_COLOUR('',#951);
#957=STYLED_ITEM('',(#958),#631);
#958=PRESENTATION_STYLE_ASSIGNMENT((#960));
#959=COLOUR_RGB('',5.09803921568627E-001,5.09803921568627E-001,
   5.88235294117647E-001);
#960=SURFACE_STYLE_USAGE(.BOTH.,#961);
#961=SURFACE_SIDE_STYLE('',(#962));
#962=SURFACE_STYLE_FILL_AREA(#963);
#963=FILL_AREA_STYLE('',(#964));
#964=FILL_AREA_STYLE_COLOUR('',#959);
#965=STYLED_ITEM('',(#966),#638);
#966=PRESENTATION_STYLE_ASSIGNMENT((#968));
#967=COLOUR_RGB('',5.09803921568627E-001,5.09803921568627E-001,
   5.88235294117647E-001);
#968=SURFACE_STYLE_USAGE(.BOTH.,#969);
#969=SURFACE_SIDE_STYLE('',(#970));
#970=SURFACE_STYLE_FILL_AREA(#971);
#971=FILL_AREA_STYLE('',(#972));
#972=FILL_AREA_STYLE_COLOUR('',#967);
#973=MECHANICAL_DESIGN_GEOMETRIC_PRESENTATION_REPRESENTATION($,(#725,
   #733,#741,#749,#757,#765,#773,#781,#789,#797,#805,#813,#821,#829,#837
   ,#845,#853,#861,#869,#877,#885,#893,#901,#909,#917,#925,#933,#941,
   #949,#957,#965),#642);
ENDSEC;
END-ISO-10303-21;
                
                  
               
                   
                    
     
                
