ISO-10303-21;
HEADER;
FILE_DESCRIPTION(('starvars output'),'2;1');
FILE_NAME('cv20201107162335000041418.stp','16:23:35   2020/11/07',(
   'Thomas Industrial Network Germany GmbH'),(
   'Thomas Industrial Network Germany GmbH'),'unknown preprocess','ACIS'
   ,'unknown authorization');
FILE_SCHEMA(('AUTOMOTIVE_DESIGN_CC2 {UNKNOWN IMPLEMENTATION LEVEL}'));
ENDSEC;
/* ISO 10303-21 file written by STEP Caselib, ProSTEP GmbH, Germany */
DATA;
#1=CARTESIAN_POINT('POINT1',(4.7625E+000,2.91609388003954E-016,
   1.04394E+000));
#2=VERTEX_POINT('VERTEX1',#1);
#3=CARTESIAN_POINT('POINT2',(4.7625E+000,-4.19320969417413E-016,
   -1.04394E+000));
#4=VERTEX_POINT('VERTEX2',#3);
#5=CARTESIAN_POINT('POS1',(4.7625E+000,0.0E+000,2.91609388003954E-016));
#6=DIRECTION('DIR1',(1.0E+000,2.73691106313441E-048,
   6.12303176911189E-017));
#7=DIRECTION('DIR2',(-6.12303176911189E-017,2.79210887327317E-016,
   1.0E+000));
#8=AXIS2_PLACEMENT_3D('AXIS1',#5,#6,#7);
#9=CIRCLE('ELLIPSE1',#8,1.04394E+000);
#10=EDGE_CURVE('EDGE1',#2,#4,#9,.T.);
#11=ORIENTED_EDGE('COEDGE1',*,*,#10,.T.);
#12=EDGE_CURVE('EDGE2',#4,#2,#9,.T.);
#13=ORIENTED_EDGE('COEDGE2',*,*,#12,.T.);
#14=EDGE_LOOP('NONE',(#11,#13));
#15=FACE_BOUND('LOOP1',#14,.T.);
#16=CARTESIAN_POINT('POS2',(4.7625E+000,2.91609388003954E-016,
   -7.112E-001));
#17=DIRECTION('DIR3',(1.0E+000,0.0E+000,6.12303176911189E-017));
#18=DIRECTION('DIR4',(0.0E+000,1.0E+000,0.0E+000));
#19=AXIS2_PLACEMENT_3D('AXIS2',#16,#17,#18);
#20=PLANE('PLANE1',#19);
#21=ADVANCED_FACE('FACE1',(#15),#20,.T.);
#22=CARTESIAN_POINT('POINT3',(4.38404E+000,2.68436161970573E-016,
   1.4224E+000));
#23=VERTEX_POINT('VERTEX3',#22);
#24=CARTESIAN_POINT('POS3',(4.57327E+000,4.95329271659742E-016,
   1.23317E+000));
#25=DIRECTION('DIR5',(-7.07106781186547E-001,2.84024657517453E-016,
   7.07106781186548E-001));
#26=VECTOR('VEC1',#25,1.0E+000);
#27=LINE('STRAIGHT1',#24,#26);
#28=EDGE_CURVE('EDGE3',#2,#23,#27,.T.);
#29=ORIENTED_EDGE('COEDGE3',*,*,#28,.F.);
#30=ORIENTED_EDGE('COEDGE4',*,*,#12,.F.);
#31=CARTESIAN_POINT('POINT4',(4.38404E+000,-5.71337573902071E-016,
   -1.4224E+000));
#32=VERTEX_POINT('VERTEX4',#31);
#33=CARTESIAN_POINT('POS4',(4.57327E+000,-4.95329271659742E-016,
   -1.23317E+000));
#34=DIRECTION('DIR6',(7.07106781186547E-001,2.84024657517453E-016,
   7.07106781186548E-001));
#35=VECTOR('VEC2',#34,1.0E+000);
#36=LINE('STRAIGHT2',#33,#35);
#37=EDGE_CURVE('EDGE4',#32,#4,#36,.T.);
#38=ORIENTED_EDGE('COEDGE5',*,*,#37,.F.);
#39=CARTESIAN_POINT('POS5',(4.38404E+000,0.0E+000,2.68436161970573E-016)
   );
#40=DIRECTION('DIR7',(-1.0E+000,0.0E+000,-6.12303176911189E-017));
#41=DIRECTION('DIR8',(6.12303176911189E-017,0.0E+000,-1.0E+000));
#42=AXIS2_PLACEMENT_3D('AXIS3',#39,#40,#41);
#43=CIRCLE('ELLIPSE2',#42,1.4224E+000);
#44=EDGE_CURVE('EDGE5',#23,#32,#43,.T.);
#45=ORIENTED_EDGE('COEDGE6',*,*,#44,.F.);
#46=EDGE_LOOP('NONE',(#29,#30,#38,#45));
#47=FACE_BOUND('LOOP1',#46,.T.);
#48=CARTESIAN_POINT('POS6',(4.57327E+000,0.0E+000,2.80022774987263E-016)
   );
#49=DIRECTION('DIR9',(-1.0E+000,0.0E+000,-6.12303176911189E-017));
#50=DIRECTION('DIR10',(-6.12303176911189E-017,2.79210887327317E-016,
   1.0E+000));
#51=AXIS2_PLACEMENT_3D('AXIS4',#48,#49,#50);
#52=CONICAL_SURFACE('CONE_SURF1',#51,1.23317E+000,7.85398163397449E-001)
   ;
#53=ADVANCED_FACE('FACE2',(#47),#52,.T.);
#54=ORIENTED_EDGE('COEDGE7',*,*,#28,.T.);
#55=EDGE_CURVE('EDGE6',#32,#23,#43,.T.);
#56=ORIENTED_EDGE('COEDGE8',*,*,#55,.F.);
#57=ORIENTED_EDGE('COEDGE9',*,*,#37,.T.);
#58=ORIENTED_EDGE('COEDGE10',*,*,#10,.F.);
#59=EDGE_LOOP('NONE',(#54,#56,#57,#58));
#60=FACE_BOUND('LOOP1',#59,.T.);
#61=ADVANCED_FACE('FACE3',(#60),#52,.T.);
#62=CARTESIAN_POINT('POINT5',(-1.5494E+000,3.88785532027543E-016,
   1.37408209366593E+000));
#63=VERTEX_POINT('VERTEX5',#62);
#64=CARTESIAN_POINT('POINT6',(-7.56073333333333E-001,0.0E+000,
   4.85463521234427E-017));
#65=VERTEX_POINT('VERTEX6',#64);
#66=CARTESIAN_POINT('POS7',(-1.15273666666667E+000,8.41354831288424E-017
   ,6.87041046832963E-001));
#67=DIRECTION('DIR11',(5.0E-001,-1.06054021204601E-016,
   -8.66025403784439E-001));
#68=VECTOR('VEC3',#67,1.0E+000);
#69=LINE('STRAIGHT3',#66,#68);
#70=EDGE_CURVE('EDGE7',#63,#65,#69,.T.);
#71=ORIENTED_EDGE('COEDGE11',*,*,#70,.T.);
#72=CARTESIAN_POINT('POINT7',(-1.5494E+000,5.53036778225191E-017,
   -1.37408209366593E+000));
#73=VERTEX_POINT('VERTEX7',#72);
#74=CARTESIAN_POINT('POS8',(-1.15273666666667E+000,
   -8.41354831288423E-017,-6.87041046832963E-001));
#75=DIRECTION('DIR12',(-5.0E-001,-1.06054021204601E-016,
   -8.66025403784439E-001));
#76=VECTOR('VEC4',#75,1.0E+000);
#77=LINE('STRAIGHT4',#74,#76);
#78=EDGE_CURVE('EDGE8',#65,#73,#77,.T.);
#79=ORIENTED_EDGE('COEDGE12',*,*,#78,.T.);
#80=CARTESIAN_POINT('POINT8',(-1.5494E+000,-1.18999E+000,
   -6.87041046832963E-001));
#81=VERTEX_POINT('VERTEX8',#80);
#82=(BOUNDED_CURVE() B_SPLINE_CURVE(2,(#83,#84,#85),.UNSPECIFIED.,.F.,
   .F.) B_SPLINE_CURVE_WITH_KNOTS((3,3),(0.0E+000,1.39042731995134E+000)
   ,.UNSPECIFIED.) CURVE() GEOMETRIC_REPRESENTATION_ITEM() 
   RATIONAL_B_SPLINE_CURVE((1.0E+000,1.15470053837925E+000,1.0E+000)) 
   REPRESENTATION_ITEM('SPLINE_CRV1'));
#83=CARTESIAN_POINT('',(-1.5494E+000,6.66133814775094E-016,
   -1.37408209366593E+000));
#84=CARTESIAN_POINT('',(-1.35106833333333E+000,-5.94995E-001,
   -1.03056157024945E+000));
#85=CARTESIAN_POINT('',(-1.5494E+000,-1.18999E+000,
   -6.87041046832964E-001));
#86=EDGE_CURVE('EDGE9',#73,#81,#82,.T.);
#87=ORIENTED_EDGE('COEDGE13',*,*,#86,.T.);
#88=CARTESIAN_POINT('POINT9',(-1.5494E+000,-1.18999E+000,
   6.87041046832963E-001));
#89=VERTEX_POINT('VERTEX9',#88);
#90=(BOUNDED_CURVE() B_SPLINE_CURVE(2,(#91,#92,#93),.UNSPECIFIED.,.F.,
   .F.) B_SPLINE_CURVE_WITH_KNOTS((3,3),(0.0E+000,1.39042731995135E+000)
   ,.UNSPECIFIED.) CURVE() GEOMETRIC_REPRESENTATION_ITEM() 
   RATIONAL_B_SPLINE_CURVE((1.0E+000,1.15470053837926E+000,1.0E+000)) 
   REPRESENTATION_ITEM('SPLINE_CRV2'));
#91=CARTESIAN_POINT('',(-1.5494E+000,-1.18999E+000,
   -6.87041046832966E-001));
#92=CARTESIAN_POINT('',(-1.35106833333333E+000,-1.18999E+000,
   -3.33066907387547E-016));
#93=CARTESIAN_POINT('',(-1.5494E+000,-1.18999E+000,6.87041046832965E-001
   ));
#94=EDGE_CURVE('EDGE10',#81,#89,#90,.T.);
#95=ORIENTED_EDGE('COEDGE14',*,*,#94,.T.);
#96=(BOUNDED_CURVE() B_SPLINE_CURVE(2,(#97,#98,#99),.UNSPECIFIED.,.F.,
   .F.) B_SPLINE_CURVE_WITH_KNOTS((3,3),(0.0E+000,1.39042731995134E+000)
   ,.UNSPECIFIED.) CURVE() GEOMETRIC_REPRESENTATION_ITEM() 
   RATIONAL_B_SPLINE_CURVE((1.0E+000,1.15470053837926E+000,1.0E+000)) 
   REPRESENTATION_ITEM('SPLINE_CRV3'));
#97=CARTESIAN_POINT('',(-1.5494E+000,-1.18999E+000,6.87041046832962E-001
   ));
#98=CARTESIAN_POINT('',(-1.35106833333333E+000,-5.94995E-001,
   1.03056157024944E+000));
#99=CARTESIAN_POINT('',(-1.5494E+000,7.7715611723761E-016,
   1.37408209366593E+000));
#100=EDGE_CURVE('EDGE11',#89,#63,#96,.T.);
#101=ORIENTED_EDGE('COEDGE15',*,*,#100,.T.);
#102=EDGE_LOOP('NONE',(#71,#79,#87,#95,#101));
#103=FACE_BOUND('LOOP1',#102,.T.);
#104=CARTESIAN_POINT('POS9',(-1.15273666666667E+000,0.0E+000,
   2.42731760617213E-017));
#105=DIRECTION('DIR13',(-1.0E+000,0.0E+000,-6.11933950580795E-017));
#106=DIRECTION('DIR14',(6.11933950580795E-017,0.0E+000,-1.0E+000));
#107=AXIS2_PLACEMENT_3D('AXIS5',#104,#105,#106);
#108=CONICAL_SURFACE('CONE_SURF2',#107,6.87041046832963E-001,
   1.0471975511966E+000);
#109=ADVANCED_FACE('FACE4',(#103),#108,.F.);
#110=ORIENTED_EDGE('COEDGE16',*,*,#70,.F.);
#111=CARTESIAN_POINT('POINT10',(-1.5494E+000,1.18999E+000,
   6.87041046832962E-001));
#112=VERTEX_POINT('VERTEX10',#111);
#113=(BOUNDED_CURVE() B_SPLINE_CURVE(2,(#114,#115,#116),.UNSPECIFIED.,
   .F.,.F.) B_SPLINE_CURVE_WITH_KNOTS((3,3),(0.0E+000,
   1.39042731995134E+000),.UNSPECIFIED.) CURVE() 
   GEOMETRIC_REPRESENTATION_ITEM() RATIONAL_B_SPLINE_CURVE((1.0E+000,
   1.15470053837925E+000,1.0E+000)) REPRESENTATION_ITEM('SPLINE_CRV4'));
#114=CARTESIAN_POINT('',(-1.5494E+000,-8.88178419700126E-016,
   1.37408209366593E+000));
#115=CARTESIAN_POINT('',(-1.35106833333333E+000,5.94995E-001,
   1.03056157024944E+000));
#116=CARTESIAN_POINT('',(-1.5494E+000,1.18999E+000,6.87041046832963E-001
   ));
#117=EDGE_CURVE('EDGE12',#63,#112,#113,.T.);
#118=ORIENTED_EDGE('COEDGE17',*,*,#117,.T.);
#119=CARTESIAN_POINT('POINT11',(-1.5494E+000,1.18999E+000,
   -6.87041046832963E-001));
#120=VERTEX_POINT('VERTEX11',#119);
#121=(BOUNDED_CURVE() B_SPLINE_CURVE(2,(#122,#123,#124),.UNSPECIFIED.,
   .F.,.F.) B_SPLINE_CURVE_WITH_KNOTS((3,3),(0.0E+000,
   1.39042731995134E+000),.UNSPECIFIED.) CURVE() 
   GEOMETRIC_REPRESENTATION_ITEM() RATIONAL_B_SPLINE_CURVE((1.0E+000,
   1.15470053837925E+000,1.0E+000)) REPRESENTATION_ITEM('SPLINE_CRV5'));
#122=CARTESIAN_POINT('',(-1.5494E+000,1.18999E+000,6.87041046832962E-001
   ));
#123=CARTESIAN_POINT('',(-1.35106833333333E+000,1.18999E+000,
   1.0537176609997E-015));
#124=CARTESIAN_POINT('',(-1.5494E+000,1.18999E+000,
   -6.87041046832962E-001));
#125=EDGE_CURVE('EDGE13',#112,#120,#121,.T.);
#126=ORIENTED_EDGE('COEDGE18',*,*,#125,.T.);
#127=(BOUNDED_CURVE() B_SPLINE_CURVE(2,(#128,#129,#130),.UNSPECIFIED.,
   .F.,.F.) B_SPLINE_CURVE_WITH_KNOTS((3,3),(0.0E+000,
   1.39042731995135E+000),.UNSPECIFIED.) CURVE() 
   GEOMETRIC_REPRESENTATION_ITEM() RATIONAL_B_SPLINE_CURVE((1.0E+000,
   1.15470053837925E+000,1.0E+000)) REPRESENTATION_ITEM('SPLINE_CRV6'));
#128=CARTESIAN_POINT('',(-1.5494E+000,1.18999E+000,
   -6.87041046832961E-001));
#129=CARTESIAN_POINT('',(-1.35106833333333E+000,5.94995000000002E-001,
   -1.03056157024944E+000));
#130=CARTESIAN_POINT('',(-1.5494E+000,0.0E+000,-1.37408209366593E+000));
#131=EDGE_CURVE('EDGE14',#120,#73,#127,.T.);
#132=ORIENTED_EDGE('COEDGE19',*,*,#131,.T.);
#133=ORIENTED_EDGE('COEDGE20',*,*,#78,.F.);
#134=EDGE_LOOP('NONE',(#110,#118,#126,#132,#133));
#135=FACE_BOUND('LOOP1',#134,.T.);
#136=ADVANCED_FACE('FACE5',(#135),#108,.F.);
#137=CARTESIAN_POINT('POINT12',(8.70940038838475E-017,0.0E+000,
   -1.4224E+000));
#138=VERTEX_POINT('VERTEX12',#137);
#139=CARTESIAN_POINT('POS10',(2.38125E+000,1.74188007767695E-016,
   -1.4224E+000));
#140=DIRECTION('DIR15',(-1.0E+000,0.0E+000,-6.12303176911189E-017));
#141=VECTOR('VEC5',#140,1.0E+000);
#142=LINE('STRAIGHT5',#139,#141);
#143=EDGE_CURVE('EDGE15',#32,#138,#142,.T.);
#144=ORIENTED_EDGE('COEDGE21',*,*,#143,.T.);
#145=CARTESIAN_POINT('POINT13',(-2.61282011651542E-016,
   -1.74188007767695E-016,1.4224E+000));
#146=VERTEX_POINT('VERTEX13',#145);
#147=CARTESIAN_POINT('POS11',(0.0E+000,0.0E+000,0.0E+000));
#148=DIRECTION('DIR16',(-1.0E+000,0.0E+000,-6.12303176911189E-017));
#149=DIRECTION('DIR17',(6.12303176911189E-017,0.0E+000,-1.0E+000));
#150=AXIS2_PLACEMENT_3D('AXIS6',#147,#148,#149);
#151=CIRCLE('ELLIPSE3',#150,1.4224E+000);
#152=EDGE_CURVE('EDGE16',#146,#138,#151,.T.);
#153=ORIENTED_EDGE('COEDGE22',*,*,#152,.F.);
#154=CARTESIAN_POINT('POS12',(2.38125E+000,-1.74188007767695E-016,
   1.4224E+000));
#155=DIRECTION('DIR18',(1.0E+000,-0.0E+000,6.12303176911189E-017));
#156=VECTOR('VEC6',#155,1.0E+000);
#157=LINE('STRAIGHT6',#154,#156);
#158=EDGE_CURVE('EDGE17',#146,#23,#157,.T.);
#159=ORIENTED_EDGE('COEDGE23',*,*,#158,.T.);
#160=ORIENTED_EDGE('COEDGE24',*,*,#44,.T.);
#161=EDGE_LOOP('NONE',(#144,#153,#159,#160));
#162=FACE_BOUND('LOOP1',#161,.T.);
#163=CARTESIAN_POINT('POS13',(2.38125E+000,0.0E+000,
   1.45804694001977E-016));
#164=DIRECTION('DIR19',(-1.0E+000,0.0E+000,-6.12303176911189E-017));
#165=DIRECTION('DIR20',(6.12303176911189E-017,0.0E+000,-1.0E+000));
#166=AXIS2_PLACEMENT_3D('AXIS7',#163,#164,#165);
#167=CYLINDRICAL_SURFACE('CONE_SURF3',#166,1.4224E+000);
#168=ADVANCED_FACE('FACE6',(#162),#167,.T.);
#169=ORIENTED_EDGE('COEDGE25',*,*,#143,.F.);
#170=ORIENTED_EDGE('COEDGE26',*,*,#55,.T.);
#171=ORIENTED_EDGE('COEDGE27',*,*,#158,.F.);
#172=EDGE_CURVE('EDGE18',#138,#146,#151,.T.);
#173=ORIENTED_EDGE('COEDGE28',*,*,#172,.F.);
#174=EDGE_LOOP('NONE',(#169,#170,#171,#173));
#175=FACE_BOUND('LOOP1',#174,.T.);
#176=ADVANCED_FACE('FACE7',(#175),#167,.T.);
#177=ORIENTED_EDGE('COEDGE29',*,*,#131,.F.);
#178=CARTESIAN_POINT('POINT14',(-2.8448E+000,1.18999E+000,
   -6.87041046832964E-001));
#179=VERTEX_POINT('VERTEX14',#178);
#180=CARTESIAN_POINT('POS14',(-2.1971E+000,1.18999E+000,
   -6.87041046832962E-001));
#181=DIRECTION('DIR21',(-1.0E+000,0.0E+000,-6.11933950580795E-017));
#182=VECTOR('VEC7',#181,1.0E+000);
#183=LINE('STRAIGHT7',#180,#182);
#184=EDGE_CURVE('EDGE19',#120,#179,#183,.T.);
#185=ORIENTED_EDGE('COEDGE30',*,*,#184,.T.);
#186=CARTESIAN_POINT('POINT15',(-2.8448E+000,-2.22044604925031E-016,
   -1.37408209366593E+000));
#187=VERTEX_POINT('VERTEX15',#186);
#188=CARTESIAN_POINT('POS15',(-2.8448E+000,1.11022302462516E-015,
   -1.37408209366593E+000));
#189=DIRECTION('DIR22',(2.14306111918916E-016,-8.66025403784438E-001,
   -5.00000000000001E-001));
#190=VECTOR('VEC8',#189,2.54E+001);
#191=LINE('STRAIGHT8',#188,#190);
#192=EDGE_CURVE('EDGE20',#179,#187,#191,.T.);
#193=ORIENTED_EDGE('COEDGE31',*,*,#192,.T.);
#194=CARTESIAN_POINT('POS16',(-2.1971E+000,-5.55111512312578E-016,
   -1.37408209366593E+000));
#195=DIRECTION('DIR23',(1.0E+000,0.0E+000,6.11933950580795E-017));
#196=VECTOR('VEC9',#195,1.0E+000);
#197=LINE('STRAIGHT9',#194,#196);
#198=EDGE_CURVE('EDGE21',#187,#73,#197,.T.);
#199=ORIENTED_EDGE('COEDGE32',*,*,#198,.T.);
#200=EDGE_LOOP('NONE',(#177,#185,#193,#199));
#201=FACE_BOUND('LOOP1',#200,.T.);
#202=CARTESIAN_POINT('POS17',(1.34454914118921E-016,1.18999E+000,
   -6.87041046832962E-001));
#203=DIRECTION('DIR24',(-2.36717963675657E-016,-5.00000000000001E-001,
   8.66025403784438E-001));
#204=DIRECTION('DIR25',(1.0E+000,-1.18358981837829E-016,
   2.05003770075241E-016));
#205=AXIS2_PLACEMENT_3D('AXIS8',#202,#203,#204);
#206=PLANE('PLANE2',#205);
#207=ADVANCED_FACE('FACE8',(#201),#206,.T.);
#208=ORIENTED_EDGE('COEDGE33',*,*,#86,.F.);
#209=ORIENTED_EDGE('COEDGE34',*,*,#198,.F.);
#210=CARTESIAN_POINT('POINT16',(-2.8448E+000,-1.18999E+000,
   -6.87041046832963E-001));
#211=VERTEX_POINT('VERTEX16',#210);
#212=CARTESIAN_POINT('POS18',(-2.8448E+000,-1.18999E+000,
   -6.87041046832964E-001));
#213=DIRECTION('DIR26',(1.53075794227797E-016,-8.66025403784439E-001,
   5.0E-001));
#214=VECTOR('VEC10',#213,2.54E+001);
#215=LINE('STRAIGHT10',#212,#214);
#216=EDGE_CURVE('EDGE22',#187,#211,#215,.T.);
#217=ORIENTED_EDGE('COEDGE35',*,*,#216,.T.);
#218=CARTESIAN_POINT('POS19',(-2.1971E+000,-1.18999E+000,
   -6.87041046832963E-001));
#219=DIRECTION('DIR27',(1.0E+000,0.0E+000,6.11933950580795E-017));
#220=VECTOR('VEC11',#219,1.0E+000);
#221=LINE('STRAIGHT11',#218,#220);
#222=EDGE_CURVE('EDGE23',#211,#81,#221,.T.);
#223=ORIENTED_EDGE('COEDGE36',*,*,#222,.T.);
#224=EDGE_LOOP('NONE',(#208,#209,#217,#223));
#225=FACE_BOUND('LOOP1',#224,.T.);
#226=CARTESIAN_POINT('POS20',(1.76522655683342E-016,
   4.44089209850063E-016,-1.37408209366593E+000));
#227=DIRECTION('DIR28',(-2.36717963675657E-016,5.0E-001,
   8.66025403784439E-001));
#228=DIRECTION('DIR29',(1.0E+000,1.18358981837829E-016,
   2.05003770075241E-016));
#229=AXIS2_PLACEMENT_3D('AXIS9',#226,#227,#228);
#230=PLANE('PLANE3',#229);
#231=ADVANCED_FACE('FACE9',(#225),#230,.T.);
#232=ORIENTED_EDGE('COEDGE37',*,*,#94,.F.);
#233=ORIENTED_EDGE('COEDGE38',*,*,#222,.F.);
#234=CARTESIAN_POINT('POINT17',(-2.8448E+000,-1.18999E+000,
   6.87041046832963E-001));
#235=VERTEX_POINT('VERTEX17',#234);
#236=CARTESIAN_POINT('POS21',(-2.8448E+000,-1.18999E+000,
   6.87041046832963E-001));
#237=DIRECTION('DIR30',(1.22460635382238E-016,-2.60398256776706E-016,
   1.0E+000));
#238=VECTOR('VEC12',#237,2.54E+001);
#239=LINE('STRAIGHT12',#236,#238);
#240=EDGE_CURVE('EDGE24',#211,#235,#239,.T.);
#241=ORIENTED_EDGE('COEDGE39',*,*,#240,.T.);
#242=CARTESIAN_POINT('POS22',(-2.1971E+000,-1.18999E+000,
   6.87041046832963E-001));
#243=DIRECTION('DIR31',(1.0E+000,0.0E+000,6.11933950580795E-017));
#244=VECTOR('VEC13',#243,1.0E+000);
#245=LINE('STRAIGHT13',#242,#244);
#246=EDGE_CURVE('EDGE25',#235,#89,#245,.T.);
#247=ORIENTED_EDGE('COEDGE40',*,*,#246,.T.);
#248=EDGE_LOOP('NONE',(#232,#233,#241,#247));
#249=FACE_BOUND('LOOP1',#248,.T.);
#250=CARTESIAN_POINT('POS23',(1.34454914118921E-016,-1.18999E+000,
   -6.87041046832963E-001));
#251=DIRECTION('DIR32',(-1.83690953073357E-016,1.0E+000,
   2.60398256776706E-016));
#252=DIRECTION('DIR33',(1.0E+000,1.83690953073357E-016,
   4.78328039659538E-032));
#253=AXIS2_PLACEMENT_3D('AXIS10',#250,#251,#252);
#254=PLANE('PLANE4',#253);
#255=ADVANCED_FACE('FACE10',(#249),#254,.T.);
#256=ORIENTED_EDGE('COEDGE41',*,*,#100,.F.);
#257=ORIENTED_EDGE('COEDGE42',*,*,#246,.F.);
#258=CARTESIAN_POINT('POINT18',(-2.8448E+000,6.66133814775094E-016,
   1.37408209366593E+000));
#259=VERTEX_POINT('VERTEX18',#258);
#260=CARTESIAN_POINT('POS24',(-2.8448E+000,1.11022302462516E-016,
   1.37408209366593E+000));
#261=DIRECTION('DIR34',(1.53075794227797E-016,8.66025403784438E-001,
   5.0E-001));
#262=VECTOR('VEC14',#261,2.54E+001);
#263=LINE('STRAIGHT14',#260,#262);
#264=EDGE_CURVE('EDGE26',#235,#259,#263,.T.);
#265=ORIENTED_EDGE('COEDGE43',*,*,#264,.T.);
#266=CARTESIAN_POINT('POS25',(-2.1971E+000,1.11022302462516E-016,
   1.37408209366593E+000));
#267=DIRECTION('DIR35',(1.0E+000,-0.0E+000,6.11933950580795E-017));
#268=VECTOR('VEC15',#267,1.0E+000);
#269=LINE('STRAIGHT15',#266,#268);
#270=EDGE_CURVE('EDGE27',#259,#63,#269,.T.);
#271=ORIENTED_EDGE('COEDGE44',*,*,#270,.T.);
#272=EDGE_LOOP('NONE',(#256,#257,#265,#271));
#273=FACE_BOUND('LOOP1',#272,.T.);
#274=CARTESIAN_POINT('POS26',(5.03194309900789E-017,-1.18999E+000,
   6.87041046832962E-001));
#275=DIRECTION('DIR36',(-1.30663942471056E-016,5.0E-001,
   -8.66025403784439E-001));
#276=DIRECTION('DIR37',(1.0E+000,6.5331971235528E-017,
   -1.13158293538563E-016));
#277=AXIS2_PLACEMENT_3D('AXIS11',#274,#275,#276);
#278=PLANE('PLANE5',#277);
#279=ADVANCED_FACE('FACE11',(#273),#278,.T.);
#280=ORIENTED_EDGE('COEDGE45',*,*,#117,.F.);
#281=ORIENTED_EDGE('COEDGE46',*,*,#270,.F.);
#282=CARTESIAN_POINT('POINT19',(-2.8448E+000,1.18999E+000,
   6.87041046832962E-001));
#283=VERTEX_POINT('VERTEX19',#282);
#284=CARTESIAN_POINT('POS27',(-2.8448E+000,1.18999E+000,
   6.87041046832963E-001));
#285=DIRECTION('DIR38',(2.14306111918916E-016,8.66025403784439E-001,
   -5.0E-001));
#286=VECTOR('VEC16',#285,2.54E+001);
#287=LINE('STRAIGHT16',#284,#286);
#288=EDGE_CURVE('EDGE28',#259,#283,#287,.T.);
#289=ORIENTED_EDGE('COEDGE47',*,*,#288,.T.);
#290=CARTESIAN_POINT('POS28',(-2.1971E+000,1.18999E+000,
   6.87041046832962E-001));
#291=DIRECTION('DIR39',(1.0E+000,-0.0E+000,6.11933950580795E-017));
#292=VECTOR('VEC17',#291,1.0E+000);
#293=LINE('STRAIGHT17',#290,#292);
#294=EDGE_CURVE('EDGE29',#283,#112,#293,.T.);
#295=ORIENTED_EDGE('COEDGE48',*,*,#294,.T.);
#296=EDGE_LOOP('NONE',(#280,#281,#289,#295));
#297=FACE_BOUND('LOOP1',#296,.T.);
#298=CARTESIAN_POINT('POS29',(8.25168942565777E-018,0.0E+000,
   1.37408209366593E+000));
#299=DIRECTION('DIR40',(-1.30663942471056E-016,-5.0E-001,
   -8.66025403784439E-001));
#300=DIRECTION('DIR41',(1.0E+000,-6.53319712355279E-017,
   -1.13158293538563E-016));
#301=AXIS2_PLACEMENT_3D('AXIS12',#298,#299,#300);
#302=PLANE('PLANE6',#301);
#303=ADVANCED_FACE('FACE12',(#297),#302,.T.);
#304=ORIENTED_EDGE('COEDGE49',*,*,#125,.F.);
#305=ORIENTED_EDGE('COEDGE50',*,*,#294,.F.);
#306=CARTESIAN_POINT('POS30',(-2.8448E+000,1.18999E+000,
   -6.87041046832964E-001));
#307=DIRECTION('DIR42',(2.44921270764475E-016,-6.12303176911189E-017,
   -1.0E+000));
#308=VECTOR('VEC18',#307,2.54E+001);
#309=LINE('STRAIGHT18',#306,#308);
#310=EDGE_CURVE('EDGE30',#283,#179,#309,.T.);
#311=ORIENTED_EDGE('COEDGE51',*,*,#310,.T.);
#312=ORIENTED_EDGE('COEDGE52',*,*,#184,.F.);
#313=EDGE_LOOP('NONE',(#304,#305,#311,#312));
#314=FACE_BOUND('LOOP1',#313,.T.);
#315=CARTESIAN_POINT('POS31',(5.03194309900789E-017,1.18999E+000,
   6.87041046832962E-001));
#316=DIRECTION('DIR43',(-1.83690953073357E-016,-1.0E+000,
   6.12303176911188E-017));
#317=DIRECTION('DIR44',(1.0E+000,-1.83690953073357E-016,
   1.1247455413666E-032));
#318=AXIS2_PLACEMENT_3D('AXIS13',#315,#316,#317);
#319=PLANE('PLANE7',#318);
#320=ADVANCED_FACE('FACE13',(#314),#319,.T.);
#321=ORIENTED_EDGE('COEDGE53',*,*,#172,.T.);
#322=ORIENTED_EDGE('COEDGE54',*,*,#152,.T.);
#323=EDGE_LOOP('NONE',(#321,#322));
#324=FACE_BOUND('LOOP1',#323,.T.);
#325=CARTESIAN_POINT('POINT20',(-4.26916144037788E-016,0.0E+000,
   2.3241E+000));
#326=VERTEX_POINT('VERTEX20',#325);
#327=CARTESIAN_POINT('POINT21',(4.26916144037788E-016,
   2.84610762691859E-016,-2.3241E+000));
#328=VERTEX_POINT('VERTEX21',#327);
#329=CARTESIAN_POINT('POS32',(0.0E+000,0.0E+000,0.0E+000));
#330=DIRECTION('DIR45',(-1.0E+000,0.0E+000,-1.83690953073357E-016));
#331=DIRECTION('DIR46',(-1.83690953073357E-016,0.0E+000,1.0E+000));
#332=AXIS2_PLACEMENT_3D('AXIS14',#329,#330,#331);
#333=CIRCLE('ELLIPSE4',#332,2.3241E+000);
#334=EDGE_CURVE('EDGE31',#326,#328,#333,.T.);
#335=ORIENTED_EDGE('COEDGE55',*,*,#334,.F.);
#336=EDGE_CURVE('EDGE32',#328,#326,#333,.T.);
#337=ORIENTED_EDGE('COEDGE56',*,*,#336,.F.);
#338=EDGE_LOOP('NONE',(#335,#337));
#339=FACE_BOUND('LOOP1',#338,.T.);
#340=CARTESIAN_POINT('POS33',(-2.13458072018894E-016,0.0E+000,
   1.16205E+000));
#341=DIRECTION('DIR47',(1.0E+000,0.0E+000,1.83690953073357E-016));
#342=DIRECTION('DIR48',(0.0E+000,1.0E+000,0.0E+000));
#343=AXIS2_PLACEMENT_3D('AXIS15',#340,#341,#342);
#344=PLANE('PLANE8',#343);
#345=ADVANCED_FACE('FACE14',(#324,#339),#344,.T.);
#346=CARTESIAN_POINT('POINT22',(-2.6162E+000,1.60190757143505E-016,
   2.3241E+000));
#347=VERTEX_POINT('VERTEX22',#346);
#348=CARTESIAN_POINT('POS34',(-1.3081E+000,-2.84610762691859E-016,
   2.3241E+000));
#349=DIRECTION('DIR49',(-1.0E+000,0.0E+000,-1.83690953073357E-016));
#350=VECTOR('VEC19',#349,1.0E+000);
#351=LINE('STRAIGHT19',#348,#350);
#352=EDGE_CURVE('EDGE33',#326,#347,#351,.T.);
#353=ORIENTED_EDGE('COEDGE57',*,*,#352,.T.);
#354=CARTESIAN_POINT('POINT23',(-2.6162E+000,2.84610762691859E-016,
   -2.3241E+000));
#355=VERTEX_POINT('VERTEX23',#354);
#356=CARTESIAN_POINT('POS35',(-2.6162E+000,0.0E+000,
   -4.80572271430516E-016));
#357=DIRECTION('DIR50',(-1.0E+000,0.0E+000,-1.83690953073357E-016));
#358=DIRECTION('DIR51',(-1.83690953073357E-016,0.0E+000,1.0E+000));
#359=AXIS2_PLACEMENT_3D('AXIS16',#356,#357,#358);
#360=CIRCLE('ELLIPSE5',#359,2.3241E+000);
#361=EDGE_CURVE('EDGE34',#355,#347,#360,.T.);
#362=ORIENTED_EDGE('COEDGE58',*,*,#361,.F.);
#363=CARTESIAN_POINT('POS36',(-1.3081E+000,2.84610762691859E-016,
   -2.3241E+000));
#364=DIRECTION('DIR52',(1.0E+000,-0.0E+000,1.83690953073357E-016));
#365=VECTOR('VEC20',#364,1.0E+000);
#366=LINE('STRAIGHT20',#363,#365);
#367=EDGE_CURVE('EDGE35',#355,#328,#366,.T.);
#368=ORIENTED_EDGE('COEDGE59',*,*,#367,.T.);
#369=ORIENTED_EDGE('COEDGE60',*,*,#336,.T.);
#370=EDGE_LOOP('NONE',(#353,#362,#368,#369));
#371=FACE_BOUND('LOOP1',#370,.T.);
#372=CARTESIAN_POINT('POS37',(-1.3081E+000,0.0E+000,
   -2.40286135715258E-016));
#373=DIRECTION('DIR53',(-1.0E+000,0.0E+000,-1.83690953073357E-016));
#374=DIRECTION('DIR54',(-1.83690953073357E-016,0.0E+000,1.0E+000));
#375=AXIS2_PLACEMENT_3D('AXIS17',#372,#373,#374);
#376=CYLINDRICAL_SURFACE('CONE_SURF4',#375,2.3241E+000);
#377=ADVANCED_FACE('FACE15',(#371),#376,.T.);
#378=CARTESIAN_POINT('POINT24',(-2.8448E+000,1.74188007767695E-016,
   2.0955E+000));
#379=VERTEX_POINT('VERTEX24',#378);
#380=CARTESIAN_POINT('POINT25',(-2.8448E+000,2.56616261443479E-016,
   -2.0955E+000));
#381=VERTEX_POINT('VERTEX25',#380);
#382=CARTESIAN_POINT('POS38',(-2.8448E+000,0.0E+000,
   -5.22564023303085E-016));
#383=DIRECTION('DIR55',(-1.0E+000,0.0E+000,-1.83690953073357E-016));
#384=DIRECTION('DIR56',(-1.83690953073357E-016,0.0E+000,1.0E+000));
#385=AXIS2_PLACEMENT_3D('AXIS18',#382,#383,#384);
#386=CIRCLE('ELLIPSE6',#385,2.0955E+000);
#387=EDGE_CURVE('EDGE36',#379,#381,#386,.T.);
#388=ORIENTED_EDGE('COEDGE61',*,*,#387,.T.);
#389=EDGE_CURVE('EDGE37',#381,#379,#386,.T.);
#390=ORIENTED_EDGE('COEDGE62',*,*,#389,.T.);
#391=EDGE_LOOP('NONE',(#388,#390));
#392=FACE_BOUND('LOOP1',#391,.T.);
#393=ORIENTED_EDGE('COEDGE63',*,*,#310,.F.);
#394=ORIENTED_EDGE('COEDGE64',*,*,#288,.F.);
#395=ORIENTED_EDGE('COEDGE65',*,*,#264,.F.);
#396=ORIENTED_EDGE('COEDGE66',*,*,#240,.F.);
#397=ORIENTED_EDGE('COEDGE67',*,*,#216,.F.);
#398=ORIENTED_EDGE('COEDGE68',*,*,#192,.F.);
#399=EDGE_LOOP('NONE',(#393,#394,#395,#396,#397,#398));
#400=FACE_BOUND('LOOP1',#399,.T.);
#401=CARTESIAN_POINT('POS39',(-2.8448E+000,1.74188007767695E-016,
   1.04775E+000));
#402=DIRECTION('DIR57',(-1.0E+000,0.0E+000,-1.83690953073357E-016));
#403=DIRECTION('DIR58',(0.0E+000,1.0E+000,0.0E+000));
#404=AXIS2_PLACEMENT_3D('AXIS19',#401,#402,#403);
#405=PLANE('PLANE9',#404);
#406=ADVANCED_FACE('FACE16',(#392,#400),#405,.T.);
#407=ORIENTED_EDGE('COEDGE69',*,*,#352,.F.);
#408=ORIENTED_EDGE('COEDGE70',*,*,#334,.T.);
#409=ORIENTED_EDGE('COEDGE71',*,*,#367,.F.);
#410=EDGE_CURVE('EDGE38',#347,#355,#360,.T.);
#411=ORIENTED_EDGE('COEDGE72',*,*,#410,.F.);
#412=EDGE_LOOP('NONE',(#407,#408,#409,#411));
#413=FACE_BOUND('LOOP1',#412,.T.);
#414=ADVANCED_FACE('FACE17',(#413),#376,.T.);
#415=CARTESIAN_POINT('POS40',(-2.7305E+000,-2.70613512067669E-016,
   2.2098E+000));
#416=DIRECTION('DIR59',(-7.07106781186547E-001,8.65927457071936E-017,
   -7.07106781186548E-001));
#417=VECTOR('VEC21',#416,1.0E+000);
#418=LINE('STRAIGHT21',#415,#417);
#419=EDGE_CURVE('EDGE39',#347,#379,#418,.T.);
#420=ORIENTED_EDGE('COEDGE73',*,*,#419,.T.);
#421=ORIENTED_EDGE('COEDGE74',*,*,#389,.F.);
#422=CARTESIAN_POINT('POS41',(-2.7305E+000,2.70613512067669E-016,
   -2.2098E+000));
#423=DIRECTION('DIR60',(7.07106781186548E-001,8.65927457071935E-017,
   -7.07106781186547E-001));
#424=VECTOR('VEC22',#423,1.0E+000);
#425=LINE('STRAIGHT22',#422,#424);
#426=EDGE_CURVE('EDGE40',#381,#355,#425,.T.);
#427=ORIENTED_EDGE('COEDGE75',*,*,#426,.T.);
#428=ORIENTED_EDGE('COEDGE76',*,*,#361,.T.);
#429=EDGE_LOOP('NONE',(#420,#421,#427,#428));
#430=FACE_BOUND('LOOP1',#429,.T.);
#431=CARTESIAN_POINT('POS42',(-2.7305E+000,0.0E+000,-5.015681473668E-016
   ));
#432=DIRECTION('DIR61',(1.0E+000,0.0E+000,1.83690953073357E-016));
#433=DIRECTION('DIR62',(-1.83690953073357E-016,0.0E+000,1.0E+000));
#434=AXIS2_PLACEMENT_3D('AXIS20',#431,#432,#433);
#435=CONICAL_SURFACE('CONE_SURF5',#434,2.2098E+000,7.85398163397448E-001
   );
#436=ADVANCED_FACE('FACE18',(#430),#435,.T.);
#437=ORIENTED_EDGE('COEDGE77',*,*,#419,.F.);
#438=ORIENTED_EDGE('COEDGE78',*,*,#410,.T.);
#439=ORIENTED_EDGE('COEDGE79',*,*,#426,.F.);
#440=ORIENTED_EDGE('COEDGE80',*,*,#387,.F.);
#441=EDGE_LOOP('NONE',(#437,#438,#439,#440));
#442=FACE_BOUND('LOOP1',#441,.T.);
#443=ADVANCED_FACE('FACE19',(#442),#435,.T.);
#444=CLOSED_SHELL('SHELL1',(#21,#53,#61,#109,#136,#168,#176,#207,#231,
   #255,#279,#303,#320,#345,#377,#406,#414,#436,#443));
#445=MANIFOLD_SOLID_BREP('LUMP1',#444);
#446=ADVANCED_BREP_SHAPE_REPRESENTATION('BODY0',(#445),#447);
#447=(GEOMETRIC_REPRESENTATION_CONTEXT(3) 
   GLOBAL_UNCERTAINTY_ASSIGNED_CONTEXT((#448)) 
   GLOBAL_UNIT_ASSIGNED_CONTEXT((#449,#450,#451)) REPRESENTATION_CONTEXT
   ('',''));
#448=UNCERTAINTY_MEASURE_WITH_UNIT(LENGTH_MEASURE(1.0E-006),#449,'','');
#449=(LENGTH_UNIT() NAMED_UNIT(*) SI_UNIT(.MILLI.,.METRE.));
#450=(NAMED_UNIT(*) PLANE_ANGLE_UNIT() SI_UNIT($,.RADIAN.));
#451=(NAMED_UNIT(*) SI_UNIT($,.STERADIAN.) SOLID_ANGLE_UNIT());
#452=APPLICATION_CONTEXT(
   'CONFIGURATION CONTROLLED 3D DESIGNS OF MECHANICAL PARTS AND 
ASSEMBLIES');
#453=APPLICATION_PROTOCOL_DEFINITION('INTERNATIONAL STANDARD',
   'config_control_design',1994,#452);
#454=MECHANICAL_CONTEXT('MECHANICAL_CONTEXT_NAME',#452,'mechanical');
#455=PRODUCT('PRODUCT_ID_1','PRODUCT_NAME_1','PRODUCT_DESCRIPTION',(#454
   ));
#456=PRODUCT_RELATED_PRODUCT_CATEGORY('detail',
   'PRODUCT_RELATED_PRODUCT_CATEGORY_DESCRIPTION',(#455));
#457=PERSON_AND_ORGANIZATION_ROLE('design_owner');
#458=PERSON('ID_1','PERSON_LAST_NAME','PERSON_FIRST_NAME',$,$,$);
#459=ORGANIZATION('ORGANIZATION_ID','ORGANIZATION_NAME',
   'ORGANIZATION_DESCRIPTION');
#460=PERSON_AND_ORGANIZATION(#458,#459);
#461=PRODUCT_DEFINITION_FORMATION_WITH_SPECIFIED_SOURCE(
   'PRODUCT_DEFINITION_FORMATION_ID',
   'PRODUCT_DEFINITION_FORMATION_DESCRIPTION',#455,.NOT_KNOWN.);
#462=PERSON_AND_ORGANIZATION_ROLE('creator');
#463=PERSON('ID_2','PERSON_LAST_NAME','PERSON_FIRST_NAME',$,$,$);
#464=ORGANIZATION('ORGANIZATION_ID','ORGANIZATION_NAME',
   'ORGANIZATION_DESCRIPTION');
#465=PERSON_AND_ORGANIZATION(#463,#464);
#466=PERSON_AND_ORGANIZATION_ROLE('part_supplier');
#467=PERSON('ID_3','PERSON_LAST_NAME','PERSON_FIRST_NAME',$,$,$);
#468=ORGANIZATION('ORGANIZATION_ID','ORGANIZATION_NAME',
   'ORGANIZATION_DESCRIPTION');
#469=PERSON_AND_ORGANIZATION(#467,#468);
#470=APPROVAL_STATUS('approved');
#471=APPROVAL(#470,'APPROVAL_LEVEL');
#472=APPROVAL_ROLE('APPROVAL_ROLE');
#473=APPROVAL_PERSON_ORGANIZATION(#476,#471,#472);
#474=PERSON('ID_4','PERSON_LAST_NAME','PERSON_FIRST_NAME',$,$,$);
#475=ORGANIZATION('ORGANIZATION_ID','ORGANIZATION_NAME',
   'ORGANIZATION_DESCRIPTION');
#476=PERSON_AND_ORGANIZATION(#474,#475);
#477=APPROVAL_DATE_TIME(#481,#471);
#478=CALENDAR_DATE(1997,1,1);
#479=COORDINATED_UNIVERSAL_TIME_OFFSET(0,0,.AHEAD.);
#480=LOCAL_TIME(0,0,0.0E+000,#479);
#481=DATE_AND_TIME(#478,#480);
#482=SECURITY_CLASSIFICATION_LEVEL('classified');
#483=SECURITY_CLASSIFICATION('SECURITY_CLASSIFICATION_NAME',
   'SECURITY_CLASSIFICATION_PURPOSE',#482);
#484=APPROVAL_STATUS('approved');
#485=APPROVAL(#484,'APPROVAL_LEVEL');
#486=APPROVAL_ROLE('APPROVAL_ROLE');
#487=APPROVAL_PERSON_ORGANIZATION(#490,#485,#486);
#488=PERSON('ID_5','PERSON_LAST_NAME','PERSON_FIRST_NAME',$,$,$);
#489=ORGANIZATION('ORGANIZATION_ID','ORGANIZATION_NAME',
   'ORGANIZATION_DESCRIPTION');
#490=PERSON_AND_ORGANIZATION(#488,#489);
#491=APPROVAL_DATE_TIME(#495,#485);
#492=CALENDAR_DATE(1997,1,1);
#493=COORDINATED_UNIVERSAL_TIME_OFFSET(0,0,.AHEAD.);
#494=LOCAL_TIME(0,0,0.0E+000,#493);
#495=DATE_AND_TIME(#492,#494);
#496=PERSON_AND_ORGANIZATION_ROLE('classification_officer');
#497=PERSON('ID_6','PERSON_LAST_NAME','PERSON_FIRST_NAME',$,$,$);
#498=ORGANIZATION('ORGANIZATION_ID','ORGANIZATION_NAME',
   'ORGANIZATION_DESCRIPTION');
#499=PERSON_AND_ORGANIZATION(#497,#498);
#500=DATE_TIME_ROLE('classification_date');
#501=CALENDAR_DATE(1997,1,1);
#502=COORDINATED_UNIVERSAL_TIME_OFFSET(0,0,.AHEAD.);
#503=LOCAL_TIME(0,0,0.0E+000,#502);
#504=DATE_AND_TIME(#501,#503);
#505=DESIGN_CONTEXT('DESIGN_CONTEXT_NAME',#452,'design');
#506=PRODUCT_DEFINITION('PRODUCT_DEFINITION_ID',
   'PRODUCT_DEFINITION_DESCRIPTION',#461,#505);
#507=PERSON_AND_ORGANIZATION_ROLE('creator');
#508=PERSON('ID_7','PERSON_LAST_NAME','PERSON_FIRST_NAME',$,$,$);
#509=ORGANIZATION('ORGANIZATION_ID','ORGANIZATION_NAME',
   'ORGANIZATION_DESCRIPTION');
#510=PERSON_AND_ORGANIZATION(#508,#509);
#511=DATE_TIME_ROLE('creation_date');
#512=CALENDAR_DATE(1997,1,1);
#513=COORDINATED_UNIVERSAL_TIME_OFFSET(0,0,.AHEAD.);
#514=LOCAL_TIME(0,0,0.0E+000,#513);
#515=DATE_AND_TIME(#512,#514);
#516=APPROVAL_STATUS('approved');
#517=APPROVAL(#516,'APPROVAL_LEVEL');
#518=APPROVAL_ROLE('APPROVAL_ROLE');
#519=APPROVAL_PERSON_ORGANIZATION(#522,#517,#518);
#520=PERSON('ID_8','PERSON_LAST_NAME','PERSON_FIRST_NAME',$,$,$);
#521=ORGANIZATION('ORGANIZATION_ID','ORGANIZATION_NAME',
   'ORGANIZATION_DESCRIPTION');
#522=PERSON_AND_ORGANIZATION(#520,#521);
#523=APPROVAL_DATE_TIME(#527,#517);
#524=CALENDAR_DATE(1997,1,1);
#525=COORDINATED_UNIVERSAL_TIME_OFFSET(0,0,.AHEAD.);
#526=LOCAL_TIME(0,0,0.0E+000,#525);
#527=DATE_AND_TIME(#524,#526);
#528=PRODUCT_DEFINITION_SHAPE('PRODUCT_DEFINITION_SHAPE_NAME',
   'PRODUCT_DEFINITION_SHAPE_DESCRIPTION',#506);
#529=SHAPE_DEFINITION_REPRESENTATION(#528,#446);
#530=STYLED_ITEM('',(#531),#445);
#531=PRESENTATION_STYLE_ASSIGNMENT((#533));
#532=COLOUR_RGB('',5.09803921568627E-001,5.09803921568627E-001,
   5.88235294117647E-001);
#533=SURFACE_STYLE_USAGE(.BOTH.,#534);
#534=SURFACE_SIDE_STYLE('',(#535));
#535=SURFACE_STYLE_FILL_AREA(#536);
#536=FILL_AREA_STYLE('',(#537));
#537=FILL_AREA_STYLE_COLOUR('',#532);
#538=STYLED_ITEM('',(#539),#21);
#539=PRESENTATION_STYLE_ASSIGNMENT((#541));
#540=COLOUR_RGB('',5.09803921568627E-001,5.09803921568627E-001,
   5.88235294117647E-001);
#541=SURFACE_STYLE_USAGE(.BOTH.,#542);
#542=SURFACE_SIDE_STYLE('',(#543));
#543=SURFACE_STYLE_FILL_AREA(#544);
#544=FILL_AREA_STYLE('',(#545));
#545=FILL_AREA_STYLE_COLOUR('',#540);
#546=STYLED_ITEM('',(#547),#53);
#547=PRESENTATION_STYLE_ASSIGNMENT((#549));
#548=COLOUR_RGB('',5.09803921568627E-001,5.09803921568627E-001,
   5.88235294117647E-001);
#549=SURFACE_STYLE_USAGE(.BOTH.,#550);
#550=SURFACE_SIDE_STYLE('',(#551));
#551=SURFACE_STYLE_FILL_AREA(#552);
#552=FILL_AREA_STYLE('',(#553));
#553=FILL_AREA_STYLE_COLOUR('',#548);
#554=STYLED_ITEM('',(#555),#61);
#555=PRESENTATION_STYLE_ASSIGNMENT((#557));
#556=COLOUR_RGB('',5.09803921568627E-001,5.09803921568627E-001,
   5.88235294117647E-001);
#557=SURFACE_STYLE_USAGE(.BOTH.,#558);
#558=SURFACE_SIDE_STYLE('',(#559));
#559=SURFACE_STYLE_FILL_AREA(#560);
#560=FILL_AREA_STYLE('',(#561));
#561=FILL_AREA_STYLE_COLOUR('',#556);
#562=STYLED_ITEM('',(#563),#109);
#563=PRESENTATION_STYLE_ASSIGNMENT((#565));
#564=COLOUR_RGB('',5.09803921568627E-001,5.09803921568627E-001,
   5.88235294117647E-001);
#565=SURFACE_STYLE_USAGE(.BOTH.,#566);
#566=SURFACE_SIDE_STYLE('',(#567));
#567=SURFACE_STYLE_FILL_AREA(#568);
#568=FILL_AREA_STYLE('',(#569));
#569=FILL_AREA_STYLE_COLOUR('',#564);
#570=STYLED_ITEM('',(#571),#136);
#571=PRESENTATION_STYLE_ASSIGNMENT((#573));
#572=COLOUR_RGB('',5.09803921568627E-001,5.09803921568627E-001,
   5.88235294117647E-001);
#573=SURFACE_STYLE_USAGE(.BOTH.,#574);
#574=SURFACE_SIDE_STYLE('',(#575));
#575=SURFACE_STYLE_FILL_AREA(#576);
#576=FILL_AREA_STYLE('',(#577));
#577=FILL_AREA_STYLE_COLOUR('',#572);
#578=STYLED_ITEM('',(#579),#168);
#579=PRESENTATION_STYLE_ASSIGNMENT((#581));
#580=COLOUR_RGB('',5.09803921568627E-001,5.09803921568627E-001,
   5.88235294117647E-001);
#581=SURFACE_STYLE_USAGE(.BOTH.,#582);
#582=SURFACE_SIDE_STYLE('',(#583));
#583=SURFACE_STYLE_FILL_AREA(#584);
#584=FILL_AREA_STYLE('',(#585));
#585=FILL_AREA_STYLE_COLOUR('',#580);
#586=STYLED_ITEM('',(#587),#176);
#587=PRESENTATION_STYLE_ASSIGNMENT((#589));
#588=COLOUR_RGB('',5.09803921568627E-001,5.09803921568627E-001,
   5.88235294117647E-001);
#589=SURFACE_STYLE_USAGE(.BOTH.,#590);
#590=SURFACE_SIDE_STYLE('',(#591));
#591=SURFACE_STYLE_FILL_AREA(#592);
#592=FILL_AREA_STYLE('',(#593));
#593=FILL_AREA_STYLE_COLOUR('',#588);
#594=STYLED_ITEM('',(#595),#207);
#595=PRESENTATION_STYLE_ASSIGNMENT((#597));
#596=COLOUR_RGB('',5.09803921568627E-001,5.09803921568627E-001,
   5.88235294117647E-001);
#597=SURFACE_STYLE_USAGE(.BOTH.,#598);
#598=SURFACE_SIDE_STYLE('',(#599));
#599=SURFACE_STYLE_FILL_AREA(#600);
#600=FILL_AREA_STYLE('',(#601));
#601=FILL_AREA_STYLE_COLOUR('',#596);
#602=STYLED_ITEM('',(#603),#231);
#603=PRESENTATION_STYLE_ASSIGNMENT((#605));
#604=COLOUR_RGB('',5.09803921568627E-001,5.09803921568627E-001,
   5.88235294117647E-001);
#605=SURFACE_STYLE_USAGE(.BOTH.,#606);
#606=SURFACE_SIDE_STYLE('',(#607));
#607=SURFACE_STYLE_FILL_AREA(#608);
#608=FILL_AREA_STYLE('',(#609));
#609=FILL_AREA_STYLE_COLOUR('',#604);
#610=STYLED_ITEM('',(#611),#255);
#611=PRESENTATION_STYLE_ASSIGNMENT((#613));
#612=COLOUR_RGB('',5.09803921568627E-001,5.09803921568627E-001,
   5.88235294117647E-001);
#613=SURFACE_STYLE_USAGE(.BOTH.,#614);
#614=SURFACE_SIDE_STYLE('',(#615));
#615=SURFACE_STYLE_FILL_AREA(#616);
#616=FILL_AREA_STYLE('',(#617));
#617=FILL_AREA_STYLE_COLOUR('',#612);
#618=STYLED_ITEM('',(#619),#279);
#619=PRESENTATION_STYLE_ASSIGNMENT((#621));
#620=COLOUR_RGB('',5.09803921568627E-001,5.09803921568627E-001,
   5.88235294117647E-001);
#621=SURFACE_STYLE_USAGE(.BOTH.,#622);
#622=SURFACE_SIDE_STYLE('',(#623));
#623=SURFACE_STYLE_FILL_AREA(#624);
#624=FILL_AREA_STYLE('',(#625));
#625=FILL_AREA_STYLE_COLOUR('',#620);
#626=STYLED_ITEM('',(#627),#303);
#627=PRESENTATION_STYLE_ASSIGNMENT((#629));
#628=COLOUR_RGB('',5.09803921568627E-001,5.09803921568627E-001,
   5.88235294117647E-001);
#629=SURFACE_STYLE_USAGE(.BOTH.,#630);
#630=SURFACE_SIDE_STYLE('',(#631));
#631=SURFACE_STYLE_FILL_AREA(#632);
#632=FILL_AREA_STYLE('',(#633));
#633=FILL_AREA_STYLE_COLOUR('',#628);
#634=STYLED_ITEM('',(#635),#320);
#635=PRESENTATION_STYLE_ASSIGNMENT((#637));
#636=COLOUR_RGB('',5.09803921568627E-001,5.09803921568627E-001,
   5.88235294117647E-001);
#637=SURFACE_STYLE_USAGE(.BOTH.,#638);
#638=SURFACE_SIDE_STYLE('',(#639));
#639=SURFACE_STYLE_FILL_AREA(#640);
#640=FILL_AREA_STYLE('',(#641));
#641=FILL_AREA_STYLE_COLOUR('',#636);
#642=STYLED_ITEM('',(#643),#345);
#643=PRESENTATION_STYLE_ASSIGNMENT((#645));
#644=COLOUR_RGB('',5.09803921568627E-001,5.09803921568627E-001,
   5.88235294117647E-001);
#645=SURFACE_STYLE_USAGE(.BOTH.,#646);
#646=SURFACE_SIDE_STYLE('',(#647));
#647=SURFACE_STYLE_FILL_AREA(#648);
#648=FILL_AREA_STYLE('',(#649));
#649=FILL_AREA_STYLE_COLOUR('',#644);
#650=STYLED_ITEM('',(#651),#377);
#651=PRESENTATION_STYLE_ASSIGNMENT((#653));
#652=COLOUR_RGB('',5.09803921568627E-001,5.09803921568627E-001,
   5.88235294117647E-001);
#653=SURFACE_STYLE_USAGE(.BOTH.,#654);
#654=SURFACE_SIDE_STYLE('',(#655));
#655=SURFACE_STYLE_FILL_AREA(#656);
#656=FILL_AREA_STYLE('',(#657));
#657=FILL_AREA_STYLE_COLOUR('',#652);
#658=STYLED_ITEM('',(#659),#406);
#659=PRESENTATION_STYLE_ASSIGNMENT((#661));
#660=COLOUR_RGB('',5.09803921568627E-001,5.09803921568627E-001,
   5.88235294117647E-001);
#661=SURFACE_STYLE_USAGE(.BOTH.,#662);
#662=SURFACE_SIDE_STYLE('',(#663));
#663=SURFACE_STYLE_FILL_AREA(#664);
#664=FILL_AREA_STYLE('',(#665));
#665=FILL_AREA_STYLE_COLOUR('',#660);
#666=STYLED_ITEM('',(#667),#414);
#667=PRESENTATION_STYLE_ASSIGNMENT((#669));
#668=COLOUR_RGB('',5.09803921568627E-001,5.09803921568627E-001,
   5.88235294117647E-001);
#669=SURFACE_STYLE_USAGE(.BOTH.,#670);
#670=SURFACE_SIDE_STYLE('',(#671));
#671=SURFACE_STYLE_FILL_AREA(#672);
#672=FILL_AREA_STYLE('',(#673));
#673=FILL_AREA_STYLE_COLOUR('',#668);
#674=STYLED_ITEM('',(#675),#436);
#675=PRESENTATION_STYLE_ASSIGNMENT((#677));
#676=COLOUR_RGB('',5.09803921568627E-001,5.09803921568627E-001,
   5.88235294117647E-001);
#677=SURFACE_STYLE_USAGE(.BOTH.,#678);
#678=SURFACE_SIDE_STYLE('',(#679));
#679=SURFACE_STYLE_FILL_AREA(#680);
#680=FILL_AREA_STYLE('',(#681));
#681=FILL_AREA_STYLE_COLOUR('',#676);
#682=STYLED_ITEM('',(#683),#443);
#683=PRESENTATION_STYLE_ASSIGNMENT((#685));
#684=COLOUR_RGB('',5.09803921568627E-001,5.09803921568627E-001,
   5.88235294117647E-001);
#685=SURFACE_STYLE_USAGE(.BOTH.,#686);
#686=SURFACE_SIDE_STYLE('',(#687));
#687=SURFACE_STYLE_FILL_AREA(#688);
#688=FILL_AREA_STYLE('',(#689));
#689=FILL_AREA_STYLE_COLOUR('',#684);
#690=MECHANICAL_DESIGN_GEOMETRIC_PRESENTATION_REPRESENTATION($,(#530,
   #538,#546,#554,#562,#570,#578,#586,#594,#602,#610,#618,#626,#634,#642
   ,#650,#658,#666,#674,#682),#447);
ENDSEC;
END-ISO-10303-21;
                
                  
               
                   
                    
     
                
