ISO-10303-21;
HEADER;
FILE_DESCRIPTION(('starvars output'),'2;1');
FILE_NAME('cv20200728004749000004744.stp','00:47:49   2020/07/28',(
   'Thomas Industrial Network Germany GmbH'),(
   'Thomas Industrial Network Germany GmbH'),'unknown preprocess','ACIS'
   ,'unknown authorization');
FILE_SCHEMA(('AUTOMOTIVE_DESIGN_CC2 {UNKNOWN IMPLEMENTATION LEVEL}'));
ENDSEC;
/* ISO 10303-21 file written by STEP Caselib, ProSTEP GmbH, Germany */
DATA;
#1=CARTESIAN_POINT('POINT1',(-7.62731854901567E-001,3.81E-001,3.81E-001)
   );
#2=VERTEX_POINT('VERTEX1',#1);
#3=CARTESIAN_POINT('POINT2',(-7.62731854901567E-001,2.3114E+000,
   3.81E-001));
#4=VERTEX_POINT('VERTEX2',#3);
#5=CARTESIAN_POINT('POS1',(-7.62731854901567E-001,0.0E+000,3.81E-001));
#6=DIRECTION('DIR1',(0.0E+000,1.0E+000,0.0E+000));
#7=VECTOR('VEC1',#6,2.54E+001);
#8=LINE('STRAIGHT1',#5,#7);
#9=EDGE_CURVE('EDGE1',#2,#4,#8,.T.);
#10=ORIENTED_EDGE('COEDGE1',*,*,#9,.T.);
#11=CARTESIAN_POINT('POINT3',(-7.62731854901567E-001,2.3114E+000,
   -3.81E-001));
#12=VERTEX_POINT('VERTEX3',#11);
#13=CARTESIAN_POINT('POS2',(-7.62731854901567E-001,2.3114E+000,0.0E+000)
   );
#14=DIRECTION('DIR2',(0.0E+000,0.0E+000,-1.0E+000));
#15=VECTOR('VEC2',#14,2.54E+001);
#16=LINE('STRAIGHT2',#13,#15);
#17=EDGE_CURVE('EDGE2',#4,#12,#16,.T.);
#18=ORIENTED_EDGE('COEDGE2',*,*,#17,.T.);
#19=CARTESIAN_POINT('POINT4',(-7.62731854901567E-001,3.81E-001,
   -3.81E-001));
#20=VERTEX_POINT('VERTEX4',#19);
#21=CARTESIAN_POINT('POS3',(-7.62731854901567E-001,0.0E+000,-3.81E-001))
   ;
#22=DIRECTION('DIR3',(0.0E+000,-1.0E+000,0.0E+000));
#23=VECTOR('VEC3',#22,2.54E+001);
#24=LINE('STRAIGHT3',#21,#23);
#25=EDGE_CURVE('EDGE3',#12,#20,#24,.T.);
#26=ORIENTED_EDGE('COEDGE3',*,*,#25,.T.);
#27=CARTESIAN_POINT('POINT5',(-7.62731854901567E-001,3.81E-001,
   -2.3114E+000));
#28=VERTEX_POINT('VERTEX5',#27);
#29=CARTESIAN_POINT('POS4',(-7.62731854901567E-001,3.81E-001,0.0E+000));
#30=DIRECTION('DIR4',(0.0E+000,0.0E+000,-1.0E+000));
#31=VECTOR('VEC4',#30,2.54E+001);
#32=LINE('STRAIGHT4',#29,#31);
#33=EDGE_CURVE('EDGE4',#20,#28,#32,.T.);
#34=ORIENTED_EDGE('COEDGE4',*,*,#33,.T.);
#35=CARTESIAN_POINT('POINT6',(-7.62731854901567E-001,-3.81E-001,
   -2.3114E+000));
#36=VERTEX_POINT('VERTEX6',#35);
#37=CARTESIAN_POINT('POS5',(-7.62731854901567E-001,0.0E+000,-2.3114E+000
   ));
#38=DIRECTION('DIR5',(0.0E+000,-1.0E+000,0.0E+000));
#39=VECTOR('VEC5',#38,2.54E+001);
#40=LINE('STRAIGHT5',#37,#39);
#41=EDGE_CURVE('EDGE5',#28,#36,#40,.T.);
#42=ORIENTED_EDGE('COEDGE5',*,*,#41,.T.);
#43=CARTESIAN_POINT('POINT7',(-7.62731854901567E-001,-3.81E-001,
   -3.81E-001));
#44=VERTEX_POINT('VERTEX7',#43);
#45=CARTESIAN_POINT('POS6',(-7.62731854901567E-001,-3.81E-001,0.0E+000))
   ;
#46=DIRECTION('DIR6',(0.0E+000,0.0E+000,-1.0E+000));
#47=VECTOR('VEC6',#46,2.54E+001);
#48=LINE('STRAIGHT6',#45,#47);
#49=EDGE_CURVE('EDGE6',#44,#36,#48,.T.);
#50=ORIENTED_EDGE('COEDGE6',*,*,#49,.F.);
#51=CARTESIAN_POINT('POINT8',(-7.62731854901567E-001,-2.3114E+000,
   -3.81E-001));
#52=VERTEX_POINT('VERTEX8',#51);
#53=EDGE_CURVE('EDGE7',#44,#52,#24,.T.);
#54=ORIENTED_EDGE('COEDGE7',*,*,#53,.T.);
#55=CARTESIAN_POINT('POINT9',(-7.62731854901567E-001,-2.3114E+000,
   3.81E-001));
#56=VERTEX_POINT('VERTEX9',#55);
#57=CARTESIAN_POINT('POS7',(-7.62731854901567E-001,-2.3114E+000,0.0E+000
   ));
#58=DIRECTION('DIR7',(0.0E+000,0.0E+000,-1.0E+000));
#59=VECTOR('VEC7',#58,2.54E+001);
#60=LINE('STRAIGHT7',#57,#59);
#61=EDGE_CURVE('EDGE8',#56,#52,#60,.T.);
#62=ORIENTED_EDGE('COEDGE8',*,*,#61,.F.);
#63=CARTESIAN_POINT('POINT10',(-7.62731854901567E-001,-3.81E-001,
   3.81E-001));
#64=VERTEX_POINT('VERTEX10',#63);
#65=EDGE_CURVE('EDGE9',#56,#64,#8,.T.);
#66=ORIENTED_EDGE('COEDGE9',*,*,#65,.T.);
#67=CARTESIAN_POINT('POINT11',(-7.62731854901567E-001,-3.81E-001,
   2.3114E+000));
#68=VERTEX_POINT('VERTEX11',#67);
#69=EDGE_CURVE('EDGE10',#68,#64,#48,.T.);
#70=ORIENTED_EDGE('COEDGE10',*,*,#69,.F.);
#71=CARTESIAN_POINT('POINT12',(-7.62731854901567E-001,3.81E-001,
   2.3114E+000));
#72=VERTEX_POINT('VERTEX12',#71);
#73=CARTESIAN_POINT('POS8',(-7.62731854901567E-001,0.0E+000,2.3114E+000)
   );
#74=DIRECTION('DIR8',(0.0E+000,1.0E+000,0.0E+000));
#75=VECTOR('VEC8',#74,2.54E+001);
#76=LINE('STRAIGHT8',#73,#75);
#77=EDGE_CURVE('EDGE11',#68,#72,#76,.T.);
#78=ORIENTED_EDGE('COEDGE11',*,*,#77,.T.);
#79=EDGE_CURVE('EDGE12',#72,#2,#32,.T.);
#80=ORIENTED_EDGE('COEDGE12',*,*,#79,.T.);
#81=EDGE_LOOP('NONE',(#10,#18,#26,#34,#42,#50,#54,#62,#66,#70,#78,#80));
#82=FACE_BOUND('LOOP1',#81,.T.);
#83=CARTESIAN_POINT('POS9',(-7.62731854901567E-001,0.0E+000,0.0E+000));
#84=DIRECTION('DIR9',(-1.0E+000,0.0E+000,0.0E+000));
#85=DIRECTION('DIR10',(0.0E+000,1.0E+000,0.0E+000));
#86=AXIS2_PLACEMENT_3D('AXIS1',#83,#84,#85);
#87=PLANE('PLANE1',#86);
#88=ADVANCED_FACE('FACE1',(#82),#87,.T.);
#89=CARTESIAN_POINT('POINT13',(-2.54E+000,3.81E-001,3.81E-001));
#90=VERTEX_POINT('VERTEX13',#89);
#91=CARTESIAN_POINT('POS10',(-1.65136592745078E+000,3.81E-001,3.81E-001)
   );
#92=DIRECTION('DIR11',(-1.0E+000,0.0E+000,0.0E+000));
#93=VECTOR('VEC9',#92,1.0E+000);
#94=LINE('STRAIGHT9',#91,#93);
#95=EDGE_CURVE('EDGE13',#2,#90,#94,.T.);
#96=ORIENTED_EDGE('COEDGE13',*,*,#95,.T.);
#97=CARTESIAN_POINT('POINT14',(-2.54E+000,2.3114E+000,3.81E-001));
#98=VERTEX_POINT('VERTEX14',#97);
#99=CARTESIAN_POINT('POS11',(-2.54E+000,7.7762503467721E-017,3.81E-001))
   ;
#100=DIRECTION('DIR12',(-0.0E+000,-1.0E+000,0.0E+000));
#101=VECTOR('VEC10',#100,1.0E+000);
#102=LINE('STRAIGHT10',#99,#101);
#103=EDGE_CURVE('EDGE14',#98,#90,#102,.T.);
#104=ORIENTED_EDGE('COEDGE14',*,*,#103,.F.);
#105=CARTESIAN_POINT('POS12',(-1.65136592745078E+000,2.3114E+000,
   3.81E-001));
#106=DIRECTION('DIR13',(-1.0E+000,0.0E+000,0.0E+000));
#107=VECTOR('VEC11',#106,2.54E+001);
#108=LINE('STRAIGHT11',#105,#107);
#109=EDGE_CURVE('EDGE15',#4,#98,#108,.T.);
#110=ORIENTED_EDGE('COEDGE15',*,*,#109,.F.);
#111=ORIENTED_EDGE('COEDGE16',*,*,#9,.F.);
#112=EDGE_LOOP('NONE',(#96,#104,#110,#111));
#113=FACE_BOUND('LOOP1',#112,.T.);
#114=CARTESIAN_POINT('POS13',(-1.65136592745078E+000,0.0E+000,3.81E-001)
   );
#115=DIRECTION('DIR14',(0.0E+000,0.0E+000,1.0E+000));
#116=DIRECTION('DIR15',(1.0E+000,0.0E+000,0.0E+000));
#117=AXIS2_PLACEMENT_3D('AXIS2',#114,#115,#116);
#118=PLANE('PLANE2',#117);
#119=ADVANCED_FACE('FACE2',(#113),#118,.F.);
#120=ORIENTED_EDGE('COEDGE17',*,*,#17,.F.);
#121=ORIENTED_EDGE('COEDGE18',*,*,#109,.T.);
#122=CARTESIAN_POINT('POINT15',(-2.54E+000,2.3114E+000,-3.81E-001));
#123=VERTEX_POINT('VERTEX15',#122);
#124=CARTESIAN_POINT('POS14',(-2.54E+000,2.3114E+000,9.906E-001));
#125=DIRECTION('DIR16',(-1.83690953073357E-016,0.0E+000,1.0E+000));
#126=VECTOR('VEC12',#125,1.0E+000);
#127=LINE('STRAIGHT12',#124,#126);
#128=EDGE_CURVE('EDGE16',#123,#98,#127,.T.);
#129=ORIENTED_EDGE('COEDGE19',*,*,#128,.F.);
#130=CARTESIAN_POINT('POS15',(-1.65136592745078E+000,2.3114E+000,
   -3.81E-001));
#131=DIRECTION('DIR17',(1.0E+000,0.0E+000,0.0E+000));
#132=VECTOR('VEC13',#131,2.54E+001);
#133=LINE('STRAIGHT13',#130,#132);
#134=EDGE_CURVE('EDGE17',#123,#12,#133,.T.);
#135=ORIENTED_EDGE('COEDGE20',*,*,#134,.T.);
#136=EDGE_LOOP('NONE',(#120,#121,#129,#135));
#137=FACE_BOUND('LOOP1',#136,.T.);
#138=CARTESIAN_POINT('POS16',(-1.65136592745078E+000,2.3114E+000,
   0.0E+000));
#139=DIRECTION('DIR18',(0.0E+000,-1.0E+000,0.0E+000));
#140=DIRECTION('DIR19',(1.0E+000,0.0E+000,0.0E+000));
#141=AXIS2_PLACEMENT_3D('AXIS3',#138,#139,#140);
#142=PLANE('PLANE3',#141);
#143=ADVANCED_FACE('FACE3',(#137),#142,.T.);
#144=CARTESIAN_POINT('POINT16',(-2.54E+000,3.81E-001,-3.81E-001));
#145=VERTEX_POINT('VERTEX16',#144);
#146=CARTESIAN_POINT('POS17',(-1.65136592745078E+000,3.81E-001,
   -3.81E-001));
#147=DIRECTION('DIR20',(1.0E+000,0.0E+000,-0.0E+000));
#148=VECTOR('VEC14',#147,1.0E+000);
#149=LINE('STRAIGHT14',#146,#148);
#150=EDGE_CURVE('EDGE18',#145,#20,#149,.T.);
#151=ORIENTED_EDGE('COEDGE21',*,*,#150,.T.);
#152=ORIENTED_EDGE('COEDGE22',*,*,#25,.F.);
#153=ORIENTED_EDGE('COEDGE23',*,*,#134,.F.);
#154=CARTESIAN_POINT('POS18',(-2.54E+000,7.7762503467721E-017,-3.81E-001
   ));
#155=DIRECTION('DIR21',(0.0E+000,1.0E+000,-0.0E+000));
#156=VECTOR('VEC15',#155,1.0E+000);
#157=LINE('STRAIGHT15',#154,#156);
#158=EDGE_CURVE('EDGE19',#145,#123,#157,.T.);
#159=ORIENTED_EDGE('COEDGE24',*,*,#158,.F.);
#160=EDGE_LOOP('NONE',(#151,#152,#153,#159));
#161=FACE_BOUND('LOOP1',#160,.T.);
#162=CARTESIAN_POINT('POS19',(-1.65136592745078E+000,0.0E+000,-3.81E-001
   ));
#163=DIRECTION('DIR22',(0.0E+000,0.0E+000,1.0E+000));
#164=DIRECTION('DIR23',(1.0E+000,0.0E+000,0.0E+000));
#165=AXIS2_PLACEMENT_3D('AXIS4',#162,#163,#164);
#166=PLANE('PLANE4',#165);
#167=ADVANCED_FACE('FACE4',(#161),#166,.T.);
#168=ORIENTED_EDGE('COEDGE25',*,*,#150,.F.);
#169=CARTESIAN_POINT('POINT17',(-2.54E+000,3.81E-001,-2.3114E+000));
#170=VERTEX_POINT('VERTEX17',#169);
#171=CARTESIAN_POINT('POS20',(-2.54E+000,3.81E-001,9.906E-001));
#172=DIRECTION('DIR24',(-1.83690953073357E-016,0.0E+000,1.0E+000));
#173=VECTOR('VEC16',#172,1.0E+000);
#174=LINE('STRAIGHT16',#171,#173);
#175=EDGE_CURVE('EDGE20',#170,#145,#174,.T.);
#176=ORIENTED_EDGE('COEDGE26',*,*,#175,.F.);
#177=CARTESIAN_POINT('POS21',(-1.65136592745078E+000,3.81E-001,
   -2.3114E+000));
#178=DIRECTION('DIR25',(1.0E+000,0.0E+000,0.0E+000));
#179=VECTOR('VEC17',#178,2.54E+001);
#180=LINE('STRAIGHT17',#177,#179);
#181=EDGE_CURVE('EDGE21',#170,#28,#180,.T.);
#182=ORIENTED_EDGE('COEDGE27',*,*,#181,.T.);
#183=ORIENTED_EDGE('COEDGE28',*,*,#33,.F.);
#184=EDGE_LOOP('NONE',(#168,#176,#182,#183));
#185=FACE_BOUND('LOOP1',#184,.T.);
#186=CARTESIAN_POINT('POS22',(-1.65136592745078E+000,3.81E-001,0.0E+000)
   );
#187=DIRECTION('DIR26',(0.0E+000,-1.0E+000,0.0E+000));
#188=DIRECTION('DIR27',(1.0E+000,0.0E+000,0.0E+000));
#189=AXIS2_PLACEMENT_3D('AXIS5',#186,#187,#188);
#190=PLANE('PLANE5',#189);
#191=ADVANCED_FACE('FACE5',(#185),#190,.T.);
#192=ORIENTED_EDGE('COEDGE29',*,*,#41,.F.);
#193=ORIENTED_EDGE('COEDGE30',*,*,#181,.F.);
#194=CARTESIAN_POINT('POINT18',(-2.54E+000,-3.81E-001,-2.3114E+000));
#195=VERTEX_POINT('VERTEX18',#194);
#196=CARTESIAN_POINT('POS23',(-2.54E+000,7.7762503467721E-017,
   -2.3114E+000));
#197=DIRECTION('DIR28',(0.0E+000,1.0E+000,-0.0E+000));
#198=VECTOR('VEC18',#197,1.0E+000);
#199=LINE('STRAIGHT18',#196,#198);
#200=EDGE_CURVE('EDGE22',#195,#170,#199,.T.);
#201=ORIENTED_EDGE('COEDGE31',*,*,#200,.F.);
#202=CARTESIAN_POINT('POS24',(-1.65136592745078E+000,-3.81E-001,
   -2.3114E+000));
#203=DIRECTION('DIR29',(-1.0E+000,0.0E+000,0.0E+000));
#204=VECTOR('VEC19',#203,2.54E+001);
#205=LINE('STRAIGHT19',#202,#204);
#206=EDGE_CURVE('EDGE23',#36,#195,#205,.T.);
#207=ORIENTED_EDGE('COEDGE32',*,*,#206,.F.);
#208=EDGE_LOOP('NONE',(#192,#193,#201,#207));
#209=FACE_BOUND('LOOP1',#208,.T.);
#210=CARTESIAN_POINT('POS25',(-1.65136592745078E+000,0.0E+000,
   -2.3114E+000));
#211=DIRECTION('DIR30',(0.0E+000,0.0E+000,1.0E+000));
#212=DIRECTION('DIR31',(1.0E+000,0.0E+000,0.0E+000));
#213=AXIS2_PLACEMENT_3D('AXIS6',#210,#211,#212);
#214=PLANE('PLANE6',#213);
#215=ADVANCED_FACE('FACE6',(#209),#214,.T.);
#216=CARTESIAN_POINT('POINT19',(-2.54E+000,-3.81E-001,-3.81E-001));
#217=VERTEX_POINT('VERTEX19',#216);
#218=CARTESIAN_POINT('POS26',(-1.65136592745078E+000,-3.81E-001,
   -3.81E-001));
#219=DIRECTION('DIR32',(-1.0E+000,0.0E+000,0.0E+000));
#220=VECTOR('VEC20',#219,1.0E+000);
#221=LINE('STRAIGHT20',#218,#220);
#222=EDGE_CURVE('EDGE24',#44,#217,#221,.T.);
#223=ORIENTED_EDGE('COEDGE33',*,*,#222,.F.);
#224=ORIENTED_EDGE('COEDGE34',*,*,#49,.T.);
#225=ORIENTED_EDGE('COEDGE35',*,*,#206,.T.);
#226=CARTESIAN_POINT('POS27',(-2.54E+000,-3.81E-001,9.906E-001));
#227=DIRECTION('DIR33',(1.83690953073357E-016,0.0E+000,-1.0E+000));
#228=VECTOR('VEC21',#227,1.0E+000);
#229=LINE('STRAIGHT21',#226,#228);
#230=EDGE_CURVE('EDGE25',#217,#195,#229,.T.);
#231=ORIENTED_EDGE('COEDGE36',*,*,#230,.F.);
#232=EDGE_LOOP('NONE',(#223,#224,#225,#231));
#233=FACE_BOUND('LOOP1',#232,.T.);
#234=CARTESIAN_POINT('POS28',(-1.65136592745078E+000,-3.81E-001,0.0E+000
   ));
#235=DIRECTION('DIR34',(0.0E+000,1.0E+000,0.0E+000));
#236=DIRECTION('DIR35',(1.0E+000,0.0E+000,0.0E+000));
#237=AXIS2_PLACEMENT_3D('AXIS7',#234,#235,#236);
#238=PLANE('PLANE7',#237);
#239=ADVANCED_FACE('FACE7',(#233),#238,.T.);
#240=ORIENTED_EDGE('COEDGE37',*,*,#222,.T.);
#241=CARTESIAN_POINT('POINT20',(-2.54E+000,-2.3114E+000,-3.81E-001));
#242=VERTEX_POINT('VERTEX20',#241);
#243=EDGE_CURVE('EDGE26',#242,#217,#157,.T.);
#244=ORIENTED_EDGE('COEDGE38',*,*,#243,.F.);
#245=CARTESIAN_POINT('POS29',(-1.65136592745078E+000,-2.3114E+000,
   -3.81E-001));
#246=DIRECTION('DIR36',(-1.0E+000,0.0E+000,0.0E+000));
#247=VECTOR('VEC22',#246,2.54E+001);
#248=LINE('STRAIGHT22',#245,#247);
#249=EDGE_CURVE('EDGE27',#52,#242,#248,.T.);
#250=ORIENTED_EDGE('COEDGE39',*,*,#249,.F.);
#251=ORIENTED_EDGE('COEDGE40',*,*,#53,.F.);
#252=EDGE_LOOP('NONE',(#240,#244,#250,#251));
#253=FACE_BOUND('LOOP1',#252,.T.);
#254=ADVANCED_FACE('FACE8',(#253),#166,.T.);
#255=CARTESIAN_POINT('POINT21',(-2.54E+000,-2.3114E+000,3.81E-001));
#256=VERTEX_POINT('VERTEX21',#255);
#257=CARTESIAN_POINT('POS30',(-2.54E+000,-2.3114E+000,9.906E-001));
#258=DIRECTION('DIR37',(1.83690953073357E-016,0.0E+000,-1.0E+000));
#259=VECTOR('VEC23',#258,1.0E+000);
#260=LINE('STRAIGHT23',#257,#259);
#261=EDGE_CURVE('EDGE28',#256,#242,#260,.T.);
#262=ORIENTED_EDGE('COEDGE41',*,*,#261,.F.);
#263=CARTESIAN_POINT('POS31',(-1.65136592745078E+000,-2.3114E+000,
   3.81E-001));
#264=DIRECTION('DIR38',(1.0E+000,0.0E+000,0.0E+000));
#265=VECTOR('VEC24',#264,2.54E+001);
#266=LINE('STRAIGHT24',#263,#265);
#267=EDGE_CURVE('EDGE29',#256,#56,#266,.T.);
#268=ORIENTED_EDGE('COEDGE42',*,*,#267,.T.);
#269=ORIENTED_EDGE('COEDGE43',*,*,#61,.T.);
#270=ORIENTED_EDGE('COEDGE44',*,*,#249,.T.);
#271=EDGE_LOOP('NONE',(#262,#268,#269,#270));
#272=FACE_BOUND('LOOP1',#271,.T.);
#273=CARTESIAN_POINT('POS32',(-1.65136592745078E+000,-2.3114E+000,
   0.0E+000));
#274=DIRECTION('DIR39',(0.0E+000,1.0E+000,0.0E+000));
#275=DIRECTION('DIR40',(1.0E+000,0.0E+000,0.0E+000));
#276=AXIS2_PLACEMENT_3D('AXIS8',#273,#274,#275);
#277=PLANE('PLANE8',#276);
#278=ADVANCED_FACE('FACE9',(#272),#277,.T.);
#279=CARTESIAN_POINT('POINT22',(-2.54E+000,-3.81E-001,3.81E-001));
#280=VERTEX_POINT('VERTEX22',#279);
#281=CARTESIAN_POINT('POS33',(-1.65136592745078E+000,-3.81E-001,
   3.81E-001));
#282=DIRECTION('DIR41',(1.0E+000,0.0E+000,0.0E+000));
#283=VECTOR('VEC25',#282,1.0E+000);
#284=LINE('STRAIGHT25',#281,#283);
#285=EDGE_CURVE('EDGE30',#280,#64,#284,.T.);
#286=ORIENTED_EDGE('COEDGE45',*,*,#285,.T.);
#287=ORIENTED_EDGE('COEDGE46',*,*,#65,.F.);
#288=ORIENTED_EDGE('COEDGE47',*,*,#267,.F.);
#289=EDGE_CURVE('EDGE31',#280,#256,#102,.T.);
#290=ORIENTED_EDGE('COEDGE48',*,*,#289,.F.);
#291=EDGE_LOOP('NONE',(#286,#287,#288,#290));
#292=FACE_BOUND('LOOP1',#291,.T.);
#293=ADVANCED_FACE('FACE10',(#292),#118,.F.);
#294=ORIENTED_EDGE('COEDGE49',*,*,#285,.F.);
#295=CARTESIAN_POINT('POINT23',(-2.54E+000,-3.81E-001,2.3114E+000));
#296=VERTEX_POINT('VERTEX23',#295);
#297=EDGE_CURVE('EDGE32',#296,#280,#229,.T.);
#298=ORIENTED_EDGE('COEDGE50',*,*,#297,.F.);
#299=CARTESIAN_POINT('POS34',(-1.65136592745078E+000,-3.81E-001,
   2.3114E+000));
#300=DIRECTION('DIR42',(1.0E+000,0.0E+000,0.0E+000));
#301=VECTOR('VEC26',#300,2.54E+001);
#302=LINE('STRAIGHT26',#299,#301);
#303=EDGE_CURVE('EDGE33',#296,#68,#302,.T.);
#304=ORIENTED_EDGE('COEDGE51',*,*,#303,.T.);
#305=ORIENTED_EDGE('COEDGE52',*,*,#69,.T.);
#306=EDGE_LOOP('NONE',(#294,#298,#304,#305));
#307=FACE_BOUND('LOOP1',#306,.T.);
#308=ADVANCED_FACE('FACE11',(#307),#238,.T.);
#309=ORIENTED_EDGE('COEDGE53',*,*,#77,.F.);
#310=ORIENTED_EDGE('COEDGE54',*,*,#303,.F.);
#311=CARTESIAN_POINT('POINT24',(-2.54E+000,3.81E-001,2.3114E+000));
#312=VERTEX_POINT('VERTEX24',#311);
#313=CARTESIAN_POINT('POS35',(-2.54E+000,7.7762503467721E-017,
   2.3114E+000));
#314=DIRECTION('DIR43',(-0.0E+000,-1.0E+000,0.0E+000));
#315=VECTOR('VEC27',#314,1.0E+000);
#316=LINE('STRAIGHT27',#313,#315);
#317=EDGE_CURVE('EDGE34',#312,#296,#316,.T.);
#318=ORIENTED_EDGE('COEDGE55',*,*,#317,.F.);
#319=CARTESIAN_POINT('POS36',(-1.65136592745078E+000,3.81E-001,
   2.3114E+000));
#320=DIRECTION('DIR44',(-1.0E+000,0.0E+000,0.0E+000));
#321=VECTOR('VEC28',#320,2.54E+001);
#322=LINE('STRAIGHT28',#319,#321);
#323=EDGE_CURVE('EDGE35',#72,#312,#322,.T.);
#324=ORIENTED_EDGE('COEDGE56',*,*,#323,.F.);
#325=EDGE_LOOP('NONE',(#309,#310,#318,#324));
#326=FACE_BOUND('LOOP1',#325,.T.);
#327=CARTESIAN_POINT('POS37',(-1.65136592745078E+000,0.0E+000,
   2.3114E+000));
#328=DIRECTION('DIR45',(0.0E+000,0.0E+000,1.0E+000));
#329=DIRECTION('DIR46',(1.0E+000,0.0E+000,0.0E+000));
#330=AXIS2_PLACEMENT_3D('AXIS9',#327,#328,#329);
#331=PLANE('PLANE9',#330);
#332=ADVANCED_FACE('FACE12',(#326),#331,.F.);
#333=ORIENTED_EDGE('COEDGE57',*,*,#95,.F.);
#334=ORIENTED_EDGE('COEDGE58',*,*,#79,.F.);
#335=ORIENTED_EDGE('COEDGE59',*,*,#323,.T.);
#336=EDGE_CURVE('EDGE36',#90,#312,#174,.T.);
#337=ORIENTED_EDGE('COEDGE60',*,*,#336,.F.);
#338=EDGE_LOOP('NONE',(#333,#334,#335,#337));
#339=FACE_BOUND('LOOP1',#338,.T.);
#340=ADVANCED_FACE('FACE13',(#339),#190,.T.);
#341=CARTESIAN_POINT('POINT25',(-2.54E+000,1.55525006935442E-016,
   3.9624E+000));
#342=VERTEX_POINT('VERTEX25',#341);
#343=CARTESIAN_POINT('POINT26',(-2.54E+000,-4.85238021638579E-016,
   -3.9624E+000));
#344=VERTEX_POINT('VERTEX26',#343);
#345=CARTESIAN_POINT('POS38',(-2.54E+000,0.0E+000,-4.66575020806326E-016
   ));
#346=DIRECTION('DIR47',(1.0E+000,0.0E+000,1.83690953073357E-016));
#347=DIRECTION('DIR48',(-1.83690953073357E-016,0.0E+000,1.0E+000));
#348=AXIS2_PLACEMENT_3D('AXIS10',#345,#346,#347);
#349=CIRCLE('ELLIPSE1',#348,3.9624E+000);
#350=EDGE_CURVE('EDGE37',#342,#344,#349,.T.);
#351=ORIENTED_EDGE('COEDGE61',*,*,#350,.F.);
#352=EDGE_CURVE('EDGE38',#344,#342,#349,.T.);
#353=ORIENTED_EDGE('COEDGE62',*,*,#352,.F.);
#354=EDGE_LOOP('NONE',(#351,#353));
#355=FACE_BOUND('LOOP1',#354,.T.);
#356=ORIENTED_EDGE('COEDGE63',*,*,#336,.T.);
#357=ORIENTED_EDGE('COEDGE64',*,*,#317,.T.);
#358=ORIENTED_EDGE('COEDGE65',*,*,#297,.T.);
#359=ORIENTED_EDGE('COEDGE66',*,*,#289,.T.);
#360=ORIENTED_EDGE('COEDGE67',*,*,#261,.T.);
#361=ORIENTED_EDGE('COEDGE68',*,*,#243,.T.);
#362=ORIENTED_EDGE('COEDGE69',*,*,#230,.T.);
#363=ORIENTED_EDGE('COEDGE70',*,*,#200,.T.);
#364=ORIENTED_EDGE('COEDGE71',*,*,#175,.T.);
#365=ORIENTED_EDGE('COEDGE72',*,*,#158,.T.);
#366=ORIENTED_EDGE('COEDGE73',*,*,#128,.T.);
#367=ORIENTED_EDGE('COEDGE74',*,*,#103,.T.);
#368=EDGE_LOOP('NONE',(#356,#357,#358,#359,#360,#361,#362,#363,#364,#365
   ,#366,#367));
#369=FACE_BOUND('LOOP1',#368,.T.);
#370=CARTESIAN_POINT('POS39',(-2.54E+000,1.55525006935442E-016,
   1.9812E+000));
#371=DIRECTION('DIR49',(-1.0E+000,0.0E+000,-1.83690953073357E-016));
#372=DIRECTION('DIR50',(0.0E+000,1.0E+000,0.0E+000));
#373=AXIS2_PLACEMENT_3D('AXIS11',#370,#371,#372);
#374=PLANE('PLANE10',#373);
#375=ADVANCED_FACE('FACE14',(#355,#369),#374,.T.);
#376=CARTESIAN_POINT('POINT27',(-2.286E+000,1.39972506241898E-016,
   3.9624E+000));
#377=VERTEX_POINT('VERTEX27',#376);
#378=CARTESIAN_POINT('POS40',(-2.413E+000,4.85238021638579E-016,
   3.9624E+000));
#379=DIRECTION('DIR51',(1.0E+000,0.0E+000,1.83690953073357E-016));
#380=VECTOR('VEC29',#379,1.0E+000);
#381=LINE('STRAIGHT29',#378,#380);
#382=EDGE_CURVE('EDGE39',#342,#377,#381,.T.);
#383=ORIENTED_EDGE('COEDGE75',*,*,#382,.T.);
#384=CARTESIAN_POINT('POINT28',(-2.286E+000,-4.85238021638579E-016,
   -3.9624E+000));
#385=VERTEX_POINT('VERTEX28',#384);
#386=CARTESIAN_POINT('POS41',(-2.286E+000,0.0E+000,
   -4.19917518725693E-016));
#387=DIRECTION('DIR52',(1.0E+000,0.0E+000,1.83690953073357E-016));
#388=DIRECTION('DIR53',(-1.83690953073357E-016,0.0E+000,1.0E+000));
#389=AXIS2_PLACEMENT_3D('AXIS12',#386,#387,#388);
#390=CIRCLE('ELLIPSE2',#389,3.9624E+000);
#391=EDGE_CURVE('EDGE40',#385,#377,#390,.T.);
#392=ORIENTED_EDGE('COEDGE76',*,*,#391,.F.);
#393=CARTESIAN_POINT('POS42',(-2.413E+000,-4.85238021638579E-016,
   -3.9624E+000));
#394=DIRECTION('DIR54',(-1.0E+000,-0.0E+000,-1.83690953073357E-016));
#395=VECTOR('VEC30',#394,1.0E+000);
#396=LINE('STRAIGHT30',#393,#395);
#397=EDGE_CURVE('EDGE41',#385,#344,#396,.T.);
#398=ORIENTED_EDGE('COEDGE77',*,*,#397,.T.);
#399=ORIENTED_EDGE('COEDGE78',*,*,#352,.T.);
#400=EDGE_LOOP('NONE',(#383,#392,#398,#399));
#401=FACE_BOUND('LOOP1',#400,.T.);
#402=CARTESIAN_POINT('POS43',(-2.413E+000,0.0E+000,
   -4.43246269766009E-016));
#403=DIRECTION('DIR55',(1.0E+000,0.0E+000,1.83690953073357E-016));
#404=DIRECTION('DIR56',(-1.83690953073357E-016,0.0E+000,1.0E+000));
#405=AXIS2_PLACEMENT_3D('AXIS13',#402,#403,#404);
#406=CYLINDRICAL_SURFACE('CONE_SURF1',#405,3.9624E+000);
#407=ADVANCED_FACE('FACE15',(#401),#406,.T.);
#408=ORIENTED_EDGE('COEDGE79',*,*,#382,.F.);
#409=ORIENTED_EDGE('COEDGE80',*,*,#350,.T.);
#410=ORIENTED_EDGE('COEDGE81',*,*,#397,.F.);
#411=EDGE_CURVE('EDGE42',#377,#385,#390,.T.);
#412=ORIENTED_EDGE('COEDGE82',*,*,#411,.F.);
#413=EDGE_LOOP('NONE',(#408,#409,#410,#412));
#414=FACE_BOUND('LOOP1',#413,.T.);
#415=ADVANCED_FACE('FACE16',(#414),#406,.T.);
#416=CARTESIAN_POINT('POINT29',(-3.7550439737026E-016,0.0E+000,
   2.04421824312874E+000));
#417=VERTEX_POINT('VERTEX29',#416);
#418=CARTESIAN_POINT('POS44',(-1.143E+000,3.67787143276043E-016,
   3.00330912156437E+000));
#419=DIRECTION('DIR57',(7.66044443118978E-001,-7.87161790980434E-017,
   -6.42787609686539E-001));
#420=VECTOR('VEC31',#419,1.0E+000);
#421=LINE('STRAIGHT31',#418,#420);
#422=EDGE_CURVE('EDGE43',#377,#417,#421,.T.);
#423=ORIENTED_EDGE('COEDGE83',*,*,#422,.T.);
#424=CARTESIAN_POINT('POINT30',(-9.68764724682778E-017,
   -2.50336264913507E-016,-2.04421824312874E+000));
#425=VERTEX_POINT('VERTEX30',#424);
#426=CARTESIAN_POINT('POS45',(-2.22044604925031E-016,0.0E+000,
   -2.46519032881566E-032));
#427=DIRECTION('DIR58',(1.0E+000,0.0E+000,1.83690953073357E-016));
#428=DIRECTION('DIR59',(-1.83690953073357E-016,0.0E+000,1.0E+000));
#429=AXIS2_PLACEMENT_3D('AXIS14',#426,#427,#428);
#430=CIRCLE('ELLIPSE3',#429,2.04421824312874E+000);
#431=EDGE_CURVE('EDGE44',#425,#417,#430,.T.);
#432=ORIENTED_EDGE('COEDGE84',*,*,#431,.F.);
#433=CARTESIAN_POINT('POS46',(-1.143E+000,-3.67787143276043E-016,
   -3.00330912156437E+000));
#434=DIRECTION('DIR60',(-7.66044443118978E-001,-7.87161790980434E-017,
   -6.42787609686539E-001));
#435=VECTOR('VEC32',#434,1.0E+000);
#436=LINE('STRAIGHT32',#433,#435);
#437=EDGE_CURVE('EDGE45',#425,#385,#436,.T.);
#438=ORIENTED_EDGE('COEDGE85',*,*,#437,.T.);
#439=ORIENTED_EDGE('COEDGE86',*,*,#391,.T.);
#440=EDGE_LOOP('NONE',(#423,#432,#438,#439));
#441=FACE_BOUND('LOOP1',#440,.T.);
#442=CARTESIAN_POINT('POS47',(-1.143E+000,0.0E+000,
   -2.09958759362847E-016));
#443=DIRECTION('DIR61',(-1.0E+000,0.0E+000,-1.83690953073357E-016));
#444=DIRECTION('DIR62',(-1.83690953073357E-016,0.0E+000,1.0E+000));
#445=AXIS2_PLACEMENT_3D('AXIS15',#442,#443,#444);
#446=CONICAL_SURFACE('CONE_SURF2',#445,3.00330912156437E+000,
   6.98131700797732E-001);
#447=ADVANCED_FACE('FACE17',(#441),#446,.T.);
#448=ORIENTED_EDGE('COEDGE87',*,*,#422,.F.);
#449=ORIENTED_EDGE('COEDGE88',*,*,#411,.T.);
#450=ORIENTED_EDGE('COEDGE89',*,*,#437,.F.);
#451=EDGE_CURVE('EDGE46',#417,#425,#430,.T.);
#452=ORIENTED_EDGE('COEDGE90',*,*,#451,.F.);
#453=EDGE_LOOP('NONE',(#448,#449,#450,#452));
#454=FACE_BOUND('LOOP1',#453,.T.);
#455=ADVANCED_FACE('FACE18',(#454),#446,.T.);
#456=CARTESIAN_POINT('POINT31',(5.3975E+000,3.30490639737814E-016,
   1.61036E+000));
#457=VERTEX_POINT('VERTEX31',#456);
#458=CARTESIAN_POINT('POINT32',(5.3975E+000,-5.27577133430175E-016,
   -1.61036E+000));
#459=VERTEX_POINT('VERTEX32',#458);
#460=CARTESIAN_POINT('POS48',(5.3975E+000,0.0E+000,3.30490639737814E-016
   ));
#461=DIRECTION('DIR63',(1.0E+000,0.0E+000,6.12303176911189E-017));
#462=DIRECTION('DIR64',(-6.12303176911189E-017,2.05153769738465E-016,
   1.0E+000));
#463=AXIS2_PLACEMENT_3D('AXIS16',#460,#461,#462);
#464=CIRCLE('ELLIPSE4',#463,1.61036E+000);
#465=EDGE_CURVE('EDGE47',#457,#459,#464,.T.);
#466=ORIENTED_EDGE('COEDGE91',*,*,#465,.T.);
#467=EDGE_CURVE('EDGE48',#459,#457,#464,.T.);
#468=ORIENTED_EDGE('COEDGE92',*,*,#467,.T.);
#469=EDGE_LOOP('NONE',(#466,#468));
#470=FACE_BOUND('LOOP1',#469,.T.);
#471=CARTESIAN_POINT('POS49',(5.3975E+000,3.30490639737814E-016,
   -1.0414E+000));
#472=DIRECTION('DIR65',(1.0E+000,0.0E+000,6.12303176911189E-017));
#473=DIRECTION('DIR66',(0.0E+000,1.0E+000,0.0E+000));
#474=AXIS2_PLACEMENT_3D('AXIS17',#471,#472,#473);
#475=PLANE('PLANE11',#474);
#476=ADVANCED_FACE('FACE19',(#470),#475,.T.);
#477=CARTESIAN_POINT('POINT33',(4.92506E+000,3.01562988447822E-016,
   2.0828E+000));
#478=VERTEX_POINT('VERTEX33',#477);
#479=CARTESIAN_POINT('POS50',(5.16128E+000,6.04966208207787E-016,
   1.84658E+000));
#480=DIRECTION('DIR67',(-7.07106781186548E-001,2.31658367475246E-016,
   7.07106781186548E-001));
#481=VECTOR('VEC33',#480,1.0E+000);
#482=LINE('STRAIGHT33',#479,#481);
#483=EDGE_CURVE('EDGE49',#457,#478,#482,.T.);
#484=ORIENTED_EDGE('COEDGE93',*,*,#483,.F.);
#485=ORIENTED_EDGE('COEDGE94',*,*,#467,.F.);
#486=CARTESIAN_POINT('POINT34',(4.92506E+000,-6.823552829854E-016,
   -2.0828E+000));
#487=VERTEX_POINT('VERTEX34',#486);
#488=CARTESIAN_POINT('POS51',(5.16128E+000,-6.04966208207787E-016,
   -1.84658E+000));
#489=DIRECTION('DIR68',(7.07106781186548E-001,2.31658367475246E-016,
   7.07106781186548E-001));
#490=VECTOR('VEC34',#489,1.0E+000);
#491=LINE('STRAIGHT34',#488,#490);
#492=EDGE_CURVE('EDGE50',#487,#459,#491,.T.);
#493=ORIENTED_EDGE('COEDGE95',*,*,#492,.F.);
#494=CARTESIAN_POINT('POS52',(4.92506E+000,0.0E+000,
   3.01562988447822E-016));
#495=DIRECTION('DIR69',(-1.0E+000,0.0E+000,-6.12303176911189E-017));
#496=DIRECTION('DIR70',(6.12303176911189E-017,0.0E+000,-1.0E+000));
#497=AXIS2_PLACEMENT_3D('AXIS18',#494,#495,#496);
#498=CIRCLE('ELLIPSE5',#497,2.0828E+000);
#499=EDGE_CURVE('EDGE51',#478,#487,#498,.T.);
#500=ORIENTED_EDGE('COEDGE96',*,*,#499,.F.);
#501=EDGE_LOOP('NONE',(#484,#485,#493,#500));
#502=FACE_BOUND('LOOP1',#501,.T.);
#503=CARTESIAN_POINT('POS53',(5.16128E+000,0.0E+000,
   3.16026814092818E-016));
#504=DIRECTION('DIR71',(-1.0E+000,0.0E+000,-6.12303176911189E-017));
#505=DIRECTION('DIR72',(-6.12303176911189E-017,2.05153769738465E-016,
   1.0E+000));
#506=AXIS2_PLACEMENT_3D('AXIS19',#503,#504,#505);
#507=CONICAL_SURFACE('CONE_SURF3',#506,1.84658E+000,
   7.85398163397448E-001);
#508=ADVANCED_FACE('FACE20',(#502),#507,.T.);
#509=ORIENTED_EDGE('COEDGE97',*,*,#451,.T.);
#510=ORIENTED_EDGE('COEDGE98',*,*,#431,.T.);
#511=EDGE_LOOP('NONE',(#509,#510));
#512=FACE_BOUND('LOOP1',#511,.T.);
#513=CARTESIAN_POINT('POINT35',(1.27530505687062E-016,0.0E+000,
   -2.0828E+000));
#514=VERTEX_POINT('VERTEX35',#513);
#515=CARTESIAN_POINT('POINT36',(-1.27530505687062E-016,
   -2.55061011374125E-016,2.0828E+000));
#516=VERTEX_POINT('VERTEX36',#515);
#517=CARTESIAN_POINT('POS54',(0.0E+000,0.0E+000,0.0E+000));
#518=DIRECTION('DIR73',(-1.0E+000,0.0E+000,-6.12303176911189E-017));
#519=DIRECTION('DIR74',(6.12303176911189E-017,0.0E+000,-1.0E+000));
#520=AXIS2_PLACEMENT_3D('AXIS20',#517,#518,#519);
#521=CIRCLE('ELLIPSE6',#520,2.0828E+000);
#522=EDGE_CURVE('EDGE52',#514,#516,#521,.T.);
#523=ORIENTED_EDGE('COEDGE99',*,*,#522,.T.);
#524=EDGE_CURVE('EDGE53',#516,#514,#521,.T.);
#525=ORIENTED_EDGE('COEDGE100',*,*,#524,.T.);
#526=EDGE_LOOP('NONE',(#523,#525));
#527=FACE_BOUND('LOOP1',#526,.T.);
#528=CARTESIAN_POINT('POS55',(6.37652528435312E-017,0.0E+000,
   -1.0414E+000));
#529=DIRECTION('DIR75',(-1.0E+000,0.0E+000,-6.12303176911189E-017));
#530=DIRECTION('DIR76',(0.0E+000,1.0E+000,0.0E+000));
#531=AXIS2_PLACEMENT_3D('AXIS21',#528,#529,#530);
#532=PLANE('PLANE12',#531);
#533=ADVANCED_FACE('FACE21',(#512,#527),#532,.T.);
#534=ORIENTED_EDGE('COEDGE101',*,*,#483,.T.);
#535=EDGE_CURVE('EDGE54',#487,#478,#498,.T.);
#536=ORIENTED_EDGE('COEDGE102',*,*,#535,.F.);
#537=ORIENTED_EDGE('COEDGE103',*,*,#492,.T.);
#538=ORIENTED_EDGE('COEDGE104',*,*,#465,.F.);
#539=EDGE_LOOP('NONE',(#534,#536,#537,#538));
#540=FACE_BOUND('LOOP1',#539,.T.);
#541=ADVANCED_FACE('FACE22',(#540),#507,.T.);
#542=CARTESIAN_POINT('POS56',(2.69875E+000,2.55061011374125E-016,
   -2.0828E+000));
#543=DIRECTION('DIR77',(-1.0E+000,0.0E+000,-6.12303176911189E-017));
#544=VECTOR('VEC35',#543,1.0E+000);
#545=LINE('STRAIGHT35',#542,#544);
#546=EDGE_CURVE('EDGE55',#487,#514,#545,.T.);
#547=ORIENTED_EDGE('COEDGE105',*,*,#546,.T.);
#548=ORIENTED_EDGE('COEDGE106',*,*,#524,.F.);
#549=CARTESIAN_POINT('POS57',(2.69875E+000,-2.55061011374125E-016,
   2.0828E+000));
#550=DIRECTION('DIR78',(1.0E+000,-0.0E+000,6.12303176911189E-017));
#551=VECTOR('VEC36',#550,1.0E+000);
#552=LINE('STRAIGHT36',#549,#551);
#553=EDGE_CURVE('EDGE56',#516,#478,#552,.T.);
#554=ORIENTED_EDGE('COEDGE107',*,*,#553,.T.);
#555=ORIENTED_EDGE('COEDGE108',*,*,#499,.T.);
#556=EDGE_LOOP('NONE',(#547,#548,#554,#555));
#557=FACE_BOUND('LOOP1',#556,.T.);
#558=CARTESIAN_POINT('POS58',(2.69875E+000,0.0E+000,
   1.65245319868907E-016));
#559=DIRECTION('DIR79',(-1.0E+000,0.0E+000,-6.12303176911189E-017));
#560=DIRECTION('DIR80',(6.12303176911189E-017,0.0E+000,-1.0E+000));
#561=AXIS2_PLACEMENT_3D('AXIS22',#558,#559,#560);
#562=CYLINDRICAL_SURFACE('CONE_SURF4',#561,2.0828E+000);
#563=ADVANCED_FACE('FACE23',(#557),#562,.T.);
#564=ORIENTED_EDGE('COEDGE109',*,*,#546,.F.);
#565=ORIENTED_EDGE('COEDGE110',*,*,#535,.T.);
#566=ORIENTED_EDGE('COEDGE111',*,*,#553,.F.);
#567=ORIENTED_EDGE('COEDGE112',*,*,#522,.F.);
#568=EDGE_LOOP('NONE',(#564,#565,#566,#567));
#569=FACE_BOUND('LOOP1',#568,.T.);
#570=ADVANCED_FACE('FACE24',(#569),#562,.T.);
#571=CLOSED_SHELL('SHELL1',(#88,#119,#143,#167,#191,#215,#239,#254,#278,
   #293,#308,#332,#340,#375,#407,#415,#447,#455,#476,#508,#533,#541,#563
   ,#570));
#572=MANIFOLD_SOLID_BREP('LUMP1',#571);
#573=ADVANCED_BREP_SHAPE_REPRESENTATION('BODY0',(#572),#574);
#574=(GEOMETRIC_REPRESENTATION_CONTEXT(3) 
   GLOBAL_UNCERTAINTY_ASSIGNED_CONTEXT((#575)) 
   GLOBAL_UNIT_ASSIGNED_CONTEXT((#576,#577,#578)) REPRESENTATION_CONTEXT
   ('',''));
#575=UNCERTAINTY_MEASURE_WITH_UNIT(LENGTH_MEASURE(1.0E-006),#576,'','');
#576=(LENGTH_UNIT() NAMED_UNIT(*) SI_UNIT(.MILLI.,.METRE.));
#577=(NAMED_UNIT(*) PLANE_ANGLE_UNIT() SI_UNIT($,.RADIAN.));
#578=(NAMED_UNIT(*) SI_UNIT($,.STERADIAN.) SOLID_ANGLE_UNIT());
#579=APPLICATION_CONTEXT(
   'CONFIGURATION CONTROLLED 3D DESIGNS OF MECHANICAL PARTS AND 
ASSEMBLIES');
#580=APPLICATION_PROTOCOL_DEFINITION('INTERNATIONAL STANDARD',
   'config_control_design',1994,#579);
#581=MECHANICAL_CONTEXT('MECHANICAL_CONTEXT_NAME',#579,'mechanical');
#582=PRODUCT('PRODUCT_ID_1','PRODUCT_NAME_1','PRODUCT_DESCRIPTION',(#581
   ));
#583=PRODUCT_RELATED_PRODUCT_CATEGORY('detail',
   'PRODUCT_RELATED_PRODUCT_CATEGORY_DESCRIPTION',(#582));
#584=PERSON_AND_ORGANIZATION_ROLE('design_owner');
#585=PERSON('ID_1','PERSON_LAST_NAME','PERSON_FIRST_NAME',$,$,$);
#586=ORGANIZATION('ORGANIZATION_ID','ORGANIZATION_NAME',
   'ORGANIZATION_DESCRIPTION');
#587=PERSON_AND_ORGANIZATION(#585,#586);
#588=PRODUCT_DEFINITION_FORMATION_WITH_SPECIFIED_SOURCE(
   'PRODUCT_DEFINITION_FORMATION_ID',
   'PRODUCT_DEFINITION_FORMATION_DESCRIPTION',#582,.NOT_KNOWN.);
#589=PERSON_AND_ORGANIZATION_ROLE('creator');
#590=PERSON('ID_2','PERSON_LAST_NAME','PERSON_FIRST_NAME',$,$,$);
#591=ORGANIZATION('ORGANIZATION_ID','ORGANIZATION_NAME',
   'ORGANIZATION_DESCRIPTION');
#592=PERSON_AND_ORGANIZATION(#590,#591);
#593=PERSON_AND_ORGANIZATION_ROLE('part_supplier');
#594=PERSON('ID_3','PERSON_LAST_NAME','PERSON_FIRST_NAME',$,$,$);
#595=ORGANIZATION('ORGANIZATION_ID','ORGANIZATION_NAME',
   'ORGANIZATION_DESCRIPTION');
#596=PERSON_AND_ORGANIZATION(#594,#595);
#597=APPROVAL_STATUS('approved');
#598=APPROVAL(#597,'APPROVAL_LEVEL');
#599=APPROVAL_ROLE('APPROVAL_ROLE');
#600=APPROVAL_PERSON_ORGANIZATION(#603,#598,#599);
#601=PERSON('ID_4','PERSON_LAST_NAME','PERSON_FIRST_NAME',$,$,$);
#602=ORGANIZATION('ORGANIZATION_ID','ORGANIZATION_NAME',
   'ORGANIZATION_DESCRIPTION');
#603=PERSON_AND_ORGANIZATION(#601,#602);
#604=APPROVAL_DATE_TIME(#608,#598);
#605=CALENDAR_DATE(1997,1,1);
#606=COORDINATED_UNIVERSAL_TIME_OFFSET(0,0,.AHEAD.);
#607=LOCAL_TIME(0,0,0.0E+000,#606);
#608=DATE_AND_TIME(#605,#607);
#609=SECURITY_CLASSIFICATION_LEVEL('classified');
#610=SECURITY_CLASSIFICATION('SECURITY_CLASSIFICATION_NAME',
   'SECURITY_CLASSIFICATION_PURPOSE',#609);
#611=APPROVAL_STATUS('approved');
#612=APPROVAL(#611,'APPROVAL_LEVEL');
#613=APPROVAL_ROLE('APPROVAL_ROLE');
#614=APPROVAL_PERSON_ORGANIZATION(#617,#612,#613);
#615=PERSON('ID_5','PERSON_LAST_NAME','PERSON_FIRST_NAME',$,$,$);
#616=ORGANIZATION('ORGANIZATION_ID','ORGANIZATION_NAME',
   'ORGANIZATION_DESCRIPTION');
#617=PERSON_AND_ORGANIZATION(#615,#616);
#618=APPROVAL_DATE_TIME(#622,#612);
#619=CALENDAR_DATE(1997,1,1);
#620=COORDINATED_UNIVERSAL_TIME_OFFSET(0,0,.AHEAD.);
#621=LOCAL_TIME(0,0,0.0E+000,#620);
#622=DATE_AND_TIME(#619,#621);
#623=PERSON_AND_ORGANIZATION_ROLE('classification_officer');
#624=PERSON('ID_6','PERSON_LAST_NAME','PERSON_FIRST_NAME',$,$,$);
#625=ORGANIZATION('ORGANIZATION_ID','ORGANIZATION_NAME',
   'ORGANIZATION_DESCRIPTION');
#626=PERSON_AND_ORGANIZATION(#624,#625);
#627=DATE_TIME_ROLE('classification_date');
#628=CALENDAR_DATE(1997,1,1);
#629=COORDINATED_UNIVERSAL_TIME_OFFSET(0,0,.AHEAD.);
#630=LOCAL_TIME(0,0,0.0E+000,#629);
#631=DATE_AND_TIME(#628,#630);
#632=DESIGN_CONTEXT('DESIGN_CONTEXT_NAME',#579,'design');
#633=PRODUCT_DEFINITION('PRODUCT_DEFINITION_ID',
   'PRODUCT_DEFINITION_DESCRIPTION',#588,#632);
#634=PERSON_AND_ORGANIZATION_ROLE('creator');
#635=PERSON('ID_7','PERSON_LAST_NAME','PERSON_FIRST_NAME',$,$,$);
#636=ORGANIZATION('ORGANIZATION_ID','ORGANIZATION_NAME',
   'ORGANIZATION_DESCRIPTION');
#637=PERSON_AND_ORGANIZATION(#635,#636);
#638=DATE_TIME_ROLE('creation_date');
#639=CALENDAR_DATE(1997,1,1);
#640=COORDINATED_UNIVERSAL_TIME_OFFSET(0,0,.AHEAD.);
#641=LOCAL_TIME(0,0,0.0E+000,#640);
#642=DATE_AND_TIME(#639,#641);
#643=APPROVAL_STATUS('approved');
#644=APPROVAL(#643,'APPROVAL_LEVEL');
#645=APPROVAL_ROLE('APPROVAL_ROLE');
#646=APPROVAL_PERSON_ORGANIZATION(#649,#644,#645);
#647=PERSON('ID_8','PERSON_LAST_NAME','PERSON_FIRST_NAME',$,$,$);
#648=ORGANIZATION('ORGANIZATION_ID','ORGANIZATION_NAME',
   'ORGANIZATION_DESCRIPTION');
#649=PERSON_AND_ORGANIZATION(#647,#648);
#650=APPROVAL_DATE_TIME(#654,#644);
#651=CALENDAR_DATE(1997,1,1);
#652=COORDINATED_UNIVERSAL_TIME_OFFSET(0,0,.AHEAD.);
#653=LOCAL_TIME(0,0,0.0E+000,#652);
#654=DATE_AND_TIME(#651,#653);
#655=PRODUCT_DEFINITION_SHAPE('PRODUCT_DEFINITION_SHAPE_NAME',
   'PRODUCT_DEFINITION_SHAPE_DESCRIPTION',#633);
#656=SHAPE_DEFINITION_REPRESENTATION(#655,#573);
#657=STYLED_ITEM('',(#658),#572);
#658=PRESENTATION_STYLE_ASSIGNMENT((#660));
#659=COLOUR_RGB('',5.09803921568627E-001,5.09803921568627E-001,
   5.88235294117647E-001);
#660=SURFACE_STYLE_USAGE(.BOTH.,#661);
#661=SURFACE_SIDE_STYLE('',(#662));
#662=SURFACE_STYLE_FILL_AREA(#663);
#663=FILL_AREA_STYLE('',(#664));
#664=FILL_AREA_STYLE_COLOUR('',#659);
#665=STYLED_ITEM('',(#666),#88);
#666=PRESENTATION_STYLE_ASSIGNMENT((#668));
#667=COLOUR_RGB('',5.09803921568627E-001,5.09803921568627E-001,
   5.88235294117647E-001);
#668=SURFACE_STYLE_USAGE(.BOTH.,#669);
#669=SURFACE_SIDE_STYLE('',(#670));
#670=SURFACE_STYLE_FILL_AREA(#671);
#671=FILL_AREA_STYLE('',(#672));
#672=FILL_AREA_STYLE_COLOUR('',#667);
#673=STYLED_ITEM('',(#674),#119);
#674=PRESENTATION_STYLE_ASSIGNMENT((#676));
#675=COLOUR_RGB('',5.09803921568627E-001,5.09803921568627E-001,
   5.88235294117647E-001);
#676=SURFACE_STYLE_USAGE(.BOTH.,#677);
#677=SURFACE_SIDE_STYLE('',(#678));
#678=SURFACE_STYLE_FILL_AREA(#679);
#679=FILL_AREA_STYLE('',(#680));
#680=FILL_AREA_STYLE_COLOUR('',#675);
#681=STYLED_ITEM('',(#682),#143);
#682=PRESENTATION_STYLE_ASSIGNMENT((#684));
#683=COLOUR_RGB('',5.09803921568627E-001,5.09803921568627E-001,
   5.88235294117647E-001);
#684=SURFACE_STYLE_USAGE(.BOTH.,#685);
#685=SURFACE_SIDE_STYLE('',(#686));
#686=SURFACE_STYLE_FILL_AREA(#687);
#687=FILL_AREA_STYLE('',(#688));
#688=FILL_AREA_STYLE_COLOUR('',#683);
#689=STYLED_ITEM('',(#690),#167);
#690=PRESENTATION_STYLE_ASSIGNMENT((#692));
#691=COLOUR_RGB('',5.09803921568627E-001,5.09803921568627E-001,
   5.88235294117647E-001);
#692=SURFACE_STYLE_USAGE(.BOTH.,#693);
#693=SURFACE_SIDE_STYLE('',(#694));
#694=SURFACE_STYLE_FILL_AREA(#695);
#695=FILL_AREA_STYLE('',(#696));
#696=FILL_AREA_STYLE_COLOUR('',#691);
#697=STYLED_ITEM('',(#698),#191);
#698=PRESENTATION_STYLE_ASSIGNMENT((#700));
#699=COLOUR_RGB('',5.09803921568627E-001,5.09803921568627E-001,
   5.88235294117647E-001);
#700=SURFACE_STYLE_USAGE(.BOTH.,#701);
#701=SURFACE_SIDE_STYLE('',(#702));
#702=SURFACE_STYLE_FILL_AREA(#703);
#703=FILL_AREA_STYLE('',(#704));
#704=FILL_AREA_STYLE_COLOUR('',#699);
#705=STYLED_ITEM('',(#706),#215);
#706=PRESENTATION_STYLE_ASSIGNMENT((#708));
#707=COLOUR_RGB('',5.09803921568627E-001,5.09803921568627E-001,
   5.88235294117647E-001);
#708=SURFACE_STYLE_USAGE(.BOTH.,#709);
#709=SURFACE_SIDE_STYLE('',(#710));
#710=SURFACE_STYLE_FILL_AREA(#711);
#711=FILL_AREA_STYLE('',(#712));
#712=FILL_AREA_STYLE_COLOUR('',#707);
#713=STYLED_ITEM('',(#714),#239);
#714=PRESENTATION_STYLE_ASSIGNMENT((#716));
#715=COLOUR_RGB('',5.09803921568627E-001,5.09803921568627E-001,
   5.88235294117647E-001);
#716=SURFACE_STYLE_USAGE(.BOTH.,#717);
#717=SURFACE_SIDE_STYLE('',(#718));
#718=SURFACE_STYLE_FILL_AREA(#719);
#719=FILL_AREA_STYLE('',(#720));
#720=FILL_AREA_STYLE_COLOUR('',#715);
#721=STYLED_ITEM('',(#722),#254);
#722=PRESENTATION_STYLE_ASSIGNMENT((#724));
#723=COLOUR_RGB('',5.09803921568627E-001,5.09803921568627E-001,
   5.88235294117647E-001);
#724=SURFACE_STYLE_USAGE(.BOTH.,#725);
#725=SURFACE_SIDE_STYLE('',(#726));
#726=SURFACE_STYLE_FILL_AREA(#727);
#727=FILL_AREA_STYLE('',(#728));
#728=FILL_AREA_STYLE_COLOUR('',#723);
#729=STYLED_ITEM('',(#730),#278);
#730=PRESENTATION_STYLE_ASSIGNMENT((#732));
#731=COLOUR_RGB('',5.09803921568627E-001,5.09803921568627E-001,
   5.88235294117647E-001);
#732=SURFACE_STYLE_USAGE(.BOTH.,#733);
#733=SURFACE_SIDE_STYLE('',(#734));
#734=SURFACE_STYLE_FILL_AREA(#735);
#735=FILL_AREA_STYLE('',(#736));
#736=FILL_AREA_STYLE_COLOUR('',#731);
#737=STYLED_ITEM('',(#738),#293);
#738=PRESENTATION_STYLE_ASSIGNMENT((#740));
#739=COLOUR_RGB('',5.09803921568627E-001,5.09803921568627E-001,
   5.88235294117647E-001);
#740=SURFACE_STYLE_USAGE(.BOTH.,#741);
#741=SURFACE_SIDE_STYLE('',(#742));
#742=SURFACE_STYLE_FILL_AREA(#743);
#743=FILL_AREA_STYLE('',(#744));
#744=FILL_AREA_STYLE_COLOUR('',#739);
#745=STYLED_ITEM('',(#746),#308);
#746=PRESENTATION_STYLE_ASSIGNMENT((#748));
#747=COLOUR_RGB('',5.09803921568627E-001,5.09803921568627E-001,
   5.88235294117647E-001);
#748=SURFACE_STYLE_USAGE(.BOTH.,#749);
#749=SURFACE_SIDE_STYLE('',(#750));
#750=SURFACE_STYLE_FILL_AREA(#751);
#751=FILL_AREA_STYLE('',(#752));
#752=FILL_AREA_STYLE_COLOUR('',#747);
#753=STYLED_ITEM('',(#754),#332);
#754=PRESENTATION_STYLE_ASSIGNMENT((#756));
#755=COLOUR_RGB('',5.09803921568627E-001,5.09803921568627E-001,
   5.88235294117647E-001);
#756=SURFACE_STYLE_USAGE(.BOTH.,#757);
#757=SURFACE_SIDE_STYLE('',(#758));
#758=SURFACE_STYLE_FILL_AREA(#759);
#759=FILL_AREA_STYLE('',(#760));
#760=FILL_AREA_STYLE_COLOUR('',#755);
#761=STYLED_ITEM('',(#762),#340);
#762=PRESENTATION_STYLE_ASSIGNMENT((#764));
#763=COLOUR_RGB('',5.09803921568627E-001,5.09803921568627E-001,
   5.88235294117647E-001);
#764=SURFACE_STYLE_USAGE(.BOTH.,#765);
#765=SURFACE_SIDE_STYLE('',(#766));
#766=SURFACE_STYLE_FILL_AREA(#767);
#767=FILL_AREA_STYLE('',(#768));
#768=FILL_AREA_STYLE_COLOUR('',#763);
#769=STYLED_ITEM('',(#770),#375);
#770=PRESENTATION_STYLE_ASSIGNMENT((#772));
#771=COLOUR_RGB('',5.09803921568627E-001,5.09803921568627E-001,
   5.88235294117647E-001);
#772=SURFACE_STYLE_USAGE(.BOTH.,#773);
#773=SURFACE_SIDE_STYLE('',(#774));
#774=SURFACE_STYLE_FILL_AREA(#775);
#775=FILL_AREA_STYLE('',(#776));
#776=FILL_AREA_STYLE_COLOUR('',#771);
#777=STYLED_ITEM('',(#778),#407);
#778=PRESENTATION_STYLE_ASSIGNMENT((#780));
#779=COLOUR_RGB('',5.09803921568627E-001,5.09803921568627E-001,
   5.88235294117647E-001);
#780=SURFACE_STYLE_USAGE(.BOTH.,#781);
#781=SURFACE_SIDE_STYLE('',(#782));
#782=SURFACE_STYLE_FILL_AREA(#783);
#783=FILL_AREA_STYLE('',(#784));
#784=FILL_AREA_STYLE_COLOUR('',#779);
#785=STYLED_ITEM('',(#786),#415);
#786=PRESENTATION_STYLE_ASSIGNMENT((#788));
#787=COLOUR_RGB('',5.09803921568627E-001,5.09803921568627E-001,
   5.88235294117647E-001);
#788=SURFACE_STYLE_USAGE(.BOTH.,#789);
#789=SURFACE_SIDE_STYLE('',(#790));
#790=SURFACE_STYLE_FILL_AREA(#791);
#791=FILL_AREA_STYLE('',(#792));
#792=FILL_AREA_STYLE_COLOUR('',#787);
#793=STYLED_ITEM('',(#794),#447);
#794=PRESENTATION_STYLE_ASSIGNMENT((#796));
#795=COLOUR_RGB('',5.09803921568627E-001,5.09803921568627E-001,
   5.88235294117647E-001);
#796=SURFACE_STYLE_USAGE(.BOTH.,#797);
#797=SURFACE_SIDE_STYLE('',(#798));
#798=SURFACE_STYLE_FILL_AREA(#799);
#799=FILL_AREA_STYLE('',(#800));
#800=FILL_AREA_STYLE_COLOUR('',#795);
#801=STYLED_ITEM('',(#802),#455);
#802=PRESENTATION_STYLE_ASSIGNMENT((#804));
#803=COLOUR_RGB('',5.09803921568627E-001,5.09803921568627E-001,
   5.88235294117647E-001);
#804=SURFACE_STYLE_USAGE(.BOTH.,#805);
#805=SURFACE_SIDE_STYLE('',(#806));
#806=SURFACE_STYLE_FILL_AREA(#807);
#807=FILL_AREA_STYLE('',(#808));
#808=FILL_AREA_STYLE_COLOUR('',#803);
#809=STYLED_ITEM('',(#810),#476);
#810=PRESENTATION_STYLE_ASSIGNMENT((#812));
#811=COLOUR_RGB('',5.09803921568627E-001,5.09803921568627E-001,
   5.88235294117647E-001);
#812=SURFACE_STYLE_USAGE(.BOTH.,#813);
#813=SURFACE_SIDE_STYLE('',(#814));
#814=SURFACE_STYLE_FILL_AREA(#815);
#815=FILL_AREA_STYLE('',(#816));
#816=FILL_AREA_STYLE_COLOUR('',#811);
#817=STYLED_ITEM('',(#818),#508);
#818=PRESENTATION_STYLE_ASSIGNMENT((#820));
#819=COLOUR_RGB('',5.09803921568627E-001,5.09803921568627E-001,
   5.88235294117647E-001);
#820=SURFACE_STYLE_USAGE(.BOTH.,#821);
#821=SURFACE_SIDE_STYLE('',(#822));
#822=SURFACE_STYLE_FILL_AREA(#823);
#823=FILL_AREA_STYLE('',(#824));
#824=FILL_AREA_STYLE_COLOUR('',#819);
#825=STYLED_ITEM('',(#826),#533);
#826=PRESENTATION_STYLE_ASSIGNMENT((#828));
#827=COLOUR_RGB('',5.09803921568627E-001,5.09803921568627E-001,
   5.88235294117647E-001);
#828=SURFACE_STYLE_USAGE(.BOTH.,#829);
#829=SURFACE_SIDE_STYLE('',(#830));
#830=SURFACE_STYLE_FILL_AREA(#831);
#831=FILL_AREA_STYLE('',(#832));
#832=FILL_AREA_STYLE_COLOUR('',#827);
#833=STYLED_ITEM('',(#834),#541);
#834=PRESENTATION_STYLE_ASSIGNMENT((#836));
#835=COLOUR_RGB('',5.09803921568627E-001,5.09803921568627E-001,
   5.88235294117647E-001);
#836=SURFACE_STYLE_USAGE(.BOTH.,#837);
#837=SURFACE_SIDE_STYLE('',(#838));
#838=SURFACE_STYLE_FILL_AREA(#839);
#839=FILL_AREA_STYLE('',(#840));
#840=FILL_AREA_STYLE_COLOUR('',#835);
#841=STYLED_ITEM('',(#842),#563);
#842=PRESENTATION_STYLE_ASSIGNMENT((#844));
#843=COLOUR_RGB('',5.09803921568627E-001,5.09803921568627E-001,
   5.88235294117647E-001);
#844=SURFACE_STYLE_USAGE(.BOTH.,#845);
#845=SURFACE_SIDE_STYLE('',(#846));
#846=SURFACE_STYLE_FILL_AREA(#847);
#847=FILL_AREA_STYLE('',(#848));
#848=FILL_AREA_STYLE_COLOUR('',#843);
#849=STYLED_ITEM('',(#850),#570);
#850=PRESENTATION_STYLE_ASSIGNMENT((#852));
#851=COLOUR_RGB('',5.09803921568627E-001,5.09803921568627E-001,
   5.88235294117647E-001);
#852=SURFACE_STYLE_USAGE(.BOTH.,#853);
#853=SURFACE_SIDE_STYLE('',(#854));
#854=SURFACE_STYLE_FILL_AREA(#855);
#855=FILL_AREA_STYLE('',(#856));
#856=FILL_AREA_STYLE_COLOUR('',#851);
#857=MECHANICAL_DESIGN_GEOMETRIC_PRESENTATION_REPRESENTATION($,(#657,
   #665,#673,#681,#689,#697,#705,#713,#721,#729,#737,#745,#753,#761,#769
   ,#777,#785,#793,#801,#809,#817,#825,#833,#841,#849),#574);
ENDSEC;
END-ISO-10303-21;
                
                  
               
                   
                    
     
                
