ISO-10303-21;
HEADER;
FILE_DESCRIPTION(('starvars output'),'2;1');
FILE_NAME('cv20200804134318000032970.stp','13:43:18   2020/08/04',(
   'Thomas Industrial Network Germany GmbH'),(
   'Thomas Industrial Network Germany GmbH'),'unknown preprocess','ACIS'
   ,'unknown authorization');
FILE_SCHEMA(('AUTOMOTIVE_DESIGN_CC2 {UNKNOWN IMPLEMENTATION LEVEL}'));
ENDSEC;
/* ISO 10303-21 file written by STEP Caselib, ProSTEP GmbH, Germany */
DATA;
#1=CARTESIAN_POINT('POINT1',(2.18512634744296E-016,0.0E+000,-3.5687E+000
   ));
#2=VERTEX_POINT('VERTEX1',#1);
#3=CARTESIAN_POINT('POINT2',(1.651E+000,1.01091254508037E-016,
   -3.5687E+000));
#4=VERTEX_POINT('VERTEX2',#3);
#5=CARTESIAN_POINT('POS1',(8.255E-001,4.37025269488592E-016,-3.5687E+000
   ));
#6=DIRECTION('DIR1',(1.0E+000,-0.0E+000,6.12303176911189E-017));
#7=VECTOR('VEC1',#6,1.0E+000);
#8=LINE('STRAIGHT1',#5,#7);
#9=EDGE_CURVE('EDGE1',#2,#4,#8,.T.);
#10=ORIENTED_EDGE('COEDGE1',*,*,#9,.T.);
#11=CARTESIAN_POINT('POINT3',(1.651E+000,-4.37025269488592E-016,
   3.5687E+000));
#12=VERTEX_POINT('VERTEX3',#11);
#13=CARTESIAN_POINT('POS2',(1.651E+000,0.0E+000,1.01091254508037E-016));
#14=DIRECTION('DIR2',(-1.0E+000,0.0E+000,-6.12303176911189E-017));
#15=DIRECTION('DIR3',(6.12303176911189E-017,0.0E+000,-1.0E+000));
#16=AXIS2_PLACEMENT_3D('AXIS1',#13,#14,#15);
#17=CIRCLE('ELLIPSE1',#16,3.5687E+000);
#18=EDGE_CURVE('EDGE2',#12,#4,#17,.T.);
#19=ORIENTED_EDGE('COEDGE2',*,*,#18,.F.);
#20=CARTESIAN_POINT('POINT4',(-2.18512634744296E-016,
   -4.37025269488592E-016,3.5687E+000));
#21=VERTEX_POINT('VERTEX4',#20);
#22=CARTESIAN_POINT('POS3',(8.255E-001,-4.37025269488592E-016,
   3.5687E+000));
#23=DIRECTION('DIR4',(-1.0E+000,-0.0E+000,-6.12303176911189E-017));
#24=VECTOR('VEC2',#23,1.0E+000);
#25=LINE('STRAIGHT2',#22,#24);
#26=EDGE_CURVE('EDGE3',#12,#21,#25,.T.);
#27=ORIENTED_EDGE('COEDGE3',*,*,#26,.T.);
#28=CARTESIAN_POINT('POS4',(0.0E+000,0.0E+000,0.0E+000));
#29=DIRECTION('DIR5',(1.0E+000,0.0E+000,6.12303176911189E-017));
#30=DIRECTION('DIR6',(6.12303176911189E-017,0.0E+000,-1.0E+000));
#31=AXIS2_PLACEMENT_3D('AXIS2',#28,#29,#30);
#32=CIRCLE('ELLIPSE2',#31,3.5687E+000);
#33=EDGE_CURVE('EDGE4',#2,#21,#32,.T.);
#34=ORIENTED_EDGE('COEDGE4',*,*,#33,.F.);
#35=EDGE_LOOP('NONE',(#10,#19,#27,#34));
#36=FACE_BOUND('LOOP1',#35,.T.);
#37=CARTESIAN_POINT('POS5',(8.255E-001,0.0E+000,5.05456272540186E-017));
#38=DIRECTION('DIR7',(-1.0E+000,0.0E+000,-6.12303176911189E-017));
#39=DIRECTION('DIR8',(6.12303176911189E-017,0.0E+000,-1.0E+000));
#40=AXIS2_PLACEMENT_3D('AXIS3',#37,#38,#39);
#41=CYLINDRICAL_SURFACE('CONE_SURF1',#40,3.5687E+000);
#42=ADVANCED_FACE('FACE1',(#36),#41,.F.);
#43=ORIENTED_EDGE('COEDGE5',*,*,#9,.F.);
#44=EDGE_CURVE('EDGE5',#21,#2,#32,.T.);
#45=ORIENTED_EDGE('COEDGE6',*,*,#44,.F.);
#46=ORIENTED_EDGE('COEDGE7',*,*,#26,.F.);
#47=EDGE_CURVE('EDGE6',#4,#12,#17,.T.);
#48=ORIENTED_EDGE('COEDGE8',*,*,#47,.F.);
#49=EDGE_LOOP('NONE',(#43,#45,#46,#48));
#50=FACE_BOUND('LOOP1',#49,.T.);
#51=ADVANCED_FACE('FACE2',(#50),#41,.F.);
#52=ORIENTED_EDGE('COEDGE9',*,*,#33,.T.);
#53=ORIENTED_EDGE('COEDGE10',*,*,#44,.T.);
#54=EDGE_LOOP('NONE',(#52,#53));
#55=FACE_BOUND('LOOP1',#54,.T.);
#56=CARTESIAN_POINT('POINT5',(4.86015646673256E-016,0.0E+000,
   -7.9375E+000));
#57=VERTEX_POINT('VERTEX5',#56);
#58=CARTESIAN_POINT('POINT6',(-4.86015646673256E-016,
   -9.72031293346512E-016,7.9375E+000));
#59=VERTEX_POINT('VERTEX6',#58);
#60=CARTESIAN_POINT('POS6',(0.0E+000,0.0E+000,0.0E+000));
#61=DIRECTION('DIR9',(-1.0E+000,0.0E+000,-6.12303176911189E-017));
#62=DIRECTION('DIR10',(6.12303176911189E-017,0.0E+000,-1.0E+000));
#63=AXIS2_PLACEMENT_3D('AXIS4',#60,#61,#62);
#64=CIRCLE('ELLIPSE3',#63,7.9375E+000);
#65=EDGE_CURVE('EDGE7',#57,#59,#64,.T.);
#66=ORIENTED_EDGE('COEDGE11',*,*,#65,.T.);
#67=EDGE_CURVE('EDGE8',#59,#57,#64,.T.);
#68=ORIENTED_EDGE('COEDGE12',*,*,#67,.T.);
#69=EDGE_LOOP('NONE',(#66,#68));
#70=FACE_BOUND('LOOP1',#69,.T.);
#71=CARTESIAN_POINT('POS7',(2.43007823336628E-016,0.0E+000,-3.96875E+000
   ));
#72=DIRECTION('DIR11',(-1.0E+000,0.0E+000,-6.12303176911189E-017));
#73=DIRECTION('DIR12',(0.0E+000,1.0E+000,0.0E+000));
#74=AXIS2_PLACEMENT_3D('AXIS5',#71,#72,#73);
#75=PLANE('PLANE1',#74);
#76=ADVANCED_FACE('FACE3',(#55,#70),#75,.T.);
#77=ORIENTED_EDGE('COEDGE13',*,*,#47,.T.);
#78=ORIENTED_EDGE('COEDGE14',*,*,#18,.T.);
#79=EDGE_LOOP('NONE',(#77,#78));
#80=FACE_BOUND('LOOP1',#79,.T.);
#81=CARTESIAN_POINT('POINT7',(1.651E+000,1.01091254508037E-016,
   -7.9375E+000));
#82=VERTEX_POINT('VERTEX7',#81);
#83=CARTESIAN_POINT('POINT8',(1.651E+000,-9.72031293346512E-016,
   7.9375E+000));
#84=VERTEX_POINT('VERTEX8',#83);
#85=CARTESIAN_POINT('POS8',(1.651E+000,0.0E+000,1.01091254508037E-016));
#86=DIRECTION('DIR13',(-1.0E+000,0.0E+000,-6.12303176911189E-017));
#87=DIRECTION('DIR14',(6.12303176911189E-017,0.0E+000,-1.0E+000));
#88=AXIS2_PLACEMENT_3D('AXIS6',#85,#86,#87);
#89=CIRCLE('ELLIPSE4',#88,7.9375E+000);
#90=EDGE_CURVE('EDGE9',#82,#84,#89,.T.);
#91=ORIENTED_EDGE('COEDGE15',*,*,#90,.F.);
#92=EDGE_CURVE('EDGE10',#84,#82,#89,.T.);
#93=ORIENTED_EDGE('COEDGE16',*,*,#92,.F.);
#94=EDGE_LOOP('NONE',(#91,#93));
#95=FACE_BOUND('LOOP1',#94,.T.);
#96=CARTESIAN_POINT('POS9',(1.651E+000,1.01091254508037E-016,
   -3.96875E+000));
#97=DIRECTION('DIR15',(1.0E+000,0.0E+000,6.12303176911189E-017));
#98=DIRECTION('DIR16',(0.0E+000,1.0E+000,0.0E+000));
#99=AXIS2_PLACEMENT_3D('AXIS7',#96,#97,#98);
#100=PLANE('PLANE2',#99);
#101=ADVANCED_FACE('FACE4',(#80,#95),#100,.T.);
#102=CARTESIAN_POINT('POS10',(8.255E-001,9.72031293346512E-016,
   -7.9375E+000));
#103=DIRECTION('DIR17',(-1.0E+000,0.0E+000,-6.12303176911189E-017));
#104=VECTOR('VEC3',#103,1.0E+000);
#105=LINE('STRAIGHT3',#102,#104);
#106=EDGE_CURVE('EDGE11',#82,#57,#105,.T.);
#107=ORIENTED_EDGE('COEDGE17',*,*,#106,.T.);
#108=ORIENTED_EDGE('COEDGE18',*,*,#67,.F.);
#109=CARTESIAN_POINT('POS11',(8.255E-001,-9.72031293346512E-016,
   7.9375E+000));
#110=DIRECTION('DIR18',(1.0E+000,-0.0E+000,6.12303176911189E-017));
#111=VECTOR('VEC4',#110,1.0E+000);
#112=LINE('STRAIGHT4',#109,#111);
#113=EDGE_CURVE('EDGE12',#59,#84,#112,.T.);
#114=ORIENTED_EDGE('COEDGE19',*,*,#113,.T.);
#115=ORIENTED_EDGE('COEDGE20',*,*,#92,.T.);
#116=EDGE_LOOP('NONE',(#107,#108,#114,#115));
#117=FACE_BOUND('LOOP1',#116,.T.);
#118=CARTESIAN_POINT('POS12',(8.255E-001,0.0E+000,5.05456272540186E-017)
   );
#119=DIRECTION('DIR19',(-1.0E+000,0.0E+000,-6.12303176911189E-017));
#120=DIRECTION('DIR20',(6.12303176911189E-017,0.0E+000,-1.0E+000));
#121=AXIS2_PLACEMENT_3D('AXIS8',#118,#119,#120);
#122=CYLINDRICAL_SURFACE('CONE_SURF2',#121,7.9375E+000);
#123=ADVANCED_FACE('FACE5',(#117),#122,.T.);
#124=ORIENTED_EDGE('COEDGE21',*,*,#106,.F.);
#125=ORIENTED_EDGE('COEDGE22',*,*,#90,.T.);
#126=ORIENTED_EDGE('COEDGE23',*,*,#113,.F.);
#127=ORIENTED_EDGE('COEDGE24',*,*,#65,.F.);
#128=EDGE_LOOP('NONE',(#124,#125,#126,#127));
#129=FACE_BOUND('LOOP1',#128,.T.);
#130=ADVANCED_FACE('FACE6',(#129),#122,.T.);
#131=CLOSED_SHELL('SHELL1',(#42,#51,#76,#101,#123,#130));
#132=MANIFOLD_SOLID_BREP('LUMP1',#131);
#133=ADVANCED_BREP_SHAPE_REPRESENTATION('BODY0',(#132),#134);
#134=(GEOMETRIC_REPRESENTATION_CONTEXT(3) 
   GLOBAL_UNCERTAINTY_ASSIGNED_CONTEXT((#135)) 
   GLOBAL_UNIT_ASSIGNED_CONTEXT((#136,#137,#138)) REPRESENTATION_CONTEXT
   ('',''));
#135=UNCERTAINTY_MEASURE_WITH_UNIT(LENGTH_MEASURE(1.0E-006),#136,'','');
#136=(LENGTH_UNIT() NAMED_UNIT(*) SI_UNIT(.MILLI.,.METRE.));
#137=(NAMED_UNIT(*) PLANE_ANGLE_UNIT() SI_UNIT($,.RADIAN.));
#138=(NAMED_UNIT(*) SI_UNIT($,.STERADIAN.) SOLID_ANGLE_UNIT());
#139=APPLICATION_CONTEXT(
   'CONFIGURATION CONTROLLED 3D DESIGNS OF MECHANICAL PARTS AND 
ASSEMBLIES');
#140=APPLICATION_PROTOCOL_DEFINITION('INTERNATIONAL STANDARD',
   'config_control_design',1994,#139);
#141=MECHANICAL_CONTEXT('MECHANICAL_CONTEXT_NAME',#139,'mechanical');
#142=PRODUCT('PRODUCT_ID_1','PRODUCT_NAME_1','PRODUCT_DESCRIPTION',(#141
   ));
#143=PRODUCT_RELATED_PRODUCT_CATEGORY('detail',
   'PRODUCT_RELATED_PRODUCT_CATEGORY_DESCRIPTION',(#142));
#144=PERSON_AND_ORGANIZATION_ROLE('design_owner');
#145=PERSON('ID_1','PERSON_LAST_NAME','PERSON_FIRST_NAME',$,$,$);
#146=ORGANIZATION('ORGANIZATION_ID','ORGANIZATION_NAME',
   'ORGANIZATION_DESCRIPTION');
#147=PERSON_AND_ORGANIZATION(#145,#146);
#148=PRODUCT_DEFINITION_FORMATION_WITH_SPECIFIED_SOURCE(
   'PRODUCT_DEFINITION_FORMATION_ID',
   'PRODUCT_DEFINITION_FORMATION_DESCRIPTION',#142,.NOT_KNOWN.);
#149=PERSON_AND_ORGANIZATION_ROLE('creator');
#150=PERSON('ID_2','PERSON_LAST_NAME','PERSON_FIRST_NAME',$,$,$);
#151=ORGANIZATION('ORGANIZATION_ID','ORGANIZATION_NAME',
   'ORGANIZATION_DESCRIPTION');
#152=PERSON_AND_ORGANIZATION(#150,#151);
#153=PERSON_AND_ORGANIZATION_ROLE('part_supplier');
#154=PERSON('ID_3','PERSON_LAST_NAME','PERSON_FIRST_NAME',$,$,$);
#155=ORGANIZATION('ORGANIZATION_ID','ORGANIZATION_NAME',
   'ORGANIZATION_DESCRIPTION');
#156=PERSON_AND_ORGANIZATION(#154,#155);
#157=APPROVAL_STATUS('approved');
#158=APPROVAL(#157,'APPROVAL_LEVEL');
#159=APPROVAL_ROLE('APPROVAL_ROLE');
#160=APPROVAL_PERSON_ORGANIZATION(#163,#158,#159);
#161=PERSON('ID_4','PERSON_LAST_NAME','PERSON_FIRST_NAME',$,$,$);
#162=ORGANIZATION('ORGANIZATION_ID','ORGANIZATION_NAME',
   'ORGANIZATION_DESCRIPTION');
#163=PERSON_AND_ORGANIZATION(#161,#162);
#164=APPROVAL_DATE_TIME(#168,#158);
#165=CALENDAR_DATE(1997,1,1);
#166=COORDINATED_UNIVERSAL_TIME_OFFSET(0,0,.AHEAD.);
#167=LOCAL_TIME(0,0,0.0E+000,#166);
#168=DATE_AND_TIME(#165,#167);
#169=SECURITY_CLASSIFICATION_LEVEL('classified');
#170=SECURITY_CLASSIFICATION('SECURITY_CLASSIFICATION_NAME',
   'SECURITY_CLASSIFICATION_PURPOSE',#169);
#171=APPROVAL_STATUS('approved');
#172=APPROVAL(#171,'APPROVAL_LEVEL');
#173=APPROVAL_ROLE('APPROVAL_ROLE');
#174=APPROVAL_PERSON_ORGANIZATION(#177,#172,#173);
#175=PERSON('ID_5','PERSON_LAST_NAME','PERSON_FIRST_NAME',$,$,$);
#176=ORGANIZATION('ORGANIZATION_ID','ORGANIZATION_NAME',
   'ORGANIZATION_DESCRIPTION');
#177=PERSON_AND_ORGANIZATION(#175,#176);
#178=APPROVAL_DATE_TIME(#182,#172);
#179=CALENDAR_DATE(1997,1,1);
#180=COORDINATED_UNIVERSAL_TIME_OFFSET(0,0,.AHEAD.);
#181=LOCAL_TIME(0,0,0.0E+000,#180);
#182=DATE_AND_TIME(#179,#181);
#183=PERSON_AND_ORGANIZATION_ROLE('classification_officer');
#184=PERSON('ID_6','PERSON_LAST_NAME','PERSON_FIRST_NAME',$,$,$);
#185=ORGANIZATION('ORGANIZATION_ID','ORGANIZATION_NAME',
   'ORGANIZATION_DESCRIPTION');
#186=PERSON_AND_ORGANIZATION(#184,#185);
#187=DATE_TIME_ROLE('classification_date');
#188=CALENDAR_DATE(1997,1,1);
#189=COORDINATED_UNIVERSAL_TIME_OFFSET(0,0,.AHEAD.);
#190=LOCAL_TIME(0,0,0.0E+000,#189);
#191=DATE_AND_TIME(#188,#190);
#192=DESIGN_CONTEXT('DESIGN_CONTEXT_NAME',#139,'design');
#193=PRODUCT_DEFINITION('PRODUCT_DEFINITION_ID',
   'PRODUCT_DEFINITION_DESCRIPTION',#148,#192);
#194=PERSON_AND_ORGANIZATION_ROLE('creator');
#195=PERSON('ID_7','PERSON_LAST_NAME','PERSON_FIRST_NAME',$,$,$);
#196=ORGANIZATION('ORGANIZATION_ID','ORGANIZATION_NAME',
   'ORGANIZATION_DESCRIPTION');
#197=PERSON_AND_ORGANIZATION(#195,#196);
#198=DATE_TIME_ROLE('creation_date');
#199=CALENDAR_DATE(1997,1,1);
#200=COORDINATED_UNIVERSAL_TIME_OFFSET(0,0,.AHEAD.);
#201=LOCAL_TIME(0,0,0.0E+000,#200);
#202=DATE_AND_TIME(#199,#201);
#203=APPROVAL_STATUS('approved');
#204=APPROVAL(#203,'APPROVAL_LEVEL');
#205=APPROVAL_ROLE('APPROVAL_ROLE');
#206=APPROVAL_PERSON_ORGANIZATION(#209,#204,#205);
#207=PERSON('ID_8','PERSON_LAST_NAME','PERSON_FIRST_NAME',$,$,$);
#208=ORGANIZATION('ORGANIZATION_ID','ORGANIZATION_NAME',
   'ORGANIZATION_DESCRIPTION');
#209=PERSON_AND_ORGANIZATION(#207,#208);
#210=APPROVAL_DATE_TIME(#214,#204);
#211=CALENDAR_DATE(1997,1,1);
#212=COORDINATED_UNIVERSAL_TIME_OFFSET(0,0,.AHEAD.);
#213=LOCAL_TIME(0,0,0.0E+000,#212);
#214=DATE_AND_TIME(#211,#213);
#215=PRODUCT_DEFINITION_SHAPE('PRODUCT_DEFINITION_SHAPE_NAME',
   'PRODUCT_DEFINITION_SHAPE_DESCRIPTION',#193);
#216=SHAPE_DEFINITION_REPRESENTATION(#215,#133);
#217=STYLED_ITEM('',(#218),#132);
#218=PRESENTATION_STYLE_ASSIGNMENT((#220));
#219=COLOUR_RGB('',5.09803921568627E-001,5.09803921568627E-001,
   5.88235294117647E-001);
#220=SURFACE_STYLE_USAGE(.BOTH.,#221);
#221=SURFACE_SIDE_STYLE('',(#222));
#222=SURFACE_STYLE_FILL_AREA(#223);
#223=FILL_AREA_STYLE('',(#224));
#224=FILL_AREA_STYLE_COLOUR('',#219);
#225=STYLED_ITEM('',(#226),#42);
#226=PRESENTATION_STYLE_ASSIGNMENT((#228));
#227=COLOUR_RGB('',5.09803921568627E-001,5.09803921568627E-001,
   5.88235294117647E-001);
#228=SURFACE_STYLE_USAGE(.BOTH.,#229);
#229=SURFACE_SIDE_STYLE('',(#230));
#230=SURFACE_STYLE_FILL_AREA(#231);
#231=FILL_AREA_STYLE('',(#232));
#232=FILL_AREA_STYLE_COLOUR('',#227);
#233=STYLED_ITEM('',(#234),#51);
#234=PRESENTATION_STYLE_ASSIGNMENT((#236));
#235=COLOUR_RGB('',5.09803921568627E-001,5.09803921568627E-001,
   5.88235294117647E-001);
#236=SURFACE_STYLE_USAGE(.BOTH.,#237);
#237=SURFACE_SIDE_STYLE('',(#238));
#238=SURFACE_STYLE_FILL_AREA(#239);
#239=FILL_AREA_STYLE('',(#240));
#240=FILL_AREA_STYLE_COLOUR('',#235);
#241=STYLED_ITEM('',(#242),#76);
#242=PRESENTATION_STYLE_ASSIGNMENT((#244));
#243=COLOUR_RGB('',5.09803921568627E-001,5.09803921568627E-001,
   5.88235294117647E-001);
#244=SURFACE_STYLE_USAGE(.BOTH.,#245);
#245=SURFACE_SIDE_STYLE('',(#246));
#246=SURFACE_STYLE_FILL_AREA(#247);
#247=FILL_AREA_STYLE('',(#248));
#248=FILL_AREA_STYLE_COLOUR('',#243);
#249=STYLED_ITEM('',(#250),#101);
#250=PRESENTATION_STYLE_ASSIGNMENT((#252));
#251=COLOUR_RGB('',5.09803921568627E-001,5.09803921568627E-001,
   5.88235294117647E-001);
#252=SURFACE_STYLE_USAGE(.BOTH.,#253);
#253=SURFACE_SIDE_STYLE('',(#254));
#254=SURFACE_STYLE_FILL_AREA(#255);
#255=FILL_AREA_STYLE('',(#256));
#256=FILL_AREA_STYLE_COLOUR('',#251);
#257=STYLED_ITEM('',(#258),#123);
#258=PRESENTATION_STYLE_ASSIGNMENT((#260));
#259=COLOUR_RGB('',5.09803921568627E-001,5.09803921568627E-001,
   5.88235294117647E-001);
#260=SURFACE_STYLE_USAGE(.BOTH.,#261);
#261=SURFACE_SIDE_STYLE('',(#262));
#262=SURFACE_STYLE_FILL_AREA(#263);
#263=FILL_AREA_STYLE('',(#264));
#264=FILL_AREA_STYLE_COLOUR('',#259);
#265=STYLED_ITEM('',(#266),#130);
#266=PRESENTATION_STYLE_ASSIGNMENT((#268));
#267=COLOUR_RGB('',5.09803921568627E-001,5.09803921568627E-001,
   5.88235294117647E-001);
#268=SURFACE_STYLE_USAGE(.BOTH.,#269);
#269=SURFACE_SIDE_STYLE('',(#270));
#270=SURFACE_STYLE_FILL_AREA(#271);
#271=FILL_AREA_STYLE('',(#272));
#272=FILL_AREA_STYLE_COLOUR('',#267);
#273=MECHANICAL_DESIGN_GEOMETRIC_PRESENTATION_REPRESENTATION($,(#217,
   #225,#233,#241,#249,#257,#265),#134);
ENDSEC;
END-ISO-10303-21;
                
                  
               
                   
                    
     
                
