ISO-10303-21;
HEADER;
FILE_DESCRIPTION(('starvars output'),'2;1');
FILE_NAME('cv20200718203623000006535.stp','20:36:23   2020/07/18',(
   'Thomas Industrial Network Germany GmbH'),(
   'Thomas Industrial Network Germany GmbH'),'unknown preprocess','ACIS'
   ,'unknown authorization');
FILE_SCHEMA(('AUTOMOTIVE_DESIGN_CC2 {UNKNOWN IMPLEMENTATION LEVEL}'));
ENDSEC;
/* ISO 10303-21 file written by STEP Caselib, ProSTEP GmbH, Germany */
DATA;
#1=CARTESIAN_POINT('POINT1',(-1.375E+000,2.4E+000,2.38156986040721E+000)
   );
#2=VERTEX_POINT('VERTEX1',#1);
#3=CARTESIAN_POINT('POINT2',(-2.75E+000,2.15437990693814E+000,
   1.58771324027147E+000));
#4=VERTEX_POINT('VERTEX2',#3);
#5=(BOUNDED_CURVE() B_SPLINE_CURVE(2,(#6,#7,#8),.UNSPECIFIED.,.F.,.F.) 
   B_SPLINE_CURVE_WITH_KNOTS((3,3),(1.61070172663192E+000,
   3.22140345326383E+000),.UNSPECIFIED.) CURVE() 
   GEOMETRIC_REPRESENTATION_ITEM() RATIONAL_B_SPLINE_CURVE((1.0E+000,
   1.03795484930202E+000,1.0E+000)) REPRESENTATION_ITEM('SPLINE_CRV1'));
#6=CARTESIAN_POINT('',(-1.375E+000,2.4E+000,2.38156986040721E+000));
#7=CARTESIAN_POINT('',(-2.01313972081441E+000,2.4E+000,
   2.01313972081441E+000));
#8=CARTESIAN_POINT('',(-2.75E+000,2.15437990693814E+000,
   1.58771324027147E+000));
#9=EDGE_CURVE('EDGE1',#2,#4,#5,.T.);
#10=ORIENTED_EDGE('COEDGE1',*,*,#9,.F.);
#11=CARTESIAN_POINT('POINT3',(-2.75E+000,2.4E+000,2.18813682451024E-016)
   );
#12=VERTEX_POINT('VERTEX3',#11);
#13=CARTESIAN_POINT('POS1',(2.93905524917371E-016,2.4E+000,
   4.40858287376056E-016));
#14=DIRECTION('DIR1',(1.1247455413666E-032,1.0E+000,
   1.83690953073357E-016));
#15=DIRECTION('DIR2',(1.0E+000,0.0E+000,-6.12303176911189E-017));
#16=AXIS2_PLACEMENT_3D('AXIS1',#13,#14,#15);
#17=CIRCLE('ELLIPSE1',#16,2.75E+000);
#18=EDGE_CURVE('EDGE2',#12,#2,#17,.T.);
#19=ORIENTED_EDGE('COEDGE2',*,*,#18,.F.);
#20=(BOUNDED_CURVE() B_SPLINE_CURVE(2,(#21,#22,#23),.UNSPECIFIED.,.F.,
   .F.) B_SPLINE_CURVE_WITH_KNOTS((3,3),(0.0E+000,1.61070172663192E+000)
   ,.UNSPECIFIED.) CURVE() GEOMETRIC_REPRESENTATION_ITEM() 
   RATIONAL_B_SPLINE_CURVE((1.0E+000,1.03795484930203E+000,1.0E+000)) 
   REPRESENTATION_ITEM('SPLINE_CRV2'));
#21=CARTESIAN_POINT('',(-2.75E+000,2.15437990693814E+000,
   1.58771324027147E+000));
#22=CARTESIAN_POINT('',(-2.75E+000,2.4E+000,7.36860279185586E-001));
#23=CARTESIAN_POINT('',(-2.75E+000,2.4E+000,2.18813682451024E-016));
#24=EDGE_CURVE('EDGE3',#4,#12,#20,.T.);
#25=ORIENTED_EDGE('COEDGE3',*,*,#24,.F.);
#26=EDGE_LOOP('NONE',(#10,#19,#25));
#27=FACE_BOUND('LOOP1',#26,.T.);
#28=CARTESIAN_POINT('POS2',(2.93905524917371E-016,2.27718995346907E+000,
   4.40858287376056E-016));
#29=DIRECTION('DIR3',(0.0E+000,-1.0E+000,0.0E+000));
#30=DIRECTION('DIR4',(1.0E+000,0.0E+000,-6.12303176911189E-017));
#31=AXIS2_PLACEMENT_3D('AXIS2',#28,#29,#30);
#32=CONICAL_SURFACE('CONE_SURF1',#31,2.96271324027147E+000,
   1.0471975511966E+000);
#33=ADVANCED_FACE('FACE1',(#27),#32,.T.);
#34=CARTESIAN_POINT('POINT4',(1.375E+000,2.4E+000,2.38156986040721E+000)
   );
#35=VERTEX_POINT('VERTEX4',#34);
#36=CARTESIAN_POINT('POINT5',(2.22044604925031E-016,
   2.15437990693814E+000,3.17542648054294E+000));
#37=VERTEX_POINT('VERTEX5',#36);
#38=(BOUNDED_CURVE() B_SPLINE_CURVE(2,(#39,#40,#41),.UNSPECIFIED.,.F.,
   .F.) B_SPLINE_CURVE_WITH_KNOTS((3,3),(1.61070172663192E+000,
   3.22140345326383E+000),.UNSPECIFIED.) CURVE() 
   GEOMETRIC_REPRESENTATION_ITEM() RATIONAL_B_SPLINE_CURVE((1.0E+000,
   1.03795484930203E+000,1.0E+000)) REPRESENTATION_ITEM('SPLINE_CRV3'));
#39=CARTESIAN_POINT('',(1.375E+000,2.4E+000,2.38156986040721E+000));
#40=CARTESIAN_POINT('',(7.36860279185592E-001,2.4E+000,2.75E+000));
#41=CARTESIAN_POINT('',(2.12077874534735E-015,2.15437990693814E+000,
   3.17542648054294E+000));
#42=EDGE_CURVE('EDGE4',#35,#37,#38,.T.);
#43=ORIENTED_EDGE('COEDGE4',*,*,#42,.F.);
#44=EDGE_CURVE('EDGE5',#2,#35,#17,.T.);
#45=ORIENTED_EDGE('COEDGE5',*,*,#44,.F.);
#46=(BOUNDED_CURVE() B_SPLINE_CURVE(2,(#47,#48,#49),.UNSPECIFIED.,.F.,
   .F.) B_SPLINE_CURVE_WITH_KNOTS((3,3),(0.0E+000,1.61070172663192E+000)
   ,.UNSPECIFIED.) CURVE() GEOMETRIC_REPRESENTATION_ITEM() 
   RATIONAL_B_SPLINE_CURVE((1.0E+000,1.03795484930204E+000,1.0E+000)) 
   REPRESENTATION_ITEM('SPLINE_CRV4'));
#47=CARTESIAN_POINT('',(-3.35291513140084E-015,2.15437990693814E+000,
   3.17542648054294E+000));
#48=CARTESIAN_POINT('',(-7.3686027918559E-001,2.4E+000,2.75E+000));
#49=CARTESIAN_POINT('',(-1.375E+000,2.4E+000,2.38156986040721E+000));
#50=EDGE_CURVE('EDGE6',#37,#2,#46,.T.);
#51=ORIENTED_EDGE('COEDGE6',*,*,#50,.F.);
#52=EDGE_LOOP('NONE',(#43,#45,#51));
#53=FACE_BOUND('LOOP1',#52,.T.);
#54=ADVANCED_FACE('FACE2',(#53),#32,.T.);
#55=CARTESIAN_POINT('POINT6',(2.75E+000,2.4E+000,2.72474913725479E-016))
   ;
#56=VERTEX_POINT('VERTEX6',#55);
#57=CARTESIAN_POINT('POINT7',(2.75E+000,2.15437990693814E+000,
   1.58771324027147E+000));
#58=VERTEX_POINT('VERTEX7',#57);
#59=(BOUNDED_CURVE() B_SPLINE_CURVE(2,(#60,#61,#62),.UNSPECIFIED.,.F.,
   .F.) B_SPLINE_CURVE_WITH_KNOTS((3,3),(1.61070172663192E+000,
   3.22140345326384E+000),.UNSPECIFIED.) CURVE() 
   GEOMETRIC_REPRESENTATION_ITEM() RATIONAL_B_SPLINE_CURVE((1.0E+000,
   1.03795484930203E+000,1.0E+000)) REPRESENTATION_ITEM('SPLINE_CRV5'));
#60=CARTESIAN_POINT('',(2.75E+000,2.4E+000,2.72474913725479E-016));
#61=CARTESIAN_POINT('',(2.75E+000,2.4E+000,7.36860279185586E-001));
#62=CARTESIAN_POINT('',(2.75E+000,2.15437990693814E+000,
   1.58771324027147E+000));
#63=EDGE_CURVE('EDGE7',#56,#58,#59,.T.);
#64=ORIENTED_EDGE('COEDGE7',*,*,#63,.F.);
#65=EDGE_CURVE('EDGE8',#35,#56,#17,.T.);
#66=ORIENTED_EDGE('COEDGE8',*,*,#65,.F.);
#67=(BOUNDED_CURVE() B_SPLINE_CURVE(2,(#68,#69,#70),.UNSPECIFIED.,.F.,
   .F.) B_SPLINE_CURVE_WITH_KNOTS((3,3),(0.0E+000,1.61070172663192E+000)
   ,.UNSPECIFIED.) CURVE() GEOMETRIC_REPRESENTATION_ITEM() 
   RATIONAL_B_SPLINE_CURVE((1.0E+000,1.03795484930203E+000,1.0E+000)) 
   REPRESENTATION_ITEM('SPLINE_CRV6'));
#68=CARTESIAN_POINT('',(2.75E+000,2.15437990693814E+000,
   1.58771324027147E+000));
#69=CARTESIAN_POINT('',(2.01313972081441E+000,2.4E+000,
   2.01313972081442E+000));
#70=CARTESIAN_POINT('',(1.375E+000,2.4E+000,2.38156986040721E+000));
#71=EDGE_CURVE('EDGE9',#58,#35,#67,.T.);
#72=ORIENTED_EDGE('COEDGE9',*,*,#71,.F.);
#73=EDGE_LOOP('NONE',(#64,#66,#72));
#74=FACE_BOUND('LOOP1',#73,.T.);
#75=ADVANCED_FACE('FACE3',(#74),#32,.T.);
#76=CARTESIAN_POINT('POINT8',(-2.75E+000,2.15437990693814E+000,
   -1.58771324027147E+000));
#77=VERTEX_POINT('VERTEX8',#76);
#78=CARTESIAN_POINT('POINT9',(-1.375E+000,2.4E+000,-2.3815698604072E+000
   ));
#79=VERTEX_POINT('VERTEX9',#78);
#80=(BOUNDED_CURVE() B_SPLINE_CURVE(2,(#81,#82,#83),.UNSPECIFIED.,.F.,
   .F.) B_SPLINE_CURVE_WITH_KNOTS((3,3),(0.0E+000,1.61070172663192E+000)
   ,.UNSPECIFIED.) CURVE() GEOMETRIC_REPRESENTATION_ITEM() 
   RATIONAL_B_SPLINE_CURVE((1.0E+000,1.03795484930206E+000,1.0E+000)) 
   REPRESENTATION_ITEM('SPLINE_CRV7'));
#81=CARTESIAN_POINT('',(-2.75E+000,2.15437990693814E+000,
   -1.58771324027147E+000));
#82=CARTESIAN_POINT('',(-2.01313972081442E+000,2.4E+000,
   -2.01313972081441E+000));
#83=CARTESIAN_POINT('',(-1.375E+000,2.4E+000,-2.3815698604072E+000));
#84=EDGE_CURVE('EDGE10',#77,#79,#80,.T.);
#85=ORIENTED_EDGE('COEDGE10',*,*,#84,.F.);
#86=(BOUNDED_CURVE() B_SPLINE_CURVE(2,(#87,#88,#89),.UNSPECIFIED.,.F.,
   .F.) B_SPLINE_CURVE_WITH_KNOTS((3,3),(1.61070172663192E+000,
   3.22140345326384E+000),.UNSPECIFIED.) CURVE() 
   GEOMETRIC_REPRESENTATION_ITEM() RATIONAL_B_SPLINE_CURVE((1.0E+000,
   1.03795484930204E+000,1.0E+000)) REPRESENTATION_ITEM('SPLINE_CRV8'));
#87=CARTESIAN_POINT('',(-2.75E+000,2.4E+000,2.18813682451024E-016));
#88=CARTESIAN_POINT('',(-2.75E+000,2.4E+000,-7.36860279185586E-001));
#89=CARTESIAN_POINT('',(-2.75E+000,2.15437990693814E+000,
   -1.58771324027147E+000));
#90=EDGE_CURVE('EDGE11',#12,#77,#86,.T.);
#91=ORIENTED_EDGE('COEDGE11',*,*,#90,.F.);
#92=EDGE_CURVE('EDGE12',#79,#12,#17,.T.);
#93=ORIENTED_EDGE('COEDGE12',*,*,#92,.F.);
#94=EDGE_LOOP('NONE',(#85,#91,#93));
#95=FACE_BOUND('LOOP1',#94,.T.);
#96=ADVANCED_FACE('FACE4',(#95),#32,.T.);
#97=CARTESIAN_POINT('POINT10',(-2.66453525910038E-015,
   2.15437990693814E+000,-3.17542648054294E+000));
#98=VERTEX_POINT('VERTEX10',#97);
#99=CARTESIAN_POINT('POINT11',(1.375E+000,2.4E+000,
   -2.38156986040721E+000));
#100=VERTEX_POINT('VERTEX11',#99);
#101=(BOUNDED_CURVE() B_SPLINE_CURVE(2,(#102,#103,#104),.UNSPECIFIED.,
   .F.,.F.) B_SPLINE_CURVE_WITH_KNOTS((3,3),(0.0E+000,
   1.61070172663192E+000),.UNSPECIFIED.) CURVE() 
   GEOMETRIC_REPRESENTATION_ITEM() RATIONAL_B_SPLINE_CURVE((1.0E+000,
   1.03795484930205E+000,1.0E+000)) REPRESENTATION_ITEM('SPLINE_CRV9'));
#102=CARTESIAN_POINT('',(-2.40096837022724E-015,2.15437990693814E+000,
   -3.17542648054294E+000));
#103=CARTESIAN_POINT('',(7.36860279185587E-001,2.4E+000,-2.75E+000));
#104=CARTESIAN_POINT('',(1.375E+000,2.4E+000,-2.38156986040721E+000));
#105=EDGE_CURVE('EDGE13',#98,#100,#101,.T.);
#106=ORIENTED_EDGE('COEDGE13',*,*,#105,.F.);
#107=(BOUNDED_CURVE() B_SPLINE_CURVE(2,(#108,#109,#110),.UNSPECIFIED.,
   .F.,.F.) B_SPLINE_CURVE_WITH_KNOTS((3,3),(1.61070172663192E+000,
   3.22140345326384E+000),.UNSPECIFIED.) CURVE() 
   GEOMETRIC_REPRESENTATION_ITEM() RATIONAL_B_SPLINE_CURVE((1.0E+000,
   1.03795484930205E+000,1.0E+000)) REPRESENTATION_ITEM('SPLINE_CRV10'))
   ;
#108=CARTESIAN_POINT('',(-1.375E+000,2.4E+000,-2.3815698604072E+000));
#109=CARTESIAN_POINT('',(-7.36860279185584E-001,2.4E+000,-2.75E+000));
#110=CARTESIAN_POINT('',(3.31071219681434E-015,2.15437990693814E+000,
   -3.17542648054294E+000));
#111=EDGE_CURVE('EDGE14',#79,#98,#107,.T.);
#112=ORIENTED_EDGE('COEDGE14',*,*,#111,.F.);
#113=EDGE_CURVE('EDGE15',#100,#79,#17,.T.);
#114=ORIENTED_EDGE('COEDGE15',*,*,#113,.F.);
#115=EDGE_LOOP('NONE',(#106,#112,#114));
#116=FACE_BOUND('LOOP1',#115,.T.);
#117=ADVANCED_FACE('FACE5',(#116),#32,.T.);
#118=CARTESIAN_POINT('POINT12',(2.75E+000,2.15437990693814E+000,
   -1.58771324027147E+000));
#119=VERTEX_POINT('VERTEX12',#118);
#120=(BOUNDED_CURVE() B_SPLINE_CURVE(2,(#121,#122,#123),.UNSPECIFIED.,
   .F.,.F.) B_SPLINE_CURVE_WITH_KNOTS((3,3),(0.0E+000,
   1.61070172663192E+000),.UNSPECIFIED.) CURVE() 
   GEOMETRIC_REPRESENTATION_ITEM() RATIONAL_B_SPLINE_CURVE((1.0E+000,
   1.03795484930203E+000,1.0E+000)) REPRESENTATION_ITEM('SPLINE_CRV11'))
   ;
#121=CARTESIAN_POINT('',(2.75E+000,2.15437990693814E+000,
   -1.58771324027147E+000));
#122=CARTESIAN_POINT('',(2.75E+000,2.4E+000,-7.36860279185586E-001));
#123=CARTESIAN_POINT('',(2.75E+000,2.4E+000,2.72474913725479E-016));
#124=EDGE_CURVE('EDGE16',#119,#56,#120,.T.);
#125=ORIENTED_EDGE('COEDGE16',*,*,#124,.F.);
#126=(BOUNDED_CURVE() B_SPLINE_CURVE(2,(#127,#128,#129),.UNSPECIFIED.,
   .F.,.F.) B_SPLINE_CURVE_WITH_KNOTS((3,3),(1.61070172663192E+000,
   3.22140345326384E+000),.UNSPECIFIED.) CURVE() 
   GEOMETRIC_REPRESENTATION_ITEM() RATIONAL_B_SPLINE_CURVE((1.0E+000,
   1.03795484930205E+000,1.0E+000)) REPRESENTATION_ITEM('SPLINE_CRV12'))
   ;
#127=CARTESIAN_POINT('',(1.375E+000,2.4E+000,-2.38156986040721E+000));
#128=CARTESIAN_POINT('',(2.01313972081441E+000,2.4E+000,
   -2.01313972081441E+000));
#129=CARTESIAN_POINT('',(2.75E+000,2.15437990693814E+000,
   -1.58771324027147E+000));
#130=EDGE_CURVE('EDGE17',#100,#119,#126,.T.);
#131=ORIENTED_EDGE('COEDGE17',*,*,#130,.F.);
#132=EDGE_CURVE('EDGE18',#56,#100,#17,.T.);
#133=ORIENTED_EDGE('COEDGE18',*,*,#132,.F.);
#134=EDGE_LOOP('NONE',(#125,#131,#133));
#135=FACE_BOUND('LOOP1',#134,.T.);
#136=ADVANCED_FACE('FACE6',(#135),#32,.T.);
#137=CARTESIAN_POINT('POINT13',(-1.5E+000,2.4E+000,6.79656526371419E-016
   ));
#138=VERTEX_POINT('VERTEX13',#137);
#139=CARTESIAN_POINT('POINT14',(1.5E+000,2.4E+000,5.32884515810558E-016)
   );
#140=VERTEX_POINT('VERTEX14',#139);
#141=CARTESIAN_POINT('POS3',(-1.46952762458685E-016,2.4E+000,
   4.40858287376056E-016));
#142=DIRECTION('DIR5',(6.12303176911189E-017,-1.0E+000,
   -1.83690953073357E-016));
#143=DIRECTION('DIR6',(-1.0E+000,-6.12303176911189E-017,
   6.12303176911188E-017));
#144=AXIS2_PLACEMENT_3D('AXIS3',#141,#142,#143);
#145=CIRCLE('ELLIPSE2',#144,1.5E+000);
#146=EDGE_CURVE('EDGE19',#138,#140,#145,.T.);
#147=ORIENTED_EDGE('COEDGE19',*,*,#146,.T.);
#148=EDGE_CURVE('EDGE20',#140,#138,#145,.T.);
#149=ORIENTED_EDGE('COEDGE20',*,*,#148,.T.);
#150=EDGE_LOOP('NONE',(#147,#149));
#151=FACE_BOUND('LOOP1',#150,.T.);
#152=ORIENTED_EDGE('COEDGE21',*,*,#18,.T.);
#153=ORIENTED_EDGE('COEDGE22',*,*,#44,.T.);
#154=ORIENTED_EDGE('COEDGE23',*,*,#65,.T.);
#155=ORIENTED_EDGE('COEDGE24',*,*,#132,.T.);
#156=ORIENTED_EDGE('COEDGE25',*,*,#113,.T.);
#157=ORIENTED_EDGE('COEDGE26',*,*,#92,.T.);
#158=EDGE_LOOP('NONE',(#152,#153,#154,#155,#156,#157));
#159=FACE_BOUND('LOOP1',#158,.T.);
#160=CARTESIAN_POINT('POS4',(-7.50918424663459E-017,2.4E+000,
   1.50229878516162E-015));
#161=DIRECTION('DIR7',(6.12303176911189E-017,1.0E+000,
   1.83690953073357E-016));
#162=DIRECTION('DIR8',(1.0E+000,-6.12303176911189E-017,
   -1.1247455413666E-032));
#163=AXIS2_PLACEMENT_3D('AXIS4',#160,#161,#162);
#164=PLANE('PLANE1',#163);
#165=ADVANCED_FACE('FACE7',(#151,#159),#164,.T.);
#166=ORIENTED_EDGE('COEDGE27',*,*,#24,.T.);
#167=ORIENTED_EDGE('COEDGE28',*,*,#90,.T.);
#168=CARTESIAN_POINT('POINT15',(-2.75E+000,2.45620093061863E-001,
   -1.58771324027147E+000));
#169=VERTEX_POINT('VERTEX15',#168);
#170=CARTESIAN_POINT('POS5',(-2.75E+000,4.6003193196323E-016,
   -1.58771324027147E+000));
#171=DIRECTION('DIR9',(6.12303176911189E-017,1.0E+000,
   1.83690953073357E-016));
#172=VECTOR('VEC1',#171,1.0E+000);
#173=LINE('STRAIGHT1',#170,#172);
#174=EDGE_CURVE('EDGE21',#169,#77,#173,.T.);
#175=ORIENTED_EDGE('COEDGE29',*,*,#174,.F.);
#176=CARTESIAN_POINT('POINT16',(-2.75E+000,-1.68383373650577E-016,
   1.68383373650577E-016));
#177=VERTEX_POINT('VERTEX16',#176);
#178=(BOUNDED_CURVE() B_SPLINE_CURVE(2,(#179,#180,#181),.UNSPECIFIED.,
   .F.,.F.) B_SPLINE_CURVE_WITH_KNOTS((3,3),(0.0E+000,
   1.61070172663192E+000),.UNSPECIFIED.) CURVE() 
   GEOMETRIC_REPRESENTATION_ITEM() RATIONAL_B_SPLINE_CURVE((1.0E+000,
   1.03795484930204E+000,1.0E+000)) REPRESENTATION_ITEM('SPLINE_CRV13'))
   ;
#179=CARTESIAN_POINT('',(-2.75E+000,2.45620093061864E-001,
   -1.58771324027148E+000));
#180=CARTESIAN_POINT('',(-2.75E+000,-6.41847686111419E-017,
   -7.36860279185591E-001));
#181=CARTESIAN_POINT('',(-2.75E+000,-1.68383373650577E-016,
   1.68383373650577E-016));
#182=EDGE_CURVE('EDGE22',#169,#177,#178,.T.);
#183=ORIENTED_EDGE('COEDGE30',*,*,#182,.T.);
#184=CARTESIAN_POINT('POINT17',(-2.75E+000,2.45620093061863E-001,
   1.58771324027147E+000));
#185=VERTEX_POINT('VERTEX17',#184);
#186=(BOUNDED_CURVE() B_SPLINE_CURVE(2,(#187,#188,#189),.UNSPECIFIED.,
   .F.,.F.) B_SPLINE_CURVE_WITH_KNOTS((3,3),(1.61070172663192E+000,
   3.22140345326385E+000),.UNSPECIFIED.) CURVE() 
   GEOMETRIC_REPRESENTATION_ITEM() RATIONAL_B_SPLINE_CURVE((1.0E+000,
   1.03795484930205E+000,1.0E+000)) REPRESENTATION_ITEM('SPLINE_CRV14'))
   ;
#187=CARTESIAN_POINT('',(-2.75E+000,-1.68383373650577E-016,
   1.68383373650577E-016));
#188=CARTESIAN_POINT('',(-2.75E+000,-7.09501901674514E-016,
   7.36860279185588E-001));
#189=CARTESIAN_POINT('',(-2.75E+000,2.45620093061863E-001,
   1.58771324027148E+000));
#190=EDGE_CURVE('EDGE23',#177,#185,#186,.T.);
#191=ORIENTED_EDGE('COEDGE31',*,*,#190,.T.);
#192=CARTESIAN_POINT('POS6',(-2.75E+000,-1.23265184662077E-016,
   1.58771324027147E+000));
#193=DIRECTION('DIR10',(6.12303176911189E-017,1.0E+000,
   1.83690953073357E-016));
#194=VECTOR('VEC2',#193,1.0E+000);
#195=LINE('STRAIGHT2',#192,#194);
#196=EDGE_CURVE('EDGE24',#185,#4,#195,.T.);
#197=ORIENTED_EDGE('COEDGE32',*,*,#196,.T.);
#198=EDGE_LOOP('NONE',(#166,#167,#175,#183,#191,#197));
#199=FACE_BOUND('LOOP1',#198,.T.);
#200=CARTESIAN_POINT('POS7',(-2.75E+000,-1.23265184662077E-016,
   1.58771324027147E+000));
#201=DIRECTION('DIR11',(-1.0E+000,6.12303176911189E-017,
   -7.86215140458677E-017));
#202=DIRECTION('DIR12',(6.12303176911189E-017,1.0E+000,
   4.81402028238524E-033));
#203=AXIS2_PLACEMENT_3D('AXIS5',#200,#201,#202);
#204=PLANE('PLANE2',#203);
#205=ADVANCED_FACE('FACE8',(#199),#204,.T.);
#206=ORIENTED_EDGE('COEDGE33',*,*,#50,.T.);
#207=ORIENTED_EDGE('COEDGE34',*,*,#9,.T.);
#208=ORIENTED_EDGE('COEDGE35',*,*,#196,.F.);
#209=CARTESIAN_POINT('POINT18',(-1.375E+000,-5.21664524294269E-016,
   2.38156986040721E+000));
#210=VERTEX_POINT('VERTEX18',#209);
#211=(BOUNDED_CURVE() B_SPLINE_CURVE(2,(#212,#213,#214),.UNSPECIFIED.,
   .F.,.F.) B_SPLINE_CURVE_WITH_KNOTS((3,3),(0.0E+000,
   1.61070172663192E+000),.UNSPECIFIED.) CURVE() 
   GEOMETRIC_REPRESENTATION_ITEM() RATIONAL_B_SPLINE_CURVE((1.0E+000,
   1.03795484930201E+000,1.0E+000)) REPRESENTATION_ITEM('SPLINE_CRV15'))
   ;
#212=CARTESIAN_POINT('',(-2.75E+000,2.45620093061864E-001,
   1.58771324027147E+000));
#213=CARTESIAN_POINT('',(-2.01313972081442E+000,-3.40005801291454E-016,
   2.01313972081441E+000));
#214=CARTESIAN_POINT('',(-1.375E+000,-5.21664524294269E-016,
   2.38156986040721E+000));
#215=EDGE_CURVE('EDGE25',#185,#210,#211,.T.);
#216=ORIENTED_EDGE('COEDGE36',*,*,#215,.T.);
#217=CARTESIAN_POINT('POINT19',(-1.11022302462516E-015,
   2.45620093061862E-001,3.17542648054294E+000));
#218=VERTEX_POINT('VERTEX19',#217);
#219=(BOUNDED_CURVE() B_SPLINE_CURVE(2,(#220,#221,#222),.UNSPECIFIED.,
   .F.,.F.) B_SPLINE_CURVE_WITH_KNOTS((3,3),(1.61070172663192E+000,
   3.22140345326385E+000),.UNSPECIFIED.) CURVE() 
   GEOMETRIC_REPRESENTATION_ITEM() RATIONAL_B_SPLINE_CURVE((1.0E+000,
   1.03795484930201E+000,1.0E+000)) REPRESENTATION_ITEM('SPLINE_CRV16'))
   ;
#220=CARTESIAN_POINT('',(-1.375E+000,-5.21664524294269E-016,
   2.38156986040721E+000));
#221=CARTESIAN_POINT('',(-7.3686027918559E-001,-7.19910242530375E-016,
   2.75E+000));
#222=CARTESIAN_POINT('',(1.65892702392658E-015,2.45620093061864E-001,
   3.17542648054294E+000));
#223=EDGE_CURVE('EDGE26',#210,#218,#219,.T.);
#224=ORIENTED_EDGE('COEDGE37',*,*,#223,.T.);
#225=CARTESIAN_POINT('POS8',(-1.13783525734175E-015,
   -5.83297116625308E-016,3.17542648054294E+000));
#226=DIRECTION('DIR13',(6.12303176911189E-017,1.0E+000,
   1.83690953073357E-016));
#227=VECTOR('VEC3',#226,1.0E+000);
#228=LINE('STRAIGHT3',#225,#227);
#229=EDGE_CURVE('EDGE27',#218,#37,#228,.T.);
#230=ORIENTED_EDGE('COEDGE38',*,*,#229,.T.);
#231=EDGE_LOOP('NONE',(#206,#207,#208,#216,#224,#230));
#232=FACE_BOUND('LOOP1',#231,.T.);
#233=CARTESIAN_POINT('POS9',(-1.13783525734175E-015,
   -5.83297116625308E-016,3.17542648054294E+000));
#234=DIRECTION('DIR14',(-5.0E-001,-1.28465872961343E-016,
   8.66025403784438E-001));
#235=DIRECTION('DIR15',(8.66025403784438E-001,-7.41698063359114E-017,
   5.0E-001));
#236=AXIS2_PLACEMENT_3D('AXIS6',#233,#234,#235);
#237=PLANE('PLANE3',#236);
#238=ADVANCED_FACE('FACE9',(#232),#237,.T.);
#239=ORIENTED_EDGE('COEDGE39',*,*,#71,.T.);
#240=ORIENTED_EDGE('COEDGE40',*,*,#42,.T.);
#241=ORIENTED_EDGE('COEDGE41',*,*,#229,.F.);
#242=CARTESIAN_POINT('POINT20',(1.375E+000,-3.53281150643692E-016,
   2.38156986040721E+000));
#243=VERTEX_POINT('VERTEX20',#242);
#244=(BOUNDED_CURVE() B_SPLINE_CURVE(2,(#245,#246,#247),.UNSPECIFIED.,
   .F.,.F.) B_SPLINE_CURVE_WITH_KNOTS((3,3),(0.0E+000,
   1.61070172663192E+000),.UNSPECIFIED.) CURVE() 
   GEOMETRIC_REPRESENTATION_ITEM() RATIONAL_B_SPLINE_CURVE((1.0E+000,
   1.03795484930204E+000,1.0E+000)) REPRESENTATION_ITEM('SPLINE_CRV17'))
   ;
#245=CARTESIAN_POINT('',(-4.29074023340841E-015,2.45620093061864E-001,
   3.17542648054294E+000));
#246=CARTESIAN_POINT('',(7.36860279185588E-001,-7.19910242530375E-016,
   2.75E+000));
#247=CARTESIAN_POINT('',(1.375E+000,-3.53281150643692E-016,
   2.38156986040721E+000));
#248=EDGE_CURVE('EDGE28',#218,#243,#244,.T.);
#249=ORIENTED_EDGE('COEDGE42',*,*,#248,.T.);
#250=CARTESIAN_POINT('POINT21',(2.75E+000,2.45620093061863E-001,
   1.58771324027147E+000));
#251=VERTEX_POINT('VERTEX21',#250);
#252=(BOUNDED_CURVE() B_SPLINE_CURVE(2,(#253,#254,#255),.UNSPECIFIED.,
   .F.,.F.) B_SPLINE_CURVE_WITH_KNOTS((3,3),(1.61070172663192E+000,
   3.22140345326385E+000),.UNSPECIFIED.) CURVE() 
   GEOMETRIC_REPRESENTATION_ITEM() RATIONAL_B_SPLINE_CURVE((1.0E+000,
   1.03795484930203E+000,1.0E+000)) REPRESENTATION_ITEM('SPLINE_CRV18'))
   ;
#253=CARTESIAN_POINT('',(1.375E+000,-3.53281150643692E-016,
   2.38156986040721E+000));
#254=CARTESIAN_POINT('',(2.01313972081441E+000,-6.5746019739521E-016,
   2.01313972081441E+000));
#255=CARTESIAN_POINT('',(2.75E+000,2.45620093061864E-001,
   1.58771324027147E+000));
#256=EDGE_CURVE('EDGE29',#243,#251,#252,.T.);
#257=ORIENTED_EDGE('COEDGE43',*,*,#256,.T.);
#258=CARTESIAN_POINT('POS10',(2.75E+000,-4.60031931963231E-016,
   1.58771324027147E+000));
#259=DIRECTION('DIR16',(6.12303176911189E-017,1.0E+000,
   1.83690953073357E-016));
#260=VECTOR('VEC4',#259,1.0E+000);
#261=LINE('STRAIGHT4',#258,#260);
#262=EDGE_CURVE('EDGE30',#251,#58,#261,.T.);
#263=ORIENTED_EDGE('COEDGE44',*,*,#262,.T.);
#264=EDGE_LOOP('NONE',(#239,#240,#241,#249,#257,#263));
#265=FACE_BOUND('LOOP1',#264,.T.);
#266=CARTESIAN_POINT('POS11',(2.75E+000,-4.60031931963231E-016,
   1.58771324027147E+000));
#267=DIRECTION('DIR17',(5.0E-001,-1.89696190652461E-016,
   8.66025403784439E-001));
#268=DIRECTION('DIR18',(8.66025403784439E-001,1.09521146737445E-016,
   -5.0E-001));
#269=AXIS2_PLACEMENT_3D('AXIS7',#266,#267,#268);
#270=PLANE('PLANE4',#269);
#271=ADVANCED_FACE('FACE10',(#265),#270,.T.);
#272=ORIENTED_EDGE('COEDGE45',*,*,#63,.T.);
#273=ORIENTED_EDGE('COEDGE46',*,*,#262,.F.);
#274=CARTESIAN_POINT('POINT22',(2.75E+000,1.68383373650577E-016,
   -2.22044604925031E-016));
#275=VERTEX_POINT('VERTEX22',#274);
#276=(BOUNDED_CURVE() B_SPLINE_CURVE(2,(#277,#278,#279),.UNSPECIFIED.,
   .F.,.F.) B_SPLINE_CURVE_WITH_KNOTS((3,3),(0.0E+000,
   1.61070172663192E+000),.UNSPECIFIED.) CURVE() 
   GEOMETRIC_REPRESENTATION_ITEM() RATIONAL_B_SPLINE_CURVE((1.0E+000,
   1.03795484930203E+000,1.0E+000)) REPRESENTATION_ITEM('SPLINE_CRV19'))
   ;
#277=CARTESIAN_POINT('',(2.75E+000,2.45620093061864E-001,
   1.58771324027148E+000));
#278=CARTESIAN_POINT('',(2.75E+000,-9.41954847455406E-016,
   7.36860279185586E-001));
#279=CARTESIAN_POINT('',(2.75E+000,1.68383373650577E-016,
   -2.22044604925031E-016));
#280=EDGE_CURVE('EDGE31',#251,#275,#276,.T.);
#281=ORIENTED_EDGE('COEDGE47',*,*,#280,.T.);
#282=CARTESIAN_POINT('POINT23',(2.75E+000,2.45620093061863E-001,
   -1.58771324027147E+000));
#283=VERTEX_POINT('VERTEX23',#282);
#284=(BOUNDED_CURVE() B_SPLINE_CURVE(2,(#285,#286,#287),.UNSPECIFIED.,
   .F.,.F.) B_SPLINE_CURVE_WITH_KNOTS((3,3),(1.61070172663192E+000,
   3.22140345326385E+000),.UNSPECIFIED.) CURVE() 
   GEOMETRIC_REPRESENTATION_ITEM() RATIONAL_B_SPLINE_CURVE((1.0E+000,
   1.03795484930203E+000,1.0E+000)) REPRESENTATION_ITEM('SPLINE_CRV20'))
   ;
#285=CARTESIAN_POINT('',(2.75E+000,1.68383373650577E-016,
   -2.22044604925031E-016));
#286=CARTESIAN_POINT('',(2.75E+000,-3.78169717762944E-016,
   -7.36860279185589E-001));
#287=CARTESIAN_POINT('',(2.75E+000,2.45620093061864E-001,
   -1.58771324027148E+000));
#288=EDGE_CURVE('EDGE32',#275,#283,#284,.T.);
#289=ORIENTED_EDGE('COEDGE48',*,*,#288,.T.);
#290=CARTESIAN_POINT('POS12',(2.75E+000,1.23265184662077E-016,
   -1.58771324027147E+000));
#291=DIRECTION('DIR19',(6.12303176911189E-017,1.0E+000,
   1.83690953073357E-016));
#292=VECTOR('VEC5',#291,1.0E+000);
#293=LINE('STRAIGHT5',#290,#292);
#294=EDGE_CURVE('EDGE33',#283,#119,#293,.T.);
#295=ORIENTED_EDGE('COEDGE49',*,*,#294,.T.);
#296=ORIENTED_EDGE('COEDGE50',*,*,#124,.T.);
#297=EDGE_LOOP('NONE',(#272,#273,#281,#289,#295,#296));
#298=FACE_BOUND('LOOP1',#297,.T.);
#299=CARTESIAN_POINT('POS13',(2.75E+000,1.23265184662077E-016,
   -1.58771324027147E+000));
#300=DIRECTION('DIR20',(1.0E+000,-6.12303176911189E-017,
   -6.12303176911189E-017));
#301=DIRECTION('DIR21',(6.12303176911189E-017,1.0E+000,
   -3.74915180455534E-033));
#302=AXIS2_PLACEMENT_3D('AXIS8',#299,#300,#301);
#303=PLANE('PLANE5',#302);
#304=ADVANCED_FACE('FACE11',(#298),#303,.T.);
#305=ORIENTED_EDGE('COEDGE51',*,*,#111,.T.);
#306=CARTESIAN_POINT('POINT24',(4.88498130835069E-015,
   2.45620093061864E-001,-3.17542648054294E+000));
#307=VERTEX_POINT('VERTEX24',#306);
#308=CARTESIAN_POINT('POS14',(-1.94432372208436E-016,
   5.83297116625307E-016,-3.17542648054294E+000));
#309=DIRECTION('DIR22',(6.12303176911189E-017,1.0E+000,
   1.83690953073357E-016));
#310=VECTOR('VEC6',#309,1.0E+000);
#311=LINE('STRAIGHT6',#308,#310);
#312=EDGE_CURVE('EDGE34',#307,#98,#311,.T.);
#313=ORIENTED_EDGE('COEDGE52',*,*,#312,.F.);
#314=CARTESIAN_POINT('POINT25',(-1.375E+000,3.53281150643692E-016,
   -2.3815698604072E+000));
#315=VERTEX_POINT('VERTEX25',#314);
#316=(BOUNDED_CURVE() B_SPLINE_CURVE(2,(#317,#318,#319),.UNSPECIFIED.,
   .F.,.F.) B_SPLINE_CURVE_WITH_KNOTS((3,3),(0.0E+000,
   1.61070172663193E+000),.UNSPECIFIED.) CURVE() 
   GEOMETRIC_REPRESENTATION_ITEM() RATIONAL_B_SPLINE_CURVE((1.0E+000,
   1.03795484930206E+000,1.0E+000)) REPRESENTATION_ITEM('SPLINE_CRV21'))
   ;
#317=CARTESIAN_POINT('',(5.46671406862097E-015,2.45620093061864E-001,
   -3.17542648054294E+000));
#318=CARTESIAN_POINT('',(-7.36860279185583E-001,2.94902990916057E-016,
   -2.75E+000));
#319=CARTESIAN_POINT('',(-1.375E+000,3.53281150643692E-016,
   -2.3815698604072E+000));
#320=EDGE_CURVE('EDGE35',#307,#315,#316,.T.);
#321=ORIENTED_EDGE('COEDGE53',*,*,#320,.T.);
#322=(BOUNDED_CURVE() B_SPLINE_CURVE(2,(#323,#324,#325),.UNSPECIFIED.,
   .F.,.F.) B_SPLINE_CURVE_WITH_KNOTS((3,3),(1.61070172663193E+000,
   3.22140345326385E+000),.UNSPECIFIED.) CURVE() 
   GEOMETRIC_REPRESENTATION_ITEM() RATIONAL_B_SPLINE_CURVE((1.0E+000,
   1.03795484930207E+000,1.0E+000)) REPRESENTATION_ITEM('SPLINE_CRV22'))
   ;
#323=CARTESIAN_POINT('',(-1.375E+000,3.53281150643692E-016,
   -2.3815698604072E+000));
#324=CARTESIAN_POINT('',(-2.01313972081442E+000,1.54390389361936E-016,
   -2.01313972081441E+000));
#325=CARTESIAN_POINT('',(-2.75E+000,2.45620093061864E-001,
   -1.58771324027147E+000));
#326=EDGE_CURVE('EDGE36',#315,#169,#322,.T.);
#327=ORIENTED_EDGE('COEDGE54',*,*,#326,.T.);
#328=ORIENTED_EDGE('COEDGE55',*,*,#174,.T.);
#329=ORIENTED_EDGE('COEDGE56',*,*,#84,.T.);
#330=EDGE_LOOP('NONE',(#305,#313,#321,#327,#328,#329));
#331=FACE_BOUND('LOOP1',#330,.T.);
#332=CARTESIAN_POINT('POS15',(-2.75E+000,4.6003193196323E-016,
   -1.58771324027147E+000));
#333=DIRECTION('DIR23',(-5.0E-001,1.89696190652461E-016,
   -8.66025403784439E-001));
#334=DIRECTION('DIR24',(8.66025403784439E-001,1.09521146737445E-016,
   -5.0E-001));
#335=AXIS2_PLACEMENT_3D('AXIS9',#332,#333,#334);
#336=PLANE('PLANE6',#335);
#337=ADVANCED_FACE('FACE12',(#331),#336,.T.);
#338=ORIENTED_EDGE('COEDGE57',*,*,#130,.T.);
#339=ORIENTED_EDGE('COEDGE58',*,*,#294,.F.);
#340=CARTESIAN_POINT('POINT26',(1.375E+000,5.21664524294269E-016,
   -2.38156986040721E+000));
#341=VERTEX_POINT('VERTEX26',#340);
#342=(BOUNDED_CURVE() B_SPLINE_CURVE(2,(#343,#344,#345),.UNSPECIFIED.,
   .F.,.F.) B_SPLINE_CURVE_WITH_KNOTS((3,3),(0.0E+000,
   1.61070172663192E+000),.UNSPECIFIED.) CURVE() 
   GEOMETRIC_REPRESENTATION_ITEM() RATIONAL_B_SPLINE_CURVE((1.0E+000,
   1.03795484930204E+000,1.0E+000)) REPRESENTATION_ITEM('SPLINE_CRV23'))
   ;
#343=CARTESIAN_POINT('',(2.75E+000,2.45620093061864E-001,
   -1.58771324027147E+000));
#344=CARTESIAN_POINT('',(2.01313972081442E+000,2.86229373536173E-016,
   -2.01313972081441E+000));
#345=CARTESIAN_POINT('',(1.375E+000,5.21664524294269E-016,
   -2.38156986040721E+000));
#346=EDGE_CURVE('EDGE37',#283,#341,#342,.T.);
#347=ORIENTED_EDGE('COEDGE59',*,*,#346,.T.);
#348=(BOUNDED_CURVE() B_SPLINE_CURVE(2,(#349,#350,#351),.UNSPECIFIED.,
   .F.,.F.) B_SPLINE_CURVE_WITH_KNOTS((3,3),(1.61070172663192E+000,
   3.22140345326385E+000),.UNSPECIFIED.) CURVE() 
   GEOMETRIC_REPRESENTATION_ITEM() RATIONAL_B_SPLINE_CURVE((1.0E+000,
   1.03795484930203E+000,1.0E+000)) REPRESENTATION_ITEM('SPLINE_CRV24'))
   ;
#349=CARTESIAN_POINT('',(1.375E+000,5.21664524294269E-016,
   -2.38156986040721E+000));
#350=CARTESIAN_POINT('',(7.36860279185585E-001,1.38777878078145E-017,
   -2.75E+000));
#351=CARTESIAN_POINT('',(-4.52872692370181E-015,2.45620093061864E-001,
   -3.17542648054294E+000));
#352=EDGE_CURVE('EDGE38',#341,#307,#348,.T.);
#353=ORIENTED_EDGE('COEDGE60',*,*,#352,.T.);
#354=ORIENTED_EDGE('COEDGE61',*,*,#312,.T.);
#355=ORIENTED_EDGE('COEDGE62',*,*,#105,.T.);
#356=EDGE_LOOP('NONE',(#338,#339,#347,#353,#354,#355));
#357=FACE_BOUND('LOOP1',#356,.T.);
#358=CARTESIAN_POINT('POS16',(-1.94432372208436E-016,
   5.83297116625307E-016,-3.17542648054294E+000));
#359=DIRECTION('DIR25',(5.0E-001,1.28465872961343E-016,
   -8.66025403784439E-001));
#360=DIRECTION('DIR26',(8.66025403784439E-001,-7.41698063359114E-017,
   5.0E-001));
#361=AXIS2_PLACEMENT_3D('AXIS10',#358,#359,#360);
#362=PLANE('PLANE7',#361);
#363=ADVANCED_FACE('FACE13',(#357),#362,.T.);
#364=CARTESIAN_POINT('POINT27',(1.2295E+000,2.1295E+000,
   4.4627717049172E-016));
#365=VERTEX_POINT('VERTEX27',#364);
#366=CARTESIAN_POINT('POS17',(1.36475E+000,2.26475E+000,
   4.99742616143543E-016));
#367=DIRECTION('DIR27',(7.07106781186548E-001,7.07106781186547E-001,
   1.73270698676163E-016));
#368=VECTOR('VEC7',#367,1.0E+000);
#369=LINE('STRAIGHT7',#366,#368);
#370=EDGE_CURVE('EDGE39',#365,#140,#369,.T.);
#371=ORIENTED_EDGE('COEDGE63',*,*,#370,.T.);
#372=ORIENTED_EDGE('COEDGE64',*,*,#146,.F.);
#373=CARTESIAN_POINT('POINT28',(-1.2295E+000,2.1295E+000,
   3.15739052662899E-016));
#374=VERTEX_POINT('VERTEX28',#373);
#375=CARTESIAN_POINT('POS18',(-1.36475E+000,2.26475E+000,
   3.32285555802226E-016));
#376=DIRECTION('DIR28',(7.07106781186548E-001,-7.07106781186547E-001,
   -8.65075384454176E-017));
#377=VECTOR('VEC8',#376,1.0E+000);
#378=LINE('STRAIGHT8',#375,#377);
#379=EDGE_CURVE('EDGE40',#138,#374,#378,.T.);
#380=ORIENTED_EDGE('COEDGE65',*,*,#379,.T.);
#381=CARTESIAN_POINT('POS19',(-1.30389961523238E-016,2.1295E+000,
   3.91169884569713E-016));
#382=DIRECTION('DIR29',(-6.12303176911189E-017,1.0E+000,
   1.83690953073357E-016));
#383=DIRECTION('DIR30',(1.0E+000,6.12303176911189E-017,
   -6.11098164259027E-017));
#384=AXIS2_PLACEMENT_3D('AXIS11',#381,#382,#383);
#385=CIRCLE('ELLIPSE3',#384,1.2295E+000);
#386=EDGE_CURVE('EDGE41',#365,#374,#385,.T.);
#387=ORIENTED_EDGE('COEDGE66',*,*,#386,.F.);
#388=EDGE_LOOP('NONE',(#371,#372,#380,#387));
#389=FACE_BOUND('LOOP1',#388,.T.);
#390=CARTESIAN_POINT('POS20',(-1.38671361990961E-016,2.26475E+000,
   4.16014085972884E-016));
#391=DIRECTION('DIR31',(-6.12303176911189E-017,1.0E+000,
   1.83690953073357E-016));
#392=DIRECTION('DIR32',(1.0E+000,6.12303176911189E-017,
   -6.11098164259027E-017));
#393=AXIS2_PLACEMENT_3D('AXIS12',#390,#391,#392);
#394=CONICAL_SURFACE('CONE_SURF2',#393,1.36475E+000,
   7.85398163397449E-001);
#395=ADVANCED_FACE('FACE14',(#389),#394,.F.);
#396=ORIENTED_EDGE('COEDGE67',*,*,#370,.F.);
#397=EDGE_CURVE('EDGE42',#374,#365,#385,.T.);
#398=ORIENTED_EDGE('COEDGE68',*,*,#397,.F.);
#399=ORIENTED_EDGE('COEDGE69',*,*,#379,.F.);
#400=ORIENTED_EDGE('COEDGE70',*,*,#148,.F.);
#401=EDGE_LOOP('NONE',(#396,#398,#399,#400));
#402=FACE_BOUND('LOOP1',#401,.T.);
#403=ADVANCED_FACE('FACE15',(#402),#394,.F.);
#404=ORIENTED_EDGE('COEDGE71',*,*,#182,.F.);
#405=ORIENTED_EDGE('COEDGE72',*,*,#326,.F.);
#406=CARTESIAN_POINT('POS21',(0.0E+000,0.0E+000,0.0E+000));
#407=DIRECTION('DIR33',(6.12303176911189E-017,-1.0E+000,
   -1.83690953073357E-016));
#408=DIRECTION('DIR34',(-1.0E+000,-6.12303176911189E-017,
   6.12303176911188E-017));
#409=AXIS2_PLACEMENT_3D('AXIS13',#406,#407,#408);
#410=CIRCLE('ELLIPSE4',#409,2.75E+000);
#411=EDGE_CURVE('EDGE43',#177,#315,#410,.T.);
#412=ORIENTED_EDGE('COEDGE73',*,*,#411,.F.);
#413=EDGE_LOOP('NONE',(#404,#405,#412));
#414=FACE_BOUND('LOOP1',#413,.T.);
#415=CARTESIAN_POINT('POS22',(-7.51969816475002E-018,
   1.22810046530931E-001,2.25590944942501E-017));
#416=DIRECTION('DIR35',(-6.12303176911189E-017,1.0E+000,
   1.83690953073357E-016));
#417=DIRECTION('DIR36',(-1.0E+000,-6.12303176911189E-017,
   6.12303176911188E-017));
#418=AXIS2_PLACEMENT_3D('AXIS14',#415,#416,#417);
#419=CONICAL_SURFACE('CONE_SURF3',#418,2.96271324027147E+000,
   1.0471975511966E+000);
#420=ADVANCED_FACE('FACE16',(#414),#419,.T.);
#421=ORIENTED_EDGE('COEDGE74',*,*,#215,.F.);
#422=ORIENTED_EDGE('COEDGE75',*,*,#190,.F.);
#423=EDGE_CURVE('EDGE44',#210,#177,#410,.T.);
#424=ORIENTED_EDGE('COEDGE76',*,*,#423,.F.);
#425=EDGE_LOOP('NONE',(#421,#422,#424));
#426=FACE_BOUND('LOOP1',#425,.T.);
#427=ADVANCED_FACE('FACE17',(#426),#419,.T.);
#428=ORIENTED_EDGE('COEDGE77',*,*,#223,.F.);
#429=EDGE_CURVE('EDGE45',#243,#210,#410,.T.);
#430=ORIENTED_EDGE('COEDGE78',*,*,#429,.F.);
#431=ORIENTED_EDGE('COEDGE79',*,*,#248,.F.);
#432=EDGE_LOOP('NONE',(#428,#430,#431));
#433=FACE_BOUND('LOOP1',#432,.T.);
#434=ADVANCED_FACE('FACE18',(#433),#419,.T.);
#435=ORIENTED_EDGE('COEDGE80',*,*,#256,.F.);
#436=EDGE_CURVE('EDGE46',#275,#243,#410,.T.);
#437=ORIENTED_EDGE('COEDGE81',*,*,#436,.F.);
#438=ORIENTED_EDGE('COEDGE82',*,*,#280,.F.);
#439=EDGE_LOOP('NONE',(#435,#437,#438));
#440=FACE_BOUND('LOOP1',#439,.T.);
#441=ADVANCED_FACE('FACE19',(#440),#419,.T.);
#442=ORIENTED_EDGE('COEDGE83',*,*,#288,.F.);
#443=EDGE_CURVE('EDGE47',#341,#275,#410,.T.);
#444=ORIENTED_EDGE('COEDGE84',*,*,#443,.F.);
#445=ORIENTED_EDGE('COEDGE85',*,*,#346,.F.);
#446=EDGE_LOOP('NONE',(#442,#444,#445));
#447=FACE_BOUND('LOOP1',#446,.T.);
#448=ADVANCED_FACE('FACE20',(#447),#419,.T.);
#449=ORIENTED_EDGE('COEDGE86',*,*,#352,.F.);
#450=EDGE_CURVE('EDGE48',#315,#341,#410,.T.);
#451=ORIENTED_EDGE('COEDGE87',*,*,#450,.F.);
#452=ORIENTED_EDGE('COEDGE88',*,*,#320,.F.);
#453=EDGE_LOOP('NONE',(#449,#451,#452));
#454=FACE_BOUND('LOOP1',#453,.T.);
#455=ADVANCED_FACE('FACE21',(#454),#419,.T.);
#456=CARTESIAN_POINT('POINT29',(1.2295E+000,2.705E-001,
   -9.03147185943994E-018));
#457=VERTEX_POINT('VERTEX29',#456);
#458=CARTESIAN_POINT('POS23',(1.2295E+000,1.2E+000,2.95859975594842E-016
   ));
#459=DIRECTION('DIR37',(-6.12303176911189E-017,1.0E+000,
   1.83690953073357E-016));
#460=VECTOR('VEC9',#459,1.0E+000);
#461=LINE('STRAIGHT9',#458,#460);
#462=EDGE_CURVE('EDGE49',#457,#365,#461,.T.);
#463=ORIENTED_EDGE('COEDGE89',*,*,#462,.T.);
#464=ORIENTED_EDGE('COEDGE90',*,*,#386,.T.);
#465=CARTESIAN_POINT('POINT30',(-1.2295E+000,2.705E-001,
   -2.57424291004709E-017));
#466=VERTEX_POINT('VERTEX30',#465);
#467=CARTESIAN_POINT('POS24',(-1.2295E+000,1.2E+000,
   1.44998311781214E-016));
#468=DIRECTION('DIR38',(6.12303176911189E-017,-1.0E+000,
   -1.83690953073357E-016));
#469=VECTOR('VEC10',#468,1.0E+000);
#470=LINE('STRAIGHT10',#467,#469);
#471=EDGE_CURVE('EDGE50',#374,#466,#470,.T.);
#472=ORIENTED_EDGE('COEDGE91',*,*,#471,.T.);
#473=CARTESIAN_POINT('POS25',(-1.65628009354477E-017,2.705E-001,
   4.9688402806343E-017));
#474=DIRECTION('DIR39',(-6.12303176911189E-017,1.0E+000,
   1.83690953073357E-016));
#475=DIRECTION('DIR40',(1.0E+000,6.12303176911189E-017,
   -6.11098164259027E-017));
#476=AXIS2_PLACEMENT_3D('AXIS15',#473,#474,#475);
#477=CIRCLE('ELLIPSE5',#476,1.2295E+000);
#478=EDGE_CURVE('EDGE51',#457,#466,#477,.T.);
#479=ORIENTED_EDGE('COEDGE92',*,*,#478,.F.);
#480=EDGE_LOOP('NONE',(#463,#464,#472,#479));
#481=FACE_BOUND('LOOP1',#480,.T.);
#482=CARTESIAN_POINT('POS26',(-7.34763812293426E-017,1.2E+000,
   2.20429143688028E-016));
#483=DIRECTION('DIR41',(-6.12303176911189E-017,1.0E+000,
   1.83690953073357E-016));
#484=DIRECTION('DIR42',(1.0E+000,6.12303176911189E-017,
   -6.11098164259027E-017));
#485=AXIS2_PLACEMENT_3D('AXIS16',#482,#483,#484);
#486=CYLINDRICAL_SURFACE('CONE_SURF4',#485,1.2295E+000);
#487=ADVANCED_FACE('FACE22',(#481),#486,.F.);
#488=ORIENTED_EDGE('COEDGE93',*,*,#462,.F.);
#489=EDGE_CURVE('EDGE52',#466,#457,#477,.T.);
#490=ORIENTED_EDGE('COEDGE94',*,*,#489,.F.);
#491=ORIENTED_EDGE('COEDGE95',*,*,#471,.F.);
#492=ORIENTED_EDGE('COEDGE96',*,*,#397,.T.);
#493=EDGE_LOOP('NONE',(#488,#490,#491,#492));
#494=FACE_BOUND('LOOP1',#493,.T.);
#495=ADVANCED_FACE('FACE23',(#494),#486,.F.);
#496=CARTESIAN_POINT('POINT31',(-1.5E+000,-9.18454765366783E-017,
   9.18454765366782E-017));
#497=VERTEX_POINT('VERTEX31',#496);
#498=CARTESIAN_POINT('POINT32',(1.5E+000,-9.18454765366783E-017,
   9.20262284345025E-017));
#499=VERTEX_POINT('VERTEX32',#498);
#500=CARTESIAN_POINT('POS27',(0.0E+000,0.0E+000,0.0E+000));
#501=DIRECTION('DIR43',(-6.12303176911189E-017,1.0E+000,
   1.83690953073357E-016));
#502=DIRECTION('DIR44',(-1.0E+000,-6.12303176911189E-017,
   6.12303176911188E-017));
#503=AXIS2_PLACEMENT_3D('AXIS17',#500,#501,#502);
#504=CIRCLE('ELLIPSE6',#503,1.5E+000);
#505=EDGE_CURVE('EDGE53',#497,#499,#504,.T.);
#506=ORIENTED_EDGE('COEDGE97',*,*,#505,.T.);
#507=EDGE_CURVE('EDGE54',#499,#497,#504,.T.);
#508=ORIENTED_EDGE('COEDGE98',*,*,#507,.T.);
#509=EDGE_LOOP('NONE',(#506,#508));
#510=FACE_BOUND('LOOP1',#509,.T.);
#511=ORIENTED_EDGE('COEDGE99',*,*,#450,.T.);
#512=ORIENTED_EDGE('COEDGE100',*,*,#443,.T.);
#513=ORIENTED_EDGE('COEDGE101',*,*,#436,.T.);
#514=ORIENTED_EDGE('COEDGE102',*,*,#429,.T.);
#515=ORIENTED_EDGE('COEDGE103',*,*,#423,.T.);
#516=ORIENTED_EDGE('COEDGE104',*,*,#411,.T.);
#517=EDGE_LOOP('NONE',(#511,#512,#513,#514,#515,#516));
#518=FACE_BOUND('LOOP1',#517,.T.);
#519=CARTESIAN_POINT('POS28',(5.55111512312579E-017,
   -2.07336890942669E-031,1.11022302462516E-015));
#520=DIRECTION('DIR45',(6.12303176911189E-017,1.0E+000,
   1.83690953073357E-016));
#521=DIRECTION('DIR46',(1.0E+000,-6.12303176911189E-017,
   -1.1247455413666E-032));
#522=AXIS2_PLACEMENT_3D('AXIS18',#519,#520,#521);
#523=PLANE('PLANE8',#522);
#524=ADVANCED_FACE('FACE24',(#510,#518),#523,.F.);
#525=CARTESIAN_POINT('POS29',(1.36475E+000,1.3525E-001,
   1.0857273157383E-016));
#526=DIRECTION('DIR47',(-7.07106781186548E-001,7.07106781186547E-001,
   8.65075384454176E-017));
#527=VECTOR('VEC11',#526,1.0E+000);
#528=LINE('STRAIGHT11',#525,#527);
#529=EDGE_CURVE('EDGE55',#499,#457,#528,.T.);
#530=ORIENTED_EDGE('COEDGE105',*,*,#529,.T.);
#531=ORIENTED_EDGE('COEDGE106',*,*,#478,.T.);
#532=CARTESIAN_POINT('POS30',(-1.36475E+000,1.3525E-001,
   -5.88843287674867E-017));
#533=DIRECTION('DIR48',(-7.07106781186547E-001,-7.07106781186548E-001,
   -1.73270698676163E-016));
#534=VECTOR('VEC12',#533,1.0E+000);
#535=LINE('STRAIGHT12',#532,#534);
#536=EDGE_CURVE('EDGE56',#466,#497,#535,.T.);
#537=ORIENTED_EDGE('COEDGE107',*,*,#536,.T.);
#538=ORIENTED_EDGE('COEDGE108',*,*,#507,.F.);
#539=EDGE_LOOP('NONE',(#530,#531,#537,#538));
#540=FACE_BOUND('LOOP1',#539,.T.);
#541=CARTESIAN_POINT('POS31',(-8.28140046772383E-018,1.3525E-001,
   2.48442014031715E-017));
#542=DIRECTION('DIR49',(6.12303176911189E-017,-1.0E+000,
   -1.83690953073357E-016));
#543=DIRECTION('DIR50',(1.0E+000,6.12303176911189E-017,
   -6.11098164259027E-017));
#544=AXIS2_PLACEMENT_3D('AXIS19',#541,#542,#543);
#545=CONICAL_SURFACE('CONE_SURF5',#544,1.36475E+000,
   7.85398163397448E-001);
#546=ADVANCED_FACE('FACE25',(#540),#545,.F.);
#547=ORIENTED_EDGE('COEDGE109',*,*,#529,.F.);
#548=ORIENTED_EDGE('COEDGE110',*,*,#505,.F.);
#549=ORIENTED_EDGE('COEDGE111',*,*,#536,.F.);
#550=ORIENTED_EDGE('COEDGE112',*,*,#489,.T.);
#551=EDGE_LOOP('NONE',(#547,#548,#549,#550));
#552=FACE_BOUND('LOOP1',#551,.T.);
#553=ADVANCED_FACE('FACE26',(#552),#545,.F.);
#554=CLOSED_SHELL('SHELL1',(#33,#54,#75,#96,#117,#136,#165,#205,#238,
   #271,#304,#337,#363,#395,#403,#420,#427,#434,#441,#448,#455,#487,#495
   ,#524,#546,#553));
#555=MANIFOLD_SOLID_BREP('LUMP1',#554);
#556=ADVANCED_BREP_SHAPE_REPRESENTATION('BODY0',(#555),#557);
#557=(GEOMETRIC_REPRESENTATION_CONTEXT(3) 
   GLOBAL_UNCERTAINTY_ASSIGNED_CONTEXT((#558)) 
   GLOBAL_UNIT_ASSIGNED_CONTEXT((#559,#560,#561)) REPRESENTATION_CONTEXT
   ('',''));
#558=UNCERTAINTY_MEASURE_WITH_UNIT(LENGTH_MEASURE(1.0E-006),#559,'','');
#559=(LENGTH_UNIT() NAMED_UNIT(*) SI_UNIT(.MILLI.,.METRE.));
#560=(NAMED_UNIT(*) PLANE_ANGLE_UNIT() SI_UNIT($,.RADIAN.));
#561=(NAMED_UNIT(*) SI_UNIT($,.STERADIAN.) SOLID_ANGLE_UNIT());
#562=APPLICATION_CONTEXT(
   'CONFIGURATION CONTROLLED 3D DESIGNS OF MECHANICAL PARTS AND 
ASSEMBLIES');
#563=APPLICATION_PROTOCOL_DEFINITION('INTERNATIONAL STANDARD',
   'config_control_design',1994,#562);
#564=MECHANICAL_CONTEXT('MECHANICAL_CONTEXT_NAME',#562,'mechanical');
#565=PRODUCT('PRODUCT_ID_1','PRODUCT_NAME_1','PRODUCT_DESCRIPTION',(#564
   ));
#566=PRODUCT_RELATED_PRODUCT_CATEGORY('detail',
   'PRODUCT_RELATED_PRODUCT_CATEGORY_DESCRIPTION',(#565));
#567=PERSON_AND_ORGANIZATION_ROLE('design_owner');
#568=PERSON('ID_1','PERSON_LAST_NAME','PERSON_FIRST_NAME',$,$,$);
#569=ORGANIZATION('ORGANIZATION_ID','ORGANIZATION_NAME',
   'ORGANIZATION_DESCRIPTION');
#570=PERSON_AND_ORGANIZATION(#568,#569);
#571=PRODUCT_DEFINITION_FORMATION_WITH_SPECIFIED_SOURCE(
   'PRODUCT_DEFINITION_FORMATION_ID',
   'PRODUCT_DEFINITION_FORMATION_DESCRIPTION',#565,.NOT_KNOWN.);
#572=PERSON_AND_ORGANIZATION_ROLE('creator');
#573=PERSON('ID_2','PERSON_LAST_NAME','PERSON_FIRST_NAME',$,$,$);
#574=ORGANIZATION('ORGANIZATION_ID','ORGANIZATION_NAME',
   'ORGANIZATION_DESCRIPTION');
#575=PERSON_AND_ORGANIZATION(#573,#574);
#576=PERSON_AND_ORGANIZATION_ROLE('part_supplier');
#577=PERSON('ID_3','PERSON_LAST_NAME','PERSON_FIRST_NAME',$,$,$);
#578=ORGANIZATION('ORGANIZATION_ID','ORGANIZATION_NAME',
   'ORGANIZATION_DESCRIPTION');
#579=PERSON_AND_ORGANIZATION(#577,#578);
#580=APPROVAL_STATUS('approved');
#581=APPROVAL(#580,'APPROVAL_LEVEL');
#582=APPROVAL_ROLE('APPROVAL_ROLE');
#583=APPROVAL_PERSON_ORGANIZATION(#586,#581,#582);
#584=PERSON('ID_4','PERSON_LAST_NAME','PERSON_FIRST_NAME',$,$,$);
#585=ORGANIZATION('ORGANIZATION_ID','ORGANIZATION_NAME',
   'ORGANIZATION_DESCRIPTION');
#586=PERSON_AND_ORGANIZATION(#584,#585);
#587=APPROVAL_DATE_TIME(#591,#581);
#588=CALENDAR_DATE(1997,1,1);
#589=COORDINATED_UNIVERSAL_TIME_OFFSET(0,0,.AHEAD.);
#590=LOCAL_TIME(0,0,0.0E+000,#589);
#591=DATE_AND_TIME(#588,#590);
#592=SECURITY_CLASSIFICATION_LEVEL('classified');
#593=SECURITY_CLASSIFICATION('SECURITY_CLASSIFICATION_NAME',
   'SECURITY_CLASSIFICATION_PURPOSE',#592);
#594=APPROVAL_STATUS('approved');
#595=APPROVAL(#594,'APPROVAL_LEVEL');
#596=APPROVAL_ROLE('APPROVAL_ROLE');
#597=APPROVAL_PERSON_ORGANIZATION(#600,#595,#596);
#598=PERSON('ID_5','PERSON_LAST_NAME','PERSON_FIRST_NAME',$,$,$);
#599=ORGANIZATION('ORGANIZATION_ID','ORGANIZATION_NAME',
   'ORGANIZATION_DESCRIPTION');
#600=PERSON_AND_ORGANIZATION(#598,#599);
#601=APPROVAL_DATE_TIME(#605,#595);
#602=CALENDAR_DATE(1997,1,1);
#603=COORDINATED_UNIVERSAL_TIME_OFFSET(0,0,.AHEAD.);
#604=LOCAL_TIME(0,0,0.0E+000,#603);
#605=DATE_AND_TIME(#602,#604);
#606=PERSON_AND_ORGANIZATION_ROLE('classification_officer');
#607=PERSON('ID_6','PERSON_LAST_NAME','PERSON_FIRST_NAME',$,$,$);
#608=ORGANIZATION('ORGANIZATION_ID','ORGANIZATION_NAME',
   'ORGANIZATION_DESCRIPTION');
#609=PERSON_AND_ORGANIZATION(#607,#608);
#610=DATE_TIME_ROLE('classification_date');
#611=CALENDAR_DATE(1997,1,1);
#612=COORDINATED_UNIVERSAL_TIME_OFFSET(0,0,.AHEAD.);
#613=LOCAL_TIME(0,0,0.0E+000,#612);
#614=DATE_AND_TIME(#611,#613);
#615=DESIGN_CONTEXT('DESIGN_CONTEXT_NAME',#562,'design');
#616=PRODUCT_DEFINITION('PRODUCT_DEFINITION_ID',
   'PRODUCT_DEFINITION_DESCRIPTION',#571,#615);
#617=PERSON_AND_ORGANIZATION_ROLE('creator');
#618=PERSON('ID_7','PERSON_LAST_NAME','PERSON_FIRST_NAME',$,$,$);
#619=ORGANIZATION('ORGANIZATION_ID','ORGANIZATION_NAME',
   'ORGANIZATION_DESCRIPTION');
#620=PERSON_AND_ORGANIZATION(#618,#619);
#621=DATE_TIME_ROLE('creation_date');
#622=CALENDAR_DATE(1997,1,1);
#623=COORDINATED_UNIVERSAL_TIME_OFFSET(0,0,.AHEAD.);
#624=LOCAL_TIME(0,0,0.0E+000,#623);
#625=DATE_AND_TIME(#622,#624);
#626=APPROVAL_STATUS('approved');
#627=APPROVAL(#626,'APPROVAL_LEVEL');
#628=APPROVAL_ROLE('APPROVAL_ROLE');
#629=APPROVAL_PERSON_ORGANIZATION(#632,#627,#628);
#630=PERSON('ID_8','PERSON_LAST_NAME','PERSON_FIRST_NAME',$,$,$);
#631=ORGANIZATION('ORGANIZATION_ID','ORGANIZATION_NAME',
   'ORGANIZATION_DESCRIPTION');
#632=PERSON_AND_ORGANIZATION(#630,#631);
#633=APPROVAL_DATE_TIME(#637,#627);
#634=CALENDAR_DATE(1997,1,1);
#635=COORDINATED_UNIVERSAL_TIME_OFFSET(0,0,.AHEAD.);
#636=LOCAL_TIME(0,0,0.0E+000,#635);
#637=DATE_AND_TIME(#634,#636);
#638=PRODUCT_DEFINITION_SHAPE('PRODUCT_DEFINITION_SHAPE_NAME',
   'PRODUCT_DEFINITION_SHAPE_DESCRIPTION',#616);
#639=SHAPE_DEFINITION_REPRESENTATION(#638,#556);
#640=STYLED_ITEM('',(#641),#555);
#641=PRESENTATION_STYLE_ASSIGNMENT((#643));
#642=COLOUR_RGB('',5.09803921568627E-001,5.09803921568627E-001,
   5.88235294117647E-001);
#643=SURFACE_STYLE_USAGE(.BOTH.,#644);
#644=SURFACE_SIDE_STYLE('',(#645));
#645=SURFACE_STYLE_FILL_AREA(#646);
#646=FILL_AREA_STYLE('',(#647));
#647=FILL_AREA_STYLE_COLOUR('',#642);
#648=STYLED_ITEM('',(#649),#33);
#649=PRESENTATION_STYLE_ASSIGNMENT((#651));
#650=COLOUR_RGB('',5.09803921568627E-001,5.09803921568627E-001,
   5.88235294117647E-001);
#651=SURFACE_STYLE_USAGE(.BOTH.,#652);
#652=SURFACE_SIDE_STYLE('',(#653));
#653=SURFACE_STYLE_FILL_AREA(#654);
#654=FILL_AREA_STYLE('',(#655));
#655=FILL_AREA_STYLE_COLOUR('',#650);
#656=STYLED_ITEM('',(#657),#54);
#657=PRESENTATION_STYLE_ASSIGNMENT((#659));
#658=COLOUR_RGB('',5.09803921568627E-001,5.09803921568627E-001,
   5.88235294117647E-001);
#659=SURFACE_STYLE_USAGE(.BOTH.,#660);
#660=SURFACE_SIDE_STYLE('',(#661));
#661=SURFACE_STYLE_FILL_AREA(#662);
#662=FILL_AREA_STYLE('',(#663));
#663=FILL_AREA_STYLE_COLOUR('',#658);
#664=STYLED_ITEM('',(#665),#75);
#665=PRESENTATION_STYLE_ASSIGNMENT((#667));
#666=COLOUR_RGB('',5.09803921568627E-001,5.09803921568627E-001,
   5.88235294117647E-001);
#667=SURFACE_STYLE_USAGE(.BOTH.,#668);
#668=SURFACE_SIDE_STYLE('',(#669));
#669=SURFACE_STYLE_FILL_AREA(#670);
#670=FILL_AREA_STYLE('',(#671));
#671=FILL_AREA_STYLE_COLOUR('',#666);
#672=STYLED_ITEM('',(#673),#96);
#673=PRESENTATION_STYLE_ASSIGNMENT((#675));
#674=COLOUR_RGB('',5.09803921568627E-001,5.09803921568627E-001,
   5.88235294117647E-001);
#675=SURFACE_STYLE_USAGE(.BOTH.,#676);
#676=SURFACE_SIDE_STYLE('',(#677));
#677=SURFACE_STYLE_FILL_AREA(#678);
#678=FILL_AREA_STYLE('',(#679));
#679=FILL_AREA_STYLE_COLOUR('',#674);
#680=STYLED_ITEM('',(#681),#117);
#681=PRESENTATION_STYLE_ASSIGNMENT((#683));
#682=COLOUR_RGB('',5.09803921568627E-001,5.09803921568627E-001,
   5.88235294117647E-001);
#683=SURFACE_STYLE_USAGE(.BOTH.,#684);
#684=SURFACE_SIDE_STYLE('',(#685));
#685=SURFACE_STYLE_FILL_AREA(#686);
#686=FILL_AREA_STYLE('',(#687));
#687=FILL_AREA_STYLE_COLOUR('',#682);
#688=STYLED_ITEM('',(#689),#136);
#689=PRESENTATION_STYLE_ASSIGNMENT((#691));
#690=COLOUR_RGB('',5.09803921568627E-001,5.09803921568627E-001,
   5.88235294117647E-001);
#691=SURFACE_STYLE_USAGE(.BOTH.,#692);
#692=SURFACE_SIDE_STYLE('',(#693));
#693=SURFACE_STYLE_FILL_AREA(#694);
#694=FILL_AREA_STYLE('',(#695));
#695=FILL_AREA_STYLE_COLOUR('',#690);
#696=STYLED_ITEM('',(#697),#165);
#697=PRESENTATION_STYLE_ASSIGNMENT((#699));
#698=COLOUR_RGB('',5.09803921568627E-001,5.09803921568627E-001,
   5.88235294117647E-001);
#699=SURFACE_STYLE_USAGE(.BOTH.,#700);
#700=SURFACE_SIDE_STYLE('',(#701));
#701=SURFACE_STYLE_FILL_AREA(#702);
#702=FILL_AREA_STYLE('',(#703));
#703=FILL_AREA_STYLE_COLOUR('',#698);
#704=STYLED_ITEM('',(#705),#205);
#705=PRESENTATION_STYLE_ASSIGNMENT((#707));
#706=COLOUR_RGB('',5.09803921568627E-001,5.09803921568627E-001,
   5.88235294117647E-001);
#707=SURFACE_STYLE_USAGE(.BOTH.,#708);
#708=SURFACE_SIDE_STYLE('',(#709));
#709=SURFACE_STYLE_FILL_AREA(#710);
#710=FILL_AREA_STYLE('',(#711));
#711=FILL_AREA_STYLE_COLOUR('',#706);
#712=STYLED_ITEM('',(#713),#238);
#713=PRESENTATION_STYLE_ASSIGNMENT((#715));
#714=COLOUR_RGB('',5.09803921568627E-001,5.09803921568627E-001,
   5.88235294117647E-001);
#715=SURFACE_STYLE_USAGE(.BOTH.,#716);
#716=SURFACE_SIDE_STYLE('',(#717));
#717=SURFACE_STYLE_FILL_AREA(#718);
#718=FILL_AREA_STYLE('',(#719));
#719=FILL_AREA_STYLE_COLOUR('',#714);
#720=STYLED_ITEM('',(#721),#271);
#721=PRESENTATION_STYLE_ASSIGNMENT((#723));
#722=COLOUR_RGB('',5.09803921568627E-001,5.09803921568627E-001,
   5.88235294117647E-001);
#723=SURFACE_STYLE_USAGE(.BOTH.,#724);
#724=SURFACE_SIDE_STYLE('',(#725));
#725=SURFACE_STYLE_FILL_AREA(#726);
#726=FILL_AREA_STYLE('',(#727));
#727=FILL_AREA_STYLE_COLOUR('',#722);
#728=STYLED_ITEM('',(#729),#304);
#729=PRESENTATION_STYLE_ASSIGNMENT((#731));
#730=COLOUR_RGB('',5.09803921568627E-001,5.09803921568627E-001,
   5.88235294117647E-001);
#731=SURFACE_STYLE_USAGE(.BOTH.,#732);
#732=SURFACE_SIDE_STYLE('',(#733));
#733=SURFACE_STYLE_FILL_AREA(#734);
#734=FILL_AREA_STYLE('',(#735));
#735=FILL_AREA_STYLE_COLOUR('',#730);
#736=STYLED_ITEM('',(#737),#337);
#737=PRESENTATION_STYLE_ASSIGNMENT((#739));
#738=COLOUR_RGB('',5.09803921568627E-001,5.09803921568627E-001,
   5.88235294117647E-001);
#739=SURFACE_STYLE_USAGE(.BOTH.,#740);
#740=SURFACE_SIDE_STYLE('',(#741));
#741=SURFACE_STYLE_FILL_AREA(#742);
#742=FILL_AREA_STYLE('',(#743));
#743=FILL_AREA_STYLE_COLOUR('',#738);
#744=STYLED_ITEM('',(#745),#363);
#745=PRESENTATION_STYLE_ASSIGNMENT((#747));
#746=COLOUR_RGB('',5.09803921568627E-001,5.09803921568627E-001,
   5.88235294117647E-001);
#747=SURFACE_STYLE_USAGE(.BOTH.,#748);
#748=SURFACE_SIDE_STYLE('',(#749));
#749=SURFACE_STYLE_FILL_AREA(#750);
#750=FILL_AREA_STYLE('',(#751));
#751=FILL_AREA_STYLE_COLOUR('',#746);
#752=STYLED_ITEM('',(#753),#395);
#753=PRESENTATION_STYLE_ASSIGNMENT((#755));
#754=COLOUR_RGB('',1.0E+000,5.01960784313725E-001,2.50980392156863E-001)
   ;
#755=SURFACE_STYLE_USAGE(.BOTH.,#756);
#756=SURFACE_SIDE_STYLE('',(#757));
#757=SURFACE_STYLE_FILL_AREA(#758);
#758=FILL_AREA_STYLE('',(#759));
#759=FILL_AREA_STYLE_COLOUR('',#754);
#760=STYLED_ITEM('',(#761),#403);
#761=PRESENTATION_STYLE_ASSIGNMENT((#763));
#762=COLOUR_RGB('',1.0E+000,5.01960784313725E-001,2.50980392156863E-001)
   ;
#763=SURFACE_STYLE_USAGE(.BOTH.,#764);
#764=SURFACE_SIDE_STYLE('',(#765));
#765=SURFACE_STYLE_FILL_AREA(#766);
#766=FILL_AREA_STYLE('',(#767));
#767=FILL_AREA_STYLE_COLOUR('',#762);
#768=STYLED_ITEM('',(#769),#420);
#769=PRESENTATION_STYLE_ASSIGNMENT((#771));
#770=COLOUR_RGB('',5.09803921568627E-001,5.09803921568627E-001,
   5.88235294117647E-001);
#771=SURFACE_STYLE_USAGE(.BOTH.,#772);
#772=SURFACE_SIDE_STYLE('',(#773));
#773=SURFACE_STYLE_FILL_AREA(#774);
#774=FILL_AREA_STYLE('',(#775));
#775=FILL_AREA_STYLE_COLOUR('',#770);
#776=STYLED_ITEM('',(#777),#427);
#777=PRESENTATION_STYLE_ASSIGNMENT((#779));
#778=COLOUR_RGB('',5.09803921568627E-001,5.09803921568627E-001,
   5.88235294117647E-001);
#779=SURFACE_STYLE_USAGE(.BOTH.,#780);
#780=SURFACE_SIDE_STYLE('',(#781));
#781=SURFACE_STYLE_FILL_AREA(#782);
#782=FILL_AREA_STYLE('',(#783));
#783=FILL_AREA_STYLE_COLOUR('',#778);
#784=STYLED_ITEM('',(#785),#434);
#785=PRESENTATION_STYLE_ASSIGNMENT((#787));
#786=COLOUR_RGB('',5.09803921568627E-001,5.09803921568627E-001,
   5.88235294117647E-001);
#787=SURFACE_STYLE_USAGE(.BOTH.,#788);
#788=SURFACE_SIDE_STYLE('',(#789));
#789=SURFACE_STYLE_FILL_AREA(#790);
#790=FILL_AREA_STYLE('',(#791));
#791=FILL_AREA_STYLE_COLOUR('',#786);
#792=STYLED_ITEM('',(#793),#441);
#793=PRESENTATION_STYLE_ASSIGNMENT((#795));
#794=COLOUR_RGB('',5.09803921568627E-001,5.09803921568627E-001,
   5.88235294117647E-001);
#795=SURFACE_STYLE_USAGE(.BOTH.,#796);
#796=SURFACE_SIDE_STYLE('',(#797));
#797=SURFACE_STYLE_FILL_AREA(#798);
#798=FILL_AREA_STYLE('',(#799));
#799=FILL_AREA_STYLE_COLOUR('',#794);
#800=STYLED_ITEM('',(#801),#448);
#801=PRESENTATION_STYLE_ASSIGNMENT((#803));
#802=COLOUR_RGB('',5.09803921568627E-001,5.09803921568627E-001,
   5.88235294117647E-001);
#803=SURFACE_STYLE_USAGE(.BOTH.,#804);
#804=SURFACE_SIDE_STYLE('',(#805));
#805=SURFACE_STYLE_FILL_AREA(#806);
#806=FILL_AREA_STYLE('',(#807));
#807=FILL_AREA_STYLE_COLOUR('',#802);
#808=STYLED_ITEM('',(#809),#455);
#809=PRESENTATION_STYLE_ASSIGNMENT((#811));
#810=COLOUR_RGB('',5.09803921568627E-001,5.09803921568627E-001,
   5.88235294117647E-001);
#811=SURFACE_STYLE_USAGE(.BOTH.,#812);
#812=SURFACE_SIDE_STYLE('',(#813));
#813=SURFACE_STYLE_FILL_AREA(#814);
#814=FILL_AREA_STYLE('',(#815));
#815=FILL_AREA_STYLE_COLOUR('',#810);
#816=STYLED_ITEM('',(#817),#487);
#817=PRESENTATION_STYLE_ASSIGNMENT((#819));
#818=COLOUR_RGB('',1.0E+000,5.01960784313725E-001,2.50980392156863E-001)
   ;
#819=SURFACE_STYLE_USAGE(.BOTH.,#820);
#820=SURFACE_SIDE_STYLE('',(#821));
#821=SURFACE_STYLE_FILL_AREA(#822);
#822=FILL_AREA_STYLE('',(#823));
#823=FILL_AREA_STYLE_COLOUR('',#818);
#824=STYLED_ITEM('',(#825),#495);
#825=PRESENTATION_STYLE_ASSIGNMENT((#827));
#826=COLOUR_RGB('',1.0E+000,5.01960784313725E-001,2.50980392156863E-001)
   ;
#827=SURFACE_STYLE_USAGE(.BOTH.,#828);
#828=SURFACE_SIDE_STYLE('',(#829));
#829=SURFACE_STYLE_FILL_AREA(#830);
#830=FILL_AREA_STYLE('',(#831));
#831=FILL_AREA_STYLE_COLOUR('',#826);
#832=STYLED_ITEM('',(#833),#524);
#833=PRESENTATION_STYLE_ASSIGNMENT((#835));
#834=COLOUR_RGB('',5.09803921568627E-001,5.09803921568627E-001,
   5.88235294117647E-001);
#835=SURFACE_STYLE_USAGE(.BOTH.,#836);
#836=SURFACE_SIDE_STYLE('',(#837));
#837=SURFACE_STYLE_FILL_AREA(#838);
#838=FILL_AREA_STYLE('',(#839));
#839=FILL_AREA_STYLE_COLOUR('',#834);
#840=STYLED_ITEM('',(#841),#546);
#841=PRESENTATION_STYLE_ASSIGNMENT((#843));
#842=COLOUR_RGB('',1.0E+000,5.01960784313725E-001,2.50980392156863E-001)
   ;
#843=SURFACE_STYLE_USAGE(.BOTH.,#844);
#844=SURFACE_SIDE_STYLE('',(#845));
#845=SURFACE_STYLE_FILL_AREA(#846);
#846=FILL_AREA_STYLE('',(#847));
#847=FILL_AREA_STYLE_COLOUR('',#842);
#848=STYLED_ITEM('',(#849),#553);
#849=PRESENTATION_STYLE_ASSIGNMENT((#851));
#850=COLOUR_RGB('',1.0E+000,5.01960784313725E-001,2.50980392156863E-001)
   ;
#851=SURFACE_STYLE_USAGE(.BOTH.,#852);
#852=SURFACE_SIDE_STYLE('',(#853));
#853=SURFACE_STYLE_FILL_AREA(#854);
#854=FILL_AREA_STYLE('',(#855));
#855=FILL_AREA_STYLE_COLOUR('',#850);
#856=MECHANICAL_DESIGN_GEOMETRIC_PRESENTATION_REPRESENTATION($,(#640,
   #648,#656,#664,#672,#680,#688,#696,#704,#712,#720,#728,#736,#744,#752
   ,#760,#768,#776,#784,#792,#800,#808,#816,#824,#832,#840,#848),#557);
ENDSEC;
END-ISO-10303-21;
                
                  
               
                   
                    
     
                
