ISO-10303-21;
HEADER;
FILE_DESCRIPTION(('starvars output'),'2;1');
FILE_NAME('cv20200804165019000037574.stp','16:50:19   2020/08/04',(
   'Thomas Industrial Network Germany GmbH'),(
   'Thomas Industrial Network Germany GmbH'),'unknown preprocess','ACIS'
   ,'unknown authorization');
FILE_SCHEMA(('AUTOMOTIVE_DESIGN_CC2 {UNKNOWN IMPLEMENTATION LEVEL}'));
ENDSEC;
/* ISO 10303-21 file written by STEP Caselib, ProSTEP GmbH, Germany */
DATA;
#1=CARTESIAN_POINT('POINT1',(4.0E+000,2.44921270764475E-016,1.1935E+000)
   );
#2=VERTEX_POINT('VERTEX1',#1);
#3=CARTESIAN_POINT('POINT2',(4.0E+000,-3.91000699388283E-016,
   -1.1935E+000));
#4=VERTEX_POINT('VERTEX2',#3);
#5=CARTESIAN_POINT('POS1',(4.0E+000,0.0E+000,2.44921270764475E-016));
#6=DIRECTION('DIR1',(1.0E+000,-2.73691106313441E-048,
   6.12303176911189E-017));
#7=DIRECTION('DIR2',(-6.12303176911189E-017,2.05147826610459E-016,
   1.0E+000));
#8=AXIS2_PLACEMENT_3D('AXIS1',#5,#6,#7);
#9=CIRCLE('ELLIPSE1',#8,1.1935E+000);
#10=EDGE_CURVE('EDGE1',#2,#4,#9,.T.);
#11=ORIENTED_EDGE('COEDGE1',*,*,#10,.T.);
#12=EDGE_CURVE('EDGE2',#4,#2,#9,.T.);
#13=ORIENTED_EDGE('COEDGE2',*,*,#12,.T.);
#14=EDGE_LOOP('NONE',(#11,#13));
#15=FACE_BOUND('LOOP1',#14,.T.);
#16=CARTESIAN_POINT('POS2',(4.0E+000,2.44921270764475E-016,-7.5E-001));
#17=DIRECTION('DIR3',(1.0E+000,0.0E+000,6.12303176911189E-017));
#18=DIRECTION('DIR4',(0.0E+000,1.0E+000,0.0E+000));
#19=AXIS2_PLACEMENT_3D('AXIS2',#16,#17,#18);
#20=PLANE('PLANE1',#19);
#21=ADVANCED_FACE('FACE1',(#15),#20,.T.);
#22=CARTESIAN_POINT('POINT3',(-5.2E-001,2.8E-001,-2.8E-001));
#23=VERTEX_POINT('VERTEX3',#22);
#24=CARTESIAN_POINT('POINT4',(-5.2E-001,2.8E-001,-1.55E+000));
#25=VERTEX_POINT('VERTEX4',#24);
#26=CARTESIAN_POINT('POS3',(-5.2E-001,2.8E-001,0.0E+000));
#27=DIRECTION('DIR5',(0.0E+000,0.0E+000,-1.0E+000));
#28=VECTOR('VEC1',#27,1.0E+000);
#29=LINE('STRAIGHT1',#26,#28);
#30=EDGE_CURVE('EDGE3',#23,#25,#29,.T.);
#31=ORIENTED_EDGE('COEDGE3',*,*,#30,.T.);
#32=CARTESIAN_POINT('POINT5',(-5.2E-001,-2.8E-001,-1.55E+000));
#33=VERTEX_POINT('VERTEX5',#32);
#34=CARTESIAN_POINT('POS4',(-5.2E-001,0.0E+000,-1.55E+000));
#35=DIRECTION('DIR6',(0.0E+000,-1.0E+000,0.0E+000));
#36=VECTOR('VEC2',#35,1.0E+000);
#37=LINE('STRAIGHT2',#34,#36);
#38=EDGE_CURVE('EDGE4',#25,#33,#37,.T.);
#39=ORIENTED_EDGE('COEDGE4',*,*,#38,.T.);
#40=CARTESIAN_POINT('POINT6',(-5.2E-001,-2.8E-001,-2.8E-001));
#41=VERTEX_POINT('VERTEX6',#40);
#42=CARTESIAN_POINT('POS5',(-5.2E-001,-2.8E-001,0.0E+000));
#43=DIRECTION('DIR7',(0.0E+000,0.0E+000,-1.0E+000));
#44=VECTOR('VEC3',#43,1.0E+000);
#45=LINE('STRAIGHT3',#42,#44);
#46=EDGE_CURVE('EDGE5',#41,#33,#45,.T.);
#47=ORIENTED_EDGE('COEDGE5',*,*,#46,.F.);
#48=CARTESIAN_POINT('POINT7',(-5.2E-001,-1.55E+000,-2.8E-001));
#49=VERTEX_POINT('VERTEX7',#48);
#50=CARTESIAN_POINT('POS6',(-5.2E-001,0.0E+000,-2.8E-001));
#51=DIRECTION('DIR8',(0.0E+000,1.0E+000,0.0E+000));
#52=VECTOR('VEC4',#51,1.0E+000);
#53=LINE('STRAIGHT4',#50,#52);
#54=EDGE_CURVE('EDGE6',#49,#41,#53,.T.);
#55=ORIENTED_EDGE('COEDGE6',*,*,#54,.F.);
#56=CARTESIAN_POINT('POINT8',(-5.2E-001,-1.55E+000,2.8E-001));
#57=VERTEX_POINT('VERTEX8',#56);
#58=CARTESIAN_POINT('POS7',(-5.2E-001,-1.55E+000,-1.11022302462516E-016)
   );
#59=DIRECTION('DIR9',(0.0E+000,0.0E+000,1.0E+000));
#60=VECTOR('VEC5',#59,1.0E+000);
#61=LINE('STRAIGHT5',#58,#60);
#62=EDGE_CURVE('EDGE7',#49,#57,#61,.T.);
#63=ORIENTED_EDGE('COEDGE7',*,*,#62,.T.);
#64=CARTESIAN_POINT('POINT9',(-5.2E-001,-2.8E-001,2.8E-001));
#65=VERTEX_POINT('VERTEX9',#64);
#66=CARTESIAN_POINT('POS8',(-5.2E-001,0.0E+000,2.8E-001));
#67=DIRECTION('DIR10',(0.0E+000,1.0E+000,0.0E+000));
#68=VECTOR('VEC6',#67,1.0E+000);
#69=LINE('STRAIGHT6',#66,#68);
#70=EDGE_CURVE('EDGE8',#57,#65,#69,.T.);
#71=ORIENTED_EDGE('COEDGE8',*,*,#70,.T.);
#72=CARTESIAN_POINT('POINT10',(-5.2E-001,-2.8E-001,1.55E+000));
#73=VERTEX_POINT('VERTEX10',#72);
#74=EDGE_CURVE('EDGE9',#73,#65,#45,.T.);
#75=ORIENTED_EDGE('COEDGE9',*,*,#74,.F.);
#76=CARTESIAN_POINT('POINT11',(-5.2E-001,2.8E-001,1.55E+000));
#77=VERTEX_POINT('VERTEX11',#76);
#78=CARTESIAN_POINT('POS9',(-5.2E-001,0.0E+000,1.55E+000));
#79=DIRECTION('DIR11',(0.0E+000,1.0E+000,0.0E+000));
#80=VECTOR('VEC7',#79,1.0E+000);
#81=LINE('STRAIGHT7',#78,#80);
#82=EDGE_CURVE('EDGE10',#73,#77,#81,.T.);
#83=ORIENTED_EDGE('COEDGE10',*,*,#82,.T.);
#84=CARTESIAN_POINT('POINT12',(-5.2E-001,2.8E-001,2.8E-001));
#85=VERTEX_POINT('VERTEX12',#84);
#86=EDGE_CURVE('EDGE11',#77,#85,#29,.T.);
#87=ORIENTED_EDGE('COEDGE11',*,*,#86,.T.);
#88=CARTESIAN_POINT('POINT13',(-5.2E-001,1.55E+000,2.8E-001));
#89=VERTEX_POINT('VERTEX13',#88);
#90=EDGE_CURVE('EDGE12',#85,#89,#69,.T.);
#91=ORIENTED_EDGE('COEDGE12',*,*,#90,.T.);
#92=CARTESIAN_POINT('POINT14',(-5.2E-001,1.55E+000,-2.8E-001));
#93=VERTEX_POINT('VERTEX14',#92);
#94=CARTESIAN_POINT('POS10',(-5.2E-001,1.55E+000,-1.11022302462516E-016)
   );
#95=DIRECTION('DIR12',(0.0E+000,0.0E+000,-1.0E+000));
#96=VECTOR('VEC8',#95,1.0E+000);
#97=LINE('STRAIGHT8',#94,#96);
#98=EDGE_CURVE('EDGE13',#89,#93,#97,.T.);
#99=ORIENTED_EDGE('COEDGE13',*,*,#98,.T.);
#100=EDGE_CURVE('EDGE14',#23,#93,#53,.T.);
#101=ORIENTED_EDGE('COEDGE14',*,*,#100,.F.);
#102=EDGE_LOOP('NONE',(#31,#39,#47,#55,#63,#71,#75,#83,#87,#91,#99,#101)
   );
#103=FACE_BOUND('LOOP1',#102,.T.);
#104=CARTESIAN_POINT('POS11',(-5.2E-001,0.0E+000,0.0E+000));
#105=DIRECTION('DIR13',(-1.0E+000,0.0E+000,0.0E+000));
#106=DIRECTION('DIR14',(0.0E+000,1.0E+000,0.0E+000));
#107=AXIS2_PLACEMENT_3D('AXIS3',#104,#105,#106);
#108=PLANE('PLANE2',#107);
#109=ADVANCED_FACE('FACE2',(#103),#108,.T.);
#110=CARTESIAN_POINT('POINT15',(-2.5012980561215E+000,2.8E-001,2.8E-001)
   );
#111=VERTEX_POINT('VERTEX15',#110);
#112=CARTESIAN_POINT('POS12',(-1.52E+000,2.8E-001,2.8E-001));
#113=DIRECTION('DIR15',(1.0E+000,0.0E+000,0.0E+000));
#114=VECTOR('VEC9',#113,1.0E+000);
#115=LINE('STRAIGHT9',#112,#114);
#116=EDGE_CURVE('EDGE15',#111,#85,#115,.T.);
#117=ORIENTED_EDGE('COEDGE15',*,*,#116,.T.);
#118=ORIENTED_EDGE('COEDGE16',*,*,#86,.F.);
#119=CARTESIAN_POINT('POINT16',(-2.21358131826573E+000,2.8E-001,
   1.55E+000));
#120=VERTEX_POINT('VERTEX16',#119);
#121=CARTESIAN_POINT('POS13',(-1.52E+000,2.8E-001,1.55E+000));
#122=DIRECTION('DIR16',(-1.0E+000,0.0E+000,0.0E+000));
#123=VECTOR('VEC10',#122,1.0E+000);
#124=LINE('STRAIGHT10',#121,#123);
#125=EDGE_CURVE('EDGE16',#77,#120,#124,.T.);
#126=ORIENTED_EDGE('COEDGE17',*,*,#125,.T.);
#127=CARTESIAN_POINT('POS14',(1.68142857142858E+000,2.8E-001,
   7.22904783313112E-015));
#128=DIRECTION('DIR17',(0.0E+000,1.0E+000,0.0E+000));
#129=DIRECTION('DIR18',(0.0E+000,0.0E+000,-1.0E+000));
#130=AXIS2_PLACEMENT_3D('AXIS4',#127,#128,#129);
#131=CIRCLE('ELLIPSE2',#130,4.19208802875326E+000);
#132=EDGE_CURVE('EDGE17',#111,#120,#131,.T.);
#133=ORIENTED_EDGE('COEDGE18',*,*,#132,.F.);
#134=EDGE_LOOP('NONE',(#117,#118,#126,#133));
#135=FACE_BOUND('LOOP1',#134,.T.);
#136=CARTESIAN_POINT('POS15',(-1.52E+000,2.8E-001,0.0E+000));
#137=DIRECTION('DIR19',(0.0E+000,-1.0E+000,0.0E+000));
#138=DIRECTION('DIR20',(1.0E+000,0.0E+000,0.0E+000));
#139=AXIS2_PLACEMENT_3D('AXIS5',#136,#137,#138);
#140=PLANE('PLANE3',#139);
#141=ADVANCED_FACE('FACE3',(#135),#140,.T.);
#142=CARTESIAN_POINT('POINT17',(-2.21358131826573E+000,1.55E+000,
   2.8E-001));
#143=VERTEX_POINT('VERTEX17',#142);
#144=CARTESIAN_POINT('POS16',(1.68142857142858E+000,
   -1.02954405603496E-016,2.8E-001));
#145=DIRECTION('DIR21',(-0.0E+000,0.0E+000,1.0E+000));
#146=DIRECTION('DIR22',(-0.0E+000,1.0E+000,0.0E+000));
#147=AXIS2_PLACEMENT_3D('AXIS6',#144,#145,#146);
#148=CIRCLE('ELLIPSE3',#147,4.19208802875326E+000);
#149=EDGE_CURVE('EDGE18',#143,#111,#148,.T.);
#150=ORIENTED_EDGE('COEDGE19',*,*,#149,.F.);
#151=CARTESIAN_POINT('POS17',(-1.52E+000,1.55E+000,2.8E-001));
#152=DIRECTION('DIR23',(1.0E+000,0.0E+000,0.0E+000));
#153=VECTOR('VEC11',#152,1.0E+000);
#154=LINE('STRAIGHT11',#151,#153);
#155=EDGE_CURVE('EDGE19',#143,#89,#154,.T.);
#156=ORIENTED_EDGE('COEDGE20',*,*,#155,.T.);
#157=ORIENTED_EDGE('COEDGE21',*,*,#90,.F.);
#158=ORIENTED_EDGE('COEDGE22',*,*,#116,.F.);
#159=EDGE_LOOP('NONE',(#150,#156,#157,#158));
#160=FACE_BOUND('LOOP1',#159,.T.);
#161=CARTESIAN_POINT('POS18',(-1.52E+000,0.0E+000,2.8E-001));
#162=DIRECTION('DIR24',(0.0E+000,0.0E+000,-1.0E+000));
#163=DIRECTION('DIR25',(1.0E+000,0.0E+000,0.0E+000));
#164=AXIS2_PLACEMENT_3D('AXIS7',#161,#162,#163);
#165=PLANE('PLANE4',#164);
#166=ADVANCED_FACE('FACE4',(#160),#165,.T.);
#167=CARTESIAN_POINT('POINT18',(-2.21358131826573E+000,1.55E+000,
   -2.8E-001));
#168=VERTEX_POINT('VERTEX18',#167);
#169=CARTESIAN_POINT('POS19',(1.68142857142858E+000,1.55E+000,
   7.22904783313112E-015));
#170=DIRECTION('DIR26',(0.0E+000,1.0E+000,0.0E+000));
#171=DIRECTION('DIR27',(0.0E+000,0.0E+000,-1.0E+000));
#172=AXIS2_PLACEMENT_3D('AXIS8',#169,#170,#171);
#173=CIRCLE('ELLIPSE4',#172,3.90506108029265E+000);
#174=EDGE_CURVE('EDGE20',#168,#143,#173,.T.);
#175=ORIENTED_EDGE('COEDGE23',*,*,#174,.F.);
#176=CARTESIAN_POINT('POS20',(-1.52E+000,1.55E+000,-2.8E-001));
#177=DIRECTION('DIR28',(-1.0E+000,0.0E+000,0.0E+000));
#178=VECTOR('VEC12',#177,1.0E+000);
#179=LINE('STRAIGHT12',#176,#178);
#180=EDGE_CURVE('EDGE21',#93,#168,#179,.T.);
#181=ORIENTED_EDGE('COEDGE24',*,*,#180,.F.);
#182=ORIENTED_EDGE('COEDGE25',*,*,#98,.F.);
#183=ORIENTED_EDGE('COEDGE26',*,*,#155,.F.);
#184=EDGE_LOOP('NONE',(#175,#181,#182,#183));
#185=FACE_BOUND('LOOP1',#184,.T.);
#186=CARTESIAN_POINT('POS21',(-1.52E+000,1.55E+000,
   -1.11022302462516E-016));
#187=DIRECTION('DIR29',(0.0E+000,-1.0E+000,0.0E+000));
#188=DIRECTION('DIR30',(1.0E+000,0.0E+000,0.0E+000));
#189=AXIS2_PLACEMENT_3D('AXIS9',#186,#187,#188);
#190=PLANE('PLANE5',#189);
#191=ADVANCED_FACE('FACE5',(#185),#190,.T.);
#192=CARTESIAN_POINT('POINT19',(-2.5012980561215E+000,2.8E-001,-2.8E-001
   ));
#193=VERTEX_POINT('VERTEX19',#192);
#194=CARTESIAN_POINT('POS22',(1.68142857142858E+000,
   -1.02954405603496E-016,-2.8E-001));
#195=DIRECTION('DIR31',(0.0E+000,0.0E+000,-1.0E+000));
#196=DIRECTION('DIR32',(0.0E+000,-1.0E+000,0.0E+000));
#197=AXIS2_PLACEMENT_3D('AXIS10',#194,#195,#196);
#198=CIRCLE('ELLIPSE5',#197,4.19208802875326E+000);
#199=EDGE_CURVE('EDGE22',#193,#168,#198,.T.);
#200=ORIENTED_EDGE('COEDGE27',*,*,#199,.F.);
#201=CARTESIAN_POINT('POS23',(-1.52E+000,2.8E-001,-2.8E-001));
#202=DIRECTION('DIR33',(-1.0E+000,0.0E+000,0.0E+000));
#203=VECTOR('VEC13',#202,1.0E+000);
#204=LINE('STRAIGHT13',#201,#203);
#205=EDGE_CURVE('EDGE23',#23,#193,#204,.T.);
#206=ORIENTED_EDGE('COEDGE28',*,*,#205,.F.);
#207=ORIENTED_EDGE('COEDGE29',*,*,#100,.T.);
#208=ORIENTED_EDGE('COEDGE30',*,*,#180,.T.);
#209=EDGE_LOOP('NONE',(#200,#206,#207,#208));
#210=FACE_BOUND('LOOP1',#209,.T.);
#211=CARTESIAN_POINT('POS24',(-1.52E+000,0.0E+000,-2.8E-001));
#212=DIRECTION('DIR34',(0.0E+000,0.0E+000,1.0E+000));
#213=DIRECTION('DIR35',(1.0E+000,0.0E+000,0.0E+000));
#214=AXIS2_PLACEMENT_3D('AXIS11',#211,#212,#213);
#215=PLANE('PLANE6',#214);
#216=ADVANCED_FACE('FACE6',(#210),#215,.T.);
#217=ORIENTED_EDGE('COEDGE31',*,*,#205,.T.);
#218=CARTESIAN_POINT('POINT20',(-2.21358131826572E+000,2.8E-001,
   -1.55E+000));
#219=VERTEX_POINT('VERTEX20',#218);
#220=EDGE_CURVE('EDGE24',#219,#193,#131,.T.);
#221=ORIENTED_EDGE('COEDGE32',*,*,#220,.F.);
#222=CARTESIAN_POINT('POS25',(-1.52E+000,2.8E-001,-1.55E+000));
#223=DIRECTION('DIR36',(1.0E+000,0.0E+000,0.0E+000));
#224=VECTOR('VEC14',#223,1.0E+000);
#225=LINE('STRAIGHT14',#222,#224);
#226=EDGE_CURVE('EDGE25',#219,#25,#225,.T.);
#227=ORIENTED_EDGE('COEDGE33',*,*,#226,.T.);
#228=ORIENTED_EDGE('COEDGE34',*,*,#30,.F.);
#229=EDGE_LOOP('NONE',(#217,#221,#227,#228));
#230=FACE_BOUND('LOOP1',#229,.T.);
#231=ADVANCED_FACE('FACE7',(#230),#140,.T.);
#232=CARTESIAN_POINT('POINT21',(3.6935E+000,2.26154178392148E-016,
   1.5E+000));
#233=VERTEX_POINT('VERTEX21',#232);
#234=CARTESIAN_POINT('POS26',(3.84675E+000,4.41206696188664E-016,
   1.34675E+000));
#235=DIRECTION('DIR37',(-7.07106781186547E-001,2.31654165049131E-016,
   7.07106781186548E-001));
#236=VECTOR('VEC15',#235,1.0E+000);
#237=LINE('STRAIGHT15',#234,#236);
#238=EDGE_CURVE('EDGE26',#2,#233,#237,.T.);
#239=ORIENTED_EDGE('COEDGE35',*,*,#238,.F.);
#240=ORIENTED_EDGE('COEDGE36',*,*,#12,.F.);
#241=CARTESIAN_POINT('POINT22',(3.6935E+000,-4.91412692989045E-016,
   -1.5E+000));
#242=VERTEX_POINT('VERTEX22',#241);
#243=CARTESIAN_POINT('POS27',(3.84675E+000,-4.41206696188664E-016,
   -1.34675E+000));
#244=DIRECTION('DIR38',(7.07106781186547E-001,2.31654165049131E-016,
   7.07106781186548E-001));
#245=VECTOR('VEC16',#244,1.0E+000);
#246=LINE('STRAIGHT16',#243,#245);
#247=EDGE_CURVE('EDGE27',#242,#4,#246,.T.);
#248=ORIENTED_EDGE('COEDGE37',*,*,#247,.F.);
#249=CARTESIAN_POINT('POS28',(3.6935E+000,0.0E+000,2.26154178392148E-016
   ));
#250=DIRECTION('DIR39',(-1.0E+000,0.0E+000,-6.12303176911189E-017));
#251=DIRECTION('DIR40',(6.12303176911189E-017,0.0E+000,-1.0E+000));
#252=AXIS2_PLACEMENT_3D('AXIS12',#249,#250,#251);
#253=CIRCLE('ELLIPSE6',#252,1.5E+000);
#254=EDGE_CURVE('EDGE28',#233,#242,#253,.T.);
#255=ORIENTED_EDGE('COEDGE38',*,*,#254,.F.);
#256=EDGE_LOOP('NONE',(#239,#240,#248,#255));
#257=FACE_BOUND('LOOP1',#256,.T.);
#258=CARTESIAN_POINT('POS29',(3.84675E+000,0.0E+000,
   2.35537724578311E-016));
#259=DIRECTION('DIR41',(-1.0E+000,0.0E+000,-6.12303176911189E-017));
#260=DIRECTION('DIR42',(-6.12303176911189E-017,2.05147826610459E-016,
   1.0E+000));
#261=AXIS2_PLACEMENT_3D('AXIS13',#258,#259,#260);
#262=CONICAL_SURFACE('CONE_SURF1',#261,1.34675E+000,
   7.85398163397449E-001);
#263=ADVANCED_FACE('FACE8',(#257),#262,.T.);
#264=ORIENTED_EDGE('COEDGE39',*,*,#238,.T.);
#265=EDGE_CURVE('EDGE29',#242,#233,#253,.T.);
#266=ORIENTED_EDGE('COEDGE40',*,*,#265,.F.);
#267=ORIENTED_EDGE('COEDGE41',*,*,#247,.T.);
#268=ORIENTED_EDGE('COEDGE42',*,*,#10,.F.);
#269=EDGE_LOOP('NONE',(#264,#266,#267,#268));
#270=FACE_BOUND('LOOP1',#269,.T.);
#271=ADVANCED_FACE('FACE9',(#270),#262,.T.);
#272=CARTESIAN_POINT('POINT23',(-2.21358131826572E+000,-2.8E-001,
   -1.55E+000));
#273=VERTEX_POINT('VERTEX23',#272);
#274=CARTESIAN_POINT('POINT24',(-2.22363250886408E+000,
   8.68595792389734E-017,-1.55E+000));
#275=VERTEX_POINT('VERTEX24',#274);
#276=CARTESIAN_POINT('POS30',(1.68142857142858E+000,
   -1.02954405603496E-016,-1.55E+000));
#277=DIRECTION('DIR43',(0.0E+000,0.0E+000,-1.0E+000));
#278=DIRECTION('DIR44',(0.0E+000,-1.0E+000,0.0E+000));
#279=AXIS2_PLACEMENT_3D('AXIS14',#276,#277,#278);
#280=CIRCLE('ELLIPSE7',#279,3.90506108029265E+000);
#281=EDGE_CURVE('EDGE30',#273,#275,#280,.T.);
#282=ORIENTED_EDGE('COEDGE43',*,*,#281,.F.);
#283=CARTESIAN_POINT('POS31',(-1.52E+000,-2.8E-001,-1.55E+000));
#284=DIRECTION('DIR45',(-1.0E+000,0.0E+000,0.0E+000));
#285=VECTOR('VEC17',#284,1.0E+000);
#286=LINE('STRAIGHT17',#283,#285);
#287=EDGE_CURVE('EDGE31',#33,#273,#286,.T.);
#288=ORIENTED_EDGE('COEDGE44',*,*,#287,.F.);
#289=ORIENTED_EDGE('COEDGE45',*,*,#38,.F.);
#290=ORIENTED_EDGE('COEDGE46',*,*,#226,.F.);
#291=EDGE_CURVE('EDGE32',#275,#219,#280,.T.);
#292=ORIENTED_EDGE('COEDGE47',*,*,#291,.F.);
#293=EDGE_LOOP('NONE',(#282,#288,#289,#290,#292));
#294=FACE_BOUND('LOOP1',#293,.T.);
#295=CARTESIAN_POINT('POS32',(-1.52E+000,0.0E+000,-1.55E+000));
#296=DIRECTION('DIR46',(0.0E+000,0.0E+000,1.0E+000));
#297=DIRECTION('DIR47',(1.0E+000,0.0E+000,0.0E+000));
#298=AXIS2_PLACEMENT_3D('AXIS15',#295,#296,#297);
#299=PLANE('PLANE7',#298);
#300=ADVANCED_FACE('FACE10',(#294),#299,.T.);
#301=CARTESIAN_POINT('POINT25',(-2.5012980561215E+000,-2.8E-001,
   -2.8E-001));
#302=VERTEX_POINT('VERTEX25',#301);
#303=CARTESIAN_POINT('POS33',(-1.52E+000,-2.8E-001,-2.8E-001));
#304=DIRECTION('DIR48',(1.0E+000,0.0E+000,0.0E+000));
#305=VECTOR('VEC18',#304,1.0E+000);
#306=LINE('STRAIGHT18',#303,#305);
#307=EDGE_CURVE('EDGE33',#302,#41,#306,.T.);
#308=ORIENTED_EDGE('COEDGE48',*,*,#307,.T.);
#309=ORIENTED_EDGE('COEDGE49',*,*,#46,.T.);
#310=ORIENTED_EDGE('COEDGE50',*,*,#287,.T.);
#311=CARTESIAN_POINT('POS34',(1.68142857142858E+000,-2.8E-001,
   7.22904783313112E-015));
#312=DIRECTION('DIR49',(0.0E+000,-1.0E+000,0.0E+000));
#313=DIRECTION('DIR50',(0.0E+000,0.0E+000,1.0E+000));
#314=AXIS2_PLACEMENT_3D('AXIS16',#311,#312,#313);
#315=CIRCLE('ELLIPSE8',#314,4.19208802875326E+000);
#316=EDGE_CURVE('EDGE34',#302,#273,#315,.T.);
#317=ORIENTED_EDGE('COEDGE51',*,*,#316,.F.);
#318=EDGE_LOOP('NONE',(#308,#309,#310,#317));
#319=FACE_BOUND('LOOP1',#318,.T.);
#320=CARTESIAN_POINT('POS35',(-1.52E+000,-2.8E-001,0.0E+000));
#321=DIRECTION('DIR51',(0.0E+000,1.0E+000,0.0E+000));
#322=DIRECTION('DIR52',(1.0E+000,0.0E+000,0.0E+000));
#323=AXIS2_PLACEMENT_3D('AXIS17',#320,#321,#322);
#324=PLANE('PLANE8',#323);
#325=ADVANCED_FACE('FACE11',(#319),#324,.T.);
#326=CARTESIAN_POINT('POINT26',(-2.21358131826573E+000,-1.55E+000,
   -2.8E-001));
#327=VERTEX_POINT('VERTEX26',#326);
#328=EDGE_CURVE('EDGE35',#327,#302,#198,.T.);
#329=ORIENTED_EDGE('COEDGE52',*,*,#328,.F.);
#330=CARTESIAN_POINT('POS36',(-1.52E+000,-1.55E+000,-2.8E-001));
#331=DIRECTION('DIR53',(1.0E+000,0.0E+000,0.0E+000));
#332=VECTOR('VEC19',#331,1.0E+000);
#333=LINE('STRAIGHT19',#330,#332);
#334=EDGE_CURVE('EDGE36',#327,#49,#333,.T.);
#335=ORIENTED_EDGE('COEDGE53',*,*,#334,.T.);
#336=ORIENTED_EDGE('COEDGE54',*,*,#54,.T.);
#337=ORIENTED_EDGE('COEDGE55',*,*,#307,.F.);
#338=EDGE_LOOP('NONE',(#329,#335,#336,#337));
#339=FACE_BOUND('LOOP1',#338,.T.);
#340=ADVANCED_FACE('FACE12',(#339),#215,.T.);
#341=CARTESIAN_POINT('POINT27',(-2.21358131826573E+000,-1.55E+000,
   2.8E-001));
#342=VERTEX_POINT('VERTEX27',#341);
#343=CARTESIAN_POINT('POS37',(1.68142857142858E+000,-1.55E+000,
   7.22904783313112E-015));
#344=DIRECTION('DIR54',(0.0E+000,-1.0E+000,0.0E+000));
#345=DIRECTION('DIR55',(0.0E+000,0.0E+000,1.0E+000));
#346=AXIS2_PLACEMENT_3D('AXIS18',#343,#344,#345);
#347=CIRCLE('ELLIPSE9',#346,3.90506108029265E+000);
#348=EDGE_CURVE('EDGE37',#342,#327,#347,.T.);
#349=ORIENTED_EDGE('COEDGE56',*,*,#348,.F.);
#350=CARTESIAN_POINT('POS38',(-1.52E+000,-1.55E+000,2.8E-001));
#351=DIRECTION('DIR56',(-1.0E+000,0.0E+000,0.0E+000));
#352=VECTOR('VEC20',#351,1.0E+000);
#353=LINE('STRAIGHT20',#350,#352);
#354=EDGE_CURVE('EDGE38',#57,#342,#353,.T.);
#355=ORIENTED_EDGE('COEDGE57',*,*,#354,.F.);
#356=ORIENTED_EDGE('COEDGE58',*,*,#62,.F.);
#357=ORIENTED_EDGE('COEDGE59',*,*,#334,.F.);
#358=EDGE_LOOP('NONE',(#349,#355,#356,#357));
#359=FACE_BOUND('LOOP1',#358,.T.);
#360=CARTESIAN_POINT('POS39',(-1.52E+000,-1.55E+000,
   -1.11022302462516E-016));
#361=DIRECTION('DIR57',(0.0E+000,-1.0E+000,0.0E+000));
#362=DIRECTION('DIR58',(1.0E+000,0.0E+000,0.0E+000));
#363=AXIS2_PLACEMENT_3D('AXIS19',#360,#361,#362);
#364=PLANE('PLANE9',#363);
#365=ADVANCED_FACE('FACE13',(#359),#364,.F.);
#366=CARTESIAN_POINT('POINT28',(-2.5012980561215E+000,-2.8E-001,2.8E-001
   ));
#367=VERTEX_POINT('VERTEX28',#366);
#368=EDGE_CURVE('EDGE39',#367,#342,#148,.T.);
#369=ORIENTED_EDGE('COEDGE60',*,*,#368,.F.);
#370=CARTESIAN_POINT('POS40',(-1.52E+000,-2.8E-001,2.8E-001));
#371=DIRECTION('DIR59',(-1.0E+000,0.0E+000,0.0E+000));
#372=VECTOR('VEC21',#371,1.0E+000);
#373=LINE('STRAIGHT21',#370,#372);
#374=EDGE_CURVE('EDGE40',#65,#367,#373,.T.);
#375=ORIENTED_EDGE('COEDGE61',*,*,#374,.F.);
#376=ORIENTED_EDGE('COEDGE62',*,*,#70,.F.);
#377=ORIENTED_EDGE('COEDGE63',*,*,#354,.T.);
#378=EDGE_LOOP('NONE',(#369,#375,#376,#377));
#379=FACE_BOUND('LOOP1',#378,.T.);
#380=ADVANCED_FACE('FACE14',(#379),#165,.T.);
#381=ORIENTED_EDGE('COEDGE64',*,*,#374,.T.);
#382=CARTESIAN_POINT('POINT29',(-2.21358131826573E+000,-2.8E-001,
   1.55E+000));
#383=VERTEX_POINT('VERTEX29',#382);
#384=EDGE_CURVE('EDGE41',#383,#367,#315,.T.);
#385=ORIENTED_EDGE('COEDGE65',*,*,#384,.F.);
#386=CARTESIAN_POINT('POS41',(-1.52E+000,-2.8E-001,1.55E+000));
#387=DIRECTION('DIR60',(1.0E+000,0.0E+000,0.0E+000));
#388=VECTOR('VEC22',#387,1.0E+000);
#389=LINE('STRAIGHT22',#386,#388);
#390=EDGE_CURVE('EDGE42',#383,#73,#389,.T.);
#391=ORIENTED_EDGE('COEDGE66',*,*,#390,.T.);
#392=ORIENTED_EDGE('COEDGE67',*,*,#74,.T.);
#393=EDGE_LOOP('NONE',(#381,#385,#391,#392));
#394=FACE_BOUND('LOOP1',#393,.T.);
#395=ADVANCED_FACE('FACE15',(#394),#324,.T.);
#396=CARTESIAN_POINT('POINT30',(-2.22363250886408E+000,
   -2.92768390445964E-016,1.55E+000));
#397=VERTEX_POINT('VERTEX30',#396);
#398=CARTESIAN_POINT('POS42',(1.68142857142858E+000,
   -1.02954405603496E-016,1.55E+000));
#399=DIRECTION('DIR61',(0.0E+000,0.0E+000,1.0E+000));
#400=DIRECTION('DIR62',(0.0E+000,1.0E+000,0.0E+000));
#401=AXIS2_PLACEMENT_3D('AXIS20',#398,#399,#400);
#402=CIRCLE('ELLIPSE10',#401,3.90506108029266E+000);
#403=EDGE_CURVE('EDGE43',#120,#397,#402,.T.);
#404=ORIENTED_EDGE('COEDGE68',*,*,#403,.F.);
#405=ORIENTED_EDGE('COEDGE69',*,*,#125,.F.);
#406=ORIENTED_EDGE('COEDGE70',*,*,#82,.F.);
#407=ORIENTED_EDGE('COEDGE71',*,*,#390,.F.);
#408=EDGE_CURVE('EDGE44',#397,#383,#402,.T.);
#409=ORIENTED_EDGE('COEDGE72',*,*,#408,.F.);
#410=EDGE_LOOP('NONE',(#404,#405,#406,#407,#409));
#411=FACE_BOUND('LOOP1',#410,.T.);
#412=CARTESIAN_POINT('POS43',(-1.52E+000,0.0E+000,1.55E+000));
#413=DIRECTION('DIR63',(0.0E+000,0.0E+000,1.0E+000));
#414=DIRECTION('DIR64',(1.0E+000,0.0E+000,0.0E+000));
#415=AXIS2_PLACEMENT_3D('AXIS21',#412,#413,#414);
#416=PLANE('PLANE10',#415);
#417=ADVANCED_FACE('FACE16',(#411),#416,.F.);
#418=CARTESIAN_POINT('POINT31',(-1.27468594424376E+000,
   7.80494253224493E-017,2.98552993805919E+000));
#419=VERTEX_POINT('VERTEX31',#418);
#420=CARTESIAN_POINT('POS44',(1.68142857142858E+000,
   -1.02954405603496E-016,7.22904783313112E-015));
#421=DIRECTION('DIR65',(2.24949108273321E-032,-1.0E+000,
   -1.22460635382238E-016));
#422=DIRECTION('DIR66',(0.0E+000,-1.22460635382238E-016,1.0E+000));
#423=AXIS2_PLACEMENT_3D('AXIS22',#420,#421,#422);
#424=CIRCLE('ELLIPSE11',#423,4.20142857142858E+000);
#425=EDGE_CURVE('EDGE45',#419,#397,#424,.T.);
#426=ORIENTED_EDGE('COEDGE73',*,*,#425,.F.);
#427=CARTESIAN_POINT('POINT32',(-1.27468594424376E+000,
   2.62655487563926E-016,-2.98552993805919E+000));
#428=VERTEX_POINT('VERTEX32',#427);
#429=CARTESIAN_POINT('POS45',(-1.27468594424376E+000,0.0E+000,
   -2.34148275967348E-016));
#430=DIRECTION('DIR67',(1.0E+000,0.0E+000,1.83690953073357E-016));
#431=DIRECTION('DIR68',(-1.83690953073357E-016,3.77786001609538E-014,
   1.0E+000));
#432=AXIS2_PLACEMENT_3D('AXIS23',#429,#430,#431);
#433=CIRCLE('ELLIPSE12',#432,2.98552993805919E+000);
#434=EDGE_CURVE('EDGE46',#428,#419,#433,.T.);
#435=ORIENTED_EDGE('COEDGE74',*,*,#434,.F.);
#436=CARTESIAN_POINT('POS46',(1.68142857142858E+000,
   -1.02954405603496E-016,7.22904783313112E-015));
#437=DIRECTION('DIR69',(2.24949108273321E-032,-1.0E+000,
   -1.22460635382238E-016));
#438=DIRECTION('DIR70',(0.0E+000,-1.22460635382238E-016,1.0E+000));
#439=AXIS2_PLACEMENT_3D('AXIS24',#436,#437,#438);
#440=CIRCLE('ELLIPSE13',#439,4.20142857142858E+000);
#441=EDGE_CURVE('EDGE47',#275,#428,#440,.T.);
#442=ORIENTED_EDGE('COEDGE75',*,*,#441,.F.);
#443=ORIENTED_EDGE('COEDGE76',*,*,#291,.T.);
#444=ORIENTED_EDGE('COEDGE77',*,*,#220,.T.);
#445=ORIENTED_EDGE('COEDGE78',*,*,#199,.T.);
#446=ORIENTED_EDGE('COEDGE79',*,*,#174,.T.);
#447=ORIENTED_EDGE('COEDGE80',*,*,#149,.T.);
#448=ORIENTED_EDGE('COEDGE81',*,*,#132,.T.);
#449=ORIENTED_EDGE('COEDGE82',*,*,#403,.T.);
#450=EDGE_LOOP('NONE',(#426,#435,#442,#443,#444,#445,#446,#447,#448,#449
   ));
#451=FACE_BOUND('LOOP1',#450,.T.);
#452=CARTESIAN_POINT('POS47',(1.68142857142858E+000,
   -1.02954405603496E-016,7.22904783313112E-015));
#453=DIRECTION('DIR71',(0.0E+000,0.0E+000,1.0E+000));
#454=DIRECTION('DIR72',(1.0E+000,0.0E+000,0.0E+000));
#455=AXIS2_PLACEMENT_3D('AXIS25',#452,#453,#454);
#456=SPHERICAL_SURFACE('SPHERE_SURF1',#455,4.20142857142858E+000);
#457=ADVANCED_FACE('FACE17',(#451),#456,.T.);
#458=CARTESIAN_POINT('POINT33',(9.18454765366783E-017,0.0E+000,-1.5E+000
   ));
#459=VERTEX_POINT('VERTEX33',#458);
#460=CARTESIAN_POINT('POS48',(2.0E+000,1.83690953073357E-016,-1.5E+000))
   ;
#461=DIRECTION('DIR73',(-1.0E+000,0.0E+000,-6.12303176911189E-017));
#462=VECTOR('VEC23',#461,1.0E+000);
#463=LINE('STRAIGHT23',#460,#462);
#464=EDGE_CURVE('EDGE48',#242,#459,#463,.T.);
#465=ORIENTED_EDGE('COEDGE83',*,*,#464,.T.);
#466=CARTESIAN_POINT('POINT34',(-7.19625639460098E-016,
   -1.83690953073357E-016,1.5E+000));
#467=VERTEX_POINT('VERTEX34',#466);
#468=CARTESIAN_POINT('POS49',(-4.44089209850063E-016,0.0E+000,
   -2.46519032881566E-032));
#469=DIRECTION('DIR74',(-1.0E+000,0.0E+000,-6.12303176911189E-017));
#470=DIRECTION('DIR75',(6.12303176911189E-017,0.0E+000,-1.0E+000));
#471=AXIS2_PLACEMENT_3D('AXIS26',#468,#469,#470);
#472=CIRCLE('ELLIPSE14',#471,1.5E+000);
#473=EDGE_CURVE('EDGE49',#467,#459,#472,.T.);
#474=ORIENTED_EDGE('COEDGE84',*,*,#473,.F.);
#475=CARTESIAN_POINT('POS50',(2.0E+000,-1.83690953073357E-016,1.5E+000))
   ;
#476=DIRECTION('DIR76',(1.0E+000,-0.0E+000,6.12303176911189E-017));
#477=VECTOR('VEC24',#476,1.0E+000);
#478=LINE('STRAIGHT24',#475,#477);
#479=EDGE_CURVE('EDGE50',#467,#233,#478,.T.);
#480=ORIENTED_EDGE('COEDGE85',*,*,#479,.T.);
#481=ORIENTED_EDGE('COEDGE86',*,*,#254,.T.);
#482=EDGE_LOOP('NONE',(#465,#474,#480,#481));
#483=FACE_BOUND('LOOP1',#482,.T.);
#484=CARTESIAN_POINT('POS51',(2.0E+000,0.0E+000,1.22460635382238E-016));
#485=DIRECTION('DIR77',(-1.0E+000,0.0E+000,-6.12303176911189E-017));
#486=DIRECTION('DIR78',(6.12303176911189E-017,0.0E+000,-1.0E+000));
#487=AXIS2_PLACEMENT_3D('AXIS27',#484,#485,#486);
#488=CYLINDRICAL_SURFACE('CONE_SURF2',#487,1.5E+000);
#489=ADVANCED_FACE('FACE18',(#483),#488,.T.);
#490=ORIENTED_EDGE('COEDGE87',*,*,#464,.F.);
#491=ORIENTED_EDGE('COEDGE88',*,*,#265,.T.);
#492=ORIENTED_EDGE('COEDGE89',*,*,#479,.F.);
#493=EDGE_CURVE('EDGE51',#459,#467,#472,.T.);
#494=ORIENTED_EDGE('COEDGE90',*,*,#493,.F.);
#495=EDGE_LOOP('NONE',(#490,#491,#492,#494));
#496=FACE_BOUND('LOOP1',#495,.T.);
#497=ADVANCED_FACE('FACE19',(#496),#488,.T.);
#498=ORIENTED_EDGE('COEDGE91',*,*,#425,.T.);
#499=ORIENTED_EDGE('COEDGE92',*,*,#408,.T.);
#500=ORIENTED_EDGE('COEDGE93',*,*,#384,.T.);
#501=ORIENTED_EDGE('COEDGE94',*,*,#368,.T.);
#502=ORIENTED_EDGE('COEDGE95',*,*,#348,.T.);
#503=ORIENTED_EDGE('COEDGE96',*,*,#328,.T.);
#504=ORIENTED_EDGE('COEDGE97',*,*,#316,.T.);
#505=ORIENTED_EDGE('COEDGE98',*,*,#281,.T.);
#506=ORIENTED_EDGE('COEDGE99',*,*,#441,.T.);
#507=EDGE_CURVE('EDGE52',#419,#428,#433,.T.);
#508=ORIENTED_EDGE('COEDGE100',*,*,#507,.F.);
#509=EDGE_LOOP('NONE',(#498,#499,#500,#501,#502,#503,#504,#505,#506,#508
   ));
#510=FACE_BOUND('LOOP1',#509,.T.);
#511=ADVANCED_FACE('FACE20',(#510),#456,.T.);
#512=CARTESIAN_POINT('POINT35',(-1.23950607071484E+000,
   -3.67381906146713E-016,-3.0E+000));
#513=VERTEX_POINT('VERTEX35',#512);
#514=CARTESIAN_POINT('POS52',(-1.23950607071484E+000,
   -3.61258874377601E-016,-2.95E+000));
#515=DIRECTION('DIR79',(-2.24949108273321E-032,-1.0E+000,
   1.22460635382238E-016));
#516=DIRECTION('DIR80',(1.83690953073357E-016,-1.22460635382238E-016,
   -1.0E+000));
#517=AXIS2_PLACEMENT_3D('AXIS28',#514,#515,#516);
#518=CIRCLE('ELLIPSE15',#517,5.00000000000017E-002);
#519=EDGE_CURVE('EDGE53',#428,#513,#518,.T.);
#520=ORIENTED_EDGE('COEDGE101',*,*,#519,.F.);
#521=ORIENTED_EDGE('COEDGE102',*,*,#434,.T.);
#522=CARTESIAN_POINT('POINT36',(-1.23950607071484E+000,
   7.58953504899403E-017,3.0E+000));
#523=VERTEX_POINT('VERTEX36',#522);
#524=CARTESIAN_POINT('POS53',(-1.23950607071484E+000,
   3.61258874377601E-016,2.95E+000));
#525=DIRECTION('DIR81',(-2.24949108273321E-032,-1.0E+000,
   1.22460635382238E-016));
#526=DIRECTION('DIR82',(-1.83690953073357E-016,1.22460635382238E-016,
   1.0E+000));
#527=AXIS2_PLACEMENT_3D('AXIS29',#524,#525,#526);
#528=CIRCLE('ELLIPSE16',#527,5.00000000000017E-002);
#529=EDGE_CURVE('EDGE54',#523,#419,#528,.T.);
#530=ORIENTED_EDGE('COEDGE103',*,*,#529,.F.);
#531=CARTESIAN_POINT('POS54',(-1.23950607071484E+000,0.0E+000,
   -2.27686051469821E-016));
#532=DIRECTION('DIR83',(1.0E+000,0.0E+000,1.83690953073357E-016));
#533=DIRECTION('DIR84',(-1.83690953073357E-016,3.77786001609538E-014,
   1.0E+000));
#534=AXIS2_PLACEMENT_3D('AXIS30',#531,#532,#533);
#535=CIRCLE('ELLIPSE17',#534,3.0E+000);
#536=EDGE_CURVE('EDGE55',#513,#523,#535,.T.);
#537=ORIENTED_EDGE('COEDGE104',*,*,#536,.F.);
#538=EDGE_LOOP('NONE',(#520,#521,#530,#537));
#539=FACE_BOUND('LOOP1',#538,.T.);
#540=CARTESIAN_POINT('POS55',(-1.23950607071484E+000,0.0E+000,
   -2.27686051469821E-016));
#541=DIRECTION('DIR85',(1.0E+000,0.0E+000,1.83690953073357E-016));
#542=DIRECTION('DIR86',(1.83690953073357E-016,0.0E+000,-1.0E+000));
#543=AXIS2_PLACEMENT_3D('AXIS31',#540,#541,#542);
#544=TOROIDAL_SURFACE('TORUS1',#543,2.95E+000,5.00000000000017E-002);
#545=ADVANCED_FACE('FACE21',(#539),#544,.T.);
#546=ORIENTED_EDGE('COEDGE105',*,*,#493,.T.);
#547=ORIENTED_EDGE('COEDGE106',*,*,#473,.T.);
#548=EDGE_LOOP('NONE',(#546,#547));
#549=FACE_BOUND('LOOP1',#548,.T.);
#550=CARTESIAN_POINT('POINT37',(-5.5107285922007E-016,0.0E+000,3.0E+000)
   );
#551=VERTEX_POINT('VERTEX37',#550);
#552=CARTESIAN_POINT('POINT38',(5.5107285922007E-016,
   -1.13703182389008E-013,-3.0E+000));
#553=VERTEX_POINT('VERTEX38',#552);
#554=CARTESIAN_POINT('POS56',(0.0E+000,0.0E+000,0.0E+000));
#555=DIRECTION('DIR87',(1.0E+000,0.0E+000,1.83690953073357E-016));
#556=DIRECTION('DIR88',(-1.83690953073357E-016,3.77786001609538E-014,
   1.0E+000));
#557=AXIS2_PLACEMENT_3D('AXIS32',#554,#555,#556);
#558=CIRCLE('ELLIPSE18',#557,3.0E+000);
#559=EDGE_CURVE('EDGE56',#551,#553,#558,.T.);
#560=ORIENTED_EDGE('COEDGE107',*,*,#559,.T.);
#561=EDGE_CURVE('EDGE57',#553,#551,#558,.T.);
#562=ORIENTED_EDGE('COEDGE108',*,*,#561,.T.);
#563=EDGE_LOOP('NONE',(#560,#562));
#564=FACE_BOUND('LOOP1',#563,.T.);
#565=CARTESIAN_POINT('POS57',(-2.75536429610035E-016,0.0E+000,1.5E+000))
   ;
#566=DIRECTION('DIR89',(1.0E+000,0.0E+000,1.83690953073357E-016));
#567=DIRECTION('DIR90',(0.0E+000,1.0E+000,0.0E+000));
#568=AXIS2_PLACEMENT_3D('AXIS33',#565,#566,#567);
#569=PLANE('PLANE11',#568);
#570=ADVANCED_FACE('FACE22',(#549,#564),#569,.T.);
#571=ORIENTED_EDGE('COEDGE109',*,*,#519,.T.);
#572=CARTESIAN_POINT('POS58',(-1.23950607071484E+000,0.0E+000,
   -2.27686051469821E-016));
#573=DIRECTION('DIR91',(1.0E+000,0.0E+000,1.83690953073357E-016));
#574=DIRECTION('DIR92',(-1.83690953073357E-016,3.77786001609538E-014,
   1.0E+000));
#575=AXIS2_PLACEMENT_3D('AXIS34',#572,#573,#574);
#576=CIRCLE('ELLIPSE19',#575,3.0E+000);
#577=EDGE_CURVE('EDGE58',#523,#513,#576,.T.);
#578=ORIENTED_EDGE('COEDGE110',*,*,#577,.F.);
#579=ORIENTED_EDGE('COEDGE111',*,*,#529,.T.);
#580=ORIENTED_EDGE('COEDGE112',*,*,#507,.T.);
#581=EDGE_LOOP('NONE',(#571,#578,#579,#580));
#582=FACE_BOUND('LOOP1',#581,.T.);
#583=ADVANCED_FACE('FACE23',(#582),#544,.T.);
#584=CARTESIAN_POINT('POS59',(-6.19753035357422E-001,
   1.13703182389008E-013,3.0E+000));
#585=DIRECTION('DIR93',(1.0E+000,0.0E+000,1.83690953073357E-016));
#586=VECTOR('VEC25',#585,1.0E+000);
#587=LINE('STRAIGHT25',#584,#586);
#588=EDGE_CURVE('EDGE59',#523,#551,#587,.T.);
#589=ORIENTED_EDGE('COEDGE113',*,*,#588,.T.);
#590=ORIENTED_EDGE('COEDGE114',*,*,#561,.F.);
#591=CARTESIAN_POINT('POS60',(-6.19753035357421E-001,
   -1.13703182389008E-013,-3.0E+000));
#592=DIRECTION('DIR94',(-1.0E+000,-0.0E+000,-1.83690953073357E-016));
#593=VECTOR('VEC26',#592,1.0E+000);
#594=LINE('STRAIGHT26',#591,#593);
#595=EDGE_CURVE('EDGE60',#553,#513,#594,.T.);
#596=ORIENTED_EDGE('COEDGE115',*,*,#595,.T.);
#597=ORIENTED_EDGE('COEDGE116',*,*,#536,.T.);
#598=EDGE_LOOP('NONE',(#589,#590,#596,#597));
#599=FACE_BOUND('LOOP1',#598,.T.);
#600=CARTESIAN_POINT('POS61',(-6.19753035357422E-001,0.0E+000,
   -1.1384302573491E-016));
#601=DIRECTION('DIR95',(1.0E+000,0.0E+000,1.83690953073357E-016));
#602=DIRECTION('DIR96',(-1.83690953073357E-016,3.77786001609538E-014,
   1.0E+000));
#603=AXIS2_PLACEMENT_3D('AXIS35',#600,#601,#602);
#604=CYLINDRICAL_SURFACE('CONE_SURF3',#603,3.0E+000);
#605=ADVANCED_FACE('FACE24',(#599),#604,.T.);
#606=ORIENTED_EDGE('COEDGE117',*,*,#588,.F.);
#607=ORIENTED_EDGE('COEDGE118',*,*,#577,.T.);
#608=ORIENTED_EDGE('COEDGE119',*,*,#595,.F.);
#609=ORIENTED_EDGE('COEDGE120',*,*,#559,.F.);
#610=EDGE_LOOP('NONE',(#606,#607,#608,#609));
#611=FACE_BOUND('LOOP1',#610,.T.);
#612=ADVANCED_FACE('FACE25',(#611),#604,.T.);
#613=CLOSED_SHELL('SHELL1',(#21,#109,#141,#166,#191,#216,#231,#263,#271,
   #300,#325,#340,#365,#380,#395,#417,#457,#489,#497,#511,#545,#570,#583
   ,#605,#612));
#614=MANIFOLD_SOLID_BREP('LUMP1',#613);
#615=ADVANCED_BREP_SHAPE_REPRESENTATION('BODY0',(#614),#616);
#616=(GEOMETRIC_REPRESENTATION_CONTEXT(3) 
   GLOBAL_UNCERTAINTY_ASSIGNED_CONTEXT((#617)) 
   GLOBAL_UNIT_ASSIGNED_CONTEXT((#618,#619,#620)) REPRESENTATION_CONTEXT
   ('',''));
#617=UNCERTAINTY_MEASURE_WITH_UNIT(LENGTH_MEASURE(1.0E-006),#618,'','');
#618=(LENGTH_UNIT() NAMED_UNIT(*) SI_UNIT(.MILLI.,.METRE.));
#619=(NAMED_UNIT(*) PLANE_ANGLE_UNIT() SI_UNIT($,.RADIAN.));
#620=(NAMED_UNIT(*) SI_UNIT($,.STERADIAN.) SOLID_ANGLE_UNIT());
#621=APPLICATION_CONTEXT(
   'CONFIGURATION CONTROLLED 3D DESIGNS OF MECHANICAL PARTS AND 
ASSEMBLIES');
#622=APPLICATION_PROTOCOL_DEFINITION('INTERNATIONAL STANDARD',
   'config_control_design',1994,#621);
#623=MECHANICAL_CONTEXT('MECHANICAL_CONTEXT_NAME',#621,'mechanical');
#624=PRODUCT('PRODUCT_ID_1','PRODUCT_NAME_1','PRODUCT_DESCRIPTION',(#623
   ));
#625=PRODUCT_RELATED_PRODUCT_CATEGORY('detail',
   'PRODUCT_RELATED_PRODUCT_CATEGORY_DESCRIPTION',(#624));
#626=PERSON_AND_ORGANIZATION_ROLE('design_owner');
#627=PERSON('ID_1','PERSON_LAST_NAME','PERSON_FIRST_NAME',$,$,$);
#628=ORGANIZATION('ORGANIZATION_ID','ORGANIZATION_NAME',
   'ORGANIZATION_DESCRIPTION');
#629=PERSON_AND_ORGANIZATION(#627,#628);
#630=PRODUCT_DEFINITION_FORMATION_WITH_SPECIFIED_SOURCE(
   'PRODUCT_DEFINITION_FORMATION_ID',
   'PRODUCT_DEFINITION_FORMATION_DESCRIPTION',#624,.NOT_KNOWN.);
#631=PERSON_AND_ORGANIZATION_ROLE('creator');
#632=PERSON('ID_2','PERSON_LAST_NAME','PERSON_FIRST_NAME',$,$,$);
#633=ORGANIZATION('ORGANIZATION_ID','ORGANIZATION_NAME',
   'ORGANIZATION_DESCRIPTION');
#634=PERSON_AND_ORGANIZATION(#632,#633);
#635=PERSON_AND_ORGANIZATION_ROLE('part_supplier');
#636=PERSON('ID_3','PERSON_LAST_NAME','PERSON_FIRST_NAME',$,$,$);
#637=ORGANIZATION('ORGANIZATION_ID','ORGANIZATION_NAME',
   'ORGANIZATION_DESCRIPTION');
#638=PERSON_AND_ORGANIZATION(#636,#637);
#639=APPROVAL_STATUS('approved');
#640=APPROVAL(#639,'APPROVAL_LEVEL');
#641=APPROVAL_ROLE('APPROVAL_ROLE');
#642=APPROVAL_PERSON_ORGANIZATION(#645,#640,#641);
#643=PERSON('ID_4','PERSON_LAST_NAME','PERSON_FIRST_NAME',$,$,$);
#644=ORGANIZATION('ORGANIZATION_ID','ORGANIZATION_NAME',
   'ORGANIZATION_DESCRIPTION');
#645=PERSON_AND_ORGANIZATION(#643,#644);
#646=APPROVAL_DATE_TIME(#650,#640);
#647=CALENDAR_DATE(1997,1,1);
#648=COORDINATED_UNIVERSAL_TIME_OFFSET(0,0,.AHEAD.);
#649=LOCAL_TIME(0,0,0.0E+000,#648);
#650=DATE_AND_TIME(#647,#649);
#651=SECURITY_CLASSIFICATION_LEVEL('classified');
#652=SECURITY_CLASSIFICATION('SECURITY_CLASSIFICATION_NAME',
   'SECURITY_CLASSIFICATION_PURPOSE',#651);
#653=APPROVAL_STATUS('approved');
#654=APPROVAL(#653,'APPROVAL_LEVEL');
#655=APPROVAL_ROLE('APPROVAL_ROLE');
#656=APPROVAL_PERSON_ORGANIZATION(#659,#654,#655);
#657=PERSON('ID_5','PERSON_LAST_NAME','PERSON_FIRST_NAME',$,$,$);
#658=ORGANIZATION('ORGANIZATION_ID','ORGANIZATION_NAME',
   'ORGANIZATION_DESCRIPTION');
#659=PERSON_AND_ORGANIZATION(#657,#658);
#660=APPROVAL_DATE_TIME(#664,#654);
#661=CALENDAR_DATE(1997,1,1);
#662=COORDINATED_UNIVERSAL_TIME_OFFSET(0,0,.AHEAD.);
#663=LOCAL_TIME(0,0,0.0E+000,#662);
#664=DATE_AND_TIME(#661,#663);
#665=PERSON_AND_ORGANIZATION_ROLE('classification_officer');
#666=PERSON('ID_6','PERSON_LAST_NAME','PERSON_FIRST_NAME',$,$,$);
#667=ORGANIZATION('ORGANIZATION_ID','ORGANIZATION_NAME',
   'ORGANIZATION_DESCRIPTION');
#668=PERSON_AND_ORGANIZATION(#666,#667);
#669=DATE_TIME_ROLE('classification_date');
#670=CALENDAR_DATE(1997,1,1);
#671=COORDINATED_UNIVERSAL_TIME_OFFSET(0,0,.AHEAD.);
#672=LOCAL_TIME(0,0,0.0E+000,#671);
#673=DATE_AND_TIME(#670,#672);
#674=DESIGN_CONTEXT('DESIGN_CONTEXT_NAME',#621,'design');
#675=PRODUCT_DEFINITION('PRODUCT_DEFINITION_ID',
   'PRODUCT_DEFINITION_DESCRIPTION',#630,#674);
#676=PERSON_AND_ORGANIZATION_ROLE('creator');
#677=PERSON('ID_7','PERSON_LAST_NAME','PERSON_FIRST_NAME',$,$,$);
#678=ORGANIZATION('ORGANIZATION_ID','ORGANIZATION_NAME',
   'ORGANIZATION_DESCRIPTION');
#679=PERSON_AND_ORGANIZATION(#677,#678);
#680=DATE_TIME_ROLE('creation_date');
#681=CALENDAR_DATE(1997,1,1);
#682=COORDINATED_UNIVERSAL_TIME_OFFSET(0,0,.AHEAD.);
#683=LOCAL_TIME(0,0,0.0E+000,#682);
#684=DATE_AND_TIME(#681,#683);
#685=APPROVAL_STATUS('approved');
#686=APPROVAL(#685,'APPROVAL_LEVEL');
#687=APPROVAL_ROLE('APPROVAL_ROLE');
#688=APPROVAL_PERSON_ORGANIZATION(#691,#686,#687);
#689=PERSON('ID_8','PERSON_LAST_NAME','PERSON_FIRST_NAME',$,$,$);
#690=ORGANIZATION('ORGANIZATION_ID','ORGANIZATION_NAME',
   'ORGANIZATION_DESCRIPTION');
#691=PERSON_AND_ORGANIZATION(#689,#690);
#692=APPROVAL_DATE_TIME(#696,#686);
#693=CALENDAR_DATE(1997,1,1);
#694=COORDINATED_UNIVERSAL_TIME_OFFSET(0,0,.AHEAD.);
#695=LOCAL_TIME(0,0,0.0E+000,#694);
#696=DATE_AND_TIME(#693,#695);
#697=PRODUCT_DEFINITION_SHAPE('PRODUCT_DEFINITION_SHAPE_NAME',
   'PRODUCT_DEFINITION_SHAPE_DESCRIPTION',#675);
#698=SHAPE_DEFINITION_REPRESENTATION(#697,#615);
#699=STYLED_ITEM('',(#700),#614);
#700=PRESENTATION_STYLE_ASSIGNMENT((#702));
#701=COLOUR_RGB('',5.09803921568627E-001,5.09803921568627E-001,
   5.88235294117647E-001);
#702=SURFACE_STYLE_USAGE(.BOTH.,#703);
#703=SURFACE_SIDE_STYLE('',(#704));
#704=SURFACE_STYLE_FILL_AREA(#705);
#705=FILL_AREA_STYLE('',(#706));
#706=FILL_AREA_STYLE_COLOUR('',#701);
#707=STYLED_ITEM('',(#708),#21);
#708=PRESENTATION_STYLE_ASSIGNMENT((#710));
#709=COLOUR_RGB('',5.09803921568627E-001,5.09803921568627E-001,
   5.88235294117647E-001);
#710=SURFACE_STYLE_USAGE(.BOTH.,#711);
#711=SURFACE_SIDE_STYLE('',(#712));
#712=SURFACE_STYLE_FILL_AREA(#713);
#713=FILL_AREA_STYLE('',(#714));
#714=FILL_AREA_STYLE_COLOUR('',#709);
#715=STYLED_ITEM('',(#716),#109);
#716=PRESENTATION_STYLE_ASSIGNMENT((#718));
#717=COLOUR_RGB('',5.09803921568627E-001,5.09803921568627E-001,
   5.88235294117647E-001);
#718=SURFACE_STYLE_USAGE(.BOTH.,#719);
#719=SURFACE_SIDE_STYLE('',(#720));
#720=SURFACE_STYLE_FILL_AREA(#721);
#721=FILL_AREA_STYLE('',(#722));
#722=FILL_AREA_STYLE_COLOUR('',#717);
#723=STYLED_ITEM('',(#724),#141);
#724=PRESENTATION_STYLE_ASSIGNMENT((#726));
#725=COLOUR_RGB('',5.09803921568627E-001,5.09803921568627E-001,
   5.88235294117647E-001);
#726=SURFACE_STYLE_USAGE(.BOTH.,#727);
#727=SURFACE_SIDE_STYLE('',(#728));
#728=SURFACE_STYLE_FILL_AREA(#729);
#729=FILL_AREA_STYLE('',(#730));
#730=FILL_AREA_STYLE_COLOUR('',#725);
#731=STYLED_ITEM('',(#732),#166);
#732=PRESENTATION_STYLE_ASSIGNMENT((#734));
#733=COLOUR_RGB('',5.09803921568627E-001,5.09803921568627E-001,
   5.88235294117647E-001);
#734=SURFACE_STYLE_USAGE(.BOTH.,#735);
#735=SURFACE_SIDE_STYLE('',(#736));
#736=SURFACE_STYLE_FILL_AREA(#737);
#737=FILL_AREA_STYLE('',(#738));
#738=FILL_AREA_STYLE_COLOUR('',#733);
#739=STYLED_ITEM('',(#740),#191);
#740=PRESENTATION_STYLE_ASSIGNMENT((#742));
#741=COLOUR_RGB('',5.09803921568627E-001,5.09803921568627E-001,
   5.88235294117647E-001);
#742=SURFACE_STYLE_USAGE(.BOTH.,#743);
#743=SURFACE_SIDE_STYLE('',(#744));
#744=SURFACE_STYLE_FILL_AREA(#745);
#745=FILL_AREA_STYLE('',(#746));
#746=FILL_AREA_STYLE_COLOUR('',#741);
#747=STYLED_ITEM('',(#748),#216);
#748=PRESENTATION_STYLE_ASSIGNMENT((#750));
#749=COLOUR_RGB('',5.09803921568627E-001,5.09803921568627E-001,
   5.88235294117647E-001);
#750=SURFACE_STYLE_USAGE(.BOTH.,#751);
#751=SURFACE_SIDE_STYLE('',(#752));
#752=SURFACE_STYLE_FILL_AREA(#753);
#753=FILL_AREA_STYLE('',(#754));
#754=FILL_AREA_STYLE_COLOUR('',#749);
#755=STYLED_ITEM('',(#756),#231);
#756=PRESENTATION_STYLE_ASSIGNMENT((#758));
#757=COLOUR_RGB('',5.09803921568627E-001,5.09803921568627E-001,
   5.88235294117647E-001);
#758=SURFACE_STYLE_USAGE(.BOTH.,#759);
#759=SURFACE_SIDE_STYLE('',(#760));
#760=SURFACE_STYLE_FILL_AREA(#761);
#761=FILL_AREA_STYLE('',(#762));
#762=FILL_AREA_STYLE_COLOUR('',#757);
#763=STYLED_ITEM('',(#764),#263);
#764=PRESENTATION_STYLE_ASSIGNMENT((#766));
#765=COLOUR_RGB('',5.09803921568627E-001,5.09803921568627E-001,
   5.88235294117647E-001);
#766=SURFACE_STYLE_USAGE(.BOTH.,#767);
#767=SURFACE_SIDE_STYLE('',(#768));
#768=SURFACE_STYLE_FILL_AREA(#769);
#769=FILL_AREA_STYLE('',(#770));
#770=FILL_AREA_STYLE_COLOUR('',#765);
#771=STYLED_ITEM('',(#772),#271);
#772=PRESENTATION_STYLE_ASSIGNMENT((#774));
#773=COLOUR_RGB('',5.09803921568627E-001,5.09803921568627E-001,
   5.88235294117647E-001);
#774=SURFACE_STYLE_USAGE(.BOTH.,#775);
#775=SURFACE_SIDE_STYLE('',(#776));
#776=SURFACE_STYLE_FILL_AREA(#777);
#777=FILL_AREA_STYLE('',(#778));
#778=FILL_AREA_STYLE_COLOUR('',#773);
#779=STYLED_ITEM('',(#780),#300);
#780=PRESENTATION_STYLE_ASSIGNMENT((#782));
#781=COLOUR_RGB('',5.09803921568627E-001,5.09803921568627E-001,
   5.88235294117647E-001);
#782=SURFACE_STYLE_USAGE(.BOTH.,#783);
#783=SURFACE_SIDE_STYLE('',(#784));
#784=SURFACE_STYLE_FILL_AREA(#785);
#785=FILL_AREA_STYLE('',(#786));
#786=FILL_AREA_STYLE_COLOUR('',#781);
#787=STYLED_ITEM('',(#788),#325);
#788=PRESENTATION_STYLE_ASSIGNMENT((#790));
#789=COLOUR_RGB('',5.09803921568627E-001,5.09803921568627E-001,
   5.88235294117647E-001);
#790=SURFACE_STYLE_USAGE(.BOTH.,#791);
#791=SURFACE_SIDE_STYLE('',(#792));
#792=SURFACE_STYLE_FILL_AREA(#793);
#793=FILL_AREA_STYLE('',(#794));
#794=FILL_AREA_STYLE_COLOUR('',#789);
#795=STYLED_ITEM('',(#796),#340);
#796=PRESENTATION_STYLE_ASSIGNMENT((#798));
#797=COLOUR_RGB('',5.09803921568627E-001,5.09803921568627E-001,
   5.88235294117647E-001);
#798=SURFACE_STYLE_USAGE(.BOTH.,#799);
#799=SURFACE_SIDE_STYLE('',(#800));
#800=SURFACE_STYLE_FILL_AREA(#801);
#801=FILL_AREA_STYLE('',(#802));
#802=FILL_AREA_STYLE_COLOUR('',#797);
#803=STYLED_ITEM('',(#804),#365);
#804=PRESENTATION_STYLE_ASSIGNMENT((#806));
#805=COLOUR_RGB('',5.09803921568627E-001,5.09803921568627E-001,
   5.88235294117647E-001);
#806=SURFACE_STYLE_USAGE(.BOTH.,#807);
#807=SURFACE_SIDE_STYLE('',(#808));
#808=SURFACE_STYLE_FILL_AREA(#809);
#809=FILL_AREA_STYLE('',(#810));
#810=FILL_AREA_STYLE_COLOUR('',#805);
#811=STYLED_ITEM('',(#812),#380);
#812=PRESENTATION_STYLE_ASSIGNMENT((#814));
#813=COLOUR_RGB('',5.09803921568627E-001,5.09803921568627E-001,
   5.88235294117647E-001);
#814=SURFACE_STYLE_USAGE(.BOTH.,#815);
#815=SURFACE_SIDE_STYLE('',(#816));
#816=SURFACE_STYLE_FILL_AREA(#817);
#817=FILL_AREA_STYLE('',(#818));
#818=FILL_AREA_STYLE_COLOUR('',#813);
#819=STYLED_ITEM('',(#820),#395);
#820=PRESENTATION_STYLE_ASSIGNMENT((#822));
#821=COLOUR_RGB('',5.09803921568627E-001,5.09803921568627E-001,
   5.88235294117647E-001);
#822=SURFACE_STYLE_USAGE(.BOTH.,#823);
#823=SURFACE_SIDE_STYLE('',(#824));
#824=SURFACE_STYLE_FILL_AREA(#825);
#825=FILL_AREA_STYLE('',(#826));
#826=FILL_AREA_STYLE_COLOUR('',#821);
#827=STYLED_ITEM('',(#828),#417);
#828=PRESENTATION_STYLE_ASSIGNMENT((#830));
#829=COLOUR_RGB('',5.09803921568627E-001,5.09803921568627E-001,
   5.88235294117647E-001);
#830=SURFACE_STYLE_USAGE(.BOTH.,#831);
#831=SURFACE_SIDE_STYLE('',(#832));
#832=SURFACE_STYLE_FILL_AREA(#833);
#833=FILL_AREA_STYLE('',(#834));
#834=FILL_AREA_STYLE_COLOUR('',#829);
#835=STYLED_ITEM('',(#836),#457);
#836=PRESENTATION_STYLE_ASSIGNMENT((#838));
#837=COLOUR_RGB('',5.09803921568627E-001,5.09803921568627E-001,
   5.88235294117647E-001);
#838=SURFACE_STYLE_USAGE(.BOTH.,#839);
#839=SURFACE_SIDE_STYLE('',(#840));
#840=SURFACE_STYLE_FILL_AREA(#841);
#841=FILL_AREA_STYLE('',(#842));
#842=FILL_AREA_STYLE_COLOUR('',#837);
#843=STYLED_ITEM('',(#844),#489);
#844=PRESENTATION_STYLE_ASSIGNMENT((#846));
#845=COLOUR_RGB('',5.09803921568627E-001,5.09803921568627E-001,
   5.88235294117647E-001);
#846=SURFACE_STYLE_USAGE(.BOTH.,#847);
#847=SURFACE_SIDE_STYLE('',(#848));
#848=SURFACE_STYLE_FILL_AREA(#849);
#849=FILL_AREA_STYLE('',(#850));
#850=FILL_AREA_STYLE_COLOUR('',#845);
#851=STYLED_ITEM('',(#852),#497);
#852=PRESENTATION_STYLE_ASSIGNMENT((#854));
#853=COLOUR_RGB('',5.09803921568627E-001,5.09803921568627E-001,
   5.88235294117647E-001);
#854=SURFACE_STYLE_USAGE(.BOTH.,#855);
#855=SURFACE_SIDE_STYLE('',(#856));
#856=SURFACE_STYLE_FILL_AREA(#857);
#857=FILL_AREA_STYLE('',(#858));
#858=FILL_AREA_STYLE_COLOUR('',#853);
#859=STYLED_ITEM('',(#860),#511);
#860=PRESENTATION_STYLE_ASSIGNMENT((#862));
#861=COLOUR_RGB('',5.09803921568627E-001,5.09803921568627E-001,
   5.88235294117647E-001);
#862=SURFACE_STYLE_USAGE(.BOTH.,#863);
#863=SURFACE_SIDE_STYLE('',(#864));
#864=SURFACE_STYLE_FILL_AREA(#865);
#865=FILL_AREA_STYLE('',(#866));
#866=FILL_AREA_STYLE_COLOUR('',#861);
#867=STYLED_ITEM('',(#868),#545);
#868=PRESENTATION_STYLE_ASSIGNMENT((#870));
#869=COLOUR_RGB('',5.09803921568627E-001,5.09803921568627E-001,
   5.88235294117647E-001);
#870=SURFACE_STYLE_USAGE(.BOTH.,#871);
#871=SURFACE_SIDE_STYLE('',(#872));
#872=SURFACE_STYLE_FILL_AREA(#873);
#873=FILL_AREA_STYLE('',(#874));
#874=FILL_AREA_STYLE_COLOUR('',#869);
#875=STYLED_ITEM('',(#876),#570);
#876=PRESENTATION_STYLE_ASSIGNMENT((#878));
#877=COLOUR_RGB('',5.09803921568627E-001,5.09803921568627E-001,
   5.88235294117647E-001);
#878=SURFACE_STYLE_USAGE(.BOTH.,#879);
#879=SURFACE_SIDE_STYLE('',(#880));
#880=SURFACE_STYLE_FILL_AREA(#881);
#881=FILL_AREA_STYLE('',(#882));
#882=FILL_AREA_STYLE_COLOUR('',#877);
#883=STYLED_ITEM('',(#884),#583);
#884=PRESENTATION_STYLE_ASSIGNMENT((#886));
#885=COLOUR_RGB('',5.09803921568627E-001,5.09803921568627E-001,
   5.88235294117647E-001);
#886=SURFACE_STYLE_USAGE(.BOTH.,#887);
#887=SURFACE_SIDE_STYLE('',(#888));
#888=SURFACE_STYLE_FILL_AREA(#889);
#889=FILL_AREA_STYLE('',(#890));
#890=FILL_AREA_STYLE_COLOUR('',#885);
#891=STYLED_ITEM('',(#892),#605);
#892=PRESENTATION_STYLE_ASSIGNMENT((#894));
#893=COLOUR_RGB('',5.09803921568627E-001,5.09803921568627E-001,
   5.88235294117647E-001);
#894=SURFACE_STYLE_USAGE(.BOTH.,#895);
#895=SURFACE_SIDE_STYLE('',(#896));
#896=SURFACE_STYLE_FILL_AREA(#897);
#897=FILL_AREA_STYLE('',(#898));
#898=FILL_AREA_STYLE_COLOUR('',#893);
#899=STYLED_ITEM('',(#900),#612);
#900=PRESENTATION_STYLE_ASSIGNMENT((#902));
#901=COLOUR_RGB('',5.09803921568627E-001,5.09803921568627E-001,
   5.88235294117647E-001);
#902=SURFACE_STYLE_USAGE(.BOTH.,#903);
#903=SURFACE_SIDE_STYLE('',(#904));
#904=SURFACE_STYLE_FILL_AREA(#905);
#905=FILL_AREA_STYLE('',(#906));
#906=FILL_AREA_STYLE_COLOUR('',#901);
#907=MECHANICAL_DESIGN_GEOMETRIC_PRESENTATION_REPRESENTATION($,(#699,
   #707,#715,#723,#731,#739,#747,#755,#763,#771,#779,#787,#795,#803,#811
   ,#819,#827,#835,#843,#851,#859,#867,#875,#883,#891,#899),#616);
ENDSEC;
END-ISO-10303-21;
                
                  
               
                   
                    
     
                
