ISO-10303-21;
HEADER;
FILE_DESCRIPTION(('starvars output'),'2;1');
FILE_NAME('cv20200718190009000006252.stp','19:00:09   2020/07/18',(
   'Thomas Industrial Network Germany GmbH'),(
   'Thomas Industrial Network Germany GmbH'),'unknown preprocess','ACIS'
   ,'unknown authorization');
FILE_SCHEMA(('AUTOMOTIVE_DESIGN_CC2 {UNKNOWN IMPLEMENTATION LEVEL}'));
ENDSEC;
/* ISO 10303-21 file written by STEP Caselib, ProSTEP GmbH, Germany */
DATA;
#1=CARTESIAN_POINT('POINT1',(-2.865E-001,2.8E-001,2.8E-001));
#2=VERTEX_POINT('VERTEX1',#1);
#3=CARTESIAN_POINT('POINT2',(-2.865E-001,1.45E+000,2.8E-001));
#4=VERTEX_POINT('VERTEX2',#3);
#5=CARTESIAN_POINT('POS1',(-2.865E-001,0.0E+000,2.8E-001));
#6=DIRECTION('DIR1',(0.0E+000,1.0E+000,0.0E+000));
#7=VECTOR('VEC1',#6,1.0E+000);
#8=LINE('STRAIGHT1',#5,#7);
#9=EDGE_CURVE('EDGE1',#2,#4,#8,.T.);
#10=ORIENTED_EDGE('COEDGE1',*,*,#9,.T.);
#11=CARTESIAN_POINT('POINT3',(-2.865E-001,1.45E+000,-2.8E-001));
#12=VERTEX_POINT('VERTEX3',#11);
#13=CARTESIAN_POINT('POS2',(-2.865E-001,1.45E+000,0.0E+000));
#14=DIRECTION('DIR2',(0.0E+000,0.0E+000,-1.0E+000));
#15=VECTOR('VEC2',#14,1.0E+000);
#16=LINE('STRAIGHT2',#13,#15);
#17=EDGE_CURVE('EDGE2',#4,#12,#16,.T.);
#18=ORIENTED_EDGE('COEDGE2',*,*,#17,.T.);
#19=CARTESIAN_POINT('POINT4',(-2.865E-001,2.8E-001,-2.8E-001));
#20=VERTEX_POINT('VERTEX4',#19);
#21=CARTESIAN_POINT('POS3',(-2.865E-001,0.0E+000,-2.8E-001));
#22=DIRECTION('DIR3',(0.0E+000,-1.0E+000,0.0E+000));
#23=VECTOR('VEC3',#22,1.0E+000);
#24=LINE('STRAIGHT3',#21,#23);
#25=EDGE_CURVE('EDGE3',#12,#20,#24,.T.);
#26=ORIENTED_EDGE('COEDGE3',*,*,#25,.T.);
#27=CARTESIAN_POINT('POINT5',(-2.865E-001,2.8E-001,-1.45E+000));
#28=VERTEX_POINT('VERTEX5',#27);
#29=CARTESIAN_POINT('POS4',(-2.865E-001,2.8E-001,0.0E+000));
#30=DIRECTION('DIR4',(0.0E+000,0.0E+000,-1.0E+000));
#31=VECTOR('VEC4',#30,1.0E+000);
#32=LINE('STRAIGHT4',#29,#31);
#33=EDGE_CURVE('EDGE4',#20,#28,#32,.T.);
#34=ORIENTED_EDGE('COEDGE4',*,*,#33,.T.);
#35=CARTESIAN_POINT('POINT6',(-2.865E-001,-2.8E-001,-1.45E+000));
#36=VERTEX_POINT('VERTEX6',#35);
#37=CARTESIAN_POINT('POS5',(-2.865E-001,0.0E+000,-1.45E+000));
#38=DIRECTION('DIR5',(0.0E+000,-1.0E+000,0.0E+000));
#39=VECTOR('VEC5',#38,1.0E+000);
#40=LINE('STRAIGHT5',#37,#39);
#41=EDGE_CURVE('EDGE5',#28,#36,#40,.T.);
#42=ORIENTED_EDGE('COEDGE5',*,*,#41,.T.);
#43=CARTESIAN_POINT('POINT7',(-2.865E-001,-2.8E-001,-2.8E-001));
#44=VERTEX_POINT('VERTEX7',#43);
#45=CARTESIAN_POINT('POS6',(-2.865E-001,-2.8E-001,0.0E+000));
#46=DIRECTION('DIR6',(0.0E+000,0.0E+000,-1.0E+000));
#47=VECTOR('VEC6',#46,1.0E+000);
#48=LINE('STRAIGHT6',#45,#47);
#49=EDGE_CURVE('EDGE6',#44,#36,#48,.T.);
#50=ORIENTED_EDGE('COEDGE6',*,*,#49,.F.);
#51=CARTESIAN_POINT('POINT8',(-2.865E-001,-1.45E+000,-2.8E-001));
#52=VERTEX_POINT('VERTEX8',#51);
#53=EDGE_CURVE('EDGE7',#44,#52,#24,.T.);
#54=ORIENTED_EDGE('COEDGE7',*,*,#53,.T.);
#55=CARTESIAN_POINT('POINT9',(-2.865E-001,-1.45E+000,2.8E-001));
#56=VERTEX_POINT('VERTEX9',#55);
#57=CARTESIAN_POINT('POS7',(-2.865E-001,-1.45E+000,0.0E+000));
#58=DIRECTION('DIR7',(0.0E+000,0.0E+000,-1.0E+000));
#59=VECTOR('VEC7',#58,1.0E+000);
#60=LINE('STRAIGHT7',#57,#59);
#61=EDGE_CURVE('EDGE8',#56,#52,#60,.T.);
#62=ORIENTED_EDGE('COEDGE8',*,*,#61,.F.);
#63=CARTESIAN_POINT('POINT10',(-2.865E-001,-2.8E-001,2.8E-001));
#64=VERTEX_POINT('VERTEX10',#63);
#65=EDGE_CURVE('EDGE9',#56,#64,#8,.T.);
#66=ORIENTED_EDGE('COEDGE9',*,*,#65,.T.);
#67=CARTESIAN_POINT('POINT11',(-2.865E-001,-2.8E-001,1.45E+000));
#68=VERTEX_POINT('VERTEX11',#67);
#69=EDGE_CURVE('EDGE10',#68,#64,#48,.T.);
#70=ORIENTED_EDGE('COEDGE10',*,*,#69,.F.);
#71=CARTESIAN_POINT('POINT12',(-2.865E-001,2.8E-001,1.45E+000));
#72=VERTEX_POINT('VERTEX12',#71);
#73=CARTESIAN_POINT('POS8',(-2.865E-001,0.0E+000,1.45E+000));
#74=DIRECTION('DIR8',(0.0E+000,1.0E+000,0.0E+000));
#75=VECTOR('VEC8',#74,1.0E+000);
#76=LINE('STRAIGHT8',#73,#75);
#77=EDGE_CURVE('EDGE11',#68,#72,#76,.T.);
#78=ORIENTED_EDGE('COEDGE11',*,*,#77,.T.);
#79=EDGE_CURVE('EDGE12',#72,#2,#32,.T.);
#80=ORIENTED_EDGE('COEDGE12',*,*,#79,.T.);
#81=EDGE_LOOP('NONE',(#10,#18,#26,#34,#42,#50,#54,#62,#66,#70,#78,#80));
#82=FACE_BOUND('LOOP1',#81,.T.);
#83=CARTESIAN_POINT('POS9',(-2.865E-001,0.0E+000,0.0E+000));
#84=DIRECTION('DIR9',(-1.0E+000,0.0E+000,0.0E+000));
#85=DIRECTION('DIR10',(0.0E+000,1.0E+000,0.0E+000));
#86=AXIS2_PLACEMENT_3D('AXIS1',#83,#84,#85);
#87=PLANE('PLANE1',#86);
#88=ADVANCED_FACE('FACE1',(#82),#87,.T.);
#89=CARTESIAN_POINT('POINT13',(-1.65E+000,2.8E-001,2.8E-001));
#90=VERTEX_POINT('VERTEX13',#89);
#91=CARTESIAN_POINT('POS10',(-9.6825E-001,2.8E-001,2.8E-001));
#92=DIRECTION('DIR11',(-1.0E+000,0.0E+000,0.0E+000));
#93=VECTOR('VEC9',#92,1.0E+000);
#94=LINE('STRAIGHT9',#91,#93);
#95=EDGE_CURVE('EDGE13',#2,#90,#94,.T.);
#96=ORIENTED_EDGE('COEDGE13',*,*,#95,.T.);
#97=CARTESIAN_POINT('POINT14',(-1.65E+000,1.45E+000,2.8E-001));
#98=VERTEX_POINT('VERTEX14',#97);
#99=CARTESIAN_POINT('POS11',(-1.65E+000,5.05150120951731E-017,2.8E-001))
   ;
#100=DIRECTION('DIR12',(-0.0E+000,-1.0E+000,0.0E+000));
#101=VECTOR('VEC10',#100,1.0E+000);
#102=LINE('STRAIGHT10',#99,#101);
#103=EDGE_CURVE('EDGE14',#98,#90,#102,.T.);
#104=ORIENTED_EDGE('COEDGE14',*,*,#103,.F.);
#105=CARTESIAN_POINT('POS12',(-9.6825E-001,1.45E+000,2.8E-001));
#106=DIRECTION('DIR13',(-1.0E+000,0.0E+000,0.0E+000));
#107=VECTOR('VEC11',#106,1.0E+000);
#108=LINE('STRAIGHT11',#105,#107);
#109=EDGE_CURVE('EDGE15',#4,#98,#108,.T.);
#110=ORIENTED_EDGE('COEDGE15',*,*,#109,.F.);
#111=ORIENTED_EDGE('COEDGE16',*,*,#9,.F.);
#112=EDGE_LOOP('NONE',(#96,#104,#110,#111));
#113=FACE_BOUND('LOOP1',#112,.T.);
#114=CARTESIAN_POINT('POS13',(-9.6825E-001,0.0E+000,2.8E-001));
#115=DIRECTION('DIR14',(0.0E+000,0.0E+000,1.0E+000));
#116=DIRECTION('DIR15',(1.0E+000,0.0E+000,0.0E+000));
#117=AXIS2_PLACEMENT_3D('AXIS2',#114,#115,#116);
#118=PLANE('PLANE2',#117);
#119=ADVANCED_FACE('FACE2',(#113),#118,.F.);
#120=ORIENTED_EDGE('COEDGE17',*,*,#17,.F.);
#121=ORIENTED_EDGE('COEDGE18',*,*,#109,.T.);
#122=CARTESIAN_POINT('POINT15',(-1.65E+000,1.45E+000,-2.8E-001));
#123=VERTEX_POINT('VERTEX15',#122);
#124=CARTESIAN_POINT('POS14',(-1.65E+000,1.45E+000,7.0E-001));
#125=DIRECTION('DIR16',(-1.83690953073357E-016,0.0E+000,1.0E+000));
#126=VECTOR('VEC12',#125,1.0E+000);
#127=LINE('STRAIGHT12',#124,#126);
#128=EDGE_CURVE('EDGE16',#123,#98,#127,.T.);
#129=ORIENTED_EDGE('COEDGE19',*,*,#128,.F.);
#130=CARTESIAN_POINT('POS15',(-9.6825E-001,1.45E+000,-2.8E-001));
#131=DIRECTION('DIR17',(1.0E+000,0.0E+000,0.0E+000));
#132=VECTOR('VEC13',#131,1.0E+000);
#133=LINE('STRAIGHT13',#130,#132);
#134=EDGE_CURVE('EDGE17',#123,#12,#133,.T.);
#135=ORIENTED_EDGE('COEDGE20',*,*,#134,.T.);
#136=EDGE_LOOP('NONE',(#120,#121,#129,#135));
#137=FACE_BOUND('LOOP1',#136,.T.);
#138=CARTESIAN_POINT('POS16',(-9.6825E-001,1.45E+000,0.0E+000));
#139=DIRECTION('DIR18',(0.0E+000,-1.0E+000,0.0E+000));
#140=DIRECTION('DIR19',(1.0E+000,0.0E+000,0.0E+000));
#141=AXIS2_PLACEMENT_3D('AXIS3',#138,#139,#140);
#142=PLANE('PLANE3',#141);
#143=ADVANCED_FACE('FACE3',(#137),#142,.T.);
#144=CARTESIAN_POINT('POINT16',(-1.65E+000,2.8E-001,-2.8E-001));
#145=VERTEX_POINT('VERTEX16',#144);
#146=CARTESIAN_POINT('POS17',(-9.6825E-001,2.8E-001,-2.8E-001));
#147=DIRECTION('DIR20',(1.0E+000,0.0E+000,-0.0E+000));
#148=VECTOR('VEC14',#147,1.0E+000);
#149=LINE('STRAIGHT14',#146,#148);
#150=EDGE_CURVE('EDGE18',#145,#20,#149,.T.);
#151=ORIENTED_EDGE('COEDGE21',*,*,#150,.T.);
#152=ORIENTED_EDGE('COEDGE22',*,*,#25,.F.);
#153=ORIENTED_EDGE('COEDGE23',*,*,#134,.F.);
#154=CARTESIAN_POINT('POS18',(-1.65E+000,5.05150120951731E-017,-2.8E-001
   ));
#155=DIRECTION('DIR21',(0.0E+000,1.0E+000,-0.0E+000));
#156=VECTOR('VEC15',#155,1.0E+000);
#157=LINE('STRAIGHT15',#154,#156);
#158=EDGE_CURVE('EDGE19',#145,#123,#157,.T.);
#159=ORIENTED_EDGE('COEDGE24',*,*,#158,.F.);
#160=EDGE_LOOP('NONE',(#151,#152,#153,#159));
#161=FACE_BOUND('LOOP1',#160,.T.);
#162=CARTESIAN_POINT('POS19',(-9.6825E-001,0.0E+000,-2.8E-001));
#163=DIRECTION('DIR22',(0.0E+000,0.0E+000,1.0E+000));
#164=DIRECTION('DIR23',(1.0E+000,0.0E+000,0.0E+000));
#165=AXIS2_PLACEMENT_3D('AXIS4',#162,#163,#164);
#166=PLANE('PLANE4',#165);
#167=ADVANCED_FACE('FACE4',(#161),#166,.T.);
#168=ORIENTED_EDGE('COEDGE25',*,*,#150,.F.);
#169=CARTESIAN_POINT('POINT17',(-1.65E+000,2.8E-001,-1.45E+000));
#170=VERTEX_POINT('VERTEX17',#169);
#171=CARTESIAN_POINT('POS20',(-1.65E+000,2.8E-001,7.0E-001));
#172=DIRECTION('DIR24',(-1.83690953073357E-016,0.0E+000,1.0E+000));
#173=VECTOR('VEC16',#172,1.0E+000);
#174=LINE('STRAIGHT16',#171,#173);
#175=EDGE_CURVE('EDGE20',#170,#145,#174,.T.);
#176=ORIENTED_EDGE('COEDGE26',*,*,#175,.F.);
#177=CARTESIAN_POINT('POS21',(-9.6825E-001,2.8E-001,-1.45E+000));
#178=DIRECTION('DIR25',(1.0E+000,0.0E+000,0.0E+000));
#179=VECTOR('VEC17',#178,1.0E+000);
#180=LINE('STRAIGHT17',#177,#179);
#181=EDGE_CURVE('EDGE21',#170,#28,#180,.T.);
#182=ORIENTED_EDGE('COEDGE27',*,*,#181,.T.);
#183=ORIENTED_EDGE('COEDGE28',*,*,#33,.F.);
#184=EDGE_LOOP('NONE',(#168,#176,#182,#183));
#185=FACE_BOUND('LOOP1',#184,.T.);
#186=CARTESIAN_POINT('POS22',(-9.6825E-001,2.8E-001,0.0E+000));
#187=DIRECTION('DIR26',(0.0E+000,-1.0E+000,0.0E+000));
#188=DIRECTION('DIR27',(1.0E+000,0.0E+000,0.0E+000));
#189=AXIS2_PLACEMENT_3D('AXIS5',#186,#187,#188);
#190=PLANE('PLANE5',#189);
#191=ADVANCED_FACE('FACE5',(#185),#190,.T.);
#192=ORIENTED_EDGE('COEDGE29',*,*,#41,.F.);
#193=ORIENTED_EDGE('COEDGE30',*,*,#181,.F.);
#194=CARTESIAN_POINT('POINT18',(-1.65E+000,-2.8E-001,-1.45E+000));
#195=VERTEX_POINT('VERTEX18',#194);
#196=CARTESIAN_POINT('POS23',(-1.65E+000,5.05150120951731E-017,
   -1.45E+000));
#197=DIRECTION('DIR28',(0.0E+000,1.0E+000,-0.0E+000));
#198=VECTOR('VEC18',#197,1.0E+000);
#199=LINE('STRAIGHT18',#196,#198);
#200=EDGE_CURVE('EDGE22',#195,#170,#199,.T.);
#201=ORIENTED_EDGE('COEDGE31',*,*,#200,.F.);
#202=CARTESIAN_POINT('POS24',(-9.6825E-001,-2.8E-001,-1.45E+000));
#203=DIRECTION('DIR29',(-1.0E+000,0.0E+000,0.0E+000));
#204=VECTOR('VEC19',#203,1.0E+000);
#205=LINE('STRAIGHT19',#202,#204);
#206=EDGE_CURVE('EDGE23',#36,#195,#205,.T.);
#207=ORIENTED_EDGE('COEDGE32',*,*,#206,.F.);
#208=EDGE_LOOP('NONE',(#192,#193,#201,#207));
#209=FACE_BOUND('LOOP1',#208,.T.);
#210=CARTESIAN_POINT('POS25',(-9.6825E-001,0.0E+000,-1.45E+000));
#211=DIRECTION('DIR30',(0.0E+000,0.0E+000,1.0E+000));
#212=DIRECTION('DIR31',(1.0E+000,0.0E+000,0.0E+000));
#213=AXIS2_PLACEMENT_3D('AXIS6',#210,#211,#212);
#214=PLANE('PLANE6',#213);
#215=ADVANCED_FACE('FACE6',(#209),#214,.T.);
#216=CARTESIAN_POINT('POINT19',(-1.65E+000,-2.8E-001,-2.8E-001));
#217=VERTEX_POINT('VERTEX19',#216);
#218=CARTESIAN_POINT('POS26',(-9.6825E-001,-2.8E-001,-2.8E-001));
#219=DIRECTION('DIR32',(-1.0E+000,0.0E+000,0.0E+000));
#220=VECTOR('VEC20',#219,1.0E+000);
#221=LINE('STRAIGHT20',#218,#220);
#222=EDGE_CURVE('EDGE24',#44,#217,#221,.T.);
#223=ORIENTED_EDGE('COEDGE33',*,*,#222,.F.);
#224=ORIENTED_EDGE('COEDGE34',*,*,#49,.T.);
#225=ORIENTED_EDGE('COEDGE35',*,*,#206,.T.);
#226=CARTESIAN_POINT('POS27',(-1.65E+000,-2.8E-001,7.0E-001));
#227=DIRECTION('DIR33',(1.83690953073357E-016,0.0E+000,-1.0E+000));
#228=VECTOR('VEC21',#227,1.0E+000);
#229=LINE('STRAIGHT21',#226,#228);
#230=EDGE_CURVE('EDGE25',#217,#195,#229,.T.);
#231=ORIENTED_EDGE('COEDGE36',*,*,#230,.F.);
#232=EDGE_LOOP('NONE',(#223,#224,#225,#231));
#233=FACE_BOUND('LOOP1',#232,.T.);
#234=CARTESIAN_POINT('POS28',(-9.6825E-001,-2.8E-001,0.0E+000));
#235=DIRECTION('DIR34',(0.0E+000,1.0E+000,0.0E+000));
#236=DIRECTION('DIR35',(1.0E+000,0.0E+000,0.0E+000));
#237=AXIS2_PLACEMENT_3D('AXIS7',#234,#235,#236);
#238=PLANE('PLANE7',#237);
#239=ADVANCED_FACE('FACE7',(#233),#238,.T.);
#240=ORIENTED_EDGE('COEDGE37',*,*,#222,.T.);
#241=CARTESIAN_POINT('POINT20',(-1.65E+000,-1.45E+000,-2.8E-001));
#242=VERTEX_POINT('VERTEX20',#241);
#243=EDGE_CURVE('EDGE26',#242,#217,#157,.T.);
#244=ORIENTED_EDGE('COEDGE38',*,*,#243,.F.);
#245=CARTESIAN_POINT('POS29',(-9.6825E-001,-1.45E+000,-2.8E-001));
#246=DIRECTION('DIR36',(-1.0E+000,0.0E+000,0.0E+000));
#247=VECTOR('VEC22',#246,1.0E+000);
#248=LINE('STRAIGHT22',#245,#247);
#249=EDGE_CURVE('EDGE27',#52,#242,#248,.T.);
#250=ORIENTED_EDGE('COEDGE39',*,*,#249,.F.);
#251=ORIENTED_EDGE('COEDGE40',*,*,#53,.F.);
#252=EDGE_LOOP('NONE',(#240,#244,#250,#251));
#253=FACE_BOUND('LOOP1',#252,.T.);
#254=ADVANCED_FACE('FACE8',(#253),#166,.T.);
#255=CARTESIAN_POINT('POINT21',(-1.65E+000,-1.45E+000,2.8E-001));
#256=VERTEX_POINT('VERTEX21',#255);
#257=CARTESIAN_POINT('POS30',(-1.65E+000,-1.45E+000,7.0E-001));
#258=DIRECTION('DIR37',(1.83690953073357E-016,0.0E+000,-1.0E+000));
#259=VECTOR('VEC23',#258,1.0E+000);
#260=LINE('STRAIGHT23',#257,#259);
#261=EDGE_CURVE('EDGE28',#256,#242,#260,.T.);
#262=ORIENTED_EDGE('COEDGE41',*,*,#261,.F.);
#263=CARTESIAN_POINT('POS31',(-9.6825E-001,-1.45E+000,2.8E-001));
#264=DIRECTION('DIR38',(1.0E+000,0.0E+000,0.0E+000));
#265=VECTOR('VEC24',#264,1.0E+000);
#266=LINE('STRAIGHT24',#263,#265);
#267=EDGE_CURVE('EDGE29',#256,#56,#266,.T.);
#268=ORIENTED_EDGE('COEDGE42',*,*,#267,.T.);
#269=ORIENTED_EDGE('COEDGE43',*,*,#61,.T.);
#270=ORIENTED_EDGE('COEDGE44',*,*,#249,.T.);
#271=EDGE_LOOP('NONE',(#262,#268,#269,#270));
#272=FACE_BOUND('LOOP1',#271,.T.);
#273=CARTESIAN_POINT('POS32',(-9.6825E-001,-1.45E+000,0.0E+000));
#274=DIRECTION('DIR39',(0.0E+000,1.0E+000,0.0E+000));
#275=DIRECTION('DIR40',(1.0E+000,0.0E+000,0.0E+000));
#276=AXIS2_PLACEMENT_3D('AXIS8',#273,#274,#275);
#277=PLANE('PLANE8',#276);
#278=ADVANCED_FACE('FACE9',(#272),#277,.T.);
#279=CARTESIAN_POINT('POINT22',(-1.65E+000,-2.8E-001,2.8E-001));
#280=VERTEX_POINT('VERTEX22',#279);
#281=CARTESIAN_POINT('POS33',(-9.6825E-001,-2.8E-001,2.8E-001));
#282=DIRECTION('DIR41',(1.0E+000,0.0E+000,0.0E+000));
#283=VECTOR('VEC25',#282,1.0E+000);
#284=LINE('STRAIGHT25',#281,#283);
#285=EDGE_CURVE('EDGE30',#280,#64,#284,.T.);
#286=ORIENTED_EDGE('COEDGE45',*,*,#285,.T.);
#287=ORIENTED_EDGE('COEDGE46',*,*,#65,.F.);
#288=ORIENTED_EDGE('COEDGE47',*,*,#267,.F.);
#289=EDGE_CURVE('EDGE31',#280,#256,#102,.T.);
#290=ORIENTED_EDGE('COEDGE48',*,*,#289,.F.);
#291=EDGE_LOOP('NONE',(#286,#287,#288,#290));
#292=FACE_BOUND('LOOP1',#291,.T.);
#293=ADVANCED_FACE('FACE10',(#292),#118,.F.);
#294=ORIENTED_EDGE('COEDGE49',*,*,#285,.F.);
#295=CARTESIAN_POINT('POINT23',(-1.65E+000,-2.8E-001,1.45E+000));
#296=VERTEX_POINT('VERTEX23',#295);
#297=EDGE_CURVE('EDGE32',#296,#280,#229,.T.);
#298=ORIENTED_EDGE('COEDGE50',*,*,#297,.F.);
#299=CARTESIAN_POINT('POS34',(-9.6825E-001,-2.8E-001,1.45E+000));
#300=DIRECTION('DIR42',(1.0E+000,0.0E+000,0.0E+000));
#301=VECTOR('VEC26',#300,1.0E+000);
#302=LINE('STRAIGHT26',#299,#301);
#303=EDGE_CURVE('EDGE33',#296,#68,#302,.T.);
#304=ORIENTED_EDGE('COEDGE51',*,*,#303,.T.);
#305=ORIENTED_EDGE('COEDGE52',*,*,#69,.T.);
#306=EDGE_LOOP('NONE',(#294,#298,#304,#305));
#307=FACE_BOUND('LOOP1',#306,.T.);
#308=ADVANCED_FACE('FACE11',(#307),#238,.T.);
#309=ORIENTED_EDGE('COEDGE53',*,*,#77,.F.);
#310=ORIENTED_EDGE('COEDGE54',*,*,#303,.F.);
#311=CARTESIAN_POINT('POINT24',(-1.65E+000,2.8E-001,1.45E+000));
#312=VERTEX_POINT('VERTEX24',#311);
#313=CARTESIAN_POINT('POS35',(-1.65E+000,5.05150120951731E-017,1.45E+000
   ));
#314=DIRECTION('DIR43',(-0.0E+000,-1.0E+000,0.0E+000));
#315=VECTOR('VEC27',#314,1.0E+000);
#316=LINE('STRAIGHT27',#313,#315);
#317=EDGE_CURVE('EDGE34',#312,#296,#316,.T.);
#318=ORIENTED_EDGE('COEDGE55',*,*,#317,.F.);
#319=CARTESIAN_POINT('POS36',(-9.6825E-001,2.8E-001,1.45E+000));
#320=DIRECTION('DIR44',(-1.0E+000,0.0E+000,0.0E+000));
#321=VECTOR('VEC28',#320,1.0E+000);
#322=LINE('STRAIGHT28',#319,#321);
#323=EDGE_CURVE('EDGE35',#72,#312,#322,.T.);
#324=ORIENTED_EDGE('COEDGE56',*,*,#323,.F.);
#325=EDGE_LOOP('NONE',(#309,#310,#318,#324));
#326=FACE_BOUND('LOOP1',#325,.T.);
#327=CARTESIAN_POINT('POS37',(-9.6825E-001,0.0E+000,1.45E+000));
#328=DIRECTION('DIR45',(0.0E+000,0.0E+000,1.0E+000));
#329=DIRECTION('DIR46',(1.0E+000,0.0E+000,0.0E+000));
#330=AXIS2_PLACEMENT_3D('AXIS9',#327,#328,#329);
#331=PLANE('PLANE9',#330);
#332=ADVANCED_FACE('FACE12',(#326),#331,.F.);
#333=ORIENTED_EDGE('COEDGE57',*,*,#95,.F.);
#334=ORIENTED_EDGE('COEDGE58',*,*,#79,.F.);
#335=ORIENTED_EDGE('COEDGE59',*,*,#323,.T.);
#336=EDGE_CURVE('EDGE36',#90,#312,#174,.T.);
#337=ORIENTED_EDGE('COEDGE60',*,*,#336,.F.);
#338=EDGE_LOOP('NONE',(#333,#334,#335,#337));
#339=FACE_BOUND('LOOP1',#338,.T.);
#340=ADVANCED_FACE('FACE13',(#339),#190,.T.);
#341=CARTESIAN_POINT('POINT25',(-1.65E+000,1.01030024190346E-016,
   2.8E+000));
#342=VERTEX_POINT('VERTEX25',#341);
#343=CARTESIAN_POINT('POINT26',(-1.65E+000,-3.42889779070266E-016,
   -2.8E+000));
#344=VERTEX_POINT('VERTEX26',#343);
#345=CARTESIAN_POINT('POS38',(-1.65E+000,0.0E+000,-3.03090072571038E-016
   ));
#346=DIRECTION('DIR47',(1.0E+000,0.0E+000,1.83690953073357E-016));
#347=DIRECTION('DIR48',(-1.83690953073357E-016,0.0E+000,1.0E+000));
#348=AXIS2_PLACEMENT_3D('AXIS10',#345,#346,#347);
#349=CIRCLE('ELLIPSE1',#348,2.8E+000);
#350=EDGE_CURVE('EDGE37',#342,#344,#349,.T.);
#351=ORIENTED_EDGE('COEDGE61',*,*,#350,.F.);
#352=EDGE_CURVE('EDGE38',#344,#342,#349,.T.);
#353=ORIENTED_EDGE('COEDGE62',*,*,#352,.F.);
#354=EDGE_LOOP('NONE',(#351,#353));
#355=FACE_BOUND('LOOP1',#354,.T.);
#356=ORIENTED_EDGE('COEDGE63',*,*,#336,.T.);
#357=ORIENTED_EDGE('COEDGE64',*,*,#317,.T.);
#358=ORIENTED_EDGE('COEDGE65',*,*,#297,.T.);
#359=ORIENTED_EDGE('COEDGE66',*,*,#289,.T.);
#360=ORIENTED_EDGE('COEDGE67',*,*,#261,.T.);
#361=ORIENTED_EDGE('COEDGE68',*,*,#243,.T.);
#362=ORIENTED_EDGE('COEDGE69',*,*,#230,.T.);
#363=ORIENTED_EDGE('COEDGE70',*,*,#200,.T.);
#364=ORIENTED_EDGE('COEDGE71',*,*,#175,.T.);
#365=ORIENTED_EDGE('COEDGE72',*,*,#158,.T.);
#366=ORIENTED_EDGE('COEDGE73',*,*,#128,.T.);
#367=ORIENTED_EDGE('COEDGE74',*,*,#103,.T.);
#368=EDGE_LOOP('NONE',(#356,#357,#358,#359,#360,#361,#362,#363,#364,#365
   ,#366,#367));
#369=FACE_BOUND('LOOP1',#368,.T.);
#370=CARTESIAN_POINT('POS39',(-1.65E+000,1.01030024190346E-016,1.4E+000)
   );
#371=DIRECTION('DIR49',(-1.0E+000,0.0E+000,-1.83690953073357E-016));
#372=DIRECTION('DIR50',(0.0E+000,1.0E+000,0.0E+000));
#373=AXIS2_PLACEMENT_3D('AXIS11',#370,#371,#372);
#374=PLANE('PLANE10',#373);
#375=ADVANCED_FACE('FACE14',(#355,#369),#374,.T.);
#376=CARTESIAN_POINT('POINT27',(-1.485E+000,9.09270217713115E-017,
   2.8E+000));
#377=VERTEX_POINT('VERTEX27',#376);
#378=CARTESIAN_POINT('POS40',(-1.5675E+000,3.42889779070266E-016,
   2.8E+000));
#379=DIRECTION('DIR51',(1.0E+000,0.0E+000,1.83690953073357E-016));
#380=VECTOR('VEC29',#379,1.0E+000);
#381=LINE('STRAIGHT29',#378,#380);
#382=EDGE_CURVE('EDGE39',#342,#377,#381,.T.);
#383=ORIENTED_EDGE('COEDGE75',*,*,#382,.T.);
#384=CARTESIAN_POINT('POINT28',(-1.485E+000,-3.42889779070266E-016,
   -2.8E+000));
#385=VERTEX_POINT('VERTEX28',#384);
#386=CARTESIAN_POINT('POS41',(-1.485E+000,0.0E+000,
   -2.72781065313935E-016));
#387=DIRECTION('DIR52',(1.0E+000,0.0E+000,1.83690953073357E-016));
#388=DIRECTION('DIR53',(-1.83690953073357E-016,0.0E+000,1.0E+000));
#389=AXIS2_PLACEMENT_3D('AXIS12',#386,#387,#388);
#390=CIRCLE('ELLIPSE2',#389,2.8E+000);
#391=EDGE_CURVE('EDGE40',#385,#377,#390,.T.);
#392=ORIENTED_EDGE('COEDGE76',*,*,#391,.F.);
#393=CARTESIAN_POINT('POS42',(-1.5675E+000,-3.42889779070266E-016,
   -2.8E+000));
#394=DIRECTION('DIR54',(-1.0E+000,-0.0E+000,-1.83690953073357E-016));
#395=VECTOR('VEC30',#394,1.0E+000);
#396=LINE('STRAIGHT30',#393,#395);
#397=EDGE_CURVE('EDGE41',#385,#344,#396,.T.);
#398=ORIENTED_EDGE('COEDGE77',*,*,#397,.T.);
#399=ORIENTED_EDGE('COEDGE78',*,*,#352,.T.);
#400=EDGE_LOOP('NONE',(#383,#392,#398,#399));
#401=FACE_BOUND('LOOP1',#400,.T.);
#402=CARTESIAN_POINT('POS43',(-1.5675E+000,0.0E+000,
   -2.87935568942486E-016));
#403=DIRECTION('DIR55',(1.0E+000,0.0E+000,1.83690953073357E-016));
#404=DIRECTION('DIR56',(-1.83690953073357E-016,0.0E+000,1.0E+000));
#405=AXIS2_PLACEMENT_3D('AXIS13',#402,#403,#404);
#406=CYLINDRICAL_SURFACE('CONE_SURF1',#405,2.8E+000);
#407=ADVANCED_FACE('FACE15',(#401),#406,.T.);
#408=ORIENTED_EDGE('COEDGE79',*,*,#382,.F.);
#409=ORIENTED_EDGE('COEDGE80',*,*,#350,.T.);
#410=ORIENTED_EDGE('COEDGE81',*,*,#397,.F.);
#411=EDGE_CURVE('EDGE42',#377,#385,#390,.T.);
#412=ORIENTED_EDGE('COEDGE82',*,*,#411,.F.);
#413=EDGE_LOOP('NONE',(#408,#409,#410,#412));
#414=FACE_BOUND('LOOP1',#413,.T.);
#415=ADVANCED_FACE('FACE16',(#414),#406,.T.);
#416=CARTESIAN_POINT('POINT29',(4.35E+000,2.66351881956367E-016,
   1.1935E+000));
#417=VERTEX_POINT('VERTEX29',#416);
#418=CARTESIAN_POINT('POINT30',(4.35E+000,-4.12424543355997E-016,
   -1.1935E+000));
#419=VERTEX_POINT('VERTEX30',#418);
#420=CARTESIAN_POINT('POS44',(4.35E+000,0.0E+000,2.66351881956367E-016))
   ;
#421=DIRECTION('DIR57',(1.0E+000,-2.73691106313441E-048,
   6.12303176911189E-017));
#422=DIRECTION('DIR58',(-6.12303176911189E-017,2.23098261438874E-016,
   1.0E+000));
#423=AXIS2_PLACEMENT_3D('AXIS14',#420,#421,#422);
#424=CIRCLE('ELLIPSE3',#423,1.1935E+000);
#425=EDGE_CURVE('EDGE43',#417,#419,#424,.T.);
#426=ORIENTED_EDGE('COEDGE83',*,*,#425,.T.);
#427=EDGE_CURVE('EDGE44',#419,#417,#424,.T.);
#428=ORIENTED_EDGE('COEDGE84',*,*,#427,.T.);
#429=EDGE_LOOP('NONE',(#426,#428));
#430=FACE_BOUND('LOOP1',#429,.T.);
#431=CARTESIAN_POINT('POS45',(4.35E+000,2.66351881956367E-016,-7.5E-001)
   );
#432=DIRECTION('DIR59',(1.0E+000,0.0E+000,6.12303176911189E-017));
#433=DIRECTION('DIR60',(0.0E+000,1.0E+000,0.0E+000));
#434=AXIS2_PLACEMENT_3D('AXIS15',#431,#432,#433);
#435=PLANE('PLANE11',#434);
#436=ADVANCED_FACE('FACE17',(#430),#435,.T.);
#437=CARTESIAN_POINT('POINT31',(4.0435E+000,2.47584789584039E-016,
   1.5E+000));
#438=VERTEX_POINT('VERTEX31',#437);
#439=CARTESIAN_POINT('POS46',(4.19675E+000,4.65381444293832E-016,
   1.34675E+000));
#440=DIRECTION('DIR61',(-7.07106781186547E-001,2.44347039241551E-016,
   7.07106781186548E-001));
#441=VECTOR('VEC31',#440,1.0E+000);
#442=LINE('STRAIGHT31',#439,#441);
#443=EDGE_CURVE('EDGE45',#417,#438,#442,.T.);
#444=ORIENTED_EDGE('COEDGE85',*,*,#443,.F.);
#445=ORIENTED_EDGE('COEDGE86',*,*,#427,.F.);
#446=CARTESIAN_POINT('POINT32',(4.0435E+000,-5.18338345231667E-016,
   -1.5E+000));
#447=VERTEX_POINT('VERTEX32',#446);
#448=CARTESIAN_POINT('POS47',(4.19675E+000,-4.65381444293832E-016,
   -1.34675E+000));
#449=DIRECTION('DIR62',(7.07106781186547E-001,2.4434703924155E-016,
   7.07106781186548E-001));
#450=VECTOR('VEC32',#449,1.0E+000);
#451=LINE('STRAIGHT32',#448,#450);
#452=EDGE_CURVE('EDGE46',#447,#419,#451,.T.);
#453=ORIENTED_EDGE('COEDGE87',*,*,#452,.F.);
#454=CARTESIAN_POINT('POS48',(4.0435E+000,0.0E+000,2.47584789584039E-016
   ));
#455=DIRECTION('DIR63',(-1.0E+000,0.0E+000,-6.12303176911189E-017));
#456=DIRECTION('DIR64',(6.12303176911189E-017,0.0E+000,-1.0E+000));
#457=AXIS2_PLACEMENT_3D('AXIS16',#454,#455,#456);
#458=CIRCLE('ELLIPSE4',#457,1.5E+000);
#459=EDGE_CURVE('EDGE47',#438,#447,#458,.T.);
#460=ORIENTED_EDGE('COEDGE88',*,*,#459,.F.);
#461=EDGE_LOOP('NONE',(#444,#445,#453,#460));
#462=FACE_BOUND('LOOP1',#461,.T.);
#463=CARTESIAN_POINT('POS49',(4.19675E+000,0.0E+000,
   2.56968335770203E-016));
#464=DIRECTION('DIR65',(-1.0E+000,0.0E+000,-6.12303176911189E-017));
#465=DIRECTION('DIR66',(-6.12303176911189E-017,2.23098261438874E-016,
   1.0E+000));
#466=AXIS2_PLACEMENT_3D('AXIS17',#463,#464,#465);
#467=CONICAL_SURFACE('CONE_SURF2',#466,1.34675E+000,
   7.85398163397449E-001);
#468=ADVANCED_FACE('FACE18',(#462),#467,.T.);
#469=CARTESIAN_POINT('POINT33',(-9.18454765366783E-017,
   1.83690953073357E-016,1.5E+000));
#470=VERTEX_POINT('VERTEX33',#469);
#471=CARTESIAN_POINT('POS50',(-7.425E-001,2.63290366071811E-016,
   2.15E+000));
#472=DIRECTION('DIR67',(7.52419737064591E-001,-8.06628544091488E-017,
   -6.58683944905029E-001));
#473=VECTOR('VEC33',#472,1.0E+000);
#474=LINE('STRAIGHT33',#471,#473);
#475=EDGE_CURVE('EDGE48',#377,#470,#474,.T.);
#476=ORIENTED_EDGE('COEDGE89',*,*,#475,.T.);
#477=CARTESIAN_POINT('POINT34',(9.18454765366783E-017,0.0E+000,-1.5E+000
   ));
#478=VERTEX_POINT('VERTEX34',#477);
#479=CARTESIAN_POINT('POS51',(0.0E+000,0.0E+000,0.0E+000));
#480=DIRECTION('DIR68',(-1.0E+000,0.0E+000,-6.12303176911189E-017));
#481=DIRECTION('DIR69',(6.12303176911189E-017,0.0E+000,-1.0E+000));
#482=AXIS2_PLACEMENT_3D('AXIS18',#479,#480,#481);
#483=CIRCLE('ELLIPSE5',#482,1.5E+000);
#484=EDGE_CURVE('EDGE49',#470,#478,#483,.T.);
#485=ORIENTED_EDGE('COEDGE90',*,*,#484,.T.);
#486=CARTESIAN_POINT('POS52',(-7.42499999999999E-001,
   -2.63290366071811E-016,-2.15E+000));
#487=DIRECTION('DIR70',(-7.52419737064591E-001,-8.06628544091488E-017,
   -6.58683944905029E-001));
#488=VECTOR('VEC34',#487,1.0E+000);
#489=LINE('STRAIGHT34',#486,#488);
#490=EDGE_CURVE('EDGE50',#478,#385,#489,.T.);
#491=ORIENTED_EDGE('COEDGE91',*,*,#490,.T.);
#492=ORIENTED_EDGE('COEDGE92',*,*,#391,.T.);
#493=EDGE_LOOP('NONE',(#476,#485,#491,#492));
#494=FACE_BOUND('LOOP1',#493,.T.);
#495=CARTESIAN_POINT('POS53',(-7.425E-001,0.0E+000,
   -1.36390532656967E-016));
#496=DIRECTION('DIR71',(-1.0E+000,0.0E+000,-1.83690953073357E-016));
#497=DIRECTION('DIR72',(-1.83690953073357E-016,0.0E+000,1.0E+000));
#498=AXIS2_PLACEMENT_3D('AXIS19',#495,#496,#497);
#499=CONICAL_SURFACE('CONE_SURF3',#498,2.15E+000,7.19068321828742E-001);
#500=ADVANCED_FACE('FACE19',(#494),#499,.T.);
#501=ORIENTED_EDGE('COEDGE93',*,*,#475,.F.);
#502=ORIENTED_EDGE('COEDGE94',*,*,#411,.T.);
#503=ORIENTED_EDGE('COEDGE95',*,*,#490,.F.);
#504=EDGE_CURVE('EDGE51',#478,#470,#483,.T.);
#505=ORIENTED_EDGE('COEDGE96',*,*,#504,.T.);
#506=EDGE_LOOP('NONE',(#501,#502,#503,#505));
#507=FACE_BOUND('LOOP1',#506,.T.);
#508=ADVANCED_FACE('FACE20',(#507),#499,.T.);
#509=ORIENTED_EDGE('COEDGE97',*,*,#443,.T.);
#510=EDGE_CURVE('EDGE52',#447,#438,#458,.T.);
#511=ORIENTED_EDGE('COEDGE98',*,*,#510,.F.);
#512=ORIENTED_EDGE('COEDGE99',*,*,#452,.T.);
#513=ORIENTED_EDGE('COEDGE100',*,*,#425,.F.);
#514=EDGE_LOOP('NONE',(#509,#511,#512,#513));
#515=FACE_BOUND('LOOP1',#514,.T.);
#516=ADVANCED_FACE('FACE21',(#515),#467,.T.);
#517=CARTESIAN_POINT('POS54',(2.175E+000,1.83690953073357E-016,-1.5E+000
   ));
#518=DIRECTION('DIR73',(-1.0E+000,0.0E+000,-6.12303176911189E-017));
#519=VECTOR('VEC35',#518,1.0E+000);
#520=LINE('STRAIGHT35',#517,#519);
#521=EDGE_CURVE('EDGE53',#447,#478,#520,.T.);
#522=ORIENTED_EDGE('COEDGE101',*,*,#521,.T.);
#523=ORIENTED_EDGE('COEDGE102',*,*,#484,.F.);
#524=CARTESIAN_POINT('POS55',(2.175E+000,-1.83690953073357E-016,1.5E+000
   ));
#525=DIRECTION('DIR74',(1.0E+000,-0.0E+000,6.12303176911189E-017));
#526=VECTOR('VEC36',#525,1.0E+000);
#527=LINE('STRAIGHT36',#524,#526);
#528=EDGE_CURVE('EDGE54',#470,#438,#527,.T.);
#529=ORIENTED_EDGE('COEDGE103',*,*,#528,.T.);
#530=ORIENTED_EDGE('COEDGE104',*,*,#459,.T.);
#531=EDGE_LOOP('NONE',(#522,#523,#529,#530));
#532=FACE_BOUND('LOOP1',#531,.T.);
#533=CARTESIAN_POINT('POS56',(2.175E+000,0.0E+000,1.33175940978184E-016)
   );
#534=DIRECTION('DIR75',(-1.0E+000,0.0E+000,-6.12303176911189E-017));
#535=DIRECTION('DIR76',(6.12303176911189E-017,0.0E+000,-1.0E+000));
#536=AXIS2_PLACEMENT_3D('AXIS20',#533,#534,#535);
#537=CYLINDRICAL_SURFACE('CONE_SURF4',#536,1.5E+000);
#538=ADVANCED_FACE('FACE22',(#532),#537,.T.);
#539=ORIENTED_EDGE('COEDGE105',*,*,#521,.F.);
#540=ORIENTED_EDGE('COEDGE106',*,*,#510,.T.);
#541=ORIENTED_EDGE('COEDGE107',*,*,#528,.F.);
#542=ORIENTED_EDGE('COEDGE108',*,*,#504,.F.);
#543=EDGE_LOOP('NONE',(#539,#540,#541,#542));
#544=FACE_BOUND('LOOP1',#543,.T.);
#545=ADVANCED_FACE('FACE23',(#544),#537,.T.);
#546=CLOSED_SHELL('SHELL1',(#88,#119,#143,#167,#191,#215,#239,#254,#278,
   #293,#308,#332,#340,#375,#407,#415,#436,#468,#500,#508,#516,#538,#545
   ));
#547=MANIFOLD_SOLID_BREP('LUMP1',#546);
#548=ADVANCED_BREP_SHAPE_REPRESENTATION('BODY0',(#547),#549);
#549=(GEOMETRIC_REPRESENTATION_CONTEXT(3) 
   GLOBAL_UNCERTAINTY_ASSIGNED_CONTEXT((#550)) 
   GLOBAL_UNIT_ASSIGNED_CONTEXT((#551,#552,#553)) REPRESENTATION_CONTEXT
   ('',''));
#550=UNCERTAINTY_MEASURE_WITH_UNIT(LENGTH_MEASURE(1.0E-006),#551,'','');
#551=(LENGTH_UNIT() NAMED_UNIT(*) SI_UNIT(.MILLI.,.METRE.));
#552=(NAMED_UNIT(*) PLANE_ANGLE_UNIT() SI_UNIT($,.RADIAN.));
#553=(NAMED_UNIT(*) SI_UNIT($,.STERADIAN.) SOLID_ANGLE_UNIT());
#554=APPLICATION_CONTEXT(
   'CONFIGURATION CONTROLLED 3D DESIGNS OF MECHANICAL PARTS AND 
ASSEMBLIES');
#555=APPLICATION_PROTOCOL_DEFINITION('INTERNATIONAL STANDARD',
   'config_control_design',1994,#554);
#556=MECHANICAL_CONTEXT('MECHANICAL_CONTEXT_NAME',#554,'mechanical');
#557=PRODUCT('PRODUCT_ID_1','PRODUCT_NAME_1','PRODUCT_DESCRIPTION',(#556
   ));
#558=PRODUCT_RELATED_PRODUCT_CATEGORY('detail',
   'PRODUCT_RELATED_PRODUCT_CATEGORY_DESCRIPTION',(#557));
#559=PERSON_AND_ORGANIZATION_ROLE('design_owner');
#560=PERSON('ID_1','PERSON_LAST_NAME','PERSON_FIRST_NAME',$,$,$);
#561=ORGANIZATION('ORGANIZATION_ID','ORGANIZATION_NAME',
   'ORGANIZATION_DESCRIPTION');
#562=PERSON_AND_ORGANIZATION(#560,#561);
#563=PRODUCT_DEFINITION_FORMATION_WITH_SPECIFIED_SOURCE(
   'PRODUCT_DEFINITION_FORMATION_ID',
   'PRODUCT_DEFINITION_FORMATION_DESCRIPTION',#557,.NOT_KNOWN.);
#564=PERSON_AND_ORGANIZATION_ROLE('creator');
#565=PERSON('ID_2','PERSON_LAST_NAME','PERSON_FIRST_NAME',$,$,$);
#566=ORGANIZATION('ORGANIZATION_ID','ORGANIZATION_NAME',
   'ORGANIZATION_DESCRIPTION');
#567=PERSON_AND_ORGANIZATION(#565,#566);
#568=PERSON_AND_ORGANIZATION_ROLE('part_supplier');
#569=PERSON('ID_3','PERSON_LAST_NAME','PERSON_FIRST_NAME',$,$,$);
#570=ORGANIZATION('ORGANIZATION_ID','ORGANIZATION_NAME',
   'ORGANIZATION_DESCRIPTION');
#571=PERSON_AND_ORGANIZATION(#569,#570);
#572=APPROVAL_STATUS('approved');
#573=APPROVAL(#572,'APPROVAL_LEVEL');
#574=APPROVAL_ROLE('APPROVAL_ROLE');
#575=APPROVAL_PERSON_ORGANIZATION(#578,#573,#574);
#576=PERSON('ID_4','PERSON_LAST_NAME','PERSON_FIRST_NAME',$,$,$);
#577=ORGANIZATION('ORGANIZATION_ID','ORGANIZATION_NAME',
   'ORGANIZATION_DESCRIPTION');
#578=PERSON_AND_ORGANIZATION(#576,#577);
#579=APPROVAL_DATE_TIME(#583,#573);
#580=CALENDAR_DATE(1997,1,1);
#581=COORDINATED_UNIVERSAL_TIME_OFFSET(0,0,.AHEAD.);
#582=LOCAL_TIME(0,0,0.0E+000,#581);
#583=DATE_AND_TIME(#580,#582);
#584=SECURITY_CLASSIFICATION_LEVEL('classified');
#585=SECURITY_CLASSIFICATION('SECURITY_CLASSIFICATION_NAME',
   'SECURITY_CLASSIFICATION_PURPOSE',#584);
#586=APPROVAL_STATUS('approved');
#587=APPROVAL(#586,'APPROVAL_LEVEL');
#588=APPROVAL_ROLE('APPROVAL_ROLE');
#589=APPROVAL_PERSON_ORGANIZATION(#592,#587,#588);
#590=PERSON('ID_5','PERSON_LAST_NAME','PERSON_FIRST_NAME',$,$,$);
#591=ORGANIZATION('ORGANIZATION_ID','ORGANIZATION_NAME',
   'ORGANIZATION_DESCRIPTION');
#592=PERSON_AND_ORGANIZATION(#590,#591);
#593=APPROVAL_DATE_TIME(#597,#587);
#594=CALENDAR_DATE(1997,1,1);
#595=COORDINATED_UNIVERSAL_TIME_OFFSET(0,0,.AHEAD.);
#596=LOCAL_TIME(0,0,0.0E+000,#595);
#597=DATE_AND_TIME(#594,#596);
#598=PERSON_AND_ORGANIZATION_ROLE('classification_officer');
#599=PERSON('ID_6','PERSON_LAST_NAME','PERSON_FIRST_NAME',$,$,$);
#600=ORGANIZATION('ORGANIZATION_ID','ORGANIZATION_NAME',
   'ORGANIZATION_DESCRIPTION');
#601=PERSON_AND_ORGANIZATION(#599,#600);
#602=DATE_TIME_ROLE('classification_date');
#603=CALENDAR_DATE(1997,1,1);
#604=COORDINATED_UNIVERSAL_TIME_OFFSET(0,0,.AHEAD.);
#605=LOCAL_TIME(0,0,0.0E+000,#604);
#606=DATE_AND_TIME(#603,#605);
#607=DESIGN_CONTEXT('DESIGN_CONTEXT_NAME',#554,'design');
#608=PRODUCT_DEFINITION('PRODUCT_DEFINITION_ID',
   'PRODUCT_DEFINITION_DESCRIPTION',#563,#607);
#609=PERSON_AND_ORGANIZATION_ROLE('creator');
#610=PERSON('ID_7','PERSON_LAST_NAME','PERSON_FIRST_NAME',$,$,$);
#611=ORGANIZATION('ORGANIZATION_ID','ORGANIZATION_NAME',
   'ORGANIZATION_DESCRIPTION');
#612=PERSON_AND_ORGANIZATION(#610,#611);
#613=DATE_TIME_ROLE('creation_date');
#614=CALENDAR_DATE(1997,1,1);
#615=COORDINATED_UNIVERSAL_TIME_OFFSET(0,0,.AHEAD.);
#616=LOCAL_TIME(0,0,0.0E+000,#615);
#617=DATE_AND_TIME(#614,#616);
#618=APPROVAL_STATUS('approved');
#619=APPROVAL(#618,'APPROVAL_LEVEL');
#620=APPROVAL_ROLE('APPROVAL_ROLE');
#621=APPROVAL_PERSON_ORGANIZATION(#624,#619,#620);
#622=PERSON('ID_8','PERSON_LAST_NAME','PERSON_FIRST_NAME',$,$,$);
#623=ORGANIZATION('ORGANIZATION_ID','ORGANIZATION_NAME',
   'ORGANIZATION_DESCRIPTION');
#624=PERSON_AND_ORGANIZATION(#622,#623);
#625=APPROVAL_DATE_TIME(#629,#619);
#626=CALENDAR_DATE(1997,1,1);
#627=COORDINATED_UNIVERSAL_TIME_OFFSET(0,0,.AHEAD.);
#628=LOCAL_TIME(0,0,0.0E+000,#627);
#629=DATE_AND_TIME(#626,#628);
#630=PRODUCT_DEFINITION_SHAPE('PRODUCT_DEFINITION_SHAPE_NAME',
   'PRODUCT_DEFINITION_SHAPE_DESCRIPTION',#608);
#631=SHAPE_DEFINITION_REPRESENTATION(#630,#548);
#632=STYLED_ITEM('',(#633),#547);
#633=PRESENTATION_STYLE_ASSIGNMENT((#635));
#634=COLOUR_RGB('',5.09803921568627E-001,5.09803921568627E-001,
   5.88235294117647E-001);
#635=SURFACE_STYLE_USAGE(.BOTH.,#636);
#636=SURFACE_SIDE_STYLE('',(#637));
#637=SURFACE_STYLE_FILL_AREA(#638);
#638=FILL_AREA_STYLE('',(#639));
#639=FILL_AREA_STYLE_COLOUR('',#634);
#640=STYLED_ITEM('',(#641),#88);
#641=PRESENTATION_STYLE_ASSIGNMENT((#643));
#642=COLOUR_RGB('',5.09803921568627E-001,5.09803921568627E-001,
   5.88235294117647E-001);
#643=SURFACE_STYLE_USAGE(.BOTH.,#644);
#644=SURFACE_SIDE_STYLE('',(#645));
#645=SURFACE_STYLE_FILL_AREA(#646);
#646=FILL_AREA_STYLE('',(#647));
#647=FILL_AREA_STYLE_COLOUR('',#642);
#648=STYLED_ITEM('',(#649),#119);
#649=PRESENTATION_STYLE_ASSIGNMENT((#651));
#650=COLOUR_RGB('',5.09803921568627E-001,5.09803921568627E-001,
   5.88235294117647E-001);
#651=SURFACE_STYLE_USAGE(.BOTH.,#652);
#652=SURFACE_SIDE_STYLE('',(#653));
#653=SURFACE_STYLE_FILL_AREA(#654);
#654=FILL_AREA_STYLE('',(#655));
#655=FILL_AREA_STYLE_COLOUR('',#650);
#656=STYLED_ITEM('',(#657),#143);
#657=PRESENTATION_STYLE_ASSIGNMENT((#659));
#658=COLOUR_RGB('',5.09803921568627E-001,5.09803921568627E-001,
   5.88235294117647E-001);
#659=SURFACE_STYLE_USAGE(.BOTH.,#660);
#660=SURFACE_SIDE_STYLE('',(#661));
#661=SURFACE_STYLE_FILL_AREA(#662);
#662=FILL_AREA_STYLE('',(#663));
#663=FILL_AREA_STYLE_COLOUR('',#658);
#664=STYLED_ITEM('',(#665),#167);
#665=PRESENTATION_STYLE_ASSIGNMENT((#667));
#666=COLOUR_RGB('',5.09803921568627E-001,5.09803921568627E-001,
   5.88235294117647E-001);
#667=SURFACE_STYLE_USAGE(.BOTH.,#668);
#668=SURFACE_SIDE_STYLE('',(#669));
#669=SURFACE_STYLE_FILL_AREA(#670);
#670=FILL_AREA_STYLE('',(#671));
#671=FILL_AREA_STYLE_COLOUR('',#666);
#672=STYLED_ITEM('',(#673),#191);
#673=PRESENTATION_STYLE_ASSIGNMENT((#675));
#674=COLOUR_RGB('',5.09803921568627E-001,5.09803921568627E-001,
   5.88235294117647E-001);
#675=SURFACE_STYLE_USAGE(.BOTH.,#676);
#676=SURFACE_SIDE_STYLE('',(#677));
#677=SURFACE_STYLE_FILL_AREA(#678);
#678=FILL_AREA_STYLE('',(#679));
#679=FILL_AREA_STYLE_COLOUR('',#674);
#680=STYLED_ITEM('',(#681),#215);
#681=PRESENTATION_STYLE_ASSIGNMENT((#683));
#682=COLOUR_RGB('',5.09803921568627E-001,5.09803921568627E-001,
   5.88235294117647E-001);
#683=SURFACE_STYLE_USAGE(.BOTH.,#684);
#684=SURFACE_SIDE_STYLE('',(#685));
#685=SURFACE_STYLE_FILL_AREA(#686);
#686=FILL_AREA_STYLE('',(#687));
#687=FILL_AREA_STYLE_COLOUR('',#682);
#688=STYLED_ITEM('',(#689),#239);
#689=PRESENTATION_STYLE_ASSIGNMENT((#691));
#690=COLOUR_RGB('',5.09803921568627E-001,5.09803921568627E-001,
   5.88235294117647E-001);
#691=SURFACE_STYLE_USAGE(.BOTH.,#692);
#692=SURFACE_SIDE_STYLE('',(#693));
#693=SURFACE_STYLE_FILL_AREA(#694);
#694=FILL_AREA_STYLE('',(#695));
#695=FILL_AREA_STYLE_COLOUR('',#690);
#696=STYLED_ITEM('',(#697),#254);
#697=PRESENTATION_STYLE_ASSIGNMENT((#699));
#698=COLOUR_RGB('',5.09803921568627E-001,5.09803921568627E-001,
   5.88235294117647E-001);
#699=SURFACE_STYLE_USAGE(.BOTH.,#700);
#700=SURFACE_SIDE_STYLE('',(#701));
#701=SURFACE_STYLE_FILL_AREA(#702);
#702=FILL_AREA_STYLE('',(#703));
#703=FILL_AREA_STYLE_COLOUR('',#698);
#704=STYLED_ITEM('',(#705),#278);
#705=PRESENTATION_STYLE_ASSIGNMENT((#707));
#706=COLOUR_RGB('',5.09803921568627E-001,5.09803921568627E-001,
   5.88235294117647E-001);
#707=SURFACE_STYLE_USAGE(.BOTH.,#708);
#708=SURFACE_SIDE_STYLE('',(#709));
#709=SURFACE_STYLE_FILL_AREA(#710);
#710=FILL_AREA_STYLE('',(#711));
#711=FILL_AREA_STYLE_COLOUR('',#706);
#712=STYLED_ITEM('',(#713),#293);
#713=PRESENTATION_STYLE_ASSIGNMENT((#715));
#714=COLOUR_RGB('',5.09803921568627E-001,5.09803921568627E-001,
   5.88235294117647E-001);
#715=SURFACE_STYLE_USAGE(.BOTH.,#716);
#716=SURFACE_SIDE_STYLE('',(#717));
#717=SURFACE_STYLE_FILL_AREA(#718);
#718=FILL_AREA_STYLE('',(#719));
#719=FILL_AREA_STYLE_COLOUR('',#714);
#720=STYLED_ITEM('',(#721),#308);
#721=PRESENTATION_STYLE_ASSIGNMENT((#723));
#722=COLOUR_RGB('',5.09803921568627E-001,5.09803921568627E-001,
   5.88235294117647E-001);
#723=SURFACE_STYLE_USAGE(.BOTH.,#724);
#724=SURFACE_SIDE_STYLE('',(#725));
#725=SURFACE_STYLE_FILL_AREA(#726);
#726=FILL_AREA_STYLE('',(#727));
#727=FILL_AREA_STYLE_COLOUR('',#722);
#728=STYLED_ITEM('',(#729),#332);
#729=PRESENTATION_STYLE_ASSIGNMENT((#731));
#730=COLOUR_RGB('',5.09803921568627E-001,5.09803921568627E-001,
   5.88235294117647E-001);
#731=SURFACE_STYLE_USAGE(.BOTH.,#732);
#732=SURFACE_SIDE_STYLE('',(#733));
#733=SURFACE_STYLE_FILL_AREA(#734);
#734=FILL_AREA_STYLE('',(#735));
#735=FILL_AREA_STYLE_COLOUR('',#730);
#736=STYLED_ITEM('',(#737),#340);
#737=PRESENTATION_STYLE_ASSIGNMENT((#739));
#738=COLOUR_RGB('',5.09803921568627E-001,5.09803921568627E-001,
   5.88235294117647E-001);
#739=SURFACE_STYLE_USAGE(.BOTH.,#740);
#740=SURFACE_SIDE_STYLE('',(#741));
#741=SURFACE_STYLE_FILL_AREA(#742);
#742=FILL_AREA_STYLE('',(#743));
#743=FILL_AREA_STYLE_COLOUR('',#738);
#744=STYLED_ITEM('',(#745),#375);
#745=PRESENTATION_STYLE_ASSIGNMENT((#747));
#746=COLOUR_RGB('',5.09803921568627E-001,5.09803921568627E-001,
   5.88235294117647E-001);
#747=SURFACE_STYLE_USAGE(.BOTH.,#748);
#748=SURFACE_SIDE_STYLE('',(#749));
#749=SURFACE_STYLE_FILL_AREA(#750);
#750=FILL_AREA_STYLE('',(#751));
#751=FILL_AREA_STYLE_COLOUR('',#746);
#752=STYLED_ITEM('',(#753),#407);
#753=PRESENTATION_STYLE_ASSIGNMENT((#755));
#754=COLOUR_RGB('',5.09803921568627E-001,5.09803921568627E-001,
   5.88235294117647E-001);
#755=SURFACE_STYLE_USAGE(.BOTH.,#756);
#756=SURFACE_SIDE_STYLE('',(#757));
#757=SURFACE_STYLE_FILL_AREA(#758);
#758=FILL_AREA_STYLE('',(#759));
#759=FILL_AREA_STYLE_COLOUR('',#754);
#760=STYLED_ITEM('',(#761),#415);
#761=PRESENTATION_STYLE_ASSIGNMENT((#763));
#762=COLOUR_RGB('',5.09803921568627E-001,5.09803921568627E-001,
   5.88235294117647E-001);
#763=SURFACE_STYLE_USAGE(.BOTH.,#764);
#764=SURFACE_SIDE_STYLE('',(#765));
#765=SURFACE_STYLE_FILL_AREA(#766);
#766=FILL_AREA_STYLE('',(#767));
#767=FILL_AREA_STYLE_COLOUR('',#762);
#768=STYLED_ITEM('',(#769),#436);
#769=PRESENTATION_STYLE_ASSIGNMENT((#771));
#770=COLOUR_RGB('',5.09803921568627E-001,5.09803921568627E-001,
   5.88235294117647E-001);
#771=SURFACE_STYLE_USAGE(.BOTH.,#772);
#772=SURFACE_SIDE_STYLE('',(#773));
#773=SURFACE_STYLE_FILL_AREA(#774);
#774=FILL_AREA_STYLE('',(#775));
#775=FILL_AREA_STYLE_COLOUR('',#770);
#776=STYLED_ITEM('',(#777),#468);
#777=PRESENTATION_STYLE_ASSIGNMENT((#779));
#778=COLOUR_RGB('',5.09803921568627E-001,5.09803921568627E-001,
   5.88235294117647E-001);
#779=SURFACE_STYLE_USAGE(.BOTH.,#780);
#780=SURFACE_SIDE_STYLE('',(#781));
#781=SURFACE_STYLE_FILL_AREA(#782);
#782=FILL_AREA_STYLE('',(#783));
#783=FILL_AREA_STYLE_COLOUR('',#778);
#784=STYLED_ITEM('',(#785),#500);
#785=PRESENTATION_STYLE_ASSIGNMENT((#787));
#786=COLOUR_RGB('',5.09803921568627E-001,5.09803921568627E-001,
   5.88235294117647E-001);
#787=SURFACE_STYLE_USAGE(.BOTH.,#788);
#788=SURFACE_SIDE_STYLE('',(#789));
#789=SURFACE_STYLE_FILL_AREA(#790);
#790=FILL_AREA_STYLE('',(#791));
#791=FILL_AREA_STYLE_COLOUR('',#786);
#792=STYLED_ITEM('',(#793),#508);
#793=PRESENTATION_STYLE_ASSIGNMENT((#795));
#794=COLOUR_RGB('',5.09803921568627E-001,5.09803921568627E-001,
   5.88235294117647E-001);
#795=SURFACE_STYLE_USAGE(.BOTH.,#796);
#796=SURFACE_SIDE_STYLE('',(#797));
#797=SURFACE_STYLE_FILL_AREA(#798);
#798=FILL_AREA_STYLE('',(#799));
#799=FILL_AREA_STYLE_COLOUR('',#794);
#800=STYLED_ITEM('',(#801),#516);
#801=PRESENTATION_STYLE_ASSIGNMENT((#803));
#802=COLOUR_RGB('',5.09803921568627E-001,5.09803921568627E-001,
   5.88235294117647E-001);
#803=SURFACE_STYLE_USAGE(.BOTH.,#804);
#804=SURFACE_SIDE_STYLE('',(#805));
#805=SURFACE_STYLE_FILL_AREA(#806);
#806=FILL_AREA_STYLE('',(#807));
#807=FILL_AREA_STYLE_COLOUR('',#802);
#808=STYLED_ITEM('',(#809),#538);
#809=PRESENTATION_STYLE_ASSIGNMENT((#811));
#810=COLOUR_RGB('',5.09803921568627E-001,5.09803921568627E-001,
   5.88235294117647E-001);
#811=SURFACE_STYLE_USAGE(.BOTH.,#812);
#812=SURFACE_SIDE_STYLE('',(#813));
#813=SURFACE_STYLE_FILL_AREA(#814);
#814=FILL_AREA_STYLE('',(#815));
#815=FILL_AREA_STYLE_COLOUR('',#810);
#816=STYLED_ITEM('',(#817),#545);
#817=PRESENTATION_STYLE_ASSIGNMENT((#819));
#818=COLOUR_RGB('',5.09803921568627E-001,5.09803921568627E-001,
   5.88235294117647E-001);
#819=SURFACE_STYLE_USAGE(.BOTH.,#820);
#820=SURFACE_SIDE_STYLE('',(#821));
#821=SURFACE_STYLE_FILL_AREA(#822);
#822=FILL_AREA_STYLE('',(#823));
#823=FILL_AREA_STYLE_COLOUR('',#818);
#824=MECHANICAL_DESIGN_GEOMETRIC_PRESENTATION_REPRESENTATION($,(#632,
   #640,#648,#656,#664,#672,#680,#688,#696,#704,#712,#720,#728,#736,#744
   ,#752,#760,#768,#776,#784,#792,#800,#808,#816),#549);
ENDSEC;
END-ISO-10303-21;
                
                  
               
                   
                    
     
                
