ISO-10303-21;
HEADER;
FILE_DESCRIPTION(('SolidDesigner STEP Export'),'2;1');
FILE_NAME('3240703_WT_BASE_HF_5_BK-select.stp','2017-02-21T13:48:09',(''
),(''),
'Creo Elements/Direct Modeling STEP processor for AP214 (Solid Model)',
'Creo Elements/Direct Modeling 18.1G  27-Feb-2015 (C) Parametric Technol
ogy GmbH','');
FILE_SCHEMA(('AUTOMOTIVE_DESIGN { 1 0 10303 214 1 1 1 1 }'));
ENDSEC;
DATA;
#10=CARTESIAN_POINT('',(24.,0.,39.221875));
#20=DIRECTION('',(0.,-1.,0.));
#30=DIRECTION('',(0.,0.,1.));
#40=AXIS2_PLACEMENT_3D('',#10,#20,#30);
#50=PLANE('',#40);
#60=CARTESIAN_POINT('',(4.75,0.,-7.5));
#70=DIRECTION('',(-1.,0.,0.));
#80=VECTOR('',#70,1.);
#90=LINE('',#60,#80);
#100=CARTESIAN_POINT('',(4.75,0.,-7.5));
#110=VERTEX_POINT('',#100);
#120=CARTESIAN_POINT('',(-4.75,0.,-7.5));
#130=VERTEX_POINT('',#120);
#140=EDGE_CURVE('',#110,#130,#90,.T.);
#150=ORIENTED_EDGE('',*,*,#140,.F.);
#160=CARTESIAN_POINT('',(-4.75,0.,-7.5));
#170=DIRECTION('',(0.,0.,1.));
#180=VECTOR('',#170,1.);
#190=LINE('',#160,#180);
#200=CARTESIAN_POINT('',(-4.75,0.,-4.09));
#210=VERTEX_POINT('',#200);
#220=EDGE_CURVE('',#130,#210,#190,.T.);
#230=ORIENTED_EDGE('',*,*,#220,.F.);
#240=CARTESIAN_POINT('',(24.,0.,-4.09));
#250=DIRECTION('',(1.,0.,0.));
#260=VECTOR('',#250,1.);
#270=LINE('',#240,#260);
#280=CARTESIAN_POINT('',(4.75,0.,-4.09));
#290=VERTEX_POINT('',#280);
#300=EDGE_CURVE('',#210,#290,#270,.T.);
#310=ORIENTED_EDGE('',*,*,#300,.F.);
#320=CARTESIAN_POINT('',(4.75,0.,7.5));
#330=DIRECTION('',(0.,0.,-1.));
#340=VECTOR('',#330,1.);
#350=LINE('',#320,#340);
#360=EDGE_CURVE('',#290,#110,#350,.T.);
#370=ORIENTED_EDGE('',*,*,#360,.F.);
#380=EDGE_LOOP('',(#370,#310,#230,#150));
#390=FACE_OUTER_BOUND('',#380,.T.);
#400=ADVANCED_FACE('',(#390),#50,.T.);
#410=CARTESIAN_POINT('',(-4.75,0.,4.09));
#420=VERTEX_POINT('',#410);
#430=CARTESIAN_POINT('',(-4.75,0.,7.5));
#440=VERTEX_POINT('',#430);
#450=EDGE_CURVE('',#420,#440,#190,.T.);
#460=ORIENTED_EDGE('',*,*,#450,.F.);
#470=CARTESIAN_POINT('',(-4.75,0.,7.5));
#480=DIRECTION('',(1.,0.,0.));
#490=VECTOR('',#480,1.);
#500=LINE('',#470,#490);
#510=CARTESIAN_POINT('',(4.75,0.,7.5));
#520=VERTEX_POINT('',#510);
#530=EDGE_CURVE('',#440,#520,#500,.T.);
#540=ORIENTED_EDGE('',*,*,#530,.F.);
#550=CARTESIAN_POINT('',(4.75,0.,4.09));
#560=VERTEX_POINT('',#550);
#570=EDGE_CURVE('',#520,#560,#350,.T.);
#580=ORIENTED_EDGE('',*,*,#570,.F.);
#590=CARTESIAN_POINT('',(24.,0.,4.09));
#600=DIRECTION('',(-1.,0.,0.));
#610=VECTOR('',#600,1.);
#620=LINE('',#590,#610);
#630=EDGE_CURVE('',#560,#420,#620,.T.);
#640=ORIENTED_EDGE('',*,*,#630,.F.);
#650=EDGE_LOOP('',(#640,#580,#540,#460));
#660=FACE_OUTER_BOUND('',#650,.T.);
#670=ADVANCED_FACE('',(#660),#50,.T.);
#680=CARTESIAN_POINT('',(24.,3.5,39.221875));
#690=DIRECTION('',(0.,-1.,0.));
#700=DIRECTION('',(0.,0.,1.));
#710=AXIS2_PLACEMENT_3D('',#680,#690,#700);
#720=PLANE('',#710);
#730=CARTESIAN_POINT('',(-4.75,3.5,39.221875));
#740=DIRECTION('',(0.,0.,-1.));
#750=VECTOR('',#740,1.);
#760=LINE('',#730,#750);
#770=CARTESIAN_POINT('',(-4.75,3.5,4.09));
#780=VERTEX_POINT('',#770);
#790=CARTESIAN_POINT('',(-4.75,3.5,-4.09));
#800=VERTEX_POINT('',#790);
#810=EDGE_CURVE('',#780,#800,#760,.T.);
#820=ORIENTED_EDGE('',*,*,#810,.T.);
#830=CARTESIAN_POINT('',(-5.7,3.5,4.09));
#840=DIRECTION('',(1.,0.,0.));
#850=VECTOR('',#840,1.);
#860=LINE('',#830,#850);
#870=CARTESIAN_POINT('',(-2.5,3.5,4.09));
#880=VERTEX_POINT('',#870);
#890=EDGE_CURVE('',#780,#880,#860,.T.);
#900=ORIENTED_EDGE('',*,*,#890,.F.);
#910=CARTESIAN_POINT('',(-2.5,3.5,-9.0000024));
#920=DIRECTION('',(0.,0.,1.));
#930=VECTOR('',#920,1.);
#940=LINE('',#910,#930);
#950=CARTESIAN_POINT('',(-2.5,3.5,7.5));
#960=VERTEX_POINT('',#950);
#970=EDGE_CURVE('',#880,#960,#940,.T.);
#980=ORIENTED_EDGE('',*,*,#970,.F.);
#990=CARTESIAN_POINT('',(24.,3.5,7.5));
#1000=DIRECTION('',(1.,0.,0.));
#1010=VECTOR('',#1000,1.);
#1020=LINE('',#990,#1010);
#1030=CARTESIAN_POINT('',(2.5,3.5,7.5));
#1040=VERTEX_POINT('',#1030);
#1050=EDGE_CURVE('',#960,#1040,#1020,.T.);
#1060=ORIENTED_EDGE('',*,*,#1050,.F.);
#1070=CARTESIAN_POINT('',(2.5,3.5,-9.0000024));
#1080=DIRECTION('',(0.,0.,1.));
#1090=VECTOR('',#1080,1.);
#1100=LINE('',#1070,#1090);
#1110=CARTESIAN_POINT('',(2.5,3.5,4.09));
#1120=VERTEX_POINT('',#1110);
#1130=EDGE_CURVE('',#1120,#1040,#1100,.T.);
#1140=ORIENTED_EDGE('',*,*,#1130,.T.);
#1150=CARTESIAN_POINT('',(4.75,3.5,4.09));
#1160=VERTEX_POINT('',#1150);
#1170=EDGE_CURVE('',#1120,#1160,#860,.T.);
#1180=ORIENTED_EDGE('',*,*,#1170,.F.);
#1190=CARTESIAN_POINT('',(4.75,3.5,39.221875));
#1200=DIRECTION('',(0.,0.,1.));
#1210=VECTOR('',#1200,1.);
#1220=LINE('',#1190,#1210);
#1230=CARTESIAN_POINT('',(4.75,3.5,-4.09));
#1240=VERTEX_POINT('',#1230);
#1250=EDGE_CURVE('',#1240,#1160,#1220,.T.);
#1260=ORIENTED_EDGE('',*,*,#1250,.T.);
#1270=CARTESIAN_POINT('',(6.,3.5,-4.09));
#1280=DIRECTION('',(-1.,0.,0.));
#1290=VECTOR('',#1280,1.);
#1300=LINE('',#1270,#1290);
#1310=CARTESIAN_POINT('',(2.5,3.5,-4.09));
#1320=VERTEX_POINT('',#1310);
#1330=EDGE_CURVE('',#1240,#1320,#1300,.T.);
#1340=ORIENTED_EDGE('',*,*,#1330,.F.);
#1350=CARTESIAN_POINT('',(2.5,3.5,-7.5));
#1360=VERTEX_POINT('',#1350);
#1370=EDGE_CURVE('',#1360,#1320,#1100,.T.);
#1380=ORIENTED_EDGE('',*,*,#1370,.T.);
#1390=CARTESIAN_POINT('',(24.,3.5,-7.5));
#1400=DIRECTION('',(-1.,0.,0.));
#1410=VECTOR('',#1400,1.);
#1420=LINE('',#1390,#1410);
#1430=CARTESIAN_POINT('',(-2.5,3.5,-7.5));
#1440=VERTEX_POINT('',#1430);
#1450=EDGE_CURVE('',#1360,#1440,#1420,.T.);
#1460=ORIENTED_EDGE('',*,*,#1450,.F.);
#1470=CARTESIAN_POINT('',(-2.5,3.5,-4.09));
#1480=VERTEX_POINT('',#1470);
#1490=EDGE_CURVE('',#1440,#1480,#940,.T.);
#1500=ORIENTED_EDGE('',*,*,#1490,.F.);
#1510=EDGE_CURVE('',#1480,#800,#1300,.T.);
#1520=ORIENTED_EDGE('',*,*,#1510,.F.);
#1530=EDGE_LOOP('',(#1520,#1500,#1460,#1380,#1340,#1260,#1180,#1140,
#1060,#980,#900,#820));
#1540=FACE_OUTER_BOUND('',#1530,.T.);
#1550=CARTESIAN_POINT('',(0.,3.5,0.));
#1560=DIRECTION('',(0.,-1.,0.));
#1570=DIRECTION('',(0.,0.,1.));
#1580=AXIS2_PLACEMENT_3D('',#1550,#1560,#1570);
#1590=CIRCLE('',#1580,3.09);
#1600=CARTESIAN_POINT('',(2.5,3.5,-1.81606717937416));
#1610=VERTEX_POINT('',#1600);
#1620=CARTESIAN_POINT('',(0.,3.5,3.09));
#1630=VERTEX_POINT('',#1620);
#1640=EDGE_CURVE('',#1610,#1630,#1590,.T.);
#1650=ORIENTED_EDGE('',*,*,#1640,.F.);
#1660=CARTESIAN_POINT('',(-3.78415860936532E-16,3.5,-3.09));
#1670=VERTEX_POINT('',#1660);
#1680=EDGE_CURVE('',#1630,#1670,#1590,.T.);
#1690=ORIENTED_EDGE('',*,*,#1680,.F.);
#1700=EDGE_CURVE('',#1670,#1610,#1590,.T.);
#1710=ORIENTED_EDGE('',*,*,#1700,.F.);
#1720=EDGE_LOOP('',(#1710,#1690,#1650));
#1730=FACE_BOUND('',#1720,.T.);
#1740=ADVANCED_FACE('',(#1540,#1730),#720,.T.);
#1750=CARTESIAN_POINT('',(6.,3.5,-4.09));
#1760=DIRECTION('',(0.,0.,-1.));
#1770=DIRECTION('',(-1.,0.,0.));
#1780=AXIS2_PLACEMENT_3D('',#1750,#1760,#1770);
#1790=PLANE('',#1780);
#1800=ORIENTED_EDGE('',*,*,#300,.T.);
#1810=CARTESIAN_POINT('',(-4.75,0.,-4.09));
#1820=DIRECTION('',(0.,1.,0.));
#1830=VECTOR('',#1820,1.);
#1840=LINE('',#1810,#1830);
#1850=EDGE_CURVE('',#210,#800,#1840,.T.);
#1860=ORIENTED_EDGE('',*,*,#1850,.F.);
#1870=ORIENTED_EDGE('',*,*,#1510,.T.);
#1880=CARTESIAN_POINT('',(-2.5,0.,-4.09));
#1890=DIRECTION('',(0.,1.,0.));
#1900=VECTOR('',#1890,1.);
#1910=LINE('',#1880,#1900);
#1920=CARTESIAN_POINT('',(-2.5,1.,-4.09));
#1930=VERTEX_POINT('',#1920);
#1940=EDGE_CURVE('',#1930,#1480,#1910,.T.);
#1950=ORIENTED_EDGE('',*,*,#1940,.T.);
#1960=CARTESIAN_POINT('',(24.,1.,-4.09));
#1970=DIRECTION('',(-1.,0.,0.));
#1980=VECTOR('',#1970,1.);
#1990=LINE('',#1960,#1980);
#2000=CARTESIAN_POINT('',(2.5,1.,-4.09));
#2010=VERTEX_POINT('',#2000);
#2020=EDGE_CURVE('',#2010,#1930,#1990,.T.);
#2030=ORIENTED_EDGE('',*,*,#2020,.T.);
#2040=CARTESIAN_POINT('',(2.5,0.,-4.09));
#2050=DIRECTION('',(0.,-1.,0.));
#2060=VECTOR('',#2050,1.);
#2070=LINE('',#2040,#2060);
#2080=EDGE_CURVE('',#1320,#2010,#2070,.T.);
#2090=ORIENTED_EDGE('',*,*,#2080,.T.);
#2100=ORIENTED_EDGE('',*,*,#1330,.T.);
#2110=CARTESIAN_POINT('',(4.75,0.,-4.09));
#2120=DIRECTION('',(0.,-1.,0.));
#2130=VECTOR('',#2120,1.);
#2140=LINE('',#2110,#2130);
#2150=EDGE_CURVE('',#1240,#290,#2140,.T.);
#2160=ORIENTED_EDGE('',*,*,#2150,.F.);
#2170=EDGE_LOOP('',(#2160,#2100,#2090,#2030,#1950,#1870,#1860,#1800));
#2180=FACE_OUTER_BOUND('',#2170,.T.);
#2190=ADVANCED_FACE('',(#2180),#1790,.F.);
#2200=CARTESIAN_POINT('',(24.,7.,39.221875));
#2210=DIRECTION('',(0.,-1.,0.));
#2220=DIRECTION('',(0.,0.,1.));
#2230=AXIS2_PLACEMENT_3D('',#2200,#2210,#2220);
#2240=PLANE('',#2230);
#2250=CARTESIAN_POINT('',(4.75,7.,7.5));
#2260=DIRECTION('',(0.,0.,-1.));
#2270=VECTOR('',#2260,1.);
#2280=LINE('',#2250,#2270);
#2290=CARTESIAN_POINT('',(4.75,7.,7.5));
#2300=VERTEX_POINT('',#2290);
#2310=CARTESIAN_POINT('',(4.75,7.,-7.5));
#2320=VERTEX_POINT('',#2310);
#2330=EDGE_CURVE('',#2300,#2320,#2280,.T.);
#2340=ORIENTED_EDGE('',*,*,#2330,.T.);
#2350=CARTESIAN_POINT('',(-4.75,7.,7.5));
#2360=DIRECTION('',(1.,0.,0.));
#2370=VECTOR('',#2360,1.);
#2380=LINE('',#2350,#2370);
#2390=CARTESIAN_POINT('',(-4.75,7.,7.5));
#2400=VERTEX_POINT('',#2390);
#2410=EDGE_CURVE('',#2400,#2300,#2380,.T.);
#2420=ORIENTED_EDGE('',*,*,#2410,.T.);
#2430=CARTESIAN_POINT('',(-4.75,7.,-7.5));
#2440=DIRECTION('',(0.,0.,1.));
#2450=VECTOR('',#2440,1.);
#2460=LINE('',#2430,#2450);
#2470=CARTESIAN_POINT('',(-4.75,7.,-7.5));
#2480=VERTEX_POINT('',#2470);
#2490=EDGE_CURVE('',#2480,#2400,#2460,.T.);
#2500=ORIENTED_EDGE('',*,*,#2490,.T.);
#2510=CARTESIAN_POINT('',(4.75,7.,-7.5));
#2520=DIRECTION('',(-1.,0.,0.));
#2530=VECTOR('',#2520,1.);
#2540=LINE('',#2510,#2530);
#2550=EDGE_CURVE('',#2320,#2480,#2540,.T.);
#2560=ORIENTED_EDGE('',*,*,#2550,.T.);
#2570=EDGE_LOOP('',(#2560,#2500,#2420,#2340));
#2580=FACE_OUTER_BOUND('',#2570,.T.);
#2590=CARTESIAN_POINT('',(0.,7.,0.));
#2600=DIRECTION('',(0.,-1.,0.));
#2610=DIRECTION('',(0.,0.,1.));
#2620=AXIS2_PLACEMENT_3D('',#2590,#2600,#2610);
#2630=CIRCLE('',#2620,1.75);
#2640=CARTESIAN_POINT('',(0.,7.,1.75));
#2650=VERTEX_POINT('',#2640);
#2660=CARTESIAN_POINT('',(-2.14313189850787E-16,7.,-1.75));
#2670=VERTEX_POINT('',#2660);
#2680=EDGE_CURVE('',#2650,#2670,#2630,.T.);
#2690=ORIENTED_EDGE('',*,*,#2680,.T.);
#2700=EDGE_CURVE('',#2670,#2650,#2630,.T.);
#2710=ORIENTED_EDGE('',*,*,#2700,.T.);
#2720=EDGE_LOOP('',(#2710,#2690));
#2730=FACE_BOUND('',#2720,.T.);
#2740=ADVANCED_FACE('',(#2580,#2730),#2240,.F.);
#2750=CARTESIAN_POINT('',(0.,7.7000024,0.));
#2760=DIRECTION('',(0.,-1.,0.));
#2770=DIRECTION('',(0.,0.,1.));
#2780=AXIS2_PLACEMENT_3D('',#2750,#2760,#2770);
#2790=CYLINDRICAL_SURFACE('',#2780,1.75);
#2800=CARTESIAN_POINT('',(0.,7.7000024,1.75));
#2810=DIRECTION('',(0.,-1.,0.));
#2820=VECTOR('',#2810,1.);
#2830=LINE('',#2800,#2820);
#2840=CARTESIAN_POINT('',(0.,5.9,1.75));
#2850=VERTEX_POINT('',#2840);
#2860=EDGE_CURVE('',#2650,#2850,#2830,.T.);
#2870=ORIENTED_EDGE('',*,*,#2860,.F.);
#2880=CARTESIAN_POINT('',(0.,5.9,0.));
#2890=DIRECTION('',(0.,-1.,0.));
#2900=DIRECTION('',(0.,0.,1.));
#2910=AXIS2_PLACEMENT_3D('',#2880,#2890,#2900);
#2920=CIRCLE('',#2910,1.75);
#2930=CARTESIAN_POINT('',(-2.14313189850787E-16,5.9,-1.75));
#2940=VERTEX_POINT('',#2930);
#2950=EDGE_CURVE('',#2940,#2850,#2920,.T.);
#2960=ORIENTED_EDGE('',*,*,#2950,.T.);
#2970=CARTESIAN_POINT('',(-2.14313189850787E-16,7.7000024,-1.75));
#2980=DIRECTION('',(0.,-1.,0.));
#2990=VECTOR('',#2980,1.);
#3000=LINE('',#2970,#2990);
#3010=EDGE_CURVE('',#2670,#2940,#3000,.T.);
#3020=ORIENTED_EDGE('',*,*,#3010,.T.);
#3030=ORIENTED_EDGE('',*,*,#2700,.F.);
#3040=EDGE_LOOP('',(#3030,#3020,#2960,#2870));
#3050=FACE_OUTER_BOUND('',#3040,.T.);
#3060=ADVANCED_FACE('',(#3050),#2790,.F.);
#3070=CARTESIAN_POINT('',(0.,5.9,0.750000000000007));
#3080=DIRECTION('',(0.,-1.,0.));
#3090=DIRECTION('',(0.,0.,1.));
#3100=AXIS2_PLACEMENT_3D('',#3070,#3080,#3090);
#3110=PLANE('',#3100);
#3120=CARTESIAN_POINT('',(0.,5.9,0.));
#3130=DIRECTION('',(0.,-1.,0.));
#3140=DIRECTION('',(0.,0.,1.));
#3150=AXIS2_PLACEMENT_3D('',#3120,#3130,#3140);
#3160=CIRCLE('',#3150,3.09);
#3170=CARTESIAN_POINT('',(0.,5.9,3.09));
#3180=VERTEX_POINT('',#3170);
#3190=CARTESIAN_POINT('',(-3.78415860936532E-16,5.9,-3.09));
#3200=VERTEX_POINT('',#3190);
#3210=EDGE_CURVE('',#3180,#3200,#3160,.T.);
#3220=ORIENTED_EDGE('',*,*,#3210,.T.);
#3230=EDGE_CURVE('',#3200,#3180,#3160,.T.);
#3240=ORIENTED_EDGE('',*,*,#3230,.T.);
#3250=EDGE_LOOP('',(#3240,#3220));
#3260=FACE_OUTER_BOUND('',#3250,.T.);
#3270=EDGE_CURVE('',#2850,#2940,#2920,.T.);
#3280=ORIENTED_EDGE('',*,*,#3270,.F.);
#3290=ORIENTED_EDGE('',*,*,#2950,.F.);
#3300=EDGE_LOOP('',(#3290,#3280));
#3310=FACE_BOUND('',#3300,.T.);
#3320=ADVANCED_FACE('',(#3260,#3310),#3110,.T.);
#3330=CARTESIAN_POINT('',(0.,7.7000024,0.));
#3340=DIRECTION('',(0.,-1.,0.));
#3350=DIRECTION('',(0.,0.,1.));
#3360=AXIS2_PLACEMENT_3D('',#3330,#3340,#3350);
#3370=CYLINDRICAL_SURFACE('',#3360,1.75);
#3380=ORIENTED_EDGE('',*,*,#2680,.F.);
#3390=ORIENTED_EDGE('',*,*,#3010,.F.);
#3400=ORIENTED_EDGE('',*,*,#3270,.T.);
#3410=ORIENTED_EDGE('',*,*,#2860,.T.);
#3420=EDGE_LOOP('',(#3410,#3400,#3390,#3380));
#3430=FACE_OUTER_BOUND('',#3420,.T.);
#3440=ADVANCED_FACE('',(#3430),#3370,.F.);
#3450=CARTESIAN_POINT('',(4.75,0.,7.5));
#3460=DIRECTION('',(-1.,0.,0.));
#3470=DIRECTION('',(0.,0.,1.));
#3480=AXIS2_PLACEMENT_3D('',#3450,#3460,#3470);
#3490=PLANE('',#3480);
#3500=ORIENTED_EDGE('',*,*,#360,.T.);
#3510=ORIENTED_EDGE('',*,*,#2150,.T.);
#3520=ORIENTED_EDGE('',*,*,#1250,.F.);
#3530=CARTESIAN_POINT('',(4.75,0.,4.09));
#3540=DIRECTION('',(0.,1.,0.));
#3550=VECTOR('',#3540,1.);
#3560=LINE('',#3530,#3550);
#3570=EDGE_CURVE('',#560,#1160,#3560,.T.);
#3580=ORIENTED_EDGE('',*,*,#3570,.T.);
#3590=ORIENTED_EDGE('',*,*,#570,.T.);
#3600=CARTESIAN_POINT('',(4.75,0.,7.5));
#3610=DIRECTION('',(0.,1.,0.));
#3620=VECTOR('',#3610,1.);
#3630=LINE('',#3600,#3620);
#3640=EDGE_CURVE('',#520,#2300,#3630,.T.);
#3650=ORIENTED_EDGE('',*,*,#3640,.F.);
#3660=ORIENTED_EDGE('',*,*,#2330,.F.);
#3670=CARTESIAN_POINT('',(4.75,0.,-7.5));
#3680=DIRECTION('',(0.,1.,0.));
#3690=VECTOR('',#3680,1.);
#3700=LINE('',#3670,#3690);
#3710=EDGE_CURVE('',#110,#2320,#3700,.T.);
#3720=ORIENTED_EDGE('',*,*,#3710,.T.);
#3730=EDGE_LOOP('',(#3720,#3660,#3650,#3590,#3580,#3520,#3510,#3500));
#3740=FACE_OUTER_BOUND('',#3730,.T.);
#3750=ADVANCED_FACE('',(#3740),#3490,.F.);
#3760=CARTESIAN_POINT('',(-4.75,0.,7.5));
#3770=DIRECTION('',(0.,0.,-1.));
#3780=DIRECTION('',(-1.,0.,0.));
#3790=AXIS2_PLACEMENT_3D('',#3760,#3770,#3780);
#3800=PLANE('',#3790);
#3810=ORIENTED_EDGE('',*,*,#530,.T.);
#3820=CARTESIAN_POINT('',(-4.75,0.,7.5));
#3830=DIRECTION('',(0.,1.,0.));
#3840=VECTOR('',#3830,1.);
#3850=LINE('',#3820,#3840);
#3860=EDGE_CURVE('',#440,#2400,#3850,.T.);
#3870=ORIENTED_EDGE('',*,*,#3860,.F.);
#3880=ORIENTED_EDGE('',*,*,#2410,.F.);
#3890=ORIENTED_EDGE('',*,*,#3640,.T.);
#3900=EDGE_LOOP('',(#3890,#3880,#3870,#3810));
#3910=FACE_OUTER_BOUND('',#3900,.T.);
#3920=CARTESIAN_POINT('',(2.5,0.,7.5));
#3930=DIRECTION('',(0.,-1.,0.));
#3940=VECTOR('',#3930,1.);
#3950=LINE('',#3920,#3940);
#3960=CARTESIAN_POINT('',(2.5,1.,7.5));
#3970=VERTEX_POINT('',#3960);
#3980=EDGE_CURVE('',#1040,#3970,#3950,.T.);
#3990=ORIENTED_EDGE('',*,*,#3980,.T.);
#4000=ORIENTED_EDGE('',*,*,#1050,.T.);
#4010=CARTESIAN_POINT('',(-2.5,0.,7.5));
#4020=DIRECTION('',(0.,1.,0.));
#4030=VECTOR('',#4020,1.);
#4040=LINE('',#4010,#4030);
#4050=CARTESIAN_POINT('',(-2.5,1.,7.5));
#4060=VERTEX_POINT('',#4050);
#4070=EDGE_CURVE('',#4060,#960,#4040,.T.);
#4080=ORIENTED_EDGE('',*,*,#4070,.T.);
#4090=CARTESIAN_POINT('',(24.,1.,7.5));
#4100=DIRECTION('',(-1.,0.,0.));
#4110=VECTOR('',#4100,1.);
#4120=LINE('',#4090,#4110);
#4130=EDGE_CURVE('',#3970,#4060,#4120,.T.);
#4140=ORIENTED_EDGE('',*,*,#4130,.T.);
#4150=EDGE_LOOP('',(#4140,#4080,#4000,#3990));
#4160=FACE_BOUND('',#4150,.T.);
#4170=ADVANCED_FACE('',(#3910,#4160),#3800,.F.);
#4180=CARTESIAN_POINT('',(-4.75,0.,-7.5));
#4190=DIRECTION('',(1.,-0.,0.));
#4200=DIRECTION('',(0.,0.,-1.));
#4210=AXIS2_PLACEMENT_3D('',#4180,#4190,#4200);
#4220=PLANE('',#4210);
#4230=ORIENTED_EDGE('',*,*,#450,.T.);
#4240=CARTESIAN_POINT('',(-4.75,0.,4.09));
#4250=DIRECTION('',(0.,-1.,0.));
#4260=VECTOR('',#4250,1.);
#4270=LINE('',#4240,#4260);
#4280=EDGE_CURVE('',#780,#420,#4270,.T.);
#4290=ORIENTED_EDGE('',*,*,#4280,.T.);
#4300=ORIENTED_EDGE('',*,*,#810,.F.);
#4310=ORIENTED_EDGE('',*,*,#1850,.T.);
#4320=ORIENTED_EDGE('',*,*,#220,.T.);
#4330=CARTESIAN_POINT('',(-4.75,0.,-7.5));
#4340=DIRECTION('',(0.,1.,0.));
#4350=VECTOR('',#4340,1.);
#4360=LINE('',#4330,#4350);
#4370=EDGE_CURVE('',#130,#2480,#4360,.T.);
#4380=ORIENTED_EDGE('',*,*,#4370,.F.);
#4390=ORIENTED_EDGE('',*,*,#2490,.F.);
#4400=ORIENTED_EDGE('',*,*,#3860,.T.);
#4410=EDGE_LOOP('',(#4400,#4390,#4380,#4320,#4310,#4300,#4290,#4230));
#4420=FACE_OUTER_BOUND('',#4410,.T.);
#4430=ADVANCED_FACE('',(#4420),#4220,.F.);
#4440=CARTESIAN_POINT('',(4.75,0.,-7.5));
#4450=DIRECTION('',(0.,0.,1.));
#4460=DIRECTION('',(1.,0.,0.));
#4470=AXIS2_PLACEMENT_3D('',#4440,#4450,#4460);
#4480=PLANE('',#4470);
#4490=ORIENTED_EDGE('',*,*,#140,.T.);
#4500=ORIENTED_EDGE('',*,*,#3710,.F.);
#4510=ORIENTED_EDGE('',*,*,#2550,.F.);
#4520=ORIENTED_EDGE('',*,*,#4370,.T.);
#4530=EDGE_LOOP('',(#4520,#4510,#4500,#4490));
#4540=FACE_OUTER_BOUND('',#4530,.T.);
#4550=CARTESIAN_POINT('',(2.5,0.,-7.5));
#4560=DIRECTION('',(0.,1.,0.));
#4570=VECTOR('',#4560,1.);
#4580=LINE('',#4550,#4570);
#4590=CARTESIAN_POINT('',(2.5,1.,-7.5));
#4600=VERTEX_POINT('',#4590);
#4610=EDGE_CURVE('',#4600,#1360,#4580,.T.);
#4620=ORIENTED_EDGE('',*,*,#4610,.T.);
#4630=CARTESIAN_POINT('',(24.,1.,-7.5));
#4640=DIRECTION('',(1.,0.,0.));
#4650=VECTOR('',#4640,1.);
#4660=LINE('',#4630,#4650);
#4670=CARTESIAN_POINT('',(-2.5,1.,-7.5));
#4680=VERTEX_POINT('',#4670);
#4690=EDGE_CURVE('',#4680,#4600,#4660,.T.);
#4700=ORIENTED_EDGE('',*,*,#4690,.T.);
#4710=CARTESIAN_POINT('',(-2.5,0.,-7.5));
#4720=DIRECTION('',(0.,-1.,0.));
#4730=VECTOR('',#4720,1.);
#4740=LINE('',#4710,#4730);
#4750=EDGE_CURVE('',#1440,#4680,#4740,.T.);
#4760=ORIENTED_EDGE('',*,*,#4750,.T.);
#4770=ORIENTED_EDGE('',*,*,#1450,.T.);
#4780=EDGE_LOOP('',(#4770,#4760,#4700,#4620));
#4790=FACE_BOUND('',#4780,.T.);
#4800=ADVANCED_FACE('',(#4540,#4790),#4480,.F.);
#4810=CARTESIAN_POINT('',(0.,3.5,0.));
#4820=DIRECTION('',(0.,-1.,0.));
#4830=DIRECTION('',(0.,0.,1.));
#4840=AXIS2_PLACEMENT_3D('',#4810,#4820,#4830);
#4850=CYLINDRICAL_SURFACE('',#4840,3.09);
#4860=CARTESIAN_POINT('',(0.,3.5,3.09));
#4870=DIRECTION('',(0.,-1.,0.));
#4880=VECTOR('',#4870,1.);
#4890=LINE('',#4860,#4880);
#4900=EDGE_CURVE('',#3180,#1630,#4890,.T.);
#4910=ORIENTED_EDGE('',*,*,#4900,.F.);
#4920=ORIENTED_EDGE('',*,*,#1640,.T.);
#4930=ORIENTED_EDGE('',*,*,#1700,.T.);
#4940=CARTESIAN_POINT('',(-3.78415860936532E-16,3.5,-3.09));
#4950=DIRECTION('',(0.,-1.,0.));
#4960=VECTOR('',#4950,1.);
#4970=LINE('',#4940,#4960);
#4980=EDGE_CURVE('',#3200,#1670,#4970,.T.);
#4990=ORIENTED_EDGE('',*,*,#4980,.T.);
#5000=ORIENTED_EDGE('',*,*,#3230,.F.);
#5010=EDGE_LOOP('',(#5000,#4990,#4930,#4920,#4910));
#5020=FACE_OUTER_BOUND('',#5010,.T.);
#5030=ADVANCED_FACE('',(#5020),#4850,.F.);
#5040=CARTESIAN_POINT('',(-5.7,3.5,4.09));
#5050=DIRECTION('',(0.,0.,1.));
#5060=DIRECTION('',(1.,0.,0.));
#5070=AXIS2_PLACEMENT_3D('',#5040,#5050,#5060);
#5080=PLANE('',#5070);
#5090=ORIENTED_EDGE('',*,*,#3570,.F.);
#5100=ORIENTED_EDGE('',*,*,#1170,.T.);
#5110=CARTESIAN_POINT('',(2.5,0.,4.09));
#5120=DIRECTION('',(0.,1.,0.));
#5130=VECTOR('',#5120,1.);
#5140=LINE('',#5110,#5130);
#5150=CARTESIAN_POINT('',(2.5,1.,4.09));
#5160=VERTEX_POINT('',#5150);
#5170=EDGE_CURVE('',#5160,#1120,#5140,.T.);
#5180=ORIENTED_EDGE('',*,*,#5170,.T.);
#5190=CARTESIAN_POINT('',(24.,1.,4.09));
#5200=DIRECTION('',(1.,0.,0.));
#5210=VECTOR('',#5200,1.);
#5220=LINE('',#5190,#5210);
#5230=CARTESIAN_POINT('',(-2.5,1.,4.09));
#5240=VERTEX_POINT('',#5230);
#5250=EDGE_CURVE('',#5240,#5160,#5220,.T.);
#5260=ORIENTED_EDGE('',*,*,#5250,.T.);
#5270=CARTESIAN_POINT('',(-2.5,0.,4.09));
#5280=DIRECTION('',(0.,-1.,0.));
#5290=VECTOR('',#5280,1.);
#5300=LINE('',#5270,#5290);
#5310=EDGE_CURVE('',#880,#5240,#5300,.T.);
#5320=ORIENTED_EDGE('',*,*,#5310,.T.);
#5330=ORIENTED_EDGE('',*,*,#890,.T.);
#5340=ORIENTED_EDGE('',*,*,#4280,.F.);
#5350=ORIENTED_EDGE('',*,*,#630,.T.);
#5360=EDGE_LOOP('',(#5350,#5340,#5330,#5320,#5260,#5180,#5100,#5090));
#5370=FACE_OUTER_BOUND('',#5360,.T.);
#5380=ADVANCED_FACE('',(#5370),#5080,.F.);
#5390=CARTESIAN_POINT('',(2.5,3.5,-9.0000024));
#5400=DIRECTION('',(1.,0.,0.));
#5410=DIRECTION('',(0.,-1.,0.));
#5420=AXIS2_PLACEMENT_3D('',#5390,#5400,#5410);
#5430=PLANE('',#5420);
#5440=ORIENTED_EDGE('',*,*,#1130,.F.);
#5450=ORIENTED_EDGE('',*,*,#3980,.F.);
#5460=CARTESIAN_POINT('',(2.5,1.,-9.0000024));
#5470=DIRECTION('',(0.,0.,1.));
#5480=VECTOR('',#5470,1.);
#5490=LINE('',#5460,#5480);
#5500=EDGE_CURVE('',#5160,#3970,#5490,.T.);
#5510=ORIENTED_EDGE('',*,*,#5500,.T.);
#5520=ORIENTED_EDGE('',*,*,#5170,.F.);
#5530=EDGE_LOOP('',(#5520,#5510,#5450,#5440));
#5540=FACE_OUTER_BOUND('',#5530,.T.);
#5550=ADVANCED_FACE('',(#5540),#5430,.F.);
#5560=CARTESIAN_POINT('',(2.5,1.,-9.0000024));
#5570=DIRECTION('',(-0.,-1.,-0.));
#5580=DIRECTION('',(-1.,0.,0.));
#5590=AXIS2_PLACEMENT_3D('',#5560,#5570,#5580);
#5600=PLANE('',#5590);
#5610=CARTESIAN_POINT('',(-2.5,1.,-9.0000024));
#5620=DIRECTION('',(0.,0.,1.));
#5630=VECTOR('',#5620,1.);
#5640=LINE('',#5610,#5630);
#5650=EDGE_CURVE('',#5240,#4060,#5640,.T.);
#5660=ORIENTED_EDGE('',*,*,#5650,.T.);
#5670=ORIENTED_EDGE('',*,*,#5250,.F.);
#5680=ORIENTED_EDGE('',*,*,#5500,.F.);
#5690=ORIENTED_EDGE('',*,*,#4130,.F.);
#5700=EDGE_LOOP('',(#5690,#5680,#5670,#5660));
#5710=FACE_OUTER_BOUND('',#5700,.T.);
#5720=ADVANCED_FACE('',(#5710),#5600,.F.);
#5730=EDGE_CURVE('',#4680,#1930,#5640,.T.);
#5740=ORIENTED_EDGE('',*,*,#5730,.T.);
#5750=ORIENTED_EDGE('',*,*,#4690,.F.);
#5760=EDGE_CURVE('',#4600,#2010,#5490,.T.);
#5770=ORIENTED_EDGE('',*,*,#5760,.F.);
#5780=ORIENTED_EDGE('',*,*,#2020,.F.);
#5790=EDGE_LOOP('',(#5780,#5770,#5750,#5740));
#5800=FACE_OUTER_BOUND('',#5790,.T.);
#5810=ADVANCED_FACE('',(#5800),#5600,.F.);
#5820=CARTESIAN_POINT('',(-2.5,1.,-9.0000024));
#5830=DIRECTION('',(-1.,0.,0.));
#5840=DIRECTION('',(0.,1.,0.));
#5850=AXIS2_PLACEMENT_3D('',#5820,#5830,#5840);
#5860=PLANE('',#5850);
#5870=ORIENTED_EDGE('',*,*,#5650,.F.);
#5880=ORIENTED_EDGE('',*,*,#4070,.F.);
#5890=ORIENTED_EDGE('',*,*,#970,.T.);
#5900=ORIENTED_EDGE('',*,*,#5310,.F.);
#5910=EDGE_LOOP('',(#5900,#5890,#5880,#5870));
#5920=FACE_OUTER_BOUND('',#5910,.T.);
#5930=ADVANCED_FACE('',(#5920),#5860,.F.);
#5940=ORIENTED_EDGE('',*,*,#5730,.F.);
#5950=ORIENTED_EDGE('',*,*,#1940,.F.);
#5960=ORIENTED_EDGE('',*,*,#1490,.T.);
#5970=ORIENTED_EDGE('',*,*,#4750,.F.);
#5980=EDGE_LOOP('',(#5970,#5960,#5950,#5940));
#5990=FACE_OUTER_BOUND('',#5980,.T.);
#6000=ADVANCED_FACE('',(#5990),#5860,.F.);
#6010=ORIENTED_EDGE('',*,*,#5760,.T.);
#6020=ORIENTED_EDGE('',*,*,#4610,.F.);
#6030=ORIENTED_EDGE('',*,*,#1370,.F.);
#6040=ORIENTED_EDGE('',*,*,#2080,.F.);
#6050=EDGE_LOOP('',(#6040,#6030,#6020,#6010));
#6060=FACE_OUTER_BOUND('',#6050,.T.);
#6070=ADVANCED_FACE('',(#6060),#5430,.F.);
#6080=CARTESIAN_POINT('',(0.,3.5,0.));
#6090=DIRECTION('',(0.,-1.,0.));
#6100=DIRECTION('',(0.,0.,1.));
#6110=AXIS2_PLACEMENT_3D('',#6080,#6090,#6100);
#6120=CYLINDRICAL_SURFACE('',#6110,3.09);
#6130=ORIENTED_EDGE('',*,*,#3210,.F.);
#6140=ORIENTED_EDGE('',*,*,#4980,.F.);
#6150=ORIENTED_EDGE('',*,*,#1680,.T.);
#6160=ORIENTED_EDGE('',*,*,#4900,.T.);
#6170=EDGE_LOOP('',(#6160,#6150,#6140,#6130));
#6180=FACE_OUTER_BOUND('',#6170,.T.);
#6190=ADVANCED_FACE('',(#6180),#6120,.F.);
#6200=CLOSED_SHELL('',(#3750,#4170,#4430,#4800,#5030,#5380,#5550,#5720,
#5810,#5930,#6000,#6070,#6190,#2740,#3060,#3320,#3440,#400,#670,#1740,
#2190));
#6210=MANIFOLD_SOLID_BREP('',#6200);
#6220=CARTESIAN_POINT('',(0.,0.,0.));
#6230=DIRECTION('',(0.,0.,1.));
#6240=DIRECTION('',(1.,0.,0.));
#6250=AXIS2_PLACEMENT_3D('',#6220,#6230,#6240);
#6260=APPLICATION_CONTEXT(' ');
#6270=APPLICATION_PROTOCOL_DEFINITION(' ','automotive_design',1998,#6260
);
#6280=PRODUCT_CONTEXT('',#6260,'mechanical');
#6290=PRODUCT_DEFINITION_CONTEXT('part definition',#6260,'design');
#6300=PRODUCT('3240703_WT_BASE_HF_5_BK-select',
'3240703_WT_BASE_HF_5_BK-select','',(#6280));
#6310=PRODUCT_RELATED_PRODUCT_CATEGORY('part',' ',(#6300));
#6320=PRODUCT_DEFINITION_FORMATION_WITH_SPECIFIED_SOURCE('','',#6300,
.BOUGHT.);
#6330=PRODUCT_DEFINITION('',' ',#6320,#6290);
#6340=PRODUCT_DEFINITION_SHAPE('','',#6330);
#6350=DIMENSIONAL_EXPONENTS(1.,0.,0.,0.,0.,0.,0.);
#6360=DIMENSIONAL_EXPONENTS(0.,0.,0.,0.,0.,0.,0.);
#6370=DIMENSIONAL_EXPONENTS(0.,0.,0.,0.,0.,0.,0.);
#6380=(LENGTH_UNIT() NAMED_UNIT(*) SI_UNIT(.MILLI.,.METRE.));
#6390=(NAMED_UNIT(*) PLANE_ANGLE_UNIT() SI_UNIT($,.RADIAN.));
#6400=(NAMED_UNIT(*) SI_UNIT($,.STERADIAN.) SOLID_ANGLE_UNIT());
#6410=(GEOMETRIC_REPRESENTATION_CONTEXT(3) 
GLOBAL_UNCERTAINTY_ASSIGNED_CONTEXT((#6420)) 
GLOBAL_UNIT_ASSIGNED_CONTEXT((#6380,#6390,#6400)) REPRESENTATION_CONTEXT
('',''));
#6420=UNCERTAINTY_MEASURE_WITH_UNIT(LENGTH_MEASURE(1.E-6),#6380,
'distance_accuracy_value','maximum gap value');
#6430=ADVANCED_BREP_SHAPE_REPRESENTATION('',(#6250,#6210),#6410);
#6440=SHAPE_DEFINITION_REPRESENTATION(#6340,#6430);
#6450=COLOUR_RGB('',0.,0.,0.);
#6460=FILL_AREA_STYLE_COLOUR('',#6450);
#6470=FILL_AREA_STYLE('',(#6460));
#6480=SURFACE_STYLE_FILL_AREA(#6470);
#6490=SURFACE_SIDE_STYLE('',(#6480));
#6500=SURFACE_STYLE_USAGE(.BOTH.,#6490);
#6510=PRESENTATION_STYLE_ASSIGNMENT((#6500));
#6520=STYLED_ITEM('',(#6510),#6210);
#6530=DRAUGHTING_MODEL('',(#6520),#6410);
#6540=CARTESIAN_POINT('',(0.,7.,0.));
#6550=DIRECTION('',(-1.,0.,0.));
#6560=DIRECTION('',(0.,0.,-1.));
#6570=AXIS2_PLACEMENT_3D('',#6540,#6550,#6560);
#6580=ITEM_DEFINED_TRANSFORMATION('3240703_WT_BASE_HF_5_BK-select','',
#6250,#6570);
#6590=APPLICATION_CONTEXT(' ');
#6600=APPLICATION_PROTOCOL_DEFINITION(' ','automotive_design',1998,#6590
);
#6610=PRODUCT_CONTEXT('',#6590,'mechanical');
#6620=PRODUCT_DEFINITION_CONTEXT('part definition',#6590,'design');
#6630=PRODUCT('3240703_WT_BASE_HF_5_BK-select',
'3240703_WT_BASE_HF_5_BK-select','',(#6610));
#6640=PRODUCT_RELATED_PRODUCT_CATEGORY('part',' ',(#6630));
#6650=PRODUCT_DEFINITION_FORMATION_WITH_SPECIFIED_SOURCE('','',#6630,
.BOUGHT.);
#6660=PRODUCT_DEFINITION('',' ',#6650,#6620);
#6670=PRODUCT_DEFINITION_SHAPE('','',#6660);
#6680=DIMENSIONAL_EXPONENTS(1.,0.,0.,0.,0.,0.,0.);
#6690=DIMENSIONAL_EXPONENTS(0.,0.,0.,0.,0.,0.,0.);
#6700=DIMENSIONAL_EXPONENTS(0.,0.,0.,0.,0.,0.,0.);
#6710=(LENGTH_UNIT() NAMED_UNIT(*) SI_UNIT(.MILLI.,.METRE.));
#6720=(NAMED_UNIT(*) PLANE_ANGLE_UNIT() SI_UNIT($,.RADIAN.));
#6730=(NAMED_UNIT(*) SI_UNIT($,.STERADIAN.) SOLID_ANGLE_UNIT());
#6740=(GEOMETRIC_REPRESENTATION_CONTEXT(3) 
GLOBAL_UNCERTAINTY_ASSIGNED_CONTEXT((#6750)) 
GLOBAL_UNIT_ASSIGNED_CONTEXT((#6710,#6720,#6730)) REPRESENTATION_CONTEXT
('',''));
#6750=UNCERTAINTY_MEASURE_WITH_UNIT(LENGTH_MEASURE(1.E-6),#6710,
'distance_accuracy_value','maximum gap value');
#6760=SHAPE_REPRESENTATION('',(#6250,#6570),#6740);
#6770=SHAPE_DEFINITION_REPRESENTATION(#6670,#6760);
#6780=(REPRESENTATION_RELATIONSHIP('','',#6430,#6760) 
REPRESENTATION_RELATIONSHIP_WITH_TRANSFORMATION(#6580) 
SHAPE_REPRESENTATION_RELATIONSHIP());
#6790=NEXT_ASSEMBLY_USAGE_OCCURRENCE('1','',
'3240703_WT_BASE_HF_5_BK-select',#6660,#6330,'');
#6800=PRODUCT_DEFINITION_SHAPE('','',#6790);
#6810=CONTEXT_DEPENDENT_SHAPE_REPRESENTATION(#6780,#6800);
ENDSEC;
END-ISO-10303-21;
