0
SECTION
2
HEADER
9
$INSUNITS
70
4
9
$ACADVER
1
AC1014
9
$HANDSEED
5
FFFF
0
ENDSEC
0
SECTION
2
TABLES
0
TABLE
2
VPORT
5
8
100
AcDbSymbolTable
0
ENDTAB
0
TABLE
2
LTYPE
5
5
100
AcDbSymbolTable
0
LTYPE
5
14
100
AcDbSymbolTableRecord
100
AcDbLinetypeTableRecord
2
BYBLOCK
70
0
0
LTYPE
5
15
100
AcDbSymbolTableRecord
100
AcDbLinetypeTableRecord
2
BYLAYER
70
0
0
ENDTAB
0
TABLE
2
LAYER
5
2
100
AcDbSymbolTable
70
2
0
LAYER
5
50
100
AcDbSymbolTableRecord
100
AcDbLayerTableRecord
2
0
70
0
6
CONTINUOUS
0
ENDTAB
0
TABLE
2
STYLE
5
3
100
AcDbSymbolTable
70
1
0
STYLE
5
11
100
AcDbSymbolTableRecord
100
AcDbTextStyleTableRecord
2
STANDARD
70
0
0
ENDTAB
0
TABLE
2
VIEW
5
6
100
AcDbSymbolTable
70
0
0
ENDTAB
0
TABLE
2
UCS
5
7
100
AcDbSymbolTable
70
0
0
ENDTAB
0
TABLE
2
APPID
5
9
100
AcDbSymbolTable
70
2
0
APPID
5
12
100
AcDbSymbolTableRecord
100
AcDbRegAppTableRecord
2
ACAD
70
0
0
ENDTAB
0
TABLE
2
DIMSTYLE
5
A
100
AcDbSymbolTable
70
1
0
ENDTAB
0
TABLE
2
BLOCK_RECORD
5
1
100
AcDbSymbolTable
70
1
0
BLOCK_RECORD
5
1F
100
AcDbSymbolTableRecord
100
AcDbBlockTableRecord
2
*MODEL_SPACE
0
BLOCK_RECORD
5
1B
100
AcDbSymbolTableRecord
100
AcDbBlockTableRecord
2
*PAPER_SPACE
0
ENDTAB
0
ENDSEC
0
SECTION
2
BLOCKS
0
BLOCK
5
20
100
AcDbEntity
100
AcDbBlockBegin
2
*MODEL_SPACE
0
ENDBLK
5
21
100
AcDbEntity
100
AcDbBlockEnd
0
BLOCK
5
1C
100
AcDbEntity
100
AcDbBlockBegin
2
*PAPER_SPACE
0
ENDBLK
5
1D
100
AcDbEntity
100
AcDbBlockEnd
0
ENDSEC
0
SECTION
2
ENTITIES
0
CIRCLE
5
100
100
AcDbEntity
8
0
100
AcDbCircle
10
-139.7499999999998
20
72.250000000000014
30
0
40
4.1249999999999964
210
0
220
-0
230
1
0
CIRCLE
5
101
100
AcDbEntity
8
0
100
AcDbCircle
10
-165.74999999999983
20
41.750000000000114
30
0
40
6.0000000000000142
210
0
220
-0
230
1
0
CIRCLE
5
102
100
AcDbEntity
8
0
100
AcDbCircle
10
-165.74999999999983
20
72.250000000000014
30
0
40
4.1250000000000142
210
0
220
-0
230
1
0
LWPOLYLINE
5
103
100
AcDbEntity
8
0
100
AcDbPolyline
90
8
70
1
43
0.0
10
-26.000000000000654
20
5.2499999999997229
10
-26.000000000000654
20
-5.250000000000278
42
0.41421356237309503
10
-25.500000000000654
20
-5.750000000000278
10
-13.500000000000652
20
-5.7500000000002789
42
0.41421356237309503
10
-13.00000000000065
20
-5.250000000000278
10
-13.00000000000065
20
5.2499999999997229
42
0.41421356237309503
10
-13.50000000000065
20
5.7499999999997229
10
-25.500000000000654
20
5.749999999999722
42
0.41421356237309503
0
CIRCLE
5
104
100
AcDbEntity
8
0
100
AcDbCircle
10
-139.7499999999998
20
41.750000000000114
30
0
40
5.9999999999999964
210
0
220
-0
230
1
0
CIRCLE
5
105
100
AcDbEntity
8
0
100
AcDbCircle
10
-87.749999999999801
20
72.250000000000014
30
0
40
4.1249999999999964
210
0
220
-0
230
1
0
LWPOLYLINE
5
106
100
AcDbEntity
8
0
100
AcDbPolyline
90
8
70
1
43
0.0
10
-143.00000000000065
20
5.2499999999997229
10
-143.00000000000065
20
-5.250000000000278
42
0.41421356237309503
10
-142.50000000000065
20
-5.750000000000278
10
-130.50000000000068
20
-5.7500000000002789
42
0.41421356237309503
10
-130.00000000000068
20
-5.250000000000278
10
-130.00000000000068
20
5.2499999999997229
42
0.41421356237309503
10
-130.50000000000068
20
5.7499999999997229
10
-142.50000000000065
20
5.749999999999722
42
0.41421356237309503
0
LWPOLYLINE
5
107
100
AcDbEntity
8
0
100
AcDbPolyline
90
8
70
1
43
0.0
10
-182.00000000000068
20
5.2499999999997229
10
-182.00000000000068
20
-5.250000000000278
42
0.41421356237309503
10
-181.50000000000068
20
-5.750000000000278
10
-169.50000000000068
20
-5.7500000000002789
42
0.41421356237309503
10
-169.00000000000065
20
-5.250000000000278
10
-169.00000000000065
20
5.2499999999997229
42
0.41421356237309503
10
-169.50000000000068
20
5.7499999999997229
10
-181.50000000000065
20
5.749999999999722
42
0.41421356237309503
0
CIRCLE
5
108
100
AcDbEntity
8
0
100
AcDbCircle
10
-35.749999999999801
20
41.750000000000114
30
0
40
5.9999999999999964
210
0
220
-0
230
1
0
CIRCLE
5
109
100
AcDbEntity
8
0
100
AcDbCircle
10
-35.749999999999801
20
72.250000000000014
30
0
40
4.1250000000000009
210
0
220
-0
230
1
0
CIRCLE
5
110
100
AcDbEntity
8
0
100
AcDbCircle
10
-61.749999999999801
20
41.750000000000114
30
0
40
6.0000000000000053
210
0
220
-0
230
1
0
CIRCLE
5
111
100
AcDbEntity
8
0
100
AcDbCircle
10
-113.7499999999998
20
41.750000000000114
30
0
40
5.9999999999999964
210
0
220
-0
230
1
0
CIRCLE
5
112
100
AcDbEntity
8
0
100
AcDbCircle
10
-87.749999999999801
20
41.750000000000114
30
0
40
5.9999999999999964
210
0
220
-0
230
1
0
CIRCLE
5
113
100
AcDbEntity
8
0
100
AcDbCircle
10
-113.7499999999998
20
72.250000000000014
30
0
40
4.1249999999999964
210
0
220
-0
230
1
0
CIRCLE
5
114
100
AcDbEntity
8
0
100
AcDbCircle
10
-61.749999999999801
20
72.250000000000014
30
0
40
4.1249999999999964
210
0
220
-0
230
1
0
CIRCLE
5
115
100
AcDbEntity
8
0
100
AcDbCircle
10
-9.7499999999997993
20
41.750000000000114
30
0
40
6.0000000000000009
210
0
220
-0
230
1
0
CIRCLE
5
116
100
AcDbEntity
8
0
100
AcDbCircle
10
-9.7499999999997993
20
72.250000000000014
30
0
40
4.1250000000000009
210
0
220
-0
230
1
0
LWPOLYLINE
5
117
100
AcDbEntity
8
0
100
AcDbPolyline
90
8
70
1
43
0.0
10
-6.0000000000006493
20
-5.750000000000278
10
5.9999999999993499
20
-5.7500000000002789
42
0.41421356237309503
10
6.4999999999993507
20
-5.250000000000278
10
6.4999999999993507
20
5.2499999999997229
42
0.41421356237309437
10
5.9999999999993516
20
5.7499999999997229
10
-6.0000000000006484
20
5.749999999999722
42
0.41421356237309503
10
-6.5000000000006484
20
5.2499999999997229
10
-6.5000000000006501
20
-5.250000000000278
42
0.41421356237309437
0
LWPOLYLINE
5
118
100
AcDbEntity
8
0
100
AcDbPolyline
90
8
70
1
43
0.0
10
-123.50000000000065
20
5.2499999999997229
10
-123.50000000000065
20
-5.250000000000278
42
0.41421356237309503
10
-123.00000000000065
20
-5.750000000000278
10
-111.00000000000067
20
-5.7500000000002789
42
0.41421356237309503
10
-110.50000000000067
20
-5.250000000000278
10
-110.50000000000067
20
5.2499999999997229
42
0.41421356237309503
10
-111.00000000000068
20
5.7499999999997229
10
-123.00000000000065
20
5.749999999999722
42
0.41421356237309503
0
LWPOLYLINE
5
119
100
AcDbEntity
8
0
100
AcDbPolyline
90
8
70
1
43
0.0
10
-162.50000000000068
20
5.2499999999997229
10
-162.50000000000068
20
-5.250000000000278
42
0.41421356237309503
10
-162.00000000000068
20
-5.750000000000278
10
-150.00000000000068
20
-5.7500000000002789
42
0.41421356237309503
10
-149.50000000000068
20
-5.250000000000278
10
-149.50000000000068
20
5.2499999999997229
42
0.41421356237309503
10
-150.00000000000068
20
5.7499999999997229
10
-162.00000000000068
20
5.749999999999722
42
0.41421356237309503
0
LWPOLYLINE
5
120
100
AcDbEntity
8
0
100
AcDbPolyline
90
8
70
1
43
0.0
10
-104.00000000000064
20
5.2499999999997229
10
-104.00000000000064
20
-5.250000000000278
42
0.41421356237309503
10
-103.50000000000064
20
-5.750000000000278
10
-91.500000000000654
20
-5.7500000000002789
42
0.41421356237309503
10
-91.000000000000654
20
-5.250000000000278
10
-91.000000000000654
20
5.2499999999997229
42
0.41421356237309503
10
-91.500000000000654
20
5.7499999999997229
10
-103.50000000000064
20
5.749999999999722
42
0.41421356237309503
0
LWPOLYLINE
5
121
100
AcDbEntity
8
0
100
AcDbPolyline
90
8
70
1
43
0.0
10
-45.500000000000654
20
5.2499999999997229
10
-45.500000000000654
20
-5.250000000000278
42
0.41421356237309503
10
-45.000000000000654
20
-5.750000000000278
10
-33.000000000000654
20
-5.7500000000002789
42
0.41421356237309503
10
-32.500000000000654
20
-5.250000000000278
10
-32.500000000000654
20
5.2499999999997229
42
0.41421356237309503
10
-33.000000000000647
20
5.7499999999997229
10
-45.000000000000654
20
5.749999999999722
42
0.41421356237309503
0
LWPOLYLINE
5
122
100
AcDbEntity
8
0
100
AcDbPolyline
90
8
70
1
43
0.0
10
-65.000000000000654
20
5.2499999999997229
10
-65.000000000000654
20
-5.250000000000278
42
0.41421356237309503
10
-64.500000000000654
20
-5.750000000000278
10
-52.500000000000647
20
-5.7500000000002789
42
0.41421356237309503
10
-52.000000000000654
20
-5.250000000000278
10
-52.000000000000654
20
5.2499999999997229
42
0.41421356237309503
10
-52.500000000000647
20
5.7499999999997229
10
-64.500000000000654
20
5.749999999999722
42
0.41421356237309503
0
LWPOLYLINE
5
123
100
AcDbEntity
8
0
100
AcDbPolyline
90
8
70
1
43
0.0
10
-84.500000000000654
20
5.2499999999997229
10
-84.500000000000654
20
-5.250000000000278
42
0.41421356237309503
10
-84.000000000000639
20
-5.750000000000278
10
-72.000000000000654
20
-5.7500000000002789
42
0.41421356237309503
10
-71.500000000000654
20
-5.250000000000278
10
-71.500000000000654
20
5.2499999999997229
42
0.41421356237309503
10
-72.000000000000654
20
5.7499999999997229
10
-84.000000000000639
20
5.749999999999722
42
0.41421356237309503
0
LWPOLYLINE
5
124
100
AcDbEntity
8
0
100
AcDbPolyline
90
8
70
1
43
0.0
10
-183.74999999999969
20
82.000000000000014
10
8.2499999999999929
20
82.000000000000028
42
-0.41421356237309698
10
12.25
20
77.999999999999986
10
12.25
20
-10.999999999999996
42
-0.41421356237309592
10
8.2499999999999929
20
-15
10
-183.74999999999969
20
-14.99999999999995
42
-0.41421356237309276
10
-187.74999999999966
20
-10.999999999999996
10
-187.74999999999972
20
78
42
-0.41421356237309309
0
CIRCLE
5
125
100
AcDbEntity
8
0
100
AcDbCircle
10
-5.4606798151467282e-13
20
15
30
0
40
3.0000000000000004
210
0
220
0
230
1
0
ARC
5
126
100
AcDbEntity
8
0
100
AcDbCircle
10
-5.4606798151467282e-13
20
15
30
0
40
4.75
210
0
220
0
230
1
100
AcDbArc
50
-30.000000000000071
51
29.999999999999993
0
ARC
5
127
100
AcDbEntity
8
0
100
AcDbCircle
10
-5.4606798151467282e-13
20
15
30
0
40
4.75
210
0
220
0
230
1
100
AcDbArc
50
150.00000000000003
51
209.99999999999997
0
CIRCLE
5
128
100
AcDbEntity
8
0
100
AcDbCircle
10
-19.500000000000547
20
15
30
0
40
2.4999999999999991
210
0
220
0
230
1
0
LINE
5
129
100
AcDbEntity
8
0
100
AcDbLine
10
-22.000000000000547
20
15
30
0
11
-24.000000000000551
21
15
31
0
0
LINE
5
130
100
AcDbEntity
8
0
100
AcDbLine
10
-19.500000000000547
20
12.5
30
0
11
-19.500000000000547
21
10.5
31
0
0
LINE
5
131
100
AcDbEntity
8
0
100
AcDbLine
10
-17.000000000000547
20
15
30
0
11
-15.000000000000549
21
15
31
0
0
CIRCLE
5
132
100
AcDbEntity
8
0
100
AcDbCircle
10
-39.000000000000547
20
15
30
0
40
2.5000000000000018
210
0
220
0
230
1
0
LINE
5
133
100
AcDbEntity
8
0
100
AcDbLine
10
-39.000000000000547
20
12.499999999999998
30
0
11
-39.000000000000547
21
10.499999999999998
31
0
0
LINE
5
134
100
AcDbEntity
8
0
100
AcDbLine
10
-36.834936490539448
20
16.25
30
0
11
-35.102885682970573
21
17.250000000000004
31
0
0
LINE
5
135
100
AcDbEntity
8
0
100
AcDbLine
10
-41.165063509461646
20
16.250000000000004
30
0
11
-42.897114317030528
21
17.250000000000007
31
0
0
LINE
5
136
100
AcDbEntity
8
0
100
AcDbLine
10
-39.000000000000547
20
15
30
0
11
-37.232233047034178
21
16.767766952966369
31
0
0
LINE
5
137
100
AcDbEntity
8
0
100
AcDbLine
10
-39.000000000000547
20
15
30
0
11
-40.767766952966923
21
16.767766952966369
31
0
0
LINE
5
138
100
AcDbEntity
8
0
100
AcDbLine
10
-39.000000000000547
20
15
30
0
11
-40.767766952966923
21
13.232233047033628
31
0
0
LINE
5
139
100
AcDbEntity
8
0
100
AcDbLine
10
-39.000000000000547
20
15
30
0
11
-37.232233047034178
21
13.232233047033631
31
0
0
LWPOLYLINE
5
140
100
AcDbEntity
8
0
100
AcDbPolyline
90
3
70
1
43
0.0
10
-55.03589838486279
20
17.499999999999996
10
-58.500000000000547
20
11.500000000000002
10
-61.964101615138304
20
17.500000000000004
0
LWPOLYLINE
5
141
100
AcDbEntity
8
0
100
AcDbPolyline
90
3
70
1
43
0.0
10
-81.464101615138304
20
12.5
10
-78.000000000000554
20
18.5
10
-74.53589838486279
20
12.499999999999998
0
LINE
5
142
100
AcDbEntity
8
0
100
AcDbLine
10
-78.000000000000554
20
12.5
30
0
11
-78.000000000000568
21
10.5
31
0
0
LINE
5
143
100
AcDbEntity
8
0
100
AcDbLine
10
-76.267949192431672
20
15.49999999999998
30
0
11
-74.535898384862804
21
16.499999999999964
31
0
0
LINE
5
144
100
AcDbEntity
8
0
100
AcDbLine
10
-79.732050807569436
20
15.500000000000007
30
0
11
-81.464101615138276
21
16.499999999999986
31
0
0
CIRCLE
5
145
100
AcDbEntity
8
0
100
AcDbCircle
10
-97.500000000000554
20
15
30
0
40
2.9999999999999938
210
0
220
0
230
1
0
LINE
5
146
100
AcDbEntity
8
0
100
AcDbLine
10
-98.56066017178037
20
13.939339828220179
30
0
11
-99.621320343560186
21
12.878679656440362
31
0
0
LINE
5
147
100
AcDbEntity
8
0
100
AcDbLine
10
-96.439339828220739
20
13.939339828220181
30
0
11
-95.378679656440909
21
12.878679656440362
31
0
0
LINE
5
148
100
AcDbEntity
8
0
100
AcDbLine
10
-96.439339828220739
20
16.060660171779819
30
0
11
-95.378679656440909
21
17.121320343559635
31
0
0
LINE
5
149
100
AcDbEntity
8
0
100
AcDbLine
10
-98.56066017178037
20
16.060660171779819
30
0
11
-99.621320343560186
21
17.121320343559638
31
0
0
CIRCLE
5
150
100
AcDbEntity
8
0
100
AcDbCircle
10
-117.00000000000057
20
15
30
0
40
2.9999999999999982
210
0
220
0
230
1
0
LINE
5
151
100
AcDbEntity
8
0
100
AcDbLine
10
-119.1213203435602
20
12.87867965644036
30
0
11
-120.18198051534002
21
11.818019484660535
31
0
0
LINE
5
152
100
AcDbEntity
8
0
100
AcDbLine
10
-114.87867965644092
20
12.878679656440362
30
0
11
-113.81801948466108
21
11.818019484660525
31
0
0
LINE
5
153
100
AcDbEntity
8
0
100
AcDbLine
10
-114.87867965644092
20
17.121320343559638
30
0
11
-113.81801948466111
21
18.181980515339461
31
0
0
LINE
5
154
100
AcDbEntity
8
0
100
AcDbLine
10
-119.12132034356021
20
17.121320343559638
30
0
11
-120.18198051534003
21
18.181980515339458
31
0
0
ARC
5
155
100
AcDbEntity
8
0
100
AcDbCircle
10
-136.50000000000057
20
15
30
0
40
2.9999999999999964
210
0
220
0
230
1
100
AcDbArc
50
110.00000000000009
51
159.99999999999997
0
ARC
5
156
100
AcDbEntity
8
0
100
AcDbCircle
10
-136.50000000000057
20
15
30
0
40
2.999999999999996
210
0
220
0
230
1
100
AcDbArc
50
200.00000000000011
51
249.99999999999991
0
ARC
5
157
100
AcDbEntity
8
0
100
AcDbCircle
10
-136.50000000000057
20
15
30
0
40
2.9999999999999964
210
0
220
0
230
1
100
AcDbArc
50
290.00000000000006
51
340
0
ARC
5
158
100
AcDbEntity
8
0
100
AcDbCircle
10
-136.50000000000057
20
15
30
0
40
2.999999999999996
210
0
220
-0
230
1
100
AcDbArc
50
20.000000000000085
51
70.000000000000441
0
LINE
5
159
100
AcDbEntity
8
0
100
AcDbLine
10
-156.00000000000057
20
16.5
30
0
11
-156.00000000000057
21
18.5
31
0
0
LINE
5
160
100
AcDbEntity
8
0
100
AcDbLine
10
-157.73205080756944
20
13.499999999999995
30
0
11
-159.46410161513833
21
12.500000000000007
31
0
0
LINE
5
161
100
AcDbEntity
8
0
100
AcDbLine
10
-154.2679491924317
20
13.500000000000005
30
0
11
-152.53589838486283
21
12.499999999999991
31
0
0
LINE
5
162
100
AcDbEntity
8
0
100
AcDbLine
10
-175.50000000000054
20
13.5
30
0
11
-175.50000000000054
21
11.500000000000002
31
0
0
LINE
5
163
100
AcDbEntity
8
0
100
AcDbLine
10
-175.50000000000054
20
11.500000000000002
30
0
11
-176.25000000000054
21
11.500000000000002
31
0
0
LINE
5
164
100
AcDbEntity
8
0
100
AcDbLine
10
-176.25000000000054
20
11.500000000000002
30
0
11
-175.50000000000054
21
11.500000000000002
31
0
0
LINE
5
165
100
AcDbEntity
8
0
100
AcDbLine
10
-175.50000000000054
20
11.500000000000002
30
0
11
-174.75000000000054
21
11.500000000000002
31
0
0
LINE
5
166
100
AcDbEntity
8
0
100
AcDbLine
10
-173.76794919243167
20
16.499999999999993
30
0
11
-172.0358983848628
21
17.500000000000014
31
0
0
LINE
5
167
100
AcDbEntity
8
0
100
AcDbLine
10
-172.0358983848628
20
17.500000000000014
30
0
11
-171.66089838486278
21
16.850480947161667
31
0
0
LINE
5
168
100
AcDbEntity
8
0
100
AcDbLine
10
-172.0358983848628
20
17.500000000000014
30
0
11
-172.41089838486278
21
18.149519052838329
31
0
0
LINE
5
169
100
AcDbEntity
8
0
100
AcDbLine
10
-177.23205080756941
20
16.500000000000007
30
0
11
-178.96410161513828
21
17.499999999999989
31
0
0
LINE
5
170
100
AcDbEntity
8
0
100
AcDbLine
10
-178.96410161513828
20
17.499999999999989
30
0
11
-178.58910161513825
21
18.149519052838336
31
0
0
LINE
5
171
100
AcDbEntity
8
0
100
AcDbLine
10
-178.96410161513828
20
17.499999999999989
30
0
11
-179.3391016151383
21
16.850480947161671
31
0
0
LINE
5
172
100
AcDbEntity
8
0
100
AcDbLine
10
-6.8928573131559245
20
59.089285910129554
30
0
11
-6.4166668653486125
21
58.613095462322242
31
0
0
LINE
5
173
100
AcDbEntity
8
0
100
AcDbLine
10
-6.4166668653486125
20
58.613095462322242
30
0
11
-5.7023808956144206
21
58.375000238418586
31
0
0
LINE
5
174
100
AcDbEntity
8
0
100
AcDbLine
10
-5.7023808956144206
20
58.375000238418586
30
0
11
-4.7499999999997966
21
58.375000238418586
31
0
0
LINE
5
175
100
AcDbEntity
8
0
100
AcDbLine
10
-4.7499999999997966
20
58.375000238418586
30
0
11
-4.0357146263120525
21
58.613095462322242
31
0
0
LINE
5
176
100
AcDbEntity
8
0
100
AcDbLine
10
-4.0357146263120525
20
58.613095462322242
30
0
11
-3.5595241785047405
21
59.089285910129554
31
0
0
LINE
5
177
100
AcDbEntity
8
0
100
AcDbLine
10
-3.5595241785047405
20
59.089285910129554
30
0
11
-3.5595241785047405
21
59.56547665596009
31
0
0
LINE
5
178
100
AcDbEntity
8
0
100
AcDbLine
10
-3.5595241785047405
20
59.56547665596009
30
0
11
-3.7976191043851726
21
60.041666507720954
31
0
0
LINE
5
179
100
AcDbEntity
8
0
100
AcDbLine
10
-3.7976191043851726
20
60.041666507720954
30
0
11
-4.0357146263120525
21
60.279762029647834
31
0
0
LINE
5
180
100
AcDbEntity
8
0
100
AcDbLine
10
-4.0357146263120525
20
60.279762029647834
30
0
11
-4.5119050741193645
21
60.517857551574714
31
0
0
LINE
5
181
100
AcDbEntity
8
0
100
AcDbLine
10
-4.5119050741193645
20
60.517857551574714
30
0
11
-5.9404764175413005
21
60.994047999382026
31
0
0
LINE
5
182
100
AcDbEntity
8
0
100
AcDbLine
10
-5.9404764175413005
20
60.994047999382026
30
0
11
-6.4166668653486125
21
61.232142925262458
31
0
0
LINE
5
183
100
AcDbEntity
8
0
100
AcDbLine
10
-6.4166668653486125
20
61.232142925262458
30
0
11
-6.6547617912290447
21
61.470238447189338
31
0
0
LINE
5
184
100
AcDbEntity
8
0
100
AcDbLine
10
-6.6547617912290447
20
61.470238447189338
30
0
11
-6.8928573131559245
21
61.94642889499665
31
0
0
LINE
5
185
100
AcDbEntity
8
0
100
AcDbLine
10
-6.8928573131559245
20
61.94642889499665
30
0
11
-6.8928573131559245
21
62.660714268684394
31
0
0
LINE
5
186
100
AcDbEntity
8
0
100
AcDbLine
10
-6.8928573131559245
20
62.660714268684394
30
0
11
-6.4166668653486125
21
63.136904716491706
31
0
0
LINE
5
187
100
AcDbEntity
8
0
100
AcDbLine
10
-6.4166668653486125
20
63.136904716491706
30
0
11
-5.7023808956144206
21
63.375000238418586
31
0
0
LINE
5
188
100
AcDbEntity
8
0
100
AcDbLine
10
-5.7023808956144206
20
63.375000238418586
30
0
11
-4.7499999999997966
21
63.375000238418586
31
0
0
LINE
5
189
100
AcDbEntity
8
0
100
AcDbLine
10
-4.7499999999997966
20
63.375000238418586
30
0
11
-4.0357146263120525
21
63.136904716491706
31
0
0
LINE
5
190
100
AcDbEntity
8
0
100
AcDbLine
10
-4.0357146263120525
20
63.136904716491706
30
0
11
-3.5595241785047405
21
62.660714268684394
31
0
0
LINE
5
191
100
AcDbEntity
8
0
100
AcDbLine
10
-9.7499999999997975
20
58.375000238418586
30
0
11
-7.8452382087705486
21
63.375000238418586
31
0
0
LINE
5
192
100
AcDbEntity
8
0
100
AcDbLine
10
-9.7499999999997975
20
58.375000238418586
30
0
11
-11.654761791229046
21
63.375000238418586
31
0
0
LINE
5
193
100
AcDbEntity
8
0
100
AcDbLine
10
-8.5595235824582936
20
61.70833337306977
30
0
11
-10.940476417541301
21
61.70833337306977
31
0
0
LINE
5
194
100
AcDbEntity
8
0
100
AcDbLine
10
-15.940476417541301
20
59.089285910129554
30
0
11
-15.464285373687542
21
58.613095462322242
31
0
0
LINE
5
195
100
AcDbEntity
8
0
100
AcDbLine
10
-15.464285373687542
20
58.613095462322242
30
0
11
-14.749999999999797
21
58.375000238418586
31
0
0
LINE
5
196
100
AcDbEntity
8
0
100
AcDbLine
10
-14.749999999999797
20
58.375000238418586
30
0
11
-13.797619104385173
21
58.375000238418586
31
0
0
LINE
5
197
100
AcDbEntity
8
0
100
AcDbLine
10
-13.797619104385173
20
58.375000238418586
30
0
11
-13.083333730697429
21
58.613095462322242
31
0
0
LINE
5
198
100
AcDbEntity
8
0
100
AcDbLine
10
-13.083333730697429
20
58.613095462322242
30
0
11
-12.60714268684367
21
59.089285910129554
31
0
0
LINE
5
199
100
AcDbEntity
8
0
100
AcDbLine
10
-12.60714268684367
20
59.089285910129554
30
0
11
-12.60714268684367
21
59.56547665596009
31
0
0
LINE
5
200
100
AcDbEntity
8
0
100
AcDbLine
10
-12.60714268684367
20
59.56547665596009
30
0
11
-12.845238208770549
21
60.041666507720954
31
0
0
LINE
5
201
100
AcDbEntity
8
0
100
AcDbLine
10
-12.845238208770549
20
60.041666507720954
30
0
11
-13.083333730697429
21
60.279762029647834
31
0
0
LINE
5
202
100
AcDbEntity
8
0
100
AcDbLine
10
-13.083333730697429
20
60.279762029647834
30
0
11
-13.559523582458294
21
60.517857551574714
31
0
0
LINE
5
203
100
AcDbEntity
8
0
100
AcDbLine
10
-13.559523582458294
20
60.517857551574714
30
0
11
-14.988095521926677
21
60.994047999382026
31
0
0
LINE
5
204
100
AcDbEntity
8
0
100
AcDbLine
10
-14.988095521926677
20
60.994047999382026
30
0
11
-15.464285373687542
21
61.232142925262458
31
0
0
LINE
5
205
100
AcDbEntity
8
0
100
AcDbLine
10
-15.464285373687542
20
61.232142925262458
30
0
11
-15.702380895614422
21
61.470238447189338
31
0
0
LINE
5
206
100
AcDbEntity
8
0
100
AcDbLine
10
-15.702380895614422
20
61.470238447189338
30
0
11
-15.940476417541301
21
61.94642889499665
31
0
0
LINE
5
207
100
AcDbEntity
8
0
100
AcDbLine
10
-15.940476417541301
20
61.94642889499665
30
0
11
-15.940476417541301
21
62.660714268684394
31
0
0
LINE
5
208
100
AcDbEntity
8
0
100
AcDbLine
10
-15.940476417541301
20
62.660714268684394
30
0
11
-15.464285373687542
21
63.136904716491706
31
0
0
LINE
5
209
100
AcDbEntity
8
0
100
AcDbLine
10
-15.464285373687542
20
63.136904716491706
30
0
11
-14.749999999999797
21
63.375000238418586
31
0
0
LINE
5
210
100
AcDbEntity
8
0
100
AcDbLine
10
-14.749999999999797
20
63.375000238418586
30
0
11
-13.797619104385173
21
63.375000238418586
31
0
0
LINE
5
211
100
AcDbEntity
8
0
100
AcDbLine
10
-13.797619104385173
20
63.375000238418586
30
0
11
-13.083333730697429
21
63.136904716491706
31
0
0
LINE
5
212
100
AcDbEntity
8
0
100
AcDbLine
10
-13.083333730697429
20
63.136904716491706
30
0
11
-12.60714268684367
21
62.660714268684394
31
0
0
LINE
5
213
100
AcDbEntity
8
0
100
AcDbLine
10
-29.321428656577886
20
58.375000238418586
30
0
11
-29.321428656577876
21
63.375000238418586
31
0
0
LINE
5
214
100
AcDbEntity
8
0
100
AcDbLine
10
-29.321428656577886
20
58.375000238418586
30
0
11
-31.464285969734014
21
58.375000238418586
31
0
0
LINE
5
215
100
AcDbEntity
8
0
100
AcDbLine
10
-31.464285969734014
20
58.375000238418586
30
0
11
-32.178571939468206
21
58.613095462322242
31
0
0
LINE
5
216
100
AcDbEntity
8
0
100
AcDbLine
10
-32.178571939468206
20
58.613095462322242
30
0
11
-32.416666865348638
21
58.851190686225898
31
0
0
LINE
5
217
100
AcDbEntity
8
0
100
AcDbLine
10
-32.416666865348638
20
58.851190686225898
30
0
11
-32.65476179122907
21
59.32738113403321
31
0
0
LINE
5
218
100
AcDbEntity
8
0
100
AcDbLine
10
-32.65476179122907
20
59.32738113403321
30
0
11
-32.65476179122907
21
59.803571581840522
31
0
0
LINE
5
219
100
AcDbEntity
8
0
100
AcDbLine
10
-32.65476179122907
20
59.803571581840522
30
0
11
-32.416666865348638
21
60.279762029647834
31
0
0
LINE
5
220
100
AcDbEntity
8
0
100
AcDbLine
10
-32.416666865348638
20
60.279762029647834
30
0
11
-32.178571939468206
21
60.517857551574714
31
0
0
LINE
5
221
100
AcDbEntity
8
0
100
AcDbLine
10
-32.178571939468206
20
60.517857551574714
30
0
11
-31.464285969734011
21
60.755952477455146
31
0
0
LINE
5
222
100
AcDbEntity
8
0
100
AcDbLine
10
-31.464285969734011
20
60.755952477455146
30
0
11
-29.321428656577883
21
60.755952477455146
31
0
0
LINE
5
223
100
AcDbEntity
8
0
100
AcDbLine
10
-30.988095521926699
20
60.755952477455146
30
0
11
-32.654761791229056
21
63.375000238418586
31
0
0
LINE
5
224
100
AcDbEntity
8
0
100
AcDbLine
10
-37.65476179122907
20
59.56547665596009
30
0
11
-37.416666269302191
21
59.089285910129554
31
0
0
LINE
5
225
100
AcDbEntity
8
0
100
AcDbLine
10
-37.416666269302191
20
59.089285910129554
30
0
11
-36.940476417541326
21
58.613095462322242
31
0
0
LINE
5
226
100
AcDbEntity
8
0
100
AcDbLine
10
-36.940476417541326
20
58.613095462322242
30
0
11
-36.464285373687567
21
58.375000238418586
31
0
0
LINE
5
227
100
AcDbEntity
8
0
100
AcDbLine
10
-36.464285373687567
20
58.375000238418586
30
0
11
-35.511904478072942
21
58.375000238418586
31
0
0
LINE
5
228
100
AcDbEntity
8
0
100
AcDbLine
10
-35.511904478072942
20
58.375000238418586
30
0
11
-35.035713434219183
21
58.613095462322242
31
0
0
LINE
5
229
100
AcDbEntity
8
0
100
AcDbLine
10
-35.035713434219183
20
58.613095462322242
30
0
11
-34.559523582458318
21
59.089285910129554
31
0
0
LINE
5
230
100
AcDbEntity
8
0
100
AcDbLine
10
-34.559523582458318
20
59.089285910129554
30
0
11
-34.321428060531439
21
59.56547665596009
31
0
0
LINE
5
231
100
AcDbEntity
8
0
100
AcDbLine
10
-34.321428060531439
20
59.56547665596009
30
0
11
-34.083332538604559
21
60.279762029647834
31
0
0
LINE
5
232
100
AcDbEntity
8
0
100
AcDbLine
10
-34.083332538604559
20
60.279762029647834
30
0
11
-34.083332538604559
21
61.470238447189338
31
0
0
LINE
5
233
100
AcDbEntity
8
0
100
AcDbLine
10
-34.083332538604559
20
61.470238447189338
30
0
11
-34.321428060531431
21
62.184523820877082
31
0
0
LINE
5
234
100
AcDbEntity
8
0
100
AcDbLine
10
-34.321428060531431
20
62.184523820877082
30
0
11
-34.559523582458311
21
62.660714268684394
31
0
0
LINE
5
235
100
AcDbEntity
8
0
100
AcDbLine
10
-34.559523582458311
20
62.660714268684394
30
0
11
-35.035713434219176
21
63.136904716491706
31
0
0
LINE
5
236
100
AcDbEntity
8
0
100
AcDbLine
10
-35.035713434219176
20
63.136904716491706
30
0
11
-35.511904478072935
21
63.375000238418586
31
0
0
LINE
5
237
100
AcDbEntity
8
0
100
AcDbLine
10
-35.511904478072935
20
63.375000238418586
30
0
11
-36.464285373687559
21
63.375000238418586
31
0
0
LINE
5
238
100
AcDbEntity
8
0
100
AcDbLine
10
-36.464285373687559
20
63.375000238418586
30
0
11
-36.940476417541319
21
63.136904716491706
31
0
0
LINE
5
239
100
AcDbEntity
8
0
100
AcDbLine
10
-36.940476417541319
20
63.136904716491706
30
0
11
-37.416666269302183
21
62.660714268684394
31
0
0
LINE
5
240
100
AcDbEntity
8
0
100
AcDbLine
10
-37.416666269302183
20
62.660714268684394
30
0
11
-37.654761791229063
21
62.184523820877082
31
0
0
LINE
5
241
100
AcDbEntity
8
0
100
AcDbLine
10
-42.416666269302191
20
59.089285910129547
30
0
11
-41.940476417541326
21
58.613095462322235
31
0
0
LINE
5
242
100
AcDbEntity
8
0
100
AcDbLine
10
-41.940476417541326
20
58.613095462322235
30
0
11
-41.226189851760687
21
58.375000238418586
31
0
0
LINE
5
243
100
AcDbEntity
8
0
100
AcDbLine
10
-41.226189851760687
20
58.375000238418586
30
0
11
-40.273808956146063
21
58.375000238418586
31
0
0
LINE
5
244
100
AcDbEntity
8
0
100
AcDbLine
10
-40.273808956146063
20
58.375000238418586
30
0
11
-39.559523582458318
21
58.613095462322242
31
0
0
LINE
5
245
100
AcDbEntity
8
0
100
AcDbLine
10
-39.559523582458318
20
58.613095462322242
30
0
11
-39.083332538604559
21
59.089285910129554
31
0
0
LINE
5
246
100
AcDbEntity
8
0
100
AcDbLine
10
-39.083332538604559
20
59.089285910129554
30
0
11
-39.083332538604559
21
59.56547665596009
31
0
0
LINE
5
247
100
AcDbEntity
8
0
100
AcDbLine
10
-39.083332538604559
20
59.56547665596009
30
0
11
-39.321428060531439
21
60.041666507720954
31
0
0
LINE
5
248
100
AcDbEntity
8
0
100
AcDbLine
10
-39.321428060531439
20
60.041666507720954
30
0
11
-39.559523582458318
21
60.279762029647834
31
0
0
LINE
5
249
100
AcDbEntity
8
0
100
AcDbLine
10
-39.559523582458318
20
60.279762029647834
30
0
11
-40.035713434219183
21
60.517857551574714
31
0
0
LINE
5
250
100
AcDbEntity
8
0
100
AcDbLine
10
-40.035713434219183
20
60.517857551574714
30
0
11
-41.464285373687559
21
60.994047999382026
31
0
0
LINE
5
251
100
AcDbEntity
8
0
100
AcDbLine
10
-41.464285373687559
20
60.994047999382026
30
0
11
-41.940476417541319
21
61.232142925262458
31
0
0
LINE
5
252
100
AcDbEntity
8
0
100
AcDbLine
10
-41.940476417541319
20
61.232142925262458
30
0
11
-42.178570747375304
21
61.470238447189338
31
0
0
LINE
5
253
100
AcDbEntity
8
0
100
AcDbLine
10
-42.178570747375304
20
61.470238447189338
30
0
11
-42.416666269302183
21
61.94642889499665
31
0
0
LINE
5
254
100
AcDbEntity
8
0
100
AcDbLine
10
-42.416666269302183
20
61.94642889499665
30
0
11
-42.416666269302183
21
62.660714268684394
31
0
0
LINE
5
255
100
AcDbEntity
8
0
100
AcDbLine
10
-42.416666269302183
20
62.660714268684394
30
0
11
-41.940476417541319
21
63.136904716491706
31
0
0
LINE
5
256
100
AcDbEntity
8
0
100
AcDbLine
10
-41.940476417541319
20
63.136904716491706
30
0
11
-41.22618985176068
21
63.375000238418586
31
0
0
LINE
5
257
100
AcDbEntity
8
0
100
AcDbLine
10
-41.22618985176068
20
63.375000238418586
30
0
11
-40.273808956146055
21
63.375000238418586
31
0
0
LINE
5
258
100
AcDbEntity
8
0
100
AcDbLine
10
-40.273808956146055
20
63.375000238418586
30
0
11
-39.559523582458311
21
63.136904716491706
31
0
0
LINE
5
259
100
AcDbEntity
8
0
100
AcDbLine
10
-39.559523582458311
20
63.136904716491706
30
0
11
-39.083332538604552
21
62.660714268684394
31
0
0
LINE
5
260
100
AcDbEntity
8
0
100
AcDbLine
10
-82.630952835082809
20
59.56547665596009
30
0
11
-82.392857313155929
21
59.089285910129554
31
0
0
LINE
5
261
100
AcDbEntity
8
0
100
AcDbLine
10
-82.392857313155929
20
59.089285910129554
30
0
11
-81.916666865348617
21
58.613095462322242
31
0
0
LINE
5
262
100
AcDbEntity
8
0
100
AcDbLine
10
-81.916666865348617
20
58.613095462322242
30
0
11
-81.440476417541305
21
58.375000238418586
31
0
0
LINE
5
263
100
AcDbEntity
8
0
100
AcDbLine
10
-81.440476417541305
20
58.375000238418586
30
0
11
-80.488095521926681
21
58.375000238418586
31
0
0
LINE
5
264
100
AcDbEntity
8
0
100
AcDbLine
10
-80.488095521926681
20
58.375000238418586
30
0
11
-80.011905074119369
21
58.613095462322242
31
0
0
LINE
5
265
100
AcDbEntity
8
0
100
AcDbLine
10
-80.011905074119369
20
58.613095462322242
30
0
11
-79.535714328288833
21
59.089285910129554
31
0
0
LINE
5
266
100
AcDbEntity
8
0
100
AcDbLine
10
-79.535714328288833
20
59.089285910129554
30
0
11
-79.297619104385177
21
59.56547665596009
31
0
0
LINE
5
267
100
AcDbEntity
8
0
100
AcDbLine
10
-79.297619104385177
20
59.56547665596009
30
0
11
-79.059523880481521
21
60.279762029647834
31
0
0
LINE
5
268
100
AcDbEntity
8
0
100
AcDbLine
10
-79.059523880481521
20
60.279762029647834
30
0
11
-79.059523880481521
21
61.470238447189338
31
0
0
LINE
5
269
100
AcDbEntity
8
0
100
AcDbLine
10
-79.059523880481521
20
61.470238447189338
30
0
11
-79.297619104385177
21
62.184523820877082
31
0
0
LINE
5
270
100
AcDbEntity
8
0
100
AcDbLine
10
-79.297619104385177
20
62.184523820877082
30
0
11
-79.535714328288833
21
62.660714268684394
31
0
0
LINE
5
271
100
AcDbEntity
8
0
100
AcDbLine
10
-79.535714328288833
20
62.660714268684394
30
0
11
-80.011905074119369
21
63.136904716491706
31
0
0
LINE
5
272
100
AcDbEntity
8
0
100
AcDbLine
10
-80.011905074119369
20
63.136904716491706
30
0
11
-80.488095521926681
21
63.375000238418586
31
0
0
LINE
5
273
100
AcDbEntity
8
0
100
AcDbLine
10
-80.488095521926681
20
63.375000238418586
30
0
11
-81.440476417541305
21
63.375000238418586
31
0
0
LINE
5
274
100
AcDbEntity
8
0
100
AcDbLine
10
-81.440476417541305
20
63.375000238418586
30
0
11
-81.916666865348617
21
63.136904716491706
31
0
0
LINE
5
275
100
AcDbEntity
8
0
100
AcDbLine
10
-81.916666865348617
20
63.136904716491706
30
0
11
-82.392857313155929
21
62.660714268684394
31
0
0
LINE
5
276
100
AcDbEntity
8
0
100
AcDbLine
10
-82.392857313155929
20
62.660714268684394
30
0
11
-82.630952835082809
21
62.184523820877082
31
0
0
LINE
5
277
100
AcDbEntity
8
0
100
AcDbLine
10
-82.630952835082809
20
62.184523820877082
30
0
11
-82.630952835082809
21
61.470238447189338
31
0
0
LINE
5
278
100
AcDbEntity
8
0
100
AcDbLine
10
-81.440476417541305
20
61.470238447189338
30
0
11
-82.630952835082809
21
61.470238447189338
31
0
0
LINE
5
279
100
AcDbEntity
8
0
100
AcDbLine
10
-84.297619104385177
20
58.375000238418586
30
0
11
-84.297619104385177
21
63.375000238418586
31
0
0
LINE
5
280
100
AcDbEntity
8
0
100
AcDbLine
10
-84.297619104385177
20
58.375000238418586
30
0
11
-87.392857313155929
21
58.375000238418586
31
0
0
LINE
5
281
100
AcDbEntity
8
0
100
AcDbLine
10
-84.297619104385177
20
60.755952477455146
30
0
11
-86.202380895614425
21
60.755952477455146
31
0
0
LINE
5
282
100
AcDbEntity
8
0
100
AcDbLine
10
-84.297619104385177
20
63.375000238418586
30
0
11
-87.392857313155929
21
63.375000238418586
31
0
0
LINE
5
283
100
AcDbEntity
8
0
100
AcDbLine
10
-90.011904478072921
20
58.375000238418586
30
0
11
-88.107142686843673
21
63.375000238418586
31
0
0
LINE
5
284
100
AcDbEntity
8
0
100
AcDbLine
10
-90.011904478072921
20
58.375000238418586
30
0
11
-91.916666269302169
21
63.375000238418586
31
0
0
LINE
5
285
100
AcDbEntity
8
0
100
AcDbLine
10
-88.821428060531417
20
61.70833337306977
30
0
11
-91.202380895614425
21
61.70833337306977
31
0
0
LINE
5
286
100
AcDbEntity
8
0
100
AcDbLine
10
-93.107142686843673
20
58.375000238418586
30
0
11
-93.107142686843673
21
63.375000238418586
31
0
0
LINE
5
287
100
AcDbEntity
8
0
100
AcDbLine
10
-93.107142686843673
20
58.375000238418586
30
0
11
-95.249999999999801
21
58.375000238418586
31
0
0
LINE
5
288
100
AcDbEntity
8
0
100
AcDbLine
10
-95.249999999999801
20
58.375000238418586
30
0
11
-95.964285373687545
21
58.613095462322242
31
0
0
LINE
5
289
100
AcDbEntity
8
0
100
AcDbLine
10
-95.964285373687545
20
58.613095462322242
30
0
11
-96.202382087707321
21
58.851190686225898
31
0
0
LINE
5
290
100
AcDbEntity
8
0
100
AcDbLine
10
-96.202382087707321
20
58.851190686225898
30
0
11
-96.440476417541305
21
59.32738113403321
31
0
0
LINE
5
291
100
AcDbEntity
8
0
100
AcDbLine
10
-96.440476417541305
20
59.32738113403321
30
0
11
-96.440476417541305
21
59.803571581840522
31
0
0
LINE
5
292
100
AcDbEntity
8
0
100
AcDbLine
10
-96.440476417541305
20
59.803571581840522
30
0
11
-96.202382087707321
21
60.279762029647834
31
0
0
LINE
5
293
100
AcDbEntity
8
0
100
AcDbLine
10
-96.202382087707321
20
60.279762029647834
30
0
11
-95.964285373687545
21
60.517857551574714
31
0
0
LINE
5
294
100
AcDbEntity
8
0
100
AcDbLine
10
-95.964285373687545
20
60.517857551574714
30
0
11
-95.249999999999801
21
60.755952477455146
31
0
0
LINE
5
295
100
AcDbEntity
8
0
100
AcDbLine
10
-95.249999999999801
20
60.755952477455146
30
0
11
-93.107142686843673
21
60.755952477455146
31
0
0
LINE
5
296
100
AcDbEntity
8
0
100
AcDbLine
10
-94.773808956146041
20
60.755952477455146
30
0
11
-96.440476417541305
21
63.375000238418586
31
0
0
LINE
5
297
100
AcDbEntity
8
0
100
AcDbLine
10
-133.20238089561443
20
58.375000238418593
30
0
11
-133.20238089561443
21
63.375000238418593
31
0
0
LINE
5
298
100
AcDbEntity
8
0
100
AcDbLine
10
-133.20238089561443
20
58.375000238418593
30
0
11
-135.10714268684367
21
63.375000238418593
31
0
0
LINE
5
299
100
AcDbEntity
8
0
100
AcDbLine
10
-137.01190447807292
20
58.375000238418586
30
0
11
-135.10714268684367
21
63.375000238418593
31
0
0
LINE
5
300
100
AcDbEntity
8
0
100
AcDbLine
10
-137.01190447807292
20
58.375000238418586
30
0
11
-137.01190447807292
21
63.375000238418586
31
0
0
LINE
5
301
100
AcDbEntity
8
0
100
AcDbLine
10
-140.10714268684367
20
58.375000238418586
30
0
11
-138.20238089561443
21
63.375000238418586
31
0
0
LINE
5
302
100
AcDbEntity
8
0
100
AcDbLine
10
-140.10714268684367
20
58.375000238418586
30
0
11
-142.01190447807292
21
63.375000238418586
31
0
0
LINE
5
303
100
AcDbEntity
8
0
100
AcDbLine
10
-138.91666626930217
20
61.70833337306977
30
0
11
-141.29761910438518
21
61.70833337306977
31
0
0
LINE
5
304
100
AcDbEntity
8
0
100
AcDbLine
10
-143.20238089561443
20
58.375000238418579
30
0
11
-143.20238089561443
21
63.375000238418579
31
0
0
LINE
5
305
100
AcDbEntity
8
0
100
AcDbLine
10
-143.20238089561443
20
58.375000238418579
30
0
11
-145.34523820877055
21
58.375000238418579
31
0
0
LINE
5
306
100
AcDbEntity
8
0
100
AcDbLine
10
-145.34523820877055
20
58.375000238418579
30
0
11
-146.0595235824583
21
58.613095462322235
31
0
0
LINE
5
307
100
AcDbEntity
8
0
100
AcDbLine
10
-146.0595235824583
20
58.613095462322235
30
0
11
-146.29761910438518
21
58.851190686225891
31
0
0
LINE
5
308
100
AcDbEntity
8
0
100
AcDbLine
10
-146.29761910438518
20
58.851190686225891
30
0
11
-146.53571462631206
21
59.327381134033203
31
0
0
LINE
5
309
100
AcDbEntity
8
0
100
AcDbLine
10
-146.53571462631206
20
59.327381134033203
30
0
11
-146.53571462631206
21
60.041666507720947
31
0
0
LINE
5
310
100
AcDbEntity
8
0
100
AcDbLine
10
-146.53571462631206
20
60.041666507720947
30
0
11
-146.29761910438518
21
60.517857551574707
31
0
0
LINE
5
311
100
AcDbEntity
8
0
100
AcDbLine
10
-146.29761910438518
20
60.517857551574707
30
0
11
-146.0595235824583
21
60.755952477455139
31
0
0
LINE
5
312
100
AcDbEntity
8
0
100
AcDbLine
10
-146.0595235824583
20
60.755952477455139
30
0
11
-145.34523820877055
21
60.994047999382019
31
0
0
LINE
5
313
100
AcDbEntity
8
0
100
AcDbLine
10
-145.34523820877055
20
60.994047999382019
30
0
11
-143.20238089561443
21
60.994047999382019
31
0
0
LINE
5
314
100
AcDbEntity
8
0
100
AcDbLine
10
-157.05952358245833
20
58.375000238418586
30
0
11
-157.05952358245833
21
63.375000238418586
31
0
0
LINE
5
315
100
AcDbEntity
8
0
100
AcDbLine
10
-157.05952358245833
20
58.375000238418586
30
0
11
-158.96428537368757
21
63.375000238418586
31
0
0
LINE
5
316
100
AcDbEntity
8
0
100
AcDbLine
10
-160.86904716491682
20
58.375000238418586
30
0
11
-158.96428537368757
21
63.375000238418586
31
0
0
LINE
5
317
100
AcDbEntity
8
0
100
AcDbLine
10
-160.86904716491682
20
58.375000238418586
30
0
11
-160.86904716491682
21
63.375000238418586
31
0
0
LINE
5
318
100
AcDbEntity
8
0
100
AcDbLine
10
-162.77380955219252
20
58.375000238418586
30
0
11
-162.77380955219252
21
61.94642889499665
31
0
0
LINE
5
319
100
AcDbEntity
8
0
100
AcDbLine
10
-162.77380955219252
20
61.94642889499665
30
0
11
-163.0119050741194
21
62.660714268684394
31
0
0
LINE
5
320
100
AcDbEntity
8
0
100
AcDbLine
10
-163.0119050741194
20
62.660714268684394
30
0
11
-163.48809552192671
21
63.136904716491706
31
0
0
LINE
5
321
100
AcDbEntity
8
0
100
AcDbLine
10
-163.48809552192671
20
63.136904716491706
30
0
11
-164.20238089561445
21
63.375000238418586
31
0
0
LINE
5
322
100
AcDbEntity
8
0
100
AcDbLine
10
-164.20238089561445
20
63.375000238418586
30
0
11
-164.67857193946821
21
63.375000238418586
31
0
0
LINE
5
323
100
AcDbEntity
8
0
100
AcDbLine
10
-164.67857193946821
20
63.375000238418586
30
0
11
-165.39285731315596
21
63.136904716491706
31
0
0
LINE
5
324
100
AcDbEntity
8
0
100
AcDbLine
10
-165.39285731315596
20
63.136904716491706
30
0
11
-165.86904716491682
21
62.660714268684394
31
0
0
LINE
5
325
100
AcDbEntity
8
0
100
AcDbLine
10
-165.86904716491682
20
62.660714268684394
30
0
11
-166.1071426868437
21
61.94642889499665
31
0
0
LINE
5
326
100
AcDbEntity
8
0
100
AcDbLine
10
-166.1071426868437
20
61.94642889499665
30
0
11
-166.1071426868437
21
58.375000238418586
31
0
0
LINE
5
327
100
AcDbEntity
8
0
100
AcDbLine
10
-168.96428656578047
20
58.375000238418586
30
0
11
-168.96428656578047
21
63.375000238418586
31
0
0
LINE
5
328
100
AcDbEntity
8
0
100
AcDbLine
10
-167.2976202964781
20
58.375000238418586
30
0
11
-170.63095283508284
21
58.375000238418586
31
0
0
LINE
5
329
100
AcDbEntity
8
0
100
AcDbLine
10
-171.82142925262434
20
58.375000238418586
30
0
11
-171.82142925262434
21
63.375000238418586
31
0
0
LINE
5
330
100
AcDbEntity
8
0
100
AcDbLine
10
-171.82142925262434
20
58.375000238418586
30
0
11
-174.91666746139509
21
58.375000238418586
31
0
0
LINE
5
331
100
AcDbEntity
8
0
100
AcDbLine
10
-171.82142925262434
20
60.755952477455146
30
0
11
-173.72619104385359
21
60.755952477455146
31
0
0
LINE
5
332
100
AcDbEntity
8
0
100
AcDbLine
10
-171.82142925262434
20
63.375000238418586
30
0
11
-174.91666746139509
21
63.375000238418586
31
0
0
CIRCLE
5
333
100
AcDbEntity
8
0
100
AcDbCircle
10
-183.74999999999969
20
77.999999999999986
30
0
40
3.1499999999999995
210
0
220
-0
230
1
0
CIRCLE
5
334
100
AcDbEntity
8
0
100
AcDbCircle
10
8.25
20
-11
30
0
40
3.1499999999999995
210
0
220
-0
230
1
0
CIRCLE
5
335
100
AcDbEntity
8
0
100
AcDbCircle
10
8.2499999999999929
20
78.000000000000014
30
0
40
3.1499999999999995
210
0
220
-0
230
1
0
CIRCLE
5
336
100
AcDbEntity
8
0
100
AcDbCircle
10
-183.74999999999969
20
-10.999999999999964
30
0
40
3.1499999999999995
210
0
220
-0
230
1
0
CIRCLE
5
337
100
AcDbEntity
8
0
100
AcDbCircle
10
-19.500000000000547
20
15
30
0
40
0.25000000000000061
210
0
220
0
230
1
0
CIRCLE
5
338
100
AcDbEntity
8
0
100
AcDbCircle
10
-58.500000000000547
20
15.5
30
0
40
0.25000000000000355
210
0
220
0
230
1
0
CIRCLE
5
339
100
AcDbEntity
8
0
100
AcDbCircle
10
-78.000000000000554
20
14.5
30
0
40
0.25000000000000355
210
0
220
0
230
1
0
CIRCLE
5
340
100
AcDbEntity
8
0
100
AcDbCircle
10
-117.00000000000057
20
15
30
0
40
0.25000000000000355
210
0
220
0
230
1
0
CIRCLE
5
341
100
AcDbEntity
8
0
100
AcDbCircle
10
-136.50000000000057
20
15
30
0
40
0.25000000000000355
210
0
220
0
230
1
0
CIRCLE
5
342
100
AcDbEntity
8
0
100
AcDbCircle
10
-156.00000000000057
20
14.5
30
0
40
0.25000000000000355
210
0
220
0
230
1
0
CIRCLE
5
343
100
AcDbEntity
8
0
100
AcDbCircle
10
-175.50000000000054
20
15.5
30
0
40
0.24999999999998579
210
0
220
0
230
1
0
LINE
5
344
100
AcDbEntity
8
0
100
AcDbLine
10
-57.821428821204755
20
58.375000238418593
30
0
11
-57.821428821204755
21
63.375000238418593
31
0
0
LINE
5
345
100
AcDbEntity
8
0
100
AcDbLine
10
-57.821428821204755
20
63.375000238418593
30
0
11
-60.678572104095068
21
63.375000238418593
31
0
0
LINE
5
346
100
AcDbEntity
8
0
100
AcDbLine
10
-61.869047925590131
20
58.375000238418586
30
0
11
-61.869047925590131
21
63.375000238418586
31
0
0
LINE
5
347
100
AcDbEntity
8
0
100
AcDbLine
10
-64.726191208480458
20
58.375000238418586
30
0
11
-64.726191208480458
21
63.375000238418586
31
0
0
LINE
5
348
100
AcDbEntity
8
0
100
AcDbLine
10
-63.059524343131635
20
58.375000238418586
30
0
11
-66.392857477782826
21
58.375000238418586
31
0
0
LWPOLYLINE
5
349
100
AcDbEntity
8
0
100
AcDbPolyline
90
17
70
1
43
0.0
10
-107.20238123353104
20
63.375000238418579
10
-107.2023812335311
20
58.375000238418579
10
-109.34523847218142
20
58.375000238418579
10
-110.05952414389239
20
58.613095462322235
10
-110.29761936779605
20
58.851190686225898
10
-110.5357145916997
20
59.32738113403321
10
-110.5357145916997
20
59.803571581840522
10
-110.29761936779602
20
60.279762029647834
10
-110.05952414389236
20
60.517857551574714
10
-109.34523847218139
20
60.755952477455146
10
-110.05952414389236
20
60.994047999382019
10
-110.297619367796
20
61.232142925262458
10
-110.53571459169966
20
61.70833337306977
10
-110.53571459169966
20
62.422619342803962
10
-110.29761936779599
20
62.898809790611274
10
-110.05952414389233
20
63.136904716491706
10
-109.34523847218136
20
63.375000238418586
0
LINE
5
350
100
AcDbEntity
8
0
100
AcDbLine
10
-107.20238123353107
20
60.755952477455139
30
0
11
-109.34523847218139
21
60.755952477455146
31
0
0
LINE
5
351
100
AcDbEntity
8
0
100
AcDbLine
10
-112.20238115902529
20
58.375000238418586
30
0
11
-112.20238115902524
21
63.375000238418586
31
0
0
LINE
5
352
100
AcDbEntity
8
0
100
AcDbLine
10
-112.20238115902529
20
58.375000238418586
30
0
11
-114.34523847218142
21
58.375000238418586
31
0
0
LINE
5
353
100
AcDbEntity
8
0
100
AcDbLine
10
-114.34523847218142
20
58.375000238418586
30
0
11
-115.05952444191561
21
58.613095462322242
31
0
0
LINE
5
354
100
AcDbEntity
8
0
100
AcDbLine
10
-115.05952444191561
20
58.613095462322242
30
0
11
-115.29761936779605
21
58.851190686225898
31
0
0
LINE
5
355
100
AcDbEntity
8
0
100
AcDbLine
10
-115.29761936779605
20
58.851190686225898
30
0
11
-115.53571429367648
21
59.32738113403321
31
0
0
LINE
5
356
100
AcDbEntity
8
0
100
AcDbLine
10
-115.53571429367648
20
59.32738113403321
30
0
11
-115.53571429367648
21
59.803571581840522
31
0
0
LINE
5
357
100
AcDbEntity
8
0
100
AcDbLine
10
-115.53571429367648
20
59.803571581840522
30
0
11
-115.29761936779602
21
60.279762029647834
31
0
0
LINE
5
358
100
AcDbEntity
8
0
100
AcDbLine
10
-115.29761936779602
20
60.279762029647834
30
0
11
-115.05952444191558
21
60.517857551574714
31
0
0
LINE
5
359
100
AcDbEntity
8
0
100
AcDbLine
10
-115.05952444191558
20
60.517857551574714
30
0
11
-114.34523847218139
21
60.755952477455146
31
0
0
LINE
5
360
100
AcDbEntity
8
0
100
AcDbLine
10
-114.34523847218139
20
60.755952477455146
30
0
11
-112.20238115902526
21
60.755952477455146
31
0
0
LINE
5
361
100
AcDbEntity
8
0
100
AcDbLine
10
-113.86904802437408
20
60.755952477455146
30
0
11
-115.53571429367642
21
63.375000238418586
31
0
0
LINE
5
362
100
AcDbEntity
8
0
100
AcDbLine
10
-117.20238056297885
20
58.375000238418586
30
0
11
-117.20238056297879
21
63.375000238418586
31
0
0
LINE
5
363
100
AcDbEntity
8
0
100
AcDbLine
10
-120.53571429367648
20
58.375000238418593
30
0
11
-117.2023805629788
21
61.708333373069777
31
0
0
LINE
5
364
100
AcDbEntity
8
0
100
AcDbLine
10
-118.39285698052032
20
60.517857551574721
30
0
11
-120.53571429367642
21
63.375000238418593
31
0
0
ENDSEC
0
SECTION
2
OBJECTS
0
DICTIONARY
5
C
100
AcDbDictionary
3
ACAD_GROUP
350
D
3
ACAD_MLINESTYLE
350
17
0
DICTIONARY
5
D
100
AcDbDictionary
0
DICTIONARY
5
1A
330
C
100
AcDbDictionary
0
DICTIONARY
5
17
100
AcDbDictionary
0
ENDSEC
0
EOF
