0
SECTION
2
HEADER
9
$INSUNITS
70
4
9
$ACADVER
1
AC1014
9
$HANDSEED
5
FFFF
0
ENDSEC
0
SECTION
2
TABLES
0
TABLE
2
VPORT
5
8
100
AcDbSymbolTable
0
ENDTAB
0
TABLE
2
LTYPE
5
5
100
AcDbSymbolTable
0
LTYPE
5
14
100
AcDbSymbolTableRecord
100
AcDbLinetypeTableRecord
2
BYBLOCK
70
0
0
LTYPE
5
15
100
AcDbSymbolTableRecord
100
AcDbLinetypeTableRecord
2
BYLAYER
70
0
0
ENDTAB
0
TABLE
2
LAYER
5
2
100
AcDbSymbolTable
70
2
0
LAYER
5
50
100
AcDbSymbolTableRecord
100
AcDbLayerTableRecord
2
0
70
0
6
CONTINUOUS
0
ENDTAB
0
TABLE
2
STYLE
5
3
100
AcDbSymbolTable
70
1
0
STYLE
5
11
100
AcDbSymbolTableRecord
100
AcDbTextStyleTableRecord
2
STANDARD
70
0
0
ENDTAB
0
TABLE
2
VIEW
5
6
100
AcDbSymbolTable
70
0
0
ENDTAB
0
TABLE
2
UCS
5
7
100
AcDbSymbolTable
70
0
0
ENDTAB
0
TABLE
2
APPID
5
9
100
AcDbSymbolTable
70
2
0
APPID
5
12
100
AcDbSymbolTableRecord
100
AcDbRegAppTableRecord
2
ACAD
70
0
0
ENDTAB
0
TABLE
2
DIMSTYLE
5
A
100
AcDbSymbolTable
70
1
0
ENDTAB
0
TABLE
2
BLOCK_RECORD
5
1
100
AcDbSymbolTable
70
1
0
BLOCK_RECORD
5
1F
100
AcDbSymbolTableRecord
100
AcDbBlockTableRecord
2
*MODEL_SPACE
0
BLOCK_RECORD
5
1B
100
AcDbSymbolTableRecord
100
AcDbBlockTableRecord
2
*PAPER_SPACE
0
ENDTAB
0
ENDSEC
0
SECTION
2
BLOCKS
0
BLOCK
5
20
100
AcDbEntity
100
AcDbBlockBegin
2
*MODEL_SPACE
0
ENDBLK
5
21
100
AcDbEntity
100
AcDbBlockEnd
0
BLOCK
5
1C
100
AcDbEntity
100
AcDbBlockBegin
2
*PAPER_SPACE
0
ENDBLK
5
1D
100
AcDbEntity
100
AcDbBlockEnd
0
ENDSEC
0
SECTION
2
ENTITIES
0
CIRCLE
5
100
100
AcDbEntity
8
0
100
AcDbCircle
10
-111.00000000000001
20
53
30
0
40
3.1499999999999995
210
0
220
-0
230
1
0
CIRCLE
5
101
100
AcDbEntity
8
0
100
AcDbCircle
10
35.999999999999993
20
-36
30
0
40
3.1499999999999995
210
0
220
-0
230
1
0
CIRCLE
5
102
100
AcDbEntity
8
0
100
AcDbCircle
10
35.999999999999986
20
53.000000000000007
30
0
40
3.1499999999999995
210
0
220
-0
230
1
0
CIRCLE
5
103
100
AcDbEntity
8
0
100
AcDbCircle
10
-111.00000000000001
20
-35.999999999999986
30
0
40
3.1499999999999995
210
0
220
-0
230
1
0
CIRCLE
5
104
100
AcDbEntity
8
0
100
AcDbCircle
10
27.753941161571998
20
27.753941161571994
30
0
40
1.4999999999999991
210
0
220
-0
230
1
0
CIRCLE
5
105
100
AcDbEntity
8
0
100
AcDbCircle
10
-47.246058838427999
20
27.753941161571994
30
0
40
1.5000000000000036
210
0
220
-0
230
1
0
CIRCLE
5
106
100
AcDbEntity
8
0
100
AcDbCircle
10
-102.75394116157199
20
-27.753941161572001
30
0
40
1.5000000000000036
210
0
220
-0
230
1
0
CIRCLE
5
107
100
AcDbEntity
8
0
100
AcDbCircle
10
-102.75394116157199
20
27.753941161572001
30
0
40
1.5000000000000036
210
0
220
-0
230
1
0
CIRCLE
5
108
100
AcDbEntity
8
0
100
AcDbCircle
10
-75
20
0
30
0
40
31.999999999999993
210
0
220
-0
230
1
0
CIRCLE
5
109
100
AcDbEntity
8
0
100
AcDbCircle
10
-27.75394116157198
20
27.753941161572001
30
0
40
1.4999999999999991
210
0
220
-0
230
1
0
CIRCLE
5
110
100
AcDbEntity
8
0
100
AcDbCircle
10
-47.246058838427999
20
-27.753941161571994
30
0
40
1.5000000000000036
210
0
220
-0
230
1
0
CIRCLE
5
111
100
AcDbEntity
8
0
100
AcDbCircle
10
27.753941161571998
20
-27.753941161571994
30
0
40
1.4999999999999991
210
0
220
-0
230
1
0
CIRCLE
5
112
100
AcDbEntity
8
0
100
AcDbCircle
10
0
20
0
30
0
40
32
210
0
220
-0
230
1
0
CIRCLE
5
113
100
AcDbEntity
8
0
100
AcDbCircle
10
-27.753941161571984
20
-27.753941161572001
30
0
40
1.4999999999999991
210
0
220
-0
230
1
0
LWPOLYLINE
5
114
100
AcDbEntity
8
0
100
AcDbPolyline
90
8
70
1
43
0.0
10
39.999999999999993
20
-36.000000000000007
42
-0.4142135623730947
10
35.999999999999979
20
-40
10
-110.99999999999997
20
-39.999999999999972
42
-0.41421356237309664
10
-115
20
-36
10
-115.00000000000001
20
52.999999999999986
42
-0.4142135623730957
10
-111.00000000000001
20
57
10
35.999999999999979
20
57.000000000000014
42
-0.41421356237309631
10
39.999999999999993
20
53
0
LWPOLYLINE
5
115
100
AcDbEntity
8
0
100
AcDbPolyline
90
4
70
1
43
0.0
10
-23.000000000000014
20
40
10
22.999999999999989
20
40
10
22.999999999999989
20
52
10
-23.000000000000014
20
52
0
LWPOLYLINE
5
116
100
AcDbEntity
8
0
100
AcDbPolyline
90
4
70
1
43
0.0
10
-98
20
40
10
-52
20
40
10
-52
20
52
10
-98
20
52
0
LINE
5
117
100
AcDbEntity
8
0
100
AcDbLine
10
-1.3322676295501878e-14
20
40
30
0
11
-1.3322676295501878e-14
21
52
31
0
0
LINE
5
118
100
AcDbEntity
8
0
100
AcDbLine
10
19.47619068622588
20
43.500000238418579
30
0
11
19.47619068622588
21
48.500000238418579
31
0
0
LINE
5
119
100
AcDbEntity
8
0
100
AcDbLine
10
16.142857551574696
20
43.500000238418579
30
0
11
16.142857551574696
21
48.500000238418579
31
0
0
LINE
5
120
100
AcDbEntity
8
0
100
AcDbLine
10
19.47619068622588
20
45.880952477455139
30
0
11
16.142857551574696
21
45.880952477455139
31
0
0
LINE
5
121
100
AcDbEntity
8
0
100
AcDbLine
10
14.238095164299001
20
43.500000238418579
30
0
11
14.238095164299001
21
48.500000238418579
31
0
0
LINE
5
122
100
AcDbEntity
8
0
100
AcDbLine
10
14.238095164299001
20
43.500000238418579
30
0
11
11.142857551574696
21
43.500000238418579
31
0
0
LINE
5
123
100
AcDbEntity
8
0
100
AcDbLine
10
14.238095164299001
20
45.880952477455139
30
0
11
12.333332777023305
21
45.880952477455139
31
0
0
LINE
5
124
100
AcDbEntity
8
0
100
AcDbLine
10
14.238095164299001
20
48.500000238418579
30
0
11
11.142857551574696
21
48.500000238418579
31
0
0
LINE
5
125
100
AcDbEntity
8
0
100
AcDbLine
10
8.5238091945648087
20
43.500000238418579
30
0
11
10.428570985794057
21
48.500000238418579
31
0
0
LINE
5
126
100
AcDbEntity
8
0
100
AcDbLine
10
8.5238091945648087
20
43.500000238418579
30
0
11
6.6190474033355606
21
48.500000238418579
31
0
0
LINE
5
127
100
AcDbEntity
8
0
100
AcDbLine
10
9.7142856121063126
20
46.833333373069763
30
0
11
7.3333327770233048
21
46.833333373069763
31
0
0
LINE
5
128
100
AcDbEntity
8
0
100
AcDbLine
10
4.4761900901794327
20
43.500000238418579
30
0
11
4.4761900901794327
21
48.500000238418579
31
0
0
LINE
5
129
100
AcDbEntity
8
0
100
AcDbLine
10
6.1428563594818009
20
43.500000238418579
30
0
11
2.809522628784169
21
43.500000238418579
31
0
0
LINE
5
130
100
AcDbEntity
8
0
100
AcDbLine
10
-5.0714278221130504
20
43.500000238418579
30
0
11
-5.0714278221130504
21
48.500000238418579
31
0
0
LINE
5
131
100
AcDbEntity
8
0
100
AcDbLine
10
-5.0714278221130504
20
48.500000238418579
30
0
11
-7.9285705089569225
21
48.500000238418579
31
0
0
LINE
5
132
100
AcDbEntity
8
0
100
AcDbLine
10
-9.1190469264984273
20
43.500000238418579
30
0
11
-9.1190469264984273
21
48.500000238418579
31
0
0
LINE
5
133
100
AcDbEntity
8
0
100
AcDbLine
10
-11.023808717727675
20
43.500000238418579
30
0
11
-11.023808717727675
21
48.500000238418579
31
0
0
LINE
5
134
100
AcDbEntity
8
0
100
AcDbLine
10
-11.023808717727675
20
43.500000238418579
30
0
11
-14.119046926498427
21
43.500000238418579
31
0
0
LINE
5
135
100
AcDbEntity
8
0
100
AcDbLine
10
-11.023808717727675
20
45.880952477455139
30
0
11
-12.928570508956923
21
45.880952477455139
31
0
0
LINE
5
136
100
AcDbEntity
8
0
100
AcDbLine
10
-15.309523344039931
20
43.500000238418579
30
0
11
-15.309523344039931
21
48.500000238418579
31
0
0
LINE
5
137
100
AcDbEntity
8
0
100
AcDbLine
10
-15.309523344039931
20
43.500000238418579
30
0
11
-18.404761552810683
21
43.500000238418579
31
0
0
LINE
5
138
100
AcDbEntity
8
0
100
AcDbLine
10
-15.309523344039931
20
45.880952477455139
30
0
11
-17.214285135269179
21
45.880952477455139
31
0
0
LINE
5
139
100
AcDbEntity
8
0
100
AcDbLine
10
-15.309523344039931
20
48.500000238418579
30
0
11
-18.404761552810683
21
48.500000238418579
31
0
0
LINE
5
140
100
AcDbEntity
8
0
100
AcDbLine
10
-61.66666579246521
20
44.690476357936859
30
0
11
-61.42857027053833
21
44.214285910129547
31
0
0
LINE
5
141
100
AcDbEntity
8
0
100
AcDbLine
10
-61.42857027053833
20
44.214285910129547
30
0
11
-60.952379822731018
21
43.738095462322235
31
0
0
LINE
5
142
100
AcDbEntity
8
0
100
AcDbLine
10
-60.952379822731018
20
43.738095462322235
30
0
11
-60.476189374923706
21
43.500000238418579
31
0
0
LINE
5
143
100
AcDbEntity
8
0
100
AcDbLine
10
-60.476189374923706
20
43.500000238418579
30
0
11
-59.523808479309082
21
43.500000238418579
31
0
0
LINE
5
144
100
AcDbEntity
8
0
100
AcDbLine
10
-59.523808479309082
20
43.500000238418579
30
0
11
-59.04761803150177
21
43.738095462322235
31
0
0
LINE
5
145
100
AcDbEntity
8
0
100
AcDbLine
10
-59.04761803150177
20
43.738095462322235
30
0
11
-58.571427583694458
21
44.214285910129547
31
0
0
LINE
5
146
100
AcDbEntity
8
0
100
AcDbLine
10
-58.571427583694458
20
44.214285910129547
30
0
11
-58.333332061767578
21
44.690476357936859
31
0
0
LINE
5
147
100
AcDbEntity
8
0
100
AcDbLine
10
-58.333332061767578
20
44.690476357936859
30
0
11
-58.095237135887146
21
45.404762029647827
31
0
0
LINE
5
148
100
AcDbEntity
8
0
100
AcDbLine
10
-58.095237135887146
20
45.404762029647827
30
0
11
-58.095237135887146
21
46.595238447189331
31
0
0
LINE
5
149
100
AcDbEntity
8
0
100
AcDbLine
10
-58.095237135887146
20
46.595238447189331
30
0
11
-58.333332061767578
21
47.309523820877075
31
0
0
LINE
5
150
100
AcDbEntity
8
0
100
AcDbLine
10
-58.333332061767578
20
47.309523820877075
30
0
11
-58.571427583694458
21
47.785714268684387
31
0
0
LINE
5
151
100
AcDbEntity
8
0
100
AcDbLine
10
-58.571427583694458
20
47.785714268684387
30
0
11
-59.04761803150177
21
48.261904716491699
31
0
0
LINE
5
152
100
AcDbEntity
8
0
100
AcDbLine
10
-59.04761803150177
20
48.261904716491699
30
0
11
-59.523808479309082
21
48.500000238418579
31
0
0
LINE
5
153
100
AcDbEntity
8
0
100
AcDbLine
10
-59.523808479309082
20
48.500000238418579
30
0
11
-60.476189374923706
21
48.500000238418579
31
0
0
LINE
5
154
100
AcDbEntity
8
0
100
AcDbLine
10
-60.476189374923706
20
48.500000238418579
30
0
11
-60.952379822731018
21
48.261904716491699
31
0
0
LINE
5
155
100
AcDbEntity
8
0
100
AcDbLine
10
-60.952379822731018
20
48.261904716491699
30
0
11
-61.42857027053833
21
47.785714268684387
31
0
0
LINE
5
156
100
AcDbEntity
8
0
100
AcDbLine
10
-61.42857027053833
20
47.785714268684387
30
0
11
-61.66666579246521
21
47.309523820877075
31
0
0
LINE
5
157
100
AcDbEntity
8
0
100
AcDbLine
10
-61.66666579246521
20
47.309523820877075
30
0
11
-61.66666579246521
21
46.595238447189331
31
0
0
LINE
5
158
100
AcDbEntity
8
0
100
AcDbLine
10
-60.476189374923706
20
46.595238447189331
30
0
11
-61.66666579246521
21
46.595238447189331
31
0
0
LINE
5
159
100
AcDbEntity
8
0
100
AcDbLine
10
-63.333332061767578
20
46.357142925262451
30
0
11
-67.619046688079834
21
46.357142925262451
31
0
0
LINE
5
160
100
AcDbEntity
8
0
100
AcDbLine
10
-69.523808479309082
20
43.500000238418579
30
0
11
-69.523808479309082
21
48.500000238418579
31
0
0
LINE
5
161
100
AcDbEntity
8
0
100
AcDbLine
10
-69.523808479309082
20
43.500000238418579
30
0
11
-72.619046688079834
21
43.500000238418579
31
0
0
LINE
5
162
100
AcDbEntity
8
0
100
AcDbLine
10
-69.523808479309082
20
45.880952477455139
30
0
11
-71.42857027053833
21
45.880952477455139
31
0
0
LWPOLYLINE
5
163
100
AcDbEntity
8
0
100
AcDbPolyline
90
20
70
1
43
0.0
10
-74.523810863494873
20
43.738095462322235
10
-74.999999523162842
20
43.500000238418579
10
-75.952381610870361
20
43.500000238418579
10
-76.428572654724121
20
43.738095462322235
10
-76.90476131439209
20
44.214285910129547
10
-77.142858028411865
20
44.690476357936859
10
-77.38095235824585
20
45.404762029647827
10
-77.38095235824585
20
46.595238447189331
10
-77.142858028411865
20
47.309523820877075
10
-76.90476131439209
20
47.785714268684387
10
-76.428572654724121
20
48.261904716491699
10
-75.952381610870361
20
48.500000238418579
10
-74.999999523162842
20
48.500000238418579
10
-74.523810863494873
20
48.261904716491699
10
-74.047619819641113
20
47.785714268684387
10
-73.809525489807129
20
47.309523820877075
10
-73.571428775787354
20
46.595238447189331
10
-73.571428775787354
20
45.404762029647827
10
-73.809525489807129
20
44.690476357936859
10
-74.047619819641113
20
44.214285910129547
0
LINE
5
164
100
AcDbEntity
8
0
100
AcDbLine
10
-79.047619819641113
20
43.500000238418579
30
0
11
-79.047619819641113
21
48.500000238418579
31
0
0
LINE
5
165
100
AcDbEntity
8
0
100
AcDbLine
10
-79.047619819641113
20
43.500000238418579
30
0
11
-81.190475940704346
21
43.500000238418579
31
0
0
LINE
5
166
100
AcDbEntity
8
0
100
AcDbLine
10
-81.190475940704346
20
43.500000238418579
30
0
11
-81.90476131439209
21
43.738095462322235
31
0
0
LINE
5
167
100
AcDbEntity
8
0
100
AcDbLine
10
-81.90476131439209
20
43.738095462322235
30
0
11
-82.142855644226074
21
43.976190686225891
31
0
0
LINE
5
168
100
AcDbEntity
8
0
100
AcDbLine
10
-82.142855644226074
20
43.976190686225891
30
0
11
-82.38095235824585
21
44.452381134033203
31
0
0
LINE
5
169
100
AcDbEntity
8
0
100
AcDbLine
10
-82.38095235824585
20
44.452381134033203
30
0
11
-82.38095235824585
21
44.928571581840515
31
0
0
LINE
5
170
100
AcDbEntity
8
0
100
AcDbLine
10
-82.38095235824585
20
44.928571581840515
30
0
11
-82.142855644226074
21
45.404762029647827
31
0
0
LINE
5
171
100
AcDbEntity
8
0
100
AcDbLine
10
-82.142855644226074
20
45.404762029647827
30
0
11
-81.90476131439209
21
45.642857551574707
31
0
0
LINE
5
172
100
AcDbEntity
8
0
100
AcDbLine
10
-81.90476131439209
20
45.642857551574707
30
0
11
-81.190475940704346
21
45.880952477455139
31
0
0
LINE
5
173
100
AcDbEntity
8
0
100
AcDbLine
10
-81.190475940704346
20
45.880952477455139
30
0
11
-79.047619819641113
21
45.880952477455139
31
0
0
LINE
5
174
100
AcDbEntity
8
0
100
AcDbLine
10
-80.714284896850586
20
45.880952477455139
30
0
11
-82.38095235824585
21
48.500000238418579
31
0
0
LINE
5
175
100
AcDbEntity
8
0
100
AcDbLine
10
-87.38095235824585
20
44.690476357936859
30
0
11
-87.142855644226074
21
44.214285910129547
31
0
0
LINE
5
176
100
AcDbEntity
8
0
100
AcDbLine
10
-87.142855644226074
20
44.214285910129547
30
0
11
-86.666666984558105
21
43.738095462322235
31
0
0
LINE
5
177
100
AcDbEntity
8
0
100
AcDbLine
10
-86.666666984558105
20
43.738095462322235
30
0
11
-86.190475940704346
21
43.500000238418579
31
0
0
LINE
5
178
100
AcDbEntity
8
0
100
AcDbLine
10
-86.190475940704346
20
43.500000238418579
30
0
11
-85.238093852996826
21
43.500000238418579
31
0
0
LINE
5
179
100
AcDbEntity
8
0
100
AcDbLine
10
-85.238093852996826
20
43.500000238418579
30
0
11
-84.761905193328857
21
43.738095462322235
31
0
0
LINE
5
180
100
AcDbEntity
8
0
100
AcDbLine
10
-84.761905193328857
20
43.738095462322235
30
0
11
-84.285714149475098
21
44.214285910129547
31
0
0
LINE
5
181
100
AcDbEntity
8
0
100
AcDbLine
10
-84.285714149475098
20
44.214285910129547
30
0
11
-84.047619819641113
21
44.690476357936859
31
0
0
LINE
5
182
100
AcDbEntity
8
0
100
AcDbLine
10
-84.047619819641113
20
44.690476357936859
30
0
11
-83.809523105621338
21
45.404762029647827
31
0
0
LINE
5
183
100
AcDbEntity
8
0
100
AcDbLine
10
-83.809523105621338
20
45.404762029647827
30
0
11
-83.809523105621338
21
46.595238447189331
31
0
0
LINE
5
184
100
AcDbEntity
8
0
100
AcDbLine
10
-83.809523105621338
20
46.595238447189331
30
0
11
-84.047619819641113
21
47.309523820877075
31
0
0
LINE
5
185
100
AcDbEntity
8
0
100
AcDbLine
10
-84.047619819641113
20
47.309523820877075
30
0
11
-84.285714149475098
21
47.785714268684387
31
0
0
LINE
5
186
100
AcDbEntity
8
0
100
AcDbLine
10
-84.285714149475098
20
47.785714268684387
30
0
11
-84.761905193328857
21
48.261904716491699
31
0
0
LINE
5
187
100
AcDbEntity
8
0
100
AcDbLine
10
-84.761905193328857
20
48.261904716491699
30
0
11
-85.238093852996826
21
48.500000238418579
31
0
0
LINE
5
188
100
AcDbEntity
8
0
100
AcDbLine
10
-85.238093852996826
20
48.500000238418579
30
0
11
-86.190475940704346
21
48.500000238418579
31
0
0
LINE
5
189
100
AcDbEntity
8
0
100
AcDbLine
10
-86.190475940704346
20
48.500000238418579
30
0
11
-86.666666984558105
21
48.261904716491699
31
0
0
LINE
5
190
100
AcDbEntity
8
0
100
AcDbLine
10
-86.666666984558105
20
48.261904716491699
30
0
11
-87.142855644226074
21
47.785714268684387
31
0
0
LINE
5
191
100
AcDbEntity
8
0
100
AcDbLine
10
-87.142855644226074
20
47.785714268684387
30
0
11
-87.38095235824585
21
47.309523820877075
31
0
0
LINE
5
192
100
AcDbEntity
8
0
100
AcDbLine
10
-89.047619819641113
20
43.500000238418579
30
0
11
-89.047619819641113
21
48.500000238418579
31
0
0
LINE
5
193
100
AcDbEntity
8
0
100
AcDbLine
10
-89.047619819641113
20
43.500000238418579
30
0
11
-92.142855644226074
21
43.500000238418579
31
0
0
LINE
5
194
100
AcDbEntity
8
0
100
AcDbLine
10
-89.047619819641113
20
45.880952477455139
30
0
11
-90.952381610870361
21
45.880952477455139
31
0
0
LINE
5
195
100
AcDbEntity
8
0
100
AcDbLine
10
-89.047619819641113
20
48.500000238418579
30
0
11
-92.142855644226074
21
48.500000238418579
31
0
0
ENDSEC
0
SECTION
2
OBJECTS
0
DICTIONARY
5
C
100
AcDbDictionary
3
ACAD_GROUP
350
D
3
ACAD_MLINESTYLE
350
17
0
DICTIONARY
5
D
100
AcDbDictionary
0
DICTIONARY
5
1A
330
C
100
AcDbDictionary
0
DICTIONARY
5
17
100
AcDbDictionary
0
ENDSEC
0
EOF
