0
SECTION
2
HEADER
9
$INSUNITS
70
4
9
$ACADVER
1
AC1014
9
$HANDSEED
5
FFFF
0
ENDSEC
0
SECTION
2
TABLES
0
TABLE
2
VPORT
5
8
100
AcDbSymbolTable
0
ENDTAB
0
TABLE
2
LTYPE
5
5
100
AcDbSymbolTable
0
LTYPE
5
14
100
AcDbSymbolTableRecord
100
AcDbLinetypeTableRecord
2
BYBLOCK
70
0
0
LTYPE
5
15
100
AcDbSymbolTableRecord
100
AcDbLinetypeTableRecord
2
BYLAYER
70
0
0
ENDTAB
0
TABLE
2
LAYER
5
2
100
AcDbSymbolTable
70
2
0
LAYER
5
50
100
AcDbSymbolTableRecord
100
AcDbLayerTableRecord
2
0
70
0
6
CONTINUOUS
0
ENDTAB
0
TABLE
2
STYLE
5
3
100
AcDbSymbolTable
70
1
0
STYLE
5
11
100
AcDbSymbolTableRecord
100
AcDbTextStyleTableRecord
2
STANDARD
70
0
0
ENDTAB
0
TABLE
2
VIEW
5
6
100
AcDbSymbolTable
70
0
0
ENDTAB
0
TABLE
2
UCS
5
7
100
AcDbSymbolTable
70
0
0
ENDTAB
0
TABLE
2
APPID
5
9
100
AcDbSymbolTable
70
2
0
APPID
5
12
100
AcDbSymbolTableRecord
100
AcDbRegAppTableRecord
2
ACAD
70
0
0
ENDTAB
0
TABLE
2
DIMSTYLE
5
A
100
AcDbSymbolTable
70
1
0
ENDTAB
0
TABLE
2
BLOCK_RECORD
5
1
100
AcDbSymbolTable
70
1
0
BLOCK_RECORD
5
1F
100
AcDbSymbolTableRecord
100
AcDbBlockTableRecord
2
*MODEL_SPACE
0
BLOCK_RECORD
5
1B
100
AcDbSymbolTableRecord
100
AcDbBlockTableRecord
2
*PAPER_SPACE
0
ENDTAB
0
ENDSEC
0
SECTION
2
BLOCKS
0
BLOCK
5
20
100
AcDbEntity
100
AcDbBlockBegin
2
*MODEL_SPACE
0
ENDBLK
5
21
100
AcDbEntity
100
AcDbBlockEnd
0
BLOCK
5
1C
100
AcDbEntity
100
AcDbBlockBegin
2
*PAPER_SPACE
0
ENDBLK
5
1D
100
AcDbEntity
100
AcDbBlockEnd
0
ENDSEC
0
SECTION
2
ENTITIES
0
CIRCLE
5
100
100
AcDbEntity
8
0
100
AcDbCircle
10
-186
20
-36.000000000000021
30
0
40
3.1499999999999995
210
0
220
-0
230
1
0
CIRCLE
5
101
100
AcDbEntity
8
0
100
AcDbCircle
10
35.999999999999993
20
-36
30
0
40
3.1499999999999995
210
0
220
-0
230
1
0
CIRCLE
5
102
100
AcDbEntity
8
0
100
AcDbCircle
10
35.999999999999993
20
52.999999999999986
30
0
40
3.1499999999999995
210
0
220
-0
230
1
0
CIRCLE
5
103
100
AcDbEntity
8
0
100
AcDbCircle
10
-186
20
53.000000000000007
30
0
40
3.1499999999999995
210
0
220
-0
230
1
0
CIRCLE
5
104
100
AcDbEntity
8
0
100
AcDbCircle
10
-177.75394116157199
20
-27.753941161571994
30
0
40
1.4999999999999858
210
0
220
-0
230
1
0
CIRCLE
5
105
100
AcDbEntity
8
0
100
AcDbCircle
10
-37.5
20
46
30
0
40
4.1249999999999964
210
0
220
-0
230
1
0
CIRCLE
5
106
100
AcDbEntity
8
0
100
AcDbCircle
10
-102.75394116157199
20
-27.753941161571994
30
0
40
1.5000000000000036
210
0
220
-0
230
1
0
CIRCLE
5
107
100
AcDbEntity
8
0
100
AcDbCircle
10
-150
20
0
30
0
40
31.999999999999993
210
0
220
-0
230
1
0
CIRCLE
5
108
100
AcDbEntity
8
0
100
AcDbCircle
10
-112.5
20
46
30
0
40
3.125
210
0
220
-0
230
1
0
CIRCLE
5
109
100
AcDbEntity
8
0
100
AcDbCircle
10
-47.246058838428013
20
27.753941161571994
30
0
40
1.5000000000000036
210
0
220
-0
230
1
0
CIRCLE
5
110
100
AcDbEntity
8
0
100
AcDbCircle
10
-122.24605883842801
20
-27.753941161571994
30
0
40
1.5000000000000036
210
0
220
-0
230
1
0
CIRCLE
5
111
100
AcDbEntity
8
0
100
AcDbCircle
10
-177.75394116157199
20
27.753941161571994
30
0
40
1.4999999999999858
210
0
220
-0
230
1
0
CIRCLE
5
112
100
AcDbEntity
8
0
100
AcDbCircle
10
-122.24605883842801
20
27.753941161571994
30
0
40
1.5000000000000036
210
0
220
-0
230
1
0
CIRCLE
5
113
100
AcDbEntity
8
0
100
AcDbCircle
10
-102.75394116157199
20
27.753941161571994
30
0
40
1.5000000000000036
210
0
220
-0
230
1
0
CIRCLE
5
114
100
AcDbEntity
8
0
100
AcDbCircle
10
-75
20
0
30
0
40
31.999999999999993
210
0
220
-0
230
1
0
CIRCLE
5
115
100
AcDbEntity
8
0
100
AcDbCircle
10
-47.246058838428013
20
-27.753941161571994
30
0
40
1.5000000000000036
210
0
220
-0
230
1
0
CIRCLE
5
116
100
AcDbEntity
8
0
100
AcDbCircle
10
-27.753941161571987
20
27.753941161571994
30
0
40
1.5000000000000036
210
0
220
-0
230
1
0
CIRCLE
5
117
100
AcDbEntity
8
0
100
AcDbCircle
10
0
20
0
30
0
40
32
210
0
220
-0
230
1
0
CIRCLE
5
118
100
AcDbEntity
8
0
100
AcDbCircle
10
27.753941161571987
20
-27.753941161571994
30
0
40
1.5000000000000036
210
0
220
-0
230
1
0
CIRCLE
5
119
100
AcDbEntity
8
0
100
AcDbCircle
10
-27.753941161571987
20
-27.753941161571994
30
0
40
1.5000000000000036
210
0
220
-0
230
1
0
CIRCLE
5
120
100
AcDbEntity
8
0
100
AcDbCircle
10
27.753941161571987
20
27.753941161571994
30
0
40
1.5000000000000036
210
0
220
-0
230
1
0
LWPOLYLINE
5
121
100
AcDbEntity
8
0
100
AcDbPolyline
90
8
70
1
43
0.0
10
-186
20
-40
42
-0.41421356237309664
10
-190
20
-36
10
-190
20
52.999999999999986
42
-0.4142135623730937
10
-186.00000000000006
20
56.999999999999993
10
35.999999999999979
20
56.999999999999993
42
-0.41421356237309598
10
39.999999999999993
20
52.999999999999986
10
39.999999999999993
20
-36
42
-0.41421356237309598
10
35.999999999999979
20
-39.999999999999993
0
LWPOLYLINE
5
122
100
AcDbEntity
8
0
100
AcDbPolyline
90
4
70
1
43
0.0
10
-23.000000000000004
20
39.999999999999986
10
23.000000000000004
20
39.999999999999986
10
23.000000000000004
20
51.999999999999993
10
-23.000000000000004
20
51.999999999999993
0
LWPOLYLINE
5
123
100
AcDbEntity
8
0
100
AcDbPolyline
90
4
70
1
43
0.0
10
-51.999999999999993
20
51.999999999999993
10
-98
20
51.999999999999993
10
-98
20
39.999999999999986
10
-51.999999999999993
20
39.999999999999986
0
LWPOLYLINE
5
124
100
AcDbEntity
8
0
100
AcDbPolyline
90
4
70
1
43
0.0
10
-127
20
51.999999999999993
10
-173
20
51.999999999999993
10
-173
20
39.999999999999986
10
-127
20
39.999999999999986
0
LINE
5
125
100
AcDbEntity
8
0
100
AcDbLine
10
-150
20
39.999999999999986
30
0
11
-150
21
51.999999999999993
31
0
0
LINE
5
126
100
AcDbEntity
8
0
100
AcDbLine
10
8.0952398777008092
20
43.500000238418565
30
0
11
8.0952398777008092
21
48.500000238418565
31
0
0
LINE
5
127
100
AcDbEntity
8
0
100
AcDbLine
10
8.0952398777008092
20
43.500000238418565
30
0
11
5.0000016689300564
21
43.500000238418565
31
0
0
LINE
5
128
100
AcDbEntity
8
0
100
AcDbLine
10
8.0952398777008092
20
45.880952477455125
30
0
11
6.1904780864715603
21
45.880952477455125
31
0
0
LINE
5
129
100
AcDbEntity
8
0
100
AcDbLine
10
3.8095252513885525
20
43.500000238418565
30
0
11
3.8095252513885525
21
47.071428894996629
31
0
0
LINE
5
130
100
AcDbEntity
8
0
100
AcDbLine
10
3.8095252513885525
20
47.071428894996629
30
0
11
3.5714297294616726
21
47.785714268684373
31
0
0
LINE
5
131
100
AcDbEntity
8
0
100
AcDbLine
10
3.5714297294616726
20
47.785714268684373
30
0
11
3.0952398777008083
21
48.261904716491685
31
0
0
LINE
5
132
100
AcDbEntity
8
0
100
AcDbLine
10
3.0952398777008083
20
48.261904716491685
30
0
11
2.3809533119201687
21
48.500000238418565
31
0
0
LINE
5
133
100
AcDbEntity
8
0
100
AcDbLine
10
2.3809533119201687
20
48.500000238418565
30
0
11
1.9047622680664089
21
48.500000238418565
31
0
0
LINE
5
134
100
AcDbEntity
8
0
100
AcDbLine
10
1.9047622680664089
20
48.500000238418565
30
0
11
1.1904768943786648
21
48.261904716491685
31
0
0
LINE
5
135
100
AcDbEntity
8
0
100
AcDbLine
10
1.1904768943786648
20
48.261904716491685
30
0
11
0.71428585052490501
21
47.785714268684373
31
0
0
LINE
5
136
100
AcDbEntity
8
0
100
AcDbLine
10
0.71428585052490501
20
47.785714268684373
30
0
11
0.47619152069092063
21
47.071428894996629
31
0
0
LINE
5
137
100
AcDbEntity
8
0
100
AcDbLine
10
0.47619152069092063
20
47.071428894996629
30
0
11
0.47619152069092063
21
43.500000238418565
31
0
0
LINE
5
138
100
AcDbEntity
8
0
100
AcDbLine
10
-1.4285726547241184
20
43.500000238418565
30
0
11
-1.4285726547241184
21
48.500000238418565
31
0
0
LINE
5
139
100
AcDbEntity
8
0
100
AcDbLine
10
-1.4285726547241184
20
43.500000238418565
30
0
11
-4.5238084793090794
21
43.500000238418565
31
0
0
LINE
5
140
100
AcDbEntity
8
0
100
AcDbLine
10
-1.4285726547241184
20
45.880952477455125
30
0
11
-3.3333344459533665
21
45.880952477455125
31
0
0
LINE
5
141
100
AcDbEntity
8
0
100
AcDbLine
10
-1.4285726547241184
20
48.500000238418565
30
0
11
-4.5238084793090794
21
48.500000238418565
31
0
0
LINE
5
142
100
AcDbEntity
8
0
100
AcDbLine
10
-5.9523816108703587
20
43.500000238418565
30
0
11
-5.9523816108703587
21
48.500000238418565
31
0
0
LINE
5
143
100
AcDbEntity
8
0
100
AcDbLine
10
-5.9523816108703587
20
48.500000238418565
30
0
11
-8.8095231056213343
21
48.500000238418565
31
0
0
LINE
5
144
100
AcDbEntity
8
0
100
AcDbLine
10
-64.761904001235962
20
44.690476357936845
30
0
11
-64.523808479309082
21
44.214285910129533
31
0
0
LINE
5
145
100
AcDbEntity
8
0
100
AcDbLine
10
-64.523808479309082
20
44.214285910129533
30
0
11
-64.047617435455322
21
43.738095462322221
31
0
0
LINE
5
146
100
AcDbEntity
8
0
100
AcDbLine
10
-64.047617435455322
20
43.738095462322221
30
0
11
-63.571427583694451
21
43.500000238418565
31
0
0
LINE
5
147
100
AcDbEntity
8
0
100
AcDbLine
10
-63.571427583694451
20
43.500000238418565
30
0
11
-62.619046688079827
21
43.500000238418565
31
0
0
LINE
5
148
100
AcDbEntity
8
0
100
AcDbLine
10
-62.619046688079827
20
43.500000238418565
30
0
11
-62.142855644226067
21
43.738095462322221
31
0
0
LINE
5
149
100
AcDbEntity
8
0
100
AcDbLine
10
-62.142855644226067
20
43.738095462322221
30
0
11
-61.666665792465203
21
44.214285910129533
31
0
0
LINE
5
150
100
AcDbEntity
8
0
100
AcDbLine
10
-61.666665792465203
20
44.214285910129533
30
0
11
-61.428570270538323
21
44.690476357936845
31
0
0
LINE
5
151
100
AcDbEntity
8
0
100
AcDbLine
10
-61.428570270538323
20
44.690476357936845
30
0
11
-61.190475344657891
21
45.404762029647813
31
0
0
LINE
5
152
100
AcDbEntity
8
0
100
AcDbLine
10
-61.190475344657891
20
45.404762029647813
30
0
11
-61.190475344657891
21
46.595238447189317
31
0
0
LINE
5
153
100
AcDbEntity
8
0
100
AcDbLine
10
-61.190475344657891
20
46.595238447189317
30
0
11
-61.428570270538323
21
47.309523820877061
31
0
0
LINE
5
154
100
AcDbEntity
8
0
100
AcDbLine
10
-61.428570270538323
20
47.309523820877061
30
0
11
-61.666665792465203
21
47.785714268684373
31
0
0
LINE
5
155
100
AcDbEntity
8
0
100
AcDbLine
10
-61.666665792465203
20
47.785714268684373
30
0
11
-62.142855644226067
21
48.261904716491685
31
0
0
LINE
5
156
100
AcDbEntity
8
0
100
AcDbLine
10
-62.142855644226067
20
48.261904716491685
30
0
11
-62.619046688079827
21
48.500000238418565
31
0
0
LINE
5
157
100
AcDbEntity
8
0
100
AcDbLine
10
-62.619046688079827
20
48.500000238418565
30
0
11
-63.571427583694451
21
48.500000238418565
31
0
0
LINE
5
158
100
AcDbEntity
8
0
100
AcDbLine
10
-63.571427583694451
20
48.500000238418565
30
0
11
-64.047617435455322
21
48.261904716491685
31
0
0
LINE
5
159
100
AcDbEntity
8
0
100
AcDbLine
10
-64.047617435455322
20
48.261904716491685
30
0
11
-64.523808479309082
21
47.785714268684373
31
0
0
LINE
5
160
100
AcDbEntity
8
0
100
AcDbLine
10
-64.523808479309082
20
47.785714268684373
30
0
11
-64.761904001235962
21
47.309523820877061
31
0
0
LINE
5
161
100
AcDbEntity
8
0
100
AcDbLine
10
-66.42857027053833
20
43.500000238418565
30
0
11
-66.42857027053833
21
48.500000238418565
31
0
0
LINE
5
162
100
AcDbEntity
8
0
100
AcDbLine
10
-69.761904001235962
20
43.500000238418565
30
0
11
-69.761904001235962
21
48.500000238418565
31
0
0
LINE
5
163
100
AcDbEntity
8
0
100
AcDbLine
10
-66.42857027053833
20
45.880952477455125
30
0
11
-69.761904001235962
21
45.880952477455125
31
0
0
LINE
5
164
100
AcDbEntity
8
0
100
AcDbLine
10
-72.857141017913818
20
43.500000238418565
30
0
11
-70.952380418777466
21
48.500000238418565
31
0
0
LINE
5
165
100
AcDbEntity
8
0
100
AcDbLine
10
-72.857141017913818
20
43.500000238418565
30
0
11
-74.761902809143066
21
48.500000238418565
31
0
0
LINE
5
166
100
AcDbEntity
8
0
100
AcDbLine
10
-71.66666579246521
20
46.833333373069749
30
0
11
-74.047617435455322
21
46.833333373069749
31
0
0
LINE
5
167
100
AcDbEntity
8
0
100
AcDbLine
10
-75.952381610870361
20
43.500000238418565
30
0
11
-75.952381610870361
21
48.500000238418565
31
0
0
LINE
5
168
100
AcDbEntity
8
0
100
AcDbLine
10
-75.952381610870361
20
43.500000238418565
30
0
11
-78.095237731933594
21
43.500000238418565
31
0
0
LINE
5
169
100
AcDbEntity
8
0
100
AcDbLine
10
-78.095237731933594
20
43.500000238418565
30
0
11
-78.809523105621338
21
43.738095462322221
31
0
0
LINE
5
170
100
AcDbEntity
8
0
100
AcDbLine
10
-78.809523105621338
20
43.738095462322221
30
0
11
-79.047619819641113
21
43.976190686225877
31
0
0
LINE
5
171
100
AcDbEntity
8
0
100
AcDbLine
10
-79.047619819641113
20
43.976190686225877
30
0
11
-79.285714149475098
21
44.452381134033189
31
0
0
LINE
5
172
100
AcDbEntity
8
0
100
AcDbLine
10
-79.285714149475098
20
44.452381134033189
30
0
11
-79.285714149475098
21
44.928571581840501
31
0
0
LINE
5
173
100
AcDbEntity
8
0
100
AcDbLine
10
-79.285714149475098
20
44.928571581840501
30
0
11
-79.047619819641113
21
45.404762029647813
31
0
0
LINE
5
174
100
AcDbEntity
8
0
100
AcDbLine
10
-79.047619819641113
20
45.404762029647813
30
0
11
-78.809523105621338
21
45.642857551574693
31
0
0
LINE
5
175
100
AcDbEntity
8
0
100
AcDbLine
10
-78.809523105621338
20
45.642857551574693
30
0
11
-78.095237731933594
21
45.880952477455125
31
0
0
LINE
5
176
100
AcDbEntity
8
0
100
AcDbLine
10
-78.095237731933594
20
45.880952477455125
30
0
11
-75.952381610870361
21
45.880952477455125
31
0
0
LINE
5
177
100
AcDbEntity
8
0
100
AcDbLine
10
-77.619046688079834
20
45.880952477455125
30
0
11
-79.285714149475098
21
48.500000238418565
31
0
0
LINE
5
178
100
AcDbEntity
8
0
100
AcDbLine
10
-84.285714149475098
20
44.690476357936845
30
0
11
-84.047619819641113
21
44.214285910129533
31
0
0
LINE
5
179
100
AcDbEntity
8
0
100
AcDbLine
10
-84.047619819641113
20
44.214285910129533
30
0
11
-83.571428775787354
21
43.738095462322221
31
0
0
LINE
5
180
100
AcDbEntity
8
0
100
AcDbLine
10
-83.571428775787354
20
43.738095462322221
30
0
11
-83.095237731933594
21
43.500000238418565
31
0
0
LINE
5
181
100
AcDbEntity
8
0
100
AcDbLine
10
-83.095237731933594
20
43.500000238418565
30
0
11
-82.142855644226074
21
43.500000238418565
31
0
0
LINE
5
182
100
AcDbEntity
8
0
100
AcDbLine
10
-82.142855644226074
20
43.500000238418565
30
0
11
-81.666666984558105
21
43.738095462322221
31
0
0
LINE
5
183
100
AcDbEntity
8
0
100
AcDbLine
10
-81.666666984558105
20
43.738095462322221
30
0
11
-81.190475940704346
21
44.214285910129533
31
0
0
LINE
5
184
100
AcDbEntity
8
0
100
AcDbLine
10
-81.190475940704346
20
44.214285910129533
30
0
11
-80.952381610870361
21
44.690476357936845
31
0
0
LINE
5
185
100
AcDbEntity
8
0
100
AcDbLine
10
-80.952381610870361
20
44.690476357936845
30
0
11
-80.714284896850586
21
45.404762029647813
31
0
0
LINE
5
186
100
AcDbEntity
8
0
100
AcDbLine
10
-80.714284896850586
20
45.404762029647813
30
0
11
-80.714284896850586
21
46.595238447189317
31
0
0
LINE
5
187
100
AcDbEntity
8
0
100
AcDbLine
10
-80.714284896850586
20
46.595238447189317
30
0
11
-80.952381610870361
21
47.309523820877061
31
0
0
LINE
5
188
100
AcDbEntity
8
0
100
AcDbLine
10
-80.952381610870361
20
47.309523820877061
30
0
11
-81.190475940704346
21
47.785714268684373
31
0
0
LINE
5
189
100
AcDbEntity
8
0
100
AcDbLine
10
-81.190475940704346
20
47.785714268684373
30
0
11
-81.666666984558105
21
48.261904716491685
31
0
0
LINE
5
190
100
AcDbEntity
8
0
100
AcDbLine
10
-81.666666984558105
20
48.261904716491685
30
0
11
-82.142855644226074
21
48.500000238418565
31
0
0
LINE
5
191
100
AcDbEntity
8
0
100
AcDbLine
10
-82.142855644226074
20
48.500000238418565
30
0
11
-83.095237731933594
21
48.500000238418565
31
0
0
LINE
5
192
100
AcDbEntity
8
0
100
AcDbLine
10
-83.095237731933594
20
48.500000238418565
30
0
11
-83.571428775787354
21
48.261904716491685
31
0
0
LINE
5
193
100
AcDbEntity
8
0
100
AcDbLine
10
-83.571428775787354
20
48.261904716491685
30
0
11
-84.047619819641113
21
47.785714268684373
31
0
0
LINE
5
194
100
AcDbEntity
8
0
100
AcDbLine
10
-84.047619819641113
20
47.785714268684373
30
0
11
-84.285714149475098
21
47.309523820877061
31
0
0
LINE
5
195
100
AcDbEntity
8
0
100
AcDbLine
10
-84.285714149475098
20
47.309523820877061
30
0
11
-84.285714149475098
21
46.595238447189317
31
0
0
LINE
5
196
100
AcDbEntity
8
0
100
AcDbLine
10
-83.095237731933594
20
46.595238447189317
30
0
11
-84.285714149475098
21
46.595238447189317
31
0
0
LINE
5
197
100
AcDbEntity
8
0
100
AcDbLine
10
-85.952383995056152
20
43.500000238418565
30
0
11
-85.952383995056152
21
48.500000238418565
31
0
0
LINE
5
198
100
AcDbEntity
8
0
100
AcDbLine
10
-85.952383995056152
20
43.500000238418565
30
0
11
-89.047619819641113
21
43.500000238418565
31
0
0
LINE
5
199
100
AcDbEntity
8
0
100
AcDbLine
10
-85.952383995056152
20
45.880952477455125
30
0
11
-87.8571457862854
21
45.880952477455125
31
0
0
LINE
5
200
100
AcDbEntity
8
0
100
AcDbLine
10
-85.952383995056152
20
48.500000238418565
30
0
11
-89.047619819641113
21
48.500000238418565
31
0
0
LINE
5
201
100
AcDbEntity
8
0
100
AcDbLine
10
-131.47618961334229
20
43.500000238418565
30
0
11
-131.47618961334229
21
48.500000238418565
31
0
0
LINE
5
202
100
AcDbEntity
8
0
100
AcDbLine
10
-131.47618961334229
20
43.500000238418565
30
0
11
-133.38095140457153
21
48.500000238418565
31
0
0
LINE
5
203
100
AcDbEntity
8
0
100
AcDbLine
10
-135.28571319580078
20
43.500000238418565
30
0
11
-133.38095140457153
21
48.500000238418565
31
0
0
LINE
5
204
100
AcDbEntity
8
0
100
AcDbLine
10
-135.28571319580078
20
43.500000238418565
30
0
11
-135.28571319580078
21
48.500000238418565
31
0
0
LINE
5
205
100
AcDbEntity
8
0
100
AcDbLine
10
-137.19047617912292
20
43.500000238418565
30
0
11
-137.19047617912292
21
48.500000238418565
31
0
0
LINE
5
206
100
AcDbEntity
8
0
100
AcDbLine
10
-137.19047617912292
20
43.500000238418565
30
0
11
-140.52380871772766
21
48.500000238418565
31
0
0
LINE
5
207
100
AcDbEntity
8
0
100
AcDbLine
10
-140.52380871772766
20
43.500000238418565
30
0
11
-140.52380871772766
21
48.500000238418565
31
0
0
LINE
5
208
100
AcDbEntity
8
0
100
AcDbLine
10
-142.4285717010498
20
43.500000238418565
30
0
11
-142.4285717010498
21
48.500000238418565
31
0
0
LINE
5
209
100
AcDbEntity
8
0
100
AcDbLine
10
-142.4285717010498
20
43.500000238418565
30
0
11
-144.57142901420593
21
43.500000238418565
31
0
0
LINE
5
210
100
AcDbEntity
8
0
100
AcDbLine
10
-144.57142901420593
20
43.500000238418565
30
0
11
-145.28571438789368
21
43.738095462322221
31
0
0
LINE
5
211
100
AcDbEntity
8
0
100
AcDbLine
10
-145.28571438789368
20
43.738095462322221
30
0
11
-145.52380990982056
21
43.976190686225877
31
0
0
LINE
5
212
100
AcDbEntity
8
0
100
AcDbLine
10
-145.52380990982056
20
43.976190686225877
30
0
11
-145.76190543174744
21
44.452381134033189
31
0
0
LINE
5
213
100
AcDbEntity
8
0
100
AcDbLine
10
-145.76190543174744
20
44.452381134033189
30
0
11
-145.76190543174744
21
45.166666507720933
31
0
0
LINE
5
214
100
AcDbEntity
8
0
100
AcDbLine
10
-145.76190543174744
20
45.166666507720933
30
0
11
-145.52380990982056
21
45.642857551574693
31
0
0
LINE
5
215
100
AcDbEntity
8
0
100
AcDbLine
10
-145.52380990982056
20
45.642857551574693
30
0
11
-145.28571438789368
21
45.880952477455125
31
0
0
LINE
5
216
100
AcDbEntity
8
0
100
AcDbLine
10
-145.28571438789368
20
45.880952477455125
30
0
11
-144.57142901420593
21
46.119047999382005
31
0
0
LINE
5
217
100
AcDbEntity
8
0
100
AcDbLine
10
-144.57142901420593
20
46.119047999382005
30
0
11
-142.4285717010498
21
46.119047999382005
31
0
0
LINE
5
218
100
AcDbEntity
8
0
100
AcDbLine
10
-156.97619020938873
20
43.500000238418565
30
0
11
-156.97619020938873
21
48.500000238418565
31
0
0
LINE
5
219
100
AcDbEntity
8
0
100
AcDbLine
10
-158.88095200061798
20
43.500000238418565
30
0
11
-158.88095200061798
21
48.500000238418565
31
0
0
LINE
5
220
100
AcDbEntity
8
0
100
AcDbLine
10
-158.88095200061798
20
43.500000238418565
30
0
11
-162.21428513526917
21
48.500000238418565
31
0
0
LINE
5
221
100
AcDbEntity
8
0
100
AcDbLine
10
-162.21428513526917
20
43.500000238418565
30
0
11
-162.21428513526917
21
48.500000238418565
31
0
0
LINE
5
222
100
AcDbEntity
8
0
100
AcDbLine
10
-165.07142782211304
20
43.500000238418565
30
0
11
-165.07142782211304
21
48.500000238418565
31
0
0
LINE
5
223
100
AcDbEntity
8
0
100
AcDbLine
10
-163.40476155281067
20
43.500000238418565
30
0
11
-166.7380952835083
21
43.500000238418565
31
0
0
ENDSEC
0
SECTION
2
OBJECTS
0
DICTIONARY
5
C
100
AcDbDictionary
3
ACAD_GROUP
350
D
3
ACAD_MLINESTYLE
350
17
0
DICTIONARY
5
D
100
AcDbDictionary
0
DICTIONARY
5
1A
330
C
100
AcDbDictionary
0
DICTIONARY
5
17
100
AcDbDictionary
0
ENDSEC
0
EOF
