ISO-10303-21;
HEADER;
/* Generated by software containing ST-Developer
 * from STEP Tools, Inc. (www.steptools.com) 
 */

FILE_DESCRIPTION(
/* description */ (''),
/* implementation_level */ '2;1');

FILE_NAME(
/* name */ 
'C:/Users/anton/Documents/Kerbal Space Program/Kerbal_Control_Panel/KC
P2/CAD/STEPs/GaugeTower_BackPlate_v16_Folded.step',
/* time_stamp */ '2020-11-12T08:30:45-08:00',
/* author */ (''),
/* organization */ (''),
/* preprocessor_version */ 'ST-DEVELOPER v18.1',
/* originating_system */ 'Autodesk Translation Framework v9.3.0.1241',
/* authorisation */ '');

FILE_SCHEMA (('AUTOMOTIVE_DESIGN { 1 0 10303 214 3 1 1 }'));
ENDSEC;

DATA;
#10=MECHANICAL_DESIGN_GEOMETRIC_PRESENTATION_REPRESENTATION('',(#738,#739,
#740,#741,#742,#743,#744,#745,#746,#747,#748,#749,#750,#751,#752,#753),
#1370);
#11=SHAPE_REPRESENTATION_RELATIONSHIP('SRR','None',#1377,#12);
#12=ADVANCED_BREP_SHAPE_REPRESENTATION('',(#13),#1369);
#13=MANIFOLD_SOLID_BREP('Plate',#800);
#14=FACE_BOUND('',#139,.T.);
#15=FACE_BOUND('',#140,.T.);
#16=FACE_BOUND('',#141,.T.);
#17=FACE_BOUND('',#145,.T.);
#18=FACE_BOUND('',#146,.T.);
#19=FACE_BOUND('',#147,.T.);
#20=FACE_BOUND('',#158,.T.);
#21=FACE_BOUND('',#159,.T.);
#22=FACE_BOUND('',#160,.T.);
#23=FACE_BOUND('',#167,.T.);
#24=FACE_BOUND('',#168,.T.);
#25=FACE_BOUND('',#169,.T.);
#26=FACE_BOUND('',#172,.T.);
#27=FACE_BOUND('',#173,.T.);
#28=FACE_BOUND('',#174,.T.);
#29=FACE_BOUND('',#175,.T.);
#30=FACE_BOUND('',#178,.T.);
#31=FACE_BOUND('',#179,.T.);
#32=FACE_BOUND('',#180,.T.);
#33=FACE_BOUND('',#181,.T.);
#34=PLANE('',#867);
#35=PLANE('',#868);
#36=PLANE('',#873);
#37=PLANE('',#874);
#38=PLANE('',#878);
#39=PLANE('',#881);
#40=PLANE('',#885);
#41=PLANE('',#887);
#42=PLANE('',#889);
#43=PLANE('',#891);
#44=PLANE('',#895);
#45=PLANE('',#896);
#46=PLANE('',#898);
#47=PLANE('',#901);
#48=PLANE('',#902);
#49=PLANE('',#903);
#50=PLANE('',#904);
#51=PLANE('',#905);
#52=CYLINDRICAL_SURFACE('',#817,2.248);
#53=CYLINDRICAL_SURFACE('',#822,2.248);
#54=CYLINDRICAL_SURFACE('',#827,2.248);
#55=CYLINDRICAL_SURFACE('',#832,2.248);
#56=CYLINDRICAL_SURFACE('',#837,2.248);
#57=CYLINDRICAL_SURFACE('',#842,2.248);
#58=CYLINDRICAL_SURFACE('',#847,2.248);
#59=CYLINDRICAL_SURFACE('',#852,2.248);
#60=CYLINDRICAL_SURFACE('',#857,2.248);
#61=CYLINDRICAL_SURFACE('',#862,2.248);
#62=CYLINDRICAL_SURFACE('',#864,3.);
#63=CYLINDRICAL_SURFACE('',#870,3.);
#64=CYLINDRICAL_SURFACE('',#876,3.);
#65=CYLINDRICAL_SURFACE('',#879,3.);
#66=CYLINDRICAL_SURFACE('',#882,6.);
#67=CYLINDRICAL_SURFACE('',#890,3.);
#68=CYLINDRICAL_SURFACE('',#892,6.);
#69=CYLINDRICAL_SURFACE('',#900,3.);
#70=FACE_OUTER_BOUND('',#116,.T.);
#71=FACE_OUTER_BOUND('',#117,.T.);
#72=FACE_OUTER_BOUND('',#118,.T.);
#73=FACE_OUTER_BOUND('',#119,.T.);
#74=FACE_OUTER_BOUND('',#120,.T.);
#75=FACE_OUTER_BOUND('',#121,.T.);
#76=FACE_OUTER_BOUND('',#122,.T.);
#77=FACE_OUTER_BOUND('',#123,.T.);
#78=FACE_OUTER_BOUND('',#124,.T.);
#79=FACE_OUTER_BOUND('',#125,.T.);
#80=FACE_OUTER_BOUND('',#126,.T.);
#81=FACE_OUTER_BOUND('',#127,.T.);
#82=FACE_OUTER_BOUND('',#128,.T.);
#83=FACE_OUTER_BOUND('',#129,.T.);
#84=FACE_OUTER_BOUND('',#130,.T.);
#85=FACE_OUTER_BOUND('',#131,.T.);
#86=FACE_OUTER_BOUND('',#132,.T.);
#87=FACE_OUTER_BOUND('',#133,.T.);
#88=FACE_OUTER_BOUND('',#134,.T.);
#89=FACE_OUTER_BOUND('',#135,.T.);
#90=FACE_OUTER_BOUND('',#136,.T.);
#91=FACE_OUTER_BOUND('',#137,.T.);
#92=FACE_OUTER_BOUND('',#138,.T.);
#93=FACE_OUTER_BOUND('',#142,.T.);
#94=FACE_OUTER_BOUND('',#143,.T.);
#95=FACE_OUTER_BOUND('',#144,.T.);
#96=FACE_OUTER_BOUND('',#148,.T.);
#97=FACE_OUTER_BOUND('',#149,.T.);
#98=FACE_OUTER_BOUND('',#150,.T.);
#99=FACE_OUTER_BOUND('',#151,.T.);
#100=FACE_OUTER_BOUND('',#152,.T.);
#101=FACE_OUTER_BOUND('',#153,.T.);
#102=FACE_OUTER_BOUND('',#154,.T.);
#103=FACE_OUTER_BOUND('',#155,.T.);
#104=FACE_OUTER_BOUND('',#156,.T.);
#105=FACE_OUTER_BOUND('',#157,.T.);
#106=FACE_OUTER_BOUND('',#161,.T.);
#107=FACE_OUTER_BOUND('',#162,.T.);
#108=FACE_OUTER_BOUND('',#163,.T.);
#109=FACE_OUTER_BOUND('',#164,.T.);
#110=FACE_OUTER_BOUND('',#165,.T.);
#111=FACE_OUTER_BOUND('',#166,.T.);
#112=FACE_OUTER_BOUND('',#170,.T.);
#113=FACE_OUTER_BOUND('',#171,.T.);
#114=FACE_OUTER_BOUND('',#176,.T.);
#115=FACE_OUTER_BOUND('',#177,.T.);
#116=EDGE_LOOP('',(#516,#517,#518,#519));
#117=EDGE_LOOP('',(#520,#521,#522,#523));
#118=EDGE_LOOP('',(#524,#525,#526,#527));
#119=EDGE_LOOP('',(#528,#529,#530,#531));
#120=EDGE_LOOP('',(#532,#533,#534,#535));
#121=EDGE_LOOP('',(#536,#537,#538,#539));
#122=EDGE_LOOP('',(#540,#541,#542,#543));
#123=EDGE_LOOP('',(#544,#545,#546,#547));
#124=EDGE_LOOP('',(#548,#549,#550,#551));
#125=EDGE_LOOP('',(#552,#553,#554,#555));
#126=EDGE_LOOP('',(#556,#557,#558,#559));
#127=EDGE_LOOP('',(#560,#561,#562,#563));
#128=EDGE_LOOP('',(#564,#565,#566,#567));
#129=EDGE_LOOP('',(#568,#569,#570,#571));
#130=EDGE_LOOP('',(#572,#573,#574,#575));
#131=EDGE_LOOP('',(#576,#577,#578,#579));
#132=EDGE_LOOP('',(#580,#581,#582,#583));
#133=EDGE_LOOP('',(#584,#585,#586,#587));
#134=EDGE_LOOP('',(#588,#589,#590,#591));
#135=EDGE_LOOP('',(#592,#593,#594,#595));
#136=EDGE_LOOP('',(#596,#597,#598,#599));
#137=EDGE_LOOP('',(#600,#601,#602,#603));
#138=EDGE_LOOP('',(#604,#605,#606,#607,#608,#609));
#139=EDGE_LOOP('',(#610));
#140=EDGE_LOOP('',(#611));
#141=EDGE_LOOP('',(#612));
#142=EDGE_LOOP('',(#613,#614,#615,#616));
#143=EDGE_LOOP('',(#617,#618,#619,#620));
#144=EDGE_LOOP('',(#621,#622,#623,#624,#625,#626));
#145=EDGE_LOOP('',(#627));
#146=EDGE_LOOP('',(#628));
#147=EDGE_LOOP('',(#629));
#148=EDGE_LOOP('',(#630,#631,#632,#633));
#149=EDGE_LOOP('',(#634,#635,#636,#637));
#150=EDGE_LOOP('',(#638,#639,#640,#641));
#151=EDGE_LOOP('',(#642,#643,#644,#645));
#152=EDGE_LOOP('',(#646,#647,#648,#649));
#153=EDGE_LOOP('',(#650,#651,#652,#653));
#154=EDGE_LOOP('',(#654,#655,#656,#657));
#155=EDGE_LOOP('',(#658,#659,#660,#661));
#156=EDGE_LOOP('',(#662,#663,#664,#665));
#157=EDGE_LOOP('',(#666,#667,#668,#669,#670,#671));
#158=EDGE_LOOP('',(#672));
#159=EDGE_LOOP('',(#673));
#160=EDGE_LOOP('',(#674));
#161=EDGE_LOOP('',(#675,#676,#677,#678));
#162=EDGE_LOOP('',(#679,#680,#681,#682));
#163=EDGE_LOOP('',(#683,#684,#685,#686));
#164=EDGE_LOOP('',(#687,#688,#689,#690));
#165=EDGE_LOOP('',(#691,#692,#693,#694));
#166=EDGE_LOOP('',(#695,#696,#697,#698,#699,#700));
#167=EDGE_LOOP('',(#701));
#168=EDGE_LOOP('',(#702));
#169=EDGE_LOOP('',(#703));
#170=EDGE_LOOP('',(#704,#705,#706,#707));
#171=EDGE_LOOP('',(#708,#709,#710,#711));
#172=EDGE_LOOP('',(#712));
#173=EDGE_LOOP('',(#713));
#174=EDGE_LOOP('',(#714));
#175=EDGE_LOOP('',(#715));
#176=EDGE_LOOP('',(#716,#717,#718,#719));
#177=EDGE_LOOP('',(#720,#721,#722,#723));
#178=EDGE_LOOP('',(#724));
#179=EDGE_LOOP('',(#725));
#180=EDGE_LOOP('',(#726));
#181=EDGE_LOOP('',(#727));
#182=LINE('',#1157,#242);
#183=LINE('',#1161,#243);
#184=LINE('',#1167,#244);
#185=LINE('',#1171,#245);
#186=LINE('',#1177,#246);
#187=LINE('',#1181,#247);
#188=LINE('',#1187,#248);
#189=LINE('',#1191,#249);
#190=LINE('',#1197,#250);
#191=LINE('',#1201,#251);
#192=LINE('',#1207,#252);
#193=LINE('',#1211,#253);
#194=LINE('',#1217,#254);
#195=LINE('',#1221,#255);
#196=LINE('',#1227,#256);
#197=LINE('',#1231,#257);
#198=LINE('',#1237,#258);
#199=LINE('',#1241,#259);
#200=LINE('',#1247,#260);
#201=LINE('',#1251,#261);
#202=LINE('',#1258,#262);
#203=LINE('',#1261,#263);
#204=LINE('',#1264,#264);
#205=LINE('',#1266,#265);
#206=LINE('',#1267,#266);
#207=LINE('',#1270,#267);
#208=LINE('',#1274,#268);
#209=LINE('',#1275,#269);
#210=LINE('',#1281,#270);
#211=LINE('',#1284,#271);
#212=LINE('',#1287,#272);
#213=LINE('',#1289,#273);
#214=LINE('',#1290,#274);
#215=LINE('',#1293,#275);
#216=LINE('',#1295,#276);
#217=LINE('',#1297,#277);
#218=LINE('',#1303,#278);
#219=LINE('',#1304,#279);
#220=LINE('',#1307,#280);
#221=LINE('',#1308,#281);
#222=LINE('',#1312,#282);
#223=LINE('',#1315,#283);
#224=LINE('',#1316,#284);
#225=LINE('',#1318,#285);
#226=LINE('',#1322,#286);
#227=LINE('',#1327,#287);
#228=LINE('',#1330,#288);
#229=LINE('',#1333,#289);
#230=LINE('',#1335,#290);
#231=LINE('',#1339,#291);
#232=LINE('',#1343,#292);
#233=LINE('',#1346,#293);
#234=LINE('',#1347,#294);
#235=LINE('',#1351,#295);
#236=LINE('',#1354,#296);
#237=LINE('',#1357,#297);
#238=LINE('',#1360,#298);
#239=LINE('',#1361,#299);
#240=LINE('',#1363,#300);
#241=LINE('',#1365,#301);
#242=VECTOR('',#912,3.23225);
#243=VECTOR('',#917,2.248);
#244=VECTOR('',#924,3.23225);
#245=VECTOR('',#929,2.248);
#246=VECTOR('',#936,3.23225);
#247=VECTOR('',#941,2.248);
#248=VECTOR('',#948,3.23225);
#249=VECTOR('',#953,2.248);
#250=VECTOR('',#960,3.23225);
#251=VECTOR('',#965,2.248);
#252=VECTOR('',#972,3.23225);
#253=VECTOR('',#977,2.248);
#254=VECTOR('',#984,3.23225);
#255=VECTOR('',#989,2.248);
#256=VECTOR('',#996,3.23225);
#257=VECTOR('',#1001,2.248);
#258=VECTOR('',#1008,3.23225);
#259=VECTOR('',#1013,2.248);
#260=VECTOR('',#1020,3.23225);
#261=VECTOR('',#1025,2.248);
#262=VECTOR('',#1032,10.);
#263=VECTOR('',#1035,10.);
#264=VECTOR('',#1038,4.32);
#265=VECTOR('',#1039,10.);
#266=VECTOR('',#1040,10.);
#267=VECTOR('',#1043,10.);
#268=VECTOR('',#1046,4.32);
#269=VECTOR('',#1047,10.);
#270=VECTOR('',#1052,10.);
#271=VECTOR('',#1055,10.);
#272=VECTOR('',#1058,10.);
#273=VECTOR('',#1059,10.);
#274=VECTOR('',#1060,10.);
#275=VECTOR('',#1063,4.32);
#276=VECTOR('',#1064,10.);
#277=VECTOR('',#1065,4.32);
#278=VECTOR('',#1072,10.);
#279=VECTOR('',#1073,10.);
#280=VECTOR('',#1076,4.32);
#281=VECTOR('',#1077,10.);
#282=VECTOR('',#1082,10.);
#283=VECTOR('',#1085,10.);
#284=VECTOR('',#1086,10.);
#285=VECTOR('',#1089,10.);
#286=VECTOR('',#1092,10.);
#287=VECTOR('',#1099,10.);
#288=VECTOR('',#1102,10.);
#289=VECTOR('',#1107,10.);
#290=VECTOR('',#1110,10.);
#291=VECTOR('',#1115,10.);
#292=VECTOR('',#1118,10.);
#293=VECTOR('',#1123,4.32);
#294=VECTOR('',#1124,10.);
#295=VECTOR('',#1129,10.);
#296=VECTOR('',#1132,10.);
#297=VECTOR('',#1137,10.);
#298=VECTOR('',#1142,10.);
#299=VECTOR('',#1143,10.);
#300=VECTOR('',#1146,10.);
#301=VECTOR('',#1149,10.);
#302=CIRCLE('',#815,4.2165);
#303=CIRCLE('',#816,2.248);
#304=CIRCLE('',#818,2.248);
#305=CIRCLE('',#820,4.2165);
#306=CIRCLE('',#821,2.248);
#307=CIRCLE('',#823,2.248);
#308=CIRCLE('',#825,4.2165);
#309=CIRCLE('',#826,2.248);
#310=CIRCLE('',#828,2.248);
#311=CIRCLE('',#830,4.2165);
#312=CIRCLE('',#831,2.248);
#313=CIRCLE('',#833,2.248);
#314=CIRCLE('',#835,4.2165);
#315=CIRCLE('',#836,2.248);
#316=CIRCLE('',#838,2.248);
#317=CIRCLE('',#840,4.2165);
#318=CIRCLE('',#841,2.248);
#319=CIRCLE('',#843,2.248);
#320=CIRCLE('',#845,4.2165);
#321=CIRCLE('',#846,2.248);
#322=CIRCLE('',#848,2.248);
#323=CIRCLE('',#850,4.2165);
#324=CIRCLE('',#851,2.248);
#325=CIRCLE('',#853,2.248);
#326=CIRCLE('',#855,4.2165);
#327=CIRCLE('',#856,2.248);
#328=CIRCLE('',#858,2.248);
#329=CIRCLE('',#860,4.2165);
#330=CIRCLE('',#861,2.248);
#331=CIRCLE('',#863,2.248);
#332=CIRCLE('',#865,3.);
#333=CIRCLE('',#866,3.);
#334=CIRCLE('',#869,3.);
#335=CIRCLE('',#871,3.);
#336=CIRCLE('',#872,3.);
#337=CIRCLE('',#875,3.);
#338=CIRCLE('',#877,3.);
#339=CIRCLE('',#880,3.);
#340=CIRCLE('',#883,6.00000000000001);
#341=CIRCLE('',#884,6.);
#342=CIRCLE('',#886,3.);
#343=CIRCLE('',#888,3.);
#344=CIRCLE('',#893,6.00000000000001);
#345=CIRCLE('',#894,6.);
#346=CIRCLE('',#897,3.);
#347=CIRCLE('',#899,3.);
#348=VERTEX_POINT('',#1154);
#349=VERTEX_POINT('',#1156);
#350=VERTEX_POINT('',#1160);
#351=VERTEX_POINT('',#1164);
#352=VERTEX_POINT('',#1166);
#353=VERTEX_POINT('',#1170);
#354=VERTEX_POINT('',#1174);
#355=VERTEX_POINT('',#1176);
#356=VERTEX_POINT('',#1180);
#357=VERTEX_POINT('',#1184);
#358=VERTEX_POINT('',#1186);
#359=VERTEX_POINT('',#1190);
#360=VERTEX_POINT('',#1194);
#361=VERTEX_POINT('',#1196);
#362=VERTEX_POINT('',#1200);
#363=VERTEX_POINT('',#1204);
#364=VERTEX_POINT('',#1206);
#365=VERTEX_POINT('',#1210);
#366=VERTEX_POINT('',#1214);
#367=VERTEX_POINT('',#1216);
#368=VERTEX_POINT('',#1220);
#369=VERTEX_POINT('',#1224);
#370=VERTEX_POINT('',#1226);
#371=VERTEX_POINT('',#1230);
#372=VERTEX_POINT('',#1234);
#373=VERTEX_POINT('',#1236);
#374=VERTEX_POINT('',#1240);
#375=VERTEX_POINT('',#1244);
#376=VERTEX_POINT('',#1246);
#377=VERTEX_POINT('',#1250);
#378=VERTEX_POINT('',#1254);
#379=VERTEX_POINT('',#1255);
#380=VERTEX_POINT('',#1257);
#381=VERTEX_POINT('',#1259);
#382=VERTEX_POINT('',#1263);
#383=VERTEX_POINT('',#1265);
#384=VERTEX_POINT('',#1269);
#385=VERTEX_POINT('',#1271);
#386=VERTEX_POINT('',#1273);
#387=VERTEX_POINT('',#1277);
#388=VERTEX_POINT('',#1278);
#389=VERTEX_POINT('',#1280);
#390=VERTEX_POINT('',#1282);
#391=VERTEX_POINT('',#1286);
#392=VERTEX_POINT('',#1288);
#393=VERTEX_POINT('',#1292);
#394=VERTEX_POINT('',#1294);
#395=VERTEX_POINT('',#1296);
#396=VERTEX_POINT('',#1300);
#397=VERTEX_POINT('',#1301);
#398=VERTEX_POINT('',#1306);
#399=VERTEX_POINT('',#1310);
#400=VERTEX_POINT('',#1314);
#401=VERTEX_POINT('',#1319);
#402=VERTEX_POINT('',#1321);
#403=VERTEX_POINT('',#1325);
#404=VERTEX_POINT('',#1329);
#405=VERTEX_POINT('',#1338);
#406=VERTEX_POINT('',#1340);
#407=VERTEX_POINT('',#1342);
#408=VERTEX_POINT('',#1349);
#409=VERTEX_POINT('',#1353);
#410=EDGE_CURVE('',#348,#348,#302,.T.);
#411=EDGE_CURVE('',#348,#349,#182,.T.);
#412=EDGE_CURVE('',#349,#349,#303,.T.);
#413=EDGE_CURVE('',#349,#350,#183,.T.);
#414=EDGE_CURVE('',#350,#350,#304,.T.);
#415=EDGE_CURVE('',#351,#351,#305,.T.);
#416=EDGE_CURVE('',#351,#352,#184,.T.);
#417=EDGE_CURVE('',#352,#352,#306,.T.);
#418=EDGE_CURVE('',#352,#353,#185,.T.);
#419=EDGE_CURVE('',#353,#353,#307,.T.);
#420=EDGE_CURVE('',#354,#354,#308,.T.);
#421=EDGE_CURVE('',#354,#355,#186,.T.);
#422=EDGE_CURVE('',#355,#355,#309,.T.);
#423=EDGE_CURVE('',#355,#356,#187,.T.);
#424=EDGE_CURVE('',#356,#356,#310,.T.);
#425=EDGE_CURVE('',#357,#357,#311,.T.);
#426=EDGE_CURVE('',#357,#358,#188,.T.);
#427=EDGE_CURVE('',#358,#358,#312,.T.);
#428=EDGE_CURVE('',#358,#359,#189,.T.);
#429=EDGE_CURVE('',#359,#359,#313,.T.);
#430=EDGE_CURVE('',#360,#360,#314,.T.);
#431=EDGE_CURVE('',#360,#361,#190,.T.);
#432=EDGE_CURVE('',#361,#361,#315,.T.);
#433=EDGE_CURVE('',#361,#362,#191,.T.);
#434=EDGE_CURVE('',#362,#362,#316,.T.);
#435=EDGE_CURVE('',#363,#363,#317,.T.);
#436=EDGE_CURVE('',#363,#364,#192,.T.);
#437=EDGE_CURVE('',#364,#364,#318,.T.);
#438=EDGE_CURVE('',#364,#365,#193,.T.);
#439=EDGE_CURVE('',#365,#365,#319,.T.);
#440=EDGE_CURVE('',#366,#366,#320,.T.);
#441=EDGE_CURVE('',#366,#367,#194,.T.);
#442=EDGE_CURVE('',#367,#367,#321,.T.);
#443=EDGE_CURVE('',#367,#368,#195,.T.);
#444=EDGE_CURVE('',#368,#368,#322,.T.);
#445=EDGE_CURVE('',#369,#369,#323,.T.);
#446=EDGE_CURVE('',#369,#370,#196,.T.);
#447=EDGE_CURVE('',#370,#370,#324,.T.);
#448=EDGE_CURVE('',#370,#371,#197,.T.);
#449=EDGE_CURVE('',#371,#371,#325,.T.);
#450=EDGE_CURVE('',#372,#372,#326,.T.);
#451=EDGE_CURVE('',#372,#373,#198,.T.);
#452=EDGE_CURVE('',#373,#373,#327,.T.);
#453=EDGE_CURVE('',#373,#374,#199,.T.);
#454=EDGE_CURVE('',#374,#374,#328,.T.);
#455=EDGE_CURVE('',#375,#375,#329,.T.);
#456=EDGE_CURVE('',#375,#376,#200,.T.);
#457=EDGE_CURVE('',#376,#376,#330,.T.);
#458=EDGE_CURVE('',#376,#377,#201,.T.);
#459=EDGE_CURVE('',#377,#377,#331,.T.);
#460=EDGE_CURVE('',#378,#379,#332,.T.);
#461=EDGE_CURVE('',#379,#380,#202,.T.);
#462=EDGE_CURVE('',#380,#381,#333,.T.);
#463=EDGE_CURVE('',#381,#378,#203,.T.);
#464=EDGE_CURVE('',#381,#382,#204,.T.);
#465=EDGE_CURVE('',#382,#383,#205,.T.);
#466=EDGE_CURVE('',#378,#383,#206,.T.);
#467=EDGE_CURVE('',#380,#384,#207,.T.);
#468=EDGE_CURVE('',#385,#384,#334,.T.);
#469=EDGE_CURVE('',#385,#386,#208,.T.);
#470=EDGE_CURVE('',#386,#382,#209,.T.);
#471=EDGE_CURVE('',#387,#388,#335,.T.);
#472=EDGE_CURVE('',#388,#389,#210,.T.);
#473=EDGE_CURVE('',#389,#390,#336,.T.);
#474=EDGE_CURVE('',#390,#387,#211,.T.);
#475=EDGE_CURVE('',#391,#390,#212,.T.);
#476=EDGE_CURVE('',#392,#391,#213,.T.);
#477=EDGE_CURVE('',#387,#392,#214,.T.);
#478=EDGE_CURVE('',#389,#393,#215,.T.);
#479=EDGE_CURVE('',#393,#394,#216,.T.);
#480=EDGE_CURVE('',#395,#394,#217,.T.);
#481=EDGE_CURVE('',#391,#395,#337,.T.);
#482=EDGE_CURVE('',#396,#397,#338,.T.);
#483=EDGE_CURVE('',#397,#385,#218,.T.);
#484=EDGE_CURVE('',#384,#396,#219,.T.);
#485=EDGE_CURVE('',#398,#397,#220,.T.);
#486=EDGE_CURVE('',#398,#386,#221,.T.);
#487=EDGE_CURVE('',#399,#392,#339,.T.);
#488=EDGE_CURVE('',#395,#399,#222,.T.);
#489=EDGE_CURVE('',#394,#400,#223,.T.);
#490=EDGE_CURVE('',#399,#400,#224,.T.);
#491=EDGE_CURVE('',#383,#398,#225,.T.);
#492=EDGE_CURVE('',#383,#401,#340,.T.);
#493=EDGE_CURVE('',#402,#401,#226,.T.);
#494=EDGE_CURVE('',#402,#398,#341,.T.);
#495=EDGE_CURVE('',#382,#403,#342,.T.);
#496=EDGE_CURVE('',#401,#403,#227,.T.);
#497=EDGE_CURVE('',#404,#402,#228,.T.);
#498=EDGE_CURVE('',#386,#404,#343,.T.);
#499=EDGE_CURVE('',#396,#379,#229,.T.);
#500=EDGE_CURVE('',#403,#404,#230,.T.);
#501=EDGE_CURVE('',#400,#405,#231,.T.);
#502=EDGE_CURVE('',#400,#406,#344,.T.);
#503=EDGE_CURVE('',#407,#406,#232,.T.);
#504=EDGE_CURVE('',#407,#405,#345,.T.);
#505=EDGE_CURVE('',#405,#388,#233,.T.);
#506=EDGE_CURVE('',#405,#393,#234,.T.);
#507=EDGE_CURVE('',#394,#408,#346,.T.);
#508=EDGE_CURVE('',#406,#408,#235,.T.);
#509=EDGE_CURVE('',#409,#407,#236,.T.);
#510=EDGE_CURVE('',#393,#409,#347,.T.);
#511=EDGE_CURVE('',#408,#409,#237,.T.);
#512=EDGE_CURVE('',#402,#406,#238,.T.);
#513=EDGE_CURVE('',#404,#408,#239,.T.);
#514=EDGE_CURVE('',#407,#401,#240,.T.);
#515=EDGE_CURVE('',#409,#403,#241,.T.);
#516=ORIENTED_EDGE('',*,*,#410,.F.);
#517=ORIENTED_EDGE('',*,*,#411,.T.);
#518=ORIENTED_EDGE('',*,*,#412,.T.);
#519=ORIENTED_EDGE('',*,*,#411,.F.);
#520=ORIENTED_EDGE('',*,*,#412,.F.);
#521=ORIENTED_EDGE('',*,*,#413,.T.);
#522=ORIENTED_EDGE('',*,*,#414,.F.);
#523=ORIENTED_EDGE('',*,*,#413,.F.);
#524=ORIENTED_EDGE('',*,*,#415,.F.);
#525=ORIENTED_EDGE('',*,*,#416,.T.);
#526=ORIENTED_EDGE('',*,*,#417,.T.);
#527=ORIENTED_EDGE('',*,*,#416,.F.);
#528=ORIENTED_EDGE('',*,*,#417,.F.);
#529=ORIENTED_EDGE('',*,*,#418,.T.);
#530=ORIENTED_EDGE('',*,*,#419,.F.);
#531=ORIENTED_EDGE('',*,*,#418,.F.);
#532=ORIENTED_EDGE('',*,*,#420,.F.);
#533=ORIENTED_EDGE('',*,*,#421,.T.);
#534=ORIENTED_EDGE('',*,*,#422,.T.);
#535=ORIENTED_EDGE('',*,*,#421,.F.);
#536=ORIENTED_EDGE('',*,*,#422,.F.);
#537=ORIENTED_EDGE('',*,*,#423,.T.);
#538=ORIENTED_EDGE('',*,*,#424,.F.);
#539=ORIENTED_EDGE('',*,*,#423,.F.);
#540=ORIENTED_EDGE('',*,*,#425,.F.);
#541=ORIENTED_EDGE('',*,*,#426,.T.);
#542=ORIENTED_EDGE('',*,*,#427,.T.);
#543=ORIENTED_EDGE('',*,*,#426,.F.);
#544=ORIENTED_EDGE('',*,*,#427,.F.);
#545=ORIENTED_EDGE('',*,*,#428,.T.);
#546=ORIENTED_EDGE('',*,*,#429,.F.);
#547=ORIENTED_EDGE('',*,*,#428,.F.);
#548=ORIENTED_EDGE('',*,*,#430,.F.);
#549=ORIENTED_EDGE('',*,*,#431,.T.);
#550=ORIENTED_EDGE('',*,*,#432,.T.);
#551=ORIENTED_EDGE('',*,*,#431,.F.);
#552=ORIENTED_EDGE('',*,*,#432,.F.);
#553=ORIENTED_EDGE('',*,*,#433,.T.);
#554=ORIENTED_EDGE('',*,*,#434,.F.);
#555=ORIENTED_EDGE('',*,*,#433,.F.);
#556=ORIENTED_EDGE('',*,*,#435,.F.);
#557=ORIENTED_EDGE('',*,*,#436,.T.);
#558=ORIENTED_EDGE('',*,*,#437,.T.);
#559=ORIENTED_EDGE('',*,*,#436,.F.);
#560=ORIENTED_EDGE('',*,*,#437,.F.);
#561=ORIENTED_EDGE('',*,*,#438,.T.);
#562=ORIENTED_EDGE('',*,*,#439,.F.);
#563=ORIENTED_EDGE('',*,*,#438,.F.);
#564=ORIENTED_EDGE('',*,*,#440,.F.);
#565=ORIENTED_EDGE('',*,*,#441,.T.);
#566=ORIENTED_EDGE('',*,*,#442,.T.);
#567=ORIENTED_EDGE('',*,*,#441,.F.);
#568=ORIENTED_EDGE('',*,*,#442,.F.);
#569=ORIENTED_EDGE('',*,*,#443,.T.);
#570=ORIENTED_EDGE('',*,*,#444,.F.);
#571=ORIENTED_EDGE('',*,*,#443,.F.);
#572=ORIENTED_EDGE('',*,*,#445,.F.);
#573=ORIENTED_EDGE('',*,*,#446,.T.);
#574=ORIENTED_EDGE('',*,*,#447,.T.);
#575=ORIENTED_EDGE('',*,*,#446,.F.);
#576=ORIENTED_EDGE('',*,*,#447,.F.);
#577=ORIENTED_EDGE('',*,*,#448,.T.);
#578=ORIENTED_EDGE('',*,*,#449,.F.);
#579=ORIENTED_EDGE('',*,*,#448,.F.);
#580=ORIENTED_EDGE('',*,*,#450,.F.);
#581=ORIENTED_EDGE('',*,*,#451,.T.);
#582=ORIENTED_EDGE('',*,*,#452,.T.);
#583=ORIENTED_EDGE('',*,*,#451,.F.);
#584=ORIENTED_EDGE('',*,*,#452,.F.);
#585=ORIENTED_EDGE('',*,*,#453,.T.);
#586=ORIENTED_EDGE('',*,*,#454,.F.);
#587=ORIENTED_EDGE('',*,*,#453,.F.);
#588=ORIENTED_EDGE('',*,*,#455,.F.);
#589=ORIENTED_EDGE('',*,*,#456,.T.);
#590=ORIENTED_EDGE('',*,*,#457,.T.);
#591=ORIENTED_EDGE('',*,*,#456,.F.);
#592=ORIENTED_EDGE('',*,*,#457,.F.);
#593=ORIENTED_EDGE('',*,*,#458,.T.);
#594=ORIENTED_EDGE('',*,*,#459,.F.);
#595=ORIENTED_EDGE('',*,*,#458,.F.);
#596=ORIENTED_EDGE('',*,*,#460,.T.);
#597=ORIENTED_EDGE('',*,*,#461,.T.);
#598=ORIENTED_EDGE('',*,*,#462,.T.);
#599=ORIENTED_EDGE('',*,*,#463,.T.);
#600=ORIENTED_EDGE('',*,*,#463,.F.);
#601=ORIENTED_EDGE('',*,*,#464,.T.);
#602=ORIENTED_EDGE('',*,*,#465,.T.);
#603=ORIENTED_EDGE('',*,*,#466,.F.);
#604=ORIENTED_EDGE('',*,*,#462,.F.);
#605=ORIENTED_EDGE('',*,*,#467,.T.);
#606=ORIENTED_EDGE('',*,*,#468,.F.);
#607=ORIENTED_EDGE('',*,*,#469,.T.);
#608=ORIENTED_EDGE('',*,*,#470,.T.);
#609=ORIENTED_EDGE('',*,*,#464,.F.);
#610=ORIENTED_EDGE('',*,*,#419,.T.);
#611=ORIENTED_EDGE('',*,*,#439,.T.);
#612=ORIENTED_EDGE('',*,*,#449,.T.);
#613=ORIENTED_EDGE('',*,*,#471,.T.);
#614=ORIENTED_EDGE('',*,*,#472,.T.);
#615=ORIENTED_EDGE('',*,*,#473,.T.);
#616=ORIENTED_EDGE('',*,*,#474,.T.);
#617=ORIENTED_EDGE('',*,*,#474,.F.);
#618=ORIENTED_EDGE('',*,*,#475,.F.);
#619=ORIENTED_EDGE('',*,*,#476,.F.);
#620=ORIENTED_EDGE('',*,*,#477,.F.);
#621=ORIENTED_EDGE('',*,*,#473,.F.);
#622=ORIENTED_EDGE('',*,*,#478,.T.);
#623=ORIENTED_EDGE('',*,*,#479,.T.);
#624=ORIENTED_EDGE('',*,*,#480,.F.);
#625=ORIENTED_EDGE('',*,*,#481,.F.);
#626=ORIENTED_EDGE('',*,*,#475,.T.);
#627=ORIENTED_EDGE('',*,*,#424,.T.);
#628=ORIENTED_EDGE('',*,*,#444,.T.);
#629=ORIENTED_EDGE('',*,*,#454,.T.);
#630=ORIENTED_EDGE('',*,*,#482,.T.);
#631=ORIENTED_EDGE('',*,*,#483,.T.);
#632=ORIENTED_EDGE('',*,*,#468,.T.);
#633=ORIENTED_EDGE('',*,*,#484,.T.);
#634=ORIENTED_EDGE('',*,*,#483,.F.);
#635=ORIENTED_EDGE('',*,*,#485,.F.);
#636=ORIENTED_EDGE('',*,*,#486,.T.);
#637=ORIENTED_EDGE('',*,*,#469,.F.);
#638=ORIENTED_EDGE('',*,*,#487,.T.);
#639=ORIENTED_EDGE('',*,*,#476,.T.);
#640=ORIENTED_EDGE('',*,*,#481,.T.);
#641=ORIENTED_EDGE('',*,*,#488,.T.);
#642=ORIENTED_EDGE('',*,*,#488,.F.);
#643=ORIENTED_EDGE('',*,*,#480,.T.);
#644=ORIENTED_EDGE('',*,*,#489,.T.);
#645=ORIENTED_EDGE('',*,*,#490,.F.);
#646=ORIENTED_EDGE('',*,*,#491,.F.);
#647=ORIENTED_EDGE('',*,*,#492,.T.);
#648=ORIENTED_EDGE('',*,*,#493,.F.);
#649=ORIENTED_EDGE('',*,*,#494,.T.);
#650=ORIENTED_EDGE('',*,*,#465,.F.);
#651=ORIENTED_EDGE('',*,*,#495,.T.);
#652=ORIENTED_EDGE('',*,*,#496,.F.);
#653=ORIENTED_EDGE('',*,*,#492,.F.);
#654=ORIENTED_EDGE('',*,*,#486,.F.);
#655=ORIENTED_EDGE('',*,*,#494,.F.);
#656=ORIENTED_EDGE('',*,*,#497,.F.);
#657=ORIENTED_EDGE('',*,*,#498,.F.);
#658=ORIENTED_EDGE('',*,*,#461,.F.);
#659=ORIENTED_EDGE('',*,*,#499,.F.);
#660=ORIENTED_EDGE('',*,*,#484,.F.);
#661=ORIENTED_EDGE('',*,*,#467,.F.);
#662=ORIENTED_EDGE('',*,*,#470,.F.);
#663=ORIENTED_EDGE('',*,*,#498,.T.);
#664=ORIENTED_EDGE('',*,*,#500,.F.);
#665=ORIENTED_EDGE('',*,*,#495,.F.);
#666=ORIENTED_EDGE('',*,*,#460,.F.);
#667=ORIENTED_EDGE('',*,*,#466,.T.);
#668=ORIENTED_EDGE('',*,*,#491,.T.);
#669=ORIENTED_EDGE('',*,*,#485,.T.);
#670=ORIENTED_EDGE('',*,*,#482,.F.);
#671=ORIENTED_EDGE('',*,*,#499,.T.);
#672=ORIENTED_EDGE('',*,*,#415,.T.);
#673=ORIENTED_EDGE('',*,*,#435,.T.);
#674=ORIENTED_EDGE('',*,*,#445,.T.);
#675=ORIENTED_EDGE('',*,*,#501,.F.);
#676=ORIENTED_EDGE('',*,*,#502,.T.);
#677=ORIENTED_EDGE('',*,*,#503,.F.);
#678=ORIENTED_EDGE('',*,*,#504,.T.);
#679=ORIENTED_EDGE('',*,*,#472,.F.);
#680=ORIENTED_EDGE('',*,*,#505,.F.);
#681=ORIENTED_EDGE('',*,*,#506,.T.);
#682=ORIENTED_EDGE('',*,*,#478,.F.);
#683=ORIENTED_EDGE('',*,*,#489,.F.);
#684=ORIENTED_EDGE('',*,*,#507,.T.);
#685=ORIENTED_EDGE('',*,*,#508,.F.);
#686=ORIENTED_EDGE('',*,*,#502,.F.);
#687=ORIENTED_EDGE('',*,*,#506,.F.);
#688=ORIENTED_EDGE('',*,*,#504,.F.);
#689=ORIENTED_EDGE('',*,*,#509,.F.);
#690=ORIENTED_EDGE('',*,*,#510,.F.);
#691=ORIENTED_EDGE('',*,*,#479,.F.);
#692=ORIENTED_EDGE('',*,*,#510,.T.);
#693=ORIENTED_EDGE('',*,*,#511,.F.);
#694=ORIENTED_EDGE('',*,*,#507,.F.);
#695=ORIENTED_EDGE('',*,*,#471,.F.);
#696=ORIENTED_EDGE('',*,*,#477,.T.);
#697=ORIENTED_EDGE('',*,*,#487,.F.);
#698=ORIENTED_EDGE('',*,*,#490,.T.);
#699=ORIENTED_EDGE('',*,*,#501,.T.);
#700=ORIENTED_EDGE('',*,*,#505,.T.);
#701=ORIENTED_EDGE('',*,*,#420,.T.);
#702=ORIENTED_EDGE('',*,*,#440,.T.);
#703=ORIENTED_EDGE('',*,*,#450,.T.);
#704=ORIENTED_EDGE('',*,*,#497,.T.);
#705=ORIENTED_EDGE('',*,*,#512,.T.);
#706=ORIENTED_EDGE('',*,*,#508,.T.);
#707=ORIENTED_EDGE('',*,*,#513,.F.);
#708=ORIENTED_EDGE('',*,*,#493,.T.);
#709=ORIENTED_EDGE('',*,*,#514,.F.);
#710=ORIENTED_EDGE('',*,*,#503,.T.);
#711=ORIENTED_EDGE('',*,*,#512,.F.);
#712=ORIENTED_EDGE('',*,*,#410,.T.);
#713=ORIENTED_EDGE('',*,*,#425,.T.);
#714=ORIENTED_EDGE('',*,*,#430,.T.);
#715=ORIENTED_EDGE('',*,*,#455,.T.);
#716=ORIENTED_EDGE('',*,*,#496,.T.);
#717=ORIENTED_EDGE('',*,*,#515,.F.);
#718=ORIENTED_EDGE('',*,*,#509,.T.);
#719=ORIENTED_EDGE('',*,*,#514,.T.);
#720=ORIENTED_EDGE('',*,*,#500,.T.);
#721=ORIENTED_EDGE('',*,*,#513,.T.);
#722=ORIENTED_EDGE('',*,*,#511,.T.);
#723=ORIENTED_EDGE('',*,*,#515,.T.);
#724=ORIENTED_EDGE('',*,*,#414,.T.);
#725=ORIENTED_EDGE('',*,*,#429,.T.);
#726=ORIENTED_EDGE('',*,*,#434,.T.);
#727=ORIENTED_EDGE('',*,*,#459,.T.);
#728=CONICAL_SURFACE('',#814,3.23225,0.715584993317675);
#729=CONICAL_SURFACE('',#819,3.23225,0.715584993317675);
#730=CONICAL_SURFACE('',#824,3.23225,0.715584993317675);
#731=CONICAL_SURFACE('',#829,3.23225,0.715584993317675);
#732=CONICAL_SURFACE('',#834,3.23225,0.715584993317675);
#733=CONICAL_SURFACE('',#839,3.23225,0.715584993317675);
#734=CONICAL_SURFACE('',#844,3.23225,0.715584993317675);
#735=CONICAL_SURFACE('',#849,3.23225,0.715584993317675);
#736=CONICAL_SURFACE('',#854,3.23225,0.715584993317675);
#737=CONICAL_SURFACE('',#859,3.23225,0.715584993317675);
#738=STYLED_ITEM('',(#1388),#754);
#739=STYLED_ITEM('',(#1388),#756);
#740=STYLED_ITEM('',(#1388),#758);
#741=STYLED_ITEM('',(#1388),#760);
#742=STYLED_ITEM('',(#1388),#762);
#743=STYLED_ITEM('',(#1388),#764);
#744=STYLED_ITEM('',(#1388),#766);
#745=STYLED_ITEM('',(#1388),#768);
#746=STYLED_ITEM('',(#1388),#770);
#747=STYLED_ITEM('',(#1388),#772);
#748=STYLED_ITEM('',(#1388),#784);
#749=STYLED_ITEM('',(#1388),#789);
#750=STYLED_ITEM('',(#1388),#790);
#751=STYLED_ITEM('',(#1388),#795);
#752=STYLED_ITEM('',(#1388),#797);
#753=STYLED_ITEM('',(#1387),#13);
#754=ADVANCED_FACE('',(#70),#728,.F.);
#755=ADVANCED_FACE('',(#71),#52,.F.);
#756=ADVANCED_FACE('',(#72),#729,.F.);
#757=ADVANCED_FACE('',(#73),#53,.F.);
#758=ADVANCED_FACE('',(#74),#730,.F.);
#759=ADVANCED_FACE('',(#75),#54,.F.);
#760=ADVANCED_FACE('',(#76),#731,.F.);
#761=ADVANCED_FACE('',(#77),#55,.F.);
#762=ADVANCED_FACE('',(#78),#732,.F.);
#763=ADVANCED_FACE('',(#79),#56,.F.);
#764=ADVANCED_FACE('',(#80),#733,.F.);
#765=ADVANCED_FACE('',(#81),#57,.F.);
#766=ADVANCED_FACE('',(#82),#734,.F.);
#767=ADVANCED_FACE('',(#83),#58,.F.);
#768=ADVANCED_FACE('',(#84),#735,.F.);
#769=ADVANCED_FACE('',(#85),#59,.F.);
#770=ADVANCED_FACE('',(#86),#736,.F.);
#771=ADVANCED_FACE('',(#87),#60,.F.);
#772=ADVANCED_FACE('',(#88),#737,.F.);
#773=ADVANCED_FACE('',(#89),#61,.F.);
#774=ADVANCED_FACE('',(#90),#62,.T.);
#775=ADVANCED_FACE('',(#91),#34,.T.);
#776=ADVANCED_FACE('',(#92,#14,#15,#16),#35,.T.);
#777=ADVANCED_FACE('',(#93),#63,.T.);
#778=ADVANCED_FACE('',(#94),#36,.T.);
#779=ADVANCED_FACE('',(#95,#17,#18,#19),#37,.T.);
#780=ADVANCED_FACE('',(#96),#64,.T.);
#781=ADVANCED_FACE('',(#97),#38,.T.);
#782=ADVANCED_FACE('',(#98),#65,.T.);
#783=ADVANCED_FACE('',(#99),#39,.T.);
#784=ADVANCED_FACE('',(#100),#66,.T.);
#785=ADVANCED_FACE('',(#101),#40,.T.);
#786=ADVANCED_FACE('',(#102),#41,.T.);
#787=ADVANCED_FACE('',(#103),#42,.T.);
#788=ADVANCED_FACE('',(#104),#67,.F.);
#789=ADVANCED_FACE('',(#105,#20,#21,#22),#43,.T.);
#790=ADVANCED_FACE('',(#106),#68,.T.);
#791=ADVANCED_FACE('',(#107),#44,.T.);
#792=ADVANCED_FACE('',(#108),#45,.T.);
#793=ADVANCED_FACE('',(#109),#46,.T.);
#794=ADVANCED_FACE('',(#110),#69,.F.);
#795=ADVANCED_FACE('',(#111,#23,#24,#25),#47,.T.);
#796=ADVANCED_FACE('',(#112),#48,.T.);
#797=ADVANCED_FACE('',(#113,#26,#27,#28,#29),#49,.T.);
#798=ADVANCED_FACE('',(#114),#50,.T.);
#799=ADVANCED_FACE('',(#115,#30,#31,#32,#33),#51,.T.);
#800=CLOSED_SHELL('',(#754,#755,#756,#757,#758,#759,#760,#761,#762,#763,
#764,#765,#766,#767,#768,#769,#770,#771,#772,#773,#774,#775,#776,#777,#778,
#779,#780,#781,#782,#783,#784,#785,#786,#787,#788,#789,#790,#791,#792,#793,
#794,#795,#796,#797,#798,#799));
#801=DERIVED_UNIT_ELEMENT(#803,1.);
#802=DERIVED_UNIT_ELEMENT(#1372,3.);
#803=(
MASS_UNIT()
NAMED_UNIT(*)
SI_UNIT(.KILO.,.GRAM.)
);
#804=DERIVED_UNIT((#801,#802));
#805=MEASURE_REPRESENTATION_ITEM('density measure',
POSITIVE_RATIO_MEASURE(7850.),#804);
#806=PROPERTY_DEFINITION_REPRESENTATION(#811,#808);
#807=PROPERTY_DEFINITION_REPRESENTATION(#812,#809);
#808=REPRESENTATION('material name',(#810),#1369);
#809=REPRESENTATION('density',(#805),#1369);
#810=DESCRIPTIVE_REPRESENTATION_ITEM('Steel','Steel');
#811=PROPERTY_DEFINITION('material property','material name',#1379);
#812=PROPERTY_DEFINITION('material property','density of part',#1379);
#813=AXIS2_PLACEMENT_3D('placement',#1152,#906,#907);
#814=AXIS2_PLACEMENT_3D('',#1153,#908,#909);
#815=AXIS2_PLACEMENT_3D('',#1155,#910,#911);
#816=AXIS2_PLACEMENT_3D('',#1158,#913,#914);
#817=AXIS2_PLACEMENT_3D('',#1159,#915,#916);
#818=AXIS2_PLACEMENT_3D('',#1162,#918,#919);
#819=AXIS2_PLACEMENT_3D('',#1163,#920,#921);
#820=AXIS2_PLACEMENT_3D('',#1165,#922,#923);
#821=AXIS2_PLACEMENT_3D('',#1168,#925,#926);
#822=AXIS2_PLACEMENT_3D('',#1169,#927,#928);
#823=AXIS2_PLACEMENT_3D('',#1172,#930,#931);
#824=AXIS2_PLACEMENT_3D('',#1173,#932,#933);
#825=AXIS2_PLACEMENT_3D('',#1175,#934,#935);
#826=AXIS2_PLACEMENT_3D('',#1178,#937,#938);
#827=AXIS2_PLACEMENT_3D('',#1179,#939,#940);
#828=AXIS2_PLACEMENT_3D('',#1182,#942,#943);
#829=AXIS2_PLACEMENT_3D('',#1183,#944,#945);
#830=AXIS2_PLACEMENT_3D('',#1185,#946,#947);
#831=AXIS2_PLACEMENT_3D('',#1188,#949,#950);
#832=AXIS2_PLACEMENT_3D('',#1189,#951,#952);
#833=AXIS2_PLACEMENT_3D('',#1192,#954,#955);
#834=AXIS2_PLACEMENT_3D('',#1193,#956,#957);
#835=AXIS2_PLACEMENT_3D('',#1195,#958,#959);
#836=AXIS2_PLACEMENT_3D('',#1198,#961,#962);
#837=AXIS2_PLACEMENT_3D('',#1199,#963,#964);
#838=AXIS2_PLACEMENT_3D('',#1202,#966,#967);
#839=AXIS2_PLACEMENT_3D('',#1203,#968,#969);
#840=AXIS2_PLACEMENT_3D('',#1205,#970,#971);
#841=AXIS2_PLACEMENT_3D('',#1208,#973,#974);
#842=AXIS2_PLACEMENT_3D('',#1209,#975,#976);
#843=AXIS2_PLACEMENT_3D('',#1212,#978,#979);
#844=AXIS2_PLACEMENT_3D('',#1213,#980,#981);
#845=AXIS2_PLACEMENT_3D('',#1215,#982,#983);
#846=AXIS2_PLACEMENT_3D('',#1218,#985,#986);
#847=AXIS2_PLACEMENT_3D('',#1219,#987,#988);
#848=AXIS2_PLACEMENT_3D('',#1222,#990,#991);
#849=AXIS2_PLACEMENT_3D('',#1223,#992,#993);
#850=AXIS2_PLACEMENT_3D('',#1225,#994,#995);
#851=AXIS2_PLACEMENT_3D('',#1228,#997,#998);
#852=AXIS2_PLACEMENT_3D('',#1229,#999,#1000);
#853=AXIS2_PLACEMENT_3D('',#1232,#1002,#1003);
#854=AXIS2_PLACEMENT_3D('',#1233,#1004,#1005);
#855=AXIS2_PLACEMENT_3D('',#1235,#1006,#1007);
#856=AXIS2_PLACEMENT_3D('',#1238,#1009,#1010);
#857=AXIS2_PLACEMENT_3D('',#1239,#1011,#1012);
#858=AXIS2_PLACEMENT_3D('',#1242,#1014,#1015);
#859=AXIS2_PLACEMENT_3D('',#1243,#1016,#1017);
#860=AXIS2_PLACEMENT_3D('',#1245,#1018,#1019);
#861=AXIS2_PLACEMENT_3D('',#1248,#1021,#1022);
#862=AXIS2_PLACEMENT_3D('',#1249,#1023,#1024);
#863=AXIS2_PLACEMENT_3D('',#1252,#1026,#1027);
#864=AXIS2_PLACEMENT_3D('',#1253,#1028,#1029);
#865=AXIS2_PLACEMENT_3D('',#1256,#1030,#1031);
#866=AXIS2_PLACEMENT_3D('',#1260,#1033,#1034);
#867=AXIS2_PLACEMENT_3D('',#1262,#1036,#1037);
#868=AXIS2_PLACEMENT_3D('',#1268,#1041,#1042);
#869=AXIS2_PLACEMENT_3D('',#1272,#1044,#1045);
#870=AXIS2_PLACEMENT_3D('',#1276,#1048,#1049);
#871=AXIS2_PLACEMENT_3D('',#1279,#1050,#1051);
#872=AXIS2_PLACEMENT_3D('',#1283,#1053,#1054);
#873=AXIS2_PLACEMENT_3D('',#1285,#1056,#1057);
#874=AXIS2_PLACEMENT_3D('',#1291,#1061,#1062);
#875=AXIS2_PLACEMENT_3D('',#1298,#1066,#1067);
#876=AXIS2_PLACEMENT_3D('',#1299,#1068,#1069);
#877=AXIS2_PLACEMENT_3D('',#1302,#1070,#1071);
#878=AXIS2_PLACEMENT_3D('',#1305,#1074,#1075);
#879=AXIS2_PLACEMENT_3D('',#1309,#1078,#1079);
#880=AXIS2_PLACEMENT_3D('',#1311,#1080,#1081);
#881=AXIS2_PLACEMENT_3D('',#1313,#1083,#1084);
#882=AXIS2_PLACEMENT_3D('',#1317,#1087,#1088);
#883=AXIS2_PLACEMENT_3D('',#1320,#1090,#1091);
#884=AXIS2_PLACEMENT_3D('',#1323,#1093,#1094);
#885=AXIS2_PLACEMENT_3D('',#1324,#1095,#1096);
#886=AXIS2_PLACEMENT_3D('',#1326,#1097,#1098);
#887=AXIS2_PLACEMENT_3D('',#1328,#1100,#1101);
#888=AXIS2_PLACEMENT_3D('',#1331,#1103,#1104);
#889=AXIS2_PLACEMENT_3D('',#1332,#1105,#1106);
#890=AXIS2_PLACEMENT_3D('',#1334,#1108,#1109);
#891=AXIS2_PLACEMENT_3D('',#1336,#1111,#1112);
#892=AXIS2_PLACEMENT_3D('',#1337,#1113,#1114);
#893=AXIS2_PLACEMENT_3D('',#1341,#1116,#1117);
#894=AXIS2_PLACEMENT_3D('',#1344,#1119,#1120);
#895=AXIS2_PLACEMENT_3D('',#1345,#1121,#1122);
#896=AXIS2_PLACEMENT_3D('',#1348,#1125,#1126);
#897=AXIS2_PLACEMENT_3D('',#1350,#1127,#1128);
#898=AXIS2_PLACEMENT_3D('',#1352,#1130,#1131);
#899=AXIS2_PLACEMENT_3D('',#1355,#1133,#1134);
#900=AXIS2_PLACEMENT_3D('',#1356,#1135,#1136);
#901=AXIS2_PLACEMENT_3D('',#1358,#1138,#1139);
#902=AXIS2_PLACEMENT_3D('',#1359,#1140,#1141);
#903=AXIS2_PLACEMENT_3D('',#1362,#1144,#1145);
#904=AXIS2_PLACEMENT_3D('',#1364,#1147,#1148);
#905=AXIS2_PLACEMENT_3D('',#1366,#1150,#1151);
#906=DIRECTION('axis',(0.,0.,1.));
#907=DIRECTION('refdir',(1.,0.,0.));
#908=DIRECTION('center_axis',(0.,1.,0.));
#909=DIRECTION('ref_axis',(0.,0.,1.));
#910=DIRECTION('center_axis',(0.,-1.,0.));
#911=DIRECTION('ref_axis',(0.,0.,1.));
#912=DIRECTION('',(-8.03440589904945E-17,-0.754709580222772,0.656059028990507));
#913=DIRECTION('center_axis',(0.,-1.,0.));
#914=DIRECTION('ref_axis',(0.,0.,1.));
#915=DIRECTION('center_axis',(0.,-1.,0.));
#916=DIRECTION('ref_axis',(0.,0.,1.));
#917=DIRECTION('',(0.,-1.,0.));
#918=DIRECTION('center_axis',(0.,1.,0.));
#919=DIRECTION('ref_axis',(0.,0.,1.));
#920=DIRECTION('center_axis',(-1.,3.86109176951203E-15,0.));
#921=DIRECTION('ref_axis',(0.,0.,1.));
#922=DIRECTION('center_axis',(1.,-3.86109176951203E-15,0.));
#923=DIRECTION('ref_axis',(0.,0.,1.));
#924=DIRECTION('',(0.754709580222772,-2.99434700756052E-15,0.656059028990507));
#925=DIRECTION('center_axis',(1.,-3.86109176951203E-15,0.));
#926=DIRECTION('ref_axis',(0.,0.,1.));
#927=DIRECTION('center_axis',(1.,-3.86109176951203E-15,0.));
#928=DIRECTION('ref_axis',(0.,0.,1.));
#929=DIRECTION('',(1.,-3.86109176951203E-15,0.));
#930=DIRECTION('center_axis',(-1.,3.86109176951203E-15,0.));
#931=DIRECTION('ref_axis',(0.,0.,1.));
#932=DIRECTION('center_axis',(1.,1.9324385112077E-16,0.));
#933=DIRECTION('ref_axis',(0.,0.,1.));
#934=DIRECTION('center_axis',(-1.,-1.9324385112077E-16,0.));
#935=DIRECTION('ref_axis',(0.,0.,1.));
#936=DIRECTION('',(-0.754709580222772,-6.54989267694934E-17,0.656059028990507));
#937=DIRECTION('center_axis',(-1.,-1.9324385112077E-16,0.));
#938=DIRECTION('ref_axis',(0.,0.,1.));
#939=DIRECTION('center_axis',(-1.,-1.9324385112077E-16,0.));
#940=DIRECTION('ref_axis',(0.,0.,1.));
#941=DIRECTION('',(-1.,-1.9324385112077E-16,0.));
#942=DIRECTION('center_axis',(1.,1.9324385112077E-16,0.));
#943=DIRECTION('ref_axis',(0.,0.,1.));
#944=DIRECTION('center_axis',(0.,1.,0.));
#945=DIRECTION('ref_axis',(0.,0.,1.));
#946=DIRECTION('center_axis',(0.,-1.,0.));
#947=DIRECTION('ref_axis',(0.,0.,1.));
#948=DIRECTION('',(-8.03440589904945E-17,-0.754709580222772,0.656059028990507));
#949=DIRECTION('center_axis',(0.,-1.,0.));
#950=DIRECTION('ref_axis',(0.,0.,1.));
#951=DIRECTION('center_axis',(0.,-1.,0.));
#952=DIRECTION('ref_axis',(0.,0.,1.));
#953=DIRECTION('',(0.,-1.,0.));
#954=DIRECTION('center_axis',(0.,1.,0.));
#955=DIRECTION('ref_axis',(0.,0.,1.));
#956=DIRECTION('center_axis',(0.,1.,0.));
#957=DIRECTION('ref_axis',(0.,0.,1.));
#958=DIRECTION('center_axis',(0.,-1.,0.));
#959=DIRECTION('ref_axis',(0.,0.,1.));
#960=DIRECTION('',(-8.03440589904945E-17,-0.754709580222772,0.656059028990507));
#961=DIRECTION('center_axis',(0.,-1.,0.));
#962=DIRECTION('ref_axis',(0.,0.,1.));
#963=DIRECTION('center_axis',(0.,-1.,0.));
#964=DIRECTION('ref_axis',(0.,0.,1.));
#965=DIRECTION('',(0.,-1.,0.));
#966=DIRECTION('center_axis',(0.,1.,0.));
#967=DIRECTION('ref_axis',(0.,0.,1.));
#968=DIRECTION('center_axis',(-1.,3.86109176951203E-15,0.));
#969=DIRECTION('ref_axis',(0.,0.,1.));
#970=DIRECTION('center_axis',(1.,-3.86109176951203E-15,0.));
#971=DIRECTION('ref_axis',(0.,0.,1.));
#972=DIRECTION('',(0.754709580222772,-2.99434700756052E-15,0.656059028990507));
#973=DIRECTION('center_axis',(1.,-3.86109176951203E-15,0.));
#974=DIRECTION('ref_axis',(0.,0.,1.));
#975=DIRECTION('center_axis',(1.,-3.86109176951203E-15,0.));
#976=DIRECTION('ref_axis',(0.,0.,1.));
#977=DIRECTION('',(1.,-3.86109176951203E-15,0.));
#978=DIRECTION('center_axis',(-1.,3.86109176951203E-15,0.));
#979=DIRECTION('ref_axis',(0.,0.,1.));
#980=DIRECTION('center_axis',(1.,1.9324385112077E-16,0.));
#981=DIRECTION('ref_axis',(0.,0.,1.));
#982=DIRECTION('center_axis',(-1.,-1.9324385112077E-16,0.));
#983=DIRECTION('ref_axis',(0.,0.,1.));
#984=DIRECTION('',(-0.754709580222772,-6.54989267694934E-17,0.656059028990507));
#985=DIRECTION('center_axis',(-1.,-1.9324385112077E-16,0.));
#986=DIRECTION('ref_axis',(0.,0.,1.));
#987=DIRECTION('center_axis',(-1.,-1.9324385112077E-16,0.));
#988=DIRECTION('ref_axis',(0.,0.,1.));
#989=DIRECTION('',(-1.,-1.9324385112077E-16,0.));
#990=DIRECTION('center_axis',(1.,1.9324385112077E-16,0.));
#991=DIRECTION('ref_axis',(0.,0.,1.));
#992=DIRECTION('center_axis',(-1.,3.86109176951203E-15,0.));
#993=DIRECTION('ref_axis',(0.,0.,1.));
#994=DIRECTION('center_axis',(1.,-3.86109176951203E-15,0.));
#995=DIRECTION('ref_axis',(0.,0.,1.));
#996=DIRECTION('',(0.754709580222772,-2.99434700756052E-15,0.656059028990507));
#997=DIRECTION('center_axis',(1.,-3.86109176951203E-15,0.));
#998=DIRECTION('ref_axis',(0.,0.,1.));
#999=DIRECTION('center_axis',(1.,-3.86109176951203E-15,0.));
#1000=DIRECTION('ref_axis',(0.,0.,1.));
#1001=DIRECTION('',(1.,-3.86109176951203E-15,0.));
#1002=DIRECTION('center_axis',(-1.,3.86109176951203E-15,0.));
#1003=DIRECTION('ref_axis',(0.,0.,1.));
#1004=DIRECTION('center_axis',(1.,1.9324385112077E-16,0.));
#1005=DIRECTION('ref_axis',(0.,0.,1.));
#1006=DIRECTION('center_axis',(-1.,-1.9324385112077E-16,0.));
#1007=DIRECTION('ref_axis',(0.,0.,1.));
#1008=DIRECTION('',(-0.754709580222772,-6.54989267694934E-17,0.656059028990507));
#1009=DIRECTION('center_axis',(-1.,-1.9324385112077E-16,0.));
#1010=DIRECTION('ref_axis',(0.,0.,1.));
#1011=DIRECTION('center_axis',(-1.,-1.9324385112077E-16,0.));
#1012=DIRECTION('ref_axis',(0.,0.,1.));
#1013=DIRECTION('',(-1.,-1.9324385112077E-16,0.));
#1014=DIRECTION('center_axis',(1.,1.9324385112077E-16,0.));
#1015=DIRECTION('ref_axis',(0.,0.,1.));
#1016=DIRECTION('center_axis',(0.,1.,0.));
#1017=DIRECTION('ref_axis',(0.,0.,1.));
#1018=DIRECTION('center_axis',(0.,-1.,0.));
#1019=DIRECTION('ref_axis',(0.,0.,1.));
#1020=DIRECTION('',(-8.03440589904945E-17,-0.754709580222772,0.656059028990507));
#1021=DIRECTION('center_axis',(0.,-1.,0.));
#1022=DIRECTION('ref_axis',(0.,0.,1.));
#1023=DIRECTION('center_axis',(0.,-1.,0.));
#1024=DIRECTION('ref_axis',(0.,0.,1.));
#1025=DIRECTION('',(0.,-1.,0.));
#1026=DIRECTION('center_axis',(0.,1.,0.));
#1027=DIRECTION('ref_axis',(0.,0.,1.));
#1028=DIRECTION('center_axis',(-1.,2.34291072916505E-15,0.));
#1029=DIRECTION('ref_axis',(-9.85353278022039E-16,-0.707106781186546,0.707106781186549));
#1030=DIRECTION('center_axis',(1.,-2.34291072916505E-15,0.));
#1031=DIRECTION('ref_axis',(-9.85353278022039E-16,-0.707106781186546,0.707106781186549));
#1032=DIRECTION('',(1.,-2.34291072916505E-15,0.));
#1033=DIRECTION('center_axis',(-1.,2.31229455918637E-15,0.));
#1034=DIRECTION('ref_axis',(-9.85353278022039E-16,-0.707106781186546,0.707106781186549));
#1035=DIRECTION('',(-1.,2.34291072916505E-15,0.));
#1036=DIRECTION('center_axis',(0.,0.,1.));
#1037=DIRECTION('ref_axis',(2.34291072916505E-15,1.,0.));
#1038=DIRECTION('',(2.28167838920768E-15,1.,0.));
#1039=DIRECTION('',(-1.,2.34291072916505E-15,0.));
#1040=DIRECTION('',(2.34291072916505E-15,1.,0.));
#1041=DIRECTION('center_axis',(1.,-3.86109176951203E-15,0.));
#1042=DIRECTION('ref_axis',(0.,0.,-1.));
#1043=DIRECTION('',(0.,0.,-1.));
#1044=DIRECTION('center_axis',(-1.,2.31229455918637E-15,0.));
#1045=DIRECTION('ref_axis',(-9.85353278022046E-16,-0.707106781186551,-0.707106781186544));
#1046=DIRECTION('',(2.28167838920768E-15,1.,0.));
#1047=DIRECTION('',(0.,0.,1.));
#1048=DIRECTION('center_axis',(1.,-6.17684003168702E-16,0.));
#1049=DIRECTION('ref_axis',(-4.80066350082816E-16,-0.707106781186546,0.707106781186549));
#1050=DIRECTION('center_axis',(-1.,6.17684003168702E-16,0.));
#1051=DIRECTION('ref_axis',(-4.80066350082816E-16,-0.707106781186546,0.707106781186549));
#1052=DIRECTION('',(-1.,6.17684003168702E-16,0.));
#1053=DIRECTION('center_axis',(1.,-6.48300173147386E-16,0.));
#1054=DIRECTION('ref_axis',(-4.80066350082816E-16,-0.707106781186546,0.707106781186549));
#1055=DIRECTION('',(1.,-6.17684003168702E-16,0.));
#1056=DIRECTION('center_axis',(-6.17684003168702E-16,-1.,0.));
#1057=DIRECTION('ref_axis',(0.,0.,-1.));
#1058=DIRECTION('',(0.,0.,1.));
#1059=DIRECTION('',(-1.,6.17684003168702E-16,0.));
#1060=DIRECTION('',(0.,0.,-1.));
#1061=DIRECTION('center_axis',(-1.,-1.9324385112077E-16,0.));
#1062=DIRECTION('ref_axis',(0.,0.,-1.));
#1063=DIRECTION('',(6.7891634312607E-16,1.,0.));
#1064=DIRECTION('',(0.,0.,-1.));
#1065=DIRECTION('',(6.7891634312607E-16,1.,0.));
#1066=DIRECTION('center_axis',(1.,-6.48300173147386E-16,0.));
#1067=DIRECTION('ref_axis',(-4.80066350082819E-16,-0.707106781186551,-0.707106781186544));
#1068=DIRECTION('center_axis',(-1.,2.34291072916505E-15,0.));
#1069=DIRECTION('ref_axis',(-9.85353278022046E-16,-0.707106781186551,-0.707106781186544));
#1070=DIRECTION('center_axis',(1.,-2.34291072916505E-15,0.));
#1071=DIRECTION('ref_axis',(-9.85353278022046E-16,-0.707106781186551,-0.707106781186544));
#1072=DIRECTION('',(1.,-2.34291072916505E-15,0.));
#1073=DIRECTION('',(-1.,2.34291072916505E-15,0.));
#1074=DIRECTION('center_axis',(0.,0.,-1.));
#1075=DIRECTION('ref_axis',(-2.28167838920768E-15,-1.,0.));
#1076=DIRECTION('',(-2.28167838920768E-15,-1.,0.));
#1077=DIRECTION('',(1.,-2.34291072916505E-15,0.));
#1078=DIRECTION('center_axis',(1.,-6.17684003168702E-16,0.));
#1079=DIRECTION('ref_axis',(-4.80066350082819E-16,-0.707106781186551,-0.707106781186544));
#1080=DIRECTION('center_axis',(-1.,6.17684003168702E-16,0.));
#1081=DIRECTION('ref_axis',(-4.80066350082819E-16,-0.707106781186551,-0.707106781186544));
#1082=DIRECTION('',(1.,-6.17684003168702E-16,0.));
#1083=DIRECTION('center_axis',(0.,0.,-1.));
#1084=DIRECTION('ref_axis',(6.17684003168702E-16,1.,0.));
#1085=DIRECTION('',(1.,-6.17684003168702E-16,0.));
#1086=DIRECTION('',(6.17684003168702E-16,1.,0.));
#1087=DIRECTION('center_axis',(0.,0.,1.));
#1088=DIRECTION('ref_axis',(0.,1.,0.));
#1089=DIRECTION('',(0.,0.,-1.));
#1090=DIRECTION('center_axis',(0.,0.,-1.));
#1091=DIRECTION('ref_axis',(-1.,1.85037170770859E-15,0.));
#1092=DIRECTION('',(0.,0.,1.));
#1093=DIRECTION('center_axis',(0.,0.,1.));
#1094=DIRECTION('ref_axis',(0.,1.,0.));
#1095=DIRECTION('center_axis',(0.,0.,1.));
#1096=DIRECTION('ref_axis',(1.,0.,0.));
#1097=DIRECTION('center_axis',(0.,0.,-1.));
#1098=DIRECTION('ref_axis',(-1.,3.70074341541719E-15,0.));
#1099=DIRECTION('',(0.,-1.,0.));
#1100=DIRECTION('center_axis',(0.,0.,-1.));
#1101=DIRECTION('ref_axis',(-1.,0.,0.));
#1102=DIRECTION('',(0.,1.,0.));
#1103=DIRECTION('center_axis',(0.,0.,-1.));
#1104=DIRECTION('ref_axis',(-1.,3.70074341541719E-15,0.));
#1105=DIRECTION('center_axis',(-2.34291072916505E-15,-1.,0.));
#1106=DIRECTION('ref_axis',(0.,0.,1.));
#1107=DIRECTION('',(0.,0.,1.));
#1108=DIRECTION('center_axis',(0.,0.,1.));
#1109=DIRECTION('ref_axis',(0.,1.,0.));
#1110=DIRECTION('',(0.,0.,-1.));
#1111=DIRECTION('center_axis',(-1.,3.86109176951203E-15,0.));
#1112=DIRECTION('ref_axis',(3.86109176951203E-15,1.,0.));
#1113=DIRECTION('center_axis',(0.,0.,-1.));
#1114=DIRECTION('ref_axis',(0.,1.,0.));
#1115=DIRECTION('',(0.,0.,1.));
#1116=DIRECTION('center_axis',(0.,0.,1.));
#1117=DIRECTION('ref_axis',(1.,0.,0.));
#1118=DIRECTION('',(0.,0.,-1.));
#1119=DIRECTION('center_axis',(0.,0.,-1.));
#1120=DIRECTION('ref_axis',(0.,1.,0.));
#1121=DIRECTION('center_axis',(0.,0.,1.));
#1122=DIRECTION('ref_axis',(-6.7891634312607E-16,-1.,0.));
#1123=DIRECTION('',(-6.7891634312607E-16,-1.,0.));
#1124=DIRECTION('',(-1.,6.17684003168702E-16,0.));
#1125=DIRECTION('center_axis',(0.,0.,-1.));
#1126=DIRECTION('ref_axis',(-1.,0.,0.));
#1127=DIRECTION('center_axis',(0.,0.,1.));
#1128=DIRECTION('ref_axis',(1.,0.,0.));
#1129=DIRECTION('',(0.,-1.,0.));
#1130=DIRECTION('center_axis',(0.,0.,1.));
#1131=DIRECTION('ref_axis',(1.,0.,0.));
#1132=DIRECTION('',(0.,1.,0.));
#1133=DIRECTION('center_axis',(0.,0.,1.));
#1134=DIRECTION('ref_axis',(1.,0.,0.));
#1135=DIRECTION('center_axis',(0.,0.,-1.));
#1136=DIRECTION('ref_axis',(0.,1.,0.));
#1137=DIRECTION('',(0.,0.,1.));
#1138=DIRECTION('center_axis',(1.,1.9324385112077E-16,0.));
#1139=DIRECTION('ref_axis',(1.9324385112077E-16,-1.,0.));
#1140=DIRECTION('center_axis',(0.,0.,-1.));
#1141=DIRECTION('ref_axis',(1.,0.,0.));
#1142=DIRECTION('',(1.,0.,0.));
#1143=DIRECTION('',(1.,0.,0.));
#1144=DIRECTION('center_axis',(0.,1.,0.));
#1145=DIRECTION('ref_axis',(1.,0.,0.));
#1146=DIRECTION('',(-1.,0.,2.74694356608286E-16));
#1147=DIRECTION('center_axis',(2.74694356608286E-16,0.,1.));
#1148=DIRECTION('ref_axis',(-1.,0.,2.74694356608286E-16));
#1149=DIRECTION('',(-1.,0.,2.74694356608286E-16));
#1150=DIRECTION('center_axis',(0.,-1.,0.));
#1151=DIRECTION('ref_axis',(0.,0.,-1.));
#1152=CARTESIAN_POINT('',(0.,0.,0.));
#1153=CARTESIAN_POINT('Origin',(42.,-1.13225010480728,36.65));
#1154=CARTESIAN_POINT('',(42.,1.11022302462516E-15,32.4335));
#1155=CARTESIAN_POINT('Origin',(42.,0.,36.65));
#1156=CARTESIAN_POINT('',(42.,-2.26450020961456,34.402));
#1157=CARTESIAN_POINT('',(42.,-1.13225010480728,33.41775));
#1158=CARTESIAN_POINT('Origin',(42.,-2.26450020961456,36.65));
#1159=CARTESIAN_POINT('Origin',(42.,-6.,36.65));
#1160=CARTESIAN_POINT('',(42.,-3.,34.402));
#1161=CARTESIAN_POINT('',(42.,-6.,34.402));
#1162=CARTESIAN_POINT('Origin',(42.,-3.,36.65));
#1163=CARTESIAN_POINT('Origin',(-38.8677498951928,-30.65,-37.4999999999999));
#1164=CARTESIAN_POINT('',(-40.0000000000001,-30.65,-41.7164999999999));
#1165=CARTESIAN_POINT('Origin',(-40.0000000000001,-30.65,-37.4999999999999));
#1166=CARTESIAN_POINT('',(-37.7354997903855,-30.65,-39.7479999999999));
#1167=CARTESIAN_POINT('',(-38.8677498951928,-30.65,-40.7322499999999));
#1168=CARTESIAN_POINT('Origin',(-37.7354997903855,-30.65,-37.4999999999999));
#1169=CARTESIAN_POINT('Origin',(-34.0000000000001,-30.6500000000001,-37.4999999999999));
#1170=CARTESIAN_POINT('',(-37.0000000000001,-30.65,-39.7479999999999));
#1171=CARTESIAN_POINT('',(-34.0000000000001,-30.6500000000001,-39.7479999999999));
#1172=CARTESIAN_POINT('Origin',(-37.0000000000001,-30.65,-37.4999999999999));
#1173=CARTESIAN_POINT('Origin',(55.8677498951927,-30.65,-187.5));
#1174=CARTESIAN_POINT('',(57.,-30.65,-191.7165));
#1175=CARTESIAN_POINT('Origin',(57.,-30.65,-187.5));
#1176=CARTESIAN_POINT('',(54.7354997903854,-30.65,-189.748));
#1177=CARTESIAN_POINT('',(55.8677498951927,-30.65,-190.73225));
#1178=CARTESIAN_POINT('Origin',(54.7354997903854,-30.65,-187.5));
#1179=CARTESIAN_POINT('Origin',(51.,-30.65,-187.5));
#1180=CARTESIAN_POINT('',(54.,-30.65,-189.748));
#1181=CARTESIAN_POINT('',(51.,-30.65,-189.748));
#1182=CARTESIAN_POINT('Origin',(54.,-30.65,-187.5));
#1183=CARTESIAN_POINT('Origin',(42.,-1.13225010480728,-501.65));
#1184=CARTESIAN_POINT('',(42.,1.11022302462516E-15,-505.8665));
#1185=CARTESIAN_POINT('Origin',(42.,0.,-501.65));
#1186=CARTESIAN_POINT('',(42.,-2.26450020961456,-503.898));
#1187=CARTESIAN_POINT('',(42.,-1.13225010480728,-504.88225));
#1188=CARTESIAN_POINT('Origin',(42.,-2.26450020961456,-501.65));
#1189=CARTESIAN_POINT('Origin',(42.,-6.,-501.65));
#1190=CARTESIAN_POINT('',(42.,-3.,-503.898));
#1191=CARTESIAN_POINT('',(42.,-6.,-503.898));
#1192=CARTESIAN_POINT('Origin',(42.,-3.,-501.65));
#1193=CARTESIAN_POINT('Origin',(-25.,-1.13225010480728,-501.65));
#1194=CARTESIAN_POINT('',(-25.,1.11022302462516E-15,-505.8665));
#1195=CARTESIAN_POINT('Origin',(-25.,0.,-501.65));
#1196=CARTESIAN_POINT('',(-25.,-2.26450020961456,-503.898));
#1197=CARTESIAN_POINT('',(-25.,-1.13225010480728,-504.88225));
#1198=CARTESIAN_POINT('Origin',(-25.,-2.26450020961456,-501.65));
#1199=CARTESIAN_POINT('Origin',(-25.,-6.,-501.65));
#1200=CARTESIAN_POINT('',(-25.,-3.,-503.898));
#1201=CARTESIAN_POINT('',(-25.,-6.,-503.898));
#1202=CARTESIAN_POINT('Origin',(-25.,-3.,-501.65));
#1203=CARTESIAN_POINT('Origin',(-38.8677498951928,-30.65,-389.5));
#1204=CARTESIAN_POINT('',(-40.0000000000001,-30.65,-393.7165));
#1205=CARTESIAN_POINT('Origin',(-40.0000000000001,-30.65,-389.5));
#1206=CARTESIAN_POINT('',(-37.7354997903855,-30.65,-391.748));
#1207=CARTESIAN_POINT('',(-38.8677498951928,-30.65,-392.73225));
#1208=CARTESIAN_POINT('Origin',(-37.7354997903855,-30.65,-389.5));
#1209=CARTESIAN_POINT('Origin',(-34.0000000000001,-30.6500000000001,-389.5));
#1210=CARTESIAN_POINT('',(-37.0000000000001,-30.65,-391.748));
#1211=CARTESIAN_POINT('',(-34.0000000000001,-30.6500000000001,-391.748));
#1212=CARTESIAN_POINT('Origin',(-37.0000000000001,-30.65,-389.5));
#1213=CARTESIAN_POINT('Origin',(55.8677498951927,-30.65,-389.5));
#1214=CARTESIAN_POINT('',(57.,-30.65,-393.7165));
#1215=CARTESIAN_POINT('Origin',(57.,-30.65,-389.5));
#1216=CARTESIAN_POINT('',(54.7354997903854,-30.65,-391.748));
#1217=CARTESIAN_POINT('',(55.8677498951927,-30.65,-392.73225));
#1218=CARTESIAN_POINT('Origin',(54.7354997903854,-30.65,-389.5));
#1219=CARTESIAN_POINT('Origin',(51.,-30.65,-389.5));
#1220=CARTESIAN_POINT('',(54.,-30.65,-391.748));
#1221=CARTESIAN_POINT('',(51.,-30.65,-391.748));
#1222=CARTESIAN_POINT('Origin',(54.,-30.65,-389.5));
#1223=CARTESIAN_POINT('Origin',(-38.8677498951928,-30.65,-187.5));
#1224=CARTESIAN_POINT('',(-40.0000000000001,-30.65,-191.7165));
#1225=CARTESIAN_POINT('Origin',(-40.0000000000001,-30.65,-187.5));
#1226=CARTESIAN_POINT('',(-37.7354997903855,-30.65,-189.748));
#1227=CARTESIAN_POINT('',(-38.8677498951928,-30.65,-190.73225));
#1228=CARTESIAN_POINT('Origin',(-37.7354997903855,-30.65,-187.5));
#1229=CARTESIAN_POINT('Origin',(-34.0000000000001,-30.6500000000001,-187.5));
#1230=CARTESIAN_POINT('',(-37.0000000000001,-30.65,-189.748));
#1231=CARTESIAN_POINT('',(-34.0000000000001,-30.6500000000001,-189.748));
#1232=CARTESIAN_POINT('Origin',(-37.0000000000001,-30.65,-187.5));
#1233=CARTESIAN_POINT('Origin',(55.8677498951927,-30.65,-37.4999999999999));
#1234=CARTESIAN_POINT('',(57.,-30.65,-41.7164999999999));
#1235=CARTESIAN_POINT('Origin',(57.,-30.65,-37.4999999999999));
#1236=CARTESIAN_POINT('',(54.7354997903854,-30.65,-39.7479999999999));
#1237=CARTESIAN_POINT('',(55.8677498951927,-30.65,-40.7322499999999));
#1238=CARTESIAN_POINT('Origin',(54.7354997903854,-30.65,-37.4999999999999));
#1239=CARTESIAN_POINT('Origin',(51.,-30.65,-37.4999999999999));
#1240=CARTESIAN_POINT('',(54.,-30.65,-39.7479999999999));
#1241=CARTESIAN_POINT('',(51.,-30.65,-39.7479999999999));
#1242=CARTESIAN_POINT('Origin',(54.,-30.65,-37.4999999999999));
#1243=CARTESIAN_POINT('Origin',(-25.,-1.13225010480728,36.65));
#1244=CARTESIAN_POINT('',(-25.,1.11022302462516E-15,32.4335));
#1245=CARTESIAN_POINT('Origin',(-25.,0.,36.65));
#1246=CARTESIAN_POINT('',(-25.,-2.26450020961456,34.402));
#1247=CARTESIAN_POINT('',(-25.,-1.13225010480728,33.41775));
#1248=CARTESIAN_POINT('Origin',(-25.,-2.26450020961456,36.65));
#1249=CARTESIAN_POINT('Origin',(-25.,-6.,36.65));
#1250=CARTESIAN_POINT('',(-25.,-3.,34.402));
#1251=CARTESIAN_POINT('',(-25.,-6.,34.402));
#1252=CARTESIAN_POINT('Origin',(-25.,-3.,36.65));
#1253=CARTESIAN_POINT('Origin',(-37.0000000000001,-34.,40.));
#1254=CARTESIAN_POINT('',(-40.0000000000001,-34.,43.));
#1255=CARTESIAN_POINT('',(-40.0000000000001,-37.,40.));
#1256=CARTESIAN_POINT('Origin',(-40.0000000000001,-34.,40.));
#1257=CARTESIAN_POINT('',(-37.0000000000001,-37.,40.));
#1258=CARTESIAN_POINT('',(-37.0000000000001,-37.,40.));
#1259=CARTESIAN_POINT('',(-37.0000000000001,-34.,43.0000000000001));
#1260=CARTESIAN_POINT('Origin',(-37.0000000000001,-34.,40.));
#1261=CARTESIAN_POINT('',(-37.0000000000001,-34.,43.));
#1262=CARTESIAN_POINT('Origin',(-37.0000000000001,-37.,43.));
#1263=CARTESIAN_POINT('',(-37.,-6.,43.0000000000001));
#1264=CARTESIAN_POINT('',(-37.,7.5716802635079,43.0000000000001));
#1265=CARTESIAN_POINT('',(-40.,-6.,43.));
#1266=CARTESIAN_POINT('',(-37.66,-5.99999999999999,43.));
#1267=CARTESIAN_POINT('',(-40.,-6.,43.));
#1268=CARTESIAN_POINT('Origin',(-36.9999999999998,43.285840131754,-232.5));
#1269=CARTESIAN_POINT('',(-37.0000000000001,-37.,-505.));
#1270=CARTESIAN_POINT('',(-37.0000000000001,-37.,43.));
#1271=CARTESIAN_POINT('',(-37.0000000000001,-34.,-508.));
#1272=CARTESIAN_POINT('Origin',(-37.0000000000001,-34.,-505.));
#1273=CARTESIAN_POINT('',(-37.,-6.,-508.));
#1274=CARTESIAN_POINT('',(-37.,7.5716802635079,-508.));
#1275=CARTESIAN_POINT('',(-37.,-5.99999999999999,-232.5));
#1276=CARTESIAN_POINT('Origin',(54.,-34.,40.0000000000001));
#1277=CARTESIAN_POINT('',(56.9999999999999,-37.,40.0000000000001));
#1278=CARTESIAN_POINT('',(56.9999999999999,-34.,43.0000000000001));
#1279=CARTESIAN_POINT('Origin',(57.,-34.,40.0000000000001));
#1280=CARTESIAN_POINT('',(53.9999999999999,-34.,43.0000000000001));
#1281=CARTESIAN_POINT('',(54.,-34.,43.0000000000001));
#1282=CARTESIAN_POINT('',(53.9999999999999,-37.,40.0000000000001));
#1283=CARTESIAN_POINT('Origin',(53.9999999999999,-34.,40.0000000000001));
#1284=CARTESIAN_POINT('',(53.9999999999999,-37.,40.0000000000001));
#1285=CARTESIAN_POINT('Origin',(53.9999999999999,-37.,43.));
#1286=CARTESIAN_POINT('',(53.9999999999999,-37.,-505.));
#1287=CARTESIAN_POINT('',(53.9999999999999,-37.,-508.));
#1288=CARTESIAN_POINT('',(56.9999999999999,-37.,-505.));
#1289=CARTESIAN_POINT('',(53.9999999999999,-37.,-505.));
#1290=CARTESIAN_POINT('',(56.9999999999999,-37.,-508.));
#1291=CARTESIAN_POINT('Origin',(54.,43.2858401317539,-232.5));
#1292=CARTESIAN_POINT('',(54.,-6.,43.0000000000001));
#1293=CARTESIAN_POINT('',(54.,7.5716802635079,43.0000000000001));
#1294=CARTESIAN_POINT('',(54.,-6.,-508.));
#1295=CARTESIAN_POINT('',(54.,-6.,-232.5));
#1296=CARTESIAN_POINT('',(53.9999999999999,-34.,-508.));
#1297=CARTESIAN_POINT('',(54.,7.5716802635079,-508.));
#1298=CARTESIAN_POINT('Origin',(53.9999999999999,-34.,-505.));
#1299=CARTESIAN_POINT('Origin',(-37.0000000000001,-34.,-505.));
#1300=CARTESIAN_POINT('',(-40.0000000000001,-37.,-505.));
#1301=CARTESIAN_POINT('',(-40.0000000000001,-34.,-508.));
#1302=CARTESIAN_POINT('Origin',(-40.0000000000001,-34.,-505.));
#1303=CARTESIAN_POINT('',(-37.0000000000001,-34.,-508.));
#1304=CARTESIAN_POINT('',(-37.0000000000001,-37.,-505.));
#1305=CARTESIAN_POINT('Origin',(-37.,0.785840131753948,-508.));
#1306=CARTESIAN_POINT('',(-40.,-6.,-508.));
#1307=CARTESIAN_POINT('',(-40.,7.57168026350791,-508.));
#1308=CARTESIAN_POINT('',(-37.66,-6.,-508.));
#1309=CARTESIAN_POINT('Origin',(54.,-34.,-505.));
#1310=CARTESIAN_POINT('',(57.,-34.,-508.));
#1311=CARTESIAN_POINT('Origin',(57.,-34.,-505.));
#1312=CARTESIAN_POINT('',(54.,-34.,-508.));
#1313=CARTESIAN_POINT('Origin',(53.9999999999999,-37.,-508.));
#1314=CARTESIAN_POINT('',(57.,-6.,-508.));
#1315=CARTESIAN_POINT('',(54.6599999999999,-6.00000000000001,-508.));
#1316=CARTESIAN_POINT('',(57.,-6.,-508.));
#1317=CARTESIAN_POINT('Origin',(-34.,-6.,-232.5));
#1318=CARTESIAN_POINT('',(-40.,-5.99999999999998,-232.5));
#1319=CARTESIAN_POINT('',(-34.,0.,43.));
#1320=CARTESIAN_POINT('Origin',(-34.,-6.,43.));
#1321=CARTESIAN_POINT('',(-34.,0.,-508.));
#1322=CARTESIAN_POINT('',(-34.,0.,-94.75));
#1323=CARTESIAN_POINT('Origin',(-34.,-6.,-508.));
#1324=CARTESIAN_POINT('Origin',(-37.,-6.,43.));
#1325=CARTESIAN_POINT('',(-34.,-3.,43.));
#1326=CARTESIAN_POINT('Origin',(-34.,-6.,43.0000000000001));
#1327=CARTESIAN_POINT('',(-34.,-1.5,43.));
#1328=CARTESIAN_POINT('Origin',(-40.,-6.,-508.));
#1329=CARTESIAN_POINT('',(-34.,-3.,-508.));
#1330=CARTESIAN_POINT('',(-34.,-1.5,-508.));
#1331=CARTESIAN_POINT('Origin',(-34.,-6.,-508.));
#1332=CARTESIAN_POINT('Origin',(-37.0000000000001,-37.,-508.));
#1333=CARTESIAN_POINT('',(-40.0000000000001,-37.,43.));
#1334=CARTESIAN_POINT('Origin',(-34.,-6.,-232.5));
#1335=CARTESIAN_POINT('',(-34.,-3.,-94.75));
#1336=CARTESIAN_POINT('Origin',(-39.9999999999998,43.285840131754,-232.5));
#1337=CARTESIAN_POINT('Origin',(51.,-6.,-232.5));
#1338=CARTESIAN_POINT('',(57.,-6.,43.0000000000001));
#1339=CARTESIAN_POINT('',(57.,-6.,-232.5));
#1340=CARTESIAN_POINT('',(51.,0.,-508.));
#1341=CARTESIAN_POINT('Origin',(51.,-6.,-508.));
#1342=CARTESIAN_POINT('',(51.,0.,43.));
#1343=CARTESIAN_POINT('',(51.,0.,-370.25));
#1344=CARTESIAN_POINT('Origin',(51.,-6.,43.0000000000001));
#1345=CARTESIAN_POINT('Origin',(54.,0.785840131753943,43.0000000000001));
#1346=CARTESIAN_POINT('',(57.,7.57168026350789,43.0000000000001));
#1347=CARTESIAN_POINT('',(54.6599999999999,-6.00000000000001,43.0000000000001));
#1348=CARTESIAN_POINT('Origin',(54.,-6.,-508.));
#1349=CARTESIAN_POINT('',(51.,-3.,-508.));
#1350=CARTESIAN_POINT('Origin',(51.,-6.,-508.));
#1351=CARTESIAN_POINT('',(51.,-1.5,-508.));
#1352=CARTESIAN_POINT('Origin',(56.9999999999999,-6.,43.0000000000001));
#1353=CARTESIAN_POINT('',(51.,-3.,43.));
#1354=CARTESIAN_POINT('',(51.,-1.5,43.));
#1355=CARTESIAN_POINT('Origin',(51.,-6.,43.0000000000001));
#1356=CARTESIAN_POINT('Origin',(51.,-6.,-232.5));
#1357=CARTESIAN_POINT('',(51.,-3.,-370.25));
#1358=CARTESIAN_POINT('Origin',(57.,43.2858401317539,-232.5));
#1359=CARTESIAN_POINT('Origin',(-40.,0.,-508.));
#1360=CARTESIAN_POINT('',(-40.,0.,-508.));
#1361=CARTESIAN_POINT('',(-40.,-3.,-508.));
#1362=CARTESIAN_POINT('Origin',(8.5,0.,-232.5));
#1363=CARTESIAN_POINT('',(57.,0.,43.));
#1364=CARTESIAN_POINT('Origin',(57.,0.,43.));
#1365=CARTESIAN_POINT('',(57.,-3.,43.));
#1366=CARTESIAN_POINT('Origin',(8.5,-3.,-232.5));
#1367=UNCERTAINTY_MEASURE_WITH_UNIT(LENGTH_MEASURE(0.01),#1371,
'DISTANCE_ACCURACY_VALUE',
'Maximum model space distance between geometric entities at asserted c
onnectivities');
#1368=UNCERTAINTY_MEASURE_WITH_UNIT(LENGTH_MEASURE(0.01),#1371,
'DISTANCE_ACCURACY_VALUE',
'Maximum model space distance between geometric entities at asserted c
onnectivities');
#1369=(
GEOMETRIC_REPRESENTATION_CONTEXT(3)
GLOBAL_UNCERTAINTY_ASSIGNED_CONTEXT((#1367))
GLOBAL_UNIT_ASSIGNED_CONTEXT((#1371,#1373,#1374))
REPRESENTATION_CONTEXT('','3D')
);
#1370=(
GEOMETRIC_REPRESENTATION_CONTEXT(3)
GLOBAL_UNCERTAINTY_ASSIGNED_CONTEXT((#1368))
GLOBAL_UNIT_ASSIGNED_CONTEXT((#1371,#1373,#1374))
REPRESENTATION_CONTEXT('','3D')
);
#1371=(
LENGTH_UNIT()
NAMED_UNIT(*)
SI_UNIT(.MILLI.,.METRE.)
);
#1372=(
LENGTH_UNIT()
NAMED_UNIT(*)
SI_UNIT($,.METRE.)
);
#1373=(
NAMED_UNIT(*)
PLANE_ANGLE_UNIT()
SI_UNIT($,.RADIAN.)
);
#1374=(
NAMED_UNIT(*)
SI_UNIT($,.STERADIAN.)
SOLID_ANGLE_UNIT()
);
#1375=SHAPE_DEFINITION_REPRESENTATION(#1376,#1377);
#1376=PRODUCT_DEFINITION_SHAPE('',$,#1379);
#1377=SHAPE_REPRESENTATION('',(#813),#1369);
#1378=PRODUCT_DEFINITION_CONTEXT('part definition',#1383,'design');
#1379=PRODUCT_DEFINITION('Back Plate','Back Plate',#1380,#1378);
#1380=PRODUCT_DEFINITION_FORMATION('',$,#1385);
#1381=PRODUCT_RELATED_PRODUCT_CATEGORY('Back Plate','Back Plate',(#1385));
#1382=APPLICATION_PROTOCOL_DEFINITION('international standard',
'automotive_design',2009,#1383);
#1383=APPLICATION_CONTEXT(
'Core Data for Automotive Mechanical Design Process');
#1384=PRODUCT_CONTEXT('part definition',#1383,'mechanical');
#1385=PRODUCT('Back Plate','Back Plate',$,(#1384));
#1386=PRESENTATION_STYLE_ASSIGNMENT((#1389));
#1387=PRESENTATION_STYLE_ASSIGNMENT((#1390));
#1388=PRESENTATION_STYLE_ASSIGNMENT((#1391));
#1389=SURFACE_STYLE_USAGE(.BOTH.,#1392);
#1390=SURFACE_STYLE_USAGE(.BOTH.,#1393);
#1391=SURFACE_STYLE_USAGE(.BOTH.,#1394);
#1392=SURFACE_SIDE_STYLE('',(#1395));
#1393=SURFACE_SIDE_STYLE('',(#1396));
#1394=SURFACE_SIDE_STYLE('',(#1397));
#1395=SURFACE_STYLE_FILL_AREA(#1398);
#1396=SURFACE_STYLE_FILL_AREA(#1399);
#1397=SURFACE_STYLE_FILL_AREA(#1400);
#1398=FILL_AREA_STYLE('Steel - Satin',(#1401));
#1399=FILL_AREA_STYLE('Aluminum - Satin',(#1402));
#1400=FILL_AREA_STYLE('Plastic - Matte (Black) (1)',(#1403));
#1401=FILL_AREA_STYLE_COLOUR('Steel - Satin',#1404);
#1402=FILL_AREA_STYLE_COLOUR('Aluminum - Satin',#1405);
#1403=FILL_AREA_STYLE_COLOUR('Plastic - Matte (Black) (1)',#1406);
#1404=COLOUR_RGB('Steel - Satin',0.627450980392157,0.627450980392157,0.627450980392157);
#1405=COLOUR_RGB('Aluminum - Satin',0.96078431372549,0.96078431372549,0.964705882352941);
#1406=COLOUR_RGB('Plastic - Matte (Black) (1)',0.47843137254902,0.474509803921569,
0.474509803921569);
ENDSEC;
END-ISO-10303-21;
