ISO-10303-21;
HEADER;
/* Generated by software containing ST-Developer
 * from STEP Tools, Inc. (www.steptools.com) 
 */

FILE_DESCRIPTION(
/* description */ (''),
/* implementation_level */ '2;1');

FILE_NAME(
/* name */ 
'C:/Users/anton/Documents/Kerbal Space Program/Kerbal_Control_Panel/KC
P2/CAD/STEPs/GaugeTower_BackPlate_v16_FlatPattern.step',
/* time_stamp */ '2020-11-12T08:33:28-08:00',
/* author */ (''),
/* organization */ (''),
/* preprocessor_version */ 'ST-DEVELOPER v18.1',
/* originating_system */ 'Autodesk Translation Framework v9.3.0.1241',
/* authorisation */ '');

FILE_SCHEMA (('AUTOMOTIVE_DESIGN { 1 0 10303 214 3 1 1 }'));
ENDSEC;

DATA;
#10=MECHANICAL_DESIGN_GEOMETRIC_PRESENTATION_REPRESENTATION('',(#746,#747,
#748,#749,#750,#751,#752,#753,#754,#755,#756,#757,#758,#759,#760,#761),
#1362);
#11=SHAPE_REPRESENTATION_RELATIONSHIP('SRR','None',#1369,#12);
#12=ADVANCED_BREP_SHAPE_REPRESENTATION('',(#13),#1361);
#13=MANIFOLD_SOLID_BREP('Plate',#808);
#14=FACE_BOUND('',#139,.T.);
#15=FACE_BOUND('',#140,.T.);
#16=FACE_BOUND('',#141,.T.);
#17=FACE_BOUND('',#145,.T.);
#18=FACE_BOUND('',#146,.T.);
#19=FACE_BOUND('',#147,.T.);
#20=FACE_BOUND('',#158,.T.);
#21=FACE_BOUND('',#159,.T.);
#22=FACE_BOUND('',#160,.T.);
#23=FACE_BOUND('',#167,.T.);
#24=FACE_BOUND('',#168,.T.);
#25=FACE_BOUND('',#169,.T.);
#26=FACE_BOUND('',#172,.T.);
#27=FACE_BOUND('',#173,.T.);
#28=FACE_BOUND('',#174,.T.);
#29=FACE_BOUND('',#175,.T.);
#30=FACE_BOUND('',#178,.T.);
#31=FACE_BOUND('',#179,.T.);
#32=FACE_BOUND('',#180,.T.);
#33=FACE_BOUND('',#181,.T.);
#34=PLANE('',#875);
#35=PLANE('',#876);
#36=PLANE('',#881);
#37=PLANE('',#882);
#38=PLANE('',#886);
#39=PLANE('',#889);
#40=PLANE('',#890);
#41=PLANE('',#891);
#42=PLANE('',#892);
#43=PLANE('',#893);
#44=PLANE('',#894);
#45=PLANE('',#895);
#46=PLANE('',#896);
#47=PLANE('',#897);
#48=PLANE('',#898);
#49=PLANE('',#899);
#50=PLANE('',#900);
#51=PLANE('',#901);
#52=PLANE('',#902);
#53=PLANE('',#903);
#54=PLANE('',#904);
#55=PLANE('',#905);
#56=CYLINDRICAL_SURFACE('',#825,2.248);
#57=CYLINDRICAL_SURFACE('',#830,2.248);
#58=CYLINDRICAL_SURFACE('',#835,2.248);
#59=CYLINDRICAL_SURFACE('',#840,2.248);
#60=CYLINDRICAL_SURFACE('',#845,2.248);
#61=CYLINDRICAL_SURFACE('',#850,2.248);
#62=CYLINDRICAL_SURFACE('',#855,2.248);
#63=CYLINDRICAL_SURFACE('',#860,2.248);
#64=CYLINDRICAL_SURFACE('',#865,2.248);
#65=CYLINDRICAL_SURFACE('',#870,2.248);
#66=CYLINDRICAL_SURFACE('',#872,3.);
#67=CYLINDRICAL_SURFACE('',#878,3.);
#68=CYLINDRICAL_SURFACE('',#884,3.);
#69=CYLINDRICAL_SURFACE('',#887,3.);
#70=FACE_OUTER_BOUND('',#116,.T.);
#71=FACE_OUTER_BOUND('',#117,.T.);
#72=FACE_OUTER_BOUND('',#118,.T.);
#73=FACE_OUTER_BOUND('',#119,.T.);
#74=FACE_OUTER_BOUND('',#120,.T.);
#75=FACE_OUTER_BOUND('',#121,.T.);
#76=FACE_OUTER_BOUND('',#122,.T.);
#77=FACE_OUTER_BOUND('',#123,.T.);
#78=FACE_OUTER_BOUND('',#124,.T.);
#79=FACE_OUTER_BOUND('',#125,.T.);
#80=FACE_OUTER_BOUND('',#126,.T.);
#81=FACE_OUTER_BOUND('',#127,.T.);
#82=FACE_OUTER_BOUND('',#128,.T.);
#83=FACE_OUTER_BOUND('',#129,.T.);
#84=FACE_OUTER_BOUND('',#130,.T.);
#85=FACE_OUTER_BOUND('',#131,.T.);
#86=FACE_OUTER_BOUND('',#132,.T.);
#87=FACE_OUTER_BOUND('',#133,.T.);
#88=FACE_OUTER_BOUND('',#134,.T.);
#89=FACE_OUTER_BOUND('',#135,.T.);
#90=FACE_OUTER_BOUND('',#136,.T.);
#91=FACE_OUTER_BOUND('',#137,.T.);
#92=FACE_OUTER_BOUND('',#138,.T.);
#93=FACE_OUTER_BOUND('',#142,.T.);
#94=FACE_OUTER_BOUND('',#143,.T.);
#95=FACE_OUTER_BOUND('',#144,.T.);
#96=FACE_OUTER_BOUND('',#148,.T.);
#97=FACE_OUTER_BOUND('',#149,.T.);
#98=FACE_OUTER_BOUND('',#150,.T.);
#99=FACE_OUTER_BOUND('',#151,.T.);
#100=FACE_OUTER_BOUND('',#152,.T.);
#101=FACE_OUTER_BOUND('',#153,.T.);
#102=FACE_OUTER_BOUND('',#154,.T.);
#103=FACE_OUTER_BOUND('',#155,.T.);
#104=FACE_OUTER_BOUND('',#156,.T.);
#105=FACE_OUTER_BOUND('',#157,.T.);
#106=FACE_OUTER_BOUND('',#161,.T.);
#107=FACE_OUTER_BOUND('',#162,.T.);
#108=FACE_OUTER_BOUND('',#163,.T.);
#109=FACE_OUTER_BOUND('',#164,.T.);
#110=FACE_OUTER_BOUND('',#165,.T.);
#111=FACE_OUTER_BOUND('',#166,.T.);
#112=FACE_OUTER_BOUND('',#170,.T.);
#113=FACE_OUTER_BOUND('',#171,.T.);
#114=FACE_OUTER_BOUND('',#176,.T.);
#115=FACE_OUTER_BOUND('',#177,.T.);
#116=EDGE_LOOP('',(#524,#525,#526,#527));
#117=EDGE_LOOP('',(#528,#529,#530,#531));
#118=EDGE_LOOP('',(#532,#533,#534,#535));
#119=EDGE_LOOP('',(#536,#537,#538,#539));
#120=EDGE_LOOP('',(#540,#541,#542,#543));
#121=EDGE_LOOP('',(#544,#545,#546,#547));
#122=EDGE_LOOP('',(#548,#549,#550,#551));
#123=EDGE_LOOP('',(#552,#553,#554,#555));
#124=EDGE_LOOP('',(#556,#557,#558,#559));
#125=EDGE_LOOP('',(#560,#561,#562,#563));
#126=EDGE_LOOP('',(#564,#565,#566,#567));
#127=EDGE_LOOP('',(#568,#569,#570,#571));
#128=EDGE_LOOP('',(#572,#573,#574,#575));
#129=EDGE_LOOP('',(#576,#577,#578,#579));
#130=EDGE_LOOP('',(#580,#581,#582,#583));
#131=EDGE_LOOP('',(#584,#585,#586,#587));
#132=EDGE_LOOP('',(#588,#589,#590,#591));
#133=EDGE_LOOP('',(#592,#593,#594,#595));
#134=EDGE_LOOP('',(#596,#597,#598,#599));
#135=EDGE_LOOP('',(#600,#601,#602,#603));
#136=EDGE_LOOP('',(#604,#605,#606,#607));
#137=EDGE_LOOP('',(#608,#609,#610,#611));
#138=EDGE_LOOP('',(#612,#613,#614,#615,#616,#617));
#139=EDGE_LOOP('',(#618));
#140=EDGE_LOOP('',(#619));
#141=EDGE_LOOP('',(#620));
#142=EDGE_LOOP('',(#621,#622,#623,#624));
#143=EDGE_LOOP('',(#625,#626,#627,#628));
#144=EDGE_LOOP('',(#629,#630,#631,#632,#633,#634));
#145=EDGE_LOOP('',(#635));
#146=EDGE_LOOP('',(#636));
#147=EDGE_LOOP('',(#637));
#148=EDGE_LOOP('',(#638,#639,#640,#641));
#149=EDGE_LOOP('',(#642,#643,#644,#645));
#150=EDGE_LOOP('',(#646,#647,#648,#649));
#151=EDGE_LOOP('',(#650,#651,#652,#653));
#152=EDGE_LOOP('',(#654,#655,#656,#657));
#153=EDGE_LOOP('',(#658,#659,#660,#661));
#154=EDGE_LOOP('',(#662,#663,#664,#665));
#155=EDGE_LOOP('',(#666,#667,#668,#669));
#156=EDGE_LOOP('',(#670,#671,#672,#673));
#157=EDGE_LOOP('',(#674,#675,#676,#677,#678,#679));
#158=EDGE_LOOP('',(#680));
#159=EDGE_LOOP('',(#681));
#160=EDGE_LOOP('',(#682));
#161=EDGE_LOOP('',(#683,#684,#685,#686));
#162=EDGE_LOOP('',(#687,#688,#689,#690));
#163=EDGE_LOOP('',(#691,#692,#693,#694));
#164=EDGE_LOOP('',(#695,#696,#697,#698));
#165=EDGE_LOOP('',(#699,#700,#701,#702));
#166=EDGE_LOOP('',(#703,#704,#705,#706,#707,#708));
#167=EDGE_LOOP('',(#709));
#168=EDGE_LOOP('',(#710));
#169=EDGE_LOOP('',(#711));
#170=EDGE_LOOP('',(#712,#713,#714,#715));
#171=EDGE_LOOP('',(#716,#717,#718,#719));
#172=EDGE_LOOP('',(#720));
#173=EDGE_LOOP('',(#721));
#174=EDGE_LOOP('',(#722));
#175=EDGE_LOOP('',(#723));
#176=EDGE_LOOP('',(#724,#725,#726,#727));
#177=EDGE_LOOP('',(#728,#729,#730,#731));
#178=EDGE_LOOP('',(#732));
#179=EDGE_LOOP('',(#733));
#180=EDGE_LOOP('',(#734));
#181=EDGE_LOOP('',(#735));
#182=LINE('',#1149,#250);
#183=LINE('',#1153,#251);
#184=LINE('',#1159,#252);
#185=LINE('',#1163,#253);
#186=LINE('',#1169,#254);
#187=LINE('',#1173,#255);
#188=LINE('',#1179,#256);
#189=LINE('',#1183,#257);
#190=LINE('',#1189,#258);
#191=LINE('',#1193,#259);
#192=LINE('',#1199,#260);
#193=LINE('',#1203,#261);
#194=LINE('',#1209,#262);
#195=LINE('',#1213,#263);
#196=LINE('',#1219,#264);
#197=LINE('',#1223,#265);
#198=LINE('',#1229,#266);
#199=LINE('',#1233,#267);
#200=LINE('',#1239,#268);
#201=LINE('',#1243,#269);
#202=LINE('',#1250,#270);
#203=LINE('',#1253,#271);
#204=LINE('',#1256,#272);
#205=LINE('',#1258,#273);
#206=LINE('',#1259,#274);
#207=LINE('',#1262,#275);
#208=LINE('',#1266,#276);
#209=LINE('',#1267,#277);
#210=LINE('',#1273,#278);
#211=LINE('',#1276,#279);
#212=LINE('',#1279,#280);
#213=LINE('',#1281,#281);
#214=LINE('',#1282,#282);
#215=LINE('',#1285,#283);
#216=LINE('',#1287,#284);
#217=LINE('',#1289,#285);
#218=LINE('',#1295,#286);
#219=LINE('',#1296,#287);
#220=LINE('',#1299,#288);
#221=LINE('',#1300,#289);
#222=LINE('',#1304,#290);
#223=LINE('',#1307,#291);
#224=LINE('',#1308,#292);
#225=LINE('',#1310,#293);
#226=LINE('',#1312,#294);
#227=LINE('',#1314,#295);
#228=LINE('',#1315,#296);
#229=LINE('',#1318,#297);
#230=LINE('',#1319,#298);
#231=LINE('',#1322,#299);
#232=LINE('',#1323,#300);
#233=LINE('',#1325,#301);
#234=LINE('',#1327,#302);
#235=LINE('',#1331,#303);
#236=LINE('',#1333,#304);
#237=LINE('',#1335,#305);
#238=LINE('',#1336,#306);
#239=LINE('',#1338,#307);
#240=LINE('',#1339,#308);
#241=LINE('',#1342,#309);
#242=LINE('',#1343,#310);
#243=LINE('',#1346,#311);
#244=LINE('',#1347,#312);
#245=LINE('',#1349,#313);
#246=LINE('',#1352,#314);
#247=LINE('',#1353,#315);
#248=LINE('',#1355,#316);
#249=LINE('',#1357,#317);
#250=VECTOR('',#912,3.23225);
#251=VECTOR('',#917,2.248);
#252=VECTOR('',#924,3.23225);
#253=VECTOR('',#929,2.248);
#254=VECTOR('',#936,3.23225);
#255=VECTOR('',#941,2.248);
#256=VECTOR('',#948,3.23225);
#257=VECTOR('',#953,2.248);
#258=VECTOR('',#960,3.23225);
#259=VECTOR('',#965,2.248);
#260=VECTOR('',#972,3.23225);
#261=VECTOR('',#977,2.248);
#262=VECTOR('',#984,3.23225);
#263=VECTOR('',#989,2.248);
#264=VECTOR('',#996,3.23225);
#265=VECTOR('',#1001,2.248);
#266=VECTOR('',#1008,3.23225);
#267=VECTOR('',#1013,2.248);
#268=VECTOR('',#1020,3.23225);
#269=VECTOR('',#1025,2.248);
#270=VECTOR('',#1032,10.);
#271=VECTOR('',#1035,10.);
#272=VECTOR('',#1038,4.32);
#273=VECTOR('',#1039,10.);
#274=VECTOR('',#1040,10.);
#275=VECTOR('',#1043,10.);
#276=VECTOR('',#1046,4.32);
#277=VECTOR('',#1047,10.);
#278=VECTOR('',#1052,10.);
#279=VECTOR('',#1055,10.);
#280=VECTOR('',#1058,10.);
#281=VECTOR('',#1059,10.);
#282=VECTOR('',#1060,10.);
#283=VECTOR('',#1063,4.32);
#284=VECTOR('',#1064,10.);
#285=VECTOR('',#1065,4.32);
#286=VECTOR('',#1072,10.);
#287=VECTOR('',#1073,10.);
#288=VECTOR('',#1076,4.32);
#289=VECTOR('',#1077,10.);
#290=VECTOR('',#1082,10.);
#291=VECTOR('',#1085,10.);
#292=VECTOR('',#1086,10.);
#293=VECTOR('',#1089,10.);
#294=VECTOR('',#1090,4.32);
#295=VECTOR('',#1091,10.);
#296=VECTOR('',#1092,4.32);
#297=VECTOR('',#1095,4.32);
#298=VECTOR('',#1096,10.);
#299=VECTOR('',#1099,10.);
#300=VECTOR('',#1100,4.32);
#301=VECTOR('',#1103,10.);
#302=VECTOR('',#1106,10.);
#303=VECTOR('',#1111,10.);
#304=VECTOR('',#1112,4.32);
#305=VECTOR('',#1113,10.);
#306=VECTOR('',#1114,4.32);
#307=VECTOR('',#1117,4.32);
#308=VECTOR('',#1118,10.);
#309=VECTOR('',#1121,4.32);
#310=VECTOR('',#1122,10.);
#311=VECTOR('',#1125,10.);
#312=VECTOR('',#1126,4.32);
#313=VECTOR('',#1129,10.);
#314=VECTOR('',#1134,10.);
#315=VECTOR('',#1135,10.);
#316=VECTOR('',#1138,10.);
#317=VECTOR('',#1141,10.);
#318=CIRCLE('',#823,4.2165);
#319=CIRCLE('',#824,2.248);
#320=CIRCLE('',#826,2.248);
#321=CIRCLE('',#828,4.2165);
#322=CIRCLE('',#829,2.248);
#323=CIRCLE('',#831,2.248);
#324=CIRCLE('',#833,4.2165);
#325=CIRCLE('',#834,2.248);
#326=CIRCLE('',#836,2.248);
#327=CIRCLE('',#838,4.2165);
#328=CIRCLE('',#839,2.248);
#329=CIRCLE('',#841,2.248);
#330=CIRCLE('',#843,4.2165);
#331=CIRCLE('',#844,2.248);
#332=CIRCLE('',#846,2.248);
#333=CIRCLE('',#848,4.2165);
#334=CIRCLE('',#849,2.248);
#335=CIRCLE('',#851,2.248);
#336=CIRCLE('',#853,4.2165);
#337=CIRCLE('',#854,2.248);
#338=CIRCLE('',#856,2.248);
#339=CIRCLE('',#858,4.2165);
#340=CIRCLE('',#859,2.248);
#341=CIRCLE('',#861,2.248);
#342=CIRCLE('',#863,4.2165);
#343=CIRCLE('',#864,2.248);
#344=CIRCLE('',#866,2.248);
#345=CIRCLE('',#868,4.2165);
#346=CIRCLE('',#869,2.248);
#347=CIRCLE('',#871,2.248);
#348=CIRCLE('',#873,3.);
#349=CIRCLE('',#874,3.);
#350=CIRCLE('',#877,3.);
#351=CIRCLE('',#879,3.);
#352=CIRCLE('',#880,3.);
#353=CIRCLE('',#883,3.);
#354=CIRCLE('',#885,3.);
#355=CIRCLE('',#888,3.);
#356=VERTEX_POINT('',#1146);
#357=VERTEX_POINT('',#1148);
#358=VERTEX_POINT('',#1152);
#359=VERTEX_POINT('',#1156);
#360=VERTEX_POINT('',#1158);
#361=VERTEX_POINT('',#1162);
#362=VERTEX_POINT('',#1166);
#363=VERTEX_POINT('',#1168);
#364=VERTEX_POINT('',#1172);
#365=VERTEX_POINT('',#1176);
#366=VERTEX_POINT('',#1178);
#367=VERTEX_POINT('',#1182);
#368=VERTEX_POINT('',#1186);
#369=VERTEX_POINT('',#1188);
#370=VERTEX_POINT('',#1192);
#371=VERTEX_POINT('',#1196);
#372=VERTEX_POINT('',#1198);
#373=VERTEX_POINT('',#1202);
#374=VERTEX_POINT('',#1206);
#375=VERTEX_POINT('',#1208);
#376=VERTEX_POINT('',#1212);
#377=VERTEX_POINT('',#1216);
#378=VERTEX_POINT('',#1218);
#379=VERTEX_POINT('',#1222);
#380=VERTEX_POINT('',#1226);
#381=VERTEX_POINT('',#1228);
#382=VERTEX_POINT('',#1232);
#383=VERTEX_POINT('',#1236);
#384=VERTEX_POINT('',#1238);
#385=VERTEX_POINT('',#1242);
#386=VERTEX_POINT('',#1246);
#387=VERTEX_POINT('',#1247);
#388=VERTEX_POINT('',#1249);
#389=VERTEX_POINT('',#1251);
#390=VERTEX_POINT('',#1255);
#391=VERTEX_POINT('',#1257);
#392=VERTEX_POINT('',#1261);
#393=VERTEX_POINT('',#1263);
#394=VERTEX_POINT('',#1265);
#395=VERTEX_POINT('',#1269);
#396=VERTEX_POINT('',#1270);
#397=VERTEX_POINT('',#1272);
#398=VERTEX_POINT('',#1274);
#399=VERTEX_POINT('',#1278);
#400=VERTEX_POINT('',#1280);
#401=VERTEX_POINT('',#1284);
#402=VERTEX_POINT('',#1286);
#403=VERTEX_POINT('',#1288);
#404=VERTEX_POINT('',#1292);
#405=VERTEX_POINT('',#1293);
#406=VERTEX_POINT('',#1298);
#407=VERTEX_POINT('',#1302);
#408=VERTEX_POINT('',#1306);
#409=VERTEX_POINT('',#1311);
#410=VERTEX_POINT('',#1313);
#411=VERTEX_POINT('',#1317);
#412=VERTEX_POINT('',#1321);
#413=VERTEX_POINT('',#1330);
#414=VERTEX_POINT('',#1332);
#415=VERTEX_POINT('',#1334);
#416=VERTEX_POINT('',#1341);
#417=VERTEX_POINT('',#1345);
#418=EDGE_CURVE('',#356,#356,#318,.T.);
#419=EDGE_CURVE('',#356,#357,#182,.T.);
#420=EDGE_CURVE('',#357,#357,#319,.T.);
#421=EDGE_CURVE('',#357,#358,#183,.T.);
#422=EDGE_CURVE('',#358,#358,#320,.T.);
#423=EDGE_CURVE('',#359,#359,#321,.T.);
#424=EDGE_CURVE('',#359,#360,#184,.T.);
#425=EDGE_CURVE('',#360,#360,#322,.T.);
#426=EDGE_CURVE('',#360,#361,#185,.T.);
#427=EDGE_CURVE('',#361,#361,#323,.T.);
#428=EDGE_CURVE('',#362,#362,#324,.T.);
#429=EDGE_CURVE('',#362,#363,#186,.T.);
#430=EDGE_CURVE('',#363,#363,#325,.T.);
#431=EDGE_CURVE('',#363,#364,#187,.T.);
#432=EDGE_CURVE('',#364,#364,#326,.T.);
#433=EDGE_CURVE('',#365,#365,#327,.T.);
#434=EDGE_CURVE('',#365,#366,#188,.T.);
#435=EDGE_CURVE('',#366,#366,#328,.T.);
#436=EDGE_CURVE('',#366,#367,#189,.T.);
#437=EDGE_CURVE('',#367,#367,#329,.T.);
#438=EDGE_CURVE('',#368,#368,#330,.T.);
#439=EDGE_CURVE('',#368,#369,#190,.T.);
#440=EDGE_CURVE('',#369,#369,#331,.T.);
#441=EDGE_CURVE('',#369,#370,#191,.T.);
#442=EDGE_CURVE('',#370,#370,#332,.T.);
#443=EDGE_CURVE('',#371,#371,#333,.T.);
#444=EDGE_CURVE('',#371,#372,#192,.T.);
#445=EDGE_CURVE('',#372,#372,#334,.T.);
#446=EDGE_CURVE('',#372,#373,#193,.T.);
#447=EDGE_CURVE('',#373,#373,#335,.T.);
#448=EDGE_CURVE('',#374,#374,#336,.T.);
#449=EDGE_CURVE('',#374,#375,#194,.T.);
#450=EDGE_CURVE('',#375,#375,#337,.T.);
#451=EDGE_CURVE('',#375,#376,#195,.T.);
#452=EDGE_CURVE('',#376,#376,#338,.T.);
#453=EDGE_CURVE('',#377,#377,#339,.T.);
#454=EDGE_CURVE('',#377,#378,#196,.T.);
#455=EDGE_CURVE('',#378,#378,#340,.T.);
#456=EDGE_CURVE('',#378,#379,#197,.T.);
#457=EDGE_CURVE('',#379,#379,#341,.T.);
#458=EDGE_CURVE('',#380,#380,#342,.T.);
#459=EDGE_CURVE('',#380,#381,#198,.T.);
#460=EDGE_CURVE('',#381,#381,#343,.T.);
#461=EDGE_CURVE('',#381,#382,#199,.T.);
#462=EDGE_CURVE('',#382,#382,#344,.T.);
#463=EDGE_CURVE('',#383,#383,#345,.T.);
#464=EDGE_CURVE('',#383,#384,#200,.T.);
#465=EDGE_CURVE('',#384,#384,#346,.T.);
#466=EDGE_CURVE('',#384,#385,#201,.T.);
#467=EDGE_CURVE('',#385,#385,#347,.T.);
#468=EDGE_CURVE('',#386,#387,#348,.T.);
#469=EDGE_CURVE('',#387,#388,#202,.T.);
#470=EDGE_CURVE('',#388,#389,#349,.T.);
#471=EDGE_CURVE('',#389,#386,#203,.T.);
#472=EDGE_CURVE('',#389,#390,#204,.T.);
#473=EDGE_CURVE('',#390,#391,#205,.T.);
#474=EDGE_CURVE('',#386,#391,#206,.T.);
#475=EDGE_CURVE('',#388,#392,#207,.T.);
#476=EDGE_CURVE('',#393,#392,#350,.T.);
#477=EDGE_CURVE('',#393,#394,#208,.T.);
#478=EDGE_CURVE('',#394,#390,#209,.T.);
#479=EDGE_CURVE('',#395,#396,#351,.T.);
#480=EDGE_CURVE('',#396,#397,#210,.T.);
#481=EDGE_CURVE('',#397,#398,#352,.T.);
#482=EDGE_CURVE('',#398,#395,#211,.T.);
#483=EDGE_CURVE('',#399,#398,#212,.T.);
#484=EDGE_CURVE('',#400,#399,#213,.T.);
#485=EDGE_CURVE('',#395,#400,#214,.T.);
#486=EDGE_CURVE('',#397,#401,#215,.T.);
#487=EDGE_CURVE('',#401,#402,#216,.T.);
#488=EDGE_CURVE('',#403,#402,#217,.T.);
#489=EDGE_CURVE('',#399,#403,#353,.T.);
#490=EDGE_CURVE('',#404,#405,#354,.T.);
#491=EDGE_CURVE('',#405,#393,#218,.T.);
#492=EDGE_CURVE('',#392,#404,#219,.T.);
#493=EDGE_CURVE('',#406,#405,#220,.T.);
#494=EDGE_CURVE('',#406,#394,#221,.T.);
#495=EDGE_CURVE('',#407,#400,#355,.T.);
#496=EDGE_CURVE('',#403,#407,#222,.T.);
#497=EDGE_CURVE('',#402,#408,#223,.T.);
#498=EDGE_CURVE('',#407,#408,#224,.T.);
#499=EDGE_CURVE('',#391,#406,#225,.T.);
#500=EDGE_CURVE('',#391,#409,#226,.T.);
#501=EDGE_CURVE('',#410,#409,#227,.T.);
#502=EDGE_CURVE('',#410,#406,#228,.T.);
#503=EDGE_CURVE('',#390,#411,#229,.T.);
#504=EDGE_CURVE('',#409,#411,#230,.T.);
#505=EDGE_CURVE('',#412,#410,#231,.T.);
#506=EDGE_CURVE('',#394,#412,#232,.T.);
#507=EDGE_CURVE('',#404,#387,#233,.T.);
#508=EDGE_CURVE('',#411,#412,#234,.T.);
#509=EDGE_CURVE('',#408,#413,#235,.T.);
#510=EDGE_CURVE('',#408,#414,#236,.T.);
#511=EDGE_CURVE('',#415,#414,#237,.T.);
#512=EDGE_CURVE('',#415,#413,#238,.T.);
#513=EDGE_CURVE('',#413,#396,#239,.T.);
#514=EDGE_CURVE('',#413,#401,#240,.T.);
#515=EDGE_CURVE('',#402,#416,#241,.T.);
#516=EDGE_CURVE('',#414,#416,#242,.T.);
#517=EDGE_CURVE('',#417,#415,#243,.T.);
#518=EDGE_CURVE('',#401,#417,#244,.T.);
#519=EDGE_CURVE('',#416,#417,#245,.T.);
#520=EDGE_CURVE('',#410,#414,#246,.T.);
#521=EDGE_CURVE('',#412,#416,#247,.T.);
#522=EDGE_CURVE('',#415,#409,#248,.T.);
#523=EDGE_CURVE('',#417,#411,#249,.T.);
#524=ORIENTED_EDGE('',*,*,#418,.F.);
#525=ORIENTED_EDGE('',*,*,#419,.T.);
#526=ORIENTED_EDGE('',*,*,#420,.T.);
#527=ORIENTED_EDGE('',*,*,#419,.F.);
#528=ORIENTED_EDGE('',*,*,#420,.F.);
#529=ORIENTED_EDGE('',*,*,#421,.T.);
#530=ORIENTED_EDGE('',*,*,#422,.F.);
#531=ORIENTED_EDGE('',*,*,#421,.F.);
#532=ORIENTED_EDGE('',*,*,#423,.F.);
#533=ORIENTED_EDGE('',*,*,#424,.T.);
#534=ORIENTED_EDGE('',*,*,#425,.T.);
#535=ORIENTED_EDGE('',*,*,#424,.F.);
#536=ORIENTED_EDGE('',*,*,#425,.F.);
#537=ORIENTED_EDGE('',*,*,#426,.T.);
#538=ORIENTED_EDGE('',*,*,#427,.F.);
#539=ORIENTED_EDGE('',*,*,#426,.F.);
#540=ORIENTED_EDGE('',*,*,#428,.F.);
#541=ORIENTED_EDGE('',*,*,#429,.T.);
#542=ORIENTED_EDGE('',*,*,#430,.T.);
#543=ORIENTED_EDGE('',*,*,#429,.F.);
#544=ORIENTED_EDGE('',*,*,#430,.F.);
#545=ORIENTED_EDGE('',*,*,#431,.T.);
#546=ORIENTED_EDGE('',*,*,#432,.F.);
#547=ORIENTED_EDGE('',*,*,#431,.F.);
#548=ORIENTED_EDGE('',*,*,#433,.F.);
#549=ORIENTED_EDGE('',*,*,#434,.T.);
#550=ORIENTED_EDGE('',*,*,#435,.T.);
#551=ORIENTED_EDGE('',*,*,#434,.F.);
#552=ORIENTED_EDGE('',*,*,#435,.F.);
#553=ORIENTED_EDGE('',*,*,#436,.T.);
#554=ORIENTED_EDGE('',*,*,#437,.F.);
#555=ORIENTED_EDGE('',*,*,#436,.F.);
#556=ORIENTED_EDGE('',*,*,#438,.F.);
#557=ORIENTED_EDGE('',*,*,#439,.T.);
#558=ORIENTED_EDGE('',*,*,#440,.T.);
#559=ORIENTED_EDGE('',*,*,#439,.F.);
#560=ORIENTED_EDGE('',*,*,#440,.F.);
#561=ORIENTED_EDGE('',*,*,#441,.T.);
#562=ORIENTED_EDGE('',*,*,#442,.F.);
#563=ORIENTED_EDGE('',*,*,#441,.F.);
#564=ORIENTED_EDGE('',*,*,#443,.F.);
#565=ORIENTED_EDGE('',*,*,#444,.T.);
#566=ORIENTED_EDGE('',*,*,#445,.T.);
#567=ORIENTED_EDGE('',*,*,#444,.F.);
#568=ORIENTED_EDGE('',*,*,#445,.F.);
#569=ORIENTED_EDGE('',*,*,#446,.T.);
#570=ORIENTED_EDGE('',*,*,#447,.F.);
#571=ORIENTED_EDGE('',*,*,#446,.F.);
#572=ORIENTED_EDGE('',*,*,#448,.F.);
#573=ORIENTED_EDGE('',*,*,#449,.T.);
#574=ORIENTED_EDGE('',*,*,#450,.T.);
#575=ORIENTED_EDGE('',*,*,#449,.F.);
#576=ORIENTED_EDGE('',*,*,#450,.F.);
#577=ORIENTED_EDGE('',*,*,#451,.T.);
#578=ORIENTED_EDGE('',*,*,#452,.F.);
#579=ORIENTED_EDGE('',*,*,#451,.F.);
#580=ORIENTED_EDGE('',*,*,#453,.F.);
#581=ORIENTED_EDGE('',*,*,#454,.T.);
#582=ORIENTED_EDGE('',*,*,#455,.T.);
#583=ORIENTED_EDGE('',*,*,#454,.F.);
#584=ORIENTED_EDGE('',*,*,#455,.F.);
#585=ORIENTED_EDGE('',*,*,#456,.T.);
#586=ORIENTED_EDGE('',*,*,#457,.F.);
#587=ORIENTED_EDGE('',*,*,#456,.F.);
#588=ORIENTED_EDGE('',*,*,#458,.F.);
#589=ORIENTED_EDGE('',*,*,#459,.T.);
#590=ORIENTED_EDGE('',*,*,#460,.T.);
#591=ORIENTED_EDGE('',*,*,#459,.F.);
#592=ORIENTED_EDGE('',*,*,#460,.F.);
#593=ORIENTED_EDGE('',*,*,#461,.T.);
#594=ORIENTED_EDGE('',*,*,#462,.F.);
#595=ORIENTED_EDGE('',*,*,#461,.F.);
#596=ORIENTED_EDGE('',*,*,#463,.F.);
#597=ORIENTED_EDGE('',*,*,#464,.T.);
#598=ORIENTED_EDGE('',*,*,#465,.T.);
#599=ORIENTED_EDGE('',*,*,#464,.F.);
#600=ORIENTED_EDGE('',*,*,#465,.F.);
#601=ORIENTED_EDGE('',*,*,#466,.T.);
#602=ORIENTED_EDGE('',*,*,#467,.F.);
#603=ORIENTED_EDGE('',*,*,#466,.F.);
#604=ORIENTED_EDGE('',*,*,#468,.T.);
#605=ORIENTED_EDGE('',*,*,#469,.T.);
#606=ORIENTED_EDGE('',*,*,#470,.T.);
#607=ORIENTED_EDGE('',*,*,#471,.T.);
#608=ORIENTED_EDGE('',*,*,#471,.F.);
#609=ORIENTED_EDGE('',*,*,#472,.T.);
#610=ORIENTED_EDGE('',*,*,#473,.T.);
#611=ORIENTED_EDGE('',*,*,#474,.F.);
#612=ORIENTED_EDGE('',*,*,#470,.F.);
#613=ORIENTED_EDGE('',*,*,#475,.T.);
#614=ORIENTED_EDGE('',*,*,#476,.F.);
#615=ORIENTED_EDGE('',*,*,#477,.T.);
#616=ORIENTED_EDGE('',*,*,#478,.T.);
#617=ORIENTED_EDGE('',*,*,#472,.F.);
#618=ORIENTED_EDGE('',*,*,#427,.T.);
#619=ORIENTED_EDGE('',*,*,#447,.T.);
#620=ORIENTED_EDGE('',*,*,#457,.T.);
#621=ORIENTED_EDGE('',*,*,#479,.T.);
#622=ORIENTED_EDGE('',*,*,#480,.T.);
#623=ORIENTED_EDGE('',*,*,#481,.T.);
#624=ORIENTED_EDGE('',*,*,#482,.T.);
#625=ORIENTED_EDGE('',*,*,#482,.F.);
#626=ORIENTED_EDGE('',*,*,#483,.F.);
#627=ORIENTED_EDGE('',*,*,#484,.F.);
#628=ORIENTED_EDGE('',*,*,#485,.F.);
#629=ORIENTED_EDGE('',*,*,#481,.F.);
#630=ORIENTED_EDGE('',*,*,#486,.T.);
#631=ORIENTED_EDGE('',*,*,#487,.T.);
#632=ORIENTED_EDGE('',*,*,#488,.F.);
#633=ORIENTED_EDGE('',*,*,#489,.F.);
#634=ORIENTED_EDGE('',*,*,#483,.T.);
#635=ORIENTED_EDGE('',*,*,#432,.T.);
#636=ORIENTED_EDGE('',*,*,#452,.T.);
#637=ORIENTED_EDGE('',*,*,#462,.T.);
#638=ORIENTED_EDGE('',*,*,#490,.T.);
#639=ORIENTED_EDGE('',*,*,#491,.T.);
#640=ORIENTED_EDGE('',*,*,#476,.T.);
#641=ORIENTED_EDGE('',*,*,#492,.T.);
#642=ORIENTED_EDGE('',*,*,#491,.F.);
#643=ORIENTED_EDGE('',*,*,#493,.F.);
#644=ORIENTED_EDGE('',*,*,#494,.T.);
#645=ORIENTED_EDGE('',*,*,#477,.F.);
#646=ORIENTED_EDGE('',*,*,#495,.T.);
#647=ORIENTED_EDGE('',*,*,#484,.T.);
#648=ORIENTED_EDGE('',*,*,#489,.T.);
#649=ORIENTED_EDGE('',*,*,#496,.T.);
#650=ORIENTED_EDGE('',*,*,#496,.F.);
#651=ORIENTED_EDGE('',*,*,#488,.T.);
#652=ORIENTED_EDGE('',*,*,#497,.T.);
#653=ORIENTED_EDGE('',*,*,#498,.F.);
#654=ORIENTED_EDGE('',*,*,#499,.F.);
#655=ORIENTED_EDGE('',*,*,#500,.T.);
#656=ORIENTED_EDGE('',*,*,#501,.F.);
#657=ORIENTED_EDGE('',*,*,#502,.T.);
#658=ORIENTED_EDGE('',*,*,#473,.F.);
#659=ORIENTED_EDGE('',*,*,#503,.T.);
#660=ORIENTED_EDGE('',*,*,#504,.F.);
#661=ORIENTED_EDGE('',*,*,#500,.F.);
#662=ORIENTED_EDGE('',*,*,#494,.F.);
#663=ORIENTED_EDGE('',*,*,#502,.F.);
#664=ORIENTED_EDGE('',*,*,#505,.F.);
#665=ORIENTED_EDGE('',*,*,#506,.F.);
#666=ORIENTED_EDGE('',*,*,#469,.F.);
#667=ORIENTED_EDGE('',*,*,#507,.F.);
#668=ORIENTED_EDGE('',*,*,#492,.F.);
#669=ORIENTED_EDGE('',*,*,#475,.F.);
#670=ORIENTED_EDGE('',*,*,#478,.F.);
#671=ORIENTED_EDGE('',*,*,#506,.T.);
#672=ORIENTED_EDGE('',*,*,#508,.F.);
#673=ORIENTED_EDGE('',*,*,#503,.F.);
#674=ORIENTED_EDGE('',*,*,#468,.F.);
#675=ORIENTED_EDGE('',*,*,#474,.T.);
#676=ORIENTED_EDGE('',*,*,#499,.T.);
#677=ORIENTED_EDGE('',*,*,#493,.T.);
#678=ORIENTED_EDGE('',*,*,#490,.F.);
#679=ORIENTED_EDGE('',*,*,#507,.T.);
#680=ORIENTED_EDGE('',*,*,#423,.T.);
#681=ORIENTED_EDGE('',*,*,#443,.T.);
#682=ORIENTED_EDGE('',*,*,#453,.T.);
#683=ORIENTED_EDGE('',*,*,#509,.F.);
#684=ORIENTED_EDGE('',*,*,#510,.T.);
#685=ORIENTED_EDGE('',*,*,#511,.F.);
#686=ORIENTED_EDGE('',*,*,#512,.T.);
#687=ORIENTED_EDGE('',*,*,#480,.F.);
#688=ORIENTED_EDGE('',*,*,#513,.F.);
#689=ORIENTED_EDGE('',*,*,#514,.T.);
#690=ORIENTED_EDGE('',*,*,#486,.F.);
#691=ORIENTED_EDGE('',*,*,#497,.F.);
#692=ORIENTED_EDGE('',*,*,#515,.T.);
#693=ORIENTED_EDGE('',*,*,#516,.F.);
#694=ORIENTED_EDGE('',*,*,#510,.F.);
#695=ORIENTED_EDGE('',*,*,#514,.F.);
#696=ORIENTED_EDGE('',*,*,#512,.F.);
#697=ORIENTED_EDGE('',*,*,#517,.F.);
#698=ORIENTED_EDGE('',*,*,#518,.F.);
#699=ORIENTED_EDGE('',*,*,#487,.F.);
#700=ORIENTED_EDGE('',*,*,#518,.T.);
#701=ORIENTED_EDGE('',*,*,#519,.F.);
#702=ORIENTED_EDGE('',*,*,#515,.F.);
#703=ORIENTED_EDGE('',*,*,#479,.F.);
#704=ORIENTED_EDGE('',*,*,#485,.T.);
#705=ORIENTED_EDGE('',*,*,#495,.F.);
#706=ORIENTED_EDGE('',*,*,#498,.T.);
#707=ORIENTED_EDGE('',*,*,#509,.T.);
#708=ORIENTED_EDGE('',*,*,#513,.T.);
#709=ORIENTED_EDGE('',*,*,#428,.T.);
#710=ORIENTED_EDGE('',*,*,#448,.T.);
#711=ORIENTED_EDGE('',*,*,#458,.T.);
#712=ORIENTED_EDGE('',*,*,#505,.T.);
#713=ORIENTED_EDGE('',*,*,#520,.T.);
#714=ORIENTED_EDGE('',*,*,#516,.T.);
#715=ORIENTED_EDGE('',*,*,#521,.F.);
#716=ORIENTED_EDGE('',*,*,#501,.T.);
#717=ORIENTED_EDGE('',*,*,#522,.F.);
#718=ORIENTED_EDGE('',*,*,#511,.T.);
#719=ORIENTED_EDGE('',*,*,#520,.F.);
#720=ORIENTED_EDGE('',*,*,#418,.T.);
#721=ORIENTED_EDGE('',*,*,#433,.T.);
#722=ORIENTED_EDGE('',*,*,#438,.T.);
#723=ORIENTED_EDGE('',*,*,#463,.T.);
#724=ORIENTED_EDGE('',*,*,#504,.T.);
#725=ORIENTED_EDGE('',*,*,#523,.F.);
#726=ORIENTED_EDGE('',*,*,#517,.T.);
#727=ORIENTED_EDGE('',*,*,#522,.T.);
#728=ORIENTED_EDGE('',*,*,#508,.T.);
#729=ORIENTED_EDGE('',*,*,#521,.T.);
#730=ORIENTED_EDGE('',*,*,#519,.T.);
#731=ORIENTED_EDGE('',*,*,#523,.T.);
#732=ORIENTED_EDGE('',*,*,#422,.T.);
#733=ORIENTED_EDGE('',*,*,#437,.T.);
#734=ORIENTED_EDGE('',*,*,#442,.T.);
#735=ORIENTED_EDGE('',*,*,#467,.T.);
#736=CONICAL_SURFACE('',#822,3.23225,0.715584993317675);
#737=CONICAL_SURFACE('',#827,3.23225,0.715584993317675);
#738=CONICAL_SURFACE('',#832,3.23225,0.715584993317675);
#739=CONICAL_SURFACE('',#837,3.23225,0.715584993317675);
#740=CONICAL_SURFACE('',#842,3.23225,0.715584993317675);
#741=CONICAL_SURFACE('',#847,3.23225,0.715584993317675);
#742=CONICAL_SURFACE('',#852,3.23225,0.715584993317675);
#743=CONICAL_SURFACE('',#857,3.23225,0.715584993317675);
#744=CONICAL_SURFACE('',#862,3.23225,0.715584993317675);
#745=CONICAL_SURFACE('',#867,3.23225,0.715584993317675);
#746=STYLED_ITEM('',(#1380),#762);
#747=STYLED_ITEM('',(#1380),#764);
#748=STYLED_ITEM('',(#1380),#766);
#749=STYLED_ITEM('',(#1380),#768);
#750=STYLED_ITEM('',(#1380),#770);
#751=STYLED_ITEM('',(#1380),#772);
#752=STYLED_ITEM('',(#1380),#774);
#753=STYLED_ITEM('',(#1380),#776);
#754=STYLED_ITEM('',(#1380),#778);
#755=STYLED_ITEM('',(#1380),#780);
#756=STYLED_ITEM('',(#1380),#792);
#757=STYLED_ITEM('',(#1380),#797);
#758=STYLED_ITEM('',(#1380),#798);
#759=STYLED_ITEM('',(#1380),#803);
#760=STYLED_ITEM('',(#1380),#805);
#761=STYLED_ITEM('',(#1379),#13);
#762=ADVANCED_FACE('',(#70),#736,.F.);
#763=ADVANCED_FACE('',(#71),#56,.F.);
#764=ADVANCED_FACE('',(#72),#737,.F.);
#765=ADVANCED_FACE('',(#73),#57,.F.);
#766=ADVANCED_FACE('',(#74),#738,.F.);
#767=ADVANCED_FACE('',(#75),#58,.F.);
#768=ADVANCED_FACE('',(#76),#739,.F.);
#769=ADVANCED_FACE('',(#77),#59,.F.);
#770=ADVANCED_FACE('',(#78),#740,.F.);
#771=ADVANCED_FACE('',(#79),#60,.F.);
#772=ADVANCED_FACE('',(#80),#741,.F.);
#773=ADVANCED_FACE('',(#81),#61,.F.);
#774=ADVANCED_FACE('',(#82),#742,.F.);
#775=ADVANCED_FACE('',(#83),#62,.F.);
#776=ADVANCED_FACE('',(#84),#743,.F.);
#777=ADVANCED_FACE('',(#85),#63,.F.);
#778=ADVANCED_FACE('',(#86),#744,.F.);
#779=ADVANCED_FACE('',(#87),#64,.F.);
#780=ADVANCED_FACE('',(#88),#745,.F.);
#781=ADVANCED_FACE('',(#89),#65,.F.);
#782=ADVANCED_FACE('',(#90),#66,.T.);
#783=ADVANCED_FACE('',(#91),#34,.T.);
#784=ADVANCED_FACE('',(#92,#14,#15,#16),#35,.T.);
#785=ADVANCED_FACE('',(#93),#67,.T.);
#786=ADVANCED_FACE('',(#94),#36,.T.);
#787=ADVANCED_FACE('',(#95,#17,#18,#19),#37,.T.);
#788=ADVANCED_FACE('',(#96),#68,.T.);
#789=ADVANCED_FACE('',(#97),#38,.T.);
#790=ADVANCED_FACE('',(#98),#69,.T.);
#791=ADVANCED_FACE('',(#99),#39,.T.);
#792=ADVANCED_FACE('',(#100),#40,.T.);
#793=ADVANCED_FACE('',(#101),#41,.T.);
#794=ADVANCED_FACE('',(#102),#42,.T.);
#795=ADVANCED_FACE('',(#103),#43,.T.);
#796=ADVANCED_FACE('',(#104),#44,.T.);
#797=ADVANCED_FACE('',(#105,#20,#21,#22),#45,.T.);
#798=ADVANCED_FACE('',(#106),#46,.T.);
#799=ADVANCED_FACE('',(#107),#47,.T.);
#800=ADVANCED_FACE('',(#108),#48,.T.);
#801=ADVANCED_FACE('',(#109),#49,.T.);
#802=ADVANCED_FACE('',(#110),#50,.T.);
#803=ADVANCED_FACE('',(#111,#23,#24,#25),#51,.T.);
#804=ADVANCED_FACE('',(#112),#52,.T.);
#805=ADVANCED_FACE('',(#113,#26,#27,#28,#29),#53,.T.);
#806=ADVANCED_FACE('',(#114),#54,.T.);
#807=ADVANCED_FACE('',(#115,#30,#31,#32,#33),#55,.T.);
#808=CLOSED_SHELL('',(#762,#763,#764,#765,#766,#767,#768,#769,#770,#771,
#772,#773,#774,#775,#776,#777,#778,#779,#780,#781,#782,#783,#784,#785,#786,
#787,#788,#789,#790,#791,#792,#793,#794,#795,#796,#797,#798,#799,#800,#801,
#802,#803,#804,#805,#806,#807));
#809=DERIVED_UNIT_ELEMENT(#811,1.);
#810=DERIVED_UNIT_ELEMENT(#1364,3.);
#811=(
MASS_UNIT()
NAMED_UNIT(*)
SI_UNIT(.KILO.,.GRAM.)
);
#812=DERIVED_UNIT((#809,#810));
#813=MEASURE_REPRESENTATION_ITEM('density measure',
POSITIVE_RATIO_MEASURE(7850.),#812);
#814=PROPERTY_DEFINITION_REPRESENTATION(#819,#816);
#815=PROPERTY_DEFINITION_REPRESENTATION(#820,#817);
#816=REPRESENTATION('material name',(#818),#1361);
#817=REPRESENTATION('density',(#813),#1361);
#818=DESCRIPTIVE_REPRESENTATION_ITEM('Steel','Steel');
#819=PROPERTY_DEFINITION('material property','material name',#1371);
#820=PROPERTY_DEFINITION('material property','density of part',#1371);
#821=AXIS2_PLACEMENT_3D('placement',#1144,#906,#907);
#822=AXIS2_PLACEMENT_3D('',#1145,#908,#909);
#823=AXIS2_PLACEMENT_3D('',#1147,#910,#911);
#824=AXIS2_PLACEMENT_3D('',#1150,#913,#914);
#825=AXIS2_PLACEMENT_3D('',#1151,#915,#916);
#826=AXIS2_PLACEMENT_3D('',#1154,#918,#919);
#827=AXIS2_PLACEMENT_3D('',#1155,#920,#921);
#828=AXIS2_PLACEMENT_3D('',#1157,#922,#923);
#829=AXIS2_PLACEMENT_3D('',#1160,#925,#926);
#830=AXIS2_PLACEMENT_3D('',#1161,#927,#928);
#831=AXIS2_PLACEMENT_3D('',#1164,#930,#931);
#832=AXIS2_PLACEMENT_3D('',#1165,#932,#933);
#833=AXIS2_PLACEMENT_3D('',#1167,#934,#935);
#834=AXIS2_PLACEMENT_3D('',#1170,#937,#938);
#835=AXIS2_PLACEMENT_3D('',#1171,#939,#940);
#836=AXIS2_PLACEMENT_3D('',#1174,#942,#943);
#837=AXIS2_PLACEMENT_3D('',#1175,#944,#945);
#838=AXIS2_PLACEMENT_3D('',#1177,#946,#947);
#839=AXIS2_PLACEMENT_3D('',#1180,#949,#950);
#840=AXIS2_PLACEMENT_3D('',#1181,#951,#952);
#841=AXIS2_PLACEMENT_3D('',#1184,#954,#955);
#842=AXIS2_PLACEMENT_3D('',#1185,#956,#957);
#843=AXIS2_PLACEMENT_3D('',#1187,#958,#959);
#844=AXIS2_PLACEMENT_3D('',#1190,#961,#962);
#845=AXIS2_PLACEMENT_3D('',#1191,#963,#964);
#846=AXIS2_PLACEMENT_3D('',#1194,#966,#967);
#847=AXIS2_PLACEMENT_3D('',#1195,#968,#969);
#848=AXIS2_PLACEMENT_3D('',#1197,#970,#971);
#849=AXIS2_PLACEMENT_3D('',#1200,#973,#974);
#850=AXIS2_PLACEMENT_3D('',#1201,#975,#976);
#851=AXIS2_PLACEMENT_3D('',#1204,#978,#979);
#852=AXIS2_PLACEMENT_3D('',#1205,#980,#981);
#853=AXIS2_PLACEMENT_3D('',#1207,#982,#983);
#854=AXIS2_PLACEMENT_3D('',#1210,#985,#986);
#855=AXIS2_PLACEMENT_3D('',#1211,#987,#988);
#856=AXIS2_PLACEMENT_3D('',#1214,#990,#991);
#857=AXIS2_PLACEMENT_3D('',#1215,#992,#993);
#858=AXIS2_PLACEMENT_3D('',#1217,#994,#995);
#859=AXIS2_PLACEMENT_3D('',#1220,#997,#998);
#860=AXIS2_PLACEMENT_3D('',#1221,#999,#1000);
#861=AXIS2_PLACEMENT_3D('',#1224,#1002,#1003);
#862=AXIS2_PLACEMENT_3D('',#1225,#1004,#1005);
#863=AXIS2_PLACEMENT_3D('',#1227,#1006,#1007);
#864=AXIS2_PLACEMENT_3D('',#1230,#1009,#1010);
#865=AXIS2_PLACEMENT_3D('',#1231,#1011,#1012);
#866=AXIS2_PLACEMENT_3D('',#1234,#1014,#1015);
#867=AXIS2_PLACEMENT_3D('',#1235,#1016,#1017);
#868=AXIS2_PLACEMENT_3D('',#1237,#1018,#1019);
#869=AXIS2_PLACEMENT_3D('',#1240,#1021,#1022);
#870=AXIS2_PLACEMENT_3D('',#1241,#1023,#1024);
#871=AXIS2_PLACEMENT_3D('',#1244,#1026,#1027);
#872=AXIS2_PLACEMENT_3D('',#1245,#1028,#1029);
#873=AXIS2_PLACEMENT_3D('',#1248,#1030,#1031);
#874=AXIS2_PLACEMENT_3D('',#1252,#1033,#1034);
#875=AXIS2_PLACEMENT_3D('',#1254,#1036,#1037);
#876=AXIS2_PLACEMENT_3D('',#1260,#1041,#1042);
#877=AXIS2_PLACEMENT_3D('',#1264,#1044,#1045);
#878=AXIS2_PLACEMENT_3D('',#1268,#1048,#1049);
#879=AXIS2_PLACEMENT_3D('',#1271,#1050,#1051);
#880=AXIS2_PLACEMENT_3D('',#1275,#1053,#1054);
#881=AXIS2_PLACEMENT_3D('',#1277,#1056,#1057);
#882=AXIS2_PLACEMENT_3D('',#1283,#1061,#1062);
#883=AXIS2_PLACEMENT_3D('',#1290,#1066,#1067);
#884=AXIS2_PLACEMENT_3D('',#1291,#1068,#1069);
#885=AXIS2_PLACEMENT_3D('',#1294,#1070,#1071);
#886=AXIS2_PLACEMENT_3D('',#1297,#1074,#1075);
#887=AXIS2_PLACEMENT_3D('',#1301,#1078,#1079);
#888=AXIS2_PLACEMENT_3D('',#1303,#1080,#1081);
#889=AXIS2_PLACEMENT_3D('',#1305,#1083,#1084);
#890=AXIS2_PLACEMENT_3D('',#1309,#1087,#1088);
#891=AXIS2_PLACEMENT_3D('',#1316,#1093,#1094);
#892=AXIS2_PLACEMENT_3D('',#1320,#1097,#1098);
#893=AXIS2_PLACEMENT_3D('',#1324,#1101,#1102);
#894=AXIS2_PLACEMENT_3D('',#1326,#1104,#1105);
#895=AXIS2_PLACEMENT_3D('',#1328,#1107,#1108);
#896=AXIS2_PLACEMENT_3D('',#1329,#1109,#1110);
#897=AXIS2_PLACEMENT_3D('',#1337,#1115,#1116);
#898=AXIS2_PLACEMENT_3D('',#1340,#1119,#1120);
#899=AXIS2_PLACEMENT_3D('',#1344,#1123,#1124);
#900=AXIS2_PLACEMENT_3D('',#1348,#1127,#1128);
#901=AXIS2_PLACEMENT_3D('',#1350,#1130,#1131);
#902=AXIS2_PLACEMENT_3D('',#1351,#1132,#1133);
#903=AXIS2_PLACEMENT_3D('',#1354,#1136,#1137);
#904=AXIS2_PLACEMENT_3D('',#1356,#1139,#1140);
#905=AXIS2_PLACEMENT_3D('',#1358,#1142,#1143);
#906=DIRECTION('axis',(0.,0.,1.));
#907=DIRECTION('refdir',(1.,0.,0.));
#908=DIRECTION('center_axis',(0.,1.,0.));
#909=DIRECTION('ref_axis',(0.,0.,1.));
#910=DIRECTION('center_axis',(0.,-1.,0.));
#911=DIRECTION('ref_axis',(0.,0.,1.));
#912=DIRECTION('',(-8.03440589904945E-17,-0.754709580222772,0.656059028990507));
#913=DIRECTION('center_axis',(0.,-1.,0.));
#914=DIRECTION('ref_axis',(0.,0.,1.));
#915=DIRECTION('center_axis',(0.,-1.,0.));
#916=DIRECTION('ref_axis',(0.,0.,1.));
#917=DIRECTION('',(0.,-1.,0.));
#918=DIRECTION('center_axis',(0.,1.,0.));
#919=DIRECTION('ref_axis',(0.,0.,1.));
#920=DIRECTION('center_axis',(1.9152720072439E-16,1.,0.));
#921=DIRECTION('ref_axis',(0.,0.,1.));
#922=DIRECTION('center_axis',(-1.9152720072439E-16,-1.,0.));
#923=DIRECTION('ref_axis',(0.,0.,1.));
#924=DIRECTION('',(-2.24891472250441E-16,-0.754709580222772,0.656059028990507));
#925=DIRECTION('center_axis',(-1.9152720072439E-16,-1.,0.));
#926=DIRECTION('ref_axis',(0.,0.,1.));
#927=DIRECTION('center_axis',(-1.9152720072439E-16,-1.,0.));
#928=DIRECTION('ref_axis',(0.,0.,1.));
#929=DIRECTION('',(-1.9152720072439E-16,-1.,0.));
#930=DIRECTION('center_axis',(1.9152720072439E-16,1.,0.));
#931=DIRECTION('ref_axis',(0.,0.,1.));
#932=DIRECTION('center_axis',(6.53247438177632E-16,1.,0.));
#933=DIRECTION('ref_axis',(0.,0.,1.));
#934=DIRECTION('center_axis',(-6.53247438177632E-16,-1.,0.));
#935=DIRECTION('ref_axis',(0.,0.,1.));
#936=DIRECTION('',(-5.73356158839136E-16,-0.754709580222772,0.656059028990507));
#937=DIRECTION('center_axis',(-6.53247438177632E-16,-1.,0.));
#938=DIRECTION('ref_axis',(0.,0.,1.));
#939=DIRECTION('center_axis',(-6.53247438177632E-16,-1.,0.));
#940=DIRECTION('ref_axis',(0.,0.,1.));
#941=DIRECTION('',(-6.53247438177632E-16,-1.,0.));
#942=DIRECTION('center_axis',(6.53247438177632E-16,1.,0.));
#943=DIRECTION('ref_axis',(0.,0.,1.));
#944=DIRECTION('center_axis',(0.,1.,0.));
#945=DIRECTION('ref_axis',(0.,0.,1.));
#946=DIRECTION('center_axis',(0.,-1.,0.));
#947=DIRECTION('ref_axis',(0.,0.,1.));
#948=DIRECTION('',(-8.03440589904945E-17,-0.754709580222772,0.656059028990507));
#949=DIRECTION('center_axis',(0.,-1.,0.));
#950=DIRECTION('ref_axis',(0.,0.,1.));
#951=DIRECTION('center_axis',(0.,-1.,0.));
#952=DIRECTION('ref_axis',(0.,0.,1.));
#953=DIRECTION('',(0.,-1.,0.));
#954=DIRECTION('center_axis',(0.,1.,0.));
#955=DIRECTION('ref_axis',(0.,0.,1.));
#956=DIRECTION('center_axis',(0.,1.,0.));
#957=DIRECTION('ref_axis',(0.,0.,1.));
#958=DIRECTION('center_axis',(0.,-1.,0.));
#959=DIRECTION('ref_axis',(0.,0.,1.));
#960=DIRECTION('',(-8.03440589904945E-17,-0.754709580222772,0.656059028990507));
#961=DIRECTION('center_axis',(0.,-1.,0.));
#962=DIRECTION('ref_axis',(0.,0.,1.));
#963=DIRECTION('center_axis',(0.,-1.,0.));
#964=DIRECTION('ref_axis',(0.,0.,1.));
#965=DIRECTION('',(0.,-1.,0.));
#966=DIRECTION('center_axis',(0.,1.,0.));
#967=DIRECTION('ref_axis',(0.,0.,1.));
#968=DIRECTION('center_axis',(1.9152720072439E-16,1.,0.));
#969=DIRECTION('ref_axis',(0.,0.,1.));
#970=DIRECTION('center_axis',(-1.9152720072439E-16,-1.,0.));
#971=DIRECTION('ref_axis',(0.,0.,1.));
#972=DIRECTION('',(-2.24891472250441E-16,-0.754709580222772,0.656059028990507));
#973=DIRECTION('center_axis',(-1.9152720072439E-16,-1.,0.));
#974=DIRECTION('ref_axis',(0.,0.,1.));
#975=DIRECTION('center_axis',(-1.9152720072439E-16,-1.,0.));
#976=DIRECTION('ref_axis',(0.,0.,1.));
#977=DIRECTION('',(-1.9152720072439E-16,-1.,0.));
#978=DIRECTION('center_axis',(1.9152720072439E-16,1.,0.));
#979=DIRECTION('ref_axis',(0.,0.,1.));
#980=DIRECTION('center_axis',(6.53247438177632E-16,1.,0.));
#981=DIRECTION('ref_axis',(0.,0.,1.));
#982=DIRECTION('center_axis',(-6.53247438177632E-16,-1.,0.));
#983=DIRECTION('ref_axis',(0.,0.,1.));
#984=DIRECTION('',(-5.73356158839136E-16,-0.754709580222772,0.656059028990507));
#985=DIRECTION('center_axis',(-6.53247438177632E-16,-1.,0.));
#986=DIRECTION('ref_axis',(0.,0.,1.));
#987=DIRECTION('center_axis',(-6.53247438177632E-16,-1.,0.));
#988=DIRECTION('ref_axis',(0.,0.,1.));
#989=DIRECTION('',(-6.53247438177632E-16,-1.,0.));
#990=DIRECTION('center_axis',(6.53247438177632E-16,1.,0.));
#991=DIRECTION('ref_axis',(0.,0.,1.));
#992=DIRECTION('center_axis',(1.9152720072439E-16,1.,0.));
#993=DIRECTION('ref_axis',(0.,0.,1.));
#994=DIRECTION('center_axis',(-1.9152720072439E-16,-1.,0.));
#995=DIRECTION('ref_axis',(0.,0.,1.));
#996=DIRECTION('',(-2.24891472250441E-16,-0.754709580222772,0.656059028990507));
#997=DIRECTION('center_axis',(-1.9152720072439E-16,-1.,0.));
#998=DIRECTION('ref_axis',(0.,0.,1.));
#999=DIRECTION('center_axis',(-1.9152720072439E-16,-1.,0.));
#1000=DIRECTION('ref_axis',(0.,0.,1.));
#1001=DIRECTION('',(-1.9152720072439E-16,-1.,0.));
#1002=DIRECTION('center_axis',(1.9152720072439E-16,1.,0.));
#1003=DIRECTION('ref_axis',(0.,0.,1.));
#1004=DIRECTION('center_axis',(6.53247438177632E-16,1.,0.));
#1005=DIRECTION('ref_axis',(0.,0.,1.));
#1006=DIRECTION('center_axis',(-6.53247438177632E-16,-1.,0.));
#1007=DIRECTION('ref_axis',(0.,0.,1.));
#1008=DIRECTION('',(-5.73356158839136E-16,-0.754709580222772,0.656059028990507));
#1009=DIRECTION('center_axis',(-6.53247438177632E-16,-1.,0.));
#1010=DIRECTION('ref_axis',(0.,0.,1.));
#1011=DIRECTION('center_axis',(-6.53247438177632E-16,-1.,0.));
#1012=DIRECTION('ref_axis',(0.,0.,1.));
#1013=DIRECTION('',(-6.53247438177632E-16,-1.,0.));
#1014=DIRECTION('center_axis',(6.53247438177632E-16,1.,0.));
#1015=DIRECTION('ref_axis',(0.,0.,1.));
#1016=DIRECTION('center_axis',(0.,1.,0.));
#1017=DIRECTION('ref_axis',(0.,0.,1.));
#1018=DIRECTION('center_axis',(0.,-1.,0.));
#1019=DIRECTION('ref_axis',(0.,0.,1.));
#1020=DIRECTION('',(-8.03440589904945E-17,-0.754709580222772,0.656059028990507));
#1021=DIRECTION('center_axis',(0.,-1.,0.));
#1022=DIRECTION('ref_axis',(0.,0.,1.));
#1023=DIRECTION('center_axis',(0.,-1.,0.));
#1024=DIRECTION('ref_axis',(0.,0.,1.));
#1025=DIRECTION('',(0.,-1.,0.));
#1026=DIRECTION('center_axis',(0.,1.,0.));
#1027=DIRECTION('ref_axis',(0.,0.,1.));
#1028=DIRECTION('center_axis',(-1.32665383962259E-15,1.,0.));
#1029=DIRECTION('ref_axis',(-0.707106781186546,-1.60942071256959E-15,0.707106781186549));
#1030=DIRECTION('center_axis',(1.32665383962259E-15,-1.,0.));
#1031=DIRECTION('ref_axis',(-0.707106781186546,-1.60942071256959E-15,0.707106781186549));
#1032=DIRECTION('',(1.32665383962259E-15,-1.,0.));
#1033=DIRECTION('center_axis',(-1.35727000960127E-15,1.,0.));
#1034=DIRECTION('ref_axis',(-0.707106781186546,-1.60942071256959E-15,0.707106781186549));
#1035=DIRECTION('',(-1.32665383962259E-15,1.,0.));
#1036=DIRECTION('center_axis',(0.,0.,1.));
#1037=DIRECTION('ref_axis',(1.,1.32665383962259E-15,0.));
#1038=DIRECTION('',(1.,1.38788617957996E-15,0.));
#1039=DIRECTION('',(-1.32665383962259E-15,1.,0.));
#1040=DIRECTION('',(1.,1.32665383962259E-15,0.));
#1041=DIRECTION('center_axis',(0.,-1.,0.));
#1042=DIRECTION('ref_axis',(0.,0.,-1.));
#1043=DIRECTION('',(0.,0.,-1.));
#1044=DIRECTION('center_axis',(-1.35727000960127E-15,1.,0.));
#1045=DIRECTION('ref_axis',(-0.707106781186551,-1.60942071256959E-15,-0.707106781186544));
#1046=DIRECTION('',(1.,1.38788617957996E-15,0.));
#1047=DIRECTION('',(0.,0.,1.));
#1048=DIRECTION('center_axis',(1.4641752924671E-15,1.,0.));
#1049=DIRECTION('ref_axis',(0.707106781186546,-1.07862608096106E-15,0.707106781186549));
#1050=DIRECTION('center_axis',(-1.4641752924671E-15,-1.,0.));
#1051=DIRECTION('ref_axis',(0.707106781186546,-1.07862608096106E-15,0.707106781186549));
#1052=DIRECTION('',(-1.4641752924671E-15,-1.,0.));
#1053=DIRECTION('center_axis',(1.49479146244579E-15,1.,0.));
#1054=DIRECTION('ref_axis',(0.707106781186546,-1.07862608096106E-15,0.707106781186549));
#1055=DIRECTION('',(1.4641752924671E-15,1.,0.));
#1056=DIRECTION('center_axis',(1.,-1.4641752924671E-15,0.));
#1057=DIRECTION('ref_axis',(0.,0.,-1.));
#1058=DIRECTION('',(0.,0.,1.));
#1059=DIRECTION('',(-1.4641752924671E-15,-1.,0.));
#1060=DIRECTION('',(0.,0.,-1.));
#1061=DIRECTION('center_axis',(0.,-1.,0.));
#1062=DIRECTION('ref_axis',(0.,0.,-1.));
#1063=DIRECTION('',(-1.,1.52540763242447E-15,0.));
#1064=DIRECTION('',(0.,0.,-1.));
#1065=DIRECTION('',(-1.,1.52540763242447E-15,0.));
#1066=DIRECTION('center_axis',(1.49479146244579E-15,1.,0.));
#1067=DIRECTION('ref_axis',(0.707106781186551,-1.07862608096106E-15,-0.707106781186544));
#1068=DIRECTION('center_axis',(-1.32665383962259E-15,1.,0.));
#1069=DIRECTION('ref_axis',(-0.707106781186551,-1.60942071256959E-15,-0.707106781186544));
#1070=DIRECTION('center_axis',(1.32665383962259E-15,-1.,0.));
#1071=DIRECTION('ref_axis',(-0.707106781186551,-1.60942071256959E-15,-0.707106781186544));
#1072=DIRECTION('',(1.32665383962259E-15,-1.,0.));
#1073=DIRECTION('',(-1.32665383962259E-15,1.,0.));
#1074=DIRECTION('center_axis',(0.,0.,-1.));
#1075=DIRECTION('ref_axis',(-1.,-1.38788617957996E-15,0.));
#1076=DIRECTION('',(-1.,-1.38788617957996E-15,0.));
#1077=DIRECTION('',(1.32665383962259E-15,-1.,0.));
#1078=DIRECTION('center_axis',(1.4641752924671E-15,1.,0.));
#1079=DIRECTION('ref_axis',(0.707106781186551,-1.07862608096106E-15,-0.707106781186544));
#1080=DIRECTION('center_axis',(-1.4641752924671E-15,-1.,0.));
#1081=DIRECTION('ref_axis',(0.707106781186551,-1.07862608096106E-15,-0.707106781186544));
#1082=DIRECTION('',(1.4641752924671E-15,1.,0.));
#1083=DIRECTION('center_axis',(0.,0.,-1.));
#1084=DIRECTION('ref_axis',(-1.,1.4641752924671E-15,0.));
#1085=DIRECTION('',(1.4641752924671E-15,1.,0.));
#1086=DIRECTION('',(-1.,1.4641752924671E-15,0.));
#1087=DIRECTION('center_axis',(0.,1.,0.));
#1088=DIRECTION('ref_axis',(1.,0.,0.));
#1089=DIRECTION('',(0.,0.,-1.));
#1090=DIRECTION('',(1.,4.56516727558456E-31,0.));
#1091=DIRECTION('',(0.,0.,1.));
#1092=DIRECTION('',(-1.,0.,0.));
#1093=DIRECTION('center_axis',(0.,0.,1.));
#1094=DIRECTION('ref_axis',(0.,-1.,0.));
#1095=DIRECTION('',(1.,-4.56516727558456E-31,0.));
#1096=DIRECTION('',(0.,-1.,0.));
#1097=DIRECTION('center_axis',(0.,0.,-1.));
#1098=DIRECTION('ref_axis',(0.,1.,0.));
#1099=DIRECTION('',(0.,1.,0.));
#1100=DIRECTION('',(1.,-4.56516727558456E-31,0.));
#1101=DIRECTION('center_axis',(-1.,-1.32665383962259E-15,0.));
#1102=DIRECTION('ref_axis',(0.,0.,1.));
#1103=DIRECTION('',(0.,0.,1.));
#1104=DIRECTION('center_axis',(0.,-1.,0.));
#1105=DIRECTION('ref_axis',(0.,0.,-1.));
#1106=DIRECTION('',(0.,0.,-1.));
#1107=DIRECTION('center_axis',(0.,1.,0.));
#1108=DIRECTION('ref_axis',(1.,0.,0.));
#1109=DIRECTION('center_axis',(0.,1.,0.));
#1110=DIRECTION('ref_axis',(1.,0.,0.));
#1111=DIRECTION('',(0.,0.,1.));
#1112=DIRECTION('',(-1.,0.,0.));
#1113=DIRECTION('',(0.,0.,-1.));
#1114=DIRECTION('',(1.,0.,0.));
#1115=DIRECTION('center_axis',(0.,0.,1.));
#1116=DIRECTION('ref_axis',(1.,-1.52540763242447E-15,0.));
#1117=DIRECTION('',(1.,-1.52540763242447E-15,0.));
#1118=DIRECTION('',(-1.4641752924671E-15,-1.,0.));
#1119=DIRECTION('center_axis',(0.,0.,-1.));
#1120=DIRECTION('ref_axis',(0.,1.,0.));
#1121=DIRECTION('',(-1.,0.,0.));
#1122=DIRECTION('',(0.,-1.,0.));
#1123=DIRECTION('center_axis',(0.,0.,1.));
#1124=DIRECTION('ref_axis',(0.,-1.,0.));
#1125=DIRECTION('',(0.,1.,0.));
#1126=DIRECTION('',(-1.,0.,0.));
#1127=DIRECTION('center_axis',(0.,-1.,0.));
#1128=DIRECTION('ref_axis',(0.,0.,-1.));
#1129=DIRECTION('',(0.,0.,1.));
#1130=DIRECTION('center_axis',(0.,1.,0.));
#1131=DIRECTION('ref_axis',(1.,0.,0.));
#1132=DIRECTION('center_axis',(0.,0.,-1.));
#1133=DIRECTION('ref_axis',(1.,0.,0.));
#1134=DIRECTION('',(1.,0.,0.));
#1135=DIRECTION('',(1.,0.,0.));
#1136=DIRECTION('center_axis',(0.,1.,0.));
#1137=DIRECTION('ref_axis',(1.,0.,0.));
#1138=DIRECTION('',(-1.,0.,2.74694356608286E-16));
#1139=DIRECTION('center_axis',(2.74694356608286E-16,0.,1.));
#1140=DIRECTION('ref_axis',(-1.,0.,2.74694356608286E-16));
#1141=DIRECTION('',(-1.,0.,2.74694356608286E-16));
#1142=DIRECTION('center_axis',(0.,-1.,0.));
#1143=DIRECTION('ref_axis',(0.,0.,-1.));
#1144=CARTESIAN_POINT('',(0.,0.,0.));
#1145=CARTESIAN_POINT('Origin',(42.,-1.13225010480728,36.65));
#1146=CARTESIAN_POINT('',(42.,1.11022302462516E-15,32.4335));
#1147=CARTESIAN_POINT('Origin',(42.,0.,36.65));
#1148=CARTESIAN_POINT('',(42.,-2.26450020961456,34.402));
#1149=CARTESIAN_POINT('',(42.,-1.13225010480728,33.41775));
#1150=CARTESIAN_POINT('Origin',(42.,-2.26450020961456,36.65));
#1151=CARTESIAN_POINT('Origin',(42.,-6.,36.65));
#1152=CARTESIAN_POINT('',(42.,-3.,34.402));
#1153=CARTESIAN_POINT('',(42.,-6.,34.402));
#1154=CARTESIAN_POINT('Origin',(42.,-3.,36.65));
#1155=CARTESIAN_POINT('Origin',(-65.435840131754,-1.13225010480728,-37.4999999999999));
#1156=CARTESIAN_POINT('',(-65.435840131754,9.57567358739198E-15,-41.7164999999999));
#1157=CARTESIAN_POINT('Origin',(-65.435840131754,1.33226762955019E-14,-37.4999999999999));
#1158=CARTESIAN_POINT('',(-65.435840131754,-2.26450020961455,-39.7479999999999));
#1159=CARTESIAN_POINT('',(-65.435840131754,-1.13225010480728,-40.7322499999999));
#1160=CARTESIAN_POINT('Origin',(-65.435840131754,-2.26450020961455,-37.4999999999999));
#1161=CARTESIAN_POINT('Origin',(-65.435840131754,-5.99999999999999,-37.4999999999999));
#1162=CARTESIAN_POINT('',(-65.435840131754,-2.99999999999999,-39.7479999999999));
#1163=CARTESIAN_POINT('',(-65.435840131754,-5.99999999999999,-39.7479999999999));
#1164=CARTESIAN_POINT('Origin',(-65.435840131754,-2.99999999999999,-37.4999999999999));
#1165=CARTESIAN_POINT('Origin',(82.4358401317539,-1.1322501048073,-187.5));
#1166=CARTESIAN_POINT('',(82.4358401317539,-1.95676808090184E-14,-191.7165));
#1167=CARTESIAN_POINT('Origin',(82.4358401317539,-1.77635683940025E-14,
-187.5));
#1168=CARTESIAN_POINT('',(82.4358401317539,-2.26450020961459,-189.748));
#1169=CARTESIAN_POINT('',(82.4358401317539,-1.1322501048073,-190.73225));
#1170=CARTESIAN_POINT('Origin',(82.4358401317539,-2.26450020961458,-187.5));
#1171=CARTESIAN_POINT('Origin',(82.4358401317539,-6.00000000000002,-187.5));
#1172=CARTESIAN_POINT('',(82.4358401317539,-3.00000000000002,-189.748));
#1173=CARTESIAN_POINT('',(82.4358401317539,-6.00000000000002,-189.748));
#1174=CARTESIAN_POINT('Origin',(82.4358401317539,-3.00000000000002,-187.5));
#1175=CARTESIAN_POINT('Origin',(42.,-1.13225010480728,-501.65));
#1176=CARTESIAN_POINT('',(42.,1.11022302462516E-15,-505.8665));
#1177=CARTESIAN_POINT('Origin',(42.,0.,-501.65));
#1178=CARTESIAN_POINT('',(42.,-2.26450020961456,-503.898));
#1179=CARTESIAN_POINT('',(42.,-1.13225010480728,-504.88225));
#1180=CARTESIAN_POINT('Origin',(42.,-2.26450020961456,-501.65));
#1181=CARTESIAN_POINT('Origin',(42.,-6.,-501.65));
#1182=CARTESIAN_POINT('',(42.,-3.,-503.898));
#1183=CARTESIAN_POINT('',(42.,-6.,-503.898));
#1184=CARTESIAN_POINT('Origin',(42.,-3.,-501.65));
#1185=CARTESIAN_POINT('Origin',(-25.,-1.13225010480728,-501.65));
#1186=CARTESIAN_POINT('',(-25.,1.11022302462516E-15,-505.8665));
#1187=CARTESIAN_POINT('Origin',(-25.,0.,-501.65));
#1188=CARTESIAN_POINT('',(-25.,-2.26450020961456,-503.898));
#1189=CARTESIAN_POINT('',(-25.,-1.13225010480728,-504.88225));
#1190=CARTESIAN_POINT('Origin',(-25.,-2.26450020961456,-501.65));
#1191=CARTESIAN_POINT('Origin',(-25.,-6.,-501.65));
#1192=CARTESIAN_POINT('',(-25.,-3.,-503.898));
#1193=CARTESIAN_POINT('',(-25.,-6.,-503.898));
#1194=CARTESIAN_POINT('Origin',(-25.,-3.,-501.65));
#1195=CARTESIAN_POINT('Origin',(-65.435840131754,-1.13225010480728,-389.5));
#1196=CARTESIAN_POINT('',(-65.435840131754,7.21644966006352E-15,-393.7165));
#1197=CARTESIAN_POINT('Origin',(-65.435840131754,1.33226762955019E-14,-389.5));
#1198=CARTESIAN_POINT('',(-65.435840131754,-2.26450020961455,-391.748));
#1199=CARTESIAN_POINT('',(-65.435840131754,-1.13225010480728,-392.73225));
#1200=CARTESIAN_POINT('Origin',(-65.435840131754,-2.26450020961455,-389.5));
#1201=CARTESIAN_POINT('Origin',(-65.435840131754,-5.99999999999999,-389.5));
#1202=CARTESIAN_POINT('',(-65.435840131754,-2.99999999999999,-391.748));
#1203=CARTESIAN_POINT('',(-65.435840131754,-5.99999999999999,-391.748));
#1204=CARTESIAN_POINT('Origin',(-65.435840131754,-2.99999999999999,-389.5));
#1205=CARTESIAN_POINT('Origin',(82.4358401317539,-1.1322501048073,-389.5));
#1206=CARTESIAN_POINT('',(82.4358401317539,-1.95676808090184E-14,-393.7165));
#1207=CARTESIAN_POINT('Origin',(82.4358401317539,-1.77635683940025E-14,
-389.5));
#1208=CARTESIAN_POINT('',(82.4358401317539,-2.26450020961458,-391.748));
#1209=CARTESIAN_POINT('',(82.4358401317539,-1.1322501048073,-392.73225));
#1210=CARTESIAN_POINT('Origin',(82.4358401317539,-2.26450020961458,-389.5));
#1211=CARTESIAN_POINT('Origin',(82.4358401317539,-6.00000000000002,-389.5));
#1212=CARTESIAN_POINT('',(82.4358401317539,-3.00000000000002,-391.748));
#1213=CARTESIAN_POINT('',(82.4358401317539,-6.00000000000002,-391.748));
#1214=CARTESIAN_POINT('Origin',(82.4358401317539,-3.00000000000002,-389.5));
#1215=CARTESIAN_POINT('Origin',(-65.435840131754,-1.13225010480728,-187.5));
#1216=CARTESIAN_POINT('',(-65.435840131754,7.21644966006352E-15,-191.7165));
#1217=CARTESIAN_POINT('Origin',(-65.435840131754,1.33226762955019E-14,-187.5));
#1218=CARTESIAN_POINT('',(-65.435840131754,-2.26450020961457,-189.748));
#1219=CARTESIAN_POINT('',(-65.435840131754,-1.13225010480728,-190.73225));
#1220=CARTESIAN_POINT('Origin',(-65.435840131754,-2.26450020961455,-187.5));
#1221=CARTESIAN_POINT('Origin',(-65.435840131754,-5.99999999999999,-187.5));
#1222=CARTESIAN_POINT('',(-65.435840131754,-2.99999999999999,-189.748));
#1223=CARTESIAN_POINT('',(-65.435840131754,-5.99999999999999,-189.748));
#1224=CARTESIAN_POINT('Origin',(-65.435840131754,-2.99999999999999,-187.5));
#1225=CARTESIAN_POINT('Origin',(82.4358401317539,-1.1322501048073,-37.4999999999999));
#1226=CARTESIAN_POINT('',(82.4358401317539,-1.77635683940025E-14,-41.7164999999999));
#1227=CARTESIAN_POINT('Origin',(82.4358401317539,-1.77635683940025E-14,
-37.4999999999999));
#1228=CARTESIAN_POINT('',(82.4358401317539,-2.26450020961458,-39.7479999999999));
#1229=CARTESIAN_POINT('',(82.4358401317539,-1.1322501048073,-40.7322499999999));
#1230=CARTESIAN_POINT('Origin',(82.4358401317539,-2.26450020961458,-37.4999999999999));
#1231=CARTESIAN_POINT('Origin',(82.4358401317539,-6.00000000000002,-37.4999999999999));
#1232=CARTESIAN_POINT('',(82.4358401317539,-3.00000000000002,-39.7479999999999));
#1233=CARTESIAN_POINT('',(82.4358401317539,-6.00000000000002,-39.7479999999999));
#1234=CARTESIAN_POINT('Origin',(82.4358401317539,-3.00000000000002,-37.4999999999999));
#1235=CARTESIAN_POINT('Origin',(-25.,-1.13225010480728,36.65));
#1236=CARTESIAN_POINT('',(-25.,1.11022302462516E-15,32.4335));
#1237=CARTESIAN_POINT('Origin',(-25.,0.,36.65));
#1238=CARTESIAN_POINT('',(-25.,-2.26450020961456,34.402));
#1239=CARTESIAN_POINT('',(-25.,-1.13225010480728,33.41775));
#1240=CARTESIAN_POINT('Origin',(-25.,-2.26450020961456,36.65));
#1241=CARTESIAN_POINT('Origin',(-25.,-6.,36.65));
#1242=CARTESIAN_POINT('',(-25.,-3.,34.402));
#1243=CARTESIAN_POINT('',(-25.,-6.,34.402));
#1244=CARTESIAN_POINT('Origin',(-25.,-3.,36.65));
#1245=CARTESIAN_POINT('Origin',(-68.785840131754,-3.00000000000004,40.));
#1246=CARTESIAN_POINT('',(-68.785840131754,-3.5527136788005E-14,43.));
#1247=CARTESIAN_POINT('',(-71.785840131754,-4.88498130835069E-14,40.));
#1248=CARTESIAN_POINT('Origin',(-68.785840131754,-3.5527136788005E-14,40.));
#1249=CARTESIAN_POINT('',(-71.785840131754,-3.00000000000005,40.));
#1250=CARTESIAN_POINT('',(-71.785840131754,-3.00000000000005,40.));
#1251=CARTESIAN_POINT('',(-68.785840131754,-3.00000000000004,43.0000000000001));
#1252=CARTESIAN_POINT('Origin',(-68.785840131754,-3.00000000000004,40.));
#1253=CARTESIAN_POINT('',(-68.785840131754,-3.00000000000004,43.));
#1254=CARTESIAN_POINT('Origin',(-71.785840131754,-3.00000000000005,43.));
#1255=CARTESIAN_POINT('',(-40.785840131754,-3.,43.0000000000001));
#1256=CARTESIAN_POINT('',(-27.2141598682461,-2.99999999999998,43.0000000000001));
#1257=CARTESIAN_POINT('',(-40.785840131754,-4.44089209850063E-15,43.));
#1258=CARTESIAN_POINT('',(-40.7858401317539,-2.34,43.));
#1259=CARTESIAN_POINT('',(-40.785840131754,-4.44089209850063E-15,43.));
#1260=CARTESIAN_POINT('Origin',(8.5,-3.,-232.5));
#1261=CARTESIAN_POINT('',(-71.785840131754,-3.00000000000005,-505.));
#1262=CARTESIAN_POINT('',(-71.785840131754,-3.00000000000005,43.));
#1263=CARTESIAN_POINT('',(-68.785840131754,-3.00000000000004,-508.));
#1264=CARTESIAN_POINT('Origin',(-68.785840131754,-3.00000000000004,-505.));
#1265=CARTESIAN_POINT('',(-40.785840131754,-3.,-508.));
#1266=CARTESIAN_POINT('',(-27.2141598682461,-2.99999999999998,-508.));
#1267=CARTESIAN_POINT('',(-40.7858401317539,-3.,-232.5));
#1268=CARTESIAN_POINT('Origin',(85.7858401317539,-3.00000000000004,40.0000000000001));
#1269=CARTESIAN_POINT('',(88.7858401317539,-6.21724893790088E-14,40.0000000000001));
#1270=CARTESIAN_POINT('',(85.7858401317539,-5.32907051820075E-14,43.0000000000001));
#1271=CARTESIAN_POINT('Origin',(85.7858401317539,-4.44089209850063E-14,
40.0000000000001));
#1272=CARTESIAN_POINT('',(85.7858401317539,-3.00000000000005,43.0000000000001));
#1273=CARTESIAN_POINT('',(85.7858401317539,-3.00000000000004,43.0000000000001));
#1274=CARTESIAN_POINT('',(88.7858401317539,-3.00000000000006,40.0000000000001));
#1275=CARTESIAN_POINT('Origin',(85.7858401317539,-3.00000000000005,40.0000000000001));
#1276=CARTESIAN_POINT('',(88.7858401317539,-3.00000000000006,40.0000000000001));
#1277=CARTESIAN_POINT('Origin',(88.7858401317539,-3.00000000000006,43.));
#1278=CARTESIAN_POINT('',(88.7858401317539,-3.00000000000006,-505.));
#1279=CARTESIAN_POINT('',(88.7858401317539,-3.00000000000006,-508.));
#1280=CARTESIAN_POINT('',(88.7858401317539,-6.21724893790088E-14,-505.));
#1281=CARTESIAN_POINT('',(88.7858401317539,-3.00000000000006,-505.));
#1282=CARTESIAN_POINT('',(88.7858401317539,-6.21724893790088E-14,-508.));
#1283=CARTESIAN_POINT('Origin',(8.5,-3.,-232.5));
#1284=CARTESIAN_POINT('',(57.7858401317539,-3.00000000000002,43.0000000000001));
#1285=CARTESIAN_POINT('',(44.214159868246,-2.99999999999999,43.0000000000001));
#1286=CARTESIAN_POINT('',(57.7858401317539,-3.00000000000002,-508.));
#1287=CARTESIAN_POINT('',(57.7858401317539,-3.00000000000002,-232.5));
#1288=CARTESIAN_POINT('',(85.7858401317539,-3.00000000000005,-508.));
#1289=CARTESIAN_POINT('',(44.214159868246,-2.99999999999999,-508.));
#1290=CARTESIAN_POINT('Origin',(85.7858401317539,-3.00000000000005,-505.));
#1291=CARTESIAN_POINT('Origin',(-68.785840131754,-3.00000000000004,-505.));
#1292=CARTESIAN_POINT('',(-71.785840131754,-4.88498130835069E-14,-505.));
#1293=CARTESIAN_POINT('',(-68.785840131754,-3.5527136788005E-14,-508.));
#1294=CARTESIAN_POINT('Origin',(-68.785840131754,-3.5527136788005E-14,-505.));
#1295=CARTESIAN_POINT('',(-68.785840131754,-3.00000000000004,-508.));
#1296=CARTESIAN_POINT('',(-71.785840131754,-3.00000000000005,-505.));
#1297=CARTESIAN_POINT('Origin',(-34.,-2.99999999999999,-508.));
#1298=CARTESIAN_POINT('',(-40.785840131754,-4.44089209850063E-15,-508.));
#1299=CARTESIAN_POINT('',(-27.2141598682461,8.88178419700125E-15,-508.));
#1300=CARTESIAN_POINT('',(-40.785840131754,-2.34,-508.));
#1301=CARTESIAN_POINT('Origin',(85.7858401317539,-3.00000000000004,-505.));
#1302=CARTESIAN_POINT('',(85.7858401317539,-4.44089209850063E-14,-508.));
#1303=CARTESIAN_POINT('Origin',(85.7858401317539,-4.44089209850063E-14,
-505.));
#1304=CARTESIAN_POINT('',(85.7858401317539,-3.00000000000004,-508.));
#1305=CARTESIAN_POINT('Origin',(88.7858401317539,-3.00000000000006,-508.));
#1306=CARTESIAN_POINT('',(57.7858401317539,-1.77635683940025E-14,-508.));
#1307=CARTESIAN_POINT('',(57.7858401317539,-2.34000000000003,-508.));
#1308=CARTESIAN_POINT('',(57.7858401317539,-1.77635683940025E-14,-508.));
#1309=CARTESIAN_POINT('Origin',(8.5,0.,-232.5));
#1310=CARTESIAN_POINT('',(-40.7858401317539,-4.44089209850063E-15,-232.5));
#1311=CARTESIAN_POINT('',(-34.,0.,43.));
#1312=CARTESIAN_POINT('',(-40.785840131754,4.44089209850063E-15,43.));
#1313=CARTESIAN_POINT('',(-34.,0.,-508.));
#1314=CARTESIAN_POINT('',(-34.,0.,-94.75));
#1315=CARTESIAN_POINT('',(-34.,-2.22044604925031E-15,-508.));
#1316=CARTESIAN_POINT('Origin',(-34.,-1.68,43.));
#1317=CARTESIAN_POINT('',(-34.,-3.,43.));
#1318=CARTESIAN_POINT('',(-40.7858401317539,-3.,43.0000000000001));
#1319=CARTESIAN_POINT('',(-34.,-1.5,43.));
#1320=CARTESIAN_POINT('Origin',(-34.,-1.68,-508.));
#1321=CARTESIAN_POINT('',(-34.,-3.,-508.));
#1322=CARTESIAN_POINT('',(-34.,-1.5,-508.));
#1323=CARTESIAN_POINT('',(-40.7858401317539,-3.,-508.));
#1324=CARTESIAN_POINT('Origin',(-71.785840131754,-3.00000000000005,-508.));
#1325=CARTESIAN_POINT('',(-71.785840131754,-4.88498130835069E-14,43.));
#1326=CARTESIAN_POINT('Origin',(8.5,-3.,-232.5));
#1327=CARTESIAN_POINT('',(-34.,-3.,-94.75));
#1328=CARTESIAN_POINT('Origin',(8.5,0.,-232.5));
#1329=CARTESIAN_POINT('Origin',(8.5,0.,-232.5));
#1330=CARTESIAN_POINT('',(57.7858401317539,-2.66453525910038E-14,43.0000000000001));
#1331=CARTESIAN_POINT('',(57.7858401317539,-1.77635683940025E-14,-232.5));
#1332=CARTESIAN_POINT('',(51.,0.,-508.));
#1333=CARTESIAN_POINT('',(57.7858401317539,4.44089209850063E-15,-508.));
#1334=CARTESIAN_POINT('',(51.,0.,43.));
#1335=CARTESIAN_POINT('',(51.,0.,-370.25));
#1336=CARTESIAN_POINT('',(51.,-2.22044604925031E-15,43.0000000000001));
#1337=CARTESIAN_POINT('Origin',(51.,-3.00000000000001,43.0000000000001));
#1338=CARTESIAN_POINT('',(44.214159868246,8.88178419700125E-15,43.0000000000001));
#1339=CARTESIAN_POINT('',(57.7858401317539,-2.34000000000003,43.0000000000001));
#1340=CARTESIAN_POINT('Origin',(51.,-1.68,-508.));
#1341=CARTESIAN_POINT('',(51.,-3.,-508.));
#1342=CARTESIAN_POINT('',(57.7858401317539,-3.,-508.));
#1343=CARTESIAN_POINT('',(51.,-1.5,-508.));
#1344=CARTESIAN_POINT('Origin',(51.,-1.68,43.0000000000001));
#1345=CARTESIAN_POINT('',(51.,-3.,43.));
#1346=CARTESIAN_POINT('',(51.,-1.5,43.));
#1347=CARTESIAN_POINT('',(57.7858401317539,-3.,43.0000000000001));
#1348=CARTESIAN_POINT('Origin',(8.5,-3.,-232.5));
#1349=CARTESIAN_POINT('',(51.,-3.,-370.25));
#1350=CARTESIAN_POINT('Origin',(8.5,0.,-232.5));
#1351=CARTESIAN_POINT('Origin',(-40.,0.,-508.));
#1352=CARTESIAN_POINT('',(-40.,0.,-508.));
#1353=CARTESIAN_POINT('',(-40.,-3.,-508.));
#1354=CARTESIAN_POINT('Origin',(8.5,0.,-232.5));
#1355=CARTESIAN_POINT('',(57.,0.,43.));
#1356=CARTESIAN_POINT('Origin',(57.,0.,43.));
#1357=CARTESIAN_POINT('',(57.,-3.,43.));
#1358=CARTESIAN_POINT('Origin',(8.5,-3.,-232.5));
#1359=UNCERTAINTY_MEASURE_WITH_UNIT(LENGTH_MEASURE(0.01),#1363,
'DISTANCE_ACCURACY_VALUE',
'Maximum model space distance between geometric entities at asserted c
onnectivities');
#1360=UNCERTAINTY_MEASURE_WITH_UNIT(LENGTH_MEASURE(0.01),#1363,
'DISTANCE_ACCURACY_VALUE',
'Maximum model space distance between geometric entities at asserted c
onnectivities');
#1361=(
GEOMETRIC_REPRESENTATION_CONTEXT(3)
GLOBAL_UNCERTAINTY_ASSIGNED_CONTEXT((#1359))
GLOBAL_UNIT_ASSIGNED_CONTEXT((#1363,#1365,#1366))
REPRESENTATION_CONTEXT('','3D')
);
#1362=(
GEOMETRIC_REPRESENTATION_CONTEXT(3)
GLOBAL_UNCERTAINTY_ASSIGNED_CONTEXT((#1360))
GLOBAL_UNIT_ASSIGNED_CONTEXT((#1363,#1365,#1366))
REPRESENTATION_CONTEXT('','3D')
);
#1363=(
LENGTH_UNIT()
NAMED_UNIT(*)
SI_UNIT(.MILLI.,.METRE.)
);
#1364=(
LENGTH_UNIT()
NAMED_UNIT(*)
SI_UNIT($,.METRE.)
);
#1365=(
NAMED_UNIT(*)
PLANE_ANGLE_UNIT()
SI_UNIT($,.RADIAN.)
);
#1366=(
NAMED_UNIT(*)
SI_UNIT($,.STERADIAN.)
SOLID_ANGLE_UNIT()
);
#1367=SHAPE_DEFINITION_REPRESENTATION(#1368,#1369);
#1368=PRODUCT_DEFINITION_SHAPE('',$,#1371);
#1369=SHAPE_REPRESENTATION('',(#821),#1361);
#1370=PRODUCT_DEFINITION_CONTEXT('part definition',#1375,'design');
#1371=PRODUCT_DEFINITION('Back Plate','Back Plate',#1372,#1370);
#1372=PRODUCT_DEFINITION_FORMATION('',$,#1377);
#1373=PRODUCT_RELATED_PRODUCT_CATEGORY('Back Plate','Back Plate',(#1377));
#1374=APPLICATION_PROTOCOL_DEFINITION('international standard',
'automotive_design',2009,#1375);
#1375=APPLICATION_CONTEXT(
'Core Data for Automotive Mechanical Design Process');
#1376=PRODUCT_CONTEXT('part definition',#1375,'mechanical');
#1377=PRODUCT('Back Plate','Back Plate',$,(#1376));
#1378=PRESENTATION_STYLE_ASSIGNMENT((#1381));
#1379=PRESENTATION_STYLE_ASSIGNMENT((#1382));
#1380=PRESENTATION_STYLE_ASSIGNMENT((#1383));
#1381=SURFACE_STYLE_USAGE(.BOTH.,#1384);
#1382=SURFACE_STYLE_USAGE(.BOTH.,#1385);
#1383=SURFACE_STYLE_USAGE(.BOTH.,#1386);
#1384=SURFACE_SIDE_STYLE('',(#1387));
#1385=SURFACE_SIDE_STYLE('',(#1388));
#1386=SURFACE_SIDE_STYLE('',(#1389));
#1387=SURFACE_STYLE_FILL_AREA(#1390);
#1388=SURFACE_STYLE_FILL_AREA(#1391);
#1389=SURFACE_STYLE_FILL_AREA(#1392);
#1390=FILL_AREA_STYLE('Steel - Satin',(#1393));
#1391=FILL_AREA_STYLE('Aluminum - Satin',(#1394));
#1392=FILL_AREA_STYLE('Plastic - Matte (Black) (1)',(#1395));
#1393=FILL_AREA_STYLE_COLOUR('Steel - Satin',#1396);
#1394=FILL_AREA_STYLE_COLOUR('Aluminum - Satin',#1397);
#1395=FILL_AREA_STYLE_COLOUR('Plastic - Matte (Black) (1)',#1398);
#1396=COLOUR_RGB('Steel - Satin',0.627450980392157,0.627450980392157,0.627450980392157);
#1397=COLOUR_RGB('Aluminum - Satin',0.96078431372549,0.96078431372549,0.964705882352941);
#1398=COLOUR_RGB('Plastic - Matte (Black) (1)',0.47843137254902,0.474509803921569,
0.474509803921569);
ENDSEC;
END-ISO-10303-21;
