ISO-10303-21;
HEADER;
/* Generated by software containing ST-Developer
 * from STEP Tools, Inc. (www.steptools.com) 
 */

FILE_DESCRIPTION(
/* description */ (''),
/* implementation_level */ '2;1');

FILE_NAME(
/* name */ 
'C:/Users/anton/Documents/Kerbal Space Program/Kerbal_Control_Panel/KC
P2/CAD/ForManufacture/KeyboardPillar_v91.step',
/* time_stamp */ '2020-11-13T22:13:17-08:00',
/* author */ (''),
/* organization */ (''),
/* preprocessor_version */ 'ST-DEVELOPER v18.1',
/* originating_system */ 'Autodesk Translation Framework v9.3.0.1241',
/* authorisation */ '');

FILE_SCHEMA (('AUTOMOTIVE_DESIGN { 1 0 10303 214 3 1 1 }'));
ENDSEC;

DATA;
#10=MECHANICAL_DESIGN_GEOMETRIC_PRESENTATION_REPRESENTATION('',(#47,#48,
#49),#841);
#11=ITEM_DEFINED_TRANSFORMATION($,$,#518,#557);
#12=ITEM_DEFINED_TRANSFORMATION($,$,#518,#558);
#13=(
REPRESENTATION_RELATIONSHIP($,$,#853,#852)
REPRESENTATION_RELATIONSHIP_WITH_TRANSFORMATION(#11)
SHAPE_REPRESENTATION_RELATIONSHIP()
);
#14=(
REPRESENTATION_RELATIONSHIP($,$,#853,#852)
REPRESENTATION_RELATIONSHIP_WITH_TRANSFORMATION(#12)
SHAPE_REPRESENTATION_RELATIONSHIP()
);
#15=CONTEXT_DEPENDENT_SHAPE_REPRESENTATION(#13,#850);
#16=CONTEXT_DEPENDENT_SHAPE_REPRESENTATION(#14,#851);
#17=NEXT_ASSEMBLY_USAGE_OCCURRENCE('M3x16mm Screw v2:18',
'M3x16mm Screw v2:18','M3x16mm Screw v2:18',#855,#856,
'M3x16mm Screw v2:18');
#18=NEXT_ASSEMBLY_USAGE_OCCURRENCE('M3x16mm Screw v2:19',
'M3x16mm Screw v2:19','M3x16mm Screw v2:19',#855,#856,
'M3x16mm Screw v2:19');
#19=SHAPE_REPRESENTATION_RELATIONSHIP('SRR','None',#853,#21);
#20=SHAPE_REPRESENTATION_RELATIONSHIP('SRR','None',#852,#22);
#21=ADVANCED_BREP_SHAPE_REPRESENTATION('',(#23),#840);
#22=ADVANCED_BREP_SHAPE_REPRESENTATION('',(#24),#839);
#23=MANIFOLD_SOLID_BREP('Body1',#503);
#24=MANIFOLD_SOLID_BREP('Pillar',#504);
#25=CONICAL_SURFACE('',#538,1.34675,0.785398163397449);
#26=CONICAL_SURFACE('',#541,2.15,0.719068321828742);
#27=CYLINDRICAL_SURFACE('',#534,2.8);
#28=CYLINDRICAL_SURFACE('',#544,1.5);
#29=CYLINDRICAL_SURFACE('',#545,1.2645);
#30=CYLINDRICAL_SURFACE('',#548,1.2645);
#31=FACE_BOUND('',#91,.T.);
#32=FACE_BOUND('',#104,.T.);
#33=FACE_BOUND('',#105,.T.);
#34=FACE_BOUND('',#107,.T.);
#35=FACE_BOUND('',#108,.T.);
#36=CIRCLE('',#533,2.8);
#37=CIRCLE('',#535,2.8);
#38=CIRCLE('',#537,1.1935);
#39=CIRCLE('',#539,1.5);
#40=CIRCLE('',#540,1.5);
#41=CIRCLE('',#542,1.5);
#42=CIRCLE('',#543,1.5);
#43=CIRCLE('',#546,1.2645);
#44=CIRCLE('',#547,1.2645);
#45=CIRCLE('',#549,1.2645);
#46=CIRCLE('',#550,1.2645);
#47=STYLED_ITEM('',(#868),#489);
#48=STYLED_ITEM('',(#867),#23);
#49=STYLED_ITEM('',(#867),#24);
#50=FACE_OUTER_BOUND('',#77,.T.);
#51=FACE_OUTER_BOUND('',#78,.T.);
#52=FACE_OUTER_BOUND('',#79,.T.);
#53=FACE_OUTER_BOUND('',#80,.T.);
#54=FACE_OUTER_BOUND('',#81,.T.);
#55=FACE_OUTER_BOUND('',#82,.T.);
#56=FACE_OUTER_BOUND('',#83,.T.);
#57=FACE_OUTER_BOUND('',#84,.T.);
#58=FACE_OUTER_BOUND('',#85,.T.);
#59=FACE_OUTER_BOUND('',#86,.T.);
#60=FACE_OUTER_BOUND('',#87,.T.);
#61=FACE_OUTER_BOUND('',#88,.T.);
#62=FACE_OUTER_BOUND('',#89,.T.);
#63=FACE_OUTER_BOUND('',#90,.T.);
#64=FACE_OUTER_BOUND('',#92,.T.);
#65=FACE_OUTER_BOUND('',#93,.T.);
#66=FACE_OUTER_BOUND('',#94,.T.);
#67=FACE_OUTER_BOUND('',#95,.T.);
#68=FACE_OUTER_BOUND('',#96,.T.);
#69=FACE_OUTER_BOUND('',#97,.T.);
#70=FACE_OUTER_BOUND('',#98,.T.);
#71=FACE_OUTER_BOUND('',#99,.T.);
#72=FACE_OUTER_BOUND('',#100,.T.);
#73=FACE_OUTER_BOUND('',#101,.T.);
#74=FACE_OUTER_BOUND('',#102,.T.);
#75=FACE_OUTER_BOUND('',#103,.T.);
#76=FACE_OUTER_BOUND('',#106,.T.);
#77=EDGE_LOOP('',(#325,#326,#327,#328,#329,#330,#331,#332,#333,#334,#335,
#336));
#78=EDGE_LOOP('',(#337,#338,#339,#340));
#79=EDGE_LOOP('',(#341,#342,#343,#344));
#80=EDGE_LOOP('',(#345,#346,#347,#348));
#81=EDGE_LOOP('',(#349,#350,#351,#352));
#82=EDGE_LOOP('',(#353,#354,#355,#356));
#83=EDGE_LOOP('',(#357,#358,#359,#360));
#84=EDGE_LOOP('',(#361,#362,#363,#364));
#85=EDGE_LOOP('',(#365,#366,#367,#368));
#86=EDGE_LOOP('',(#369,#370,#371,#372));
#87=EDGE_LOOP('',(#373,#374,#375,#376));
#88=EDGE_LOOP('',(#377,#378,#379,#380));
#89=EDGE_LOOP('',(#381,#382,#383,#384));
#90=EDGE_LOOP('',(#385));
#91=EDGE_LOOP('',(#386,#387,#388,#389,#390,#391,#392,#393,#394,#395,#396,
#397));
#92=EDGE_LOOP('',(#398,#399,#400,#401));
#93=EDGE_LOOP('',(#402));
#94=EDGE_LOOP('',(#403,#404,#405,#406,#407));
#95=EDGE_LOOP('',(#408,#409,#410,#411,#412));
#96=EDGE_LOOP('',(#413,#414,#415,#416,#417,#418));
#97=EDGE_LOOP('',(#419,#420,#421,#422));
#98=EDGE_LOOP('',(#423,#424,#425,#426));
#99=EDGE_LOOP('',(#427,#428,#429,#430));
#100=EDGE_LOOP('',(#431,#432,#433,#434));
#101=EDGE_LOOP('',(#435,#436,#437,#438));
#102=EDGE_LOOP('',(#439,#440,#441,#442));
#103=EDGE_LOOP('',(#443,#444,#445,#446));
#104=EDGE_LOOP('',(#447));
#105=EDGE_LOOP('',(#448));
#106=EDGE_LOOP('',(#449,#450,#451,#452));
#107=EDGE_LOOP('',(#453));
#108=EDGE_LOOP('',(#454));
#109=LINE('',#702,#163);
#110=LINE('',#704,#164);
#111=LINE('',#706,#165);
#112=LINE('',#708,#166);
#113=LINE('',#710,#167);
#114=LINE('',#712,#168);
#115=LINE('',#714,#169);
#116=LINE('',#716,#170);
#117=LINE('',#718,#171);
#118=LINE('',#720,#172);
#119=LINE('',#722,#173);
#120=LINE('',#723,#174);
#121=LINE('',#726,#175);
#122=LINE('',#728,#176);
#123=LINE('',#729,#177);
#124=LINE('',#732,#178);
#125=LINE('',#733,#179);
#126=LINE('',#736,#180);
#127=LINE('',#737,#181);
#128=LINE('',#740,#182);
#129=LINE('',#741,#183);
#130=LINE('',#744,#184);
#131=LINE('',#745,#185);
#132=LINE('',#748,#186);
#133=LINE('',#749,#187);
#134=LINE('',#752,#188);
#135=LINE('',#753,#189);
#136=LINE('',#756,#190);
#137=LINE('',#757,#191);
#138=LINE('',#760,#192);
#139=LINE('',#761,#193);
#140=LINE('',#764,#194);
#141=LINE('',#765,#195);
#142=LINE('',#768,#196);
#143=LINE('',#769,#197);
#144=LINE('',#771,#198);
#145=LINE('',#778,#199);
#146=LINE('',#786,#200);
#147=LINE('',#790,#201);
#148=LINE('',#795,#202);
#149=LINE('',#800,#203);
#150=LINE('',#806,#204);
#151=LINE('',#811,#205);
#152=LINE('',#813,#206);
#153=LINE('',#815,#207);
#154=LINE('',#816,#208);
#155=LINE('',#819,#209);
#156=LINE('',#821,#210);
#157=LINE('',#822,#211);
#158=LINE('',#825,#212);
#159=LINE('',#827,#213);
#160=LINE('',#828,#214);
#161=LINE('',#830,#215);
#162=LINE('',#831,#216);
#163=VECTOR('',#565,1.);
#164=VECTOR('',#566,1.);
#165=VECTOR('',#567,1.);
#166=VECTOR('',#568,1.);
#167=VECTOR('',#569,1.);
#168=VECTOR('',#570,1.);
#169=VECTOR('',#571,1.);
#170=VECTOR('',#572,1.);
#171=VECTOR('',#573,1.);
#172=VECTOR('',#574,1.);
#173=VECTOR('',#575,1.);
#174=VECTOR('',#576,1.);
#175=VECTOR('',#579,1.);
#176=VECTOR('',#580,1.);
#177=VECTOR('',#581,1.);
#178=VECTOR('',#584,1.);
#179=VECTOR('',#585,1.);
#180=VECTOR('',#588,1.);
#181=VECTOR('',#589,1.);
#182=VECTOR('',#592,1.);
#183=VECTOR('',#593,1.);
#184=VECTOR('',#596,1.);
#185=VECTOR('',#597,1.);
#186=VECTOR('',#600,1.);
#187=VECTOR('',#601,1.);
#188=VECTOR('',#604,1.);
#189=VECTOR('',#605,1.);
#190=VECTOR('',#608,1.);
#191=VECTOR('',#609,1.);
#192=VECTOR('',#612,1.);
#193=VECTOR('',#613,1.);
#194=VECTOR('',#616,1.);
#195=VECTOR('',#617,1.);
#196=VECTOR('',#620,1.);
#197=VECTOR('',#621,1.);
#198=VECTOR('',#624,1.);
#199=VECTOR('',#633,2.8);
#200=VECTOR('',#642,1.34675);
#201=VECTOR('',#647,2.15);
#202=VECTOR('',#654,1.5);
#203=VECTOR('',#659,1.2645);
#204=VECTOR('',#666,1.2645);
#205=VECTOR('',#671,10.);
#206=VECTOR('',#672,10.);
#207=VECTOR('',#673,10.);
#208=VECTOR('',#674,10.);
#209=VECTOR('',#677,10.);
#210=VECTOR('',#678,10.);
#211=VECTOR('',#679,10.);
#212=VECTOR('',#682,10.);
#213=VECTOR('',#683,10.);
#214=VECTOR('',#684,10.);
#215=VECTOR('',#687,10.);
#216=VECTOR('',#688,10.);
#217=VERTEX_POINT('',#700);
#218=VERTEX_POINT('',#701);
#219=VERTEX_POINT('',#703);
#220=VERTEX_POINT('',#705);
#221=VERTEX_POINT('',#707);
#222=VERTEX_POINT('',#709);
#223=VERTEX_POINT('',#711);
#224=VERTEX_POINT('',#713);
#225=VERTEX_POINT('',#715);
#226=VERTEX_POINT('',#717);
#227=VERTEX_POINT('',#719);
#228=VERTEX_POINT('',#721);
#229=VERTEX_POINT('',#725);
#230=VERTEX_POINT('',#727);
#231=VERTEX_POINT('',#731);
#232=VERTEX_POINT('',#735);
#233=VERTEX_POINT('',#739);
#234=VERTEX_POINT('',#743);
#235=VERTEX_POINT('',#747);
#236=VERTEX_POINT('',#751);
#237=VERTEX_POINT('',#755);
#238=VERTEX_POINT('',#759);
#239=VERTEX_POINT('',#763);
#240=VERTEX_POINT('',#767);
#241=VERTEX_POINT('',#773);
#242=VERTEX_POINT('',#776);
#243=VERTEX_POINT('',#780);
#244=VERTEX_POINT('',#783);
#245=VERTEX_POINT('',#784);
#246=VERTEX_POINT('',#789);
#247=VERTEX_POINT('',#791);
#248=VERTEX_POINT('',#797);
#249=VERTEX_POINT('',#799);
#250=VERTEX_POINT('',#803);
#251=VERTEX_POINT('',#805);
#252=VERTEX_POINT('',#809);
#253=VERTEX_POINT('',#810);
#254=VERTEX_POINT('',#812);
#255=VERTEX_POINT('',#814);
#256=VERTEX_POINT('',#818);
#257=VERTEX_POINT('',#820);
#258=VERTEX_POINT('',#824);
#259=VERTEX_POINT('',#826);
#260=EDGE_CURVE('',#217,#218,#109,.T.);
#261=EDGE_CURVE('',#218,#219,#110,.T.);
#262=EDGE_CURVE('',#219,#220,#111,.T.);
#263=EDGE_CURVE('',#220,#221,#112,.T.);
#264=EDGE_CURVE('',#221,#222,#113,.T.);
#265=EDGE_CURVE('',#223,#222,#114,.T.);
#266=EDGE_CURVE('',#223,#224,#115,.T.);
#267=EDGE_CURVE('',#225,#224,#116,.T.);
#268=EDGE_CURVE('',#225,#226,#117,.T.);
#269=EDGE_CURVE('',#227,#226,#118,.T.);
#270=EDGE_CURVE('',#227,#228,#119,.T.);
#271=EDGE_CURVE('',#228,#217,#120,.T.);
#272=EDGE_CURVE('',#217,#229,#121,.T.);
#273=EDGE_CURVE('',#230,#229,#122,.T.);
#274=EDGE_CURVE('',#218,#230,#123,.T.);
#275=EDGE_CURVE('',#231,#230,#124,.T.);
#276=EDGE_CURVE('',#231,#219,#125,.T.);
#277=EDGE_CURVE('',#232,#220,#126,.T.);
#278=EDGE_CURVE('',#232,#231,#127,.T.);
#279=EDGE_CURVE('',#233,#232,#128,.T.);
#280=EDGE_CURVE('',#233,#221,#129,.T.);
#281=EDGE_CURVE('',#234,#233,#130,.T.);
#282=EDGE_CURVE('',#222,#234,#131,.T.);
#283=EDGE_CURVE('',#223,#235,#132,.T.);
#284=EDGE_CURVE('',#235,#234,#133,.T.);
#285=EDGE_CURVE('',#236,#235,#134,.T.);
#286=EDGE_CURVE('',#224,#236,#135,.T.);
#287=EDGE_CURVE('',#237,#236,#136,.T.);
#288=EDGE_CURVE('',#237,#225,#137,.T.);
#289=EDGE_CURVE('',#238,#226,#138,.T.);
#290=EDGE_CURVE('',#238,#237,#139,.T.);
#291=EDGE_CURVE('',#239,#238,#140,.T.);
#292=EDGE_CURVE('',#239,#227,#141,.T.);
#293=EDGE_CURVE('',#240,#239,#142,.T.);
#294=EDGE_CURVE('',#228,#240,#143,.T.);
#295=EDGE_CURVE('',#229,#240,#144,.T.);
#296=EDGE_CURVE('',#241,#241,#36,.T.);
#297=EDGE_CURVE('',#242,#242,#37,.T.);
#298=EDGE_CURVE('',#242,#241,#145,.T.);
#299=EDGE_CURVE('',#243,#243,#38,.T.);
#300=EDGE_CURVE('',#244,#245,#39,.T.);
#301=EDGE_CURVE('',#244,#243,#146,.T.);
#302=EDGE_CURVE('',#245,#244,#40,.T.);
#303=EDGE_CURVE('',#242,#246,#147,.T.);
#304=EDGE_CURVE('',#246,#247,#41,.T.);
#305=EDGE_CURVE('',#247,#246,#42,.T.);
#306=EDGE_CURVE('',#247,#245,#148,.T.);
#307=EDGE_CURVE('',#248,#248,#43,.T.);
#308=EDGE_CURVE('',#248,#249,#149,.T.);
#309=EDGE_CURVE('',#249,#249,#44,.T.);
#310=EDGE_CURVE('',#250,#250,#45,.T.);
#311=EDGE_CURVE('',#250,#251,#150,.T.);
#312=EDGE_CURVE('',#251,#251,#46,.T.);
#313=EDGE_CURVE('',#252,#253,#151,.T.);
#314=EDGE_CURVE('',#253,#254,#152,.T.);
#315=EDGE_CURVE('',#255,#254,#153,.T.);
#316=EDGE_CURVE('',#252,#255,#154,.T.);
#317=EDGE_CURVE('',#256,#252,#155,.T.);
#318=EDGE_CURVE('',#257,#255,#156,.T.);
#319=EDGE_CURVE('',#256,#257,#157,.T.);
#320=EDGE_CURVE('',#258,#256,#158,.T.);
#321=EDGE_CURVE('',#259,#257,#159,.T.);
#322=EDGE_CURVE('',#258,#259,#160,.T.);
#323=EDGE_CURVE('',#253,#258,#161,.T.);
#324=EDGE_CURVE('',#254,#259,#162,.T.);
#325=ORIENTED_EDGE('',*,*,#260,.T.);
#326=ORIENTED_EDGE('',*,*,#261,.T.);
#327=ORIENTED_EDGE('',*,*,#262,.T.);
#328=ORIENTED_EDGE('',*,*,#263,.T.);
#329=ORIENTED_EDGE('',*,*,#264,.T.);
#330=ORIENTED_EDGE('',*,*,#265,.F.);
#331=ORIENTED_EDGE('',*,*,#266,.T.);
#332=ORIENTED_EDGE('',*,*,#267,.F.);
#333=ORIENTED_EDGE('',*,*,#268,.T.);
#334=ORIENTED_EDGE('',*,*,#269,.F.);
#335=ORIENTED_EDGE('',*,*,#270,.T.);
#336=ORIENTED_EDGE('',*,*,#271,.T.);
#337=ORIENTED_EDGE('',*,*,#272,.T.);
#338=ORIENTED_EDGE('',*,*,#273,.F.);
#339=ORIENTED_EDGE('',*,*,#274,.F.);
#340=ORIENTED_EDGE('',*,*,#260,.F.);
#341=ORIENTED_EDGE('',*,*,#261,.F.);
#342=ORIENTED_EDGE('',*,*,#274,.T.);
#343=ORIENTED_EDGE('',*,*,#275,.F.);
#344=ORIENTED_EDGE('',*,*,#276,.T.);
#345=ORIENTED_EDGE('',*,*,#277,.T.);
#346=ORIENTED_EDGE('',*,*,#262,.F.);
#347=ORIENTED_EDGE('',*,*,#276,.F.);
#348=ORIENTED_EDGE('',*,*,#278,.F.);
#349=ORIENTED_EDGE('',*,*,#277,.F.);
#350=ORIENTED_EDGE('',*,*,#279,.F.);
#351=ORIENTED_EDGE('',*,*,#280,.T.);
#352=ORIENTED_EDGE('',*,*,#263,.F.);
#353=ORIENTED_EDGE('',*,*,#264,.F.);
#354=ORIENTED_EDGE('',*,*,#280,.F.);
#355=ORIENTED_EDGE('',*,*,#281,.F.);
#356=ORIENTED_EDGE('',*,*,#282,.F.);
#357=ORIENTED_EDGE('',*,*,#283,.F.);
#358=ORIENTED_EDGE('',*,*,#265,.T.);
#359=ORIENTED_EDGE('',*,*,#282,.T.);
#360=ORIENTED_EDGE('',*,*,#284,.F.);
#361=ORIENTED_EDGE('',*,*,#283,.T.);
#362=ORIENTED_EDGE('',*,*,#285,.F.);
#363=ORIENTED_EDGE('',*,*,#286,.F.);
#364=ORIENTED_EDGE('',*,*,#266,.F.);
#365=ORIENTED_EDGE('',*,*,#287,.F.);
#366=ORIENTED_EDGE('',*,*,#288,.T.);
#367=ORIENTED_EDGE('',*,*,#267,.T.);
#368=ORIENTED_EDGE('',*,*,#286,.T.);
#369=ORIENTED_EDGE('',*,*,#289,.T.);
#370=ORIENTED_EDGE('',*,*,#268,.F.);
#371=ORIENTED_EDGE('',*,*,#288,.F.);
#372=ORIENTED_EDGE('',*,*,#290,.F.);
#373=ORIENTED_EDGE('',*,*,#289,.F.);
#374=ORIENTED_EDGE('',*,*,#291,.F.);
#375=ORIENTED_EDGE('',*,*,#292,.T.);
#376=ORIENTED_EDGE('',*,*,#269,.T.);
#377=ORIENTED_EDGE('',*,*,#270,.F.);
#378=ORIENTED_EDGE('',*,*,#292,.F.);
#379=ORIENTED_EDGE('',*,*,#293,.F.);
#380=ORIENTED_EDGE('',*,*,#294,.F.);
#381=ORIENTED_EDGE('',*,*,#272,.F.);
#382=ORIENTED_EDGE('',*,*,#271,.F.);
#383=ORIENTED_EDGE('',*,*,#294,.T.);
#384=ORIENTED_EDGE('',*,*,#295,.F.);
#385=ORIENTED_EDGE('',*,*,#296,.F.);
#386=ORIENTED_EDGE('',*,*,#295,.T.);
#387=ORIENTED_EDGE('',*,*,#293,.T.);
#388=ORIENTED_EDGE('',*,*,#291,.T.);
#389=ORIENTED_EDGE('',*,*,#290,.T.);
#390=ORIENTED_EDGE('',*,*,#287,.T.);
#391=ORIENTED_EDGE('',*,*,#285,.T.);
#392=ORIENTED_EDGE('',*,*,#284,.T.);
#393=ORIENTED_EDGE('',*,*,#281,.T.);
#394=ORIENTED_EDGE('',*,*,#279,.T.);
#395=ORIENTED_EDGE('',*,*,#278,.T.);
#396=ORIENTED_EDGE('',*,*,#275,.T.);
#397=ORIENTED_EDGE('',*,*,#273,.T.);
#398=ORIENTED_EDGE('',*,*,#297,.F.);
#399=ORIENTED_EDGE('',*,*,#298,.T.);
#400=ORIENTED_EDGE('',*,*,#296,.T.);
#401=ORIENTED_EDGE('',*,*,#298,.F.);
#402=ORIENTED_EDGE('',*,*,#299,.T.);
#403=ORIENTED_EDGE('',*,*,#300,.F.);
#404=ORIENTED_EDGE('',*,*,#301,.T.);
#405=ORIENTED_EDGE('',*,*,#299,.F.);
#406=ORIENTED_EDGE('',*,*,#301,.F.);
#407=ORIENTED_EDGE('',*,*,#302,.F.);
#408=ORIENTED_EDGE('',*,*,#297,.T.);
#409=ORIENTED_EDGE('',*,*,#303,.T.);
#410=ORIENTED_EDGE('',*,*,#304,.T.);
#411=ORIENTED_EDGE('',*,*,#305,.T.);
#412=ORIENTED_EDGE('',*,*,#303,.F.);
#413=ORIENTED_EDGE('',*,*,#304,.F.);
#414=ORIENTED_EDGE('',*,*,#305,.F.);
#415=ORIENTED_EDGE('',*,*,#306,.T.);
#416=ORIENTED_EDGE('',*,*,#302,.T.);
#417=ORIENTED_EDGE('',*,*,#300,.T.);
#418=ORIENTED_EDGE('',*,*,#306,.F.);
#419=ORIENTED_EDGE('',*,*,#307,.F.);
#420=ORIENTED_EDGE('',*,*,#308,.T.);
#421=ORIENTED_EDGE('',*,*,#309,.F.);
#422=ORIENTED_EDGE('',*,*,#308,.F.);
#423=ORIENTED_EDGE('',*,*,#310,.F.);
#424=ORIENTED_EDGE('',*,*,#311,.T.);
#425=ORIENTED_EDGE('',*,*,#312,.F.);
#426=ORIENTED_EDGE('',*,*,#311,.F.);
#427=ORIENTED_EDGE('',*,*,#313,.T.);
#428=ORIENTED_EDGE('',*,*,#314,.T.);
#429=ORIENTED_EDGE('',*,*,#315,.F.);
#430=ORIENTED_EDGE('',*,*,#316,.F.);
#431=ORIENTED_EDGE('',*,*,#317,.T.);
#432=ORIENTED_EDGE('',*,*,#316,.T.);
#433=ORIENTED_EDGE('',*,*,#318,.F.);
#434=ORIENTED_EDGE('',*,*,#319,.F.);
#435=ORIENTED_EDGE('',*,*,#320,.T.);
#436=ORIENTED_EDGE('',*,*,#319,.T.);
#437=ORIENTED_EDGE('',*,*,#321,.F.);
#438=ORIENTED_EDGE('',*,*,#322,.F.);
#439=ORIENTED_EDGE('',*,*,#323,.T.);
#440=ORIENTED_EDGE('',*,*,#322,.T.);
#441=ORIENTED_EDGE('',*,*,#324,.F.);
#442=ORIENTED_EDGE('',*,*,#314,.F.);
#443=ORIENTED_EDGE('',*,*,#323,.F.);
#444=ORIENTED_EDGE('',*,*,#313,.F.);
#445=ORIENTED_EDGE('',*,*,#317,.F.);
#446=ORIENTED_EDGE('',*,*,#320,.F.);
#447=ORIENTED_EDGE('',*,*,#307,.T.);
#448=ORIENTED_EDGE('',*,*,#310,.T.);
#449=ORIENTED_EDGE('',*,*,#324,.T.);
#450=ORIENTED_EDGE('',*,*,#321,.T.);
#451=ORIENTED_EDGE('',*,*,#318,.T.);
#452=ORIENTED_EDGE('',*,*,#315,.T.);
#453=ORIENTED_EDGE('',*,*,#309,.T.);
#454=ORIENTED_EDGE('',*,*,#312,.T.);
#455=PLANE('',#519);
#456=PLANE('',#520);
#457=PLANE('',#521);
#458=PLANE('',#522);
#459=PLANE('',#523);
#460=PLANE('',#524);
#461=PLANE('',#525);
#462=PLANE('',#526);
#463=PLANE('',#527);
#464=PLANE('',#528);
#465=PLANE('',#529);
#466=PLANE('',#530);
#467=PLANE('',#531);
#468=PLANE('',#532);
#469=PLANE('',#536);
#470=PLANE('',#551);
#471=PLANE('',#552);
#472=PLANE('',#553);
#473=PLANE('',#554);
#474=PLANE('',#555);
#475=PLANE('',#556);
#476=ADVANCED_FACE('',(#50),#455,.T.);
#477=ADVANCED_FACE('',(#51),#456,.F.);
#478=ADVANCED_FACE('',(#52),#457,.T.);
#479=ADVANCED_FACE('',(#53),#458,.T.);
#480=ADVANCED_FACE('',(#54),#459,.T.);
#481=ADVANCED_FACE('',(#55),#460,.T.);
#482=ADVANCED_FACE('',(#56),#461,.T.);
#483=ADVANCED_FACE('',(#57),#462,.T.);
#484=ADVANCED_FACE('',(#58),#463,.T.);
#485=ADVANCED_FACE('',(#59),#464,.F.);
#486=ADVANCED_FACE('',(#60),#465,.T.);
#487=ADVANCED_FACE('',(#61),#466,.F.);
#488=ADVANCED_FACE('',(#62),#467,.T.);
#489=ADVANCED_FACE('',(#63,#31),#468,.T.);
#490=ADVANCED_FACE('',(#64),#27,.T.);
#491=ADVANCED_FACE('',(#65),#469,.T.);
#492=ADVANCED_FACE('',(#66),#25,.T.);
#493=ADVANCED_FACE('',(#67),#26,.T.);
#494=ADVANCED_FACE('',(#68),#28,.T.);
#495=ADVANCED_FACE('',(#69),#29,.F.);
#496=ADVANCED_FACE('',(#70),#30,.F.);
#497=ADVANCED_FACE('',(#71),#470,.T.);
#498=ADVANCED_FACE('',(#72),#471,.T.);
#499=ADVANCED_FACE('',(#73),#472,.T.);
#500=ADVANCED_FACE('',(#74),#473,.T.);
#501=ADVANCED_FACE('',(#75,#32,#33),#474,.T.);
#502=ADVANCED_FACE('',(#76,#34,#35),#475,.T.);
#503=CLOSED_SHELL('',(#476,#477,#478,#479,#480,#481,#482,#483,#484,#485,
#486,#487,#488,#489,#490,#491,#492,#493,#494));
#504=CLOSED_SHELL('',(#495,#496,#497,#498,#499,#500,#501,#502));
#505=DERIVED_UNIT_ELEMENT(#507,1.);
#506=DERIVED_UNIT_ELEMENT(#843,3.);
#507=(
MASS_UNIT()
NAMED_UNIT(*)
SI_UNIT(.KILO.,.GRAM.)
);
#508=DERIVED_UNIT((#505,#506));
#509=MEASURE_REPRESENTATION_ITEM('density measure',
POSITIVE_RATIO_MEASURE(7850.),#508);
#510=PROPERTY_DEFINITION_REPRESENTATION(#515,#512);
#511=PROPERTY_DEFINITION_REPRESENTATION(#516,#513);
#512=REPRESENTATION('material name',(#514),#840);
#513=REPRESENTATION('density',(#509),#840);
#514=DESCRIPTIVE_REPRESENTATION_ITEM('Steel','Steel');
#515=PROPERTY_DEFINITION('material property','material name',#856);
#516=PROPERTY_DEFINITION('material property','density of part',#856);
#517=AXIS2_PLACEMENT_3D('placement',#697,#559,#560);
#518=AXIS2_PLACEMENT_3D('placement',#698,#561,#562);
#519=AXIS2_PLACEMENT_3D('',#699,#563,#564);
#520=AXIS2_PLACEMENT_3D('',#724,#577,#578);
#521=AXIS2_PLACEMENT_3D('',#730,#582,#583);
#522=AXIS2_PLACEMENT_3D('',#734,#586,#587);
#523=AXIS2_PLACEMENT_3D('',#738,#590,#591);
#524=AXIS2_PLACEMENT_3D('',#742,#594,#595);
#525=AXIS2_PLACEMENT_3D('',#746,#598,#599);
#526=AXIS2_PLACEMENT_3D('',#750,#602,#603);
#527=AXIS2_PLACEMENT_3D('',#754,#606,#607);
#528=AXIS2_PLACEMENT_3D('',#758,#610,#611);
#529=AXIS2_PLACEMENT_3D('',#762,#614,#615);
#530=AXIS2_PLACEMENT_3D('',#766,#618,#619);
#531=AXIS2_PLACEMENT_3D('',#770,#622,#623);
#532=AXIS2_PLACEMENT_3D('',#772,#625,#626);
#533=AXIS2_PLACEMENT_3D('',#774,#627,#628);
#534=AXIS2_PLACEMENT_3D('',#775,#629,#630);
#535=AXIS2_PLACEMENT_3D('',#777,#631,#632);
#536=AXIS2_PLACEMENT_3D('',#779,#634,#635);
#537=AXIS2_PLACEMENT_3D('',#781,#636,#637);
#538=AXIS2_PLACEMENT_3D('',#782,#638,#639);
#539=AXIS2_PLACEMENT_3D('',#785,#640,#641);
#540=AXIS2_PLACEMENT_3D('',#787,#643,#644);
#541=AXIS2_PLACEMENT_3D('',#788,#645,#646);
#542=AXIS2_PLACEMENT_3D('',#792,#648,#649);
#543=AXIS2_PLACEMENT_3D('',#793,#650,#651);
#544=AXIS2_PLACEMENT_3D('',#794,#652,#653);
#545=AXIS2_PLACEMENT_3D('',#796,#655,#656);
#546=AXIS2_PLACEMENT_3D('',#798,#657,#658);
#547=AXIS2_PLACEMENT_3D('',#801,#660,#661);
#548=AXIS2_PLACEMENT_3D('',#802,#662,#663);
#549=AXIS2_PLACEMENT_3D('',#804,#664,#665);
#550=AXIS2_PLACEMENT_3D('',#807,#667,#668);
#551=AXIS2_PLACEMENT_3D('',#808,#669,#670);
#552=AXIS2_PLACEMENT_3D('',#817,#675,#676);
#553=AXIS2_PLACEMENT_3D('',#823,#680,#681);
#554=AXIS2_PLACEMENT_3D('',#829,#685,#686);
#555=AXIS2_PLACEMENT_3D('',#832,#689,#690);
#556=AXIS2_PLACEMENT_3D('',#833,#691,#692);
#557=AXIS2_PLACEMENT_3D('',#834,#693,#694);
#558=AXIS2_PLACEMENT_3D('',#835,#695,#696);
#559=DIRECTION('axis',(0.,0.,1.));
#560=DIRECTION('refdir',(1.,0.,0.));
#561=DIRECTION('axis',(0.,0.,1.));
#562=DIRECTION('refdir',(1.,0.,0.));
#563=DIRECTION('center_axis',(-1.,0.,0.));
#564=DIRECTION('ref_axis',(0.,1.,0.));
#565=DIRECTION('',(0.,1.,0.));
#566=DIRECTION('',(0.,0.,-1.));
#567=DIRECTION('',(0.,-1.,0.));
#568=DIRECTION('',(0.,0.,-1.));
#569=DIRECTION('',(0.,-1.,0.));
#570=DIRECTION('',(0.,0.,-1.));
#571=DIRECTION('',(0.,-1.,0.));
#572=DIRECTION('',(0.,0.,-1.));
#573=DIRECTION('',(0.,1.,0.));
#574=DIRECTION('',(0.,0.,-1.));
#575=DIRECTION('',(0.,1.,0.));
#576=DIRECTION('',(0.,0.,-1.));
#577=DIRECTION('center_axis',(0.,0.,1.));
#578=DIRECTION('ref_axis',(1.,0.,0.));
#579=DIRECTION('',(-1.,0.,0.));
#580=DIRECTION('',(0.,-1.,0.));
#581=DIRECTION('',(-1.,0.,0.));
#582=DIRECTION('center_axis',(0.,-1.,0.));
#583=DIRECTION('ref_axis',(1.,0.,0.));
#584=DIRECTION('',(-1.83690953073357E-16,0.,1.));
#585=DIRECTION('',(1.,0.,0.));
#586=DIRECTION('center_axis',(0.,0.,1.));
#587=DIRECTION('ref_axis',(1.,0.,0.));
#588=DIRECTION('',(1.,0.,0.));
#589=DIRECTION('',(0.,1.,0.));
#590=DIRECTION('center_axis',(0.,-1.,0.));
#591=DIRECTION('ref_axis',(1.,0.,0.));
#592=DIRECTION('',(-1.83690953073357E-16,0.,1.));
#593=DIRECTION('',(1.,0.,0.));
#594=DIRECTION('center_axis',(0.,0.,1.));
#595=DIRECTION('ref_axis',(1.,0.,0.));
#596=DIRECTION('',(0.,1.,0.));
#597=DIRECTION('',(-1.,0.,0.));
#598=DIRECTION('center_axis',(0.,1.,0.));
#599=DIRECTION('ref_axis',(1.,0.,0.));
#600=DIRECTION('',(-1.,0.,0.));
#601=DIRECTION('',(1.83690953073357E-16,0.,-1.));
#602=DIRECTION('center_axis',(0.,0.,1.));
#603=DIRECTION('ref_axis',(1.,0.,0.));
#604=DIRECTION('',(0.,1.,0.));
#605=DIRECTION('',(-1.,0.,0.));
#606=DIRECTION('center_axis',(0.,1.,0.));
#607=DIRECTION('ref_axis',(1.,0.,0.));
#608=DIRECTION('',(1.83690953073357E-16,0.,-1.));
#609=DIRECTION('',(1.,0.,0.));
#610=DIRECTION('center_axis',(0.,0.,1.));
#611=DIRECTION('ref_axis',(1.,0.,0.));
#612=DIRECTION('',(1.,0.,0.));
#613=DIRECTION('',(0.,-1.,0.));
#614=DIRECTION('center_axis',(0.,1.,0.));
#615=DIRECTION('ref_axis',(1.,0.,0.));
#616=DIRECTION('',(1.83690953073357E-16,0.,-1.));
#617=DIRECTION('',(1.,0.,0.));
#618=DIRECTION('center_axis',(0.,0.,1.));
#619=DIRECTION('ref_axis',(1.,0.,0.));
#620=DIRECTION('',(0.,-1.,0.));
#621=DIRECTION('',(-1.,0.,0.));
#622=DIRECTION('center_axis',(0.,-1.,0.));
#623=DIRECTION('ref_axis',(1.,0.,0.));
#624=DIRECTION('',(-1.83690953073357E-16,0.,1.));
#625=DIRECTION('center_axis',(-1.,0.,-1.83690953073357E-16));
#626=DIRECTION('ref_axis',(0.,1.,0.));
#627=DIRECTION('center_axis',(1.,0.,1.83690953073357E-16));
#628=DIRECTION('ref_axis',(-1.83690953073357E-16,0.,1.));
#629=DIRECTION('center_axis',(1.,0.,1.83690953073357E-16));
#630=DIRECTION('ref_axis',(-1.83690953073357E-16,0.,1.));
#631=DIRECTION('center_axis',(1.,0.,1.83690953073357E-16));
#632=DIRECTION('ref_axis',(-1.83690953073357E-16,0.,1.));
#633=DIRECTION('',(-1.,0.,-1.83690953073357E-16));
#634=DIRECTION('center_axis',(1.,0.,6.12303176911189E-17));
#635=DIRECTION('ref_axis',(0.,1.,0.));
#636=DIRECTION('center_axis',(1.,-1.09476442525376E-47,6.12303176911189E-17));
#637=DIRECTION('ref_axis',(-6.12303176911189E-17,7.3596782796502E-16,1.));
#638=DIRECTION('center_axis',(-1.,0.,-6.12303176911189E-17));
#639=DIRECTION('ref_axis',(-6.12303176911189E-17,7.3596782796502E-16,1.));
#640=DIRECTION('center_axis',(-1.,0.,-6.12303176911189E-17));
#641=DIRECTION('ref_axis',(6.12303176911189E-17,0.,-1.));
#642=DIRECTION('',(0.707106781186547,6.0700344751275E-16,0.707106781186548));
#643=DIRECTION('center_axis',(-1.,0.,-6.12303176911189E-17));
#644=DIRECTION('ref_axis',(6.12303176911189E-17,0.,-1.));
#645=DIRECTION('center_axis',(-1.,0.,-1.83690953073357E-16));
#646=DIRECTION('ref_axis',(-1.83690953073357E-16,0.,1.));
#647=DIRECTION('',(0.752419737064591,8.06655184777695E-17,0.658683944905029));
#648=DIRECTION('center_axis',(-1.,0.,-6.12303176911189E-17));
#649=DIRECTION('ref_axis',(6.12303176911189E-17,0.,-1.));
#650=DIRECTION('center_axis',(-1.,0.,-6.12303176911189E-17));
#651=DIRECTION('ref_axis',(6.12303176911189E-17,0.,-1.));
#652=DIRECTION('center_axis',(-1.,0.,-6.12303176911189E-17));
#653=DIRECTION('ref_axis',(6.12303176911189E-17,0.,-1.));
#654=DIRECTION('',(1.,0.,6.12303176911189E-17));
#655=DIRECTION('center_axis',(0.,0.,-1.));
#656=DIRECTION('ref_axis',(1.,0.,0.));
#657=DIRECTION('center_axis',(0.,0.,-1.));
#658=DIRECTION('ref_axis',(1.,0.,0.));
#659=DIRECTION('',(0.,0.,-1.));
#660=DIRECTION('center_axis',(0.,0.,1.));
#661=DIRECTION('ref_axis',(1.,0.,0.));
#662=DIRECTION('center_axis',(0.,0.,-1.));
#663=DIRECTION('ref_axis',(1.,0.,0.));
#664=DIRECTION('center_axis',(0.,0.,-1.));
#665=DIRECTION('ref_axis',(1.,0.,0.));
#666=DIRECTION('',(0.,0.,-1.));
#667=DIRECTION('center_axis',(0.,0.,1.));
#668=DIRECTION('ref_axis',(1.,0.,0.));
#669=DIRECTION('center_axis',(1.,0.,0.));
#670=DIRECTION('ref_axis',(0.,-1.,0.));
#671=DIRECTION('',(0.,-1.,0.));
#672=DIRECTION('',(0.,0.,-1.));
#673=DIRECTION('',(0.,-1.,0.));
#674=DIRECTION('',(0.,0.,-1.));
#675=DIRECTION('center_axis',(0.,1.,0.));
#676=DIRECTION('ref_axis',(1.,0.,0.));
#677=DIRECTION('',(1.,0.,0.));
#678=DIRECTION('',(1.,0.,0.));
#679=DIRECTION('',(0.,0.,-1.));
#680=DIRECTION('center_axis',(-1.,0.,0.));
#681=DIRECTION('ref_axis',(0.,1.,0.));
#682=DIRECTION('',(0.,1.,0.));
#683=DIRECTION('',(0.,1.,0.));
#684=DIRECTION('',(0.,0.,-1.));
#685=DIRECTION('center_axis',(0.,-1.,0.));
#686=DIRECTION('ref_axis',(-1.,0.,0.));
#687=DIRECTION('',(-1.,0.,0.));
#688=DIRECTION('',(-1.,0.,0.));
#689=DIRECTION('center_axis',(0.,0.,1.));
#690=DIRECTION('ref_axis',(1.,0.,0.));
#691=DIRECTION('center_axis',(0.,0.,-1.));
#692=DIRECTION('ref_axis',(-1.,0.,0.));
#693=DIRECTION('',(-1.,1.22464679914735E-16,-1.52655665885959E-16));
#694=DIRECTION('',(-1.52655665885959E-16,0.,1.));
#695=DIRECTION('',(-1.,1.22464679914735E-16,-1.52655665885959E-16));
#696=DIRECTION('',(-1.52655665885959E-16,0.,1.));
#697=CARTESIAN_POINT('',(0.,0.,0.));
#698=CARTESIAN_POINT('',(0.,0.,0.));
#699=CARTESIAN_POINT('Origin',(-0.2865,0.,0.));
#700=CARTESIAN_POINT('',(-0.2865,0.28,0.28));
#701=CARTESIAN_POINT('',(-0.2865,1.45,0.28));
#702=CARTESIAN_POINT('',(-0.2865,0.,0.28));
#703=CARTESIAN_POINT('',(-0.2865,1.45,-0.28));
#704=CARTESIAN_POINT('',(-0.2865,1.45,0.));
#705=CARTESIAN_POINT('',(-0.2865,0.28,-0.28));
#706=CARTESIAN_POINT('',(-0.2865,0.,-0.28));
#707=CARTESIAN_POINT('',(-0.2865,0.28,-1.45));
#708=CARTESIAN_POINT('',(-0.2865,0.28,0.));
#709=CARTESIAN_POINT('',(-0.2865,-0.28,-1.45));
#710=CARTESIAN_POINT('',(-0.2865,0.,-1.45));
#711=CARTESIAN_POINT('',(-0.2865,-0.28,-0.28));
#712=CARTESIAN_POINT('',(-0.2865,-0.28,0.));
#713=CARTESIAN_POINT('',(-0.2865,-1.45,-0.28));
#714=CARTESIAN_POINT('',(-0.2865,0.,-0.28));
#715=CARTESIAN_POINT('',(-0.2865,-1.45,0.28));
#716=CARTESIAN_POINT('',(-0.2865,-1.45,0.));
#717=CARTESIAN_POINT('',(-0.2865,-0.28,0.28));
#718=CARTESIAN_POINT('',(-0.2865,0.,0.28));
#719=CARTESIAN_POINT('',(-0.2865,-0.28,1.45));
#720=CARTESIAN_POINT('',(-0.2865,-0.28,0.));
#721=CARTESIAN_POINT('',(-0.2865,0.28,1.45));
#722=CARTESIAN_POINT('',(-0.2865,0.,1.45));
#723=CARTESIAN_POINT('',(-0.2865,0.28,0.));
#724=CARTESIAN_POINT('Origin',(-0.96825,0.,0.28));
#725=CARTESIAN_POINT('',(-1.65,0.28,0.28));
#726=CARTESIAN_POINT('',(-0.96825,0.28,0.28));
#727=CARTESIAN_POINT('',(-1.65,1.45,0.28));
#728=CARTESIAN_POINT('',(-1.65,5.05150120951731E-17,0.28));
#729=CARTESIAN_POINT('',(-0.96825,1.45,0.28));
#730=CARTESIAN_POINT('Origin',(-0.96825,1.45,0.));
#731=CARTESIAN_POINT('',(-1.65,1.45,-0.28));
#732=CARTESIAN_POINT('',(-1.65,1.45,0.7));
#733=CARTESIAN_POINT('',(-0.96825,1.45,-0.28));
#734=CARTESIAN_POINT('Origin',(-0.96825,0.,-0.28));
#735=CARTESIAN_POINT('',(-1.65,0.28,-0.28));
#736=CARTESIAN_POINT('',(-0.96825,0.28,-0.28));
#737=CARTESIAN_POINT('',(-1.65,5.05150120951731E-17,-0.28));
#738=CARTESIAN_POINT('Origin',(-0.96825,0.28,0.));
#739=CARTESIAN_POINT('',(-1.65,0.28,-1.45));
#740=CARTESIAN_POINT('',(-1.65,0.28,0.7));
#741=CARTESIAN_POINT('',(-0.96825,0.28,-1.45));
#742=CARTESIAN_POINT('Origin',(-0.96825,0.,-1.45));
#743=CARTESIAN_POINT('',(-1.65,-0.28,-1.45));
#744=CARTESIAN_POINT('',(-1.65,5.05150120951731E-17,-1.45));
#745=CARTESIAN_POINT('',(-0.96825,-0.28,-1.45));
#746=CARTESIAN_POINT('Origin',(-0.96825,-0.28,0.));
#747=CARTESIAN_POINT('',(-1.65,-0.28,-0.28));
#748=CARTESIAN_POINT('',(-0.96825,-0.28,-0.28));
#749=CARTESIAN_POINT('',(-1.65,-0.28,0.7));
#750=CARTESIAN_POINT('Origin',(-0.96825,0.,-0.28));
#751=CARTESIAN_POINT('',(-1.65,-1.45,-0.28));
#752=CARTESIAN_POINT('',(-1.65,5.05150120951731E-17,-0.28));
#753=CARTESIAN_POINT('',(-0.96825,-1.45,-0.28));
#754=CARTESIAN_POINT('Origin',(-0.96825,-1.45,0.));
#755=CARTESIAN_POINT('',(-1.65,-1.45,0.28));
#756=CARTESIAN_POINT('',(-1.65,-1.45,0.7));
#757=CARTESIAN_POINT('',(-0.96825,-1.45,0.28));
#758=CARTESIAN_POINT('Origin',(-0.96825,0.,0.28));
#759=CARTESIAN_POINT('',(-1.65,-0.28,0.28));
#760=CARTESIAN_POINT('',(-0.96825,-0.28,0.28));
#761=CARTESIAN_POINT('',(-1.65,5.05150120951731E-17,0.28));
#762=CARTESIAN_POINT('Origin',(-0.96825,-0.28,0.));
#763=CARTESIAN_POINT('',(-1.65,-0.28,1.45));
#764=CARTESIAN_POINT('',(-1.65,-0.28,0.7));
#765=CARTESIAN_POINT('',(-0.96825,-0.28,1.45));
#766=CARTESIAN_POINT('Origin',(-0.96825,0.,1.45));
#767=CARTESIAN_POINT('',(-1.65,0.28,1.45));
#768=CARTESIAN_POINT('',(-1.65,5.05150120951731E-17,1.45));
#769=CARTESIAN_POINT('',(-0.96825,0.28,1.45));
#770=CARTESIAN_POINT('Origin',(-0.96825,0.28,0.));
#771=CARTESIAN_POINT('',(-1.65,0.28,0.7));
#772=CARTESIAN_POINT('Origin',(-1.65,1.01030024190346E-16,1.4));
#773=CARTESIAN_POINT('',(-1.65,-3.42889779070266E-16,-2.8));
#774=CARTESIAN_POINT('Origin',(-1.65,0.,-3.03090072571038E-16));
#775=CARTESIAN_POINT('Origin',(-1.5675,0.,-2.87935568942486E-16));
#776=CARTESIAN_POINT('',(-1.485,-3.42889779070266E-16,-2.8));
#777=CARTESIAN_POINT('Origin',(-1.485,0.,-2.72781065313935E-16));
#778=CARTESIAN_POINT('',(-1.5675,3.42901103761259E-16,-2.8));
#779=CARTESIAN_POINT('Origin',(14.35,8.78655058867556E-16,-0.75));
#780=CARTESIAN_POINT('',(14.35,-1.02453437100495E-15,-1.1935));
#781=CARTESIAN_POINT('Origin',(14.35,0.,8.78655058867556E-16));
#782=CARTESIAN_POINT('Origin',(14.19675,0.,8.69271512681392E-16));
#783=CARTESIAN_POINT('',(14.0435,-1.28764269502089E-15,-1.5));
#784=CARTESIAN_POINT('',(14.0435,1.83697019872103E-16,1.5));
#785=CARTESIAN_POINT('Origin',(14.0435,0.,8.59887966495228E-16));
#786=CARTESIAN_POINT('',(14.19675,-1.15609397998706E-15,-1.34675));
#787=CARTESIAN_POINT('Origin',(14.0435,0.,8.59887966495228E-16));
#788=CARTESIAN_POINT('Origin',(-0.7425,0.,-1.36390532656967E-16));
#789=CARTESIAN_POINT('',(9.18454765366783E-17,0.,-1.5));
#790=CARTESIAN_POINT('',(-0.7425,-2.63299061816681E-16,-2.15));
#791=CARTESIAN_POINT('',(-1.11022302462516E-15,1.83697019872103E-16,1.5));
#792=CARTESIAN_POINT('Origin',(0.,0.,0.));
#793=CARTESIAN_POINT('Origin',(0.,0.,0.));
#794=CARTESIAN_POINT('Origin',(7.175,0.,4.39327529433778E-16));
#795=CARTESIAN_POINT('',(7.175,1.83697019872103E-16,1.5));
#796=CARTESIAN_POINT('Origin',(-11.,0.,-15.));
#797=CARTESIAN_POINT('',(-12.2645,1.54856587752183E-16,0.));
#798=CARTESIAN_POINT('Origin',(-11.,0.,0.));
#799=CARTESIAN_POINT('',(-12.2645,-1.54856587752183E-16,-15.));
#800=CARTESIAN_POINT('',(-12.2645,1.54856587752183E-16,-15.));
#801=CARTESIAN_POINT('Origin',(-11.,0.,-15.));
#802=CARTESIAN_POINT('Origin',(11.,-4.44089209850063E-15,-15.));
#803=CARTESIAN_POINT('',(9.7355,-4.28603551074844E-15,0.));
#804=CARTESIAN_POINT('Origin',(11.,-4.44089209850063E-15,0.));
#805=CARTESIAN_POINT('',(9.7355,-4.59574868625281E-15,-15.));
#806=CARTESIAN_POINT('',(9.7355,-4.28603551074844E-15,-15.));
#807=CARTESIAN_POINT('Origin',(11.,-4.44089209850063E-15,-15.));
#808=CARTESIAN_POINT('Origin',(22.,6.99999999999999,0.));
#809=CARTESIAN_POINT('',(22.,6.99999999999999,0.));
#810=CARTESIAN_POINT('',(22.,-7.,0.));
#811=CARTESIAN_POINT('',(22.,6.99999999999999,0.));
#812=CARTESIAN_POINT('',(22.,-7.,-15.));
#813=CARTESIAN_POINT('',(22.,-7.,0.));
#814=CARTESIAN_POINT('',(22.,6.99999999999999,-15.));
#815=CARTESIAN_POINT('',(22.,6.99999999999999,-15.));
#816=CARTESIAN_POINT('',(22.,6.99999999999999,0.));
#817=CARTESIAN_POINT('Origin',(-22.,6.99999999999999,0.));
#818=CARTESIAN_POINT('',(-22.,6.99999999999999,0.));
#819=CARTESIAN_POINT('',(-22.,6.99999999999999,0.));
#820=CARTESIAN_POINT('',(-22.,6.99999999999999,-15.));
#821=CARTESIAN_POINT('',(-22.,6.99999999999999,-15.));
#822=CARTESIAN_POINT('',(-22.,6.99999999999999,0.));
#823=CARTESIAN_POINT('Origin',(-22.,-7.,0.));
#824=CARTESIAN_POINT('',(-22.,-7.,0.));
#825=CARTESIAN_POINT('',(-22.,-7.,0.));
#826=CARTESIAN_POINT('',(-22.,-7.,-15.));
#827=CARTESIAN_POINT('',(-22.,-7.,-15.));
#828=CARTESIAN_POINT('',(-22.,-7.,0.));
#829=CARTESIAN_POINT('Origin',(22.,-7.,0.));
#830=CARTESIAN_POINT('',(22.,-7.,0.));
#831=CARTESIAN_POINT('',(22.,-7.,-15.));
#832=CARTESIAN_POINT('Origin',(0.,-4.44089209850063E-15,0.));
#833=CARTESIAN_POINT('Origin',(0.,-4.44089209850063E-15,-15.));
#834=CARTESIAN_POINT('',(-11.,-1.77635683940025E-14,-16.35));
#835=CARTESIAN_POINT('',(11.,-1.77635683940025E-14,-16.35));
#836=UNCERTAINTY_MEASURE_WITH_UNIT(LENGTH_MEASURE(0.01),#842,
'DISTANCE_ACCURACY_VALUE',
'Maximum model space distance between geometric entities at asserted c
onnectivities');
#837=UNCERTAINTY_MEASURE_WITH_UNIT(LENGTH_MEASURE(0.01),#842,
'DISTANCE_ACCURACY_VALUE',
'Maximum model space distance between geometric entities at asserted c
onnectivities');
#838=UNCERTAINTY_MEASURE_WITH_UNIT(LENGTH_MEASURE(0.01),#842,
'DISTANCE_ACCURACY_VALUE',
'Maximum model space distance between geometric entities at asserted c
onnectivities');
#839=(
GEOMETRIC_REPRESENTATION_CONTEXT(3)
GLOBAL_UNCERTAINTY_ASSIGNED_CONTEXT((#836))
GLOBAL_UNIT_ASSIGNED_CONTEXT((#842,#844,#845))
REPRESENTATION_CONTEXT('','3D')
);
#840=(
GEOMETRIC_REPRESENTATION_CONTEXT(3)
GLOBAL_UNCERTAINTY_ASSIGNED_CONTEXT((#837))
GLOBAL_UNIT_ASSIGNED_CONTEXT((#842,#844,#845))
REPRESENTATION_CONTEXT('','3D')
);
#841=(
GEOMETRIC_REPRESENTATION_CONTEXT(3)
GLOBAL_UNCERTAINTY_ASSIGNED_CONTEXT((#838))
GLOBAL_UNIT_ASSIGNED_CONTEXT((#842,#844,#845))
REPRESENTATION_CONTEXT('','3D')
);
#842=(
LENGTH_UNIT()
NAMED_UNIT(*)
SI_UNIT(.MILLI.,.METRE.)
);
#843=(
LENGTH_UNIT()
NAMED_UNIT(*)
SI_UNIT($,.METRE.)
);
#844=(
NAMED_UNIT(*)
PLANE_ANGLE_UNIT()
SI_UNIT($,.RADIAN.)
);
#845=(
NAMED_UNIT(*)
SI_UNIT($,.STERADIAN.)
SOLID_ANGLE_UNIT()
);
#846=SHAPE_DEFINITION_REPRESENTATION(#848,#852);
#847=SHAPE_DEFINITION_REPRESENTATION(#849,#853);
#848=PRODUCT_DEFINITION_SHAPE('',$,#855);
#849=PRODUCT_DEFINITION_SHAPE('',$,#856);
#850=PRODUCT_DEFINITION_SHAPE($,$,#17);
#851=PRODUCT_DEFINITION_SHAPE($,$,#18);
#852=SHAPE_REPRESENTATION('',(#517,#557,#558),#839);
#853=SHAPE_REPRESENTATION('',(#518),#840);
#854=PRODUCT_DEFINITION_CONTEXT('part definition',#862,'design');
#855=PRODUCT_DEFINITION('Pillar','Pillar',#857,#854);
#856=PRODUCT_DEFINITION('M3x16mm Screw','M3x16mm Screw v2',#858,#854);
#857=PRODUCT_DEFINITION_FORMATION('',$,#864);
#858=PRODUCT_DEFINITION_FORMATION('',$,#865);
#859=PRODUCT_RELATED_PRODUCT_CATEGORY('Pillar','Pillar',(#864));
#860=PRODUCT_RELATED_PRODUCT_CATEGORY('M3x16mm Screw v2',
'M3x16mm Screw v2',(#865));
#861=APPLICATION_PROTOCOL_DEFINITION('international standard',
'automotive_design',2009,#862);
#862=APPLICATION_CONTEXT(
'Core Data for Automotive Mechanical Design Process');
#863=PRODUCT_CONTEXT('part definition',#862,'mechanical');
#864=PRODUCT('Pillar','Pillar',$,(#863));
#865=PRODUCT('M3x16mm Screw','M3x16mm Screw v2',$,(#863));
#866=PRESENTATION_STYLE_ASSIGNMENT((#869));
#867=PRESENTATION_STYLE_ASSIGNMENT((#870));
#868=PRESENTATION_STYLE_ASSIGNMENT((#871));
#869=SURFACE_STYLE_USAGE(.BOTH.,#872);
#870=SURFACE_STYLE_USAGE(.BOTH.,#873);
#871=SURFACE_STYLE_USAGE(.BOTH.,#874);
#872=SURFACE_SIDE_STYLE('',(#875));
#873=SURFACE_SIDE_STYLE('',(#876));
#874=SURFACE_SIDE_STYLE('',(#877));
#875=SURFACE_STYLE_FILL_AREA(#878);
#876=SURFACE_STYLE_FILL_AREA(#879);
#877=SURFACE_STYLE_FILL_AREA(#880);
#878=FILL_AREA_STYLE('Steel - Satin',(#881));
#879=FILL_AREA_STYLE('Aluminum - Satin',(#882));
#880=FILL_AREA_STYLE('Plastic - Matte (Black) (1)',(#883));
#881=FILL_AREA_STYLE_COLOUR('Steel - Satin',#884);
#882=FILL_AREA_STYLE_COLOUR('Aluminum - Satin',#885);
#883=FILL_AREA_STYLE_COLOUR('Plastic - Matte (Black) (1)',#886);
#884=COLOUR_RGB('Steel - Satin',0.627450980392157,0.627450980392157,0.627450980392157);
#885=COLOUR_RGB('Aluminum - Satin',0.96078431372549,0.96078431372549,0.964705882352941);
#886=COLOUR_RGB('Plastic - Matte (Black) (1)',0.47843137254902,0.474509803921569,
0.474509803921569);
ENDSEC;
END-ISO-10303-21;
